<?xml version="1.0" standalone="no"?>
<!DOCTYPE svg PUBLIC "-//W3C//DTD SVG 1.1//EN" "http://www.w3.org/Graphics/SVG/1.1/DTD/svg11.dtd" >
<svg xmlns="http://www.w3.org/2000/svg">
<metadata></metadata>
<defs>
<font id="latin_modern_mono_light_c10Rg" horiz-adv-x="350" >
<font-face units-per-em="1000" ascent="771" descent="-229" />
<missing-glyph horiz-adv-x="500" />
<glyph unicode=" " />
<glyph unicode="!" d="M144 37q0 16 9.5 26t21.5 10t21.5 -10t9.5 -26t-9.5 -26.5t-21.5 -10.5t-21.5 10.5t-9.5 26.5zM144 578q0 45 31 45q30 0 31 -43l-6 -372q-1 -15 -5.5 -21.5t-19.5 -6.5q-17 0 -21.5 5t-4.5 23z" />
<glyph unicode="&#x22;" d="M87 580q0 14 7 27t21 13q13 0 20.5 -14t6.5 -26l-7 -211q0 -33 -20 -33q-19 0 -21 33zM208 580q0 14 7 27t21 13q13 0 20.5 -14t6.5 -26l-7 -211q0 -33 -20 -33q-19 0 -21 33z" />
<glyph unicode="#" d="M19 195q0 23 31 23h35l14 175h-49q-31 0 -31 24t31 24h54l11 131q6 39 23 39q24 0 23 -28l-13 -142h77l12 131q3 39 23 39q24 0 22 -28l-13 -142h31q31 0 31 -25q0 -23 -31 -23h-35l-15 -175h50q31 0 31 -24t-31 -24h-54l-12 -131q-3 -39 -23 -39h-2.5t-5.5 1.5t-7 4.5 t-5.5 8.5t-1.5 13.5l13 142h-78l-11 -131q-6 -39 -23 -39q-3 0 -7 1t-10 8t-5 19l13 142h-31q-31 0 -31 25zM129 218h78l14 175h-78z" />
<glyph unicode="$" d="M35 160q0 17 7 26.5t14 10.5l7 1q10 0 19 -8t9 -24q0 -10 -12 -24q15 -93 76 -106v264q-32 9 -56 27.5t-36 37t-19 40.5t-8 33t-1 20q0 56 33.5 102t86.5 55v49q0 33 20 33t20 -33v-48q37 -6 63.5 -25.5t37.5 -45.5t15 -46t4 -37q0 -37 -29 -37q-9 0 -18 8.5t-9 24.5 q0 10 12 23q-16 84 -76 94v-238q62 -18 91 -68.5t29 -102.5q0 -62 -33 -110.5t-87 -59.5v-49q0 -33 -20 -33t-20 33v48q-61 9 -90.5 58t-29.5 107zM76 462q0 -41 21.5 -72t57.5 -41v226q-35 -8 -57 -40t-22 -73zM195 37q37 9 58 45.5t21 80.5q0 45 -22.5 80t-56.5 44v-250z " />
<glyph unicode="%" d="M19 569q0 54 17.5 91t42.5 37q24 0 41.5 -37t17.5 -92q0 -54 -17 -90.5t-42 -36.5q-24 0 -42 36.5t-18 91.5zM57 -61q0 1 1 4.5t2 7.5l187 716q9 30 24 30q8 0 15 -6.5t7 -18.5q0 -1 -0.5 -2.5t-1.5 -4t-2 -5.5l-187 -716q-5 -30 -23 -30q-8 0 -15 7t-7 18zM57 568 q0 -25 3.5 -45t8.5 -30.5t10 -10.5q4 0 9 10t8.5 30.5t3.5 46.5q0 24 -3.5 44.5t-8.5 31t-9 10.5q-5 0 -10 -9.5t-8.5 -30.5t-3.5 -47zM211 42q0 53 18 90t42 37t42 -37t18 -90q0 -54 -18 -91t-42 -37t-42 37t-18 91zM249 42q0 -26 3.5 -46.5t8.5 -30t10 -9.5t10 9.5t8.5 30 t3.5 46.5q0 25 -3.5 45.5t-8.5 30.5t-10 10t-10 -10t-8.5 -30.5t-3.5 -45.5z" />
<glyph unicode="&#x26;" d="M15 128q0 57 27 103l46 78q-22 102 -22 177q0 65 21.5 101t50.5 36q31 0 47 -39t16 -90q0 -31 -12 -67t-24.5 -59t-37.5 -66q18 -66 55 -158q19 51 66 241q-33 0 -33 20t28 20h61q28 0 28 -20t-28 -20h-19l-36 -142l-42 -134q0 -14 19.5 -47.5t37.5 -33.5q24 0 26 66 q2 29 20 29q2 0 5 -0.5t8.5 -6.5t5.5 -17q0 -40 -17 -75.5t-47 -35.5q-42 0 -81 71q-38 -71 -86 -71q-36 0 -59.5 42t-23.5 98zM56 132q0 -35 10 -69.5t33 -34.5q30 0 65 71q-45 110 -61 161q-29 -44 -38 -66.5t-9 -61.5zM104 485q0 -64 12 -129q47 80 47 138v5q0 5 -0.5 13 t-1 17t-2.5 19t-4.5 17.5t-6.5 12.5t-10 5q-15 0 -24.5 -26t-9.5 -72z" />
<glyph unicode="'" d="M147 580q0 14 7 27t21 13q13 0 20.5 -14t6.5 -26l-7 -211q0 -33 -20 -33q-19 0 -21 33z" />
<glyph unicode="(" d="M114 305q0 144 59 265q23 48 55.5 87.5t45.5 39.5q20 0 20 -17q0 -4 -14 -18q-121 -123 -121 -357q0 -233 121 -356q14 -14 14 -18q0 -6 -5 -11.5t-15 -5.5q-14 0 -46 40t-57 89q-57 120 -57 262z" />
<glyph unicode=")" d="M55 -69q0 5 15 18q121 125 121 357q0 100 -28.5 194.5t-90.5 158.5q-17 19 -17 21q0 6 6 11.5t14 5.5q15 0 46.5 -39t50.5 -78q63 -125 63 -275q0 -142 -58 -264q-23 -48 -55.5 -87.5t-46.5 -39.5q-8 0 -14 5.5t-6 11.5z" />
<glyph unicode="*" d="M42 210q0 10 8 16l100 80l-100 78q-8 8 -8 17q0 11 7 16.5t14 5.5q4 0 15 -8l79 -72l-3 154q0 21 21 21q7 0 13.5 -5t6.5 -13l-2 -157l79 72q11 8 14 8q8 0 15 -5.5t7 -16.5q0 -8 -8 -16l-101 -80q67 -49 98 -77q11 -11 11 -18q0 -11 -7 -16.5t-15 -5.5q-4 0 -7 2l-86 78 l2 -154q0 -10 -6 -15.5t-14 -5.5q-7 0 -14 5.5t-7 15.5l2 154l-78 -72q-11 -8 -15 -8q-7 0 -14 5.5t-7 16.5z" />
<glyph unicode="+" d="M21 306q0 23 31 23h101v158q0 36 23 36q21 0 21 -36v-158h101q31 0 31 -24q0 -23 -31 -23h-101v-158q0 -36 -22 -36t-22 36v158h-101q-31 0 -31 24z" />
<glyph unicode="," d="M120 -122q0 6 5 11q56 28 66 115q-9 -4 -16 -4q-15 0 -27 14t-12 35q0 19 11.5 33.5t28.5 14.5q21 0 37 -25.5t16 -62.5t-11 -68t-26.5 -48t-29 -26.5t-21.5 -9.5q-7 0 -14 6.5t-7 14.5z" />
<glyph unicode="-" d="M34 306q0 23 31 23h220q31 0 31 -24q0 -23 -31 -23h-220q-31 0 -31 24z" />
<glyph unicode="." d="M136 48q0 21 12 35t28 14q14 0 26 -14t12 -35q0 -19 -12 -33.5t-27 -14.5t-27 14t-12 34z" />
<glyph unicode="/" d="M35 -61q0 2 4 12l230 718q8 28 24 28q8 0 15 -6.5t7 -18.5q0 -2 -2 -6t-2 -6l-230 -718q-10 -28 -24 -28q-8 0 -15 6.5t-7 18.5z" />
<glyph unicode="0" d="M30 306q0 135 43.5 226t101.5 91q57 0 101 -91t44 -227q0 -134 -44 -225.5t-101 -91.5t-101 91t-44 227zM75 316q0 -120 29 -204t71 -84t71 84.5t29 203.5q0 116 -29.5 191.5t-70.5 75.5t-70.5 -75.5t-29.5 -191.5z" />
<glyph unicode="1" d="M69 477q0 20 24 20q46 6 74 104q7 22 20 22q20 0 20 -32v-551h63q28 0 28 -20t-28 -20h-170q-28 0 -28 20t28 20h63v463l-9 -8q-9 -8 -19 -16t-22.5 -15t-21.5 -7q-22 0 -22 20z" />
<glyph unicode="2" d="M31 20q1 4 2 7l160 205q81 103 81 201q0 69 -32 109.5t-81 40.5q-31 0 -53.5 -27.5t-31.5 -79.5q11 -13 11 -23q0 -16 -9 -24.5t-19 -8.5q-28 0 -28 37q0 65 39 115.5t96 50.5q65 0 109 -53t44 -137q0 -101 -79 -206l-144 -187h178q0 25 4.5 36t18.5 11q22 0 22 -33v-21 q0 -27 -15 -33h-245q-28 0 -28 20z" />
<glyph unicode="3" d="M25 134q0 18 8.5 26.5t19.5 8.5t19.5 -9t8.5 -22l-6 -22q0 -25 26.5 -56.5t75.5 -31.5q47 0 75 42.5t28 99.5q0 52 -27 96.5t-79 44.5h-32q-26 0 -26 20t17 20h12q37 0 62 16t35.5 41.5t14 44t3.5 35.5q0 40 -23 67.5t-60 27.5q-70 0 -88 -53q12 -16 12 -25q0 -16 -9 -24 t-19 -8t-19 8t-9 26q0 54 37 85t95 31q54 0 91 -39t37 -95q0 -96 -74 -152q49 -26 71.5 -74t22.5 -94q0 -73 -42.5 -127t-105.5 -54q-64 0 -108 41t-44 105z" />
<glyph unicode="4" d="M15 204q0 6 2 14l163 387q7 14 11.5 17t17.5 3h16q16 0 22.5 -6t6.5 -26v-379h53q27 0 27 -20q0 -21 -27 -21h-53v-133h42q28 0 28 -20t-28 -20h-123q-28 0 -28 20t28 20h42v133h-172q-10 0 -15 1.5t-9 8.5t-4 21zM56 214h159v371h-2z" />
<glyph unicode="5" d="M31 139q0 35 28 35q9 0 18.5 -8.5t9.5 -23.5q0 -6 -11 -26q11 -44 35.5 -66t54.5 -22q45 0 76.5 46t31.5 112q0 62 -24 109.5t-65 47.5q-57 0 -88 -53q-9 -15 -20 -15q-20 0 -20 30v276q0 19 6 24.5t21 5.5h183q27 0 27 -20t-27 -20h-166v-218q37 30 84 30q58 0 96 -59.5 t38 -137.5q0 -83 -45.5 -140.5t-107.5 -57.5q-56 0 -95.5 44t-39.5 107z" />
<glyph unicode="6" d="M32 299q0 145 56 234.5t128 89.5q43 0 66.5 -26t23.5 -67q0 -15 -8 -24.5t-20 -9.5q-11 0 -19.5 9.5t-8.5 22.5q0 6 11 26q-18 29 -46 29q-53 0 -92.5 -73t-45.5 -188q43 69 107 69q54 0 93.5 -58t39.5 -144q0 -87 -42 -144t-99 -57q-21 0 -40 9t-38.5 31.5t-33.5 56.5 t-23 89t-9 125zM83 220q0 -25 4.5 -55t14.5 -62t29 -53.5t45 -21.5q40 0 68.5 46t28.5 115q0 67 -26 114t-68 47q-43 0 -69.5 -39.5t-26.5 -90.5z" />
<glyph unicode="7" d="M25 557v37q0 32 23 32q7 0 12 -4t6 -8l2 -3h229q28 0 28 -20q-1 -3 -2 -5q-166 -248 -166 -562q0 -36 -22 -36t-22 36q0 38 4.5 83t18 122.5t48 168t85.5 173.5h-199q0 -25 -4.5 -36t-18.5 -11q-22 0 -22 33z" />
<glyph unicode="8" d="M25 169q0 111 109 162q-99 43 -99 137q0 62 41 108.5t99 46.5t99 -46.5t41 -108.5q0 -93 -99 -137q109 -51 109 -162q0 -74 -44 -127.5t-106 -53.5t-106 53.5t-44 127.5zM70 169q0 -56 29.5 -98.5t75.5 -42.5t75.5 42t29.5 100q0 56 -30 97t-75 41t-75 -40.5t-30 -98.5z M80 467q0 -46 26 -79.5t69 -33.5q42 0 68.5 33.5t26.5 79.5q0 47 -27 81.5t-68 34.5t-68 -34.5t-27 -81.5z" />
<glyph unicode="9" d="M32 422q0 86 43.5 143.5t101.5 57.5q25 0 47.5 -14t44.5 -46.5t35 -97t13 -154.5q0 -142 -51.5 -232.5t-122.5 -90.5q-50 0 -75 26.5t-25 66.5q0 15 8.5 24.5t20.5 9.5q11 0 19 -9.5t8 -22.5q0 -5 -11 -26q21 -29 55 -29q51 0 87.5 72.5t42.5 188.5q-42 -69 -107 -69 q-55 0 -94.5 57.5t-39.5 144.5zM77 422q0 -67 26 -114t68 -47t69 39.5t27 91.5q0 85 -28 138t-62 53q-41 0 -70.5 -45.5t-29.5 -115.5z" />
<glyph unicode=":" d="M136 48q0 21 12 35t28 14q14 0 26 -14t12 -35q0 -19 -12 -33.5t-27 -14.5t-27 14t-12 34zM136 376q0 21 12 35t28 14q14 0 26 -14t12 -35q0 -19 -12 -33.5t-27 -14.5t-27 14t-12 34z" />
<glyph unicode=";" d="M120 -122q0 7 13 17q35 26 46 105q-22 1 -32.5 17t-10.5 32q0 19 11.5 33.5t27.5 14.5q18 0 30.5 -21.5t12.5 -64.5q0 -47 -17 -85t-34 -53.5t-26 -15.5q-7 0 -14 6.5t-7 14.5zM136 376q0 21 12 35t28 14q14 0 26 -14t12 -35q0 -19 -12 -33.5t-27 -14.5t-27 14t-12 34z " />
<glyph unicode="&#x3c;" d="M34 306q0 11 12 21l239 222q4 2 7 2l1 1q8 0 15.5 -6t7.5 -18q0 -8 -14 -22l-214 -201l217 -202q11 -11 11 -20q0 -12 -7.5 -18t-15.5 -6q-3 0 -16 10l-231 216q-12 12 -12 21z" />
<glyph unicode="=" d="M21 228q0 23 30 23h248q30 0 30 -23q0 -25 -33 -25h-242q-33 0 -33 25zM21 383q0 25 33 25h242q33 0 33 -25q0 -23 -30 -23h-248q-30 0 -30 23z" />
<glyph unicode="&#x3e;" d="M34 83q0 8 14 22l214 201l-214 200q-14 14 -14 22q0 11 7.5 17.5t14.5 6.5q5 0 17 -10l230 -216q13 -13 13 -21q0 -10 -13 -21l-238 -222q-4 -2 -7 -2l-2 -1q-7 0 -14.5 6.5t-7.5 17.5z" />
<glyph unicode="?" d="M38 499q0 49 33.5 83.5t96.5 34.5q43 0 74 -13t45 -34t19.5 -38.5t5.5 -34.5q0 -53 -43 -90q-80 -68 -80 -178v-19q0 -16 -5 -23t-20 -7t-19.5 8.5t-4.5 32.5q0 25 2.5 45t11.5 49.5t31.5 61t57.5 61.5q24 21 24 59q0 32 -23 56t-76 24q-59 0 -85 -54q11 -19 11 -26 q0 -17 -9.5 -25t-18.5 -8q-5 0 -10.5 2t-11.5 10.5t-6 22.5zM133 37q0 16 9.5 26t21.5 10t21.5 -10t9.5 -26t-9.5 -26.5t-21.5 -10.5t-21.5 10.5t-9.5 26.5z" />
<glyph unicode="@" d="M25 306q0 132 54 221.5t125 89.5q28 0 49.5 -16.5t34 -46t21 -59t11.5 -68t4 -60t1 -46.5q0 -48 -7.5 -86.5t-18.5 -61t-25 -37.5t-26 -20.5t-23 -5.5q-39 0 -69.5 55.5t-30.5 140.5q0 82 30 138.5t70 56.5q23 0 52 -29q-26 105 -73 105q-56 0 -98.5 -78t-42.5 -194 q0 -114 42 -192.5t100 -78.5q43 0 75 45q7 10 20 10q25 0 25 -17q0 -21 -38.5 -49.5t-81.5 -28.5q-72 0 -126 89.5t-54 222.5zM164 305q0 -64 18 -109t43 -45q24 0 42.5 44t18.5 111q0 64 -18 109t-43 45q-24 0 -42.5 -44t-18.5 -111z" />
<glyph unicode="A" d="M14 20q0 9 6 14t12.5 5.5t20.5 0.5l87 549q4 23 11 29.5t25 6.5q14 0 22.5 -6.5t11.5 -29.5l87 -549q13 0 19.5 -0.5t13 -5.5t6.5 -14q0 -20 -29 -20h-67q-28 0 -28 20q0 9 6.5 14t13.5 5.5t21 0.5l-21 135h-114l-21 -135q14 0 21 -0.5t13.5 -5.5t6.5 -14q0 -20 -28 -20 h-68q-28 0 -28 20zM124 216h102l-51 349z" />
<glyph unicode="B" d="M13 20q0 20 28 20h18v531h-18q-28 0 -28 20t28 20h152q53 0 85.5 -46t32.5 -104q0 -49 -19.5 -79t-64.5 -61q99 -37 99 -158q0 -64 -33 -113.5t-86 -49.5h-166q-28 0 -28 20zM103 40h89q45 0 67 38.5t22 86.5q0 17 -4.5 37t-14 43t-29 38t-45.5 15h-85v-258zM103 339h77 q43 0 65 37.5t22 83.5q0 40 -17.5 75.5t-58.5 35.5h-88v-232z" />
<glyph unicode="C" d="M23 306q0 133 49 225t116 92q50 0 91 -52l10 34q5 18 18 18q20 0 20 -29v-150q0 -29 -23 -29q-11 0 -16 6t-6 22q-7 67 -33 103.5t-57 36.5q-51 0 -87.5 -79.5t-36.5 -197.5q0 -119 37 -198.5t88 -79.5q6 0 13.5 1.5t21 9.5t24 22t19.5 41t11 64q1 21 22 21q23 0 23 -22 q0 -68 -40.5 -122.5t-98.5 -54.5q-66 0 -115.5 91.5t-49.5 226.5z" />
<glyph unicode="D" d="M10 20q0 20 28 20h14v531h-14q-28 0 -28 20t28 20h139q66 0 108.5 -93t42.5 -218q0 -122 -42.5 -211t-107.5 -89h-140q-28 0 -28 20zM97 40h68q56 0 87 78t31 183q0 65 -11.5 124t-39.5 102.5t-68 43.5h-67v-531z" />
<glyph unicode="E" d="M15 20q0 20 28 20h19v531h-19q-28 0 -28 20t28 20h254q16 0 22 -6.5t6 -26.5v-68q0 -32 -23 -32q-22 0 -22 32v61h-173v-234h94q0 32 4 44t18 12q22 0 22 -32v-87q0 -32 -22 -32q-14 0 -18 11.5t-4 43.5h-94v-257h188v76q0 33 23 33q22 0 22 -33v-83q0 -20 -6 -26.5 t-22 -6.5h-269q-28 0 -28 20z" />
<glyph unicode="F" d="M17 20q0 20 28 20h22v531h-22q-28 0 -28 20t28 20h258q16 0 22 -6.5t6 -26.5v-68q0 -32 -23 -32q-22 0 -22 32v61h-175v-245h97q0 32 4 44t18 12q22 0 22 -33v-86q0 -33 -22 -33q-14 0 -18 12t-4 44h-97v-246h34q28 0 28 -20t-28 -20h-100q-28 0 -28 20z" />
<glyph unicode="G" d="M21 306q0 135 45.5 226t107.5 91q46 0 82 -49l9 33q10 16 19 16q19 0 19 -29v-150q0 -29 -23 -29q-20 0 -22 24q-6 73 -29 108.5t-51 35.5q-45 0 -79 -79.5t-34 -198.5q0 -118 33.5 -197.5t78.5 -79.5q39 0 58 57.5t23 133.5h-30q-28 0 -28 20t28 20h79q28 0 28 -20 t-32 -20v-190q0 -31 -22 -31q-14 0 -18.5 10.5t-4.5 36.5q-35 -57 -84 -57q-62 0 -107.5 91t-45.5 227z" />
<glyph unicode="H" d="M12 20q0 20 27 20h16v531h-16q-27 0 -27 20t27 20h77q28 0 28 -20t-28 -20h-16v-232h150v232h-16q-28 0 -28 20t28 20h76q28 0 28 -20t-28 -20h-16v-531h16q28 0 28 -20t-28 -20h-76q-28 0 -28 20t28 20h16v258h-150v-258h16q28 0 28 -20t-28 -20h-77q-27 0 -27 20z" />
<glyph unicode="I" d="M53 20q0 20 28 20h72v531h-72q-28 0 -28 20t28 20h189q27 0 27 -20t-27 -20h-73v-531h73q27 0 27 -20t-27 -20h-189q-28 0 -28 20z" />
<glyph unicode="J" d="M48 92q0 17 8.5 26t20.5 9q11 0 19 -9t8 -23q0 -6 -11 -24q25 -43 68 -43q8 0 17 3.5t22 13t21.5 33t8.5 57.5v436h-54q-28 0 -28 20t28 20h118q28 0 28 -20t-28 -20h-19v-443q0 -65 -34.5 -102.5t-80.5 -37.5q-48 0 -80 29t-32 75z" />
<glyph unicode="K" d="M13 20q0 20 28 20h12v531h-12q-28 0 -28 20t28 20h67q28 0 28 -20t-28 -20h-14v-297l158 297q-13 0 -19 0.5t-12.5 5.5t-6.5 14q0 20 27 20h59q28 0 28 -20q0 -9 -6 -14t-12 -5.5t-18 -0.5l-112 -210l120 -321q34 0 34 -20t-27 -20h-51q-27 0 -27 20t34 20l-105 280 l-64 -121v-159h14q28 0 28 -20t-28 -20h-67q-28 0 -28 20z" />
<glyph unicode="L" d="M19 20q0 20 28 20h24v531h-24q-28 0 -28 20t28 20h105q28 0 28 -20t-28 -20h-37v-531h171v77q0 32 22 32t22 -32v-84q0 -20 -6 -26.5t-21 -6.5h-256q-28 0 -28 20z" />
<glyph unicode="M" d="M7 20q0 20 36 20v531q-36 0 -36 20t28 20h37q32 0 40 -24l62 -307l60 292q5 21 14 30t29 9h37q29 0 29 -20t-36 -20v-531q36 0 36 -20t-29 -20h-53q-28 0 -28 20t36 20v519l-66 -322q-9 -26 -28 -26q-13 0 -21 13t-9 23l-63 314v-521q35 0 35 -20t-29 -20h-53 q-28 0 -28 20z" />
<glyph unicode="N" d="M15 20q0 20 28 20h16v531h-16q-28 0 -28 20t28 20h45q10 0 16 -1t14 -9.5t12 -24.5l123 -517v512h-16q-29 0 -29 20t29 20h70q27 0 27 -20t-27 -20h-16v-538q0 -16 -4 -23.5t-9 -8.5t-16 -1t-17 1t-13.5 9.5t-11.5 24.5l-122 517v-512h15q28 0 28 -20t-28 -20h-70 q-28 0 -28 20z" />
<glyph unicode="O" d="M34 306q0 216 22 266q14 31 40.5 41t78.5 10t78.5 -10t39.5 -41q23 -52 23 -267q0 -214 -23 -266q-13 -31 -39.5 -41t-78.5 -10t-78.5 10t-40.5 41q-22 50 -22 267zM78 314q0 -159 10 -213q6 -39 24 -56t63 -17q46 0 64 18t24 60q8 58 8 208q0 151 -8 202q-7 40 -26 53.5 t-62 13.5q-44 0 -63 -14.5t-26 -56.5q-8 -51 -8 -198z" />
<glyph unicode="P" d="M15 20q0 20 28 20h19v531h-19q-28 0 -28 20t28 20h151q57 0 94 -53.5t37 -124.5q0 -70 -37 -123.5t-94 -53.5h-87v-216h19q29 0 29 -20t-29 -20h-83q-28 0 -28 20zM107 296h75q48 0 73 42.5t25 95.5q0 51 -25 94t-73 43h-75v-275z" />
<glyph unicode="Q" d="M34 306q0 78 1.5 125.5t8 86t14.5 57t26 31t37.5 15t53.5 2.5t53.5 -2.5t37.5 -15t26 -31t14.5 -57.5t8 -86.5t1.5 -125.5q0 -120 -4 -168q-5 -60 -15.5 -90t-38.5 -47l29 -82l20 -52q0 -9 -23 -9q-9 0 -13 0.5t-8 4t-7 11.5l-40 116q-9 -1 -41 -1q-34 0 -53.5 2.5 t-37.5 15t-26 31t-14.5 57.5t-8 86.5t-1.5 125.5zM78 305q0 -140 7 -193q6 -44 22 -64t62 -20h34l-42 115q-2 7 0.5 10t6.5 3.5t12 0.5h5q11 0 14 -2t7 -12l35 -97q11 12 16 25t9.5 70t4.5 165q0 140 -7 193q-6 48 -23.5 66t-65.5 18t-66 -18t-24 -65q-7 -53 -7 -195z" />
<glyph unicode="R" d="M12 20q0 20 27 20h16v531h-16q-27 0 -27 20t27 20h120q57 0 95 -49t38 -114q0 -83 -69 -143q34 -38 44 -71q7 -23 7 -92q0 -31 0.5 -46t2 -34t5.5 -26.5t11 -7.5q16 0 16 58q0 8 5.5 16t16.5 8q22 0 22 -24q0 -33 -15.5 -65.5t-44.5 -32.5q-34 0 -51 42q-13 35 -13 127 q0 78 -16 100q-23 29 -57 29h-56v-246h16q28 0 28 -20t-28 -20h-77q-27 0 -27 20zM100 326h52q47 0 71.5 38t24.5 84q0 47 -24.5 85t-71.5 38h-52v-245z" />
<glyph unicode="S" d="M31 17v142q0 31 22 31t22 -29q3 -66 34.5 -99.5t80.5 -33.5q41 0 63.5 38.5t22.5 88.5q0 51 -20 87q-12 21 -26 29.5t-56 21.5q-59 21 -76.5 31.5t-38.5 41.5q-28 42 -28 98q0 66 36.5 112.5t90.5 46.5q60 0 99 -51q6 34 10 42.5t15 8.5q19 0 19 -29v-143q0 -30 -23 -30 q-13 0 -17 7.5t-6 24.5q-13 130 -98 130q-37 0 -60.5 -34.5t-23.5 -80.5q0 -37 14.5 -66t38.5 -42l49 -17q56 -20 74 -31t38 -41q3 -4 9.5 -19t14.5 -43t8 -50q0 -69 -36.5 -120t-92.5 -51q-71 0 -116 51q-6 -34 -10 -42.5t-14 -8.5q-19 0 -19 29z" />
<glyph unicode="T" d="M13 510v68q0 20 6.5 26.5t21.5 6.5h268q15 0 21 -6.5t6 -26.5v-68q0 -32 -22 -32t-22 32v61h-95v-531h35q27 0 27 -20t-27 -20h-113q-28 0 -28 20t28 20h34v531h-95v-61q0 -32 -23 -32q-22 0 -22 32z" />
<glyph unicode="U" d="M0 591q0 20 28 20h84q28 0 28 -20t-28 -20h-20v-365q0 -82 25.5 -130t57.5 -48t57 47.5t25 130.5v365h-19q-28 0 -28 20t28 20h84q28 0 28 -20t-28 -20h-20v-371q0 -89 -38 -150.5t-89 -61.5t-89 61.5t-38 150.5v371h-20q-28 0 -28 20z" />
<glyph unicode="V" d="M8 591q0 20 27 20h66q28 0 28 -20q0 -9 -6.5 -14t-13 -5.5t-20.5 -0.5l86 -521l86 521q-14 0 -21 0.5t-13.5 5.5t-6.5 14q0 20 29 20h65q28 0 28 -20q0 -9 -6 -14t-12 -5.5t-19 -0.5l-95 -546q-4 -23 -12 -28.5t-23 -5.5q-10 0 -15.5 1t-12 9.5t-9.5 25.5l-93 544 q-13 0 -19 0.5t-12 5.5t-6 14z" />
<glyph unicode="W" d="M3 591q0 20 28 20h52q28 0 28 -20t-28 -20h-17l43 -517l39 284q6 21 27 21q24 0 28 -26l37 -279l45 517h-18q-29 0 -29 20t29 20h52q28 0 28 -20t-25 -20l-51 -542q-1 -12 -2.5 -18.5t-7.5 -13t-17 -6.5q-20 0 -27 20l-42 295l-42 -292q-6 -23 -28 -23q-11 0 -17 6.5 t-7.5 13t-2.5 19.5l-50 541q-25 0 -25 20z" />
<glyph unicode="X" d="M14 20q0 20 27 20h14l97 286l-89 245h-14q-27 0 -27 20t27 20h67q27 0 27 -20t-36 -20l64 -179l59 179q-37 0 -37 20t28 20h66q28 0 28 -20t-28 -20h-13l-84 -246l103 -285h14q28 0 28 -20t-28 -20h-66q-28 0 -28 20t37 20l-79 226l-73 -226q13 0 19 -0.5t12.5 -5.5 t6.5 -14q0 -20 -28 -20h-67q-27 0 -27 20z" />
<glyph unicode="Y" d="M8 591q0 20 28 20h66q28 0 28 -20t-37 -20l82 -272l82 272q-12 0 -18 0.5t-12.5 5.5t-6.5 14q0 20 28 20h66q28 0 28 -20t-28 -20h-13l-104 -321v-210h16q28 0 28 -20t-28 -20h-76q-28 0 -28 20t28 20h16v210l-105 321h-12q-28 0 -28 20z" />
<glyph unicode="Z" d="M28 24q0 8 6 19l238 528h-192v-61q0 -32 -22 -32t-22 32v68q0 21 6 27t22 6h229q29 0 29 -24q0 -5 -6 -19l-239 -528h204v79q0 33 22 33t22 -33v-86q0 -20 -6 -26.5t-21 -6.5h-242q-28 0 -28 24z" />
<glyph unicode="[" d="M149 -53v717q0 20 6 26.5t22 6.5h122q28 0 28 -20q0 -21 -28 -21h-105v-701h105q28 0 28 -21q0 -20 -28 -20h-122q-16 0 -22 6.5t-6 26.5z" />
<glyph unicode="\" d="M35 672q0 12 7 18.5t15 6.5q7 0 11.5 -4.5t6.5 -9.5t6 -16l231 -720q0 -1 1.5 -3.5t1.5 -4.5q0 -12 -7 -18.5t-15 -6.5q-16 0 -24 28l-231 722q0 1 -1.5 3.5t-1.5 4.5z" />
<glyph unicode="]" d="M23 -66q0 21 28 21h105v701h-105q-28 0 -28 21q0 20 28 20h122q15 0 21 -6.5t6 -26.5v-717q0 -20 -6 -26.5t-21 -6.5h-122q-28 0 -28 20z" />
<glyph unicode="^" d="M45 526q0 10 12 19l104 73q18 7 28 0l104 -73q12 -9 12 -19q0 -7 -4.5 -14.5t-11.5 -7.5t-18 7l-96 60l-96 -60q-10 -7 -18 -7q-7 0 -11.5 7.5t-4.5 14.5z" />
<glyph unicode="_" d="M34 -188q0 23 31 23h220q31 0 31 -24t-31 -24h-220q-31 0 -31 25z" />
<glyph unicode="`" d="M102 599q0 10 6 17t14 7q10 0 29 -13l78 -58q18 -13 18 -21q0 -27 -22 -27q-7 0 -15 6l-90 66q-18 14 -18 23z" />
<glyph unicode="a" d="M34 119q0 76 80 115q48 23 126 27q0 28 -1 42t-7 32.5t-18 32.5q-23 26 -63 26q-18 0 -26 -1q-16 -2 -16 -15q-1 -38 -28 -38q-11 0 -19.5 8.5t-8.5 24.5q0 62 97 62q64 0 99 -45t35 -107v-234q14 -9 43 -9q28 0 28 -20t-33 -20q-61 0 -76 36q-42 -42 -103 -42 q-46 0 -77.5 36t-31.5 89zM79 119q0 -35 19.5 -60t52.5 -25q35 0 60 18q19 13 24 30.5t5 43.5v99q-67 0 -114 -30t-47 -76z" />
<glyph unicode="b" d="M5 591q0 20 28 20h46q16 0 22 -6.5t6 -26.5v-203q36 56 90 56t93 -63.5t39 -154.5q0 -93 -41.5 -156t-97.5 -63q-48 0 -83 58q0 -28 -4.5 -40t-17.5 -12q-23 0 -23 33v538h-29q-28 0 -28 20zM107 183q0 -50 20.5 -99.5t58.5 -49.5q40 0 69 51.5t29 127.5q0 74 -26.5 126 t-65.5 52q-35 0 -60 -39t-25 -87v-82z" />
<glyph unicode="c" d="M47 213q0 34 9 70.5t26.5 71.5t49.5 57.5t73 22.5q101 0 101 -62q0 -16 -8.5 -24.5t-19.5 -8.5q-25 0 -28 38q0 11 -6 13q-18 3 -40 3q-34 0 -58 -20t-35 -51t-15.5 -58t-4.5 -52q0 -75 32 -127t79 -52q49 0 69 71q5 15 20 15q23 0 23 -17q0 -8 -6 -24t-18.5 -36 t-37.5 -34.5t-56 -14.5q-62 0 -105.5 64t-43.5 155z" />
<glyph unicode="d" d="M21 212q0 93 41.5 156t96.5 63q47 0 84 -52v192h-30q-27 0 -27 20t27 20h47q15 0 21 -6.5t6 -26.5v-538h30q27 0 27 -20t-27 -20h-47q-18 0 -22.5 10.5t-4.5 47.5q-37 -64 -90 -64t-92.5 63.5t-39.5 154.5zM65 212q0 -74 26.5 -126t65.5 -52t62.5 49.5t23.5 102.5v81 q0 46 -22.5 85t-56.5 39q-41 0 -70 -51t-29 -128z" />
<glyph unicode="e" d="M34 215q0 91 43.5 155.5t102.5 64.5q62 0 98 -59t36 -149q0 -13 -5 -20t-9.5 -8t-13.5 -1h-207q7 -73 38.5 -118.5t75.5 -45.5q57 0 77 65q3 13 7.5 18t13.5 5q12 0 17.5 -6.5t5.5 -12.5q0 -29 -33 -69t-90 -40q-64 0 -110.5 64t-46.5 157zM79 235h190q-7 159 -89 159 q-35 0 -64 -41.5t-37 -117.5z" />
<glyph unicode="f" d="M24 405q0 20 29 20h70v66q0 61 33 93.5t76 32.5q63 0 63 -49q0 -16 -8.5 -23.5t-18.5 -7.5t-17.5 10t-9.5 20l-2 10q-12 0 -22 -2.5t-22.5 -10t-20 -27.5t-7.5 -50v-62h86q27 0 27 -20t-27 -20h-86v-345h67q28 0 28 -20t-28 -20h-179q-27 0 -27 20t27 20h68v345h-71 q-28 0 -28 20z" />
<glyph unicode="g" d="M15 -95q0 75 60 123q-25 44 -25 78q0 28 20 73q-27 52 -27 98q0 64 33 109t79 45q36 0 67 -32q33 39 74 39q24 0 36.5 -14t12.5 -30q0 -17 -8.5 -23.5t-17.5 -6.5q-2 0 -6 1t-10.5 9.5t-8.5 22.5q-25 -3 -52 -23q25 -56 25 -97q0 -64 -33 -109t-80 -45q-36 0 -62 28 q-5 -14 -5 -42q0 -66 41 -66h59q13 0 24.5 -1t36.5 -8t41.5 -20.5t30.5 -41.5t14 -67q0 -62 -46.5 -101.5t-112.5 -39.5q-67 0 -113.5 40t-46.5 101zM54 -95q0 -40 34.5 -71.5t86.5 -31.5t86 31.5t34 71.5q0 33 -12 55t-34.5 31t-42.5 11.5t-50 2.5q-38 0 -49 -2t-23 -13 q-30 -28 -30 -85zM87 277q0 -49 19.5 -82.5t47.5 -33.5q29 0 48.5 34t19.5 82t-19.5 82t-48.5 34q-27 0 -47 -34t-20 -82z" />
<glyph unicode="h" d="M5 20q0 20 28 20h29v531h-29q-28 0 -28 20t28 20h46q16 0 22 -6.5t6 -26.5v-206q35 59 91 59q89 0 89 -138v-253h30q27 0 27 -20t-27 -20h-104q-27 0 -27 20t27 20h30v248q0 54 -9.5 78.5t-40.5 24.5q-34 0 -60 -40.5t-26 -113.5v-197h29q28 0 28 -20t-28 -20h-103 q-28 0 -28 20z" />
<glyph unicode="i" d="M52 20q0 20 29 20h80v345h-75q-28 0 -28 20t28 20h92q16 0 22 -6.5t6 -25.5v-353h70q27 0 27 -20t-27 -20h-195q-29 0 -29 20zM144 564q0 16 9.5 26.5t21.5 10.5t21.5 -10.5t9.5 -26.5t-9.5 -26.5t-21.5 -10.5t-21.5 10.5t-9.5 26.5z" />
<glyph unicode="j" d="M28 -171q0 17 9 25.5t19 8.5q27 0 27 -53q15 -5 43 -5q12 0 18.5 1t17.5 9.5t20 25.5q20 39 20 109v435h-86q-28 0 -28 20t28 20h103q16 0 22 -6.5t6 -25.5v-448q0 -79 -34 -128q-16 -24 -33.5 -36.5t-27.5 -14t-28 -1.5q-96 0 -96 64zM185 564q0 16 9.5 26.5t21.5 10.5 t21.5 -10.5t9.5 -26.5t-9.5 -26.5t-21.5 -10.5t-21.5 10.5t-9.5 26.5z" />
<glyph unicode="k" d="M10 20q0 20 28 20h30v531h-30q-28 0 -28 20t28 20h43q15 0 21 -6.5t6 -26.5v-372l127 179h-37q-28 0 -28 20t28 20h102q28 0 28 -20t-28 -20h-21l-93 -130l110 -215h19q28 0 28 -20t-28 -20h-78q-29 0 -29 20q0 14 11 17t38 3l-93 183l-56 -77v-106h32q29 0 29 -20 t-29 -20h-102q-28 0 -28 20z" />
<glyph unicode="l" d="M39 20q0 20 28 20h86v531h-86q-28 0 -28 20t28 20h103q15 0 21 -6.5t6 -26.5v-538h87q27 0 27 -20t-27 -20h-217q-28 0 -28 20z" />
<glyph unicode="m" d="M1 20q0 9 6 14t12.5 5.5t19.5 0.5v345q-13 0 -19.5 0.5t-12.5 5.5t-6 14q0 20 28 20h21q8 0 12.5 -1t10 -9t5.5 -23q23 39 56 39q22 0 35 -18t18 -36q27 54 64 54q20 0 33.5 -16t19 -41t7 -41t1.5 -30v-263q13 0 19.5 -0.5t12.5 -5.5t6 -14q0 -20 -28 -20h-51 q-26 0 -26 20t29 20v257q0 94 -26 94q-25 0 -39 -41t-14 -110v-200q13 0 19 -0.5t11.5 -5.5t5.5 -14q0 -20 -26 -20h-51q-26 0 -26 20t29 20v257q0 94 -26 94q-25 0 -39.5 -41t-14.5 -110v-200q13 0 19 -0.5t11.5 -5.5t5.5 -14q0 -20 -25 -20h-59q-28 0 -28 20z" />
<glyph unicode="n" d="M5 20q0 20 28 20h29v345h-29q-28 0 -28 20t28 20h46q18 0 23 -10t5 -43q35 59 91 59q89 0 89 -138v-253h30q27 0 27 -20t-27 -20h-104q-27 0 -27 20t27 20h30v248q0 54 -9.5 78.5t-40.5 24.5q-34 0 -60 -40.5t-26 -113.5v-197h29q28 0 28 -20t-28 -20h-103q-28 0 -28 20z " />
<glyph unicode="o" d="M36 213q0 93 41.5 157.5t97.5 64.5t97.5 -65t41.5 -157q0 -93 -41.5 -156t-97.5 -63t-97.5 63t-41.5 156zM80 220q0 -77 27.5 -131.5t67.5 -54.5t67 54t27 132q0 75 -27.5 124.5t-66.5 49.5q-40 0 -67.5 -49.5t-27.5 -124.5z" />
<glyph unicode="p" d="M5 -209q0 20 28 20h29v574h-29q-28 0 -28 20t28 20h46q18 0 23 -10t5 -40q36 56 90 56t93 -63.5t39 -154.5q0 -93 -41.5 -156t-97.5 -63q-48 0 -83 58v-241h29q28 0 28 -20t-28 -20h-103q-28 0 -28 20zM107 183q0 -50 20.5 -99.5t58.5 -49.5q40 0 69 51.5t29 127.5 q0 74 -26.5 126t-65.5 52q-35 0 -60 -39t-25 -87v-82z" />
<glyph unicode="q" d="M24 212q0 93 43.5 156t100.5 63q48 0 89 -62v30q0 32 22 32t22 -32v-588h32q29 0 29 -20t-29 -20h-108q-29 0 -29 20t29 20h32v251q-9 -14 -15 -21.5t-18.5 -20.5t-28.5 -19.5t-34 -6.5q-56 0 -96.5 63.5t-40.5 154.5zM68 212q0 -74 28 -126t70 -52q41 0 66 50.5 t25 102.5v47q0 57 -22.5 107t-61.5 50q-43 0 -74 -52t-31 -127z" />
<glyph unicode="r" d="M19 20q0 20 28 20h54v345h-54q-28 0 -28 20t28 20h71q16 0 22 -6.5t6 -25.5v-51q49 89 119 89q64 0 64 -51q0 -14 -8 -22.5t-18 -8.5q-4 0 -9 2t-11 12t-7 28h-11q-49 0 -84 -56.5t-35 -149.5v-145h74q27 0 27 -20t-27 -20h-173q-28 0 -28 20z" />
<glyph unicode="s" d="M45 23v107q0 30 22 30q12 0 16 -6t7 -20q11 -54 33 -77t57 -23q47 0 68 24.5t21 59.5q0 67 -84 87q-48 12 -66.5 18.5t-33.5 19.5q-40 31 -40 81q0 12 2.5 24.5t11 28.5t22 28.5t38 21t55.5 8.5q46 0 75 -25q4 25 21 25q19 0 19 -30v-78q0 -30 -23 -30q-21 0 -22 21 q-1 15 -2.5 24.5t-8 23.5t-21.5 21t-39 7q-47 0 -68 -21.5t-21 -48.5q0 -32 25.5 -49t79.5 -30q20 -4 33.5 -9t37 -18.5t36.5 -39t13 -60.5q0 -7 -1 -17t-8.5 -30.5t-20 -36t-38.5 -28t-61 -12.5q-57 0 -91 42q-5 -20 -9.5 -29.5t-7.5 -11t-8 -1.5q-19 0 -19 29z" />
<glyph unicode="t" d="M12 405q0 20 29 20h60v95q0 32 23 32q22 0 22 -32v-95h114q27 0 27 -20t-27 -20h-114v-265q0 -86 55 -86q19 0 37.5 18.5t19.5 63.5q0 35 22 35q23 0 23 -34q0 -66 -34.5 -94.5t-72.5 -28.5q-41 0 -68 29t-27 92v270h-61q-28 0 -28 20z" />
<glyph unicode="u" d="M5 405q0 20 28 20h46q16 0 22 -6.5t6 -25.5v-280q0 -14 0.5 -22t3.5 -20.5t8.5 -19t16.5 -12t27 -5.5q31 0 55.5 28t24.5 89v234h-30q-27 0 -27 20t27 20h47q16 0 21.5 -6t5.5 -26v-353h30q27 0 27 -20t-27 -20h-47q-8 0 -12.5 1t-10 10.5t-5.5 26.5q-37 -44 -84 -44 q-96 0 -96 114v277h-29q-28 0 -28 20z" />
<glyph unicode="v" d="M11 405q0 20 28 20h78q28 0 28 -20t-28 -20h-23l81 -352l80 352h-22q-28 0 -28 20t28 20h77q29 0 29 -20t-29 -20h-18l-81 -355q-3 -16 -10 -24.5t-12 -9.5t-14 -1t-14 1t-12 9.5t-11 24.5l-80 355h-19q-28 0 -28 20z" />
<glyph unicode="w" d="M5 405q0 20 29 20h78q29 0 29 -20t-29 -20h-35l39 -335l22 120q9 51 15 64.5t23 13.5q16 0 22 -13.5t15 -65.5l22 -119l38 335h-36q-28 0 -28 20t28 20h79q28 0 28 -20t-34 -20l-42 -353q-2 -17 -8 -26t-10.5 -10t-12.5 -1q-19 0 -25 12t-17 66l-19 123l-20 -122 q-11 -55 -17 -67t-26 -12q-14 0 -21 7t-10 31l-43 352q-34 0 -34 20z" />
<glyph unicode="x" d="M14 20q0 20 28 20h24l93 179l-89 166h-24q-28 0 -28 20t28 20h78q27 0 27 -20q0 -9 -6.5 -14t-13.5 -5.5t-22 -0.5l64 -126l62 126q-15 0 -22.5 0.5t-14 5.5t-6.5 14q0 20 28 20h78q27 0 27 -20t-27 -20h-25l-86 -166l96 -179h24q28 0 28 -20t-28 -20h-77q-28 0 -28 20 q0 9 6.5 14t14 5.5t22.5 0.5l-72 150l-70 -150q16 0 23.5 -0.5t14 -5.5t6.5 -14q0 -20 -28 -20h-77q-28 0 -28 20z" />
<glyph unicode="y" d="M12 405q0 20 29 20h77q28 0 28 -20t-28 -20h-21l84 -336l74 336h-22q-28 0 -28 20t28 20h77q29 0 29 -20t-29 -20h-18l-110 -479q-4 -18 -10 -36.5t-18 -45t-31 -43t-42 -16.5q-24 0 -40.5 21t-16.5 49q0 15 8 23.5t20 8.5q11 0 19 -8.5t8 -22.5q-3 -10 -10 -16 q1 -17 13 -17q19 0 35 27t22 55l24 105l-103 395h-19q-29 0 -29 20z" />
<glyph unicode="z" d="M17 24q0 8 5 16l243 345h-192v-34q0 -32 -22 -32t-22 32v42q0 20 6 26t22 6h234q28 0 28 -24q0 -8 -5 -16l-243 -345h205v45q0 33 23 33q22 0 22 -33v-52q0 -20 -6 -26.5t-22 -6.5h-247q-29 0 -29 24z" />
<glyph unicode="{" d="M35 306q0 17 17 19q61 3 85 27q11 11 13.5 25t2.5 58v157q3 35 19 58t40 32t41 12t34 3q28 0 28 -20q0 -21 -17 -21q-84 0 -97 -40q-2 -5 -3 -54t-1 -96v-47q0 -73 -56 -114q56 -39 56 -102v-166q0 -18 2 -28t10.5 -24t30.5 -21.5t58 -8.5q17 -2 17 -21q0 -20 -28 -20 q-37 0 -63.5 10t-40 23t-20.5 33.5t-8.5 33t-1.5 28.5v174q-1 34 -28.5 51t-69.5 18q-20 0 -20 21z" />
<glyph unicode="|" d="M153 -49v709q0 37 23 37q21 0 21 -37v-709q0 -37 -22 -37t-22 37z" />
<glyph unicode="}" d="M35 -66q0 21 16 21q86 0 99 40q3 11 3 79v118q0 72 56 114q-56 40 -56 102v166q0 19 -2 29t-10.5 24.5t-31 21.5t-58.5 7q-16 2 -16 21q0 20 27 20q37 0 64 -10t40.5 -23t20.5 -33.5t8.5 -33t1.5 -28.5v-174q1 -33 27.5 -51t69.5 -18q21 0 21 -21q0 -19 -17 -19 q-51 0 -79 -22q-15 -12 -18.5 -27.5t-3.5 -60.5v-157q-2 -34 -18 -57t-39.5 -32.5t-41 -12.5t-36.5 -3q-27 0 -27 20z" />
<glyph unicode="~" d="M55 275q0 6 10 18q20 23 29.5 33.5t23.5 20t25 9.5q25 0 51 -44q9 -14 14 -14q15 0 54 52q6 6 12 6q7 0 13.5 -5.5t6.5 -14.5q0 -6 -9 -18q-20 -23 -29.5 -33.5t-23.5 -20t-25 -9.5q-25 0 -51 44q-8 14 -15 14q-15 0 -54 -52q-5 -6 -12 -6t-13.5 6t-6.5 14z" />
<glyph unicode="&#xa0;" />
<glyph unicode="&#xa1;" d="M144 -198l6 372q1 15 5.5 21.5t19.5 6.5q17 0 21 -10t4 -50l6 -339q0 -45 -31 -45t-31 44zM144 345q0 16 9.5 26.5t21.5 10.5t21.5 -10.5t9.5 -26.5t-9.5 -26t-21.5 -10t-21.5 10t-9.5 26z" />
<glyph unicode="&#xa2;" d="M47 213q0 42 11.5 85.5t41.5 82.5t73 50v64q0 9 6.5 14.5t13.5 5.5t13.5 -5.5t6.5 -14.5v-60q18 0 29 -1t28.5 -6.5t26.5 -19t9 -35.5q0 -16 -8.5 -24.5t-19.5 -8.5q-25 0 -28 38q0 5 -1.5 8.5t-5.5 5t-7 1.5t-11 0.5t-12 0.5v-359q40 6 58 70q5 15 20 15q23 0 23 -17 q0 -22 -26 -61t-75 -47v-65q0 -9 -6.5 -14.5t-13.5 -5.5t-13.5 5.5t-6.5 14.5v67q-54 12 -90 73t-36 143zM91 213q0 -62 23 -109.5t59 -63.5v349q-32 -11 -51.5 -46.5t-25 -67t-5.5 -62.5z" />
<glyph unicode="&#xa3;" d="M8 75q0 40 26 63.5t60 23.5q18 0 39 -15q-10 59 -34 136h-48q-8 0 -15 6.5t-7 16.5t7 16.5t15 6.5h34q-17 68 -17 106q0 72 35 124t84 52q47 0 83 -43t36 -106q0 -14 -9 -23.5t-20 -9.5q-10 0 -19 9.5t-9 23.5q0 10 12 25q-10 38 -30 58t-44 20q-33 0 -54 -38.5 t-21 -91.5q0 -57 13 -106h107q8 0 15 -6.5t7 -16.5q0 -11 -7 -17t-15 -6h-93q39 -132 40 -184q18 -22 28 -32.5t26.5 -21.5t31.5 -11q32 0 32 105q0 10 7 16.5t15 6.5q9 0 15.5 -6.5t6.5 -16.5q0 -62 -20.5 -106.5t-55.5 -44.5q-15 0 -33.5 13t-29.5 25t-31 36 q-12 -35 -39.5 -54.5t-59.5 -19.5q-25 0 -44.5 25t-19.5 62zM52 75q0 -41 20 -41q55 0 64 64q-25 18 -42 18q-18 0 -30 -10.5t-12 -30.5z" />
<glyph unicode="&#xa4;" d="M65 155q-10 16 7 37l24 35q-20 48 -20 79t20 79l-24 35q-15 21 -7 36q16 26 39 -8l19 -28q25 22 52 22t52 -22l19 27q23 32 38 9q10 -14 -6 -37l-23 -34q18 -43 18 -79q0 -37 -19 -78l24 -36q16 -23 6 -37q-14 -21 -38 9l-19 28q-24 -22 -52 -22t-52 22l-19 -28 q-23 -33 -39 -9zM120 306q0 -37 15.5 -63t39.5 -26t39 26t15 63t-15 63t-39 26t-39.5 -26t-15.5 -63z" />
<glyph unicode="&#xa5;" d="M8 591q0 20 28 20h66q28 0 28 -20t-37 -20l52 -163h60l52 163q-12 0 -18 0.5t-12.5 5.5t-6.5 14q0 20 28 20h66q28 0 28 -20t-28 -20h-13l-53 -163h36q8 0 15 -7t7 -17t-7 -16.5t-15 -6.5h-51l-35 -110h86q8 0 15 -6.5t7 -16.5t-7 -17t-15 -7h-87v-164h16q28 0 28 -20 t-28 -20h-76q-28 0 -28 20t28 20h16v164h-86q-8 0 -15 6.5t-7 17.5q0 10 7 16.5t15 6.5h85l-35 110h-50q-8 0 -15 6.5t-7 16.5q0 11 7 17.5t15 6.5h35l-54 163h-12q-28 0 -28 20zM160 361q14 -56 15 -62q2 9 16 62h-31z" />
<glyph unicode="&#xa6;" d="M153 -49v284q0 9 7 14.5t16 5.5q8 0 14.5 -5.5t6.5 -14.5v-284q0 -37 -22 -37t-22 37zM153 376v284q0 37 23 37q21 0 21 -37v-284q0 -9 -6.5 -14.5t-14.5 -5.5q-9 0 -16 5.5t-7 14.5z" />
<glyph unicode="&#xa7;" d="M22 306q0 65 51 105q-26 36 -26 73q0 56 37 97t91 41q53 0 91 -37t38 -90q0 -13 -9 -22.5t-23 -9.5t-23 9.5t-9 22.5q0 15 12 25q-8 25 -29 40.5t-48 15.5q-35 0 -58.5 -27.5t-23.5 -64.5q0 -48 73 -97l69 -48q93 -64 93 -145q0 -65 -51 -106q26 -34 26 -72 q0 -56 -37 -97t-91 -41q-53 0 -91 37t-38 90q0 13 9 22.5t23 9.5t23 -9.5t9 -22.5q0 -15 -12 -25q8 -25 29 -40.5t48 -15.5q35 0 58.5 27.5t23.5 64.5q0 48 -73 97l-69 48q-93 64 -93 145zM66 306q0 -59 74 -108l69 -48q33 -25 38 -30q37 26 37 74q0 59 -74 108l-69 48 q-22 15 -38 30q-37 -28 -37 -74z" />
<glyph unicode="&#xa8;" d="M95 563q0 14 9 23.5t20 9.5q10 0 18.5 -9.5t8.5 -23.5q0 -13 -8.5 -22t-18.5 -9q-11 0 -20 8.5t-9 22.5zM200 563q0 14 9 23.5t19 9.5t19 -9.5t9 -23.5q0 -13 -9 -22t-19 -9t-19 9t-9 22z" />
<glyph unicode="&#xa9;" d="M-5 255q0 107 53.5 184t126.5 77t126.5 -77t53.5 -184q0 -106 -53.5 -182.5t-126.5 -76.5t-126.5 76.5t-53.5 182.5zM20 255q0 -97 45 -166.5t110 -69.5t110 69.5t45 166.5q0 98 -45 168t-110 70t-110 -70t-45 -168zM76 256q0 73 27 124t64 51q27 0 50 -29l6 19 q3 10 10 10q11 0 11 -16v-83q0 -16 -13 -16q-11 0 -12 16q-4 37 -18.5 57t-31.5 20q-28 0 -48 -44t-20 -109t20.5 -109t48.5 -44q3 0 7.5 1t12 5.5t13 12t10.5 22.5t6 35q0 12 12 12q13 0 13 -12q0 -38 -22.5 -68t-54.5 -30q-36 0 -63.5 50.5t-27.5 124.5z" />
<glyph unicode="&#xaa;" d="M63 406q0 50 56 77q35 16 88 20q0 59 -18 80q-16 19 -44 19q-13 0 -19 -1q-5 -1 -7.5 -4t-2.5 -5l-1 -3q0 -27 -19 -27q-20 0 -20 22q0 39 68 39q45 0 69.5 -30t24.5 -72v-168q9 -5 30 -5q19 0 19 -12q0 -11 -23 -11q-43 0 -53 26q-29 -30 -72 -30q-32 0 -54 24.5 t-22 60.5zM83 260q0 10 20 10h144q20 0 20 -10q0 -12 -20 -12h-144q-20 0 -20 12zM94 406q0 -26 14 -44t37 -18q24 0 41 11q21 15 21 56v72q-48 0 -80.5 -22t-32.5 -55z" />
<glyph unicode="&#xab;" d="M28 306q0 9 9 21l151 192q8 9 13 9q15 0 15 -23q0 -8 -10 -21l-140 -178l140 -178q10 -13 10 -21q0 -23 -15 -23q-5 0 -13 9l-153 194q-7 9 -7 19zM142 306q0 9 9 21l151 192q8 9 12 9q15 0 15 -23q0 -11 -10 -21l-139 -178l139 -178q10 -10 10 -21q0 -23 -15 -23 q-4 0 -12 9l-153 194q-7 9 -7 19z" />
<glyph unicode="&#xac;" d="M21 384q0 11 7 17.5t15 6.5h264q8 0 15 -6.5t7 -17.5v-157q0 -11 -7 -17.5t-15 -6.5t-15 6.5t-7 17.5v134h-242q-8 0 -15 6.5t-7 16.5z" />
<glyph unicode="&#xad;" d="M34 306q0 23 31 23h220q31 0 31 -24q0 -23 -31 -23h-220q-31 0 -31 24z" />
<glyph unicode="&#xae;" d="M-5 255q0 107 53.5 184t126.5 77t126.5 -77t53.5 -184q0 -106 -53.5 -182.5t-126.5 -76.5t-126.5 76.5t-53.5 182.5zM20 255q0 -97 45 -166.5t110 -69.5t110 69.5t45 166.5q0 98 -45 168t-110 70t-110 -70t-45 -168zM93 102q0 11 15 11h9v292h-9q-15 0 -15 11t15 11h66 q32 0 52.5 -27t20.5 -62q0 -47 -38 -79q18 -20 23 -35t5 -55q0 -62 11 -62q9 0 9 32q0 13 12 13t12 -13q0 -18 -8.5 -36t-24.5 -18q-19 0 -28 23q-7 17 -7 70q0 43 -9 55q-13 16 -32 16h-30v-136h8q16 0 16 -11t-16 -11h-42q-15 0 -15 11zM142 271h28q26 0 39.5 21t13.5 46 t-13.5 46t-39.5 21h-28v-134z" />
<glyph unicode="&#xaf;" d="M45 564q0 20 27 20h205q28 0 28 -21q0 -20 -28 -20h-204q-28 0 -28 21z" />
<glyph unicode="&#xb0;" d="M122 553q0 25 13 44.5t35 19.5q24 0 38 -17.5t14 -45.5q0 -25 -13 -44t-35 -19q-24 0 -38 17t-14 45zM147 554q0 -15 7 -25t19 -10q11 0 17.5 10.5t6.5 23.5q0 15 -7 26t-19 11q-11 0 -17.5 -11.5t-6.5 -24.5z" />
<glyph unicode="&#xb1;" d="M21 24q0 23 31 23h101v147h-101q-31 0 -31 24t31 24h101v157q0 37 23 37q21 0 21 -37v-157h101q31 0 31 -25q0 -23 -31 -23h-101v-147h101q31 0 31 -24q0 -23 -31 -23h-246q-31 0 -31 24z" />
<glyph unicode="&#xb2;" d="M103 316l1 4l80 102q41 53 41 101q0 34 -16 54.5t-41 20.5q-33 0 -42 -54q5 -8 5 -11q0 -17 -14 -17t-14 19q0 32 19.5 57.5t48.5 25.5q32 0 54 -26.5t22 -68.5q0 -45 -39 -103l-72 -94h89q0 24 11 24t11 -17v-10q0 -13 -7 -17h-123q-14 0 -14 10z" />
<glyph unicode="&#xb3;" d="M100 373q0 18 14 18q5 0 9.5 -4.5t4.5 -11.5l-3 -11q0 -12 13.5 -28t37.5 -16t38 21t14 50q0 26 -13.5 48.5t-39.5 22.5h-16q-13 0 -13 10t8 10h6q18 0 31 8t18 20.5t7 21.5t2 18q0 20 -11.5 34t-30.5 14q-34 0 -44 -27q6 -8 6 -12q0 -16 -14 -16t-14 17q0 27 18.5 42.5 t47.5 15.5q27 0 45.5 -19.5t18.5 -47.5q0 -48 -37 -76q47 -25 47 -84q0 -37 -21 -64t-53 -27q-31 0 -53.5 20.5t-22.5 52.5z" />
<glyph unicode="&#xb4;" d="M103 531q0 8 18 21l78 58q19 13 29 13q8 0 14 -7t6 -17q0 -9 -18 -23l-90 -66q-8 -6 -15 -6q-22 0 -22 27z" />
<glyph unicode="&#xb5;" d="M5 -209q0 20 28 20h29v574h-29q-28 0 -28 20t28 20h46q16 0 22 -6.5t6 -25.5v-280q0 -14 0.5 -22t3.5 -20.5t8.5 -19t16.5 -12t27 -5.5q31 0 55.5 28t24.5 89v234h-30q-27 0 -27 20t27 20h47q16 0 21.5 -6t5.5 -26v-353h30q27 0 27 -20t-27 -20h-47q-8 0 -12.5 1 t-10 10.5t-5.5 26.5q-37 -44 -84 -44q-30 0 -51 11v-194h29q28 0 28 -20t-28 -20h-103q-28 0 -28 20z" />
<glyph unicode="&#xb6;" d="M28 468q0 94 43.5 161.5t104.5 67.5h143q19 0 19 -11t-19 -11h-25v-851q0 -24 -14 -24t-14 24v851h-42v-851q0 -24 -14 -24t-14 24v413q-65 4 -116.5 63t-51.5 168z" />
<glyph unicode="&#xb7;" d="M136 305q0 21 12 35t28 14q14 0 26 -14t12 -35q0 -19 -12 -33.5t-27 -14.5t-27 14t-12 34z" />
<glyph unicode="&#xb8;" d="M107 -194q0 21 28 21h15q11 0 24.5 2t30 7t27.5 16t11 27q0 21 -12.5 36t-33.5 16q-22 2 -22 30v34q0 31 22 31q14 0 18.5 -12.5t4.5 -46.5q33 -9 50 -33t17 -55q0 -27 -10.5 -45.5t-23.5 -27.5t-36 -14t-36.5 -5.5t-35.5 -0.5q-13 0 -19 0.5t-12.5 5.5t-6.5 14z" />
<glyph unicode="&#xb9;" d="M118 545q0 10 12 10q22 2 37 52q4 11 10 11q10 0 10 -16v-276h31q14 0 14 -10t-14 -10h-85q-14 0 -14 10t14 10h32v232l-7 -6q-7 -6 -15.5 -11.5t-13.5 -5.5q-11 0 -11 10z" />
<glyph unicode="&#xba;" d="M78 471q0 64 29.5 108t67.5 44q39 0 68.5 -44t29.5 -108q0 -63 -29.5 -106.5t-68.5 -43.5t-68 43t-29 107zM98 260q0 10 20 10h114q20 0 20 -10q0 -12 -20 -12h-114q-20 0 -20 12zM108 476q0 -54 19.5 -93t47.5 -39t47 38.5t19 93.5q0 53 -19.5 89.5t-46.5 36.5 q-28 0 -47.5 -36t-19.5 -90z" />
<glyph unicode="&#xbb;" d="M27 107q0 8 10 21l140 178l-140 178q-10 13 -10 21q0 23 15 23q5 0 13 -9l151 -192q9 -12 9 -21q0 -10 -7 -19l-153 -194q-8 -9 -13 -9q-15 0 -15 23zM141 107q0 11 10 21l140 178l-140 178q-10 10 -10 21q0 23 15 23q4 0 12 -9l151 -192q10 -13 10 -21t-8 -19l-153 -194 q-8 -9 -12 -9q-15 0 -15 23z" />
<glyph unicode="&#xbc;" d="M10 545q0 10 12 10q22 2 37 52q4 11 10 11q10 0 10 -16v-276h31q14 0 14 -10t-14 -10h-85q-14 0 -14 10t14 10h32v232l-7 -6q-7 -6 -15.5 -11.5t-13.5 -5.5q-11 0 -11 10zM59 18l216 588q9 17 19 17q8 0 10.5 -9t-1.5 -20l-217 -591q-7 -15 -17 -15q-9 0 -12 9t2 21z M181 102q0 5 1 7l81 194q6 10 15 10h8q8 0 11 -3t3 -13v-190h27q13 0 13 -10t-13 -10h-27v-67h21q14 0 14 -10t-14 -10h-61q-14 0 -14 10t14 10h21v67h-86q-5 0 -7.5 0.5t-4.5 4t-2 10.5zM201 107h80v186h-1z" />
<glyph unicode="&#xbd;" d="M10 545q0 10 12 10q22 2 37 52q4 11 10 11q10 0 10 -16v-276h31q14 0 14 -10t-14 -10h-85q-14 0 -14 10t14 10h32v232l-7 -6q-7 -6 -15.5 -11.5t-13.5 -5.5q-11 0 -11 10zM44 18l216 588q8 17 19 17q8 0 10.5 -9t-1.5 -20l-217 -591q-7 -15 -17 -15q-9 0 -12 9t2 21z M196 10l1 4l80 102q41 53 41 101q0 34 -16 54.5t-41 20.5q-33 0 -42 -54q5 -8 5 -11q0 -17 -14 -17t-14 19q0 32 19.5 57.5t48.5 25.5q32 0 54 -26.5t22 -68.5q0 -45 -39 -103l-72 -94h89q0 24 11 24t11 -17v-10q0 -13 -7 -17h-123q-14 0 -14 10z" />
<glyph unicode="&#xbe;" d="M10 373q0 18 14 18q5 0 9.5 -4.5t4.5 -11.5l-3 -11q0 -12 13.5 -28t37.5 -16q23 0 37 21t14 50q0 26 -13 48.5t-40 22.5h-16q-13 0 -13 10t9 10h6q24 0 38 15t16.5 27.5t2.5 25.5q0 20 -11.5 34t-29.5 14q-35 0 -44 -27q6 -8 6 -12q0 -16 -14 -16t-14 17q0 27 18.5 42.5 t47.5 15.5q27 0 45.5 -19.5t18.5 -47.5q0 -48 -37 -76q47 -26 47 -84q0 -37 -21.5 -64t-52.5 -27q-32 0 -54 20.5t-22 52.5zM69 18l216 588q9 17 19 17q8 0 10.5 -9t-1.5 -20l-217 -591q-7 -15 -17 -15q-9 0 -12 9t2 21zM181 102q0 5 1 7l81 194q6 10 15 10h8q8 0 11 -3 t3 -13v-190h27q13 0 13 -10t-13 -10h-27v-67h21q14 0 14 -10t-14 -10h-61q-14 0 -14 10t14 10h21v67h-86q-5 0 -7.5 0.5t-4.5 4t-2 10.5zM201 107h80v186h-1z" />
<glyph unicode="&#xbf;" d="M38 -115q0 50 38 90q64 67 64 177v20q0 16 4.5 23t19.5 7q16 0 20.5 -8.5t4.5 -34.5q0 -124 -86 -213q-21 -21 -21 -61q0 -26 10.5 -44t26 -24.5t26.5 -9t20 -2.5q75 0 102 53q-11 20 -11 27q0 17 9.5 24.5t18.5 7.5q5 0 10.5 -2t11.5 -10t6 -22q0 -53 -37 -85.5 t-110 -32.5q-41 0 -69 14.5t-39 36.5t-15 38.5t-4 30.5zM133 345q0 16 9.5 26.5t21.5 10.5t21.5 -10.5t9.5 -26.5t-9.5 -26t-21.5 -10t-21.5 10t-9.5 26z" />
<glyph unicode="&#xc0;" d="M14 20q0 9 6 14t12.5 5.5t20.5 0.5l87 549q4 23 11 29.5t25 6.5q14 0 22.5 -6.5t11.5 -29.5l87 -549q13 0 19.5 -0.5t13 -5.5t6.5 -14q0 -20 -29 -20h-67q-28 0 -28 20q0 9 6.5 14t13.5 5.5t21 0.5l-21 135h-114l-21 -135q14 0 21 -0.5t13.5 -5.5t6.5 -14q0 -20 -28 -20 h-68q-28 0 -28 20zM102 770q0 10 6 17t14 7q10 0 29 -13l78 -58q18 -13 18 -21q0 -27 -22 -27q-7 0 -15 6l-90 66q-18 13 -18 23zM124 216h102l-51 349z" />
<glyph unicode="&#xc1;" d="M14 20q0 9 6 14t12.5 5.5t20.5 0.5l87 549q4 23 11 29.5t25 6.5q14 0 22.5 -6.5t11.5 -29.5l87 -549q13 0 19.5 -0.5t13 -5.5t6.5 -14q0 -20 -29 -20h-67q-28 0 -28 20q0 9 6.5 14t13.5 5.5t21 0.5l-21 135h-114l-21 -135q14 0 21 -0.5t13.5 -5.5t6.5 -14q0 -20 -28 -20 h-68q-28 0 -28 20zM103 702q0 8 18 21l78 58q19 13 29 13q8 0 14 -7t6 -17t-18 -23l-90 -66q-8 -6 -15 -6q-22 0 -22 27zM124 216h102l-51 349z" />
<glyph unicode="&#xc2;" d="M14 20q0 9 6 14t12.5 5.5t20.5 0.5l87 549q4 23 11 29.5t25 6.5q14 0 22.5 -6.5t11.5 -29.5l87 -549q13 0 19.5 -0.5t13 -5.5t6.5 -14q0 -20 -29 -20h-67q-28 0 -28 20q0 9 6.5 14t13.5 5.5t21 0.5l-21 135h-114l-21 -135q14 0 21 -0.5t13.5 -5.5t6.5 -14q0 -20 -28 -20 h-68q-28 0 -28 20zM78 683q0 15 9 19l74 40q14 8 28 0l74 -40q9 -4 9 -19q0 -17 -15 -17q-12 0 -18 3l-64 29l-64 -29q-7 -3 -18 -3q-15 0 -15 17zM124 216h102l-51 349z" />
<glyph unicode="&#xc3;" d="M14 20q0 9 6 14t12.5 5.5t20.5 0.5l87 549q4 23 11 29.5t25 6.5q14 0 22.5 -6.5t11.5 -29.5l87 -549q13 0 19.5 -0.5t13 -5.5t6.5 -14q0 -20 -29 -20h-67q-28 0 -28 20q0 9 6.5 14t13.5 5.5t21 0.5l-21 135h-114l-21 -135q14 0 21 -0.5t13.5 -5.5t6.5 -14q0 -20 -28 -20 h-68q-28 0 -28 20zM55 685q0 5 10 18q20 23 29.5 33.5t23.5 20t25 9.5q25 0 51 -44q8 -14 14 -14q15 0 54 52q6 6 12 6q7 0 13.5 -5.5t6.5 -14.5q0 -8 -9 -18q-20 -23 -29.5 -33.5t-23.5 -20t-25 -9.5q-25 0 -51 44q-9 14 -15 14q-15 0 -54 -52q-5 -6 -12 -6t-13.5 6 t-6.5 14zM124 216h102l-51 349z" />
<glyph unicode="&#xc4;" d="M14 20q0 9 6 14t12.5 5.5t20.5 0.5l87 549q4 23 11 29.5t25 6.5q14 0 22.5 -6.5t11.5 -29.5l87 -549q13 0 19.5 -0.5t13 -5.5t6.5 -14q0 -20 -29 -20h-67q-28 0 -28 20q0 9 6.5 14t13.5 5.5t21 0.5l-21 135h-114l-21 -135q14 0 21 -0.5t13.5 -5.5t6.5 -14q0 -20 -28 -20 h-68q-28 0 -28 20zM86 697q0 14 8.5 23t19.5 9t19.5 -9t8.5 -23t-9 -23t-19 -9t-19 9t-9 23zM124 216h102l-51 349zM209 697q0 14 8.5 23t19.5 9t19.5 -9t8.5 -23t-9 -23t-19 -9t-19 9t-9 23z" />
<glyph unicode="&#xc5;" d="M14 20q0 9 6 14t12.5 5.5t20.5 0.5l87 549q3 19 8.5 26.5t15.5 8.5q-18 5 -31 23t-13 38q0 23 17 42.5t38 19.5t38 -19.5t17 -42.5q0 -20 -13 -38t-32 -23q20 -3 25 -35l87 -549q13 0 19.5 -0.5t13 -5.5t6.5 -14q0 -20 -29 -20h-67q-28 0 -28 20q0 9 6.5 14t13.5 5.5 t21 0.5l-21 135h-114l-21 -135q14 0 21 -0.5t13.5 -5.5t6.5 -14q0 -20 -28 -20h-68q-28 0 -28 20zM124 216h102l-51 349zM147 685q0 -15 7 -27.5t21 -12.5t21 12.5t7 27.5t-7 27.5t-21 12.5t-21 -12.5t-7 -27.5z" />
<glyph unicode="&#xc6;" d="M10 20q0 20 32 20l73 531q-29 0 -29 20t28 20h191q15 0 21 -6.5t6 -26.5v-68q0 -32 -19 -32t-19 32v61h-79v-234h78q28 0 28 -20t-28 -20h-78v-257h85v76q0 33 19 33t19 -33v-83q0 -20 -6 -26.5t-22 -6.5h-132q-28 0 -28 20t27 20v152h-77l-20 -152q33 0 33 -20t-28 -20 h-46q-29 0 -29 20zM106 232h71v339h-25z" />
<glyph unicode="&#xc7;" d="M23 306q0 133 49 225t116 92q50 0 91 -52l10 34q5 18 18 18q20 0 20 -29v-150q0 -29 -23 -29q-11 0 -16 6t-6 22q-7 67 -33 103.5t-57 36.5q-51 0 -87.5 -79.5t-36.5 -197.5q0 -119 37 -198.5t88 -79.5q6 0 13.5 1.5t21 9.5t24 22t19.5 41t11 64q1 21 22 21q23 0 23 -22 q0 -54 -27.5 -102t-69.5 -67v-29q32 -9 49 -33t17 -55q0 -27 -10.5 -45.5t-23.5 -27.5t-36 -14t-36.5 -5.5t-35.5 -0.5q-13 0 -19 0.5t-12.5 5.5t-6.5 14q0 21 29 21h14q11 0 24.5 2t30 7t27.5 16t11 27q0 21 -12.5 36t-33.5 16q-22 2 -22 30v27q-65 3 -113 94t-48 224z" />
<glyph unicode="&#xc8;" d="M15 20q0 20 28 20h19v531h-19q-28 0 -28 20t28 20h254q16 0 22 -6.5t6 -26.5v-68q0 -32 -23 -32q-22 0 -22 32v61h-173v-234h94q0 32 4 44t18 12q22 0 22 -32v-87q0 -32 -22 -32q-14 0 -18 11.5t-4 43.5h-94v-257h188v76q0 33 23 33q22 0 22 -33v-83q0 -20 -6 -26.5 t-22 -6.5h-269q-28 0 -28 20zM102 770q0 10 6 17t14 7q10 0 29 -13l78 -58q18 -13 18 -21q0 -27 -22 -27q-7 0 -15 6l-90 66q-18 13 -18 23z" />
<glyph unicode="&#xc9;" d="M15 20q0 20 28 20h19v531h-19q-28 0 -28 20t28 20h254q16 0 22 -6.5t6 -26.5v-68q0 -32 -23 -32q-22 0 -22 32v61h-173v-234h94q0 32 4 44t18 12q22 0 22 -32v-87q0 -32 -22 -32q-14 0 -18 11.5t-4 43.5h-94v-257h188v76q0 33 23 33q22 0 22 -33v-83q0 -20 -6 -26.5 t-22 -6.5h-269q-28 0 -28 20zM103 702q0 8 18 21l78 58q19 13 29 13q8 0 14 -7t6 -17t-18 -23l-90 -66q-8 -6 -15 -6q-22 0 -22 27z" />
<glyph unicode="&#xca;" d="M15 20q0 20 28 20h19v531h-19q-28 0 -28 20t28 20h254q16 0 22 -6.5t6 -26.5v-68q0 -32 -23 -32q-22 0 -22 32v61h-173v-234h94q0 32 4 44t18 12q22 0 22 -32v-87q0 -32 -22 -32q-14 0 -18 11.5t-4 43.5h-94v-257h188v76q0 33 23 33q22 0 22 -33v-83q0 -20 -6 -26.5 t-22 -6.5h-269q-28 0 -28 20zM78 683q0 15 9 19l74 40q14 8 28 0l74 -40q9 -4 9 -19q0 -17 -15 -17q-12 0 -18 3l-64 29l-64 -29q-7 -3 -18 -3q-15 0 -15 17z" />
<glyph unicode="&#xcb;" d="M15 20q0 20 28 20h19v531h-19q-28 0 -28 20t28 20h254q16 0 22 -6.5t6 -26.5v-68q0 -32 -23 -32q-22 0 -22 32v61h-173v-234h94q0 32 4 44t18 12q22 0 22 -32v-87q0 -32 -22 -32q-14 0 -18 11.5t-4 43.5h-94v-257h188v76q0 33 23 33q22 0 22 -33v-83q0 -20 -6 -26.5 t-22 -6.5h-269q-28 0 -28 20zM86 697q0 14 8.5 23t19.5 9t19.5 -9t8.5 -23t-9 -23t-19 -9t-19 9t-9 23zM209 697q0 14 8.5 23t19.5 9t19.5 -9t8.5 -23t-9 -23t-19 -9t-19 9t-9 23z" />
<glyph unicode="&#xcc;" d="M53 20q0 20 28 20h72v531h-72q-28 0 -28 20t28 20h189q27 0 27 -20t-27 -20h-73v-531h73q27 0 27 -20t-27 -20h-189q-28 0 -28 20zM102 770q0 10 6 17t14 7q10 0 29 -13l78 -58q18 -13 18 -21q0 -27 -22 -27q-7 0 -15 6l-90 66q-18 13 -18 23z" />
<glyph unicode="&#xcd;" d="M53 20q0 20 28 20h72v531h-72q-28 0 -28 20t28 20h189q27 0 27 -20t-27 -20h-73v-531h73q27 0 27 -20t-27 -20h-189q-28 0 -28 20zM103 702q0 8 18 21l78 58q19 13 29 13q8 0 14 -7t6 -17t-18 -23l-90 -66q-8 -6 -15 -6q-22 0 -22 27z" />
<glyph unicode="&#xce;" d="M53 20q0 20 28 20h72v531h-72q-28 0 -28 20t28 20h189q27 0 27 -20t-27 -20h-73v-531h73q27 0 27 -20t-27 -20h-189q-28 0 -28 20zM78 683q0 15 9 19l74 40q14 8 28 0l74 -40q9 -4 9 -19q0 -17 -15 -17q-12 0 -18 3l-64 29l-64 -29q-7 -3 -18 -3q-15 0 -15 17z" />
<glyph unicode="&#xcf;" d="M53 20q0 20 28 20h72v531h-72q-28 0 -28 20t28 20h189q27 0 27 -20t-27 -20h-73v-531h73q27 0 27 -20t-27 -20h-189q-28 0 -28 20zM86 697q0 14 8.5 23t19.5 9t19.5 -9t8.5 -23t-9 -23t-19 -9t-19 9t-9 23zM209 697q0 14 8.5 23t19.5 9t19.5 -9t8.5 -23t-9 -23t-19 -9 t-19 9t-9 23z" />
<glyph unicode="&#xd0;" d="M10 20q0 20 28 20h14v246h-20q-7 0 -13.5 5.5t-6.5 14.5t6.5 14.5t13.5 5.5h20v245h-14q-28 0 -28 20t28 20h139q66 0 108.5 -93t42.5 -218q0 -122 -42.5 -211t-107.5 -89h-140q-28 0 -28 20zM97 40h68q56 0 87 78t31 183q0 65 -11.5 124t-39.5 102.5t-68 43.5h-67v-245 h42q7 0 13.5 -5.5t6.5 -14.5t-6.5 -14.5t-13.5 -5.5h-42v-246z" />
<glyph unicode="&#xd1;" d="M15 20q0 20 28 20h16v531h-16q-28 0 -28 20t28 20h45q10 0 16 -1t14 -9.5t12 -24.5l123 -517v512h-16q-29 0 -29 20t29 20h70q27 0 27 -20t-27 -20h-16v-538q0 -16 -4 -23.5t-9 -8.5t-16 -1t-17 1t-13.5 9.5t-11.5 24.5l-122 517v-512h15q28 0 28 -20t-28 -20h-70 q-28 0 -28 20zM55 685q0 5 10 18q20 23 29.5 33.5t23.5 20t25 9.5q25 0 51 -44q8 -14 14 -14q15 0 54 52q6 6 12 6q7 0 13.5 -5.5t6.5 -14.5q0 -8 -9 -18q-20 -23 -29.5 -33.5t-23.5 -20t-25 -9.5q-25 0 -51 44q-9 14 -15 14q-15 0 -54 -52q-5 -6 -12 -6t-13.5 6t-6.5 14z " />
<glyph unicode="&#xd2;" d="M34 306q0 216 22 266q14 31 40.5 41t78.5 10t78.5 -10t39.5 -41q23 -52 23 -267q0 -214 -23 -266q-13 -31 -39.5 -41t-78.5 -10t-78.5 10t-40.5 41q-22 50 -22 267zM78 314q0 -159 10 -213q6 -39 24 -56t63 -17q46 0 64 18t24 60q8 58 8 208q0 151 -8 202q-7 40 -26 53.5 t-62 13.5q-44 0 -63 -14.5t-26 -56.5q-8 -51 -8 -198zM102 770q0 10 6 17t14 7q10 0 29 -13l78 -58q18 -13 18 -21q0 -27 -22 -27q-7 0 -15 6l-90 66q-18 13 -18 23z" />
<glyph unicode="&#xd3;" d="M34 306q0 216 22 266q14 31 40.5 41t78.5 10t78.5 -10t39.5 -41q23 -52 23 -267q0 -214 -23 -266q-13 -31 -39.5 -41t-78.5 -10t-78.5 10t-40.5 41q-22 50 -22 267zM78 314q0 -159 10 -213q6 -39 24 -56t63 -17q46 0 64 18t24 60q8 58 8 208q0 151 -8 202q-7 40 -26 53.5 t-62 13.5q-44 0 -63 -14.5t-26 -56.5q-8 -51 -8 -198zM103 702q0 8 18 21l78 58q19 13 29 13q8 0 14 -7t6 -17t-18 -23l-90 -66q-8 -6 -15 -6q-22 0 -22 27z" />
<glyph unicode="&#xd4;" d="M34 306q0 216 22 266q14 31 40.5 41t78.5 10t78.5 -10t39.5 -41q23 -52 23 -267q0 -214 -23 -266q-13 -31 -39.5 -41t-78.5 -10t-78.5 10t-40.5 41q-22 50 -22 267zM78 314q0 -159 10 -213q6 -39 24 -56t63 -17q46 0 64 18t24 60q8 58 8 208q0 151 -8 202q-7 40 -26 53.5 t-62 13.5q-44 0 -63 -14.5t-26 -56.5q-8 -51 -8 -198zM78 683q0 15 9 19l74 40q14 8 28 0l74 -40q9 -4 9 -19q0 -17 -15 -17q-12 0 -18 3l-64 29l-64 -29q-7 -3 -18 -3q-15 0 -15 17z" />
<glyph unicode="&#xd5;" d="M34 306q0 216 22 266q14 31 40.5 41t78.5 10t78.5 -10t39.5 -41q23 -52 23 -267q0 -214 -23 -266q-13 -31 -39.5 -41t-78.5 -10t-78.5 10t-40.5 41q-22 50 -22 267zM55 685q0 5 10 18q20 23 29.5 33.5t23.5 20t25 9.5q25 0 51 -44q8 -14 14 -14q15 0 54 52q6 6 12 6 q7 0 13.5 -5.5t6.5 -14.5q0 -8 -9 -18q-20 -23 -29.5 -33.5t-23.5 -20t-25 -9.5q-25 0 -51 44q-9 14 -15 14q-15 0 -54 -52q-5 -6 -12 -6t-13.5 6t-6.5 14zM78 314q0 -159 10 -213q6 -39 24 -56t63 -17q46 0 64 18t24 60q8 58 8 208q0 151 -8 202q-7 40 -26 53.5t-62 13.5 q-44 0 -63 -14.5t-26 -56.5q-8 -51 -8 -198z" />
<glyph unicode="&#xd6;" d="M34 306q0 216 22 266q14 31 40.5 41t78.5 10t78.5 -10t39.5 -41q23 -52 23 -267q0 -214 -23 -266q-13 -31 -39.5 -41t-78.5 -10t-78.5 10t-40.5 41q-22 50 -22 267zM78 314q0 -159 10 -213q6 -39 24 -56t63 -17q46 0 64 18t24 60q8 58 8 208q0 151 -8 202q-7 40 -26 53.5 t-62 13.5q-44 0 -63 -14.5t-26 -56.5q-8 -51 -8 -198zM86 697q0 14 8.5 23t19.5 9t19.5 -9t8.5 -23t-9 -23t-19 -9t-19 9t-9 23zM209 697q0 14 8.5 23t19.5 9t19.5 -9t8.5 -23t-9 -23t-19 -9t-19 9t-9 23z" />
<glyph unicode="&#xd7;" d="M65 155q-10 16 7 37l77 114l-77 114q-15 21 -7 36q16 26 39 -8l71 -104l71 103q23 32 38 9q10 -14 -6 -37l-78 -113l78 -114q16 -23 6 -37q-14 -21 -38 9l-71 104l-71 -104q-23 -33 -39 -9z" />
<glyph unicode="&#xd8;" d="M34 306q0 78 1.5 125.5t8 86t14.5 57t26 31t37.5 15t53.5 2.5q30 0 50 -2l10 46q6 31 21 31q8 0 14 -5.5t6 -13.5q0 -1 -3 -13.5t-6.5 -29.5t-5.5 -27q25 -15 36 -46.5t16 -100.5q3 -46 3 -157q0 -78 -1.5 -125.5t-8 -86t-14.5 -57t-26 -31t-37.5 -15t-53.5 -2.5 q-30 0 -50 2l-10 -46q-6 -31 -21 -31q-8 0 -14 5.5t-6 13.5q0 1 3 13.5t6.5 29.5t5.5 27q-26 15 -36.5 46t-15.5 101q-3 46 -3 157zM72 305q0 -103 4.5 -159.5t9.5 -69.5t14 -24l115 528q-16 3 -40 3q-45 0 -65.5 -13.5t-28.5 -59.5q-9 -54 -9 -205zM134 31q16 -3 41 -3 q45 0 65.5 13.5t28.5 59.5q9 54 9 205q0 103 -4.5 159.5t-9.5 69.5t-14 24z" />
<glyph unicode="&#xd9;" d="M0 591q0 20 28 20h84q28 0 28 -20t-28 -20h-20v-365q0 -82 25.5 -130t57.5 -48t57 47.5t25 130.5v365h-19q-28 0 -28 20t28 20h84q28 0 28 -20t-28 -20h-20v-371q0 -89 -38 -150.5t-89 -61.5t-89 61.5t-38 150.5v371h-20q-28 0 -28 20zM102 770q0 10 6 17t14 7 q10 0 29 -13l78 -58q18 -13 18 -21q0 -27 -22 -27q-7 0 -15 6l-90 66q-18 13 -18 23z" />
<glyph unicode="&#xda;" d="M0 591q0 20 28 20h84q28 0 28 -20t-28 -20h-20v-365q0 -82 25.5 -130t57.5 -48t57 47.5t25 130.5v365h-19q-28 0 -28 20t28 20h84q28 0 28 -20t-28 -20h-20v-371q0 -89 -38 -150.5t-89 -61.5t-89 61.5t-38 150.5v371h-20q-28 0 -28 20zM103 702q0 8 18 21l78 58 q19 13 29 13q8 0 14 -7t6 -17t-18 -23l-90 -66q-8 -6 -15 -6q-22 0 -22 27z" />
<glyph unicode="&#xdb;" d="M0 591q0 20 28 20h84q28 0 28 -20t-28 -20h-20v-365q0 -82 25.5 -130t57.5 -48t57 47.5t25 130.5v365h-19q-28 0 -28 20t28 20h84q28 0 28 -20t-28 -20h-20v-371q0 -89 -38 -150.5t-89 -61.5t-89 61.5t-38 150.5v371h-20q-28 0 -28 20zM78 683q0 15 9 19l74 40q14 8 28 0 l74 -40q9 -4 9 -19q0 -17 -15 -17q-12 0 -18 3l-64 29l-64 -29q-7 -3 -18 -3q-15 0 -15 17z" />
<glyph unicode="&#xdc;" d="M0 591q0 20 28 20h84q28 0 28 -20t-28 -20h-20v-365q0 -82 25.5 -130t57.5 -48t57 47.5t25 130.5v365h-19q-28 0 -28 20t28 20h84q28 0 28 -20t-28 -20h-20v-371q0 -89 -38 -150.5t-89 -61.5t-89 61.5t-38 150.5v371h-20q-28 0 -28 20zM86 697q0 14 8.5 23t19.5 9 t19.5 -9t8.5 -23t-9 -23t-19 -9t-19 9t-9 23zM209 697q0 14 8.5 23t19.5 9t19.5 -9t8.5 -23t-9 -23t-19 -9t-19 9t-9 23z" />
<glyph unicode="&#xdd;" d="M8 591q0 20 28 20h66q28 0 28 -20t-37 -20l82 -272l82 272q-12 0 -18 0.5t-12.5 5.5t-6.5 14q0 20 28 20h66q28 0 28 -20t-28 -20h-13l-104 -321v-210h16q28 0 28 -20t-28 -20h-76q-28 0 -28 20t28 20h16v210l-105 321h-12q-28 0 -28 20zM103 702q0 8 18 21l78 58 q19 13 29 13q8 0 14 -7t6 -17t-18 -23l-90 -66q-8 -6 -15 -6q-22 0 -22 27z" />
<glyph unicode="&#xde;" d="M12 20q0 20 27 20h16v531h-16q-27 0 -27 20t27 20h77q28 0 28 -20t-28 -20h-16v-88h87q57 0 93.5 -53t36.5 -125q0 -70 -36.5 -123.5t-93.5 -53.5h-87v-88h16q28 0 28 -20t-28 -20h-77q-27 0 -27 20zM100 168h75q48 0 73 42.5t25 95.5q0 52 -24.5 94.5t-73.5 42.5h-75 v-275z" />
<glyph unicode="&#xdf;" d="M9 20q0 20 28 20h35v345h-35q-28 0 -28 20t28 20h35v81q0 35 13.5 59t35.5 34.5t39 14t34 3.5q48 0 84.5 -27.5t36.5 -75.5q0 -60 -72 -114q91 -84 91 -229q0 -78 -38 -127.5t-88 -49.5q-30 0 -49.5 18t-19.5 46q0 13 7 21.5t18 8.5q10 0 18 -8t8 -21h-1l1 -20 q6 -5 18 -5q33 0 57.5 38t24.5 99q0 47 -10.5 92t-37.5 81.5t-66 40.5q-18 2 -18 20q0 17 24 20q40 3 64 31t24 58q0 23 -22 43t-55 20q-32 0 -51 -16q-17 -10 -21 -23.5t-4 -35.5v-469q0 -20 -6 -26.5t-22 -6.5h-52q-28 0 -28 20z" />
<glyph unicode="&#xe0;" d="M34 119q0 76 80 115q48 23 126 27q0 28 -1 42t-7 32.5t-18 32.5q-23 26 -63 26q-18 0 -26 -1q-16 -2 -16 -15q-1 -38 -28 -38q-11 0 -19.5 8.5t-8.5 24.5q0 62 97 62q64 0 99 -45t35 -107v-234q14 -9 43 -9q28 0 28 -20t-33 -20q-61 0 -76 36q-42 -42 -103 -42 q-46 0 -77.5 36t-31.5 89zM79 119q0 -35 19.5 -60t52.5 -25q35 0 60 18q19 13 24 30.5t5 43.5v99q-67 0 -114 -30t-47 -76zM102 599q0 10 6 17t14 7q10 0 29 -13l78 -58q18 -13 18 -21q0 -27 -22 -27q-7 0 -15 6l-90 66q-18 14 -18 23z" />
<glyph unicode="&#xe1;" d="M34 119q0 76 80 115q48 23 126 27q0 28 -1 42t-7 32.5t-18 32.5q-23 26 -63 26q-18 0 -26 -1q-16 -2 -16 -15q-1 -38 -28 -38q-11 0 -19.5 8.5t-8.5 24.5q0 62 97 62q64 0 99 -45t35 -107v-234q14 -9 43 -9q28 0 28 -20t-33 -20q-61 0 -76 36q-42 -42 -103 -42 q-46 0 -77.5 36t-31.5 89zM79 119q0 -35 19.5 -60t52.5 -25q35 0 60 18q19 13 24 30.5t5 43.5v99q-67 0 -114 -30t-47 -76zM103 531q0 8 18 21l78 58q19 13 29 13q8 0 14 -7t6 -17q0 -9 -18 -23l-90 -66q-8 -6 -15 -6q-22 0 -22 27z" />
<glyph unicode="&#xe2;" d="M34 119q0 76 80 115q48 23 126 27q0 28 -1 42t-7 32.5t-18 32.5q-23 26 -63 26q-18 0 -26 -1q-16 -2 -16 -15q-1 -38 -28 -38q-11 0 -19.5 8.5t-8.5 24.5q0 62 97 62q64 0 99 -45t35 -107v-234q14 -9 43 -9q28 0 28 -20t-33 -20q-61 0 -76 36q-42 -42 -103 -42 q-46 0 -77.5 36t-31.5 89zM73 527q0 7 12 19l74 68q15 13 30 0l74 -68q12 -12 12 -19q0 -20 -17 -20q-11 0 -20 8l-64 57l-64 -57q-9 -8 -20 -8q-17 0 -17 20zM79 119q0 -35 19.5 -60t52.5 -25q35 0 60 18q19 13 24 30.5t5 43.5v99q-67 0 -114 -30t-47 -76z" />
<glyph unicode="&#xe3;" d="M34 119q0 76 80 115q48 23 126 27q0 28 -1 42t-7 32.5t-18 32.5q-23 26 -63 26q-18 0 -26 -1q-16 -2 -16 -15q-1 -38 -28 -38q-11 0 -19.5 8.5t-8.5 24.5q0 62 97 62q64 0 99 -45t35 -107v-234q14 -9 43 -9q28 0 28 -20t-33 -20q-61 0 -76 36q-42 -42 -103 -42 q-46 0 -77.5 36t-31.5 89zM55 533q0 6 10 18q20 23 29.5 33.5t23.5 20t25 9.5q25 0 51 -44q9 -14 14 -14q15 0 54 52q6 6 12 6q7 0 13.5 -5.5t6.5 -14.5q0 -6 -9 -18q-20 -23 -29.5 -33.5t-23.5 -20t-25 -9.5q-25 0 -51 44q-8 14 -15 14q-15 0 -54 -52q-5 -6 -12 -6t-13.5 6 t-6.5 14zM79 119q0 -35 19.5 -60t52.5 -25q35 0 60 18q19 13 24 30.5t5 43.5v99q-67 0 -114 -30t-47 -76z" />
<glyph unicode="&#xe4;" d="M34 119q0 76 80 115q48 23 126 27q0 28 -1 42t-7 32.5t-18 32.5q-23 26 -63 26q-18 0 -26 -1q-16 -2 -16 -15q-1 -38 -28 -38q-11 0 -19.5 8.5t-8.5 24.5q0 62 97 62q64 0 99 -45t35 -107v-234q14 -9 43 -9q28 0 28 -20t-33 -20q-61 0 -76 36q-42 -42 -103 -42 q-46 0 -77.5 36t-31.5 89zM79 119q0 -35 19.5 -60t52.5 -25q35 0 60 18q19 13 24 30.5t5 43.5v99q-67 0 -114 -30t-47 -76zM95 563q0 14 9 23.5t20 9.5q10 0 18.5 -9.5t8.5 -23.5q0 -13 -8.5 -22t-18.5 -9q-11 0 -20 8.5t-9 22.5zM200 563q0 14 9 23.5t19 9.5t19 -9.5 t9 -23.5q0 -13 -9 -22t-19 -9t-19 9t-9 22z" />
<glyph unicode="&#xe5;" d="M34 119q0 76 80 115q48 23 126 27q0 28 -1 42t-7 32.5t-18 32.5q-23 26 -63 26q-18 0 -26 -1q-16 -2 -16 -15q-1 -38 -28 -38q-11 0 -19.5 8.5t-8.5 24.5q0 62 97 62q64 0 99 -45t35 -107v-234q14 -9 43 -9q28 0 28 -20t-33 -20q-61 0 -76 36q-42 -42 -103 -42 q-46 0 -77.5 36t-31.5 89zM79 119q0 -35 19.5 -60t52.5 -25q35 0 60 18q19 13 24 30.5t5 43.5v99q-67 0 -114 -30t-47 -76zM120 554q0 23 17 42.5t38 19.5t38 -19.5t17 -42.5t-17 -42.5t-38 -19.5t-38 19.5t-17 42.5zM147 554q0 -15 7 -27.5t21 -12.5t21 12.5t7 27.5 t-7 27.5t-21 12.5t-21 -12.5t-7 -27.5z" />
<glyph unicode="&#xe6;" d="M17 109q0 48 33 84t106 40v48q0 113 -55 113q-5 0 -21 -2q0 -52 -27 -52q-11 0 -19.5 8.5t-8.5 24.5q0 24 18.5 43t58.5 19q53 0 79 -74q31 74 75 74q35 0 60 -52t25 -151q0 -20 -6 -27t-22 -7h-119q5 -78 25 -121t44 -43q28 0 40 69q5 19 19 19q7 0 13 -5.5t6 -13.5 q0 -26 -21.5 -67.5t-57.5 -41.5q-24 0 -44.5 21t-33.5 50q-12 -31 -37 -51t-52 -20q-35 0 -56.5 35.5t-21.5 79.5zM55 110q0 -30 12 -53t32 -23q24 0 43 25q14 21 14 77v59q-48 -1 -74.5 -26t-26.5 -59zM195 235h107q-1 78 -14 118.5t-32 40.5q-21 0 -39 -42t-22 -117z" />
<glyph unicode="&#xe7;" d="M47 213q0 34 9 70.5t26.5 71.5t49.5 57.5t73 22.5q101 0 101 -62q0 -16 -8.5 -24.5t-19.5 -8.5q-25 0 -28 38q0 11 -6 13q-18 3 -40 3q-34 0 -58 -20t-35 -51t-15.5 -58t-4.5 -52q0 -75 32 -127t79 -52q49 0 69 71q5 15 20 15q23 0 23 -17q0 -19 -22 -55.5t-63 -48.5v-32 q33 -9 50 -33t17 -55q0 -27 -10.5 -45.5t-23.5 -27.5t-36 -14t-36.5 -5.5t-35.5 -0.5q-13 0 -19 0.5t-12.5 5.5t-6.5 14q0 21 29 21h14q11 0 24.5 2t30 7t27.5 16t11 27q0 21 -12.5 36t-33.5 16q-22 2 -22 30v34q-57 7 -97 69.5t-40 148.5z" />
<glyph unicode="&#xe8;" d="M34 215q0 91 43.5 155.5t102.5 64.5q62 0 98 -59t36 -149q0 -13 -5 -20t-9.5 -8t-13.5 -1h-207q7 -73 38.5 -118.5t75.5 -45.5q57 0 77 65q3 13 7.5 18t13.5 5q12 0 17.5 -6.5t5.5 -12.5q0 -29 -33 -69t-90 -40q-64 0 -110.5 64t-46.5 157zM79 235h190q-7 159 -89 159 q-35 0 -64 -41.5t-37 -117.5zM102 599q0 10 6 17t14 7q10 0 29 -13l78 -58q18 -13 18 -21q0 -27 -22 -27q-7 0 -15 6l-90 66q-18 14 -18 23z" />
<glyph unicode="&#xe9;" d="M34 215q0 91 43.5 155.5t102.5 64.5q62 0 98 -59t36 -149q0 -13 -5 -20t-9.5 -8t-13.5 -1h-207q7 -73 38.5 -118.5t75.5 -45.5q57 0 77 65q3 13 7.5 18t13.5 5q12 0 17.5 -6.5t5.5 -12.5q0 -29 -33 -69t-90 -40q-64 0 -110.5 64t-46.5 157zM79 235h190q-7 159 -89 159 q-35 0 -64 -41.5t-37 -117.5zM103 531q0 8 18 21l78 58q19 13 29 13q8 0 14 -7t6 -17q0 -9 -18 -23l-90 -66q-8 -6 -15 -6q-22 0 -22 27z" />
<glyph unicode="&#xea;" d="M34 215q0 91 43.5 155.5t102.5 64.5q62 0 98 -59t36 -149q0 -13 -5 -20t-9.5 -8t-13.5 -1h-207q7 -73 38.5 -118.5t75.5 -45.5q57 0 77 65q3 13 7.5 18t13.5 5q12 0 17.5 -6.5t5.5 -12.5q0 -29 -33 -69t-90 -40q-64 0 -110.5 64t-46.5 157zM73 527q0 7 12 19l74 68 q15 13 30 0l74 -68q12 -12 12 -19q0 -20 -17 -20q-11 0 -20 8l-64 57l-64 -57q-9 -8 -20 -8q-17 0 -17 20zM79 235h190q-7 159 -89 159q-35 0 -64 -41.5t-37 -117.5z" />
<glyph unicode="&#xeb;" d="M34 215q0 91 43.5 155.5t102.5 64.5q62 0 98 -59t36 -149q0 -13 -5 -20t-9.5 -8t-13.5 -1h-207q7 -73 38.5 -118.5t75.5 -45.5q57 0 77 65q3 13 7.5 18t13.5 5q12 0 17.5 -6.5t5.5 -12.5q0 -29 -33 -69t-90 -40q-64 0 -110.5 64t-46.5 157zM79 235h190q-7 159 -89 159 q-35 0 -64 -41.5t-37 -117.5zM95 563q0 14 9 23.5t20 9.5q10 0 18.5 -9.5t8.5 -23.5q0 -13 -8.5 -22t-18.5 -9q-11 0 -20 8.5t-9 22.5zM200 563q0 14 9 23.5t19 9.5t19 -9.5t9 -23.5q0 -13 -9 -22t-19 -9t-19 9t-9 22z" />
<glyph unicode="&#xec;" d="M52 20q0 20 29 20h80v345h-75q-28 0 -28 20t28 20h92q16 0 22 -6.5t6 -25.5v-353h70q27 0 27 -20t-27 -20h-195q-29 0 -29 20zM102 599q0 10 6 17t14 7q10 0 29 -13l78 -58q18 -13 18 -21q0 -27 -22 -27q-7 0 -15 6l-90 66q-18 14 -18 23z" />
<glyph unicode="&#xed;" d="M52 20q0 20 29 20h80v345h-75q-28 0 -28 20t28 20h92q16 0 22 -6.5t6 -25.5v-353h70q27 0 27 -20t-27 -20h-195q-29 0 -29 20zM103 531q0 8 18 21l78 58q19 13 29 13q8 0 14 -7t6 -17q0 -9 -18 -23l-90 -66q-8 -6 -15 -6q-22 0 -22 27z" />
<glyph unicode="&#xee;" d="M52 20q0 20 29 20h80v345h-75q-28 0 -28 20t28 20h92q16 0 22 -6.5t6 -25.5v-353h70q27 0 27 -20t-27 -20h-195q-29 0 -29 20zM73 527q0 7 12 19l74 68q15 13 30 0l74 -68q12 -12 12 -19q0 -20 -17 -20q-11 0 -20 8l-64 57l-64 -57q-9 -8 -20 -8q-17 0 -17 20z" />
<glyph unicode="&#xef;" d="M52 20q0 20 29 20h80v345h-75q-28 0 -28 20t28 20h92q16 0 22 -6.5t6 -25.5v-353h70q27 0 27 -20t-27 -20h-195q-29 0 -29 20zM95 563q0 14 9 23.5t20 9.5q10 0 18.5 -9.5t8.5 -23.5q0 -13 -8.5 -22t-18.5 -9q-11 0 -20 8.5t-9 22.5zM200 563q0 14 9 23.5t19 9.5t19 -9.5 t9 -23.5q0 -13 -9 -22t-19 -9t-19 9t-9 22z" />
<glyph unicode="&#xf0;" d="M36 213q0 93 41.5 157.5t97.5 64.5q48 0 88 -54q-11 99 -32 142l-14 -20q-6 -10 -15 -10q-7 0 -13.5 5.5t-6.5 14.5q0 2 2.5 6t2.5 5l23 34q-27 22 -53 22q-7 0 -13.5 5.5t-6.5 14.5t6.5 14.5t13.5 5.5q42 0 73 -34l18 27q4 6 12 6q7 0 13.5 -5.5t6.5 -14.5l-2 -6 l-25 -38q61 -121 61 -342q0 -79 -38.5 -149t-100.5 -70q-56 0 -97.5 63t-41.5 156zM80 220q0 -77 27.5 -131.5t67.5 -54.5t67 54t27 132q0 75 -27.5 124.5t-66.5 49.5q-40 0 -67.5 -49.5t-27.5 -124.5z" />
<glyph unicode="&#xf1;" d="M5 20q0 20 28 20h29v345h-29q-28 0 -28 20t28 20h46q18 0 23 -10t5 -43q35 59 91 59q89 0 89 -138v-253h30q27 0 27 -20t-27 -20h-104q-27 0 -27 20t27 20h30v248q0 54 -9.5 78.5t-40.5 24.5q-34 0 -60 -40.5t-26 -113.5v-197h29q28 0 28 -20t-28 -20h-103q-28 0 -28 20z M55 533q0 6 10 18q20 23 29.5 33.5t23.5 20t25 9.5q25 0 51 -44q9 -14 14 -14q15 0 54 52q6 6 12 6q7 0 13.5 -5.5t6.5 -14.5q0 -6 -9 -18q-20 -23 -29.5 -33.5t-23.5 -20t-25 -9.5q-25 0 -51 44q-8 14 -15 14q-15 0 -54 -52q-5 -6 -12 -6t-13.5 6t-6.5 14z" />
<glyph unicode="&#xf2;" d="M36 213q0 93 41.5 157.5t97.5 64.5t97.5 -65t41.5 -157q0 -93 -41.5 -156t-97.5 -63t-97.5 63t-41.5 156zM80 220q0 -77 27.5 -131.5t67.5 -54.5t67 54t27 132q0 75 -27.5 124.5t-66.5 49.5q-40 0 -67.5 -49.5t-27.5 -124.5zM102 599q0 10 6 17t14 7q10 0 29 -13l78 -58 q18 -13 18 -21q0 -27 -22 -27q-7 0 -15 6l-90 66q-18 14 -18 23z" />
<glyph unicode="&#xf3;" d="M36 213q0 93 41.5 157.5t97.5 64.5t97.5 -65t41.5 -157q0 -93 -41.5 -156t-97.5 -63t-97.5 63t-41.5 156zM80 220q0 -77 27.5 -131.5t67.5 -54.5t67 54t27 132q0 75 -27.5 124.5t-66.5 49.5q-40 0 -67.5 -49.5t-27.5 -124.5zM103 531q0 8 18 21l78 58q19 13 29 13 q8 0 14 -7t6 -17q0 -9 -18 -23l-90 -66q-8 -6 -15 -6q-22 0 -22 27z" />
<glyph unicode="&#xf4;" d="M36 213q0 93 41.5 157.5t97.5 64.5t97.5 -65t41.5 -157q0 -93 -41.5 -156t-97.5 -63t-97.5 63t-41.5 156zM73 527q0 7 12 19l74 68q15 13 30 0l74 -68q12 -12 12 -19q0 -20 -17 -20q-11 0 -20 8l-64 57l-64 -57q-9 -8 -20 -8q-17 0 -17 20zM80 220q0 -77 27.5 -131.5 t67.5 -54.5t67 54t27 132q0 75 -27.5 124.5t-66.5 49.5q-40 0 -67.5 -49.5t-27.5 -124.5z" />
<glyph unicode="&#xf5;" d="M36 213q0 93 41.5 157.5t97.5 64.5t97.5 -65t41.5 -157q0 -93 -41.5 -156t-97.5 -63t-97.5 63t-41.5 156zM55 533q0 6 10 18q20 23 29.5 33.5t23.5 20t25 9.5q25 0 51 -44q9 -14 14 -14q15 0 54 52q6 6 12 6q7 0 13.5 -5.5t6.5 -14.5q0 -6 -9 -18q-20 -23 -29.5 -33.5 t-23.5 -20t-25 -9.5q-25 0 -51 44q-8 14 -15 14q-15 0 -54 -52q-5 -6 -12 -6t-13.5 6t-6.5 14zM80 220q0 -77 27.5 -131.5t67.5 -54.5t67 54t27 132q0 75 -27.5 124.5t-66.5 49.5q-40 0 -67.5 -49.5t-27.5 -124.5z" />
<glyph unicode="&#xf6;" d="M36 213q0 93 41.5 157.5t97.5 64.5t97.5 -65t41.5 -157q0 -93 -41.5 -156t-97.5 -63t-97.5 63t-41.5 156zM80 220q0 -77 27.5 -131.5t67.5 -54.5t67 54t27 132q0 75 -27.5 124.5t-66.5 49.5q-40 0 -67.5 -49.5t-27.5 -124.5zM95 563q0 14 9 23.5t20 9.5q10 0 18.5 -9.5 t8.5 -23.5q0 -13 -8.5 -22t-18.5 -9q-11 0 -20 8.5t-9 22.5zM200 563q0 14 9 23.5t19 9.5t19 -9.5t9 -23.5q0 -13 -9 -22t-19 -9t-19 9t-9 22z" />
<glyph unicode="&#xf7;" d="M21 306q0 24 33 24h242q33 0 33 -24q0 -23 -30 -23h-248q-30 0 -30 23zM135 110q0 21 12 35t28 14q15 0 27 -14t12 -35q0 -20 -12 -34t-28 -14q-14 0 -26.5 14.5t-12.5 33.5zM135 502q0 21 12 35t28 14q15 0 27 -14t12 -35q0 -19 -12 -33.5t-28 -14.5q-14 0 -26.5 14.5 t-12.5 33.5z" />
<glyph unicode="&#xf8;" d="M25 213q0 91 44.5 156.5t105.5 65.5q32 0 58 -18l51 130q9 22 21 22q8 0 14 -6t6 -14q-12 -31 -34 -88t-27 -70q61 -80 61 -178q0 -92 -45 -155.5t-105 -63.5q-28 0 -58 17l-56 -141q-6 -13 -16 -13q-19 0 -19 20q0 5 10 27l51 132q-62 78 -62 177zM63 213q0 -87 39 -138 l118 306q-30 13 -45 13q-47 0 -79.5 -53.5t-32.5 -127.5zM131 48q24 -14 44 -14q47 0 79 52t32 127q0 85 -37 141z" />
<glyph unicode="&#xf9;" d="M5 405q0 20 28 20h46q16 0 22 -6.5t6 -25.5v-280q0 -14 0.5 -22t3.5 -20.5t8.5 -19t16.5 -12t27 -5.5q31 0 55.5 28t24.5 89v234h-30q-27 0 -27 20t27 20h47q16 0 21.5 -6t5.5 -26v-353h30q27 0 27 -20t-27 -20h-47q-8 0 -12.5 1t-10 10.5t-5.5 26.5q-37 -44 -84 -44 q-96 0 -96 114v277h-29q-28 0 -28 20zM102 599q0 10 6 17t14 7q10 0 29 -13l78 -58q18 -13 18 -21q0 -27 -22 -27q-7 0 -15 6l-90 66q-18 14 -18 23z" />
<glyph unicode="&#xfa;" d="M5 405q0 20 28 20h46q16 0 22 -6.5t6 -25.5v-280q0 -14 0.5 -22t3.5 -20.5t8.5 -19t16.5 -12t27 -5.5q31 0 55.5 28t24.5 89v234h-30q-27 0 -27 20t27 20h47q16 0 21.5 -6t5.5 -26v-353h30q27 0 27 -20t-27 -20h-47q-8 0 -12.5 1t-10 10.5t-5.5 26.5q-37 -44 -84 -44 q-96 0 -96 114v277h-29q-28 0 -28 20zM103 531q0 8 18 21l78 58q19 13 29 13q8 0 14 -7t6 -17q0 -9 -18 -23l-90 -66q-8 -6 -15 -6q-22 0 -22 27z" />
<glyph unicode="&#xfb;" d="M5 405q0 20 28 20h46q16 0 22 -6.5t6 -25.5v-280q0 -14 0.5 -22t3.5 -20.5t8.5 -19t16.5 -12t27 -5.5q31 0 55.5 28t24.5 89v234h-30q-27 0 -27 20t27 20h47q16 0 21.5 -6t5.5 -26v-353h30q27 0 27 -20t-27 -20h-47q-8 0 -12.5 1t-10 10.5t-5.5 26.5q-37 -44 -84 -44 q-96 0 -96 114v277h-29q-28 0 -28 20zM73 527q0 7 12 19l74 68q15 13 30 0l74 -68q12 -12 12 -19q0 -20 -17 -20q-11 0 -20 8l-64 57l-64 -57q-9 -8 -20 -8q-17 0 -17 20z" />
<glyph unicode="&#xfc;" d="M5 405q0 20 28 20h46q16 0 22 -6.5t6 -25.5v-280q0 -14 0.5 -22t3.5 -20.5t8.5 -19t16.5 -12t27 -5.5q31 0 55.5 28t24.5 89v234h-30q-27 0 -27 20t27 20h47q16 0 21.5 -6t5.5 -26v-353h30q27 0 27 -20t-27 -20h-47q-8 0 -12.5 1t-10 10.5t-5.5 26.5q-37 -44 -84 -44 q-96 0 -96 114v277h-29q-28 0 -28 20zM95 563q0 14 9 23.5t20 9.5q10 0 18.5 -9.5t8.5 -23.5q0 -13 -8.5 -22t-18.5 -9q-11 0 -20 8.5t-9 22.5zM200 563q0 14 9 23.5t19 9.5t19 -9.5t9 -23.5q0 -13 -9 -22t-19 -9t-19 9t-9 22z" />
<glyph unicode="&#xfd;" d="M12 405q0 20 29 20h77q28 0 28 -20t-28 -20h-21l84 -336l74 336h-22q-28 0 -28 20t28 20h77q29 0 29 -20t-29 -20h-18l-110 -479q-4 -18 -10 -36.5t-18 -45t-31 -43t-42 -16.5q-24 0 -40.5 21t-16.5 49q0 15 8 23.5t20 8.5q11 0 19 -8.5t8 -22.5q-3 -10 -10 -16 q1 -17 13 -17q19 0 35 27t22 55l24 105l-103 395h-19q-29 0 -29 20zM103 531q0 8 18 21l78 58q19 13 29 13q8 0 14 -7t6 -17q0 -9 -18 -23l-90 -66q-8 -6 -15 -6q-22 0 -22 27z" />
<glyph unicode="&#xfe;" d="M5 -209q0 20 28 20h29v760h-29q-28 0 -28 20t28 20h46q16 0 22 -6.5t6 -26.5v-203q36 56 90 56t93 -63.5t39 -154.5q0 -93 -41.5 -156t-97.5 -63q-48 0 -83 58v-241h29q28 0 28 -20t-28 -20h-103q-28 0 -28 20zM107 183q0 -50 20.5 -99.5t58.5 -49.5q40 0 69 51.5 t29 127.5q0 74 -26.5 126t-65.5 52q-35 0 -60 -39t-25 -87v-82z" />
<glyph unicode="&#xff;" d="M12 405q0 20 29 20h77q28 0 28 -20t-28 -20h-21l84 -336l74 336h-22q-28 0 -28 20t28 20h77q29 0 29 -20t-29 -20h-18l-110 -479q-4 -18 -10 -36.5t-18 -45t-31 -43t-42 -16.5q-24 0 -40.5 21t-16.5 49q0 15 8 23.5t20 8.5q11 0 19 -8.5t8 -22.5q-3 -10 -10 -16 q1 -17 13 -17q19 0 35 27t22 55l24 105l-103 395h-19q-29 0 -29 20zM95 563q0 14 9 23.5t20 9.5q10 0 18.5 -9.5t8.5 -23.5q0 -13 -8.5 -22t-18.5 -9q-11 0 -20 8.5t-9 22.5zM200 563q0 14 9 23.5t19 9.5t19 -9.5t9 -23.5q0 -13 -9 -22t-19 -9t-19 9t-9 22z" />
<glyph unicode="&#x100;" d="M14 20q0 9 6 14t12.5 5.5t20.5 0.5l87 549q4 23 11 29.5t25 6.5q14 0 22.5 -6.5t11.5 -29.5l87 -549q13 0 19.5 -0.5t13 -5.5t6.5 -14q0 -20 -29 -20h-67q-28 0 -28 20q0 9 6.5 14t13.5 5.5t21 0.5l-21 135h-114l-21 -135q14 0 21 -0.5t13.5 -5.5t6.5 -14q0 -20 -28 -20 h-68q-28 0 -28 20zM45 706q0 20 27 20h205q28 0 28 -21q0 -20 -28 -20h-204q-28 0 -28 21zM124 216h102l-51 349z" />
<glyph unicode="&#x101;" d="M34 119q0 76 80 115q48 23 126 27q0 28 -1 42t-7 32.5t-18 32.5q-23 26 -63 26q-18 0 -26 -1q-16 -2 -16 -15q-1 -38 -28 -38q-11 0 -19.5 8.5t-8.5 24.5q0 62 97 62q64 0 99 -45t35 -107v-234q14 -9 43 -9q28 0 28 -20t-33 -20q-61 0 -76 36q-42 -42 -103 -42 q-46 0 -77.5 36t-31.5 89zM45 564q0 20 27 20h205q28 0 28 -21q0 -20 -28 -20h-204q-28 0 -28 21zM79 119q0 -35 19.5 -60t52.5 -25q35 0 60 18q19 13 24 30.5t5 43.5v99q-67 0 -114 -30t-47 -76z" />
<glyph unicode="&#x102;" d="M14 20q0 9 6 14t12.5 5.5t20.5 0.5l87 549q4 23 11 29.5t25 6.5q14 0 22.5 -6.5t11.5 -29.5l87 -549q13 0 19.5 -0.5t13 -5.5t6.5 -14q0 -20 -29 -20h-67q-28 0 -28 20q0 9 6.5 14t13.5 5.5t21 0.5l-21 135h-114l-21 -135q14 0 21 -0.5t13.5 -5.5t6.5 -14q0 -20 -28 -20 h-68q-28 0 -28 20zM55 749q0 22 19 22q18 0 21 -24q1 -11 4.5 -16t21 -9.5t54.5 -4.5q42 0 60.5 5.5t19.5 21.5q5 27 20 27q20 0 20 -22q0 -26 -11.5 -42.5t-33.5 -22.5t-36.5 -7.5t-38.5 -1.5t-38.5 1.5t-36.5 7.5t-33.5 22.5t-11.5 42.5zM124 216h102l-51 349z" />
<glyph unicode="&#x103;" d="M34 119q0 76 80 115q48 23 126 27q0 28 -1 42t-7 32.5t-18 32.5q-23 26 -63 26q-18 0 -26 -1q-16 -2 -16 -15q-1 -38 -28 -38q-11 0 -19.5 8.5t-8.5 24.5q0 62 97 62q64 0 99 -45t35 -107v-234q14 -9 43 -9q28 0 28 -20t-33 -20q-61 0 -76 36q-42 -42 -103 -42 q-46 0 -77.5 36t-31.5 89zM55 590q0 22 19 22q18 0 21 -24q1 -11 4.5 -16t21 -9.5t54.5 -4.5q42 0 60.5 6t19.5 21q5 27 20 27q20 0 20 -22q0 -26 -11.5 -42.5t-33.5 -22.5t-36.5 -7.5t-38.5 -1.5t-38.5 1.5t-36.5 7.5t-33.5 22.5t-11.5 42.5zM79 119q0 -35 19.5 -60 t52.5 -25q35 0 60 18q19 13 24 30.5t5 43.5v99q-67 0 -114 -30t-47 -76z" />
<glyph unicode="&#x104;" d="M14 20q0 9 6 14t12.5 5.5t20.5 0.5l87 549q4 24 10.5 30t24.5 6q10 0 15.5 -1t11.5 -9.5t8 -25.5l87 -549q13 0 19.5 -0.5t13 -5.5t6.5 -14q0 -20 -29 -20h-10q-62 -53 -62 -123q0 -21 10 -35.5t22 -14.5q20 0 38 38q3 5 11.5 7.5t14.5 -2.5q8 -8 3 -18q-30 -62 -70 -62 q-29 0 -49 28t-20 61q0 59 61 121q-18 0 -25 0.5t-13 5t-6 14.5q0 9 6.5 14t13.5 5.5t21 0.5l-21 135h-114l-21 -135q14 0 21 -0.5t13.5 -5.5t6.5 -14q0 -20 -28 -20h-68q-28 0 -28 20zM124 216h102l-51 343z" />
<glyph unicode="&#x105;" d="M34 119q0 76 80 115q48 23 126 27q0 28 -1 42t-7 32.5t-18 32.5q-23 26 -63 26q-18 0 -26 -1q-16 -2 -16 -15q-1 -38 -28 -38q-11 0 -19.5 8.5t-8.5 24.5q0 62 97 62q64 0 99 -45t35 -107v-234q14 -9 43 -9q28 0 28 -20t-39 -20q-64 -54 -64 -123q0 -21 10 -35.5 t22 -14.5q20 0 38 38q3 5 11 7t14 -2q9 -9 4 -18q-13 -27 -32 -44.5t-38 -17.5q-29 0 -49 28t-20 61q0 63 66 126q-25 15 -32 31q-42 -42 -103 -42q-46 0 -77.5 36t-31.5 89zM79 119q0 -35 19.5 -60t52.5 -25q35 0 60 18q19 13 24 30.5t5 43.5v99q-67 0 -114 -30t-47 -76z " />
<glyph unicode="&#x106;" d="M23 306q0 133 49 225t116 92q50 0 91 -52l10 34q5 18 18 18q20 0 20 -29v-150q0 -29 -23 -29q-11 0 -16 6t-6 22q-7 67 -33 103.5t-57 36.5q-51 0 -87.5 -79.5t-36.5 -197.5q0 -119 37 -198.5t88 -79.5q6 0 13.5 1.5t21 9.5t24 22t19.5 41t11 64q1 21 22 21q23 0 23 -22 q0 -68 -40.5 -122.5t-98.5 -54.5q-66 0 -115.5 91.5t-49.5 226.5zM113 702q0 8 18 21l78 58q19 13 29 13q8 0 14 -7t6 -17t-18 -23l-90 -66q-8 -6 -15 -6q-22 0 -22 27z" />
<glyph unicode="&#x107;" d="M47 213q0 34 9 70.5t26.5 71.5t49.5 57.5t73 22.5q101 0 101 -62q0 -16 -8.5 -24.5t-19.5 -8.5q-25 0 -28 38q0 11 -6 13q-18 3 -40 3q-34 0 -58 -20t-35 -51t-15.5 -58t-4.5 -52q0 -75 32 -127t79 -52q49 0 69 71q5 15 20 15q23 0 23 -17q0 -8 -6 -24t-18.5 -36 t-37.5 -34.5t-56 -14.5q-62 0 -105.5 64t-43.5 155zM113 531q0 8 18 21l78 58q19 13 29 13q8 0 14 -7t6 -17q0 -9 -18 -23l-90 -66q-8 -6 -15 -6q-22 0 -22 27z" />
<glyph unicode="&#x108;" d="M23 306q0 133 49 225t116 92q50 0 91 -52l10 34q5 18 18 18q20 0 20 -29v-150q0 -29 -23 -29q-11 0 -16 6t-6 22q-7 67 -33 103.5t-57 36.5q-51 0 -87.5 -79.5t-36.5 -197.5q0 -119 37 -198.5t88 -79.5q6 0 13.5 1.5t21 9.5t24 22t19.5 41t11 64q1 21 22 21q23 0 23 -22 q0 -68 -40.5 -122.5t-98.5 -54.5q-66 0 -115.5 91.5t-49.5 226.5zM88 683q0 15 9 19l74 40q14 8 28 0l74 -40q9 -4 9 -19q0 -17 -15 -17q-12 0 -18 3l-64 29l-64 -29q-7 -3 -18 -3q-15 0 -15 17z" />
<glyph unicode="&#x109;" d="M47 213q0 34 9 70.5t26.5 71.5t49.5 57.5t73 22.5q101 0 101 -62q0 -16 -8.5 -24.5t-19.5 -8.5q-25 0 -28 38q0 11 -6 13q-18 3 -40 3q-34 0 -58 -20t-35 -51t-15.5 -58t-4.5 -52q0 -75 32 -127t79 -52q49 0 69 71q5 15 20 15q23 0 23 -17q0 -8 -6 -24t-18.5 -36 t-37.5 -34.5t-56 -14.5q-62 0 -105.5 64t-43.5 155zM83 527q0 7 12 19l74 68q15 13 30 0l74 -68q12 -12 12 -19q0 -20 -17 -20q-11 0 -20 8l-64 57l-64 -57q-9 -8 -20 -8q-17 0 -17 20z" />
<glyph unicode="&#x10a;" d="M23 306q0 133 49 225t116 92q50 0 91 -52l10 34q5 18 18 18q20 0 20 -29v-150q0 -29 -23 -29q-11 0 -16 6t-6 22q-7 67 -33 103.5t-57 36.5q-51 0 -87.5 -79.5t-36.5 -197.5q0 -119 37 -198.5t88 -79.5q6 0 13.5 1.5t21 9.5t24 22t19.5 41t11 64q1 21 22 21q23 0 23 -22 q0 -68 -40.5 -122.5t-98.5 -54.5q-66 0 -115.5 91.5t-49.5 226.5zM154 714q0 16 9.5 26.5t21.5 10.5t21.5 -10.5t9.5 -26.5t-9.5 -26.5t-21.5 -10.5t-21.5 10.5t-9.5 26.5z" />
<glyph unicode="&#x10b;" d="M47 213q0 34 9 70.5t26.5 71.5t49.5 57.5t73 22.5q101 0 101 -62q0 -16 -8.5 -24.5t-19.5 -8.5q-25 0 -28 38q0 11 -6 13q-18 3 -40 3q-34 0 -58 -20t-35 -51t-15.5 -58t-4.5 -52q0 -75 32 -127t79 -52q49 0 69 71q5 15 20 15q23 0 23 -17q0 -8 -6 -24t-18.5 -36 t-37.5 -34.5t-56 -14.5q-62 0 -105.5 64t-43.5 155zM154 564q0 16 9.5 26.5t21.5 10.5t21.5 -10.5t9.5 -26.5t-9.5 -26.5t-21.5 -10.5t-21.5 10.5t-9.5 26.5z" />
<glyph unicode="&#x10c;" d="M23 306q0 133 49 225t116 92q50 0 91 -52l10 34q5 18 18 18q20 0 20 -29v-150q0 -29 -23 -29q-11 0 -16 6t-6 22q-7 67 -33 103.5t-57 36.5q-51 0 -87.5 -79.5t-36.5 -197.5q0 -119 37 -198.5t88 -79.5q6 0 13.5 1.5t21 9.5t24 22t19.5 41t11 64q1 21 22 21q23 0 23 -22 q0 -68 -40.5 -122.5t-98.5 -54.5q-66 0 -115.5 91.5t-49.5 226.5zM88 729q0 17 15 17q12 0 18 -3l64 -29l64 29q7 3 18 3q15 0 15 -17q0 -15 -9 -19l-74 -40q-14 -8 -28 0l-74 40q-9 4 -9 19z" />
<glyph unicode="&#x10d;" d="M47 213q0 34 9 70.5t26.5 71.5t49.5 57.5t73 22.5q101 0 101 -62q0 -16 -8.5 -24.5t-19.5 -8.5q-25 0 -28 38q0 11 -6 13q-18 3 -40 3q-34 0 -58 -20t-35 -51t-15.5 -58t-4.5 -52q0 -75 32 -127t79 -52q49 0 69 71q5 15 20 15q23 0 23 -17q0 -8 -6 -24t-18.5 -36 t-37.5 -34.5t-56 -14.5q-62 0 -105.5 64t-43.5 155zM83 600q0 20 17 20q11 0 20 -8l64 -57l64 57q9 8 20 8q17 0 17 -20q0 -7 -12 -19l-74 -68q-15 -13 -30 0l-74 68q-12 12 -12 19z" />
<glyph unicode="&#x10e;" d="M10 20q0 20 28 20h14v531h-14q-28 0 -28 20t28 20h139q66 0 108.5 -93t42.5 -218q0 -122 -42.5 -211t-107.5 -89h-140q-28 0 -28 20zM34 729q0 17 15 17q12 0 18 -3l64 -29l64 29q7 3 18 3q15 0 15 -17q0 -15 -9 -19l-74 -40q-14 -8 -28 0l-74 40q-9 4 -9 19zM97 40h68 q56 0 87 78t31 183q0 65 -11.5 124t-39.5 102.5t-68 43.5h-67v-531z" />
<glyph unicode="&#x10f;" d="M21 212q0 93 41.5 156t96.5 63q47 0 84 -52v192h-30q-27 0 -27 20t27 20h47q15 0 21 -6.5t6 -26.5v-538h30q27 0 27 -20t-27 -20h-47q-18 0 -22.5 10.5t-4.5 47.5q-37 -64 -90 -64t-92.5 63.5t-39.5 154.5zM65 212q0 -74 26.5 -126t65.5 -52t62.5 49.5t23.5 102.5v81 q0 46 -22.5 85t-56.5 39q-41 0 -70 -51t-29 -128zM313 450l1 4q26 14 37.5 35.5t15.5 58.5l-12 -5q-12 0 -20.5 9.5t-8.5 25.5q0 13 8.5 23t20.5 10q16 0 28 -18t12 -45q0 -36 -14.5 -63.5t-28.5 -38t-23 -10.5q-5 0 -10.5 4t-5.5 10z" />
<glyph unicode="&#x110;" d="M10 20q0 20 28 20h14v246h-20q-7 0 -13.5 5.5t-6.5 14.5t6.5 14.5t13.5 5.5h20v245h-14q-28 0 -28 20t28 20h139q66 0 108.5 -93t42.5 -218q0 -122 -42.5 -211t-107.5 -89h-140q-28 0 -28 20zM97 40h68q56 0 87 78t31 183q0 65 -11.5 124t-39.5 102.5t-68 43.5h-67v-245 h42q7 0 13.5 -5.5t6.5 -14.5t-6.5 -14.5t-13.5 -5.5h-42v-246z" />
<glyph unicode="&#x111;" d="M21 212q0 93 41.5 156t96.5 63q47 0 84 -52v99h-104q-7 0 -13.5 5.5t-6.5 14.5t6.5 14.5t13.5 5.5h104v53h-30q-27 0 -27 20t27 20h47q15 0 21 -6.5t6 -26.5v-60h35q7 0 13.5 -5.5t6.5 -14.5t-6.5 -14.5t-13.5 -5.5h-35v-438h30q27 0 27 -20t-27 -20h-47 q-18 0 -22.5 10.5t-4.5 47.5q-37 -64 -90 -64t-92.5 63.5t-39.5 154.5zM65 212q0 -74 26.5 -126t65.5 -52t62.5 49.5t23.5 102.5v81q0 46 -22.5 85t-56.5 39q-41 0 -70 -51t-29 -128z" />
<glyph unicode="&#x112;" d="M15 20q0 20 28 20h19v531h-19q-28 0 -28 20t28 20h254q16 0 22 -6.5t6 -26.5v-68q0 -32 -23 -32q-22 0 -22 32v61h-173v-234h94q0 32 4 44t18 12q22 0 22 -32v-87q0 -32 -22 -32q-14 0 -18 11.5t-4 43.5h-94v-257h188v76q0 33 23 33q22 0 22 -33v-83q0 -20 -6 -26.5 t-22 -6.5h-269q-28 0 -28 20zM45 706q0 20 27 20h205q28 0 28 -21q0 -20 -28 -20h-204q-28 0 -28 21z" />
<glyph unicode="&#x113;" d="M34 215q0 91 43.5 155.5t102.5 64.5q62 0 98 -59t36 -149q0 -13 -5 -20t-9.5 -8t-13.5 -1h-207q7 -73 38.5 -118.5t75.5 -45.5q57 0 77 65q3 13 7.5 18t13.5 5q12 0 17.5 -6.5t5.5 -12.5q0 -29 -33 -69t-90 -40q-64 0 -110.5 64t-46.5 157zM45 564q0 20 27 20h205 q28 0 28 -21q0 -20 -28 -20h-204q-28 0 -28 21zM79 235h190q-7 159 -89 159q-35 0 -64 -41.5t-37 -117.5z" />
<glyph unicode="&#x114;" d="M15 20q0 20 28 20h19v531h-19q-28 0 -28 20t28 20h254q16 0 22 -6.5t6 -26.5v-68q0 -32 -23 -32q-22 0 -22 32v61h-173v-234h94q0 32 4 44t18 12q22 0 22 -32v-87q0 -32 -22 -32q-14 0 -18 11.5t-4 43.5h-94v-257h188v76q0 33 23 33q22 0 22 -33v-83q0 -20 -6 -26.5 t-22 -6.5h-269q-28 0 -28 20zM55 749q0 22 19 22q18 0 21 -24q1 -11 4.5 -16t21 -9.5t54.5 -4.5q42 0 60.5 5.5t19.5 21.5q5 27 20 27q20 0 20 -22q0 -26 -11.5 -42.5t-33.5 -22.5t-36.5 -7.5t-38.5 -1.5t-38.5 1.5t-36.5 7.5t-33.5 22.5t-11.5 42.5z" />
<glyph unicode="&#x115;" d="M34 215q0 91 43.5 155.5t102.5 64.5q62 0 98 -59t36 -149q0 -13 -5 -20t-9.5 -8t-13.5 -1h-207q7 -73 38.5 -118.5t75.5 -45.5q57 0 77 65q3 13 7.5 18t13.5 5q12 0 17.5 -6.5t5.5 -12.5q0 -29 -33 -69t-90 -40q-64 0 -110.5 64t-46.5 157zM55 590q0 22 19 22 q18 0 21 -24q1 -11 4.5 -16t21 -9.5t54.5 -4.5q42 0 60.5 6t19.5 21q5 27 20 27q20 0 20 -22q0 -26 -11.5 -42.5t-33.5 -22.5t-36.5 -7.5t-38.5 -1.5t-38.5 1.5t-36.5 7.5t-33.5 22.5t-11.5 42.5zM79 235h190q-7 159 -89 159q-35 0 -64 -41.5t-37 -117.5z" />
<glyph unicode="&#x116;" d="M15 20q0 20 28 20h19v531h-19q-28 0 -28 20t28 20h254q16 0 22 -6.5t6 -26.5v-68q0 -32 -23 -32q-22 0 -22 32v61h-173v-234h94q0 32 4 44t18 12q22 0 22 -32v-87q0 -32 -22 -32q-14 0 -18 11.5t-4 43.5h-94v-257h188v76q0 33 23 33q22 0 22 -33v-83q0 -20 -6 -26.5 t-22 -6.5h-269q-28 0 -28 20zM144 714q0 16 9.5 26.5t21.5 10.5t21.5 -10.5t9.5 -26.5t-9.5 -26.5t-21.5 -10.5t-21.5 10.5t-9.5 26.5z" />
<glyph unicode="&#x117;" d="M34 215q0 91 43.5 155.5t102.5 64.5q62 0 98 -59t36 -149q0 -13 -5 -20t-9.5 -8t-13.5 -1h-207q7 -73 38.5 -118.5t75.5 -45.5q57 0 77 65q3 13 7.5 18t13.5 5q12 0 17.5 -6.5t5.5 -12.5q0 -29 -33 -69t-90 -40q-64 0 -110.5 64t-46.5 157zM79 235h190q-7 159 -89 159 q-35 0 -64 -41.5t-37 -117.5zM144 564q0 16 9.5 26.5t21.5 10.5t21.5 -10.5t9.5 -26.5t-9.5 -26.5t-21.5 -10.5t-21.5 10.5t-9.5 26.5z" />
<glyph unicode="&#x118;" d="M15 20q0 20 28 20h19v531h-19q-28 0 -28 20t28 20h254q16 0 22 -6.5t6 -26.5v-68q0 -32 -23 -32q-22 0 -22 32v61h-173v-234h94q0 32 4 44t18 12q22 0 22 -32v-87q0 -32 -22 -32q-14 0 -18 11.5t-4 43.5h-94v-257h188v76q0 33 23 33q22 0 22 -33v-83q0 -20 -6 -26.5 t-22 -6.5h-14q-61 -53 -61 -123q0 -21 9.5 -35.5t21.5 -14.5q20 0 38 38q3 5 11.5 7.5t14.5 -2.5q9 -9 4 -18q-30 -62 -71 -62q-29 0 -49 28t-20 61q0 63 62 121h-215q-28 0 -28 20z" />
<glyph unicode="&#x119;" d="M34 215q0 91 43.5 155.5t102.5 64.5q62 0 98 -59t36 -149q0 -13 -5 -20t-9.5 -8t-13.5 -1h-207q7 -73 38.5 -118.5t75.5 -45.5q57 0 77 65q3 13 7.5 18t13.5 5q12 0 17.5 -6.5t5.5 -12.5q0 -5 -19 -50q-9 -21 -45.5 -53t-38.5 -34q-37 -41 -37 -89q0 -21 9.5 -35.5 t21.5 -14.5q20 0 38 38q3 5 11.5 7.5t14.5 -2.5q9 -9 3 -18q-30 -62 -70 -62q-29 0 -49 28t-20 61t13 58t45 55q-70 12 -113.5 73.5t-43.5 149.5zM79 235h190q-7 159 -89 159q-35 0 -64 -41.5t-37 -117.5z" />
<glyph unicode="&#x11a;" d="M15 20q0 20 28 20h19v531h-19q-28 0 -28 20t28 20h254q16 0 22 -6.5t6 -26.5v-68q0 -32 -23 -32q-22 0 -22 32v61h-173v-234h94q0 32 4 44t18 12q22 0 22 -32v-87q0 -32 -22 -32q-14 0 -18 11.5t-4 43.5h-94v-257h188v76q0 33 23 33q22 0 22 -33v-83q0 -20 -6 -26.5 t-22 -6.5h-269q-28 0 -28 20zM78 729q0 17 15 17q12 0 18 -3l64 -29l64 29q7 3 18 3q15 0 15 -17q0 -15 -9 -19l-74 -40q-14 -8 -28 0l-74 40q-9 4 -9 19z" />
<glyph unicode="&#x11b;" d="M34 215q0 91 43.5 155.5t102.5 64.5q62 0 98 -59t36 -149q0 -13 -5 -20t-9.5 -8t-13.5 -1h-207q7 -73 38.5 -118.5t75.5 -45.5q57 0 77 65q3 13 7.5 18t13.5 5q12 0 17.5 -6.5t5.5 -12.5q0 -29 -33 -69t-90 -40q-64 0 -110.5 64t-46.5 157zM73 600q0 20 17 20q11 0 20 -8 l64 -57l64 57q9 8 20 8q17 0 17 -20q0 -7 -12 -19l-74 -68q-15 -13 -30 0l-74 68q-12 12 -12 19zM79 235h190q-7 159 -89 159q-35 0 -64 -41.5t-37 -117.5z" />
<glyph unicode="&#x11c;" d="M21 306q0 135 45.5 226t107.5 91q46 0 82 -49l9 33q10 16 19 16q19 0 19 -29v-150q0 -29 -23 -29q-20 0 -22 24q-6 73 -29 108.5t-51 35.5q-45 0 -79 -79.5t-34 -198.5q0 -118 33.5 -197.5t78.5 -79.5q39 0 58 57.5t23 133.5h-30q-28 0 -28 20t28 20h79q28 0 28 -20 t-32 -20v-190q0 -31 -22 -31q-14 0 -18.5 10.5t-4.5 36.5q-35 -57 -84 -57q-62 0 -107.5 91t-45.5 227zM78 683q0 15 9 19l74 40q14 8 28 0l74 -40q9 -4 9 -19q0 -17 -15 -17q-12 0 -18 3l-64 29l-64 -29q-7 -3 -18 -3q-15 0 -15 17z" />
<glyph unicode="&#x11d;" d="M15 -95q0 75 60 123q-25 44 -25 78q0 28 20 73q-27 52 -27 98q0 64 33 109t79 45q36 0 67 -32q33 39 74 39q24 0 36.5 -14t12.5 -30q0 -17 -8.5 -23.5t-17.5 -6.5q-2 0 -6 1t-10.5 9.5t-8.5 22.5q-25 -3 -52 -23q25 -56 25 -97q0 -64 -33 -109t-80 -45q-36 0 -62 28 q-5 -14 -5 -42q0 -66 41 -66h59q13 0 24.5 -1t36.5 -8t41.5 -20.5t30.5 -41.5t14 -67q0 -62 -46.5 -101.5t-112.5 -39.5q-67 0 -113.5 40t-46.5 101zM53 527q0 7 12 19l74 68q15 13 30 0l74 -68q12 -12 12 -19q0 -20 -17 -20q-11 0 -20 8l-64 57l-64 -57q-9 -8 -20 -8 q-17 0 -17 20zM54 -95q0 -40 34.5 -71.5t86.5 -31.5t86 31.5t34 71.5q0 33 -12 55t-34.5 31t-42.5 11.5t-50 2.5q-38 0 -49 -2t-23 -13q-30 -28 -30 -85zM87 277q0 -49 19.5 -82.5t47.5 -33.5q29 0 48.5 34t19.5 82t-19.5 82t-48.5 34q-27 0 -47 -34t-20 -82z" />
<glyph unicode="&#x11e;" d="M21 306q0 135 45.5 226t107.5 91q46 0 82 -49l9 33q10 16 19 16q19 0 19 -29v-150q0 -29 -23 -29q-20 0 -22 24q-6 73 -29 108.5t-51 35.5q-45 0 -79 -79.5t-34 -198.5q0 -118 33.5 -197.5t78.5 -79.5q39 0 58 57.5t23 133.5h-30q-28 0 -28 20t28 20h79q28 0 28 -20 t-32 -20v-190q0 -31 -22 -31q-14 0 -18.5 10.5t-4.5 36.5q-35 -57 -84 -57q-62 0 -107.5 91t-45.5 227zM55 749q0 22 19 22q18 0 21 -24q1 -11 4.5 -16t21 -9.5t54.5 -4.5q42 0 60.5 5.5t19.5 21.5q5 27 20 27q20 0 20 -22q0 -26 -11.5 -42.5t-33.5 -22.5t-36.5 -7.5 t-38.5 -1.5t-38.5 1.5t-36.5 7.5t-33.5 22.5t-11.5 42.5z" />
<glyph unicode="&#x11f;" d="M15 -95q0 75 60 123q-25 44 -25 78q0 28 20 73q-27 52 -27 98q0 64 33 109t79 45q36 0 67 -32q33 39 74 39q24 0 36.5 -14t12.5 -30q0 -17 -8.5 -23.5t-17.5 -6.5q-2 0 -6 1t-10.5 9.5t-8.5 22.5q-25 -3 -52 -23q25 -56 25 -97q0 -64 -33 -109t-80 -45q-36 0 -62 28 q-5 -14 -5 -42q0 -66 41 -66h59q13 0 24.5 -1t36.5 -8t41.5 -20.5t30.5 -41.5t14 -67q0 -62 -46.5 -101.5t-112.5 -39.5q-67 0 -113.5 40t-46.5 101zM35 590q0 22 19 22q18 0 21 -24q1 -11 4.5 -16t21 -9.5t54.5 -4.5q42 0 60.5 6t19.5 21q5 27 20 27q20 0 20 -22 q0 -26 -11.5 -42.5t-33.5 -22.5t-36.5 -7.5t-38.5 -1.5t-38.5 1.5t-36.5 7.5t-33.5 22.5t-11.5 42.5zM54 -95q0 -40 34.5 -71.5t86.5 -31.5t86 31.5t34 71.5q0 33 -12 55t-34.5 31t-42.5 11.5t-50 2.5q-38 0 -49 -2t-23 -13q-30 -28 -30 -85zM87 277q0 -49 19.5 -82.5 t47.5 -33.5q29 0 48.5 34t19.5 82t-19.5 82t-48.5 34q-27 0 -47 -34t-20 -82z" />
<glyph unicode="&#x120;" d="M21 306q0 135 45.5 226t107.5 91q46 0 82 -49l9 33q10 16 19 16q19 0 19 -29v-150q0 -29 -23 -29q-20 0 -22 24q-6 73 -29 108.5t-51 35.5q-45 0 -79 -79.5t-34 -198.5q0 -118 33.5 -197.5t78.5 -79.5q39 0 58 57.5t23 133.5h-30q-28 0 -28 20t28 20h79q28 0 28 -20 t-32 -20v-190q0 -31 -22 -31q-14 0 -18.5 10.5t-4.5 36.5q-35 -57 -84 -57q-62 0 -107.5 91t-45.5 227zM144 714q0 16 9.5 26.5t21.5 10.5t21.5 -10.5t9.5 -26.5t-9.5 -26.5t-21.5 -10.5t-21.5 10.5t-9.5 26.5z" />
<glyph unicode="&#x121;" d="M15 -95q0 75 60 123q-25 44 -25 78q0 28 20 73q-27 52 -27 98q0 64 33 109t79 45q36 0 67 -32q33 39 74 39q24 0 36.5 -14t12.5 -30q0 -17 -8.5 -23.5t-17.5 -6.5q-2 0 -6 1t-10.5 9.5t-8.5 22.5q-25 -3 -52 -23q25 -56 25 -97q0 -64 -33 -109t-80 -45q-36 0 -62 28 q-5 -14 -5 -42q0 -66 41 -66h59q13 0 24.5 -1t36.5 -8t41.5 -20.5t30.5 -41.5t14 -67q0 -62 -46.5 -101.5t-112.5 -39.5q-67 0 -113.5 40t-46.5 101zM54 -95q0 -40 34.5 -71.5t86.5 -31.5t86 31.5t34 71.5q0 33 -12 55t-34.5 31t-42.5 11.5t-50 2.5q-38 0 -49 -2t-23 -13 q-30 -28 -30 -85zM87 277q0 -49 19.5 -82.5t47.5 -33.5q29 0 48.5 34t19.5 82t-19.5 82t-48.5 34q-27 0 -47 -34t-20 -82zM124 564q0 16 9.5 26.5t21.5 10.5t21.5 -10.5t9.5 -26.5t-9.5 -26.5t-21.5 -10.5t-21.5 10.5t-9.5 26.5z" />
<glyph unicode="&#x122;" d="M21 306q0 135 45.5 226t107.5 91q46 0 82 -49l9 33q10 16 19 16q19 0 19 -29v-150q0 -29 -23 -29q-20 0 -22 24q-6 73 -29 108.5t-51 35.5q-45 0 -79 -79.5t-34 -198.5q0 -118 33.5 -197.5t78.5 -79.5q39 0 58 57.5t23 133.5h-30q-28 0 -28 20t28 20h79q28 0 28 -20 t-32 -20v-190q0 -31 -22 -31q-14 0 -18.5 10.5t-4.5 36.5q-35 -57 -84 -57q-62 0 -107.5 91t-45.5 227zM134 -218l1 4q26 14 37.5 35.5t15.5 58.5l-12 -5q-12 0 -20.5 9.5t-8.5 25.5q0 13 8.5 23t20.5 10q16 0 28 -18t12 -45q0 -36 -14.5 -63.5t-28.5 -38t-23 -10.5 q-5 0 -10.5 4t-5.5 10z" />
<glyph unicode="&#x123;" d="M15 -95q0 75 60 123q-25 44 -25 78q0 28 20 73q-27 52 -27 98q0 64 33 109t79 45q36 0 67 -32q33 39 74 39q24 0 36.5 -14t12.5 -30q0 -17 -8.5 -23.5t-17.5 -6.5q-2 0 -6 1t-10.5 9.5t-8.5 22.5q-25 -3 -52 -23q25 -56 25 -97q0 -64 -33 -109t-80 -45q-36 0 -62 28 q-5 -14 -5 -42q0 -66 41 -66h59q13 0 24.5 -1t36.5 -8t41.5 -20.5t30.5 -41.5t14 -67q0 -62 -46.5 -101.5t-112.5 -39.5q-67 0 -113.5 40t-46.5 101zM54 -95q0 -40 34.5 -71.5t86.5 -31.5t86 31.5t34 71.5q0 33 -12 55t-34.5 31t-42.5 11.5t-50 2.5q-38 0 -49 -2t-23 -13 q-30 -28 -30 -85zM87 277q0 -49 19.5 -82.5t47.5 -33.5q29 0 48.5 34t19.5 82t-19.5 82t-48.5 34q-27 0 -47 -34t-20 -82zM114 552q0 36 14.5 63.5t28.5 38t23 10.5q5 0 10.5 -4t5.5 -10l-1 -4q-26 -14 -37.5 -35.5t-15.5 -58.5l12 5q12 0 20.5 -9.5t8.5 -25.5 q0 -13 -8.5 -23t-20.5 -10q-16 0 -28 18t-12 45z" />
<glyph unicode="&#x124;" d="M12 20q0 20 27 20h16v531h-16q-27 0 -27 20t27 20h77q28 0 28 -20t-28 -20h-16v-232h150v232h-16q-28 0 -28 20t28 20h76q28 0 28 -20t-28 -20h-16v-531h16q28 0 28 -20t-28 -20h-76q-28 0 -28 20t28 20h16v258h-150v-258h16q28 0 28 -20t-28 -20h-77q-27 0 -27 20z M78 683q0 15 9 19l74 40q14 8 28 0l74 -40q9 -4 9 -19q0 -17 -15 -17q-12 0 -18 3l-64 29l-64 -29q-7 -3 -18 -3q-15 0 -15 17z" />
<glyph unicode="&#x125;" d="M5 20q0 20 28 20h29v531h-29q-28 0 -28 20t28 20h46q16 0 22 -6.5t6 -26.5v-206q35 59 91 59q89 0 89 -138v-253h30q27 0 27 -20t-27 -20h-104q-27 0 -27 20t27 20h30v248q0 54 -9.5 78.5t-40.5 24.5q-34 0 -60 -40.5t-26 -113.5v-197h29q28 0 28 -20t-28 -20h-103 q-28 0 -28 20zM78 683q0 15 9 19l74 40q14 8 28 0l74 -40q9 -4 9 -19q0 -17 -15 -17q-12 0 -18 3l-64 29l-64 -29q-7 -3 -18 -3q-15 0 -15 17z" />
<glyph unicode="&#x126;" d="M12 20q0 20 27 20h16v403h-21q-7 0 -13.5 5.5t-6.5 14.5t6.5 14.5t13.5 5.5h21v88h-16q-27 0 -27 20t27 20h77q28 0 28 -20t-28 -20h-16v-88h150v88h-16q-28 0 -28 20t28 20h76q28 0 28 -20t-28 -20h-16v-88h22q7 0 13.5 -5.5t6.5 -14.5t-6.5 -14.5t-13.5 -5.5h-22v-403 h16q28 0 28 -20t-28 -20h-76q-28 0 -28 20t28 20h16v258h-150v-258h16q28 0 28 -20t-28 -20h-77q-27 0 -27 20zM100 339h150v104h-150v-104z" />
<glyph unicode="&#x127;" d="M5 20q0 20 28 20h29v438h-35q-7 0 -13 5.5t-6 14.5t6 14.5t13 5.5h35v53h-29q-28 0 -28 20t28 20h46q16 0 22 -6.5t6 -26.5v-60h68q7 0 13.5 -5.5t6.5 -14.5t-6.5 -14.5t-13.5 -5.5h-68v-106q35 59 91 59q89 0 89 -138v-253h30q27 0 27 -20t-27 -20h-104q-27 0 -27 20 t27 20h30v248q0 54 -9.5 78.5t-40.5 24.5q-34 0 -60 -40.5t-26 -113.5v-197h29q28 0 28 -20t-28 -20h-103q-28 0 -28 20z" />
<glyph unicode="&#x128;" d="M53 20q0 20 28 20h72v531h-72q-28 0 -28 20t28 20h189q27 0 27 -20t-27 -20h-73v-531h73q27 0 27 -20t-27 -20h-189q-28 0 -28 20zM55 685q0 5 10 18q20 23 29.5 33.5t23.5 20t25 9.5q25 0 51 -44q8 -14 14 -14q15 0 54 52q6 6 12 6q7 0 13.5 -5.5t6.5 -14.5q0 -8 -9 -18 q-20 -23 -29.5 -33.5t-23.5 -20t-25 -9.5q-25 0 -51 44q-9 14 -15 14q-15 0 -54 -52q-5 -6 -12 -6t-13.5 6t-6.5 14z" />
<glyph unicode="&#x129;" d="M52 20q0 20 29 20h80v345h-75q-28 0 -28 20t28 20h92q16 0 22 -6.5t6 -25.5v-353h70q27 0 27 -20t-27 -20h-195q-29 0 -29 20zM55 533q0 6 10 18q20 23 29.5 33.5t23.5 20t25 9.5q25 0 51 -44q9 -14 14 -14q15 0 54 52q6 6 12 6q7 0 13.5 -5.5t6.5 -14.5q0 -6 -9 -18 q-20 -23 -29.5 -33.5t-23.5 -20t-25 -9.5q-25 0 -51 44q-8 14 -15 14q-15 0 -54 -52q-5 -6 -12 -6t-13.5 6t-6.5 14z" />
<glyph unicode="&#x12a;" d="M45 706q0 20 27 20h205q28 0 28 -21q0 -20 -28 -20h-204q-28 0 -28 21zM53 20q0 20 28 20h72v531h-72q-28 0 -28 20t28 20h189q27 0 27 -20t-27 -20h-73v-531h73q27 0 27 -20t-27 -20h-189q-28 0 -28 20z" />
<glyph unicode="&#x12b;" d="M45 564q0 20 27 20h205q28 0 28 -21q0 -20 -28 -20h-204q-28 0 -28 21zM52 20q0 20 29 20h80v345h-75q-28 0 -28 20t28 20h92q16 0 22 -6.5t6 -25.5v-353h70q27 0 27 -20t-27 -20h-195q-29 0 -29 20z" />
<glyph unicode="&#x12c;" d="M53 20q0 20 28 20h72v531h-72q-28 0 -28 20t28 20h189q27 0 27 -20t-27 -20h-73v-531h73q27 0 27 -20t-27 -20h-189q-28 0 -28 20zM55 749q0 22 19 22q18 0 21 -24q1 -11 4.5 -16t21 -9.5t54.5 -4.5q42 0 60.5 5.5t19.5 21.5q5 27 20 27q20 0 20 -22q0 -26 -11.5 -42.5 t-33.5 -22.5t-36.5 -7.5t-38.5 -1.5t-38.5 1.5t-36.5 7.5t-33.5 22.5t-11.5 42.5z" />
<glyph unicode="&#x12d;" d="M52 20q0 20 29 20h80v345h-75q-28 0 -28 20t28 20h92q16 0 22 -6.5t6 -25.5v-353h70q27 0 27 -20t-27 -20h-195q-29 0 -29 20zM55 590q0 22 19 22q18 0 21 -24q1 -11 4.5 -16t21 -9.5t54.5 -4.5q42 0 60.5 6t19.5 21q5 27 20 27q20 0 20 -22q0 -26 -11.5 -42.5 t-33.5 -22.5t-36.5 -7.5t-38.5 -1.5t-38.5 1.5t-36.5 7.5t-33.5 22.5t-11.5 42.5z" />
<glyph unicode="&#x12e;" d="M53 20q0 20 28 20h72v531h-72q-28 0 -28 20t28 20h189q27 0 27 -20t-27 -20h-73v-531h73q27 0 27 -20t-27 -20h-61q-58 -52 -58 -123q0 -21 10 -35.5t22 -14.5q10 0 20.5 12t16.5 26q4 5 12.5 7t13.5 -2q8 -10 4 -18q-13 -27 -32 -44.5t-38 -17.5q-30 0 -49.5 27.5 t-19.5 61.5q0 54 55 121h-85q-28 0 -28 20z" />
<glyph unicode="&#x12f;" d="M52 20q0 20 29 20h80v345h-75q-28 0 -28 20t28 20h92q16 0 22 -6.5t6 -25.5v-353h70q27 0 27 -20t-27 -20h-76q-55 -49 -55 -123q0 -21 9.5 -35.5t21.5 -14.5q20 0 38 38q3 5 12 7t14 -2q8 -10 4 -18q-30 -62 -71 -62q-29 0 -49 28t-20 61q0 55 56 121h-79q-29 0 -29 20z M144 575q0 16 9.5 26.5t21.5 10.5t21.5 -10.5t9.5 -26.5t-9.5 -26t-21.5 -10t-21.5 10t-9.5 26z" />
<glyph unicode="&#x130;" d="M53 20q0 20 28 20h72v531h-72q-28 0 -28 20t28 20h189q27 0 27 -20t-27 -20h-73v-531h73q27 0 27 -20t-27 -20h-189q-28 0 -28 20zM144 714q0 16 9.5 26.5t21.5 10.5t21.5 -10.5t9.5 -26.5t-9.5 -26.5t-21.5 -10.5t-21.5 10.5t-9.5 26.5z" />
<glyph unicode="&#x131;" d="M52 20q0 20 29 20h80v345h-75q-28 0 -28 20t28 20h92q16 0 22 -6.5t6 -25.5v-353h70q27 0 27 -20t-27 -20h-195q-29 0 -29 20z" />
<glyph unicode="&#x134;" d="M48 92q0 17 8.5 26t20.5 9q11 0 19 -9t8 -23q0 -6 -11 -24q25 -43 68 -43q8 0 17 3.5t22 13t21.5 33t8.5 57.5v436h-54q-28 0 -28 20t28 20h118q28 0 28 -20t-28 -20h-19v-443q0 -65 -34.5 -102.5t-80.5 -37.5q-48 0 -80 29t-32 75zM138 683q0 15 9 19l74 40q14 8 28 0 l74 -40q9 -4 9 -19q0 -17 -15 -17q-12 0 -18 3l-64 29l-64 -29q-7 -3 -18 -3q-15 0 -15 17z" />
<glyph unicode="&#x135;" d="M28 -171q0 17 9 25.5t19 8.5q27 0 27 -53q15 -5 43 -5q12 0 18.5 1t17.5 9.5t20 25.5q20 39 20 109v435h-86q-28 0 -28 20t28 20h103q16 0 22 -6.5t6 -25.5v-448q0 -79 -34 -128q-16 -24 -33.5 -36.5t-27.5 -14t-28 -1.5q-96 0 -96 64zM114 527q0 7 12 19l74 68 q15 13 30 0l74 -68q12 -12 12 -19q0 -20 -17 -20q-11 0 -20 8l-64 57l-64 -57q-9 -8 -20 -8q-17 0 -17 20z" />
<glyph unicode="&#x136;" d="M13 20q0 20 28 20h12v531h-12q-28 0 -28 20t28 20h67q28 0 28 -20t-28 -20h-14v-297l158 297q-13 0 -19 0.5t-12.5 5.5t-6.5 14q0 20 27 20h59q28 0 28 -20q0 -9 -6 -14t-12 -5.5t-18 -0.5l-112 -210l120 -321q34 0 34 -20t-27 -20h-51q-27 0 -27 20t34 20l-105 280 l-64 -121v-159h14q28 0 28 -20t-28 -20h-67q-28 0 -28 20zM134 -218l1 4q26 14 37.5 35.5t15.5 58.5l-12 -5q-12 0 -20.5 9.5t-8.5 25.5q0 13 8.5 23t20.5 10q16 0 28 -18t12 -45q0 -36 -14.5 -63.5t-28.5 -38t-23 -10.5q-5 0 -10.5 4t-5.5 10z" />
<glyph unicode="&#x137;" d="M10 20q0 20 28 20h30v531h-30q-28 0 -28 20t28 20h43q15 0 21 -6.5t6 -26.5v-372l127 179h-37q-28 0 -28 20t28 20h102q28 0 28 -20t-28 -20h-21l-93 -130l110 -215h19q28 0 28 -20t-28 -20h-78q-29 0 -29 20q0 14 11 17t38 3l-93 183l-56 -77v-106h32q29 0 29 -20 t-29 -20h-102q-28 0 -28 20zM134 -218l1 4q26 14 37.5 35.5t15.5 58.5l-12 -5q-12 0 -20.5 9.5t-8.5 25.5q0 13 8.5 23t20.5 10q16 0 28 -18t12 -45q0 -36 -14.5 -63.5t-28.5 -38t-23 -10.5q-5 0 -10.5 4t-5.5 10z" />
<glyph unicode="&#x139;" d="M19 20q0 20 28 20h24v531h-24q-28 0 -28 20t28 20h105q28 0 28 -20t-28 -20h-37v-531h171v77q0 32 22 32t22 -32v-84q0 -20 -6 -26.5t-21 -6.5h-256q-28 0 -28 20zM30 702q0 8 18 21l78 58q19 13 29 13q8 0 14 -7t6 -17t-18 -23l-90 -66q-8 -6 -15 -6q-22 0 -22 27z" />
<glyph unicode="&#x13a;" d="M39 20q0 20 28 20h86v531h-86q-28 0 -28 20t28 20h103q15 0 21 -6.5t6 -26.5v-538h87q27 0 27 -20t-27 -20h-217q-28 0 -28 20zM103 702q0 8 18 21l78 58q19 13 29 13q8 0 14 -7t6 -17t-18 -23l-90 -66q-8 -6 -15 -6q-22 0 -22 27z" />
<glyph unicode="&#x13b;" d="M19 20q0 20 28 20h24v531h-24q-28 0 -28 20t28 20h105q28 0 28 -20t-28 -20h-37v-531h171v77q0 32 22 32t22 -32v-84q0 -20 -6 -26.5t-21 -6.5h-256q-28 0 -28 20zM134 -218l1 4q26 14 37.5 35.5t15.5 58.5l-12 -5q-12 0 -20.5 9.5t-8.5 25.5q0 13 8.5 23t20.5 10 q16 0 28 -18t12 -45q0 -36 -14.5 -63.5t-28.5 -38t-23 -10.5q-5 0 -10.5 4t-5.5 10z" />
<glyph unicode="&#x13c;" d="M39 20q0 20 28 20h86v531h-86q-28 0 -28 20t28 20h103q15 0 21 -6.5t6 -26.5v-538h87q27 0 27 -20t-27 -20h-217q-28 0 -28 20zM134 -218l1 4q26 14 37.5 35.5t15.5 58.5l-12 -5q-12 0 -20.5 9.5t-8.5 25.5q0 13 8.5 23t20.5 10q16 0 28 -18t12 -45q0 -36 -14.5 -63.5 t-28.5 -38t-23 -10.5q-5 0 -10.5 4t-5.5 10z" />
<glyph unicode="&#x13d;" d="M19 20q0 20 28 20h24v531h-24q-28 0 -28 20t28 20h105q28 0 28 -20t-28 -20h-37v-531h171v77q0 32 22 32t22 -32v-84q0 -20 -6 -26.5t-21 -6.5h-256q-28 0 -28 20zM219 450l1 4q26 14 37.5 35.5t15.5 58.5l-12 -5q-12 0 -20.5 9.5t-8.5 25.5q0 13 8.5 23t20.5 10 q16 0 28 -18t12 -45q0 -36 -14.5 -63.5t-28.5 -38t-23 -10.5q-5 0 -10.5 4t-5.5 10z" />
<glyph unicode="&#x13e;" d="M39 20q0 20 28 20h86v531h-86q-28 0 -28 20t28 20h103q15 0 21 -6.5t6 -26.5v-538h87q27 0 27 -20t-27 -20h-217q-28 0 -28 20zM223 450l1 4q26 14 37.5 35.5t15.5 58.5l-12 -5q-12 0 -20.5 9.5t-8.5 25.5q0 13 8.5 23t20.5 10q16 0 28 -18t12 -45q0 -36 -14.5 -63.5 t-28.5 -38t-23 -10.5q-5 0 -10.5 4t-5.5 10z" />
<glyph unicode="&#x13f;" d="M19 20q0 20 28 20h24v531h-24q-28 0 -28 20t28 20h105q28 0 28 -20t-28 -20h-37v-531h171v77q0 32 22 32t22 -32v-84q0 -20 -6 -26.5t-21 -6.5h-256q-28 0 -28 20zM237 318q0 16 9.5 26.5t21.5 10.5t21.5 -10.5t9.5 -26.5t-9.5 -26.5t-21.5 -10.5t-21.5 10.5t-9.5 26.5z " />
<glyph unicode="&#x140;" d="M39 20q0 20 28 20h86v531h-86q-28 0 -28 20t28 20h103q15 0 21 -6.5t6 -26.5v-538h87q27 0 27 -20t-27 -20h-217q-28 0 -28 20zM319 318q0 16 9.5 26.5t21.5 10.5t21.5 -10.5t9.5 -26.5t-9.5 -26.5t-21.5 -10.5t-21.5 10.5t-9.5 26.5z" />
<glyph unicode="&#x141;" d="M15 258q0 11 7 18l49 52v243h-24q-28 0 -28 20t28 20h105q28 0 28 -20t-28 -20h-37v-201l122 121q7 8 20 4t13 -18q0 -8 -10 -18l-145 -142v-277h171v77q0 32 22 32t22 -32v-84q0 -20 -6 -26.5t-21 -6.5h-256q-28 0 -28 20t28 20h24v234l-26 -28q-8 -9 -19 -4t-11 16z " />
<glyph unicode="&#x142;" d="M39 20q0 20 28 20h86v280l-74 -74q-8 -8 -15.5 -6t-12.5 13t5 23l97 98v197h-86q-28 0 -28 20t28 20h103q15 0 21 -6.5t6 -26.5v-162l74 75q11 11 26 -5q4 -5 3 -13.5t-6 -13.5l-97 -97v-322h87q27 0 27 -20t-27 -20h-217q-28 0 -28 20z" />
<glyph unicode="&#x143;" d="M15 20q0 20 28 20h16v531h-16q-28 0 -28 20t28 20h45q10 0 16 -1t14 -9.5t12 -24.5l123 -517v512h-16q-29 0 -29 20t29 20h70q27 0 27 -20t-27 -20h-16v-538q0 -16 -4 -23.5t-9 -8.5t-16 -1t-17 1t-13.5 9.5t-11.5 24.5l-122 517v-512h15q28 0 28 -20t-28 -20h-70 q-28 0 -28 20zM103 702q0 8 18 21l78 58q19 13 29 13q8 0 14 -7t6 -17t-18 -23l-90 -66q-8 -6 -15 -6q-22 0 -22 27z" />
<glyph unicode="&#x144;" d="M5 20q0 20 28 20h29v345h-29q-28 0 -28 20t28 20h46q18 0 23 -10t5 -43q35 59 91 59q89 0 89 -138v-253h30q27 0 27 -20t-27 -20h-104q-27 0 -27 20t27 20h30v248q0 54 -9.5 78.5t-40.5 24.5q-34 0 -60 -40.5t-26 -113.5v-197h29q28 0 28 -20t-28 -20h-103q-28 0 -28 20z M103 531q0 8 18 21l78 58q19 13 29 13q8 0 14 -7t6 -17q0 -9 -18 -23l-90 -66q-8 -6 -15 -6q-22 0 -22 27z" />
<glyph unicode="&#x145;" d="M15 20q0 20 28 20h16v531h-16q-28 0 -28 20t28 20h45q10 0 16 -1t14 -9.5t12 -24.5l123 -517v512h-16q-29 0 -29 20t29 20h70q27 0 27 -20t-27 -20h-16v-538q0 -16 -4 -23.5t-9 -8.5t-16 -1t-17 1t-13.5 9.5t-11.5 24.5l-122 517v-512h15q28 0 28 -20t-28 -20h-70 q-28 0 -28 20zM134 -218l1 4q26 14 37.5 35.5t15.5 58.5l-12 -5q-12 0 -20.5 9.5t-8.5 25.5q0 13 8.5 23t20.5 10q16 0 28 -18t12 -45q0 -36 -14.5 -63.5t-28.5 -38t-23 -10.5q-5 0 -10.5 4t-5.5 10z" />
<glyph unicode="&#x146;" d="M5 20q0 20 28 20h29v345h-29q-28 0 -28 20t28 20h46q18 0 23 -10t5 -43q35 59 91 59q89 0 89 -138v-253h30q27 0 27 -20t-27 -20h-104q-27 0 -27 20t27 20h30v248q0 54 -9.5 78.5t-40.5 24.5q-34 0 -60 -40.5t-26 -113.5v-197h29q28 0 28 -20t-28 -20h-103q-28 0 -28 20z M134 -218l1 4q26 14 37.5 35.5t15.5 58.5l-12 -5q-12 0 -20.5 9.5t-8.5 25.5q0 13 8.5 23t20.5 10q16 0 28 -18t12 -45q0 -36 -14.5 -63.5t-28.5 -38t-23 -10.5q-5 0 -10.5 4t-5.5 10z" />
<glyph unicode="&#x147;" d="M15 20q0 20 28 20h16v531h-16q-28 0 -28 20t28 20h45q10 0 16 -1t14 -9.5t12 -24.5l123 -517v512h-16q-29 0 -29 20t29 20h70q27 0 27 -20t-27 -20h-16v-538q0 -16 -4 -23.5t-9 -8.5t-16 -1t-17 1t-13.5 9.5t-11.5 24.5l-122 517v-512h15q28 0 28 -20t-28 -20h-70 q-28 0 -28 20zM78 729q0 17 15 17q12 0 18 -3l64 -29l64 29q7 3 18 3q15 0 15 -17q0 -15 -9 -19l-74 -40q-14 -8 -28 0l-74 40q-9 4 -9 19z" />
<glyph unicode="&#x148;" d="M5 20q0 20 28 20h29v345h-29q-28 0 -28 20t28 20h46q18 0 23 -10t5 -43q35 59 91 59q89 0 89 -138v-253h30q27 0 27 -20t-27 -20h-104q-27 0 -27 20t27 20h30v248q0 54 -9.5 78.5t-40.5 24.5q-34 0 -60 -40.5t-26 -113.5v-197h29q28 0 28 -20t-28 -20h-103q-28 0 -28 20z M73 600q0 20 17 20q11 0 20 -8l64 -57l64 57q9 8 20 8q17 0 17 -20q0 -7 -12 -19l-74 -68q-15 -13 -30 0l-74 68q-12 12 -12 19z" />
<glyph unicode="&#x14a;" d="M5 20q0 20 28 20h29v531h-29q-28 0 -28 20t28 20h46q16 0 22 -8t6 -35q36 55 86 55q140 0 140 -317q0 -66 -3 -114.5t-12.5 -99t-30.5 -77.5t-52 -27q-11 0 -19.5 9t-8.5 23t9 23.5t19 9.5q11 0 19 -11q16 15 24.5 63.5t9.5 88t1 112.5q0 271 -96 271q-34 0 -57.5 -37.5 t-28.5 -94.5v-405h29q28 0 28 -20t-28 -20h-103q-28 0 -28 20z" />
<glyph unicode="&#x14b;" d="M28 20q0 20 27 20h30v345h-30q-27 0 -27 20t27 20h47q18 0 22.5 -10t4.5 -43q38 59 91 59q90 0 90 -138v-243q0 -127 -16 -195q-22 -97 -78 -97q-9 0 -15.5 6.5t-6.5 17.5q0 10 6.5 16.5t15.5 6.5q12 0 20.5 9.5t14 30.5t8.5 40t4 53t1.5 54t0.5 58v238q0 54 -9 78.5 t-40 24.5q-34 0 -60.5 -40.5t-26.5 -113.5v-197h30q27 0 27 -20t-27 -20h-104q-27 0 -27 20z" />
<glyph unicode="&#x14c;" d="M34 306q0 216 22 266q14 31 40.5 41t78.5 10t78.5 -10t39.5 -41q23 -52 23 -267q0 -214 -23 -266q-13 -31 -39.5 -41t-78.5 -10t-78.5 10t-40.5 41q-22 50 -22 267zM45 706q0 20 27 20h205q28 0 28 -21q0 -20 -28 -20h-204q-28 0 -28 21zM78 314q0 -159 10 -213 q6 -39 24 -56t63 -17q46 0 64 18t24 60q8 58 8 208q0 151 -8 202q-7 40 -26 53.5t-62 13.5q-44 0 -63 -14.5t-26 -56.5q-8 -51 -8 -198z" />
<glyph unicode="&#x14d;" d="M36 213q0 93 41.5 157.5t97.5 64.5t97.5 -65t41.5 -157q0 -93 -41.5 -156t-97.5 -63t-97.5 63t-41.5 156zM45 564q0 20 27 20h205q28 0 28 -21q0 -20 -28 -20h-204q-28 0 -28 21zM80 220q0 -77 27.5 -131.5t67.5 -54.5t67 54t27 132q0 75 -27.5 124.5t-66.5 49.5 q-40 0 -67.5 -49.5t-27.5 -124.5z" />
<glyph unicode="&#x14e;" d="M34 306q0 216 22 266q14 31 40.5 41t78.5 10t78.5 -10t39.5 -41q23 -52 23 -267q0 -214 -23 -266q-13 -31 -39.5 -41t-78.5 -10t-78.5 10t-40.5 41q-22 50 -22 267zM55 749q0 22 19 22q18 0 21 -24q1 -11 4.5 -16t21 -9.5t54.5 -4.5q42 0 60.5 5.5t19.5 21.5q5 27 20 27 q20 0 20 -22q0 -26 -11.5 -42.5t-33.5 -22.5t-36.5 -7.5t-38.5 -1.5t-38.5 1.5t-36.5 7.5t-33.5 22.5t-11.5 42.5zM78 314q0 -159 10 -213q6 -39 24 -56t63 -17q46 0 64 18t24 60q8 58 8 208q0 151 -8 202q-7 40 -26 53.5t-62 13.5q-44 0 -63 -14.5t-26 -56.5 q-8 -51 -8 -198z" />
<glyph unicode="&#x14f;" d="M36 213q0 93 41.5 157.5t97.5 64.5t97.5 -65t41.5 -157q0 -93 -41.5 -156t-97.5 -63t-97.5 63t-41.5 156zM55 590q0 22 19 22q18 0 21 -24q1 -11 4.5 -16t21 -9.5t54.5 -4.5q42 0 60.5 6t19.5 21q5 27 20 27q20 0 20 -22q0 -26 -11.5 -42.5t-33.5 -22.5t-36.5 -7.5 t-38.5 -1.5t-38.5 1.5t-36.5 7.5t-33.5 22.5t-11.5 42.5zM80 220q0 -77 27.5 -131.5t67.5 -54.5t67 54t27 132q0 75 -27.5 124.5t-66.5 49.5q-40 0 -67.5 -49.5t-27.5 -124.5z" />
<glyph unicode="&#x150;" d="M34 306q0 216 22 266q14 31 40.5 41t78.5 10t78.5 -10t39.5 -41q23 -52 23 -267q0 -214 -23 -266q-13 -31 -39.5 -41t-78.5 -10t-78.5 10t-40.5 41q-22 50 -22 267zM58 699q0 9 14 26l45 59q9 13 28 13q15 0 15 -22q0 -5 -14 -25l-52 -67q-7 -10 -18 -7q-18 2 -18 23z M78 314q0 -159 10 -213q6 -39 24 -56t63 -17q46 0 64 18t24 60q8 58 8 208q0 151 -8 202q-7 40 -26 53.5t-62 13.5q-44 0 -63 -14.5t-26 -56.5q-8 -51 -8 -198zM191 699q0 9 14 26l45 59q9 13 28 13q15 0 15 -22q0 -5 -14 -25l-52 -67q-7 -10 -18 -7q-18 2 -18 23z" />
<glyph unicode="&#x151;" d="M36 213q0 93 41.5 157.5t97.5 64.5t97.5 -65t41.5 -157q0 -93 -41.5 -156t-97.5 -63t-97.5 63t-41.5 156zM58 526q0 8 14 26l45 59q9 13 28 13q15 0 15 -22q0 -5 -14 -25l-52 -67q-7 -10 -18 -7q-18 2 -18 23zM80 220q0 -77 27.5 -131.5t67.5 -54.5t67 54t27 132 q0 75 -27.5 124.5t-66.5 49.5q-40 0 -67.5 -49.5t-27.5 -124.5zM191 526q0 8 14 26l45 59q9 13 28 13q15 0 15 -22q0 -5 -14 -25l-52 -67q-7 -10 -18 -7q-18 2 -18 23z" />
<glyph unicode="&#x152;" d="M15 306q0 151 8 217q7 54 28 77t76 23q20 0 44 -8q13 -4 28 -4h108q15 0 21 -6.5t6 -26.5v-68q0 -32 -19 -32t-19 32v61h-82v-234h83q28 0 28 -20t-28 -20h-83v-257h88v76q0 33 19 33t19 -33v-83q0 -20 -6 -26.5t-22 -6.5h-113q-15 0 -27 -4q-26 -8 -45 -8 q-53 0 -74.5 21.5t-28.5 72.5q-9 63 -9 224zM54 314q0 -181 11.5 -233.5t66.5 -52.5q26 0 34.5 27t8.5 112v277q0 87 -8.5 113t-35.5 26q-54 0 -65.5 -48.5t-11.5 -220.5z" />
<glyph unicode="&#x153;" d="M8 214q0 93 29 157t70 64q49 0 80 -89q28 89 75 89q34 0 57 -52.5t23 -150.5q0 -20 -6 -27t-22 -7h-108q6 -80 24.5 -122t39.5 -42q23 0 34 65q3 23 19 23q7 0 13 -5t6 -15q0 -12 -6.5 -35.5t-25 -48t-42.5 -24.5q-49 0 -81 91q-12 -38 -33 -64.5t-47 -26.5 q-40 0 -69.5 63t-29.5 157zM46 220q0 -77 18.5 -131.5t42.5 -54.5t42.5 53.5t18.5 132.5q0 76 -18.5 125t-42.5 49q-23 0 -42 -48.5t-19 -125.5zM206 235h97q-1 72 -12 115.5t-29 43.5q-19 0 -35.5 -44.5t-20.5 -114.5z" />
<glyph unicode="&#x154;" d="M12 20q0 20 27 20h16v531h-16q-27 0 -27 20t27 20h120q57 0 95 -49t38 -114q0 -83 -69 -143q34 -38 44 -71q7 -23 7 -92q0 -31 0.5 -46t2 -34t5.5 -26.5t11 -7.5q16 0 16 58q0 8 5.5 16t16.5 8q22 0 22 -24q0 -33 -15.5 -65.5t-44.5 -32.5q-34 0 -51 42q-13 35 -13 127 q0 78 -16 100q-23 29 -57 29h-56v-246h16q28 0 28 -20t-28 -20h-77q-27 0 -27 20zM87 702q0 8 18 21l78 58q19 13 29 13q8 0 14 -7t6 -17t-18 -23l-90 -66q-8 -6 -15 -6q-22 0 -22 27zM100 326h52q47 0 71.5 38t24.5 84q0 47 -24.5 85t-71.5 38h-52v-245z" />
<glyph unicode="&#x155;" d="M19 20q0 20 28 20h54v345h-54q-28 0 -28 20t28 20h71q16 0 22 -6.5t6 -25.5v-51q49 89 119 89q64 0 64 -51q0 -14 -8 -22.5t-18 -8.5q-4 0 -9 2t-11 12t-7 28h-11q-49 0 -84 -56.5t-35 -149.5v-145h74q27 0 27 -20t-27 -20h-173q-28 0 -28 20zM103 531q0 8 18 21l78 58 q19 13 29 13q8 0 14 -7t6 -17q0 -9 -18 -23l-90 -66q-8 -6 -15 -6q-22 0 -22 27z" />
<glyph unicode="&#x156;" d="M12 20q0 20 27 20h16v531h-16q-27 0 -27 20t27 20h120q57 0 95 -49t38 -114q0 -83 -69 -143q34 -38 44 -71q7 -23 7 -92q0 -31 0.5 -46t2 -34t5.5 -26.5t11 -7.5q16 0 16 58q0 8 5.5 16t16.5 8q22 0 22 -24q0 -33 -15.5 -65.5t-44.5 -32.5q-34 0 -51 42q-13 35 -13 127 q0 78 -16 100q-23 29 -57 29h-56v-246h16q28 0 28 -20t-28 -20h-77q-27 0 -27 20zM100 326h52q47 0 71.5 38t24.5 84q0 47 -24.5 85t-71.5 38h-52v-245zM118 -218l1 4q26 14 37.5 35.5t15.5 58.5l-12 -5q-12 0 -20.5 9.5t-8.5 25.5q0 13 8.5 23t20.5 10q16 0 28 -18t12 -45 q0 -36 -14.5 -63.5t-28.5 -38t-23 -10.5q-5 0 -10.5 4t-5.5 10z" />
<glyph unicode="&#x157;" d="M19 20q0 20 28 20h54v345h-54q-28 0 -28 20t28 20h71q16 0 22 -6.5t6 -25.5v-51q49 89 119 89q64 0 64 -51q0 -14 -8 -22.5t-18 -8.5q-4 0 -9 2t-11 12t-7 28h-11q-49 0 -84 -56.5t-35 -149.5v-145h74q27 0 27 -20t-27 -20h-173q-28 0 -28 20zM83 -218l1 4 q26 14 37.5 35.5t15.5 58.5l-12 -5q-12 0 -20.5 9.5t-8.5 25.5q0 13 8.5 23t20.5 10q16 0 28 -18t12 -45q0 -36 -14.5 -63.5t-28.5 -38t-23 -10.5q-5 0 -10.5 4t-5.5 10z" />
<glyph unicode="&#x158;" d="M12 20q0 20 27 20h16v531h-16q-27 0 -27 20t27 20h120q57 0 95 -49t38 -114q0 -83 -69 -143q34 -38 44 -71q7 -23 7 -92q0 -31 0.5 -46t2 -34t5.5 -26.5t11 -7.5q16 0 16 58q0 8 5.5 16t16.5 8q22 0 22 -24q0 -33 -15.5 -65.5t-44.5 -32.5q-34 0 -51 42q-13 35 -13 127 q0 78 -16 100q-23 29 -57 29h-56v-246h16q28 0 28 -20t-28 -20h-77q-27 0 -27 20zM62 729q0 17 15 17q12 0 18 -3l64 -29l64 29q7 3 18 3q15 0 15 -17q0 -15 -9 -19l-74 -40q-14 -8 -28 0l-74 40q-9 4 -9 19zM100 326h52q47 0 71.5 38t24.5 84q0 47 -24.5 85t-71.5 38h-52 v-245z" />
<glyph unicode="&#x159;" d="M19 20q0 20 28 20h54v345h-54q-28 0 -28 20t28 20h71q16 0 22 -6.5t6 -25.5v-51q49 89 119 89q64 0 64 -51q0 -14 -8 -22.5t-18 -8.5q-4 0 -9 2t-11 12t-7 28h-11q-49 0 -84 -56.5t-35 -149.5v-145h74q27 0 27 -20t-27 -20h-173q-28 0 -28 20zM73 600q0 20 17 20 q11 0 20 -8l64 -57l64 57q9 8 20 8q17 0 17 -20q0 -7 -12 -19l-74 -68q-15 -13 -30 0l-74 68q-12 12 -12 19z" />
<glyph unicode="&#x15a;" d="M31 17v142q0 31 22 31t22 -29q3 -66 34.5 -99.5t80.5 -33.5q41 0 63.5 38.5t22.5 88.5q0 51 -20 87q-12 21 -26 29.5t-56 21.5q-59 21 -76.5 31.5t-38.5 41.5q-28 42 -28 98q0 66 36.5 112.5t90.5 46.5q60 0 99 -51q6 34 10 42.5t15 8.5q19 0 19 -29v-143q0 -30 -23 -30 q-13 0 -17 7.5t-6 24.5q-13 130 -98 130q-37 0 -60.5 -34.5t-23.5 -80.5q0 -37 14.5 -66t38.5 -42l49 -17q56 -20 74 -31t38 -41q3 -4 9.5 -19t14.5 -43t8 -50q0 -69 -36.5 -120t-92.5 -51q-71 0 -116 51q-6 -34 -10 -42.5t-14 -8.5q-19 0 -19 29zM103 702q0 8 18 21l78 58 q19 13 29 13q8 0 14 -7t6 -17t-18 -23l-90 -66q-8 -6 -15 -6q-22 0 -22 27z" />
<glyph unicode="&#x15b;" d="M45 23v107q0 30 22 30q12 0 16 -6t7 -20q11 -54 33 -77t57 -23q47 0 68 24.5t21 59.5q0 67 -84 87q-48 12 -66.5 18.5t-33.5 19.5q-40 31 -40 81q0 12 2.5 24.5t11 28.5t22 28.5t38 21t55.5 8.5q46 0 75 -25q4 25 21 25q19 0 19 -30v-78q0 -30 -23 -30q-21 0 -22 21 q-1 15 -2.5 24.5t-8 23.5t-21.5 21t-39 7q-47 0 -68 -21.5t-21 -48.5q0 -32 25.5 -49t79.5 -30q20 -4 33.5 -9t37 -18.5t36.5 -39t13 -60.5q0 -7 -1 -17t-8.5 -30.5t-20 -36t-38.5 -28t-61 -12.5q-57 0 -91 42q-5 -20 -9.5 -29.5t-7.5 -11t-8 -1.5q-19 0 -19 29zM103 531 q0 8 18 21l78 58q19 13 29 13q8 0 14 -7t6 -17q0 -9 -18 -23l-90 -66q-8 -6 -15 -6q-22 0 -22 27z" />
<glyph unicode="&#x15c;" d="M31 17v142q0 31 22 31t22 -29q3 -66 34.5 -99.5t80.5 -33.5q41 0 63.5 38.5t22.5 88.5q0 51 -20 87q-12 21 -26 29.5t-56 21.5q-59 21 -76.5 31.5t-38.5 41.5q-28 42 -28 98q0 66 36.5 112.5t90.5 46.5q60 0 99 -51q6 34 10 42.5t15 8.5q19 0 19 -29v-143q0 -30 -23 -30 q-13 0 -17 7.5t-6 24.5q-13 130 -98 130q-37 0 -60.5 -34.5t-23.5 -80.5q0 -37 14.5 -66t38.5 -42l49 -17q56 -20 74 -31t38 -41q3 -4 9.5 -19t14.5 -43t8 -50q0 -69 -36.5 -120t-92.5 -51q-71 0 -116 51q-6 -34 -10 -42.5t-14 -8.5q-19 0 -19 29zM78 683q0 15 9 19l74 40 q14 8 28 0l74 -40q9 -4 9 -19q0 -17 -15 -17q-12 0 -18 3l-64 29l-64 -29q-7 -3 -18 -3q-15 0 -15 17z" />
<glyph unicode="&#x15d;" d="M45 23v107q0 30 22 30q12 0 16 -6t7 -20q11 -54 33 -77t57 -23q47 0 68 24.5t21 59.5q0 67 -84 87q-48 12 -66.5 18.5t-33.5 19.5q-40 31 -40 81q0 12 2.5 24.5t11 28.5t22 28.5t38 21t55.5 8.5q46 0 75 -25q4 25 21 25q19 0 19 -30v-78q0 -30 -23 -30q-21 0 -22 21 q-1 15 -2.5 24.5t-8 23.5t-21.5 21t-39 7q-47 0 -68 -21.5t-21 -48.5q0 -32 25.5 -49t79.5 -30q20 -4 33.5 -9t37 -18.5t36.5 -39t13 -60.5q0 -7 -1 -17t-8.5 -30.5t-20 -36t-38.5 -28t-61 -12.5q-57 0 -91 42q-5 -20 -9.5 -29.5t-7.5 -11t-8 -1.5q-19 0 -19 29zM73 527 q0 7 12 19l74 68q15 13 30 0l74 -68q12 -12 12 -19q0 -20 -17 -20q-11 0 -20 8l-64 57l-64 -57q-9 -8 -20 -8q-17 0 -17 20z" />
<glyph unicode="&#x15e;" d="M31 17v142q0 31 22 31t22 -29q3 -66 34.5 -99.5t80.5 -33.5q41 0 63.5 38.5t22.5 88.5q0 51 -20 87q-12 21 -26 29.5t-56 21.5q-59 21 -76.5 31.5t-38.5 41.5q-28 42 -28 98q0 66 36.5 112.5t90.5 46.5q60 0 99 -51q6 34 10 42.5t15 8.5q19 0 19 -29v-143q0 -30 -23 -30 q-13 0 -17 7.5t-6 24.5q-13 130 -98 130q-37 0 -60.5 -34.5t-23.5 -80.5q0 -37 14.5 -66t38.5 -42l49 -17q56 -20 74 -31t38 -41q3 -4 9.5 -19t14.5 -43t8 -50q0 -61 -30.5 -110t-77.5 -59v-35q33 -9 50 -33.5t17 -55.5q0 -32 -13.5 -52.5t-39.5 -28t-43.5 -9.5t-46.5 -2 q-12 0 -18 0.5t-12.5 5.5t-6.5 14q0 20 28 20h14q16 0 35 3.5t39 16t20 32.5q0 21 -13 36t-34 16q-21 2 -21 31v41q-56 8 -92 49q-6 -34 -10 -42.5t-14 -8.5q-19 0 -19 29z" />
<glyph unicode="&#x15f;" d="M45 23v107q0 30 22 30q12 0 16 -6t7 -20q11 -54 33 -77t57 -23q47 0 68 24.5t21 59.5q0 67 -84 87q-48 12 -66.5 18.5t-33.5 19.5q-40 31 -40 81q0 12 2.5 24.5t11 28.5t22 28.5t38 21t55.5 8.5q46 0 75 -25q4 25 21 25q19 0 19 -30v-78q0 -30 -23 -30q-21 0 -22 21 q-1 15 -2.5 24.5t-8 23.5t-21.5 21t-39 7q-47 0 -68 -21.5t-21 -48.5q0 -32 25.5 -49t79.5 -30q20 -4 33.5 -9t37 -18.5t36.5 -39t13 -60.5q0 -8 -2.5 -21t-10.5 -35.5t-30.5 -40.5t-54.5 -24v-30q33 -9 50 -33t17 -55q0 -27 -10.5 -45.5t-23.5 -27.5t-36.5 -14t-36.5 -5.5 t-36 -0.5q-12 0 -18 0.5t-12.5 5.5t-6.5 14q0 21 28 21h14q16 0 35 3t39 16t20 33q0 21 -13 36t-34 16q-21 2 -21 30v34q-45 2 -77 41q-5 -20 -9.5 -29.5t-7.5 -11t-8 -1.5q-19 0 -19 29z" />
<glyph unicode="&#x160;" d="M31 17v142q0 31 22 31t22 -29q3 -66 34.5 -99.5t80.5 -33.5q41 0 63.5 38.5t22.5 88.5q0 51 -20 87q-12 21 -26 29.5t-56 21.5q-59 21 -76.5 31.5t-38.5 41.5q-28 42 -28 98q0 66 36.5 112.5t90.5 46.5q60 0 99 -51q6 34 10 42.5t15 8.5q19 0 19 -29v-143q0 -30 -23 -30 q-13 0 -17 7.5t-6 24.5q-13 130 -98 130q-37 0 -60.5 -34.5t-23.5 -80.5q0 -37 14.5 -66t38.5 -42l49 -17q56 -20 74 -31t38 -41q3 -4 9.5 -19t14.5 -43t8 -50q0 -69 -36.5 -120t-92.5 -51q-71 0 -116 51q-6 -34 -10 -42.5t-14 -8.5q-19 0 -19 29zM78 729q0 17 15 17 q12 0 18 -3l64 -29l64 29q7 3 18 3q15 0 15 -17q0 -15 -9 -19l-74 -40q-14 -8 -28 0l-74 40q-9 4 -9 19z" />
<glyph unicode="&#x161;" d="M45 23v107q0 30 22 30q12 0 16 -6t7 -20q11 -54 33 -77t57 -23q47 0 68 24.5t21 59.5q0 67 -84 87q-48 12 -66.5 18.5t-33.5 19.5q-40 31 -40 81q0 12 2.5 24.5t11 28.5t22 28.5t38 21t55.5 8.5q46 0 75 -25q4 25 21 25q19 0 19 -30v-78q0 -30 -23 -30q-21 0 -22 21 q-1 15 -2.5 24.5t-8 23.5t-21.5 21t-39 7q-47 0 -68 -21.5t-21 -48.5q0 -32 25.5 -49t79.5 -30q20 -4 33.5 -9t37 -18.5t36.5 -39t13 -60.5q0 -7 -1 -17t-8.5 -30.5t-20 -36t-38.5 -28t-61 -12.5q-57 0 -91 42q-5 -20 -9.5 -29.5t-7.5 -11t-8 -1.5q-19 0 -19 29zM73 600 q0 20 17 20q11 0 20 -8l64 -57l64 57q9 8 20 8q17 0 17 -20q0 -7 -12 -19l-74 -68q-15 -13 -30 0l-74 68q-12 12 -12 19z" />
<glyph unicode="&#x162;" d="M13 510v68q0 20 6.5 26.5t21.5 6.5h268q15 0 21 -6.5t6 -26.5v-68q0 -32 -22 -32t-22 32v61h-95v-531h35q27 0 27 -20t-27 -20h-36q2 -9 2 -36q33 -9 50 -33t17 -55q0 -27 -10.5 -45.5t-23.5 -27.5t-36 -14t-36.5 -5.5t-35.5 -0.5q-13 0 -19 0.5t-12.5 5.5t-6.5 14 q0 21 28 21h15q11 0 24.5 2t30 7t27.5 16t11 27q0 21 -12.5 36t-33.5 16q-22 2 -22 30v42h-34q-28 0 -28 20t28 20h34v531h-95v-61q0 -32 -23 -32q-22 0 -22 32z" />
<glyph unicode="&#x163;" d="M12 405q0 20 29 20h60v95q0 32 23 32q22 0 22 -32v-95h114q27 0 27 -20t-27 -20h-114v-265q0 -86 55 -86q19 0 37.5 18.5t19.5 63.5q0 35 22 35q23 0 23 -34q0 -56 -25 -84.5t-59 -35.5q1 -9 1 -33q33 -9 50 -33t17 -55q0 -27 -10.5 -45.5t-23.5 -27.5t-36 -14 t-36.5 -5.5t-35.5 -0.5q-13 0 -19 0.5t-12.5 5.5t-6.5 14q0 21 28 21h15q11 0 24.5 2t30 7t27.5 16t11 27q0 21 -12.5 36t-33.5 16q-22 2 -22 30v38q-74 15 -74 119v270h-61q-28 0 -28 20z" />
<glyph unicode="&#x164;" d="M13 510v68q0 20 6.5 26.5t21.5 6.5h268q15 0 21 -6.5t6 -26.5v-68q0 -32 -22 -32t-22 32v61h-95v-531h35q27 0 27 -20t-27 -20h-113q-28 0 -28 20t28 20h34v531h-95v-61q0 -32 -23 -32q-22 0 -22 32zM78 729q0 17 15 17q12 0 18 -3l64 -29l64 29q7 3 18 3q15 0 15 -17 q0 -15 -9 -19l-74 -40q-14 -8 -28 0l-74 40q-9 4 -9 19z" />
<glyph unicode="&#x165;" d="M12 405q0 20 29 20h60v95q0 32 23 32q22 0 22 -32v-95h114q27 0 27 -20t-27 -20h-114v-265q0 -86 55 -86q19 0 37.5 18.5t19.5 63.5q0 35 22 35q23 0 23 -34q0 -66 -34.5 -94.5t-72.5 -28.5q-41 0 -68 29t-27 92v270h-61q-28 0 -28 20zM172 470l1 4q26 14 37.5 35.5 t15.5 58.5l-12 -5q-12 0 -20.5 9.5t-8.5 25.5q0 13 8.5 23t20.5 10q16 0 28 -18t12 -45q0 -36 -14.5 -63.5t-28.5 -38t-23 -10.5q-5 0 -10.5 4t-5.5 10z" />
<glyph unicode="&#x168;" d="M0 591q0 20 28 20h84q28 0 28 -20t-28 -20h-20v-365q0 -82 25.5 -130t57.5 -48t57 47.5t25 130.5v365h-19q-28 0 -28 20t28 20h84q28 0 28 -20t-28 -20h-20v-371q0 -89 -38 -150.5t-89 -61.5t-89 61.5t-38 150.5v371h-20q-28 0 -28 20zM55 685q0 5 10 18q20 23 29.5 33.5 t23.5 20t25 9.5q25 0 51 -44q8 -14 14 -14q15 0 54 52q6 6 12 6q7 0 13.5 -5.5t6.5 -14.5q0 -8 -9 -18q-20 -23 -29.5 -33.5t-23.5 -20t-25 -9.5q-25 0 -51 44q-9 14 -15 14q-15 0 -54 -52q-5 -6 -12 -6t-13.5 6t-6.5 14z" />
<glyph unicode="&#x169;" d="M5 405q0 20 28 20h46q16 0 22 -6.5t6 -25.5v-280q0 -14 0.5 -22t3.5 -20.5t8.5 -19t16.5 -12t27 -5.5q31 0 55.5 28t24.5 89v234h-30q-27 0 -27 20t27 20h47q16 0 21.5 -6t5.5 -26v-353h30q27 0 27 -20t-27 -20h-47q-8 0 -12.5 1t-10 10.5t-5.5 26.5q-37 -44 -84 -44 q-96 0 -96 114v277h-29q-28 0 -28 20zM55 533q0 6 10 18q20 23 29.5 33.5t23.5 20t25 9.5q25 0 51 -44q9 -14 14 -14q15 0 54 52q6 6 12 6q7 0 13.5 -5.5t6.5 -14.5q0 -6 -9 -18q-20 -23 -29.5 -33.5t-23.5 -20t-25 -9.5q-25 0 -51 44q-8 14 -15 14q-15 0 -54 -52 q-5 -6 -12 -6t-13.5 6t-6.5 14z" />
<glyph unicode="&#x16a;" d="M0 591q0 20 28 20h84q28 0 28 -20t-28 -20h-20v-365q0 -82 25.5 -130t57.5 -48t57 47.5t25 130.5v365h-19q-28 0 -28 20t28 20h84q28 0 28 -20t-28 -20h-20v-371q0 -89 -38 -150.5t-89 -61.5t-89 61.5t-38 150.5v371h-20q-28 0 -28 20zM45 706q0 20 27 20h205 q28 0 28 -21q0 -20 -28 -20h-204q-28 0 -28 21z" />
<glyph unicode="&#x16b;" d="M5 405q0 20 28 20h46q16 0 22 -6.5t6 -25.5v-280q0 -14 0.5 -22t3.5 -20.5t8.5 -19t16.5 -12t27 -5.5q31 0 55.5 28t24.5 89v234h-30q-27 0 -27 20t27 20h47q16 0 21.5 -6t5.5 -26v-353h30q27 0 27 -20t-27 -20h-47q-8 0 -12.5 1t-10 10.5t-5.5 26.5q-37 -44 -84 -44 q-96 0 -96 114v277h-29q-28 0 -28 20zM45 564q0 20 27 20h205q28 0 28 -21q0 -20 -28 -20h-204q-28 0 -28 21z" />
<glyph unicode="&#x16c;" d="M0 591q0 20 28 20h84q28 0 28 -20t-28 -20h-20v-365q0 -82 25.5 -130t57.5 -48t57 47.5t25 130.5v365h-19q-28 0 -28 20t28 20h84q28 0 28 -20t-28 -20h-20v-371q0 -89 -38 -150.5t-89 -61.5t-89 61.5t-38 150.5v371h-20q-28 0 -28 20zM55 749q0 22 19 22q18 0 21 -24 q1 -11 4.5 -16t21 -9.5t54.5 -4.5q42 0 60.5 5.5t19.5 21.5q5 27 20 27q20 0 20 -22q0 -26 -11.5 -42.5t-33.5 -22.5t-36.5 -7.5t-38.5 -1.5t-38.5 1.5t-36.5 7.5t-33.5 22.5t-11.5 42.5z" />
<glyph unicode="&#x16d;" d="M5 405q0 20 28 20h46q16 0 22 -6.5t6 -25.5v-280q0 -14 0.5 -22t3.5 -20.5t8.5 -19t16.5 -12t27 -5.5q31 0 55.5 28t24.5 89v234h-30q-27 0 -27 20t27 20h47q16 0 21.5 -6t5.5 -26v-353h30q27 0 27 -20t-27 -20h-47q-8 0 -12.5 1t-10 10.5t-5.5 26.5q-37 -44 -84 -44 q-96 0 -96 114v277h-29q-28 0 -28 20zM55 590q0 22 19 22q18 0 21 -24q1 -11 4.5 -16t21 -9.5t54.5 -4.5q42 0 60.5 6t19.5 21q5 27 20 27q20 0 20 -22q0 -26 -11.5 -42.5t-33.5 -22.5t-36.5 -7.5t-38.5 -1.5t-38.5 1.5t-36.5 7.5t-33.5 22.5t-11.5 42.5z" />
<glyph unicode="&#x16e;" d="M0 591q0 20 28 20h84q28 0 28 -20t-28 -20h-20v-365q0 -82 25.5 -130t57.5 -48t57 47.5t25 130.5v365h-19q-28 0 -28 20t28 20h84q28 0 28 -20t-28 -20h-20v-371q0 -89 -38 -150.5t-89 -61.5t-89 61.5t-38 150.5v371h-20q-28 0 -28 20zM120 685q0 23 17 42.5t38 19.5 t38 -19.5t17 -42.5t-17 -42.5t-38 -19.5t-38 19.5t-17 42.5zM147 685q0 -15 7 -27.5t21 -12.5t21 12.5t7 27.5t-7 27.5t-21 12.5t-21 -12.5t-7 -27.5z" />
<glyph unicode="&#x16f;" d="M5 405q0 20 28 20h46q16 0 22 -6.5t6 -25.5v-280q0 -14 0.5 -22t3.5 -20.5t8.5 -19t16.5 -12t27 -5.5q31 0 55.5 28t24.5 89v234h-30q-27 0 -27 20t27 20h47q16 0 21.5 -6t5.5 -26v-353h30q27 0 27 -20t-27 -20h-47q-8 0 -12.5 1t-10 10.5t-5.5 26.5q-37 -44 -84 -44 q-96 0 -96 114v277h-29q-28 0 -28 20zM120 554q0 23 17 42.5t38 19.5t38 -19.5t17 -42.5t-17 -42.5t-38 -19.5t-38 19.5t-17 42.5zM147 554q0 -15 7 -27.5t21 -12.5t21 12.5t7 27.5t-7 27.5t-21 12.5t-21 -12.5t-7 -27.5z" />
<glyph unicode="&#x170;" d="M0 591q0 20 28 20h84q28 0 28 -20t-28 -20h-20v-365q0 -82 25.5 -130t57.5 -48t57 47.5t25 130.5v365h-19q-28 0 -28 20t28 20h84q28 0 28 -20t-28 -20h-20v-371q0 -89 -38 -150.5t-89 -61.5t-89 61.5t-38 150.5v371h-20q-28 0 -28 20zM58 699q0 9 14 26l45 59 q9 13 28 13q15 0 15 -22q0 -5 -14 -25l-52 -67q-7 -10 -18 -7q-18 2 -18 23zM191 699q0 9 14 26l45 59q9 13 28 13q15 0 15 -22q0 -5 -14 -25l-52 -67q-7 -10 -18 -7q-18 2 -18 23z" />
<glyph unicode="&#x171;" d="M5 405q0 20 28 20h46q16 0 22 -6.5t6 -25.5v-280q0 -14 0.5 -22t3.5 -20.5t8.5 -19t16.5 -12t27 -5.5q31 0 55.5 28t24.5 89v234h-30q-27 0 -27 20t27 20h47q16 0 21.5 -6t5.5 -26v-353h30q27 0 27 -20t-27 -20h-47q-8 0 -12.5 1t-10 10.5t-5.5 26.5q-37 -44 -84 -44 q-96 0 -96 114v277h-29q-28 0 -28 20zM58 526q0 8 14 26l45 59q9 13 28 13q15 0 15 -22q0 -5 -14 -25l-52 -67q-7 -10 -18 -7q-18 2 -18 23zM191 526q0 8 14 26l45 59q9 13 28 13q15 0 15 -22q0 -5 -14 -25l-52 -67q-7 -10 -18 -7q-18 2 -18 23z" />
<glyph unicode="&#x172;" d="M0 591q0 20 28 20h84q28 0 28 -20t-28 -20h-20v-365q0 -82 25.5 -130t57.5 -48t57 47.5t25 130.5v365h-19q-28 0 -28 20t28 20h84q28 0 28 -20t-28 -20h-20v-371q0 -81 -29 -138.5t-74 -69.5q-39 -48 -39 -115q0 -21 9.5 -35.5t21.5 -14.5q20 0 38 38q3 5 11.5 7.5 t14.5 -2.5q9 -9 3 -18q-30 -62 -70 -62q-29 0 -49 28t-20 61q0 51 41 110q-52 14 -82 71.5t-30 139.5v371h-20q-28 0 -28 20z" />
<glyph unicode="&#x173;" d="M5 405q0 20 28 20h46q16 0 22 -6.5t6 -25.5v-280q0 -14 0.5 -22t3.5 -20.5t8.5 -19t16.5 -12t27 -5.5q31 0 55.5 28t24.5 89v234h-30q-27 0 -27 20t27 20h47q16 0 21.5 -6t5.5 -26v-353h30q27 0 27 -20t-27 -20h-7q-53 -48 -53 -123q0 -21 10 -35.5t22 -14.5 q10 0 20.5 12t16.5 26q4 5 12 7.5t14 -2.5q9 -9 4 -18q-13 -27 -32 -44.5t-38 -17.5q-30 0 -49.5 27.5t-19.5 61.5q0 58 51 119q-16 4 -21 10.5t-5 29.5q-37 -44 -84 -44q-96 0 -96 114v277h-29q-28 0 -28 20z" />
<glyph unicode="&#x174;" d="M3 591q0 20 28 20h52q28 0 28 -20t-28 -20h-17l43 -517l39 284q6 21 27 21q24 0 28 -26l37 -279l45 517h-18q-29 0 -29 20t29 20h52q28 0 28 -20t-25 -20l-51 -542q-1 -12 -2.5 -18.5t-7.5 -13t-17 -6.5q-20 0 -27 20l-42 295l-42 -292q-6 -23 -28 -23q-11 0 -17 6.5 t-7.5 13t-2.5 19.5l-50 541q-25 0 -25 20zM78 683q0 15 9 19l74 40q14 8 28 0l74 -40q9 -4 9 -19q0 -17 -15 -17q-12 0 -18 3l-64 29l-64 -29q-7 -3 -18 -3q-15 0 -15 17z" />
<glyph unicode="&#x175;" d="M5 405q0 20 29 20h78q29 0 29 -20t-29 -20h-35l39 -335l22 120q9 51 15 64.5t23 13.5q16 0 22 -13.5t15 -65.5l22 -119l38 335h-36q-28 0 -28 20t28 20h79q28 0 28 -20t-34 -20l-42 -353q-2 -17 -8 -26t-10.5 -10t-12.5 -1q-19 0 -25 12t-17 66l-19 123l-20 -122 q-11 -55 -17 -67t-26 -12q-14 0 -21 7t-10 31l-43 352q-34 0 -34 20zM73 527q0 7 12 19l74 68q15 13 30 0l74 -68q12 -12 12 -19q0 -20 -17 -20q-11 0 -20 8l-64 57l-64 -57q-9 -8 -20 -8q-17 0 -17 20z" />
<glyph unicode="&#x176;" d="M8 591q0 20 28 20h66q28 0 28 -20t-37 -20l82 -272l82 272q-12 0 -18 0.5t-12.5 5.5t-6.5 14q0 20 28 20h66q28 0 28 -20t-28 -20h-13l-104 -321v-210h16q28 0 28 -20t-28 -20h-76q-28 0 -28 20t28 20h16v210l-105 321h-12q-28 0 -28 20zM78 683q0 15 9 19l74 40 q14 8 28 0l74 -40q9 -4 9 -19q0 -17 -15 -17q-12 0 -18 3l-64 29l-64 -29q-7 -3 -18 -3q-15 0 -15 17z" />
<glyph unicode="&#x177;" d="M12 405q0 20 29 20h77q28 0 28 -20t-28 -20h-21l84 -336l74 336h-22q-28 0 -28 20t28 20h77q29 0 29 -20t-29 -20h-18l-110 -479q-4 -18 -10 -36.5t-18 -45t-31 -43t-42 -16.5q-24 0 -40.5 21t-16.5 49q0 15 8 23.5t20 8.5q11 0 19 -8.5t8 -22.5q-3 -10 -10 -16 q1 -17 13 -17q19 0 35 27t22 55l24 105l-103 395h-19q-29 0 -29 20zM73 527q0 7 12 19l74 68q15 13 30 0l74 -68q12 -12 12 -19q0 -20 -17 -20q-11 0 -20 8l-64 57l-64 -57q-9 -8 -20 -8q-17 0 -17 20z" />
<glyph unicode="&#x178;" d="M8 591q0 20 28 20h66q28 0 28 -20t-37 -20l82 -272l82 272q-12 0 -18 0.5t-12.5 5.5t-6.5 14q0 20 28 20h66q28 0 28 -20t-28 -20h-13l-104 -321v-210h16q28 0 28 -20t-28 -20h-76q-28 0 -28 20t28 20h16v210l-105 321h-12q-28 0 -28 20zM86 697q0 14 8.5 23t19.5 9 t19.5 -9t8.5 -23t-9 -23t-19 -9t-19 9t-9 23zM209 697q0 14 8.5 23t19.5 9t19.5 -9t8.5 -23t-9 -23t-19 -9t-19 9t-9 23z" />
<glyph unicode="&#x179;" d="M28 24q0 8 6 19l238 528h-192v-61q0 -32 -22 -32t-22 32v68q0 21 6 27t22 6h229q29 0 29 -24q0 -5 -6 -19l-239 -528h204v79q0 33 22 33t22 -33v-86q0 -20 -6 -26.5t-21 -6.5h-242q-28 0 -28 24zM103 702q0 8 18 21l78 58q19 13 29 13q8 0 14 -7t6 -17t-18 -23l-90 -66 q-8 -6 -15 -6q-22 0 -22 27z" />
<glyph unicode="&#x17a;" d="M17 24q0 8 5 16l243 345h-192v-34q0 -32 -22 -32t-22 32v42q0 20 6 26t22 6h234q28 0 28 -24q0 -8 -5 -16l-243 -345h205v45q0 33 23 33q22 0 22 -33v-52q0 -20 -6 -26.5t-22 -6.5h-247q-29 0 -29 24zM103 531q0 8 18 21l78 58q19 13 29 13q8 0 14 -7t6 -17q0 -9 -18 -23 l-90 -66q-8 -6 -15 -6q-22 0 -22 27z" />
<glyph unicode="&#x17b;" d="M28 24q0 8 6 19l238 528h-192v-61q0 -32 -22 -32t-22 32v68q0 21 6 27t22 6h229q29 0 29 -24q0 -5 -6 -19l-239 -528h204v79q0 33 22 33t22 -33v-86q0 -20 -6 -26.5t-21 -6.5h-242q-28 0 -28 24zM144 714q0 16 9.5 26.5t21.5 10.5t21.5 -10.5t9.5 -26.5t-9.5 -26.5 t-21.5 -10.5t-21.5 10.5t-9.5 26.5z" />
<glyph unicode="&#x17c;" d="M17 24q0 8 5 16l243 345h-192v-34q0 -32 -22 -32t-22 32v42q0 20 6 26t22 6h234q28 0 28 -24q0 -8 -5 -16l-243 -345h205v45q0 33 23 33q22 0 22 -33v-52q0 -20 -6 -26.5t-22 -6.5h-247q-29 0 -29 24zM144 564q0 16 9.5 26.5t21.5 10.5t21.5 -10.5t9.5 -26.5t-9.5 -26.5 t-21.5 -10.5t-21.5 10.5t-9.5 26.5z" />
<glyph unicode="&#x17d;" d="M28 24q0 8 6 19l238 528h-192v-61q0 -32 -22 -32t-22 32v68q0 21 6 27t22 6h229q29 0 29 -24q0 -5 -6 -19l-239 -528h204v79q0 33 22 33t22 -33v-86q0 -20 -6 -26.5t-21 -6.5h-242q-28 0 -28 24zM78 729q0 17 15 17q12 0 18 -3l64 -29l64 29q7 3 18 3q15 0 15 -17 q0 -15 -9 -19l-74 -40q-14 -8 -28 0l-74 40q-9 4 -9 19z" />
<glyph unicode="&#x17e;" d="M17 24q0 8 5 16l243 345h-192v-34q0 -32 -22 -32t-22 32v42q0 20 6 26t22 6h234q28 0 28 -24q0 -8 -5 -16l-243 -345h205v45q0 33 23 33q22 0 22 -33v-52q0 -20 -6 -26.5t-22 -6.5h-247q-29 0 -29 24zM73 600q0 20 17 20q11 0 20 -8l64 -57l64 57q9 8 20 8q17 0 17 -20 q0 -7 -12 -19l-74 -68q-15 -13 -30 0l-74 68q-12 12 -12 19z" />
<glyph unicode="&#x17f;" d="M24 405q0 20 29 20h70v66q0 61 33 93.5t76 32.5q63 0 63 -49q0 -16 -8.5 -23.5t-18.5 -7.5q-13 0 -20 10t-8 20l-1 10q-12 0 -22 -2.5t-22.5 -10t-20 -27.5t-7.5 -50v-447h67q28 0 28 -20t-28 -20h-179q-27 0 -27 20q0 9 7 14t13 6h7h68v345h-71q-28 0 -28 20z" />
<glyph unicode="&#x18e;" d="M15 33v83q0 33 22 33q23 0 23 -33v-76h188v257h-94q0 -32 -4 -43.5t-18 -11.5q-22 0 -22 32v87q0 32 22 32q14 0 18 -12t4 -44h94v234h-173v-61q0 -32 -22 -32q-23 0 -23 32v68q0 20 6 26.5t22 6.5h254q28 0 28 -20t-28 -20h-19v-531h19q28 0 28 -20t-28 -20h-269 q-16 0 -22 6.5t-6 26.5z" />
<glyph unicode="&#x192;" d="M24 405q0 20 29 20h70v66q0 61 33 93.5t76 32.5q63 0 63 -49q0 -16 -8.5 -23.5t-18.5 -7.5t-17.5 10t-9.5 20l-2 10q-12 0 -22 -2.5t-22.5 -10t-20 -27.5t-7.5 -50v-62h86q27 0 27 -20t-27 -20h-86v-345h67q28 0 28 -20t-28 -20h-179q-27 0 -27 20t27 20h68v345h-71 q-28 0 -28 20z" />
<glyph unicode="&#x1a0;" d="M34 305q0 216 22 266q8 19 20.5 30t31 15.5t31 5.5t35.5 1q71 0 97 -21q7 0 13 13v20q-18 12 -18 32q0 15 8.5 25.5t21.5 11.5q32 0 32 -54q0 -51 -33 -81q20 -72 20 -264q0 -215 -22 -265q-10 -24 -32 -36.5t-39 -14t-48 -1.5q-23 0 -35.5 1t-31 5.5t-31 16t-20.5 29.5 q-22 50 -22 265zM78 318q0 -199 15 -246q15 -44 81 -44q67 0 81 44q16 47 16 246q0 182 -16 224q-5 14 -14 23t-21 12.5t-21.5 4.5t-24.5 1q-20 0 -32.5 -2t-27 -11.5t-21.5 -27.5q-15 -42 -15 -224z" />
<glyph unicode="&#x1a1;" d="M35 212q0 80 38.5 150.5t100.5 70.5q33 0 62 -23q18 7 23 18v20q-18 11 -18 32q0 16 8.5 26.5t22.5 10.5q29 0 31 -55q0 -52 -38 -82q48 -79 48 -168q0 -79 -38.5 -148.5t-100.5 -69.5q-61 0 -100 70t-39 148zM80 221q0 -80 28 -135q28 -52 66 -52q39 0 67 52 q28 55 28 135q0 76 -28 125q-28 47 -67 47q-40 0 -66 -47q-28 -49 -28 -125z" />
<glyph unicode="&#x1af;" d="M0 590q0 8 5.5 14.5t12.5 6.5h103q7 0 12.5 -6.5t5.5 -14.5q-1 -7 -6.5 -13t-11.5 -6h-30v-370q0 -78 27 -128q24 -45 56 -45q33 0 57 45q26 51 26 128v370h-30q-5 0 -10.5 6t-6.5 13q0 8 5 14.5t12 6.5h57q9 0 13.5 6.5t4.5 12.5l1 7q-15 11 -15 30q0 15 9 25.5t21 11.5 h1q15 0 23 -16t8 -36q0 -29 -14 -50.5t-35 -30.5v-370q0 -82 -35 -146q-38 -67 -92 -67q-53 0 -91 67q-36 63 -36 146v370h-29q-6 0 -11.5 6t-6.5 13z" />
<glyph unicode="&#x1b0;" d="M5 403q0 8 5.5 14.5t12.5 6.5h65q19 0 19 -17v-303q0 -39 12 -54.5t47 -15.5q32 0 53.5 31t22.5 75v245h-39q-6 0 -11.5 5.5t-6.5 12.5q0 8 5.5 14.5t12.5 6.5h66q17 0 22 7q2 3 2 8t-1 9l-1 3q-12 12 -14 33q1 13 10 23t20 11h1q15 -1 23 -17t8 -36q0 -30 -15 -51.5 t-37 -29.5v-344h39q5 0 10.5 -5.5t6.5 -12.5q0 -8 -5 -15t-12 -7h-66q-7 0 -12.5 4.5t-5.5 12.5l-1 21q-33 -44 -81 -44q-49 0 -72 29q-26 29 -26 81v281h-39q-5 0 -11 5.5t-7 12.5z" />
<glyph unicode="&#x1dd;" d="M34 202q0 13 5 20t9.5 8t13.5 1h207q-7 73 -38.5 118.5t-75.5 45.5q-57 0 -77 -65q-3 -13 -7.5 -18t-13.5 -5q-12 0 -17.5 6.5t-5.5 12.5q0 29 33 69t90 40q64 0 110.5 -64t46.5 -157q0 -91 -43.5 -155.5t-102.5 -64.5q-62 0 -98 59t-36 149zM79 194q7 -159 89 -159 q35 0 64 41.5t37 117.5h-190z" />
<glyph unicode="&#x1e6;" d="M21 306q0 135 45.5 226t107.5 91q46 0 82 -49l9 33q10 16 19 16q19 0 19 -29v-150q0 -29 -23 -29q-20 0 -22 24q-6 73 -29 108.5t-51 35.5q-45 0 -79 -79.5t-34 -198.5q0 -118 33.5 -197.5t78.5 -79.5q39 0 58 57.5t23 133.5h-30q-28 0 -28 20t28 20h79q28 0 28 -20 t-32 -20v-190q0 -31 -22 -31q-14 0 -18.5 10.5t-4.5 36.5q-35 -57 -84 -57q-62 0 -107.5 91t-45.5 227zM78 729q0 17 15 17q12 0 18 -3l64 -29l64 29q7 3 18 3q15 0 15 -17q0 -15 -9 -19l-74 -40q-14 -8 -28 0l-74 40q-9 4 -9 19z" />
<glyph unicode="&#x1e7;" d="M15 -95q0 75 60 123q-25 44 -25 78q0 28 20 73q-27 52 -27 98q0 64 33 109t79 45q36 0 67 -32q33 39 74 39q24 0 36.5 -14t12.5 -30q0 -17 -8.5 -23.5t-17.5 -6.5q-2 0 -6 1t-10.5 9.5t-8.5 22.5q-25 -3 -52 -23q25 -56 25 -97q0 -64 -33 -109t-80 -45q-36 0 -62 28 q-5 -14 -5 -42q0 -66 41 -66h59q13 0 24.5 -1t36.5 -8t41.5 -20.5t30.5 -41.5t14 -67q0 -62 -46.5 -101.5t-112.5 -39.5q-67 0 -113.5 40t-46.5 101zM53 600q0 20 17 20q11 0 20 -8l64 -57l64 57q9 8 20 8q17 0 17 -20q0 -7 -12 -19l-74 -68q-15 -13 -30 0l-74 68 q-12 12 -12 19zM54 -95q0 -40 34.5 -71.5t86.5 -31.5t86 31.5t34 71.5q0 33 -12 55t-34.5 31t-42.5 11.5t-50 2.5q-38 0 -49 -2t-23 -13q-30 -28 -30 -85zM87 277q0 -49 19.5 -82.5t47.5 -33.5q29 0 48.5 34t19.5 82t-19.5 82t-48.5 34q-27 0 -47 -34t-20 -82z" />
<glyph unicode="&#x1ea;" d="M34 306q0 78 1.5 125.5t8 86t14.5 57t26 31t37.5 15t53.5 2.5t53.5 -2.5t37.5 -15t26 -31t14.5 -57.5t8 -86.5t1.5 -125.5q0 -76 -1 -121t-6 -84.5t-12 -58t-22.5 -32t-33.5 -17t-48 -4.5q-38 -49 -38 -111q0 -21 10 -35.5t22 -14.5q20 0 38 38q3 5 11.5 7.5t14.5 -2.5 q8 -8 3 -18q-30 -62 -70 -62q-29 0 -49 28t-20 61q0 49 41 109q-30 1 -48.5 5.5t-33 19.5t-22 33.5t-12 58.5t-5.5 83t-1 118zM78 314q0 -159 10 -213q6 -39 24 -56t63 -17q46 0 64 18t24 60q8 58 8 208q0 151 -8 202q-7 40 -26 53.5t-62 13.5q-44 0 -63 -14.5t-26 -56.5 q-8 -51 -8 -198z" />
<glyph unicode="&#x1eb;" d="M36 213q0 93 41.5 157.5t97.5 64.5t97.5 -65t41.5 -157q0 -86 -33 -146t-82 -70q-47 -49 -47 -120q0 -21 10 -35.5t21 -14.5q20 0 38 38q3 5 11.5 7.5t14.5 -2.5q9 -9 4 -18q-30 -62 -71 -62q-29 0 -49 28t-20 61q0 59 46 115q-56 16 -88.5 75.5t-32.5 143.5zM80 220 q0 -77 27.5 -131.5t67.5 -54.5t67 54t27 132q0 75 -27.5 124.5t-66.5 49.5q-40 0 -67.5 -49.5t-27.5 -124.5z" />
<glyph unicode="&#x1f4;" d="M21 306q0 135 45.5 226t107.5 91q46 0 82 -49l9 33q10 16 19 16q19 0 19 -29v-150q0 -29 -23 -29q-20 0 -22 24q-6 73 -29 108.5t-51 35.5q-45 0 -79 -79.5t-34 -198.5q0 -118 33.5 -197.5t78.5 -79.5q39 0 58 57.5t23 133.5h-30q-28 0 -28 20t28 20h79q28 0 28 -20 t-32 -20v-190q0 -31 -22 -31q-14 0 -18.5 10.5t-4.5 36.5q-35 -57 -84 -57q-62 0 -107.5 91t-45.5 227zM103 702q0 8 18 21l78 58q19 13 29 13q8 0 14 -7t6 -17t-18 -23l-90 -66q-8 -6 -15 -6q-22 0 -22 27z" />
<glyph unicode="&#x1f5;" d="M15 -95q0 75 60 123q-25 44 -25 78q0 28 20 73q-27 52 -27 98q0 64 33 109t79 45q36 0 67 -32q33 39 74 39q24 0 36.5 -14t12.5 -30q0 -17 -8.5 -23.5t-17.5 -6.5q-2 0 -6 1t-10.5 9.5t-8.5 22.5q-25 -3 -52 -23q25 -56 25 -97q0 -64 -33 -109t-80 -45q-36 0 -62 28 q-5 -14 -5 -42q0 -66 41 -66h59q13 0 24.5 -1t36.5 -8t41.5 -20.5t30.5 -41.5t14 -67q0 -62 -46.5 -101.5t-112.5 -39.5q-67 0 -113.5 40t-46.5 101zM54 -95q0 -40 34.5 -71.5t86.5 -31.5t86 31.5t34 71.5q0 33 -12 55t-34.5 31t-42.5 11.5t-50 2.5q-38 0 -49 -2t-23 -13 q-30 -28 -30 -85zM83 531q0 8 18 21l78 58q19 13 29 13q8 0 14 -7t6 -17q0 -9 -18 -23l-90 -66q-8 -6 -15 -6q-22 0 -22 27zM87 277q0 -49 19.5 -82.5t47.5 -33.5q29 0 48.5 34t19.5 82t-19.5 82t-48.5 34q-27 0 -47 -34t-20 -82z" />
<glyph unicode="&#x1fa;" d="M14 20q0 9 6 14t12.5 5.5t20.5 0.5l87 549q4 23 11 29.5t25 6.5q14 0 22.5 -6.5t11.5 -29.5l87 -549q13 0 19.5 -0.5t13 -5.5t6.5 -14q0 -20 -29 -20h-67q-28 0 -28 20q0 9 6.5 14t13.5 5.5t21 0.5l-21 135h-114l-21 -135q14 0 21 -0.5t13.5 -5.5t6.5 -14q0 -20 -28 -20 h-68q-28 0 -28 20zM103 792q0 8 18 21l78 58q19 13 29 13q8 0 14 -7t6 -17t-18 -23l-90 -66q-8 -6 -15 -6q-22 0 -22 27zM120 685q0 23 17 41.5t38 18.5t38 -18.5t17 -41.5t-17 -41.5t-38 -18.5t-38 18.5t-17 41.5zM124 216h102l-51 349zM147 685q0 -15 7 -27.5t21 -12.5 t21 12.5t7 27.5t-7 27.5t-21 12.5t-21 -12.5t-7 -27.5z" />
<glyph unicode="&#x1fb;" d="M34 119q0 76 80 115q48 23 126 27q0 28 -1 42t-7 32.5t-18 32.5q-23 26 -63 26q-18 0 -26 -1q-16 -2 -16 -15q-1 -38 -28 -38q-11 0 -19.5 8.5t-8.5 24.5q0 62 97 62q64 0 99 -45t35 -107v-234q14 -9 43 -9q28 0 28 -20t-33 -20q-61 0 -76 36q-42 -42 -103 -42 q-46 0 -77.5 36t-31.5 89zM79 119q0 -35 19.5 -60t52.5 -25q35 0 60 18q19 13 24 30.5t5 43.5v99q-67 0 -114 -30t-47 -76zM103 661q0 8 18 21l78 58q19 13 29 13q8 0 14 -7t6 -17q0 -9 -18 -23l-90 -66q-8 -6 -15 -6q-22 0 -22 27zM120 554q0 23 17 42.5t38 19.5t38 -19.5 t17 -42.5t-17 -42.5t-38 -19.5t-38 19.5t-17 42.5zM147 554q0 -15 7 -27.5t21 -12.5t21 12.5t7 27.5t-7 27.5t-21 12.5t-21 -12.5t-7 -27.5z" />
<glyph unicode="&#x1fc;" d="M10 20q0 20 32 20l73 531q-29 0 -29 20t28 20h191q15 0 21 -6.5t6 -26.5v-68q0 -32 -19 -32t-19 32v61h-79v-234h78q28 0 28 -20t-28 -20h-78v-257h85v76q0 33 19 33t19 -33v-83q0 -20 -6 -26.5t-22 -6.5h-132q-28 0 -28 20t27 20v152h-77l-20 -152q33 0 33 -20t-28 -20 h-46q-29 0 -29 20zM103 702q0 8 18 21l78 58q19 13 29 13q8 0 14 -7t6 -17t-18 -23l-90 -66q-8 -6 -15 -6q-22 0 -22 27zM106 232h71v339h-25z" />
<glyph unicode="&#x1fd;" d="M17 109q0 48 33 84t106 40v48q0 113 -55 113q-5 0 -21 -2q0 -52 -27 -52q-11 0 -19.5 8.5t-8.5 24.5q0 24 18.5 43t58.5 19q53 0 79 -74q31 74 75 74q35 0 60 -52t25 -151q0 -20 -6 -27t-22 -7h-119q5 -78 25 -121t44 -43q28 0 40 69q5 19 19 19q7 0 13 -5.5t6 -13.5 q0 -26 -21.5 -67.5t-57.5 -41.5q-24 0 -44.5 21t-33.5 50q-12 -31 -37 -51t-52 -20q-35 0 -56.5 35.5t-21.5 79.5zM55 110q0 -30 12 -53t32 -23q24 0 43 25q14 21 14 77v59q-48 -1 -74.5 -26t-26.5 -59zM103 531q0 8 18 21l78 58q19 13 29 13q8 0 14 -7t6 -17q0 -9 -18 -23 l-90 -66q-8 -6 -15 -6q-22 0 -22 27zM195 235h107q-1 78 -14 118.5t-32 40.5q-21 0 -39 -42t-22 -117z" />
<glyph unicode="&#x1fe;" d="M34 306q0 78 1.5 125.5t8 86t14.5 57t26 31t37.5 15t53.5 2.5q30 0 50 -2l10 46q6 31 21 31q8 0 14 -5.5t6 -13.5q0 -1 -3 -13.5t-6.5 -29.5t-5.5 -27q25 -15 36 -46.5t16 -100.5q3 -46 3 -157q0 -78 -1.5 -125.5t-8 -86t-14.5 -57t-26 -31t-37.5 -15t-53.5 -2.5 q-30 0 -50 2l-10 -46q-6 -31 -21 -31q-8 0 -14 5.5t-6 13.5q0 1 3 13.5t6.5 29.5t5.5 27q-26 15 -36.5 46t-15.5 101q-3 46 -3 157zM72 305q0 -103 4.5 -159.5t9.5 -69.5t14 -24l115 528q-16 3 -40 3q-45 0 -65.5 -13.5t-28.5 -59.5q-9 -54 -9 -205zM103 702q0 8 18 21 l78 58q19 13 29 13q8 0 14 -7t6 -17t-18 -23l-90 -66q-8 -6 -15 -6q-22 0 -22 27zM134 31q16 -3 41 -3q45 0 65.5 13.5t28.5 59.5q9 54 9 205q0 103 -4.5 159.5t-9.5 69.5t-14 24z" />
<glyph unicode="&#x1ff;" d="M25 213q0 91 44.5 156.5t105.5 65.5q32 0 58 -18l51 130q9 22 21 22q8 0 14 -6t6 -14q-12 -31 -34 -88t-27 -70q61 -80 61 -178q0 -92 -45 -155.5t-105 -63.5q-28 0 -58 17l-56 -141q-6 -13 -16 -13q-19 0 -19 20q0 5 10 27l51 132q-62 78 -62 177zM63 213q0 -87 39 -138 l118 306q-30 13 -45 13q-47 0 -79.5 -53.5t-32.5 -127.5zM103 531q0 8 18 21l78 58q19 13 29 13q8 0 14 -7t6 -17q0 -9 -18 -23l-90 -66q-8 -6 -15 -6q-22 0 -22 27zM131 48q24 -14 44 -14q47 0 79 52t32 127q0 85 -37 141z" />
<glyph unicode="&#x200;" d="M14 20q0 9 6 14t12.5 5.5t20.5 0.5l87 549q4 23 11 29.5t25 6.5q14 0 22.5 -6.5t11.5 -29.5l87 -549q13 0 19.5 -0.5t13 -5.5t6.5 -14q0 -20 -29 -20h-67q-28 0 -28 20q0 9 6.5 14t13.5 5.5t21 0.5l-21 135h-114l-21 -135q14 0 21 -0.5t13.5 -5.5t6.5 -14q0 -20 -28 -20 h-68q-28 0 -28 20zM38 775q0 22 15 22q19 0 28 -13l45 -59q14 -17 14 -26q0 -21 -18 -23q-11 -3 -18 7l-52 67q-14 20 -14 25zM124 216h102l-51 349zM171 775q0 22 15 22q19 0 28 -13l45 -59q14 -17 14 -26q0 -21 -18 -23q-11 -3 -18 7l-52 67q-14 20 -14 25z" />
<glyph unicode="&#x201;" d="M34 119q0 76 80 115q48 23 126 27q0 28 -1 42t-7 32.5t-18 32.5q-23 26 -63 26q-18 0 -26 -1q-16 -2 -16 -15q-1 -38 -28 -38q-11 0 -19.5 8.5t-8.5 24.5q0 62 97 62q64 0 99 -45t35 -107v-234q14 -9 43 -9q28 0 28 -20t-33 -20q-61 0 -76 36q-42 -42 -103 -42 q-46 0 -77.5 36t-31.5 89zM57 602q0 22 15 22q19 0 28 -13l45 -59q14 -18 14 -26q0 -21 -18 -23q-11 -3 -18 7l-52 67q-14 20 -14 25zM79 119q0 -35 19.5 -60t52.5 -25q35 0 60 18q19 13 24 30.5t5 43.5v99q-67 0 -114 -30t-47 -76zM190 602q0 22 15 22q19 0 28 -13l45 -59 q14 -18 14 -26q0 -21 -18 -23q-11 -3 -18 7l-52 67q-14 20 -14 25z" />
<glyph unicode="&#x204;" d="M15 20q0 20 28 20h19v531h-19q-28 0 -28 20t28 20h254q16 0 22 -6.5t6 -26.5v-68q0 -32 -23 -32q-22 0 -22 32v61h-173v-234h94q0 32 4 44t18 12q22 0 22 -32v-87q0 -32 -22 -32q-14 0 -18 11.5t-4 43.5h-94v-257h188v76q0 33 23 33q22 0 22 -33v-83q0 -20 -6 -26.5 t-22 -6.5h-269q-28 0 -28 20zM57 775q0 22 15 22q19 0 28 -13l45 -59q14 -17 14 -26q0 -21 -18 -23q-11 -3 -18 7l-52 67q-14 20 -14 25zM190 775q0 22 15 22q19 0 28 -13l45 -59q14 -17 14 -26q0 -21 -18 -23q-11 -3 -18 7l-52 67q-14 20 -14 25z" />
<glyph unicode="&#x205;" d="M34 215q0 91 43.5 155.5t102.5 64.5q62 0 98 -59t36 -149q0 -13 -5 -20t-9.5 -8t-13.5 -1h-207q7 -73 38.5 -118.5t75.5 -45.5q57 0 77 65q3 13 7.5 18t13.5 5q12 0 17.5 -6.5t5.5 -12.5q0 -29 -33 -69t-90 -40q-64 0 -110.5 64t-46.5 157zM57 602q0 22 15 22 q19 0 28 -13l45 -59q14 -18 14 -26q0 -21 -18 -23q-11 -3 -18 7l-52 67q-14 20 -14 25zM79 235h190q-7 159 -89 159q-35 0 -64 -41.5t-37 -117.5zM190 602q0 22 15 22q19 0 28 -13l45 -59q14 -18 14 -26q0 -21 -18 -23q-11 -3 -18 7l-52 67q-14 20 -14 25z" />
<glyph unicode="&#x208;" d="M53 20q0 20 28 20h72v531h-72q-28 0 -28 20t28 20h189q27 0 27 -20t-27 -20h-73v-531h73q27 0 27 -20t-27 -20h-189q-28 0 -28 20zM57 775q0 22 15 22q19 0 28 -13l45 -59q14 -17 14 -26q0 -21 -18 -23q-11 -3 -18 7l-52 67q-14 20 -14 25zM190 775q0 22 15 22 q19 0 28 -13l45 -59q14 -17 14 -26q0 -21 -18 -23q-11 -3 -18 7l-52 67q-14 20 -14 25z" />
<glyph unicode="&#x209;" d="M52 20q0 20 29 20h80v345h-75q-28 0 -28 20t28 20h92q16 0 22 -6.5t6 -25.5v-353h70q27 0 27 -20t-27 -20h-195q-29 0 -29 20zM57 602q0 22 15 22q19 0 28 -13l45 -59q14 -18 14 -26q0 -21 -18 -23q-11 -3 -18 7l-52 67q-14 20 -14 25zM190 602q0 22 15 22q19 0 28 -13 l45 -59q14 -18 14 -26q0 -21 -18 -23q-11 -3 -18 7l-52 67q-14 20 -14 25z" />
<glyph unicode="&#x20c;" d="M34 306q0 216 22 266q14 31 40.5 41t78.5 10t78.5 -10t39.5 -41q23 -52 23 -267q0 -214 -23 -266q-13 -31 -39.5 -41t-78.5 -10t-78.5 10t-40.5 41q-22 50 -22 267zM57 775q0 22 15 22q19 0 28 -13l45 -59q14 -17 14 -26q0 -21 -18 -23q-11 -3 -18 7l-52 67 q-14 20 -14 25zM78 314q0 -159 10 -213q6 -39 24 -56t63 -17q46 0 64 18t24 60q8 58 8 208q0 151 -8 202q-7 40 -26 53.5t-62 13.5q-44 0 -63 -14.5t-26 -56.5q-8 -51 -8 -198zM190 775q0 22 15 22q19 0 28 -13l45 -59q14 -17 14 -26q0 -21 -18 -23q-11 -3 -18 7l-52 67 q-14 20 -14 25z" />
<glyph unicode="&#x20d;" d="M36 213q0 93 41.5 157.5t97.5 64.5t97.5 -65t41.5 -157q0 -93 -41.5 -156t-97.5 -63t-97.5 63t-41.5 156zM57 602q0 22 15 22q19 0 28 -13l45 -59q14 -18 14 -26q0 -21 -18 -23q-11 -3 -18 7l-52 67q-14 20 -14 25zM80 220q0 -77 27.5 -131.5t67.5 -54.5t67 54t27 132 q0 75 -27.5 124.5t-66.5 49.5q-40 0 -67.5 -49.5t-27.5 -124.5zM190 602q0 22 15 22q19 0 28 -13l45 -59q14 -18 14 -26q0 -21 -18 -23q-11 -3 -18 7l-52 67q-14 20 -14 25z" />
<glyph unicode="&#x210;" d="M12 20q0 20 27 20h16v531h-16q-27 0 -27 20t27 20h120q57 0 95 -49t38 -114q0 -83 -69 -143q34 -38 44 -71q7 -23 7 -92q0 -31 0.5 -46t2 -34t5.5 -26.5t11 -7.5q16 0 16 58q0 8 5.5 16t16.5 8q22 0 22 -24q0 -33 -15.5 -65.5t-44.5 -32.5q-34 0 -51 42q-13 35 -13 127 q0 78 -16 100q-23 29 -57 29h-56v-246h16q28 0 28 -20t-28 -20h-77q-27 0 -27 20zM22 775q0 22 15 22q19 0 28 -13l45 -59q14 -17 14 -26q0 -21 -18 -23q-11 -3 -18 7l-52 67q-14 20 -14 25zM100 326h52q47 0 71.5 38t24.5 84q0 47 -24.5 85t-71.5 38h-52v-245zM155 775 q0 22 15 22q19 0 28 -13l45 -59q14 -17 14 -26q0 -21 -18 -23q-11 -3 -18 7l-52 67q-14 20 -14 25z" />
<glyph unicode="&#x211;" d="M19 20q0 20 28 20h54v345h-54q-28 0 -28 20t28 20h71q16 0 22 -6.5t6 -25.5v-51q49 89 119 89q64 0 64 -51q0 -14 -8 -22.5t-18 -8.5q-4 0 -9 2t-11 12t-7 28h-11q-49 0 -84 -56.5t-35 -149.5v-145h74q27 0 27 -20t-27 -20h-173q-28 0 -28 20zM57 602q0 22 15 22 q19 0 28 -13l45 -59q14 -18 14 -26q0 -21 -18 -23q-11 -3 -18 7l-52 67q-14 20 -14 25zM190 602q0 22 15 22q19 0 28 -13l45 -59q14 -18 14 -26q0 -21 -18 -23q-11 -3 -18 7l-52 67q-14 20 -14 25z" />
<glyph unicode="&#x214;" d="M0 591q0 20 28 20h84q28 0 28 -20t-28 -20h-20v-365q0 -82 25.5 -130t57.5 -48t57 47.5t25 130.5v365h-19q-28 0 -28 20t28 20h84q28 0 28 -20t-28 -20h-20v-371q0 -89 -38 -150.5t-89 -61.5t-89 61.5t-38 150.5v371h-20q-28 0 -28 20zM57 775q0 22 15 22q19 0 28 -13 l45 -59q14 -17 14 -26q0 -21 -18 -23q-11 -3 -18 7l-52 67q-14 20 -14 25zM190 775q0 22 15 22q19 0 28 -13l45 -59q14 -17 14 -26q0 -21 -18 -23q-11 -3 -18 7l-52 67q-14 20 -14 25z" />
<glyph unicode="&#x215;" d="M5 405q0 20 28 20h46q16 0 22 -6.5t6 -25.5v-280q0 -14 0.5 -22t3.5 -20.5t8.5 -19t16.5 -12t27 -5.5q31 0 55.5 28t24.5 89v234h-30q-27 0 -27 20t27 20h47q16 0 21.5 -6t5.5 -26v-353h30q27 0 27 -20t-27 -20h-47q-8 0 -12.5 1t-10 10.5t-5.5 26.5q-37 -44 -84 -44 q-96 0 -96 114v277h-29q-28 0 -28 20zM57 602q0 22 15 22q19 0 28 -13l45 -59q14 -18 14 -26q0 -21 -18 -23q-11 -3 -18 7l-52 67q-14 20 -14 25zM190 602q0 22 15 22q19 0 28 -13l45 -59q14 -18 14 -26q0 -21 -18 -23q-11 -3 -18 7l-52 67q-14 20 -14 25z" />
<glyph unicode="&#x218;" d="M31 17v142q0 31 22 31t22 -29q3 -66 34.5 -99.5t80.5 -33.5q41 0 63.5 38.5t22.5 88.5q0 51 -20 87q-12 21 -26 29.5t-56 21.5q-59 21 -76.5 31.5t-38.5 41.5q-28 42 -28 98q0 66 36.5 112.5t90.5 46.5q60 0 99 -51q6 34 10 42.5t15 8.5q19 0 19 -29v-143q0 -30 -23 -30 q-13 0 -17 7.5t-6 24.5q-13 130 -98 130q-37 0 -60.5 -34.5t-23.5 -80.5q0 -37 14.5 -66t38.5 -42l49 -17q56 -20 74 -31t38 -41q3 -4 9.5 -19t14.5 -43t8 -50q0 -69 -36.5 -120t-92.5 -51q-71 0 -116 51q-6 -34 -10 -42.5t-14 -8.5q-19 0 -19 29zM134 -218l1 4 q26 14 37.5 35.5t15.5 58.5l-12 -5q-12 0 -20.5 9.5t-8.5 25.5q0 13 8.5 23t20.5 10q16 0 28 -18t12 -45q0 -36 -14.5 -63.5t-28.5 -38t-23 -10.5q-5 0 -10.5 4t-5.5 10z" />
<glyph unicode="&#x219;" d="M45 23v107q0 30 22 30q12 0 16 -6t7 -20q11 -54 33 -77t57 -23q47 0 68 24.5t21 59.5q0 67 -84 87q-48 12 -66.5 18.5t-33.5 19.5q-40 31 -40 81q0 12 2.5 24.5t11 28.5t22 28.5t38 21t55.5 8.5q46 0 75 -25q4 25 21 25q19 0 19 -30v-78q0 -30 -23 -30q-21 0 -22 21 q-1 15 -2.5 24.5t-8 23.5t-21.5 21t-39 7q-47 0 -68 -21.5t-21 -48.5q0 -32 25.5 -49t79.5 -30q20 -4 33.5 -9t37 -18.5t36.5 -39t13 -60.5q0 -7 -1 -17t-8.5 -30.5t-20 -36t-38.5 -28t-61 -12.5q-57 0 -91 42q-5 -20 -9.5 -29.5t-7.5 -11t-8 -1.5q-19 0 -19 29zM134 -218 l1 4q26 14 37.5 35.5t15.5 58.5l-12 -5q-12 0 -20.5 9.5t-8.5 25.5q0 13 8.5 23t20.5 10q16 0 28 -18t12 -45q0 -36 -14.5 -63.5t-28.5 -38t-23 -10.5q-5 0 -10.5 4t-5.5 10z" />
<glyph unicode="&#x21a;" d="M13 510v68q0 20 6.5 26.5t21.5 6.5h268q15 0 21 -6.5t6 -26.5v-68q0 -32 -22 -32t-22 32v61h-95v-531h35q27 0 27 -20t-27 -20h-113q-28 0 -28 20t28 20h34v531h-95v-61q0 -32 -23 -32q-22 0 -22 32zM134 -218l1 4q26 14 37.5 35.5t15.5 58.5l-12 -5q-12 0 -20.5 9.5 t-8.5 25.5q0 13 8.5 23t20.5 10q16 0 28 -18t12 -45q0 -36 -14.5 -63.5t-28.5 -38t-23 -10.5q-5 0 -10.5 4t-5.5 10z" />
<glyph unicode="&#x21b;" d="M12 405q0 20 29 20h60v95q0 32 23 32q22 0 22 -32v-95h114q27 0 27 -20t-27 -20h-114v-265q0 -86 55 -86q19 0 37.5 18.5t19.5 63.5q0 35 22 35q23 0 23 -34q0 -66 -34.5 -94.5t-72.5 -28.5q-41 0 -68 29t-27 92v270h-61q-28 0 -28 20zM134 -218l1 4q26 14 37.5 35.5 t15.5 58.5l-12 -5q-12 0 -20.5 9.5t-8.5 25.5q0 13 8.5 23t20.5 10q16 0 28 -18t12 -45q0 -36 -14.5 -63.5t-28.5 -38t-23 -10.5q-5 0 -10.5 4t-5.5 10z" />
<glyph unicode="&#x258;" d="M34 103q0 6 5.5 12.5t17.5 6.5q9 0 13.5 -5t7.5 -18q20 -65 77 -65q44 0 75.5 45.5t38.5 118.5h-207q-9 0 -13.5 1t-9.5 8t-5 20q0 90 36 149t98 59q59 0 102.5 -64.5t43.5 -155.5q0 -93 -46.5 -157t-110.5 -64q-57 0 -90 40t-33 69zM79 235h190q-8 76 -37 117.5 t-64 41.5q-82 0 -89 -159z" />
<glyph unicode="&#x259;" d="M34 202q0 13 5 20t9.5 8t13.5 1h207q-7 73 -38.5 118.5t-75.5 45.5q-57 0 -77 -65q-3 -13 -7.5 -18t-13.5 -5q-12 0 -17.5 6.5t-5.5 12.5q0 29 33 69t90 40q64 0 110.5 -64t46.5 -157q0 -91 -43.5 -155.5t-102.5 -64.5q-62 0 -98 59t-36 149zM79 194q7 -159 89 -159 q35 0 64 41.5t37 117.5h-190z" />
<glyph unicode="&#x2be;" horiz-adv-x="515" d="M156 492q0 20 23 52t67 32q46 0 79 -47.5t33 -115.5q0 -58 -30.5 -111t-88.5 -53q-77 0 -77 49q0 29 25 29q4 0 7.5 -0.5t10 -8.5t7.5 -23q0 -5 1 -5t10 -1t17 -1q23 0 39.5 13.5t23.5 35.5t10 40.5t3 35.5q0 52 -21.5 88t-53.5 36t-45 -47q-3 -15 -19 -15q-21 0 -21 17z " />
<glyph unicode="&#x2bf;" horiz-adv-x="515" d="M156 412q0 58 30.5 111t88.5 53q77 0 77 -49q0 -29 -25 -29q-4 0 -7.5 0.5t-10 8.5t-7.5 23q0 4 -1 5q-1 0 -10 1t-17 1q-23 0 -39.5 -13.5t-23.5 -35.5t-10 -40.5t-3 -35.5q0 -52 21.5 -88t53.5 -36t45 47q3 15 19 15q21 0 21 -17q0 -20 -23 -52t-67 -32q-46 0 -79 47.5 t-33 115.5z" />
<glyph unicode="&#x2c6;" d="M73 527q0 7 12 19l74 68q15 13 30 0l74 -68q12 -12 12 -19q0 -20 -17 -20q-11 0 -20 8l-64 57l-64 -57q-9 -8 -20 -8q-17 0 -17 20z" />
<glyph unicode="&#x2c7;" d="M73 600q0 20 17 20q11 0 20 -8l64 -57l64 57q9 8 20 8q17 0 17 -20q0 -7 -12 -19l-74 -68q-15 -13 -30 0l-74 68q-12 12 -12 19z" />
<glyph unicode="&#x2d8;" d="M55 590q0 22 19 22q18 0 21 -24q1 -11 4.5 -16t21 -9.5t54.5 -4.5q42 0 60.5 6t19.5 21q5 27 20 27q20 0 20 -22q0 -26 -11.5 -42.5t-33.5 -22.5t-36.5 -7.5t-38.5 -1.5t-38.5 1.5t-36.5 7.5t-33.5 22.5t-11.5 42.5z" />
<glyph unicode="&#x2d9;" d="M144 564q0 16 9.5 26.5t21.5 10.5t21.5 -10.5t9.5 -26.5t-9.5 -26.5t-21.5 -10.5t-21.5 10.5t-9.5 26.5z" />
<glyph unicode="&#x2da;" horiz-adv-x="515" d="M202 554q0 23 17 42.5t38 19.5t38 -19.5t17 -42.5t-17 -42.5t-38 -19.5t-38 19.5t-17 42.5zM229 554q0 -15 7 -27.5t21 -12.5t21 12.5t7 27.5t-7 27.5t-21 12.5t-21 -12.5t-7 -27.5z" />
<glyph unicode="&#x2db;" d="M104 -121q0 33 17 74.5t37 59.5h24q-17 -19 -27 -59t-10 -77q0 -21 9.5 -35.5t21.5 -14.5q20 0 38 38q3 5 11.5 7.5t14.5 -2.5q9 -9 4 -18q-30 -62 -71 -62q-29 0 -49 28t-20 61z" />
<glyph unicode="&#x2dc;" d="M55 533q0 6 10 18q20 23 29.5 33.5t23.5 20t25 9.5q25 0 51 -44q9 -14 14 -14q15 0 54 52q6 6 12 6q7 0 13.5 -5.5t6.5 -14.5q0 -6 -9 -18q-20 -23 -29.5 -33.5t-23.5 -20t-25 -9.5q-25 0 -51 44q-8 14 -15 14q-15 0 -54 -52q-5 -6 -12 -6t-13.5 6t-6.5 14z" />
<glyph unicode="&#x2dd;" d="M58 526q0 8 14 26l45 59q9 13 28 13q15 0 15 -22q0 -5 -14 -25l-52 -67q-7 -10 -18 -7q-18 2 -18 23zM191 526q0 8 14 26l45 59q9 13 28 13q15 0 15 -22q0 -5 -14 -25l-52 -67q-7 -10 -18 -7q-18 2 -18 23z" />
<glyph unicode="&#x300;" horiz-adv-x="0" d="M-248 599q0 10 6 17t14 7q10 0 29 -13l78 -58q18 -13 18 -21q0 -27 -22 -27q-7 0 -15 6l-90 66q-18 14 -18 23z" />
<glyph unicode="&#x301;" horiz-adv-x="0" d="M-247 531q0 8 18 21l78 58q19 13 29 13q8 0 14 -7t6 -17q0 -9 -18 -23l-90 -66q-8 -6 -15 -6q-22 0 -22 27z" />
<glyph unicode="&#x302;" horiz-adv-x="0" d="M-277 527q0 7 12 19l74 68q15 13 30 0l74 -68q12 -12 12 -19q0 -20 -17 -20q-11 0 -20 8l-64 57l-64 -57q-9 -8 -20 -8q-17 0 -17 20z" />
<glyph unicode="&#x303;" horiz-adv-x="0" d="M-295 533q0 6 10 18q20 23 29.5 33.5t23.5 20t25 9.5q25 0 51 -44q9 -14 14 -14q15 0 54 52q6 6 12 6q7 0 13.5 -5.5t6.5 -14.5q0 -6 -9 -18q-20 -23 -29.5 -33.5t-23.5 -20t-25 -9.5q-25 0 -51 44q-8 14 -15 14q-15 0 -54 -52q-5 -6 -12 -6t-13.5 6t-6.5 14z" />
<glyph unicode="&#x304;" horiz-adv-x="0" d="M-305 564q0 20 27 20h205q28 0 28 -21q0 -20 -28 -20h-204q-28 0 -28 21z" />
<glyph unicode="&#x306;" horiz-adv-x="0" d="M-295 590q0 22 19 22q18 0 21 -24q1 -11 4.5 -16t21 -9.5t54.5 -4.5q42 0 60.5 6t19.5 21q5 27 20 27q20 0 20 -22q0 -26 -11.5 -42.5t-33.5 -22.5t-36.5 -7.5t-38.5 -1.5t-38.5 1.5t-36.5 7.5t-33.5 22.5t-11.5 42.5z" />
<glyph unicode="&#x307;" horiz-adv-x="0" d="M-206 564q0 16 9.5 26.5t21.5 10.5t21.5 -10.5t9.5 -26.5t-9.5 -26.5t-21.5 -10.5t-21.5 10.5t-9.5 26.5z" />
<glyph unicode="&#x308;" horiz-adv-x="0" d="M-255 563q0 14 9 23.5t20 9.5q10 0 18.5 -9.5t8.5 -23.5q0 -13 -8.5 -22t-18.5 -9q-11 0 -20 8.5t-9 22.5zM-150 563q0 14 9 23.5t19 9.5t19 -9.5t9 -23.5q0 -13 -9 -22t-19 -9t-19 9t-9 22z" />
<glyph unicode="&#x309;" horiz-adv-x="0" d="M-242 602q0 33 19 52.5t43 19.5q31 0 51.5 -19.5t20.5 -53.5q0 -26 -22 -48q-33 -27 -33 -64v-19q0 -16 -17 -16q-18 0 -18 16v19q0 49 50 91q6 5 6 21q0 40 -38 40q-11 0 -18.5 -7t-7.5 -17v-16q0 -6 -5.5 -12t-12.5 -6q-18 0 -18 19z" />
<glyph unicode="&#x30a;" horiz-adv-x="0" d="M-230 554q0 23 17 42.5t38 19.5t38 -19.5t17 -42.5t-17 -42.5t-38 -19.5t-38 19.5t-17 42.5zM-203 554q0 -15 7 -27.5t21 -12.5t21 12.5t7 27.5t-7 27.5t-21 12.5t-21 -12.5t-7 -27.5z" />
<glyph unicode="&#x30b;" horiz-adv-x="0" d="M-292 526q0 8 14 26l45 59q9 13 28 13q15 0 15 -22q0 -5 -14 -25l-52 -67q-7 -10 -18 -7q-18 2 -18 23zM-159 526q0 8 14 26l45 59q9 13 28 13q15 0 15 -22q0 -5 -14 -25l-52 -67q-7 -10 -18 -7q-18 2 -18 23z" />
<glyph unicode="&#x30c;" horiz-adv-x="0" d="M-277 600q0 20 17 20q11 0 20 -8l64 -57l64 57q9 8 20 8q17 0 17 -20q0 -7 -12 -19l-74 -68q-15 -13 -30 0l-74 68q-12 12 -12 19z" />
<glyph unicode="&#x30f;" horiz-adv-x="0" d="M-293 602q0 22 15 22q19 0 28 -13l45 -59q14 -18 14 -26q0 -21 -18 -23q-11 -3 -18 7l-52 67q-14 20 -14 25zM-160 602q0 22 15 22q19 0 28 -13l45 -59q14 -18 14 -26q0 -21 -18 -23q-11 -3 -18 7l-52 67q-14 20 -14 25z" />
<glyph unicode="&#x311;" horiz-adv-x="0" d="M-295 538q0 26 11.5 42.5t33.5 22.5t36.5 7.5t38.5 1.5t38.5 -1.5t36.5 -7.5t33.5 -22.5t11.5 -42.5q0 -22 -19 -22q-18 0 -21 24q-1 11 -4.5 16t-21 9.5t-54.5 4.5q-42 0 -60.5 -6t-19.5 -21q-5 -27 -20 -27q-20 0 -20 22z" />
<glyph unicode="&#x323;" horiz-adv-x="0" d="M-206 -170q0 16 9.5 26.5t21.5 10.5t21.5 -10.5t9.5 -26.5t-9.5 -26t-21.5 -10t-21.5 10t-9.5 26z" />
<glyph unicode="&#x326;" horiz-adv-x="0" d="M-216 -218l1 4q26 14 37.5 35.5t15.5 58.5l-12 -5q-12 0 -20.5 9.5t-8.5 25.5q0 13 8.5 23t20.5 10q16 0 28 -18t12 -45q0 -36 -14.5 -63.5t-28.5 -38t-23 -10.5q-5 0 -10.5 4t-5.5 10z" />
<glyph unicode="&#x32e;" horiz-adv-x="0" d="M-295 -143q0 22 19 22q18 0 21 -24q1 -11 4.5 -16t21 -9.5t54.5 -4.5q42 0 60.5 5.5t19.5 21.5q5 27 20 27q20 0 20 -22q0 -26 -11.5 -42.5t-33.5 -22.5t-36.5 -7.5t-38.5 -1.5t-38.5 1.5t-36.5 7.5t-33.5 22.5t-11.5 42.5z" />
<glyph unicode="&#x32f;" horiz-adv-x="0" d="M-295 -195q0 26 11.5 42.5t33.5 22.5t36.5 7.5t38.5 1.5t38.5 -1.5t36.5 -7.5t33.5 -22.5t11.5 -42.5q0 -22 -19 -22q-18 0 -21 24q-1 11 -4.5 16t-21 9.5t-54.5 4.5q-42 0 -60.5 -5.5t-19.5 -21.5q-5 -27 -20 -27q-20 0 -20 22z" />
<glyph unicode="&#x330;" horiz-adv-x="0" d="M-295 -199q0 5 10 18q20 23 29.5 33.5t23.5 20t25 9.5q25 0 51 -44q8 -14 14 -14q15 0 54 52q6 6 12 6q7 0 13.5 -5.5t6.5 -14.5q0 -7 -9 -18q-20 -23 -29.5 -33.5t-23.5 -20t-25 -9.5q-25 0 -51 44q-9 14 -15 14q-15 0 -54 -52q-5 -6 -12 -6t-13.5 6t-6.5 14z" />
<glyph unicode="&#x331;" horiz-adv-x="0" d="M-305 -168q0 20 27 20h205q28 0 28 -21q0 -20 -28 -20h-204q-28 0 -28 21z" />
<glyph unicode="&#x332;" horiz-adv-x="0" d="M-305 -168q0 20 27 20h205q28 0 28 -21q0 -20 -28 -20h-204q-28 0 -28 21z" />
<glyph unicode="&#x393;" d="M19 20q0 20 28 20h24v531h-24q-28 0 -28 20t28 20h256q15 0 21 -6.5t6 -26.5v-68q0 -32 -23 -32q-21 0 -21 32v61h-171v-531h37q28 0 28 -20t-28 -20h-105q-28 0 -28 20z" />
<glyph unicode="&#x394;" d="M19 9l1 8l118 572q5 23 12.5 29.5t24.5 6.5q16 0 23.5 -6.5t12.5 -29.5l119 -577q-4 -12 -23 -12h-265q-20 0 -23 9zM70 46h210l-105 518z" />
<glyph unicode="&#x398;" d="M34 306q0 78 1.5 125.5t8 86t14.5 57t26 31t37.5 15t53.5 2.5t53.5 -2.5t37.5 -15t26 -31t14.5 -57.5t8 -86.5t1.5 -125.5t-1.5 -125.5t-8 -86t-14.5 -57t-26 -31t-37.5 -15t-53.5 -2.5t-53.5 2.5t-37.5 15t-26 31t-14.5 57.5t-8 86.5t-1.5 125.5zM78 305q0 -140 7 -193 q6 -47 24 -65.5t66 -18.5t65.5 18t23.5 65q7 53 7 195q0 140 -7 193q-6 48 -23.5 66t-65.5 18t-66 -18t-24 -65q-7 -53 -7 -195zM106 282v47q0 32 22 32t22 -32h49q0 32 22 32q23 0 23 -32v-47q0 -32 -23 -32q-22 0 -22 32h-49q0 -32 -22 -32t-22 32z" />
<glyph unicode="&#x39b;" d="M15 20q0 9 6 14t12 5.5t19 0.5l87 548q4 23 10.5 30t25.5 7q8 0 12 -0.5t9.5 -4t9 -11.5t5.5 -21l87 -548q12 0 18 -0.5t12 -5.5t6 -14q0 -20 -27 -20h-70q-28 0 -28 20t28 20h17l-78 519h-1l-79 -519h17q28 0 28 -20t-28 -20h-70q-28 0 -28 20z" />
<glyph unicode="&#x39e;" d="M17 33v19q0 33 22 33q14 0 18.5 -11t4.5 -36h226q0 25 4.5 36t17.5 11q22 0 22 -33v-19q0 -20 -6 -26.5t-21 -6.5h-259q-16 0 -22.5 6t-6.5 27zM20 564v14q0 20 6 26.5t22 6.5h254q15 0 21 -6.5t6 -26.5v-14q0 -32 -22 -32t-22 41h-220q0 -41 -22 -41q-23 0 -23 32z M70 297v43q0 33 23 33q22 0 22 -36h120q0 36 22 36q23 0 23 -33v-43q0 -33 -23 -33q-22 0 -22 35h-120q0 -35 -22 -35q-23 0 -23 33z" />
<glyph unicode="&#x3a0;" d="M12 20q0 20 27 20h16v531h-16q-27 0 -27 20t27 20h271q28 0 28 -20t-28 -20h-16v-531h16q28 0 28 -20t-28 -20h-76q-28 0 -28 20t28 20h16v531h-150v-531h16q28 0 28 -20t-28 -20h-77q-27 0 -27 20z" />
<glyph unicode="&#x3a3;" d="M23 19q0 2 0.5 3t2 3.5t3.5 6.5l105 273l-106 272q-5 13 -5 14q0 20 28 20h248q16 0 22 -6.5t6 -26.5v-68q0 -32 -23 -32q-22 0 -22 32v61h-206l103 -265q-1 -4 -4 -13l-98 -251h205v61q0 32 23 32q22 0 22 -32v-70q0 -20 -6.5 -26.5t-21.5 -6.5h-248q-28 0 -28 19z" />
<glyph unicode="&#x3a5;" d="M21 499q0 45 22 84.5t56 39.5q62 0 76 -149h1q10 149 75 149q34 0 56 -39.5t22 -84.5q0 -23 -22 -23q-23 0 -23 26q0 90 -34 90q-53 0 -53 -233v-319h23q29 0 29 -20t-29 -20h-90q-28 0 -28 20t28 20h23v319q0 91 -8 146q-10 87 -45 87q-34 0 -34 -90q0 -26 -23 -26 q-22 0 -22 23z" />
<glyph unicode="&#x3a6;" d="M23 306q0 53 36 96t94 52v117h-27q-28 0 -28 20t28 20h99q27 0 27 -20t-27 -20h-28v-117q58 -10 94 -52.5t36 -96.5q0 -52 -36 -95.5t-94 -52.5v-117h28q27 0 27 -20t-27 -20h-99q-28 0 -28 20t28 20h27v117q-57 9 -93.5 52t-36.5 97zM68 305q0 -40 24.5 -70.5 t60.5 -37.5v217q-35 -7 -60 -37t-25 -72zM197 197q34 7 59.5 37t25.5 72q0 40 -25 70.5t-60 37.5v-217z" />
<glyph unicode="&#x3a8;" d="M21 460q0 20 23 20q50 0 50 -107q0 -149 59 -173v371h-23q-28 0 -28 20t28 20h90q29 0 29 -20t-29 -20h-23v-371q58 24 58 171q0 109 50 109q24 0 24 -20q0 -12 -12 -19q-17 -5 -17 -71q-2 -187 -103 -212v-118h23q29 0 29 -20t-29 -20h-90q-28 0 -28 20t28 20h23v118 q-54 14 -78.5 72t-24.5 131q0 75 -18 81q-11 4 -11 18z" />
<glyph unicode="&#x3a9;" d="M17 33v21q0 33 20 33q19 0 19 -47h45q-5 71 -37 170q-41 136 -41 199q0 91 45.5 152.5t106.5 61.5t106.5 -61.5t45.5 -152.5q0 -66 -39 -191q-33 -102 -40 -178h46q0 47 19 47t19 -33v-21q0 -20 -6 -26.5t-21 -6.5h-68q-29 0 -29 26q0 63 43 204q31 114 31 179 q0 74 -31 124t-76 50t-76 -50t-31 -124q0 -68 36.5 -196t36.5 -187q0 -26 -27 -26h-68q-16 0 -22.5 6t-6.5 27z" />
<glyph unicode="&#xe3f;" d="M13 20q0 20 28 20h18v531h-18q-28 0 -28 20t28 20h108v70q0 9 6.5 14.5t13.5 5.5t13.5 -5.5t6.5 -14.5v-70h4q53 0 85.5 -46t32.5 -104q0 -98 -79 -142q94 -35 94 -156q0 -64 -33 -113.5t-86 -49.5h-18v-70q0 -9 -6.5 -14.5t-13.5 -5.5t-13.5 5.5t-6.5 14.5v70h-108 q-28 0 -28 20zM103 40h46v258h-46v-258zM103 339h46v232h-46v-232zM189 40h3q45 0 67 38.5t22 86.5q0 18 -3 37t-11 42.5t-26.5 38.5t-44.5 15h-7v-258zM189 339q38 5 58 42t20 79q0 40 -17.5 75.5t-58.5 35.5h-2v-232z" />
<glyph unicode="&#x1e0c;" d="M10 20q0 20 28 20h14v531h-14q-28 0 -28 20t28 20h139q66 0 108.5 -93t42.5 -218q0 -122 -42.5 -211t-107.5 -89h-140q-28 0 -28 20zM97 40h68q56 0 87 78t31 183q0 65 -11.5 124t-39.5 102.5t-68 43.5h-67v-531zM100 -170q0 16 9.5 26.5t21.5 10.5t21.5 -10.5t9.5 -26.5 t-9.5 -26t-21.5 -10t-21.5 10t-9.5 26z" />
<glyph unicode="&#x1e0d;" d="M21 212q0 93 41.5 156t96.5 63q47 0 84 -52v192h-30q-27 0 -27 20t27 20h47q15 0 21 -6.5t6 -26.5v-538h30q27 0 27 -20t-27 -20h-47q-18 0 -22.5 10.5t-4.5 47.5q-37 -64 -90 -64t-92.5 63.5t-39.5 154.5zM65 212q0 -74 26.5 -126t65.5 -52t62.5 49.5t23.5 102.5v81 q0 46 -22.5 85t-56.5 39q-41 0 -70 -51t-29 -128zM144 -170q0 16 9.5 26.5t21.5 10.5t21.5 -10.5t9.5 -26.5t-9.5 -26t-21.5 -10t-21.5 10t-9.5 26z" />
<glyph unicode="&#x1e0e;" d="M1 -168q0 20 27 20h205q28 0 28 -21q0 -20 -28 -20h-204q-28 0 -28 21zM10 20q0 20 28 20h14v531h-14q-28 0 -28 20t28 20h139q66 0 108.5 -93t42.5 -218q0 -122 -42.5 -211t-107.5 -89h-140q-28 0 -28 20zM97 40h68q56 0 87 78t31 183q0 65 -11.5 124t-39.5 102.5 t-68 43.5h-67v-531z" />
<glyph unicode="&#x1e0f;" d="M21 212q0 93 41.5 156t96.5 63q47 0 84 -52v192h-30q-27 0 -27 20t27 20h47q15 0 21 -6.5t6 -26.5v-538h30q27 0 27 -20t-27 -20h-47q-18 0 -22.5 10.5t-4.5 47.5q-37 -64 -90 -64t-92.5 63.5t-39.5 154.5zM45 -168q0 20 27 20h205q28 0 28 -21q0 -20 -28 -20h-204 q-28 0 -28 21zM65 212q0 -74 26.5 -126t65.5 -52t62.5 49.5t23.5 102.5v81q0 46 -22.5 85t-56.5 39q-41 0 -70 -51t-29 -128z" />
<glyph unicode="&#x1e24;" d="M12 20q0 20 27 20h16v531h-16q-27 0 -27 20t27 20h77q28 0 28 -20t-28 -20h-16v-232h150v232h-16q-28 0 -28 20t28 20h76q28 0 28 -20t-28 -20h-16v-531h16q28 0 28 -20t-28 -20h-76q-28 0 -28 20t28 20h16v258h-150v-258h16q28 0 28 -20t-28 -20h-77q-27 0 -27 20z M144 -170q0 16 9.5 26.5t21.5 10.5t21.5 -10.5t9.5 -26.5t-9.5 -26t-21.5 -10t-21.5 10t-9.5 26z" />
<glyph unicode="&#x1e25;" d="M5 20q0 20 28 20h29v531h-29q-28 0 -28 20t28 20h46q16 0 22 -6.5t6 -26.5v-206q35 59 91 59q89 0 89 -138v-253h30q27 0 27 -20t-27 -20h-104q-27 0 -27 20t27 20h30v248q0 54 -9.5 78.5t-40.5 24.5q-34 0 -60 -40.5t-26 -113.5v-197h29q28 0 28 -20t-28 -20h-103 q-28 0 -28 20zM144 -170q0 16 9.5 26.5t21.5 10.5t21.5 -10.5t9.5 -26.5t-9.5 -26t-21.5 -10t-21.5 10t-9.5 26z" />
<glyph unicode="&#x1e26;" d="M12 20q0 20 27 20h16v531h-16q-27 0 -27 20t27 20h77q28 0 28 -20t-28 -20h-16v-232h150v232h-16q-28 0 -28 20t28 20h76q28 0 28 -20t-28 -20h-16v-531h16q28 0 28 -20t-28 -20h-76q-28 0 -28 20t28 20h16v258h-150v-258h16q28 0 28 -20t-28 -20h-77q-27 0 -27 20z M86 697q0 14 8.5 23t19.5 9t19.5 -9t8.5 -23t-9 -23t-19 -9t-19 9t-9 23zM209 697q0 14 8.5 23t19.5 9t19.5 -9t8.5 -23t-9 -23t-19 -9t-19 9t-9 23z" />
<glyph unicode="&#x1e27;" d="M5 20q0 20 28 20h29v531h-29q-28 0 -28 20t28 20h46q16 0 22 -6.5t6 -26.5v-206q35 59 91 59q89 0 89 -138v-253h30q27 0 27 -20t-27 -20h-104q-27 0 -27 20t27 20h30v248q0 54 -9.5 78.5t-40.5 24.5q-34 0 -60 -40.5t-26 -113.5v-197h29q28 0 28 -20t-28 -20h-103 q-28 0 -28 20zM86 697q0 14 8.5 23t19.5 9t19.5 -9t8.5 -23t-9 -23t-19 -9t-19 9t-9 23zM209 697q0 14 8.5 23t19.5 9t19.5 -9t8.5 -23t-9 -23t-19 -9t-19 9t-9 23z" />
<glyph unicode="&#x1e2a;" d="M12 20q0 20 27 20h16v531h-16q-27 0 -27 20t27 20h77q28 0 28 -20t-28 -20h-16v-232h150v232h-16q-28 0 -28 20t28 20h76q28 0 28 -20t-28 -20h-16v-531h16q28 0 28 -20t-28 -20h-76q-28 0 -28 20t28 20h16v258h-150v-258h16q28 0 28 -20t-28 -20h-77q-27 0 -27 20z M55 -143q0 22 19 22q18 0 21 -24q1 -11 4.5 -16t21 -9.5t54.5 -4.5q42 0 60.5 5.5t19.5 21.5q5 27 20 27q20 0 20 -22q0 -26 -11.5 -42.5t-33.5 -22.5t-36.5 -7.5t-38.5 -1.5t-38.5 1.5t-36.5 7.5t-33.5 22.5t-11.5 42.5z" />
<glyph unicode="&#x1e2b;" d="M5 20q0 20 28 20h29v531h-29q-28 0 -28 20t28 20h46q16 0 22 -6.5t6 -26.5v-206q35 59 91 59q89 0 89 -138v-253h30q27 0 27 -20t-27 -20h-104q-27 0 -27 20t27 20h30v248q0 54 -9.5 78.5t-40.5 24.5q-34 0 -60 -40.5t-26 -113.5v-197h29q28 0 28 -20t-28 -20h-103 q-28 0 -28 20zM55 -143q0 22 19 22q18 0 21 -24q1 -11 4.5 -16t21 -9.5t54.5 -4.5q42 0 60.5 5.5t19.5 21.5q5 27 20 27q20 0 20 -22q0 -26 -11.5 -42.5t-33.5 -22.5t-36.5 -7.5t-38.5 -1.5t-38.5 1.5t-36.5 7.5t-33.5 22.5t-11.5 42.5z" />
<glyph unicode="&#x1e36;" d="M19 20q0 20 28 20h24v531h-24q-28 0 -28 20t28 20h105q28 0 28 -20t-28 -20h-37v-531h171v77q0 32 22 32t22 -32v-84q0 -20 -6 -26.5t-21 -6.5h-256q-28 0 -28 20zM144 -170q0 16 9.5 26.5t21.5 10.5t21.5 -10.5t9.5 -26.5t-9.5 -26t-21.5 -10t-21.5 10t-9.5 26z" />
<glyph unicode="&#x1e37;" d="M39 20q0 20 28 20h86v531h-86q-28 0 -28 20t28 20h103q15 0 21 -6.5t6 -26.5v-538h87q27 0 27 -20t-27 -20h-217q-28 0 -28 20zM144 -170q0 16 9.5 26.5t21.5 10.5t21.5 -10.5t9.5 -26.5t-9.5 -26t-21.5 -10t-21.5 10t-9.5 26z" />
<glyph unicode="&#x1e38;" d="M-30 706q0 20 27 20h205q28 0 28 -21q0 -20 -28 -20h-204q-28 0 -28 21zM19 20q0 20 28 20h24v531h-24q-28 0 -28 20t28 20h105q28 0 28 -20t-28 -20h-37v-531h171v77q0 32 22 32t22 -32v-84q0 -20 -6 -26.5t-21 -6.5h-256q-28 0 -28 20zM144 -170q0 16 9.5 26.5 t21.5 10.5t21.5 -10.5t9.5 -26.5t-9.5 -26t-21.5 -10t-21.5 10t-9.5 26z" />
<glyph unicode="&#x1e39;" d="M14 706q0 20 27 20h205q28 0 28 -21q0 -20 -28 -20h-204q-28 0 -28 21zM39 20q0 20 28 20h86v531h-86q-28 0 -28 20t28 20h103q15 0 21 -6.5t6 -26.5v-538h87q27 0 27 -20t-27 -20h-217q-28 0 -28 20zM144 -170q0 16 9.5 26.5t21.5 10.5t21.5 -10.5t9.5 -26.5t-9.5 -26 t-21.5 -10t-21.5 10t-9.5 26z" />
<glyph unicode="&#x1e42;" d="M7 20q0 20 36 20v531q-36 0 -36 20t28 20h37q32 0 40 -24l62 -307l60 292q5 21 14 30t29 9h37q29 0 29 -20t-36 -20v-531q36 0 36 -20t-29 -20h-53q-28 0 -28 20t36 20v519l-66 -322q-9 -26 -28 -26q-13 0 -21 13t-9 23l-63 314v-521q35 0 35 -20t-29 -20h-53 q-28 0 -28 20zM144 -170q0 16 9.5 26.5t21.5 10.5t21.5 -10.5t9.5 -26.5t-9.5 -26t-21.5 -10t-21.5 10t-9.5 26z" />
<glyph unicode="&#x1e43;" d="M1 20q0 9 6 14t12.5 5.5t19.5 0.5v345q-13 0 -19.5 0.5t-12.5 5.5t-6 14q0 20 28 20h21q8 0 12.5 -1t10 -9t5.5 -23q23 39 56 39q22 0 35 -18t18 -36q27 54 64 54q20 0 33.5 -16t19 -41t7 -41t1.5 -30v-263q13 0 19.5 -0.5t12.5 -5.5t6 -14q0 -20 -28 -20h-51 q-26 0 -26 20t29 20v257q0 94 -26 94q-25 0 -39 -41t-14 -110v-200q13 0 19 -0.5t11.5 -5.5t5.5 -14q0 -20 -26 -20h-51q-26 0 -26 20t29 20v257q0 94 -26 94q-25 0 -39.5 -41t-14.5 -110v-200q13 0 19 -0.5t11.5 -5.5t5.5 -14q0 -20 -25 -20h-59q-28 0 -28 20zM144 -170 q0 16 9.5 26.5t21.5 10.5t21.5 -10.5t9.5 -26.5t-9.5 -26t-21.5 -10t-21.5 10t-9.5 26z" />
<glyph unicode="&#x1e44;" d="M15 20q0 20 28 20h16v531h-16q-28 0 -28 20t28 20h45q10 0 16 -1t14 -9.5t12 -24.5l123 -517v512h-16q-29 0 -29 20t29 20h70q27 0 27 -20t-27 -20h-16v-538q0 -16 -4 -23.5t-9 -8.5t-16 -1t-17 1t-13.5 9.5t-11.5 24.5l-122 517v-512h15q28 0 28 -20t-28 -20h-70 q-28 0 -28 20zM144 702q0 16 9.5 26.5t21.5 10.5t21.5 -10.5t9.5 -26.5t-9.5 -26.5t-21.5 -10.5t-21.5 10.5t-9.5 26.5z" />
<glyph unicode="&#x1e45;" d="M5 20q0 20 28 20h29v345h-29q-28 0 -28 20t28 20h46q18 0 23 -10t5 -43q35 59 91 59q89 0 89 -138v-253h30q27 0 27 -20t-27 -20h-104q-27 0 -27 20t27 20h30v248q0 54 -9.5 78.5t-40.5 24.5q-34 0 -60 -40.5t-26 -113.5v-197h29q28 0 28 -20t-28 -20h-103q-28 0 -28 20z M144 564q0 16 9.5 26.5t21.5 10.5t21.5 -10.5t9.5 -26.5t-9.5 -26.5t-21.5 -10.5t-21.5 10.5t-9.5 26.5z" />
<glyph unicode="&#x1e46;" d="M15 20q0 20 28 20h16v531h-16q-28 0 -28 20t28 20h45q10 0 16 -1t14 -9.5t12 -24.5l123 -517v512h-16q-29 0 -29 20t29 20h70q27 0 27 -20t-27 -20h-16v-538q0 -16 -4 -23.5t-9 -8.5t-16 -1t-17 1t-13.5 9.5t-11.5 24.5l-122 517v-512h15q28 0 28 -20t-28 -20h-70 q-28 0 -28 20zM144 -170q0 16 9.5 26.5t21.5 10.5t21.5 -10.5t9.5 -26.5t-9.5 -26t-21.5 -10t-21.5 10t-9.5 26z" />
<glyph unicode="&#x1e47;" d="M5 20q0 20 28 20h29v345h-29q-28 0 -28 20t28 20h46q18 0 23 -10t5 -43q35 59 91 59q89 0 89 -138v-253h30q27 0 27 -20t-27 -20h-104q-27 0 -27 20t27 20h30v248q0 54 -9.5 78.5t-40.5 24.5q-34 0 -60 -40.5t-26 -113.5v-197h29q28 0 28 -20t-28 -20h-103q-28 0 -28 20z M144 -170q0 16 9.5 26.5t21.5 10.5t21.5 -10.5t9.5 -26.5t-9.5 -26t-21.5 -10t-21.5 10t-9.5 26z" />
<glyph unicode="&#x1e58;" d="M12 20q0 20 27 20h16v531h-16q-27 0 -27 20t27 20h120q57 0 95 -49t38 -114q0 -83 -69 -143q34 -38 44 -71q7 -23 7 -92q0 -31 0.5 -46t2 -34t5.5 -26.5t11 -7.5q16 0 16 58q0 8 5.5 16t16.5 8q22 0 22 -24q0 -33 -15.5 -65.5t-44.5 -32.5q-34 0 -51 42q-13 35 -13 127 q0 78 -16 100q-23 29 -57 29h-56v-246h16q28 0 28 -20t-28 -20h-77q-27 0 -27 20zM100 326h52q47 0 71.5 38t24.5 84q0 47 -24.5 85t-71.5 38h-52v-245zM128 714q0 16 9.5 26.5t21.5 10.5t21.5 -10.5t9.5 -26.5t-9.5 -26.5t-21.5 -10.5t-21.5 10.5t-9.5 26.5z" />
<glyph unicode="&#x1e59;" d="M19 20q0 20 28 20h54v345h-54q-28 0 -28 20t28 20h71q16 0 22 -6.5t6 -25.5v-51q49 89 119 89q64 0 64 -51q0 -14 -8 -22.5t-18 -8.5q-4 0 -9 2t-11 12t-7 28h-11q-49 0 -84 -56.5t-35 -149.5v-145h74q27 0 27 -20t-27 -20h-173q-28 0 -28 20zM144 564q0 16 9.5 26.5 t21.5 10.5t21.5 -10.5t9.5 -26.5t-9.5 -26.5t-21.5 -10.5t-21.5 10.5t-9.5 26.5z" />
<glyph unicode="&#x1e5a;" d="M12 20q0 20 27 20h16v531h-16q-27 0 -27 20t27 20h120q57 0 95 -49t38 -114q0 -83 -69 -143q34 -38 44 -71q7 -23 7 -92q0 -31 0.5 -46t2 -34t5.5 -26.5t11 -7.5q16 0 16 58q0 8 5.5 16t16.5 8q22 0 22 -24q0 -33 -15.5 -65.5t-44.5 -32.5q-34 0 -51 42q-13 35 -13 127 q0 78 -16 100q-23 29 -57 29h-56v-246h16q28 0 28 -20t-28 -20h-77q-27 0 -27 20zM100 326h52q47 0 71.5 38t24.5 84q0 47 -24.5 85t-71.5 38h-52v-245zM128 -170q0 16 9.5 26.5t21.5 10.5t21.5 -10.5t9.5 -26.5t-9.5 -26t-21.5 -10t-21.5 10t-9.5 26z" />
<glyph unicode="&#x1e5b;" d="M19 20q0 20 28 20h54v345h-54q-28 0 -28 20t28 20h71q16 0 22 -6.5t6 -25.5v-51q49 89 119 89q64 0 64 -51q0 -14 -8 -22.5t-18 -8.5q-4 0 -9 2t-11 12t-7 28h-11q-49 0 -84 -56.5t-35 -149.5v-145h74q27 0 27 -20t-27 -20h-173q-28 0 -28 20zM102 -170q0 16 9.5 26.5 t21.5 10.5t21.5 -10.5t9.5 -26.5t-9.5 -26t-21.5 -10t-21.5 10t-9.5 26z" />
<glyph unicode="&#x1e5c;" d="M12 20q0 20 27 20h16v531h-16q-27 0 -27 20t27 20h120q57 0 95 -49t38 -114q0 -83 -69 -143q34 -38 44 -71q7 -23 7 -92q0 -31 0.5 -46t2 -34t5.5 -26.5t11 -7.5q16 0 16 58q0 8 5.5 16t16.5 8q22 0 22 -24q0 -33 -15.5 -65.5t-44.5 -32.5q-34 0 -51 42q-13 35 -13 127 q0 78 -16 100q-23 29 -57 29h-56v-246h16q28 0 28 -20t-28 -20h-77q-27 0 -27 20zM45 706q0 20 27 20h205q28 0 28 -21q0 -20 -28 -20h-204q-28 0 -28 21zM100 326h52q47 0 71.5 38t24.5 84q0 47 -24.5 85t-71.5 38h-52v-245zM128 -170q0 16 9.5 26.5t21.5 10.5t21.5 -10.5 t9.5 -26.5t-9.5 -26t-21.5 -10t-21.5 10t-9.5 26z" />
<glyph unicode="&#x1e5d;" d="M19 20q0 20 28 20h54v345h-54q-28 0 -28 20t28 20h71q16 0 22 -6.5t6 -25.5v-51q49 89 119 89q64 0 64 -51q0 -14 -8 -22.5t-18 -8.5q-4 0 -9 2t-11 12t-7 28h-11q-49 0 -84 -56.5t-35 -149.5v-145h74q27 0 27 -20t-27 -20h-173q-28 0 -28 20zM45 564q0 20 27 20h205 q28 0 28 -21q0 -20 -28 -20h-204q-28 0 -28 21zM102 -170q0 16 9.5 26.5t21.5 10.5t21.5 -10.5t9.5 -26.5t-9.5 -26t-21.5 -10t-21.5 10t-9.5 26z" />
<glyph unicode="&#x1e62;" d="M31 17v142q0 31 22 31t22 -29q3 -66 34.5 -99.5t80.5 -33.5q41 0 63.5 38.5t22.5 88.5q0 51 -20 87q-12 21 -26 29.5t-56 21.5q-59 21 -76.5 31.5t-38.5 41.5q-28 42 -28 98q0 66 36.5 112.5t90.5 46.5q60 0 99 -51q6 34 10 42.5t15 8.5q19 0 19 -29v-143q0 -30 -23 -30 q-13 0 -17 7.5t-6 24.5q-13 130 -98 130q-37 0 -60.5 -34.5t-23.5 -80.5q0 -37 14.5 -66t38.5 -42l49 -17q56 -20 74 -31t38 -41q3 -4 9.5 -19t14.5 -43t8 -50q0 -69 -36.5 -120t-92.5 -51q-71 0 -116 51q-6 -34 -10 -42.5t-14 -8.5q-19 0 -19 29zM144 -170q0 16 9.5 26.5 t21.5 10.5t21.5 -10.5t9.5 -26.5t-9.5 -26t-21.5 -10t-21.5 10t-9.5 26z" />
<glyph unicode="&#x1e63;" d="M45 23v107q0 30 22 30q12 0 16 -6t7 -20q11 -54 33 -77t57 -23q47 0 68 24.5t21 59.5q0 67 -84 87q-48 12 -66.5 18.5t-33.5 19.5q-40 31 -40 81q0 12 2.5 24.5t11 28.5t22 28.5t38 21t55.5 8.5q46 0 75 -25q4 25 21 25q19 0 19 -30v-78q0 -30 -23 -30q-21 0 -22 21 q-1 15 -2.5 24.5t-8 23.5t-21.5 21t-39 7q-47 0 -68 -21.5t-21 -48.5q0 -32 25.5 -49t79.5 -30q20 -4 33.5 -9t37 -18.5t36.5 -39t13 -60.5q0 -7 -1 -17t-8.5 -30.5t-20 -36t-38.5 -28t-61 -12.5q-57 0 -91 42q-5 -20 -9.5 -29.5t-7.5 -11t-8 -1.5q-19 0 -19 29zM144 -170 q0 16 9.5 26.5t21.5 10.5t21.5 -10.5t9.5 -26.5t-9.5 -26t-21.5 -10t-21.5 10t-9.5 26z" />
<glyph unicode="&#x1e6c;" d="M13 510v68q0 20 6.5 26.5t21.5 6.5h268q15 0 21 -6.5t6 -26.5v-68q0 -32 -22 -32t-22 32v61h-95v-531h35q27 0 27 -20t-27 -20h-113q-28 0 -28 20t28 20h34v531h-95v-61q0 -32 -23 -32q-22 0 -22 32zM144 -170q0 16 9.5 26.5t21.5 10.5t21.5 -10.5t9.5 -26.5t-9.5 -26 t-21.5 -10t-21.5 10t-9.5 26z" />
<glyph unicode="&#x1e6d;" d="M12 405q0 20 29 20h60v95q0 32 23 32q22 0 22 -32v-95h114q27 0 27 -20t-27 -20h-114v-265q0 -86 55 -86q19 0 37.5 18.5t19.5 63.5q0 35 22 35q23 0 23 -34q0 -66 -34.5 -94.5t-72.5 -28.5q-41 0 -68 29t-27 92v270h-61q-28 0 -28 20zM144 -170q0 16 9.5 26.5t21.5 10.5 t21.5 -10.5t9.5 -26.5t-9.5 -26t-21.5 -10t-21.5 10t-9.5 26z" />
<glyph unicode="&#x1e6e;" d="M13 510v68q0 20 6.5 26.5t21.5 6.5h268q15 0 21 -6.5t6 -26.5v-68q0 -32 -22 -32t-22 32v61h-95v-531h35q27 0 27 -20t-27 -20h-113q-28 0 -28 20t28 20h34v531h-95v-61q0 -32 -23 -32q-22 0 -22 32zM45 -168q0 20 27 20h205q28 0 28 -21q0 -20 -28 -20h-204 q-28 0 -28 21z" />
<glyph unicode="&#x1e6f;" d="M12 405q0 20 29 20h60v95q0 32 23 32q22 0 22 -32v-95h114q27 0 27 -20t-27 -20h-114v-265q0 -86 55 -86q19 0 37.5 18.5t19.5 63.5q0 35 22 35q23 0 23 -34q0 -66 -34.5 -94.5t-72.5 -28.5q-41 0 -68 29t-27 92v270h-61q-28 0 -28 20zM45 -168q0 20 27 20h205 q28 0 28 -21q0 -20 -28 -20h-204q-28 0 -28 21z" />
<glyph unicode="&#x1e80;" d="M3 591q0 20 28 20h52q28 0 28 -20t-28 -20h-17l43 -517l39 284q6 21 27 21q24 0 28 -26l37 -279l45 517h-18q-29 0 -29 20t29 20h52q28 0 28 -20t-25 -20l-51 -542q-1 -12 -2.5 -18.5t-7.5 -13t-17 -6.5q-20 0 -27 20l-42 295l-42 -292q-6 -23 -28 -23q-11 0 -17 6.5 t-7.5 13t-2.5 19.5l-50 541q-25 0 -25 20zM102 770q0 10 6 17t14 7q10 0 29 -13l78 -58q18 -13 18 -21q0 -27 -22 -27q-7 0 -15 6l-90 66q-18 13 -18 23z" />
<glyph unicode="&#x1e81;" d="M5 405q0 20 29 20h78q29 0 29 -20t-29 -20h-35l39 -335l22 120q9 51 15 64.5t23 13.5q16 0 22 -13.5t15 -65.5l22 -119l38 335h-36q-28 0 -28 20t28 20h79q28 0 28 -20t-34 -20l-42 -353q-2 -17 -8 -26t-10.5 -10t-12.5 -1q-19 0 -25 12t-17 66l-19 123l-20 -122 q-11 -55 -17 -67t-26 -12q-14 0 -21 7t-10 31l-43 352q-34 0 -34 20zM102 599q0 10 6 17t14 7q10 0 29 -13l78 -58q18 -13 18 -21q0 -27 -22 -27q-7 0 -15 6l-90 66q-18 14 -18 23z" />
<glyph unicode="&#x1e82;" d="M3 591q0 20 28 20h52q28 0 28 -20t-28 -20h-17l43 -517l39 284q6 21 27 21q24 0 28 -26l37 -279l45 517h-18q-29 0 -29 20t29 20h52q28 0 28 -20t-25 -20l-51 -542q-1 -12 -2.5 -18.5t-7.5 -13t-17 -6.5q-20 0 -27 20l-42 295l-42 -292q-6 -23 -28 -23q-11 0 -17 6.5 t-7.5 13t-2.5 19.5l-50 541q-25 0 -25 20zM103 702q0 8 18 21l78 58q19 13 29 13q8 0 14 -7t6 -17t-18 -23l-90 -66q-8 -6 -15 -6q-22 0 -22 27z" />
<glyph unicode="&#x1e83;" d="M5 405q0 20 29 20h78q29 0 29 -20t-29 -20h-35l39 -335l22 120q9 51 15 64.5t23 13.5q16 0 22 -13.5t15 -65.5l22 -119l38 335h-36q-28 0 -28 20t28 20h79q28 0 28 -20t-34 -20l-42 -353q-2 -17 -8 -26t-10.5 -10t-12.5 -1q-19 0 -25 12t-17 66l-19 123l-20 -122 q-11 -55 -17 -67t-26 -12q-14 0 -21 7t-10 31l-43 352q-34 0 -34 20zM103 531q0 8 18 21l78 58q19 13 29 13q8 0 14 -7t6 -17q0 -9 -18 -23l-90 -66q-8 -6 -15 -6q-22 0 -22 27z" />
<glyph unicode="&#x1e84;" d="M3 591q0 20 28 20h52q28 0 28 -20t-28 -20h-17l43 -517l39 284q6 21 27 21q24 0 28 -26l37 -279l45 517h-18q-29 0 -29 20t29 20h52q28 0 28 -20t-25 -20l-51 -542q-1 -12 -2.5 -18.5t-7.5 -13t-17 -6.5q-20 0 -27 20l-42 295l-42 -292q-6 -23 -28 -23q-11 0 -17 6.5 t-7.5 13t-2.5 19.5l-50 541q-25 0 -25 20zM86 697q0 14 8.5 23t19.5 9t19.5 -9t8.5 -23t-9 -23t-19 -9t-19 9t-9 23zM209 697q0 14 8.5 23t19.5 9t19.5 -9t8.5 -23t-9 -23t-19 -9t-19 9t-9 23z" />
<glyph unicode="&#x1e85;" d="M5 405q0 20 29 20h78q29 0 29 -20t-29 -20h-35l39 -335l22 120q9 51 15 64.5t23 13.5q16 0 22 -13.5t15 -65.5l22 -119l38 335h-36q-28 0 -28 20t28 20h79q28 0 28 -20t-34 -20l-42 -353q-2 -17 -8 -26t-10.5 -10t-12.5 -1q-19 0 -25 12t-17 66l-19 123l-20 -122 q-11 -55 -17 -67t-26 -12q-14 0 -21 7t-10 31l-43 352q-34 0 -34 20zM95 563q0 14 9 23.5t20 9.5q10 0 18.5 -9.5t8.5 -23.5q0 -13 -8.5 -22t-18.5 -9q-11 0 -20 8.5t-9 22.5zM200 563q0 14 9 23.5t19 9.5t19 -9.5t9 -23.5q0 -13 -9 -22t-19 -9t-19 9t-9 22z" />
<glyph unicode="&#x1e92;" d="M28 24q0 8 6 19l238 528h-192v-61q0 -32 -22 -32t-22 32v68q0 21 6 27t22 6h229q29 0 29 -24q0 -5 -6 -19l-239 -528h204v79q0 33 22 33t22 -33v-86q0 -20 -6 -26.5t-21 -6.5h-242q-28 0 -28 24zM144 -170q0 16 9.5 26.5t21.5 10.5t21.5 -10.5t9.5 -26.5t-9.5 -26 t-21.5 -10t-21.5 10t-9.5 26z" />
<glyph unicode="&#x1e93;" d="M17 24q0 8 5 16l243 345h-192v-34q0 -32 -22 -32t-22 32v42q0 20 6 26t22 6h234q28 0 28 -24q0 -8 -5 -16l-243 -345h205v45q0 33 23 33q22 0 22 -33v-52q0 -20 -6 -26.5t-22 -6.5h-247q-29 0 -29 24zM144 -170q0 16 9.5 26.5t21.5 10.5t21.5 -10.5t9.5 -26.5t-9.5 -26 t-21.5 -10t-21.5 10t-9.5 26z" />
<glyph unicode="&#x1e97;" d="M12 405q0 20 29 20h60v95q0 32 23 32q22 0 22 -32v-95h114q27 0 27 -20t-27 -20h-114v-265q0 -86 55 -86q19 0 37.5 18.5t19.5 63.5q0 35 22 35q23 0 23 -34q0 -66 -34.5 -94.5t-72.5 -28.5q-41 0 -68 29t-27 92v270h-61q-28 0 -28 20zM35 637q0 14 8.5 23t19.5 9 t19.5 -9t8.5 -23t-9 -23t-19 -9t-19 9t-9 23zM158 637q0 14 8.5 23t19.5 9t19.5 -9t8.5 -23t-9 -23t-19 -9t-19 9t-9 23z" />
<glyph unicode="&#x1ea0;" d="M14 20q0 9 6 14t12.5 5.5t20.5 0.5l87 549q4 23 11 29.5t25 6.5q14 0 22.5 -6.5t11.5 -29.5l87 -549q13 0 19.5 -0.5t13 -5.5t6.5 -14q0 -20 -29 -20h-67q-28 0 -28 20q0 9 6.5 14t13.5 5.5t21 0.5l-21 135h-114l-21 -135q14 0 21 -0.5t13.5 -5.5t6.5 -14q0 -20 -28 -20 h-68q-28 0 -28 20zM124 216h102l-51 349zM144 -170q0 16 9.5 26.5t21.5 10.5t21.5 -10.5t9.5 -26.5t-9.5 -26t-21.5 -10t-21.5 10t-9.5 26z" />
<glyph unicode="&#x1ea1;" d="M34 119q0 76 80 115q48 23 126 27q0 28 -1 42t-7 32.5t-18 32.5q-23 26 -63 26q-18 0 -26 -1q-16 -2 -16 -15q-1 -38 -28 -38q-11 0 -19.5 8.5t-8.5 24.5q0 62 97 62q64 0 99 -45t35 -107v-234q14 -9 43 -9q28 0 28 -20t-33 -20q-61 0 -76 36q-42 -42 -103 -42 q-46 0 -77.5 36t-31.5 89zM79 119q0 -35 19.5 -60t52.5 -25q35 0 60 18q19 13 24 30.5t5 43.5v99q-67 0 -114 -30t-47 -76zM144 -170q0 16 9.5 26.5t21.5 10.5t21.5 -10.5t9.5 -26.5t-9.5 -26t-21.5 -10t-21.5 10t-9.5 26z" />
<glyph unicode="&#x1ea2;" d="M14 20q0 9 6 14t12.5 5.5t20.5 0.5l87 549q4 23 11 29.5t25 6.5q14 0 22.5 -6.5t11.5 -29.5l87 -549q13 0 19.5 -0.5t13 -5.5t6.5 -14q0 -20 -29 -20h-67q-28 0 -28 20q0 9 6.5 14t13.5 5.5t21 0.5l-21 135h-114l-21 -135q14 0 21 -0.5t13.5 -5.5t6.5 -14q0 -20 -28 -20 h-68q-28 0 -28 20zM108 825q0 33 19 52.5t43 19.5q31 0 51.5 -19.5t20.5 -53.5q0 -26 -22 -48q-33 -28 -33 -64v-19q0 -16 -17 -16q-18 0 -18 16v19q0 49 50 91q6 5 6 21q0 40 -38 40q-11 0 -18.5 -7t-7.5 -17v-16q0 -6 -5.5 -12t-12.5 -6q-18 0 -18 19zM124 216h102 l-51 349z" />
<glyph unicode="&#x1ea3;" d="M34 119q0 76 80 115q48 23 126 27q0 28 -1 42t-7 32.5t-18 32.5q-23 26 -63 26q-18 0 -26 -1q-16 -2 -16 -15q-1 -38 -28 -38q-11 0 -19.5 8.5t-8.5 24.5q0 62 97 62q64 0 99 -45t35 -107v-234q14 -9 43 -9q28 0 28 -20t-33 -20q-61 0 -76 36q-42 -42 -103 -42 q-46 0 -77.5 36t-31.5 89zM79 119q0 -35 19.5 -60t52.5 -25q35 0 60 18q19 13 24 30.5t5 43.5v99q-67 0 -114 -30t-47 -76zM108 602q0 33 19 52.5t43 19.5q31 0 51.5 -19.5t20.5 -53.5q0 -26 -22 -48q-33 -27 -33 -64v-19q0 -16 -17 -16q-18 0 -18 16v19q0 49 50 91 q6 5 6 21q0 40 -38 40q-11 0 -18.5 -7t-7.5 -17v-16q0 -6 -5.5 -12t-12.5 -6q-18 0 -18 19z" />
<glyph unicode="&#x1ea4;" d="M14 20q0 9 6 14t12.5 5.5t20.5 0.5l87 549q4 23 11 29.5t25 6.5q14 0 22.5 -6.5t11.5 -29.5l87 -549q13 0 19.5 -0.5t13 -5.5t6.5 -14q0 -20 -29 -20h-67q-28 0 -28 20q0 9 6.5 14t13.5 5.5t21 0.5l-21 135h-114l-21 -135q14 0 21 -0.5t13.5 -5.5t6.5 -14q0 -20 -28 -20 h-68q-28 0 -28 20zM78 683q0 15 9 19l74 40q14 8 28 0l74 -40q9 -4 9 -19q0 -17 -15 -17q-12 0 -18 3l-64 29l-64 -29q-7 -3 -18 -3q-15 0 -15 17zM103 793q0 8 18 21l78 58q19 13 29 13q8 0 14 -7t6 -17q0 -9 -18 -23l-90 -66q-8 -6 -15 -6q-22 0 -22 27zM124 216h102 l-51 349z" />
<glyph unicode="&#x1ea5;" d="M34 119q0 76 80 115q48 23 126 27q0 28 -1 42t-7 32.5t-18 32.5q-23 26 -63 26q-18 0 -26 -1q-16 -2 -16 -15q-1 -38 -28 -38q-11 0 -19.5 8.5t-8.5 24.5q0 62 97 62q64 0 99 -45t35 -107v-234q14 -9 43 -9q28 0 28 -20t-33 -20q-61 0 -76 36q-42 -42 -103 -42 q-46 0 -77.5 36t-31.5 89zM78 524q0 14 9 19l74 40q14 8 28 0l74 -40q9 -5 9 -19q0 -17 -15 -17q-12 0 -18 3l-64 29l-64 -29q-7 -3 -18 -3q-15 0 -15 17zM79 119q0 -35 19.5 -60t52.5 -25q35 0 60 18q19 13 24 30.5t5 43.5v99q-67 0 -114 -30t-47 -76zM103 634q0 8 18 21 l78 58q19 13 29 13q8 0 14 -7t6 -17t-18 -23l-90 -66q-8 -6 -15 -6q-22 0 -22 27z" />
<glyph unicode="&#x1ea6;" d="M14 20q0 9 6 14t12.5 5.5t20.5 0.5l87 549q4 23 11 29.5t25 6.5q14 0 22.5 -6.5t11.5 -29.5l87 -549q13 0 19.5 -0.5t13 -5.5t6.5 -14q0 -20 -29 -20h-67q-28 0 -28 20q0 9 6.5 14t13.5 5.5t21 0.5l-21 135h-114l-21 -135q14 0 21 -0.5t13.5 -5.5t6.5 -14q0 -20 -28 -20 h-68q-28 0 -28 20zM78 683q0 15 9 19l74 40q14 8 28 0l74 -40q9 -4 9 -19q0 -17 -15 -17q-12 0 -18 3l-64 29l-64 -29q-7 -3 -18 -3q-15 0 -15 17zM103 861q0 10 6 17t14 7q10 0 29 -13l78 -58q18 -13 18 -21q0 -27 -22 -27q-7 0 -15 6l-90 66q-18 14 -18 23zM124 216h102 l-51 349z" />
<glyph unicode="&#x1ea7;" d="M34 119q0 76 80 115q48 23 126 27q0 28 -1 42t-7 32.5t-18 32.5q-23 26 -63 26q-18 0 -26 -1q-16 -2 -16 -15q-1 -38 -28 -38q-11 0 -19.5 8.5t-8.5 24.5q0 62 97 62q64 0 99 -45t35 -107v-234q14 -9 43 -9q28 0 28 -20t-33 -20q-61 0 -76 36q-42 -42 -103 -42 q-46 0 -77.5 36t-31.5 89zM78 524q0 14 9 19l74 40q14 8 28 0l74 -40q9 -5 9 -19q0 -17 -15 -17q-12 0 -18 3l-64 29l-64 -29q-7 -3 -18 -3q-15 0 -15 17zM79 119q0 -35 19.5 -60t52.5 -25q35 0 60 18q19 13 24 30.5t5 43.5v99q-67 0 -114 -30t-47 -76zM103 702q0 10 6 17 t14 7q10 0 29 -13l78 -58q18 -13 18 -21q0 -27 -22 -27q-7 0 -15 6l-90 66q-18 13 -18 23z" />
<glyph unicode="&#x1ea8;" d="M14 20q0 9 6 14t12.5 5.5t20.5 0.5l87 549q4 23 11 29.5t25 6.5q14 0 22.5 -6.5t11.5 -29.5l87 -549q13 0 19.5 -0.5t13 -5.5t6.5 -14q0 -20 -29 -20h-67q-28 0 -28 20q0 9 6.5 14t13.5 5.5t21 0.5l-21 135h-114l-21 -135q14 0 21 -0.5t13.5 -5.5t6.5 -14q0 -20 -28 -20 h-68q-28 0 -28 20zM78 683q0 15 9 19l74 40q14 8 28 0l74 -40q9 -4 9 -19q0 -17 -15 -17q-12 0 -18 3l-64 29l-64 -29q-7 -3 -18 -3q-15 0 -15 17zM124 216h102l-51 349zM175 894q0 33 19 52.5t43 19.5q31 0 51.5 -19.5t20.5 -53.5q0 -26 -22 -48q-33 -27 -33 -64v-19 q0 -16 -17 -16q-18 0 -18 16v19q0 49 50 91q6 5 6 21q0 40 -38 40q-11 0 -18.5 -7t-7.5 -17v-16q0 -6 -5.5 -12t-12.5 -6q-18 0 -18 19z" />
<glyph unicode="&#x1ea9;" d="M34 119q0 76 80 115q48 23 126 27q0 28 -1 42t-7 32.5t-18 32.5q-23 26 -63 26q-18 0 -26 -1q-16 -2 -16 -15q-1 -38 -28 -38q-11 0 -19.5 8.5t-8.5 24.5q0 62 97 62q64 0 99 -45t35 -107v-234q14 -9 43 -9q28 0 28 -20t-33 -20q-61 0 -76 36q-42 -42 -103 -42 q-46 0 -77.5 36t-31.5 89zM78 524q0 14 9 19l74 40q14 8 28 0l74 -40q9 -5 9 -19q0 -17 -15 -17q-12 0 -18 3l-64 29l-64 -29q-7 -3 -18 -3q-15 0 -15 17zM79 119q0 -35 19.5 -60t52.5 -25q35 0 60 18q19 13 24 30.5t5 43.5v99q-67 0 -114 -30t-47 -76zM175 735 q0 33 19 52.5t43 19.5q31 0 51.5 -19.5t20.5 -53.5q0 -26 -22 -48q-33 -28 -33 -64v-19q0 -16 -17 -16q-18 0 -18 16v19q0 49 50 91q6 5 6 21q0 40 -38 40q-11 0 -18.5 -7t-7.5 -17v-16q0 -6 -5.5 -12t-12.5 -6q-18 0 -18 19z" />
<glyph unicode="&#x1eaa;" d="M14 20q0 9 6 14t12.5 5.5t20.5 0.5l87 549q4 23 11 29.5t25 6.5q14 0 22.5 -6.5t11.5 -29.5l87 -549q13 0 19.5 -0.5t13 -5.5t6.5 -14q0 -20 -29 -20h-67q-28 0 -28 20q0 9 6.5 14t13.5 5.5t21 0.5l-21 135h-114l-21 -135q14 0 21 -0.5t13.5 -5.5t6.5 -14q0 -20 -28 -20 h-68q-28 0 -28 20zM56 806q0 5 10 18q20 23 29.5 33.5t23.5 20t25 9.5q25 0 51 -44q8 -14 14 -14q15 0 54 52q6 6 12 6q7 0 13.5 -5.5t6.5 -14.5q0 -7 -9 -18q-20 -23 -29.5 -33.5t-23.5 -20t-25 -9.5q-25 0 -51 44q-9 14 -15 14q-15 0 -54 -52q-4 -6 -12 -6q-7 0 -13.5 6 t-6.5 14zM78 683q0 15 9 19l74 40q14 8 28 0l74 -40q9 -4 9 -19q0 -17 -15 -17q-12 0 -18 3l-64 29l-64 -29q-7 -3 -18 -3q-15 0 -15 17zM124 216h102l-51 349z" />
<glyph unicode="&#x1eab;" d="M34 119q0 76 80 115q48 23 126 27q0 28 -1 42t-7 32.5t-18 32.5q-23 26 -63 26q-18 0 -26 -1q-16 -2 -16 -15q-1 -38 -28 -38q-11 0 -19.5 8.5t-8.5 24.5q0 62 97 62q64 0 99 -45t35 -107v-234q14 -9 43 -9q28 0 28 -20t-33 -20q-61 0 -76 36q-42 -42 -103 -42 q-46 0 -77.5 36t-31.5 89zM56 647q0 5 10 18q20 23 29.5 33.5t23.5 20t25 9.5q25 0 51 -44q8 -14 14 -14q15 0 54 52q6 6 12 6q7 0 13.5 -5.5t6.5 -14.5q0 -7 -9 -18q-20 -23 -29.5 -33.5t-23.5 -20t-25 -9.5q-25 0 -51 44q-9 14 -15 14q-15 0 -54 -52q-4 -6 -12 -6 q-7 0 -13.5 6t-6.5 14zM78 524q0 14 9 19l74 40q14 8 28 0l74 -40q9 -5 9 -19q0 -17 -15 -17q-12 0 -18 3l-64 29l-64 -29q-7 -3 -18 -3q-15 0 -15 17zM79 119q0 -35 19.5 -60t52.5 -25q35 0 60 18q19 13 24 30.5t5 43.5v99q-67 0 -114 -30t-47 -76z" />
<glyph unicode="&#x1eac;" d="M14 20q0 9 6 14t12.5 5.5t20.5 0.5l87 549q4 23 11 29.5t25 6.5q14 0 22.5 -6.5t11.5 -29.5l87 -549q13 0 19.5 -0.5t13 -5.5t6.5 -14q0 -20 -29 -20h-67q-28 0 -28 20q0 9 6.5 14t13.5 5.5t21 0.5l-21 135h-114l-21 -135q14 0 21 -0.5t13.5 -5.5t6.5 -14q0 -20 -28 -20 h-68q-28 0 -28 20zM78 683q0 15 9 19l74 40q14 8 28 0l74 -40q9 -4 9 -19q0 -17 -15 -17q-12 0 -18 3l-64 29l-64 -29q-7 -3 -18 -3q-15 0 -15 17zM124 216h102l-51 349zM144 -170q0 16 9.5 26.5t21.5 10.5t21.5 -10.5t9.5 -26.5t-9.5 -26t-21.5 -10t-21.5 10t-9.5 26z" />
<glyph unicode="&#x1ead;" d="M34 119q0 76 80 115q48 23 126 27q0 28 -1 42t-7 32.5t-18 32.5q-23 26 -63 26q-18 0 -26 -1q-16 -2 -16 -15q-1 -38 -28 -38q-11 0 -19.5 8.5t-8.5 24.5q0 62 97 62q64 0 99 -45t35 -107v-234q14 -9 43 -9q28 0 28 -20t-33 -20q-61 0 -76 36q-42 -42 -103 -42 q-46 0 -77.5 36t-31.5 89zM73 527q0 7 12 19l74 68q15 13 30 0l74 -68q12 -12 12 -19q0 -20 -17 -20q-11 0 -20 8l-64 57l-64 -57q-9 -8 -20 -8q-17 0 -17 20zM79 119q0 -35 19.5 -60t52.5 -25q35 0 60 18q19 13 24 30.5t5 43.5v99q-67 0 -114 -30t-47 -76zM144 -170 q0 16 9.5 26.5t21.5 10.5t21.5 -10.5t9.5 -26.5t-9.5 -26t-21.5 -10t-21.5 10t-9.5 26z" />
<glyph unicode="&#x1eae;" d="M14 20q0 9 6 14t12.5 5.5t20.5 0.5l87 549q4 23 11 29.5t25 6.5q14 0 22.5 -6.5t11.5 -29.5l87 -549q13 0 19.5 -0.5t13 -5.5t6.5 -14q0 -20 -29 -20h-67q-28 0 -28 20q0 9 6.5 14t13.5 5.5t21 0.5l-21 135h-114l-21 -135q14 0 21 -0.5t13.5 -5.5t6.5 -14q0 -20 -28 -20 h-68q-28 0 -28 20zM55 749q0 22 19 22q18 0 21 -24q1 -11 4.5 -16t21 -9.5t54.5 -4.5q42 0 60.5 5.5t19.5 21.5q5 27 20 27q20 0 20 -22q0 -26 -11.5 -42.5t-33.5 -22.5t-36.5 -7.5t-38.5 -1.5t-38.5 1.5t-36.5 7.5t-33.5 22.5t-11.5 42.5zM103 818q0 8 18 21l78 58 q19 13 29 13q8 0 14 -7t6 -17t-18 -23l-90 -66q-8 -6 -15 -6q-22 0 -22 27zM124 216h102l-51 349z" />
<glyph unicode="&#x1eaf;" d="M34 119q0 76 80 115q48 23 126 27q0 28 -1 42t-7 32.5t-18 32.5q-23 26 -63 26q-18 0 -26 -1q-16 -2 -16 -15q-1 -38 -28 -38q-11 0 -19.5 8.5t-8.5 24.5q0 62 97 62q64 0 99 -45t35 -107v-234q14 -9 43 -9q28 0 28 -20t-33 -20q-61 0 -76 36q-42 -42 -103 -42 q-46 0 -77.5 36t-31.5 89zM55 590q0 22 19 22q18 0 21 -24q1 -11 4.5 -16t21 -9.5t54.5 -4.5q42 0 60.5 5.5t19.5 21.5q5 27 20 27q20 0 20 -22q0 -26 -11.5 -42.5t-33.5 -22.5t-36.5 -7.5t-38.5 -1.5t-38.5 1.5t-36.5 7.5t-33.5 22.5t-11.5 42.5zM79 119q0 -35 19.5 -60 t52.5 -25q35 0 60 18q19 13 24 30.5t5 43.5v99q-67 0 -114 -30t-47 -76zM103 659q0 8 18 21l78 58q19 13 29 13q8 0 14 -7t6 -17q0 -9 -18 -23l-90 -66q-8 -6 -15 -6q-22 0 -22 27z" />
<glyph unicode="&#x1eb0;" d="M14 20q0 9 6 14t12.5 5.5t20.5 0.5l87 549q4 23 11 29.5t25 6.5q14 0 22.5 -6.5t11.5 -29.5l87 -549q13 0 19.5 -0.5t13 -5.5t6.5 -14q0 -20 -29 -20h-67q-28 0 -28 20q0 9 6.5 14t13.5 5.5t21 0.5l-21 135h-114l-21 -135q14 0 21 -0.5t13.5 -5.5t6.5 -14q0 -20 -28 -20 h-68q-28 0 -28 20zM55 749q0 22 19 22q18 0 21 -24q1 -11 4.5 -16t21 -9.5t54.5 -4.5q42 0 60.5 5.5t19.5 21.5q5 27 20 27q20 0 20 -22q0 -26 -11.5 -42.5t-33.5 -22.5t-36.5 -7.5t-38.5 -1.5t-38.5 1.5t-36.5 7.5t-33.5 22.5t-11.5 42.5zM103 886q0 10 6 17t14 7 q10 0 29 -13l78 -58q18 -13 18 -21q0 -27 -22 -27q-7 0 -15 6l-90 66q-18 13 -18 23zM124 216h102l-51 349z" />
<glyph unicode="&#x1eb1;" d="M34 119q0 76 80 115q48 23 126 27q0 28 -1 42t-7 32.5t-18 32.5q-23 26 -63 26q-18 0 -26 -1q-16 -2 -16 -15q-1 -38 -28 -38q-11 0 -19.5 8.5t-8.5 24.5q0 62 97 62q64 0 99 -45t35 -107v-234q14 -9 43 -9q28 0 28 -20t-33 -20q-61 0 -76 36q-42 -42 -103 -42 q-46 0 -77.5 36t-31.5 89zM55 590q0 22 19 22q18 0 21 -24q1 -11 4.5 -16t21 -9.5t54.5 -4.5q42 0 60.5 5.5t19.5 21.5q5 27 20 27q20 0 20 -22q0 -26 -11.5 -42.5t-33.5 -22.5t-36.5 -7.5t-38.5 -1.5t-38.5 1.5t-36.5 7.5t-33.5 22.5t-11.5 42.5zM79 119q0 -35 19.5 -60 t52.5 -25q35 0 60 18q19 13 24 30.5t5 43.5v99q-67 0 -114 -30t-47 -76zM103 727q0 10 6 17t14 7q10 0 29 -13l78 -58q18 -13 18 -21q0 -27 -22 -27q-7 0 -15 6l-90 66q-18 13 -18 23z" />
<glyph unicode="&#x1eb2;" d="M14 20q0 9 6 14t12.5 5.5t20.5 0.5l87 549q4 23 11 29.5t25 6.5q14 0 22.5 -6.5t11.5 -29.5l87 -549q13 0 19.5 -0.5t13 -5.5t6.5 -14q0 -20 -29 -20h-67q-28 0 -28 20q0 9 6.5 14t13.5 5.5t21 0.5l-21 135h-114l-21 -135q14 0 21 -0.5t13.5 -5.5t6.5 -14q0 -20 -28 -20 h-68q-28 0 -28 20zM55 749q0 22 19 22q18 0 21 -24q1 -11 4.5 -16t21 -9.5t54.5 -4.5q42 0 60.5 5.5t19.5 21.5q5 27 20 27q20 0 20 -22q0 -26 -11.5 -42.5t-33.5 -22.5t-36.5 -7.5t-38.5 -1.5t-38.5 1.5t-36.5 7.5t-33.5 22.5t-11.5 42.5zM108 919q0 33 19 52.5t43 19.5 q31 0 51.5 -19.5t20.5 -53.5q0 -26 -22 -48q-33 -28 -33 -64v-19q0 -16 -17 -16q-18 0 -18 16v19q0 49 50 91q6 5 6 21q0 40 -38 40q-11 0 -18.5 -7t-7.5 -17v-16q0 -6 -5.5 -12t-12.5 -6q-18 0 -18 19zM124 216h102l-51 349z" />
<glyph unicode="&#x1eb3;" d="M34 119q0 76 80 115q48 23 126 27q0 28 -1 42t-7 32.5t-18 32.5q-23 26 -63 26q-18 0 -26 -1q-16 -2 -16 -15q-1 -38 -28 -38q-11 0 -19.5 8.5t-8.5 24.5q0 62 97 62q64 0 99 -45t35 -107v-234q14 -9 43 -9q28 0 28 -20t-33 -20q-61 0 -76 36q-42 -42 -103 -42 q-46 0 -77.5 36t-31.5 89zM55 590q0 22 19 22q18 0 21 -24q1 -11 4.5 -16t21 -9.5t54.5 -4.5q42 0 60.5 5.5t19.5 21.5q5 27 20 27q20 0 20 -22q0 -26 -11.5 -42.5t-33.5 -22.5t-36.5 -7.5t-38.5 -1.5t-38.5 1.5t-36.5 7.5t-33.5 22.5t-11.5 42.5zM79 119q0 -35 19.5 -60 t52.5 -25q35 0 60 18q19 13 24 30.5t5 43.5v99q-67 0 -114 -30t-47 -76zM108 760q0 33 19 52.5t43 19.5q31 0 51.5 -19.5t20.5 -53.5q0 -26 -22 -48q-33 -27 -33 -64v-19q0 -16 -17 -16q-18 0 -18 16v19q0 49 50 91q6 5 6 21q0 40 -38 40q-11 0 -18.5 -7t-7.5 -17v-16 q0 -6 -5.5 -12t-12.5 -6q-18 0 -18 19z" />
<glyph unicode="&#x1eb4;" d="M14 20q0 9 6 14t12.5 5.5t20.5 0.5l87 549q4 23 11 29.5t25 6.5q14 0 22.5 -6.5t11.5 -29.5l87 -549q13 0 19.5 -0.5t13 -5.5t6.5 -14q0 -20 -29 -20h-67q-28 0 -28 20q0 9 6.5 14t13.5 5.5t21 0.5l-21 135h-114l-21 -135q14 0 21 -0.5t13.5 -5.5t6.5 -14q0 -20 -28 -20 h-68q-28 0 -28 20zM55 749q0 22 19 22q18 0 21 -24q1 -11 4.5 -16t21 -9.5t54.5 -4.5q42 0 60.5 5.5t19.5 21.5q5 27 20 27q20 0 20 -22q0 -26 -11.5 -42.5t-33.5 -22.5t-36.5 -7.5t-38.5 -1.5t-38.5 1.5t-36.5 7.5t-33.5 22.5t-11.5 42.5zM56 831q0 5 10 18 q20 23 29.5 33.5t23.5 20t25 9.5q25 0 51 -44q8 -14 14 -14q15 0 54 52q6 6 12 6q7 0 13.5 -5.5t6.5 -14.5q0 -8 -9 -18q-20 -23 -29.5 -33.5t-23.5 -20t-25 -9.5q-25 0 -51 44q-9 14 -15 14q-15 0 -54 -52q-4 -6 -12 -6q-7 0 -13.5 6t-6.5 14zM124 216h102l-51 349z" />
<glyph unicode="&#x1eb5;" d="M34 119q0 76 80 115q48 23 126 27q0 28 -1 42t-7 32.5t-18 32.5q-23 26 -63 26q-18 0 -26 -1q-16 -2 -16 -15q-1 -38 -28 -38q-11 0 -19.5 8.5t-8.5 24.5q0 62 97 62q64 0 99 -45t35 -107v-234q14 -9 43 -9q28 0 28 -20t-33 -20q-61 0 -76 36q-42 -42 -103 -42 q-46 0 -77.5 36t-31.5 89zM55 590q0 22 19 22q18 0 21 -24q1 -11 4.5 -16t21 -9.5t54.5 -4.5q42 0 60.5 5.5t19.5 21.5q5 27 20 27q20 0 20 -22q0 -26 -11.5 -42.5t-33.5 -22.5t-36.5 -7.5t-38.5 -1.5t-38.5 1.5t-36.5 7.5t-33.5 22.5t-11.5 42.5zM56 672q0 5 10 18 q20 23 29.5 33.5t23.5 20t25 9.5q25 0 51 -44q8 -14 14 -14q15 0 54 52q6 6 12 6q7 0 13.5 -5.5t6.5 -14.5q0 -7 -9 -18q-20 -23 -29.5 -33.5t-23.5 -20t-25 -9.5q-25 0 -51 44q-9 14 -15 14q-15 0 -54 -52q-4 -6 -12 -6q-7 0 -13.5 6t-6.5 14zM79 119q0 -35 19.5 -60 t52.5 -25q35 0 60 18q19 13 24 30.5t5 43.5v99q-67 0 -114 -30t-47 -76z" />
<glyph unicode="&#x1eb6;" d="M14 20q0 9 6 14t12.5 5.5t20.5 0.5l87 549q4 23 11 29.5t25 6.5q14 0 22.5 -6.5t11.5 -29.5l87 -549q13 0 19.5 -0.5t13 -5.5t6.5 -14q0 -20 -29 -20h-67q-28 0 -28 20q0 9 6.5 14t13.5 5.5t21 0.5l-21 135h-114l-21 -135q14 0 21 -0.5t13.5 -5.5t6.5 -14q0 -20 -28 -20 h-68q-28 0 -28 20zM55 749q0 22 19 22q18 0 21 -24q1 -11 4.5 -16t21 -9.5t54.5 -4.5q42 0 60.5 5.5t19.5 21.5q5 27 20 27q20 0 20 -22q0 -26 -11.5 -42.5t-33.5 -22.5t-36.5 -7.5t-38.5 -1.5t-38.5 1.5t-36.5 7.5t-33.5 22.5t-11.5 42.5zM124 216h102l-51 349zM144 -170 q0 16 9.5 26.5t21.5 10.5t21.5 -10.5t9.5 -26.5t-9.5 -26t-21.5 -10t-21.5 10t-9.5 26z" />
<glyph unicode="&#x1eb7;" d="M34 119q0 76 80 115q48 23 126 27q0 28 -1 42t-7 32.5t-18 32.5q-23 26 -63 26q-18 0 -26 -1q-16 -2 -16 -15q-1 -38 -28 -38q-11 0 -19.5 8.5t-8.5 24.5q0 62 97 62q64 0 99 -45t35 -107v-234q14 -9 43 -9q28 0 28 -20t-33 -20q-61 0 -76 36q-42 -42 -103 -42 q-46 0 -77.5 36t-31.5 89zM55 590q0 22 19 22q18 0 21 -24q1 -11 4.5 -16t21 -9.5t54.5 -4.5q42 0 60.5 6t19.5 21q5 27 20 27q20 0 20 -22q0 -26 -11.5 -42.5t-33.5 -22.5t-36.5 -7.5t-38.5 -1.5t-38.5 1.5t-36.5 7.5t-33.5 22.5t-11.5 42.5zM79 119q0 -35 19.5 -60 t52.5 -25q35 0 60 18q19 13 24 30.5t5 43.5v99q-67 0 -114 -30t-47 -76zM144 -170q0 16 9.5 26.5t21.5 10.5t21.5 -10.5t9.5 -26.5t-9.5 -26t-21.5 -10t-21.5 10t-9.5 26z" />
<glyph unicode="&#x1eb8;" d="M15 20q0 20 28 20h19v531h-19q-28 0 -28 20t28 20h254q16 0 22 -6.5t6 -26.5v-68q0 -32 -23 -32q-22 0 -22 32v61h-173v-234h94q0 32 4 44t18 12q22 0 22 -32v-87q0 -32 -22 -32q-14 0 -18 11.5t-4 43.5h-94v-257h188v76q0 33 23 33q22 0 22 -33v-83q0 -20 -6 -26.5 t-22 -6.5h-269q-28 0 -28 20zM144 -170q0 16 9.5 26.5t21.5 10.5t21.5 -10.5t9.5 -26.5t-9.5 -26t-21.5 -10t-21.5 10t-9.5 26z" />
<glyph unicode="&#x1eb9;" d="M34 215q0 91 43.5 155.5t102.5 64.5q62 0 98 -59t36 -149q0 -13 -5 -20t-9.5 -8t-13.5 -1h-207q7 -73 38.5 -118.5t75.5 -45.5q57 0 77 65q3 13 7.5 18t13.5 5q12 0 17.5 -6.5t5.5 -12.5q0 -29 -33 -69t-90 -40q-64 0 -110.5 64t-46.5 157zM79 235h190q-7 159 -89 159 q-35 0 -64 -41.5t-37 -117.5zM144 -170q0 16 9.5 26.5t21.5 10.5t21.5 -10.5t9.5 -26.5t-9.5 -26t-21.5 -10t-21.5 10t-9.5 26z" />
<glyph unicode="&#x1eba;" d="M15 20q0 20 28 20h19v531h-19q-28 0 -28 20t28 20h254q16 0 22 -6.5t6 -26.5v-68q0 -32 -23 -32q-22 0 -22 32v61h-173v-234h94q0 32 4 44t18 12q22 0 22 -32v-87q0 -32 -22 -32q-14 0 -18 11.5t-4 43.5h-94v-257h188v76q0 33 23 33q22 0 22 -33v-83q0 -20 -6 -26.5 t-22 -6.5h-269q-28 0 -28 20zM108 825q0 33 19 52.5t43 19.5q31 0 51.5 -19.5t20.5 -53.5q0 -26 -22 -48q-33 -28 -33 -64v-19q0 -16 -17 -16q-18 0 -18 16v19q0 49 50 91q6 5 6 21q0 40 -38 40q-11 0 -18.5 -7t-7.5 -17v-16q0 -6 -5.5 -12t-12.5 -6q-18 0 -18 19z" />
<glyph unicode="&#x1ebb;" d="M34 215q0 91 43.5 155.5t102.5 64.5q62 0 98 -59t36 -149q0 -13 -5 -20t-9.5 -8t-13.5 -1h-207q7 -73 38.5 -118.5t75.5 -45.5q57 0 77 65q3 13 7.5 18t13.5 5q12 0 17.5 -6.5t5.5 -12.5q0 -29 -33 -69t-90 -40q-64 0 -110.5 64t-46.5 157zM79 235h190q-7 159 -89 159 q-35 0 -64 -41.5t-37 -117.5zM108 602q0 33 19 52.5t43 19.5q31 0 51.5 -19.5t20.5 -53.5q0 -26 -22 -48q-33 -27 -33 -64v-19q0 -16 -17 -16q-18 0 -18 16v19q0 49 50 91q6 5 6 21q0 40 -38 40q-11 0 -18.5 -7t-7.5 -17v-16q0 -6 -5.5 -12t-12.5 -6q-18 0 -18 19z" />
<glyph unicode="&#x1ebc;" d="M15 20q0 20 28 20h19v531h-19q-28 0 -28 20t28 20h254q16 0 22 -6.5t6 -26.5v-68q0 -32 -23 -32q-22 0 -22 32v61h-173v-234h94q0 32 4 44t18 12q22 0 22 -32v-87q0 -32 -22 -32q-14 0 -18 11.5t-4 43.5h-94v-257h188v76q0 33 23 33q22 0 22 -33v-83q0 -20 -6 -26.5 t-22 -6.5h-269q-28 0 -28 20zM55 685q0 5 10 18q20 23 29.5 33.5t23.5 20t25 9.5q25 0 51 -44q8 -14 14 -14q15 0 54 52q6 6 12 6q7 0 13.5 -5.5t6.5 -14.5q0 -8 -9 -18q-20 -23 -29.5 -33.5t-23.5 -20t-25 -9.5q-25 0 -51 44q-9 14 -15 14q-15 0 -54 -52q-5 -6 -12 -6 t-13.5 6t-6.5 14z" />
<glyph unicode="&#x1ebd;" d="M34 215q0 91 43.5 155.5t102.5 64.5q62 0 98 -59t36 -149q0 -13 -5 -20t-9.5 -8t-13.5 -1h-207q7 -73 38.5 -118.5t75.5 -45.5q57 0 77 65q3 13 7.5 18t13.5 5q12 0 17.5 -6.5t5.5 -12.5q0 -29 -33 -69t-90 -40q-64 0 -110.5 64t-46.5 157zM55 533q0 6 10 18 q20 23 29.5 33.5t23.5 20t25 9.5q25 0 51 -44q9 -14 14 -14q15 0 54 52q6 6 12 6q7 0 13.5 -5.5t6.5 -14.5q0 -6 -9 -18q-20 -23 -29.5 -33.5t-23.5 -20t-25 -9.5q-25 0 -51 44q-8 14 -15 14q-15 0 -54 -52q-5 -6 -12 -6t-13.5 6t-6.5 14zM79 235h190q-7 159 -89 159 q-35 0 -64 -41.5t-37 -117.5z" />
<glyph unicode="&#x1ebe;" d="M15 20q0 20 28 20h19v531h-19q-28 0 -28 20t28 20h254q16 0 22 -6.5t6 -26.5v-68q0 -32 -23 -32q-22 0 -22 32v61h-173v-234h94q0 32 4 44t18 12q22 0 22 -32v-87q0 -32 -22 -32q-14 0 -18 11.5t-4 43.5h-94v-257h188v76q0 33 23 33q22 0 22 -33v-83q0 -20 -6 -26.5 t-22 -6.5h-269q-28 0 -28 20zM78 683q0 15 9 19l74 40q14 8 28 0l74 -40q9 -4 9 -19q0 -17 -15 -17q-12 0 -18 3l-64 29l-64 -29q-7 -3 -18 -3q-15 0 -15 17zM103 793q0 8 18 21l78 58q19 13 29 13q8 0 14 -7t6 -17q0 -9 -18 -23l-90 -66q-8 -6 -15 -6q-22 0 -22 27z" />
<glyph unicode="&#x1ebf;" d="M34 215q0 91 43.5 155.5t102.5 64.5q62 0 98 -59t36 -149q0 -13 -5 -20t-9.5 -8t-13.5 -1h-207q7 -73 38.5 -118.5t75.5 -45.5q57 0 77 65q3 13 7.5 18t13.5 5q12 0 17.5 -6.5t5.5 -12.5q0 -29 -33 -69t-90 -40q-64 0 -110.5 64t-46.5 157zM78 524q0 14 9 19l74 40 q14 8 28 0l74 -40q9 -5 9 -19q0 -17 -15 -17q-12 0 -18 3l-64 29l-64 -29q-7 -3 -18 -3q-15 0 -15 17zM79 235h190q-7 159 -89 159q-35 0 -64 -41.5t-37 -117.5zM103 634q0 8 18 21l78 58q19 13 29 13q8 0 14 -7t6 -17t-18 -23l-90 -66q-8 -6 -15 -6q-22 0 -22 27z" />
<glyph unicode="&#x1ec0;" d="M15 20q0 20 28 20h19v531h-19q-28 0 -28 20t28 20h254q16 0 22 -6.5t6 -26.5v-68q0 -32 -23 -32q-22 0 -22 32v61h-173v-234h94q0 32 4 44t18 12q22 0 22 -32v-87q0 -32 -22 -32q-14 0 -18 11.5t-4 43.5h-94v-257h188v76q0 33 23 33q22 0 22 -33v-83q0 -20 -6 -26.5 t-22 -6.5h-269q-28 0 -28 20zM78 683q0 15 9 19l74 40q14 8 28 0l74 -40q9 -4 9 -19q0 -17 -15 -17q-12 0 -18 3l-64 29l-64 -29q-7 -3 -18 -3q-15 0 -15 17zM103 861q0 10 6 17t14 7q10 0 29 -13l78 -58q18 -13 18 -21q0 -27 -22 -27q-7 0 -15 6l-90 66q-18 14 -18 23z" />
<glyph unicode="&#x1ec1;" d="M34 215q0 91 43.5 155.5t102.5 64.5q62 0 98 -59t36 -149q0 -13 -5 -20t-9.5 -8t-13.5 -1h-207q7 -73 38.5 -118.5t75.5 -45.5q57 0 77 65q3 13 7.5 18t13.5 5q12 0 17.5 -6.5t5.5 -12.5q0 -29 -33 -69t-90 -40q-64 0 -110.5 64t-46.5 157zM78 524q0 14 9 19l74 40 q14 8 28 0l74 -40q9 -5 9 -19q0 -17 -15 -17q-12 0 -18 3l-64 29l-64 -29q-7 -3 -18 -3q-15 0 -15 17zM79 235h190q-7 159 -89 159q-35 0 -64 -41.5t-37 -117.5zM103 702q0 10 6 17t14 7q10 0 29 -13l78 -58q18 -13 18 -21q0 -27 -22 -27q-7 0 -15 6l-90 66q-18 13 -18 23z " />
<glyph unicode="&#x1ec2;" d="M15 20q0 20 28 20h19v531h-19q-28 0 -28 20t28 20h254q16 0 22 -6.5t6 -26.5v-68q0 -32 -23 -32q-22 0 -22 32v61h-173v-234h94q0 32 4 44t18 12q22 0 22 -32v-87q0 -32 -22 -32q-14 0 -18 11.5t-4 43.5h-94v-257h188v76q0 33 23 33q22 0 22 -33v-83q0 -20 -6 -26.5 t-22 -6.5h-269q-28 0 -28 20zM78 683q0 15 9 19l74 40q14 8 28 0l74 -40q9 -4 9 -19q0 -17 -15 -17q-12 0 -18 3l-64 29l-64 -29q-7 -3 -18 -3q-15 0 -15 17zM175 894q0 33 19 52.5t43 19.5q31 0 51.5 -19.5t20.5 -53.5q0 -26 -22 -48q-33 -27 -33 -64v-19q0 -16 -17 -16 q-18 0 -18 16v19q0 49 50 91q6 5 6 21q0 40 -38 40q-11 0 -18.5 -7t-7.5 -17v-16q0 -6 -5.5 -12t-12.5 -6q-18 0 -18 19z" />
<glyph unicode="&#x1ec3;" d="M34 215q0 91 43.5 155.5t102.5 64.5q62 0 98 -59t36 -149q0 -13 -5 -20t-9.5 -8t-13.5 -1h-207q7 -73 38.5 -118.5t75.5 -45.5q57 0 77 65q3 13 7.5 18t13.5 5q12 0 17.5 -6.5t5.5 -12.5q0 -29 -33 -69t-90 -40q-64 0 -110.5 64t-46.5 157zM78 524q0 14 9 19l74 40 q14 8 28 0l74 -40q9 -5 9 -19q0 -17 -15 -17q-12 0 -18 3l-64 29l-64 -29q-7 -3 -18 -3q-15 0 -15 17zM79 235h190q-7 159 -89 159q-35 0 -64 -41.5t-37 -117.5zM175 735q0 33 19 52.5t43 19.5q31 0 51.5 -19.5t20.5 -53.5q0 -26 -22 -48q-33 -28 -33 -64v-19q0 -16 -17 -16 q-18 0 -18 16v19q0 49 50 91q6 5 6 21q0 40 -38 40q-11 0 -18.5 -7t-7.5 -17v-16q0 -6 -5.5 -12t-12.5 -6q-18 0 -18 19z" />
<glyph unicode="&#x1ec4;" d="M15 20q0 20 28 20h19v531h-19q-28 0 -28 20t28 20h254q16 0 22 -6.5t6 -26.5v-68q0 -32 -23 -32q-22 0 -22 32v61h-173v-234h94q0 32 4 44t18 12q22 0 22 -32v-87q0 -32 -22 -32q-14 0 -18 11.5t-4 43.5h-94v-257h188v76q0 33 23 33q22 0 22 -33v-83q0 -20 -6 -26.5 t-22 -6.5h-269q-28 0 -28 20zM56 806q0 5 10 18q20 23 29.5 33.5t23.5 20t25 9.5q25 0 51 -44q8 -14 14 -14q15 0 54 52q6 6 12 6q7 0 13.5 -5.5t6.5 -14.5q0 -7 -9 -18q-20 -23 -29.5 -33.5t-23.5 -20t-25 -9.5q-25 0 -51 44q-9 14 -15 14q-15 0 -54 -52q-4 -6 -12 -6 q-7 0 -13.5 6t-6.5 14zM78 683q0 15 9 19l74 40q14 8 28 0l74 -40q9 -4 9 -19q0 -17 -15 -17q-12 0 -18 3l-64 29l-64 -29q-7 -3 -18 -3q-15 0 -15 17z" />
<glyph unicode="&#x1ec5;" d="M34 215q0 91 43.5 155.5t102.5 64.5q62 0 98 -59t36 -149q0 -13 -5 -20t-9.5 -8t-13.5 -1h-207q7 -73 38.5 -118.5t75.5 -45.5q57 0 77 65q3 13 7.5 18t13.5 5q12 0 17.5 -6.5t5.5 -12.5q0 -29 -33 -69t-90 -40q-64 0 -110.5 64t-46.5 157zM56 647q0 5 10 18 q20 23 29.5 33.5t23.5 20t25 9.5q25 0 51 -44q8 -14 14 -14q15 0 54 52q6 6 12 6q7 0 13.5 -5.5t6.5 -14.5q0 -7 -9 -18q-20 -23 -29.5 -33.5t-23.5 -20t-25 -9.5q-25 0 -51 44q-9 14 -15 14q-15 0 -54 -52q-4 -6 -12 -6q-7 0 -13.5 6t-6.5 14zM78 524q0 14 9 19l74 40 q14 8 28 0l74 -40q9 -5 9 -19q0 -17 -15 -17q-12 0 -18 3l-64 29l-64 -29q-7 -3 -18 -3q-15 0 -15 17zM79 235h190q-7 159 -89 159q-35 0 -64 -41.5t-37 -117.5z" />
<glyph unicode="&#x1ec6;" d="M15 20q0 20 28 20h19v531h-19q-28 0 -28 20t28 20h254q16 0 22 -6.5t6 -26.5v-68q0 -32 -23 -32q-22 0 -22 32v61h-173v-234h94q0 32 4 44t18 12q22 0 22 -32v-87q0 -32 -22 -32q-14 0 -18 11.5t-4 43.5h-94v-257h188v76q0 33 23 33q22 0 22 -33v-83q0 -20 -6 -26.5 t-22 -6.5h-269q-28 0 -28 20zM78 683q0 15 9 19l74 40q14 8 28 0l74 -40q9 -4 9 -19q0 -17 -15 -17q-12 0 -18 3l-64 29l-64 -29q-7 -3 -18 -3q-15 0 -15 17zM144 -170q0 16 9.5 26.5t21.5 10.5t21.5 -10.5t9.5 -26.5t-9.5 -26t-21.5 -10t-21.5 10t-9.5 26z" />
<glyph unicode="&#x1ec7;" d="M34 215q0 91 43.5 155.5t102.5 64.5q62 0 98 -59t36 -149q0 -13 -5 -20t-9.5 -8t-13.5 -1h-207q7 -73 38.5 -118.5t75.5 -45.5q57 0 77 65q3 13 7.5 18t13.5 5q12 0 17.5 -6.5t5.5 -12.5q0 -29 -33 -69t-90 -40q-64 0 -110.5 64t-46.5 157zM73 527q0 7 12 19l74 68 q15 13 30 0l74 -68q12 -12 12 -19q0 -20 -17 -20q-11 0 -20 8l-64 57l-64 -57q-9 -8 -20 -8q-17 0 -17 20zM79 235h190q-7 159 -89 159q-35 0 -64 -41.5t-37 -117.5zM144 -170q0 16 9.5 26.5t21.5 10.5t21.5 -10.5t9.5 -26.5t-9.5 -26t-21.5 -10t-21.5 10t-9.5 26z" />
<glyph unicode="&#x1ec8;" d="M53 20q0 20 28 20h72v531h-72q-28 0 -28 20t28 20h189q27 0 27 -20t-27 -20h-73v-531h73q27 0 27 -20t-27 -20h-189q-28 0 -28 20zM108 825q0 33 19 52.5t43 19.5q31 0 51.5 -19.5t20.5 -53.5q0 -26 -22 -48q-33 -28 -33 -64v-19q0 -16 -17 -16q-18 0 -18 16v19 q0 49 50 91q6 5 6 21q0 40 -38 40q-11 0 -18.5 -7t-7.5 -17v-16q0 -6 -5.5 -12t-12.5 -6q-18 0 -18 19z" />
<glyph unicode="&#x1ec9;" d="M52 20q0 20 29 20h80v345h-75q-28 0 -28 20t28 20h92q16 0 22 -6.5t6 -25.5v-353h70q27 0 27 -20t-27 -20h-195q-29 0 -29 20zM108 602q0 33 19 52.5t43 19.5q31 0 51.5 -19.5t20.5 -53.5q0 -26 -22 -48q-33 -27 -33 -64v-19q0 -16 -17 -16q-18 0 -18 16v19q0 49 50 91 q6 5 6 21q0 40 -38 40q-11 0 -18.5 -7t-7.5 -17v-16q0 -6 -5.5 -12t-12.5 -6q-18 0 -18 19z" />
<glyph unicode="&#x1eca;" d="M53 20q0 20 28 20h72v531h-72q-28 0 -28 20t28 20h189q27 0 27 -20t-27 -20h-73v-531h73q27 0 27 -20t-27 -20h-189q-28 0 -28 20zM144 -170q0 16 9.5 26.5t21.5 10.5t21.5 -10.5t9.5 -26.5t-9.5 -26t-21.5 -10t-21.5 10t-9.5 26z" />
<glyph unicode="&#x1ecb;" d="M52 20q0 20 29 20h80v345h-75q-28 0 -28 20t28 20h92q16 0 22 -6.5t6 -25.5v-353h70q27 0 27 -20t-27 -20h-195q-29 0 -29 20zM144 -170q0 16 9.5 26.5t21.5 10.5t21.5 -10.5t9.5 -26.5t-9.5 -26t-21.5 -10t-21.5 10t-9.5 26zM144 564q0 16 9.5 26.5t21.5 10.5 t21.5 -10.5t9.5 -26.5t-9.5 -26.5t-21.5 -10.5t-21.5 10.5t-9.5 26.5z" />
<glyph unicode="&#x1ecc;" d="M34 306q0 216 22 266q14 31 40.5 41t78.5 10t78.5 -10t39.5 -41q23 -52 23 -267q0 -214 -23 -266q-13 -31 -39.5 -41t-78.5 -10t-78.5 10t-40.5 41q-22 50 -22 267zM78 314q0 -159 10 -213q6 -39 24 -56t63 -17q46 0 64 18t24 60q8 58 8 208q0 151 -8 202q-7 40 -26 53.5 t-62 13.5q-44 0 -63 -14.5t-26 -56.5q-8 -51 -8 -198zM144 -170q0 16 9.5 26.5t21.5 10.5t21.5 -10.5t9.5 -26.5t-9.5 -26t-21.5 -10t-21.5 10t-9.5 26z" />
<glyph unicode="&#x1ecd;" d="M36 213q0 93 41.5 157.5t97.5 64.5t97.5 -65t41.5 -157q0 -93 -41.5 -156t-97.5 -63t-97.5 63t-41.5 156zM80 220q0 -77 27.5 -131.5t67.5 -54.5t67 54t27 132q0 75 -27.5 124.5t-66.5 49.5q-40 0 -67.5 -49.5t-27.5 -124.5zM144 -170q0 16 9.5 26.5t21.5 10.5 t21.5 -10.5t9.5 -26.5t-9.5 -26t-21.5 -10t-21.5 10t-9.5 26z" />
<glyph unicode="&#x1ece;" d="M34 306q0 216 22 266q14 31 40.5 41t78.5 10t78.5 -10t39.5 -41q23 -52 23 -267q0 -214 -23 -266q-13 -31 -39.5 -41t-78.5 -10t-78.5 10t-40.5 41q-22 50 -22 267zM78 314q0 -159 10 -213q6 -39 24 -56t63 -17q46 0 64 18t24 60q8 58 8 208q0 151 -8 202q-7 40 -26 53.5 t-62 13.5q-44 0 -63 -14.5t-26 -56.5q-8 -51 -8 -198zM108 825q0 33 19 52.5t43 19.5q31 0 51.5 -19.5t20.5 -53.5q0 -26 -22 -48q-33 -28 -33 -64v-19q0 -16 -17 -16q-18 0 -18 16v19q0 49 50 91q6 5 6 21q0 40 -38 40q-11 0 -18.5 -7t-7.5 -17v-16q0 -6 -5.5 -12t-12.5 -6 q-18 0 -18 19z" />
<glyph unicode="&#x1ecf;" d="M36 213q0 93 41.5 157.5t97.5 64.5t97.5 -65t41.5 -157q0 -93 -41.5 -156t-97.5 -63t-97.5 63t-41.5 156zM80 220q0 -77 27.5 -131.5t67.5 -54.5t67 54t27 132q0 75 -27.5 124.5t-66.5 49.5q-40 0 -67.5 -49.5t-27.5 -124.5zM108 602q0 33 19 52.5t43 19.5 q31 0 51.5 -19.5t20.5 -53.5q0 -26 -22 -48q-33 -27 -33 -64v-19q0 -16 -17 -16q-18 0 -18 16v19q0 49 50 91q6 5 6 21q0 40 -38 40q-11 0 -18.5 -7t-7.5 -17v-16q0 -6 -5.5 -12t-12.5 -6q-18 0 -18 19z" />
<glyph unicode="&#x1ed0;" d="M34 306q0 216 22 266q14 31 40.5 41t78.5 10t78.5 -10t39.5 -41q23 -52 23 -267q0 -214 -23 -266q-13 -31 -39.5 -41t-78.5 -10t-78.5 10t-40.5 41q-22 50 -22 267zM78 314q0 -159 10 -213q6 -39 24 -56t63 -17q46 0 64 18t24 60q8 58 8 208q0 151 -8 202q-7 40 -26 53.5 t-62 13.5q-44 0 -63 -14.5t-26 -56.5q-8 -51 -8 -198zM78 683q0 15 9 19l74 40q14 8 28 0l74 -40q9 -4 9 -19q0 -17 -15 -17q-12 0 -18 3l-64 29l-64 -29q-7 -3 -18 -3q-15 0 -15 17zM103 793q0 8 18 21l78 58q19 13 29 13q8 0 14 -7t6 -17q0 -9 -18 -23l-90 -66 q-8 -6 -15 -6q-22 0 -22 27z" />
<glyph unicode="&#x1ed1;" d="M36 213q0 93 41.5 157.5t97.5 64.5t97.5 -65t41.5 -157q0 -93 -41.5 -156t-97.5 -63t-97.5 63t-41.5 156zM78 524q0 14 9 19l74 40q14 8 28 0l74 -40q9 -5 9 -19q0 -17 -15 -17q-12 0 -18 3l-64 29l-64 -29q-7 -3 -18 -3q-15 0 -15 17zM80 220q0 -77 27.5 -131.5 t67.5 -54.5t67 54t27 132q0 75 -27.5 124.5t-66.5 49.5q-40 0 -67.5 -49.5t-27.5 -124.5zM103 634q0 8 18 21l78 58q19 13 29 13q8 0 14 -7t6 -17t-18 -23l-90 -66q-8 -6 -15 -6q-22 0 -22 27z" />
<glyph unicode="&#x1ed2;" d="M34 306q0 216 22 266q14 31 40.5 41t78.5 10t78.5 -10t39.5 -41q23 -52 23 -267q0 -214 -23 -266q-13 -31 -39.5 -41t-78.5 -10t-78.5 10t-40.5 41q-22 50 -22 267zM78 314q0 -159 10 -213q6 -39 24 -56t63 -17q46 0 64 18t24 60q8 58 8 208q0 151 -8 202q-7 40 -26 53.5 t-62 13.5q-44 0 -63 -14.5t-26 -56.5q-8 -51 -8 -198zM78 683q0 15 9 19l74 40q14 8 28 0l74 -40q9 -4 9 -19q0 -17 -15 -17q-12 0 -18 3l-64 29l-64 -29q-7 -3 -18 -3q-15 0 -15 17zM103 861q0 10 6 17t14 7q10 0 29 -13l78 -58q18 -13 18 -21q0 -27 -22 -27q-7 0 -15 6 l-90 66q-18 14 -18 23z" />
<glyph unicode="&#x1ed3;" d="M36 213q0 93 41.5 157.5t97.5 64.5t97.5 -65t41.5 -157q0 -93 -41.5 -156t-97.5 -63t-97.5 63t-41.5 156zM78 524q0 14 9 19l74 40q14 8 28 0l74 -40q9 -5 9 -19q0 -17 -15 -17q-12 0 -18 3l-64 29l-64 -29q-7 -3 -18 -3q-15 0 -15 17zM80 220q0 -77 27.5 -131.5 t67.5 -54.5t67 54t27 132q0 75 -27.5 124.5t-66.5 49.5q-40 0 -67.5 -49.5t-27.5 -124.5zM103 702q0 10 6 17t14 7q10 0 29 -13l78 -58q18 -13 18 -21q0 -27 -22 -27q-7 0 -15 6l-90 66q-18 13 -18 23z" />
<glyph unicode="&#x1ed4;" d="M34 306q0 216 22 266q14 31 40.5 41t78.5 10t78.5 -10t39.5 -41q23 -52 23 -267q0 -214 -23 -266q-13 -31 -39.5 -41t-78.5 -10t-78.5 10t-40.5 41q-22 50 -22 267zM78 314q0 -159 10 -213q6 -39 24 -56t63 -17q46 0 64 18t24 60q8 58 8 208q0 151 -8 202q-7 40 -26 53.5 t-62 13.5q-44 0 -63 -14.5t-26 -56.5q-8 -51 -8 -198zM78 683q0 15 9 19l74 40q14 8 28 0l74 -40q9 -4 9 -19q0 -17 -15 -17q-12 0 -18 3l-64 29l-64 -29q-7 -3 -18 -3q-15 0 -15 17zM175 894q0 33 19 52.5t43 19.5q31 0 51.5 -19.5t20.5 -53.5q0 -26 -22 -48 q-33 -27 -33 -64v-19q0 -16 -17 -16q-18 0 -18 16v19q0 49 50 91q6 5 6 21q0 40 -38 40q-11 0 -18.5 -7t-7.5 -17v-16q0 -6 -5.5 -12t-12.5 -6q-18 0 -18 19z" />
<glyph unicode="&#x1ed5;" d="M36 213q0 93 41.5 157.5t97.5 64.5t97.5 -65t41.5 -157q0 -93 -41.5 -156t-97.5 -63t-97.5 63t-41.5 156zM78 524q0 14 9 19l74 40q14 8 28 0l74 -40q9 -5 9 -19q0 -17 -15 -17q-12 0 -18 3l-64 29l-64 -29q-7 -3 -18 -3q-15 0 -15 17zM80 220q0 -77 27.5 -131.5 t67.5 -54.5t67 54t27 132q0 75 -27.5 124.5t-66.5 49.5q-40 0 -67.5 -49.5t-27.5 -124.5zM175 735q0 33 19 52.5t43 19.5q31 0 51.5 -19.5t20.5 -53.5q0 -26 -22 -48q-33 -28 -33 -64v-19q0 -16 -17 -16q-18 0 -18 16v19q0 49 50 91q6 5 6 21q0 40 -38 40q-11 0 -18.5 -7 t-7.5 -17v-16q0 -6 -5.5 -12t-12.5 -6q-18 0 -18 19z" />
<glyph unicode="&#x1ed6;" d="M34 306q0 216 22 266q14 31 40.5 41t78.5 10t78.5 -10t39.5 -41q23 -52 23 -267q0 -214 -23 -266q-13 -31 -39.5 -41t-78.5 -10t-78.5 10t-40.5 41q-22 50 -22 267zM56 806q0 5 10 18q20 23 29.5 33.5t23.5 20t25 9.5q25 0 51 -44q8 -14 14 -14q15 0 54 52q6 6 12 6 q7 0 13.5 -5.5t6.5 -14.5q0 -7 -9 -18q-20 -23 -29.5 -33.5t-23.5 -20t-25 -9.5q-25 0 -51 44q-9 14 -15 14q-15 0 -54 -52q-4 -6 -12 -6q-7 0 -13.5 6t-6.5 14zM78 314q0 -159 10 -213q6 -39 24 -56t63 -17q46 0 64 18t24 60q8 58 8 208q0 151 -8 202q-7 40 -26 53.5 t-62 13.5q-44 0 -63 -14.5t-26 -56.5q-8 -51 -8 -198zM78 683q0 15 9 19l74 40q14 8 28 0l74 -40q9 -4 9 -19q0 -17 -15 -17q-12 0 -18 3l-64 29l-64 -29q-7 -3 -18 -3q-15 0 -15 17z" />
<glyph unicode="&#x1ed7;" d="M36 213q0 93 41.5 157.5t97.5 64.5t97.5 -65t41.5 -157q0 -93 -41.5 -156t-97.5 -63t-97.5 63t-41.5 156zM56 647q0 5 10 18q20 23 29.5 33.5t23.5 20t25 9.5q25 0 51 -44q8 -14 14 -14q15 0 54 52q6 6 12 6q7 0 13.5 -5.5t6.5 -14.5q0 -7 -9 -18q-20 -23 -29.5 -33.5 t-23.5 -20t-25 -9.5q-25 0 -51 44q-9 14 -15 14q-15 0 -54 -52q-4 -6 -12 -6q-7 0 -13.5 6t-6.5 14zM78 524q0 14 9 19l74 40q14 8 28 0l74 -40q9 -5 9 -19q0 -17 -15 -17q-12 0 -18 3l-64 29l-64 -29q-7 -3 -18 -3q-15 0 -15 17zM80 220q0 -77 27.5 -131.5t67.5 -54.5 t67 54t27 132q0 75 -27.5 124.5t-66.5 49.5q-40 0 -67.5 -49.5t-27.5 -124.5z" />
<glyph unicode="&#x1ed8;" d="M34 306q0 216 22 266q14 31 40.5 41t78.5 10t78.5 -10t39.5 -41q23 -52 23 -267q0 -214 -23 -266q-13 -31 -39.5 -41t-78.5 -10t-78.5 10t-40.5 41q-22 50 -22 267zM78 314q0 -159 10 -213q6 -39 24 -56t63 -17q46 0 64 18t24 60q8 58 8 208q0 151 -8 202q-7 40 -26 53.5 t-62 13.5q-44 0 -63 -14.5t-26 -56.5q-8 -51 -8 -198zM78 683q0 15 9 19l74 40q14 8 28 0l74 -40q9 -4 9 -19q0 -17 -15 -17q-12 0 -18 3l-64 29l-64 -29q-7 -3 -18 -3q-15 0 -15 17zM144 -170q0 16 9.5 26.5t21.5 10.5t21.5 -10.5t9.5 -26.5t-9.5 -26t-21.5 -10t-21.5 10 t-9.5 26z" />
<glyph unicode="&#x1ed9;" d="M36 213q0 93 41.5 157.5t97.5 64.5t97.5 -65t41.5 -157q0 -93 -41.5 -156t-97.5 -63t-97.5 63t-41.5 156zM73 527q0 7 12 19l74 68q15 13 30 0l74 -68q12 -12 12 -19q0 -20 -17 -20q-11 0 -20 8l-64 57l-64 -57q-9 -8 -20 -8q-17 0 -17 20zM80 220q0 -77 27.5 -131.5 t67.5 -54.5t67 54t27 132q0 75 -27.5 124.5t-66.5 49.5q-40 0 -67.5 -49.5t-27.5 -124.5zM144 -170q0 16 9.5 26.5t21.5 10.5t21.5 -10.5t9.5 -26.5t-9.5 -26t-21.5 -10t-21.5 10t-9.5 26z" />
<glyph unicode="&#x1eda;" d="M34 305q0 216 22 266q8 19 20.5 30t31 15.5t31 5.5t35.5 1q71 0 97 -21q7 0 13 13v20q-18 12 -18 32q0 15 8.5 25.5t21.5 11.5q32 0 32 -54q0 -51 -33 -81q20 -72 20 -264q0 -215 -22 -265q-10 -24 -32 -36.5t-39 -14t-48 -1.5q-23 0 -35.5 1t-31 5.5t-31 16t-20.5 29.5 q-22 50 -22 265zM78 318q0 -199 15 -246q15 -44 81 -44q67 0 81 44q16 47 16 246q0 182 -16 224q-5 14 -14 23t-21 12.5t-21.5 4.5t-24.5 1q-20 0 -32.5 -2t-27 -11.5t-21.5 -27.5q-15 -42 -15 -224zM84 702q0 8 18 21l78 58q19 13 29 13q8 0 14 -7t6 -17t-18 -23l-90 -66 q-8 -6 -15 -6q-22 0 -22 27z" />
<glyph unicode="&#x1edb;" d="M35 212q0 80 38.5 150.5t100.5 70.5q33 0 62 -23q18 7 23 18v20q-18 11 -18 32q0 16 8.5 26.5t22.5 10.5q29 0 31 -55q0 -52 -38 -82q48 -79 48 -168q0 -79 -38.5 -148.5t-100.5 -69.5q-61 0 -100 70t-39 148zM80 221q0 -80 28 -135q28 -52 66 -52q39 0 67 52 q28 55 28 135q0 76 -28 125q-28 47 -67 47q-40 0 -66 -47q-28 -49 -28 -125zM84 531q0 8 18 21l78 58q19 13 29 13q8 0 14 -7t6 -17q0 -9 -18 -23l-90 -66q-8 -6 -15 -6q-22 0 -22 27z" />
<glyph unicode="&#x1edc;" d="M34 305q0 216 22 266q8 19 20.5 30t31 15.5t31 5.5t35.5 1q71 0 97 -21q7 0 13 13v20q-18 12 -18 32q0 15 8.5 25.5t21.5 11.5q32 0 32 -54q0 -51 -33 -81q20 -72 20 -264q0 -215 -22 -265q-10 -24 -32 -36.5t-39 -14t-48 -1.5q-23 0 -35.5 1t-31 5.5t-31 16t-20.5 29.5 q-22 50 -22 265zM78 318q0 -199 15 -246q15 -44 81 -44q67 0 81 44q16 47 16 246q0 182 -16 224q-5 14 -14 23t-21 12.5t-21.5 4.5t-24.5 1q-20 0 -32.5 -2t-27 -11.5t-21.5 -27.5q-15 -42 -15 -224zM83 770q0 10 6 17t14 7q10 0 29 -13l78 -58q18 -13 18 -21q0 -27 -22 -27 q-7 0 -15 6l-90 66q-18 13 -18 23z" />
<glyph unicode="&#x1edd;" d="M35 212q0 80 38.5 150.5t100.5 70.5q33 0 62 -23q18 7 23 18v20q-18 11 -18 32q0 16 8.5 26.5t22.5 10.5q29 0 31 -55q0 -52 -38 -82q48 -79 48 -168q0 -79 -38.5 -148.5t-100.5 -69.5q-61 0 -100 70t-39 148zM80 221q0 -80 28 -135q28 -52 66 -52q39 0 67 52 q28 55 28 135q0 76 -28 125q-28 47 -67 47q-40 0 -66 -47q-28 -49 -28 -125zM83 599q0 10 6 17t14 7q10 0 29 -13l78 -58q18 -13 18 -21q0 -27 -22 -27q-7 0 -15 6l-90 66q-18 14 -18 23z" />
<glyph unicode="&#x1ede;" d="M34 305q0 216 22 266q8 19 20.5 30t31 15.5t31 5.5t35.5 1q71 0 97 -21q7 0 13 13v20q-18 12 -18 32q0 15 8.5 25.5t21.5 11.5q32 0 32 -54q0 -51 -33 -81q20 -72 20 -264q0 -215 -22 -265q-10 -24 -32 -36.5t-39 -14t-48 -1.5q-23 0 -35.5 1t-31 5.5t-31 16t-20.5 29.5 q-22 50 -22 265zM78 318q0 -199 15 -246q15 -44 81 -44q67 0 81 44q16 47 16 246q0 182 -16 224q-5 14 -14 23t-21 12.5t-21.5 4.5t-24.5 1q-20 0 -32.5 -2t-27 -11.5t-21.5 -27.5q-15 -42 -15 -224zM108 825q0 33 19 52.5t43 19.5q31 0 51.5 -19.5t20.5 -53.5 q0 -26 -22 -48q-33 -28 -33 -64v-19q0 -16 -17 -16q-18 0 -18 16v19q0 49 50 91q6 5 6 21q0 40 -38 40q-11 0 -18.5 -7t-7.5 -17v-16q0 -6 -5.5 -12t-12.5 -6q-18 0 -18 19z" />
<glyph unicode="&#x1edf;" d="M35 212q0 80 38.5 150.5t100.5 70.5q33 0 62 -23q18 7 23 18v20q-18 11 -18 32q0 16 8.5 26.5t22.5 10.5q29 0 31 -55q0 -52 -38 -82q48 -79 48 -168q0 -79 -38.5 -148.5t-100.5 -69.5q-61 0 -100 70t-39 148zM80 221q0 -80 28 -135q28 -52 66 -52q39 0 67 52 q28 55 28 135q0 76 -28 125q-28 47 -67 47q-40 0 -66 -47q-28 -49 -28 -125zM108 602q0 33 19 52.5t43 19.5q31 0 51.5 -19.5t20.5 -53.5q0 -26 -22 -48q-33 -27 -33 -64v-19q0 -16 -17 -16q-18 0 -18 16v19q0 49 50 91q6 5 6 21q0 40 -38 40q-11 0 -18.5 -7t-7.5 -17v-16 q0 -6 -5.5 -12t-12.5 -6q-18 0 -18 19z" />
</font>
</defs>
</svg>
