<?xml version="1.0" standalone="no"?>
<!DOCTYPE svg PUBLIC "-//W3C//DTD SVG 1.1//EN" "http://www.w3.org/Graphics/SVG/1.1/DTD/svg11.dtd" >
<svg xmlns="http://www.w3.org/2000/svg">
<metadata></metadata>
<defs>
<font id="latin_modern_mono_light10BdOb" horiz-adv-x="525" >
<font-face units-per-em="1000" ascent="783" descent="-217" />
<missing-glyph horiz-adv-x="500" />
<glyph unicode=" " />
<glyph unicode="!" d="M215 57q4 23 23 39.5t43 16.5t38 -16.5t10 -39.5q-5 -24 -24 -40.5t-43 -16.5t-37.5 16.5t-9.5 40.5zM250 212l48 346q5 27 20.5 42.5t27 18.5t20.5 3q6 0 13 -2t17 -7.5t14.5 -19.5t1.5 -35l-63 -324q-9 -36 -18 -45.5t-39 -9.5q-11 0 -19.5 1.5t-16.5 9.5t-6 22z" />
<glyph unicode="&#x22;" d="M195 362l20 198q4 34 23 48t40 14q18 0 33 -13.5t7 -48.5l-46 -199q-8 -41 -45 -41t-32 42zM372 362l20 198q4 34 23 48t40 14q18 0 33 -13.5t7 -48.5l-46 -199q-8 -41 -45 -41t-32 42z" />
<glyph unicode="#" d="M67 201q6 42 61 42h40l37 126h-56q-11 0 -20.5 1.5t-19.5 12t-7 28.5q6 42 61 42h68l31 111q13 47 51 47q18 0 29.5 -13t2.5 -42l-29 -103h84l32 111q2 10 6.5 19t16.5 18.5t28 9.5q18 0 29.5 -13t2.5 -42l-30 -103h28q12 0 21 -1.5t19 -11.5t7 -29q-7 -42 -61 -42h-39 l-37 -126h55q11 0 20.5 -1.5t19.5 -12t7 -28.5q-7 -42 -61 -42h-67l-34 -112q-13 -47 -50 -47q-18 0 -28 12.5t-7 29.5q1 5 34 117h-84l-34 -112q-13 -47 -51 -47q-18 0 -28 12.5t-7 29.5q1 5 35 117h-29q-12 0 -21 1.5t-19 11.5t-7 29zM253 243h85l37 126h-85z" />
<glyph unicode="$" d="M83 170q4 23 18.5 37t24.5 16.5t19 2.5q19 0 32.5 -14.5t9.5 -37.5q-3 -24 -21 -37q9 -53 71 -65l35 211q-45 9 -75.5 28t-44 37.5t-19.5 41t-5.5 34.5t2.5 24q9 58 63.5 106t133.5 60l5 30q2 11 4 16t6.5 14.5t13.5 13.5t22 4q39 0 29 -48l-4 -29q80 -9 116 -54.5 t26 -107.5q-5 -29 -23 -42t-39 -13q-25 0 -35.5 16t-6 36.5t19.5 32.5q-11 45 -71 56l-31 -188q48 -10 80.5 -33t43.5 -48t16 -51.5t-1 -44.5q-9 -58 -61 -110t-138 -67l-5 -30q-8 -48 -45 -48q-38 0 -30 48l5 29q-79 10 -115 59t-26 115zM206 452q-5 -31 18.5 -53.5 t61.5 -31.5l29 171q-43 -8 -73.5 -32t-35.5 -54zM312 74q43 9 73.5 36.5t36.5 60.5q5 33 -16 59.5t-61 36.5z" />
<glyph unicode="%" d="M77 -39q1 4 10 24l378 670q21 37 48 37q18 0 28 -12.5t7 -29.5q-1 -7 -10 -24l-379 -674q-18 -33 -47 -33q-17 0 -27 12.5t-8 29.5zM121 554q10 59 44 98.5t72 39.5t59 -39.5t11 -98.5t-43.5 -98.5t-72.5 -39.5q-38 0 -59 39t-11 99zM192 554q-4 -26 0 -44t12 -18t18 18 t14 44t0.5 44t-11.5 18q-9 0 -19 -18t-14 -44zM319 57q9 58 42.5 97.5t72.5 39.5t59.5 -39.5t11.5 -97.5q-10 -58 -44 -98t-73 -40t-59 40t-10 98zM390 57q-3 -19 -2.5 -33t4.5 -21.5t9 -7.5q8 0 18 17.5t15 44.5q4 26 0 43.5t-12 17.5t-18 -17.5t-14 -43.5z" />
<glyph unicode="&#x26;" d="M50 141q9 63 55 109q1 0 15.5 13.5t32.5 30.5t25 23q-12 82 0 156q12 72 51.5 110.5t82.5 38.5q35 0 54.5 -22.5t21.5 -54t-2 -65.5q-15 -83 -128 -184q8 -37 43 -116q35 54 104 181q-36 2 -29 38q5 37 52 37h90q10 0 16 -1t13.5 -4t10 -11.5t0.5 -21.5q-6 -37 -53 -37 h-25l-80 -147q-39 -67 -65 -100q33 -50 65 -50q25 0 38 48q1 12 10.5 25t30.5 13h3.5t8 -2t9.5 -6t6.5 -12.5t0.5 -19.5q-7 -44 -40 -82.5t-80 -38.5q-59 0 -103 64q-68 -64 -132 -64q-57 0 -84.5 45.5t-17.5 106.5zM131 144q-7 -17 0 -48.5t32 -31.5q39 0 84 49 q-28 52 -54 127q-35 -33 -46 -49.5t-16 -46.5zM242 379q66 63 72 101q8 67 -16 67q-16 0 -30.5 -19.5t-20.5 -54.5q-7 -49 -5 -94z" />
<glyph unicode="'" d="M284 362l20 198q4 34 23 48t40 14q18 0 33 -13.5t7 -48.5l-46 -199q-8 -41 -45 -41t-32 42z" />
<glyph unicode="(" d="M220 306q15 89 60 167t95 123t89.5 70.5t53.5 25.5q36 0 33 -35q-2 -12 -8 -18.5t-23 -17.5q-98 -60 -151 -145.5t-67 -169.5q-15 -89 11 -173.5t100 -140.5q14 -12 18 -18t2 -19q-1 -12 -11 -23.5t-32 -11.5q-20 0 -62 38.5t-71 90.5q-61 117 -37 257z" />
<glyph unicode=")" d="M76 -45q2 12 8.5 19t22.5 17q68 41 116.5 99.5t70.5 110.5t31 105q4 24 5.5 47.5t-3 61.5t-16 71.5t-38 71.5t-66.5 68q-16 13 -13 31q1 11 12 23t31 12t62 -38.5t71 -90.5q61 -114 37 -257q-15 -89 -60 -167t-95 -123t-89.5 -70.5t-53.5 -25.5q-20 0 -27 11.5t-6 23.5z " />
<glyph unicode="*" d="M101 216q4 24 36 39l100 51l-84 51q-14 7 -19.5 14.5t-2.5 23.5q2 15 16 27.5t31 12.5q11 0 25 -10l83 -54l15 104q10 48 48 48q18 0 26.5 -10t7 -21t-1.5 -17l-19 -104l121 64q22 0 33 -9.5t9.5 -18.5t-0.5 -12q-4 -24 -36 -39l-100 -51q9 -5 31 -17.5t39 -22.5t25 -16 q14 -14 11 -33q-2 -15 -16 -27.5t-31 -12.5q-12 0 -37 17l-71 47l-15 -104q-10 -48 -48 -48q-18 0 -26.5 10t-7 21t1.5 17l19 104l-121 -64q-22 0 -33 9.5t-9.5 18.5t0.5 12z" />
<glyph unicode="+" d="M87 306q7 42 61 42h130l22 131q8 54 51 54q41 0 33 -54l-22 -131h130q12 0 21 -1.5t19 -11.5t7 -29q-7 -42 -61 -42h-130l-22 -131q-8 -54 -51 -54q-41 0 -33 54l22 131h-130q-12 0 -21 1.5t-19 11.5t-7 29z" />
<glyph unicode="," d="M158 -96q4 26 39 34q51 21 73 63q-3 -1 -8 -1q-28 0 -44.5 19t-11.5 50q4 28 26 48t54 20q37 0 58 -29t13 -76q-13 -74 -72 -120.5t-95 -46.5q-15 0 -24.5 12.5t-7.5 26.5z" />
<glyph unicode="-" d="M104 306q7 42 61 42h310q12 0 21 -1.5t19 -11.5t7 -29q-7 -42 -61 -42h-310q-12 0 -21 1.5t-19 11.5t-7 29z" />
<glyph unicode="." d="M206 69q4 27 27 47.5t53 20.5q27 0 44 -19.5t12 -49.5q-4 -27 -27 -47.5t-53 -20.5q-27 0 -44 20t-12 49z" />
<glyph unicode="/" d="M48 -39q2 8 14 27l434 672q19 32 46 32q18 0 28 -12.5t7 -29.5q-1 -7 -13 -27l-434 -672q-19 -32 -47 -32q-18 0 -27.5 12.5t-7.5 29.5z" />
<glyph unicode="0" d="M99 306q23 134 102 225t165 91q85 0 134.5 -90.5t26.5 -226.5q-23 -134 -102 -225t-165 -91q-85 0 -134.5 90.5t-26.5 226.5zM183 316q-17 -104 9 -178t81 -74t106 74t68 178q17 100 -12 165.5t-82 65.5t-103 -65.5t-67 -165.5z" />
<glyph unicode="1" d="M113 37q6 38 54 38h81l64 387q-53 -34 -100 -34q-39 0 -32 37q5 36 49 38q64 7 114 91q16 28 42 28q37 0 29 -48l-83 -499h81q13 0 20.5 -1.5t14.5 -10.5t4 -26q-6 -37 -52 -37h-245q-13 0 -21 1.5t-15.5 10t-4.5 25.5z" />
<glyph unicode="2" d="M56 38q3 18 23 32l245 182q125 89 139 172q9 58 -29 90.5t-99 32.5q-36 0 -67 -18t-48 -47q10 -15 7 -34q-4 -23 -22.5 -37t-37.5 -14q-18 0 -32.5 13t-9.5 41q12 68 76.5 119.5t151.5 51.5q95 0 151 -54.5t41 -143.5q-19 -106 -142 -201q-24 -18 -97.5 -71.5 t-103.5 -76.5h203q3 24 13 35t36 11q27 0 32.5 -15.5t-0.5 -32.5l-4 -25q-5 -29 -15.5 -38.5t-38.5 -9.5h-331q-13 0 -21 1.5t-15.5 10.5t-4.5 26z" />
<glyph unicode="3" d="M65 140q5 26 22 40t38 14q22 0 34.5 -15t8.5 -36q-4 -20 -15 -31q13 -26 49.5 -37t72.5 -11q59 0 102.5 34t51.5 79q7 44 -24 79t-95 35h-45q-13 0 -21 1.5t-15.5 10.5t-4.5 26q4 24 21 32t64 8q50 0 90 28q44 30 51 79q5 30 -22 50.5t-73 20.5q-68 0 -102 -24 q10 -30 -11 -53.5t-46 -23.5q-20 0 -33.5 14t-9.5 40q9 54 66.5 88t147.5 34q85 0 130.5 -43t36.5 -102q-15 -87 -98 -143q42 -25 63 -66t13 -91q-13 -74 -83.5 -131t-166.5 -57q-95 0 -151.5 42t-45.5 109z" />
<glyph unicode="4" d="M62 211q3 18 5.5 23.5t11.5 15.5l280 349q14 16 22.5 20t29.5 4h27q30 0 37.5 -9.5t2.5 -38.5l-56 -335h68q13 0 21 -1.5t15.5 -10.5t4.5 -26q-6 -37 -53 -37h-68l-15 -90h52q14 0 21.5 -1.5t14.5 -10.5t4 -26q-6 -37 -53 -37h-175q-13 0 -21 1.5t-15.5 10t-4.5 25.5 q6 38 54 38h53l15 90h-238q-28 0 -36 9t-4 37zM156 240h194l51 305z" />
<glyph unicode="5" d="M74 146q5 30 24 42.5t37 12.5q19 0 32.5 -14.5t9.5 -37.5q-3 -19 -16 -32q22 -53 98 -53q59 0 107.5 37t57.5 92q8 48 -17 87.5t-78 39.5q-76 0 -124 -46q-17 -18 -38 -18q-25 0 -31 16t0 32l43 259q5 29 15.5 38.5t38.5 9.5h263q13 0 21 -1.5t15 -10.5t4 -26 q-6 -37 -53 -37h-227l-27 -165q55 24 114 24q86 0 131 -61t32 -141q-14 -84 -89.5 -144t-170.5 -60q-84 0 -133.5 46.5t-38.5 110.5z" />
<glyph unicode="6" d="M101 299q16 97 68 172.5t119 113t135 37.5q70 0 98.5 -32.5t21.5 -75.5q-4 -25 -21 -39.5t-40 -14.5q-22 0 -33.5 14.5t-8.5 36.5q4 19 11 27q-16 9 -41 9q-62 0 -123.5 -52t-89.5 -139q66 45 143 45q83 0 131.5 -59.5t34.5 -145.5q-15 -89 -87 -148t-157 -59 q-40 0 -72.5 15t-60 51t-34 95.5t5.5 148.5zM179 166q15 -102 96 -102q51 0 95.5 37.5t53.5 94.5q9 53 -19.5 91t-82.5 38q-52 0 -93.5 -29t-48.5 -72q-4 -42 -1 -58z" />
<glyph unicode="7" d="M132 538l7 41q2 14 5 23t14 17t30 8q26 0 33 -16h316q14 0 22 -1.5t15 -10.5t4 -26q-2 -12 -7 -18t-24 -21q-34 -29 -69 -66t-82.5 -99.5t-86 -149.5t-56.5 -183q-8 -47 -49 -47q-39 0 -32 54q8 46 24.5 98.5t47 119.5t82.5 139.5t119 135.5h-231q-4 -24 -13.5 -35 t-35.5 -11q-19 0 -27.5 7.5t-7.5 18t2 22.5z" />
<glyph unicode="8" d="M72 177q8 50 48.5 90.5t96.5 61.5q-47 21 -69.5 55t-16.5 74q11 64 79 114t156 50t139 -49.5t40 -114.5q-6 -40 -39.5 -73.5t-88.5 -55.5q49 -20 76 -60.5t19 -91.5q-13 -76 -85.5 -132t-166.5 -56q-93 0 -147 56.5t-41 131.5zM155 178q-8 -47 26.5 -80.5t91.5 -33.5 t102.5 33.5t53.5 80.5q7 44 -25.5 78.5t-92.5 34.5t-104.5 -34.5t-51.5 -78.5zM214 457q-6 -38 26.5 -64.5t82.5 -26.5t91.5 26.5t47.5 64.5q6 36 -25.5 63t-83.5 27q-53 0 -93 -27t-46 -63z" />
<glyph unicode="9" d="M83 97q4 25 21 39.5t40 14.5q30 0 39 -27t-6 -49q19 -11 51 -11q63 0 119.5 54.5t82.5 136.5q-68 -45 -144 -45q-83 0 -131.5 59.5t-34.5 145.5q15 90 88.5 148.5t160.5 58.5q39 0 70.5 -14.5t58.5 -50t33 -95t-6 -150.5q-24 -143 -115 -233t-195 -90q-38 0 -65 8 t-40 20.5t-21 27.5t-7 28.5t1 23.5zM202 415q-9 -53 19.5 -91t82.5 -38q55 0 95.5 30.5t47.5 70.5q10 60 -12.5 110t-78.5 50q-52 0 -98 -37t-56 -95z" />
<glyph unicode=":" d="M206 69q4 27 27 47.5t53 20.5q27 0 44 -19.5t12 -49.5q-4 -27 -27 -47.5t-53 -20.5q-27 0 -44 20t-12 49zM255 367q5 27 28 48t53 21q27 0 44 -20t12 -50q-5 -27 -27.5 -47.5t-52.5 -20.5q-27 0 -44 20t-13 49z" />
<glyph unicode=";" d="M158 -96q3 19 29 32q49 24 69 64q-31 3 -42.5 23.5t-7.5 45.5q5 29 27 48.5t52 19.5q32 0 48.5 -26.5t8.5 -76.5q-9 -52 -43 -93.5t-64 -58.5t-45 -17t-24.5 12t-7.5 27zM255 367q5 27 28 48t53 21q27 0 44 -20t12 -50q-5 -27 -27.5 -47.5t-52.5 -20.5q-27 0 -44 20 t-13 49z" />
<glyph unicode="&#x3c;" d="M104 306q4 24 33 39l353 201q18 11 32 11q16 0 27 -11t8 -30q-4 -23 -34 -40l-298 -170l242 -170q24 -19 20 -40q-3 -19 -18 -30t-31 -11q-14 0 -28 11l-290 203q-19 15 -16 37z" />
<glyph unicode="=" d="M75 232q7 42 59 42h348q12 0 20.5 -1.5t18 -11.5t6.5 -29q-7 -42 -64 -42h-338q-12 0 -22.5 1.5t-20.5 12t-7 28.5zM99 380q7 42 64 42h338q12 0 22.5 -1.5t20.5 -12t7 -28.5q-6 -42 -59 -42h-348q-11 0 -20 1.5t-18.5 11.5t-6.5 29z" />
<glyph unicode="&#x3e;" d="M69 96q4 23 34 40l298 170l-242 170q-24 19 -20 40q4 19 18.5 30t30.5 11q14 0 28 -11l290 -203q20 -16 16 -37q-4 -23 -32 -39l-354 -201q-18 -11 -32 -11q-16 0 -27 11t-8 30z" />
<glyph unicode="?" d="M141 490q8 50 61.5 88.5t152.5 38.5q54 0 93.5 -10t57.5 -24.5t30 -32.5t11 -34t-1 -28q-10 -63 -85 -101q-112 -57 -126 -144l-3 -17q-5 -29 -16.5 -38t-38.5 -9q-32 0 -38 12.5t2 46.5q3 17 6 30t15.5 38.5t31 46.5t55 49t85.5 53q27 15 29 33q4 23 -26 38.5t-95 15.5 q-68 0 -102 -27q13 -29 -9 -53.5t-47 -24.5q-20 0 -33.5 14t-9.5 39zM200 57q4 23 23 39.5t43 16.5t38 -16.5t10 -39.5q-5 -24 -24 -40.5t-43 -16.5t-37.5 16.5t-9.5 40.5z" />
<glyph unicode="@" d="M93 306q22 132 115 221.5t198 89.5q176 0 130 -296q-11 -62 -34.5 -107.5t-52 -68t-53 -32.5t-46.5 -10q-59 0 -94 57.5t-20 145.5q14 85 68 143.5t115 58.5q22 0 44 -10q-19 44 -70 44q-76 0 -144.5 -67.5t-85.5 -169.5q-16 -99 29.5 -167.5t123.5 -68.5q54 0 105 40 q14 12 36 12q7 0 12.5 -1t13.5 -4t11.5 -10.5t1.5 -19.5q-4 -26 -66 -59t-126 -33q-107 0 -170 90t-41 222zM308 305q-9 -53 8.5 -90t49.5 -37q30 0 60 36.5t39 90.5t-8.5 91t-49.5 37q-30 0 -60 -36.5t-39 -91.5z" />
<glyph unicode="A" d="M31 37q4 24 27 35q9 3 40 3l201 505q12 29 25 36t42 7t40 -7.5t13 -36.5l33 -504q30 0 43.5 -7.5t9.5 -30.5q-6 -37 -56 -37h-99q-15 0 -23 1.5t-15.5 10t-4.5 25.5q4 23 17 30t43 8l-5 86h-146l-33 -86q29 -1 39.5 -8t6.5 -30q-3 -17 -13 -25.5t-18.5 -10t-23.5 -1.5 h-99q-13 0 -22 1.5t-17 10.5t-5 25zM246 236h110l-11 260z" />
<glyph unicode="B" d="M27 37q6 38 55 38h18l76 461h-18q-13 0 -21 1.5t-15.5 10.5t-4.5 26q6 37 53 37h220q80 0 119.5 -49t28.5 -110q-7 -42 -36.5 -76.5t-73.5 -54.5q48 -18 70.5 -59.5t14.5 -90.5q-12 -66 -68 -118.5t-137 -52.5h-240q-12 0 -20 1.5t-16 10t-5 25.5zM184 75h116 q55 0 89.5 29.5t41.5 67.5t-13.5 73t-72.5 35h-127zM230 355h92q60 0 94 30.5t40 65.5q5 30 -13 57.5t-69 27.5h-114z" />
<glyph unicode="C" d="M89 306q22 134 109.5 225t186.5 91q67 0 117 -43q12 21 13 22q19 21 38 21q37 0 29 -48l-23 -135q-2 -12 -4 -18.5t-7 -14.5t-14.5 -11.5t-24.5 -3.5q-16 0 -24.5 6t-9.5 12.5t-1 19.5q0 55 -28 86.5t-71 31.5q-64 0 -125 -69.5t-78 -171.5q-17 -103 20.5 -172.5 t103.5 -69.5q39 0 80.5 26t55.5 86q9 35 47 35q10 0 17 -1t14.5 -10.5t4.5 -27.5q-12 -71 -81 -127t-155 -56q-99 0 -155.5 91t-34.5 226z" />
<glyph unicode="D" d="M23 37q6 38 55 38h14l76 461h-14q-13 0 -21 1.5t-15.5 10t-4.5 25.5q6 38 54 38h201q64 0 108 -44t59.5 -114.5t1.5 -151.5q-21 -124 -98 -212.5t-173 -88.5h-201q-13 0 -21 1.5t-16 10t-5 25.5zM175 75h86q73 0 126 68t68 158q7 57 1 109.5t-37.5 89t-81.5 36.5h-86z " />
<glyph unicode="E" d="M30 37q6 38 55 38h21l76 461h-21q-13 0 -21 1.5t-15.5 10.5t-4.5 26q6 37 54 37h364q28 0 35.5 -10t2.5 -38l-12 -71q-3 -16 -5.5 -23.5t-13.5 -16t-31 -8.5q-19 0 -27.5 7.5t-7.5 18t2 22.5l7 44h-223l-30 -182h112q7 33 16 44t35 11q19 0 27.5 -7.5t7.5 -17.5t-2 -22 l-15 -91q-3 -15 -5.5 -23.5t-13.5 -16.5t-30 -8q-26 0 -32 12.5t0 43.5h-112l-34 -204h245l9 59q2 12 4 18.5t7 14.5t14.5 11.5t24.5 3.5q19 0 27.5 -7.5t7.5 -18t-2 -22.5l-14 -86q-5 -29 -16 -38.5t-39 -9.5h-385q-13 0 -21 1.5t-16 10t-5 25.5z" />
<glyph unicode="F" d="M32 37q6 38 55 38h24l76 461h-24q-13 0 -21 1.5t-15.5 10t-4.5 25.5q6 38 54 38h371q29 0 36.5 -10t2.5 -38l-12 -71q-3 -15 -6 -23.5t-14 -16.5t-30 -8t-27.5 7.5t-7.5 18t2 22.5l7 44h-228l-32 -193h117q6 33 15.5 44.5t36.5 11.5q19 0 27 -7.5t7.5 -18t-1.5 -22.5 l-16 -91q-2 -14 -5 -23t-14 -17t-30 -8q-27 0 -33 12.5t1 43.5h-117l-32 -193h43q13 0 21 -1.5t15 -10.5t4 -26q-6 -37 -53 -37h-150q-13 0 -21 1.5t-16 10t-5 25.5z" />
<glyph unicode="G" d="M87 306q22 134 104 225t174 91q62 0 104 -39q15 23 25 31t25 8q37 0 29 -48l-23 -135q-2 -12 -4 -18.5t-7 -14.5t-14.5 -11.5t-24.5 -3.5q-21 0 -28 8.5t-7 26.5q1 66 -25.5 93.5t-58.5 27.5q-57 0 -113 -69t-73 -173q-17 -101 15 -171t90 -70q38 0 71.5 35t53.5 105h-32 q-13 0 -21 1.5t-15.5 10.5t-4.5 26q6 37 54 37h116q12 0 20.5 -1.5t16 -10.5t4.5 -25q-6 -38 -52 -38l-26 -156q-3 -15 -5.5 -23.5t-13.5 -16.5t-30 -8q-38 0 -36 31q-52 -42 -116 -42q-91 0 -143 91t-29 226z" />
<glyph unicode="H" d="M26 37q6 38 54 38h17l76 461h-17q-13 0 -20.5 1.5t-15 10t-4.5 25.5q6 38 53 38h116q13 0 21 -1.5t15.5 -10.5t4.5 -26q-6 -37 -54 -37h-16l-30 -181h190l30 181h-16q-13 0 -21 1.5t-15 10.5t-4 26q6 37 53 37h116q13 0 21 -1.5t15.5 -10.5t4.5 -26q-6 -37 -54 -37h-17 l-76 -461h17q13 0 21 -1.5t15 -10.5t4 -26q-6 -37 -53 -37h-116q-13 0 -21 1.5t-15.5 10.5t-4.5 26q6 37 54 37h16l34 205h-190l-34 -205h16q13 0 21 -1.5t15 -10.5t4 -26q-6 -37 -53 -37h-116q-13 0 -21 1.5t-15.5 10t-4.5 25.5z" />
<glyph unicode="I" d="M82 38q6 37 55 37h97l76 461h-97q-13 0 -21 1.5t-15.5 10.5t-4.5 26q6 37 54 37h277q13 0 21 -1.5t16 -10.5t5 -26q-6 -37 -55 -37h-97l-76 -461h97q13 0 21 -1.5t15.5 -10.5t4.5 -26q-6 -37 -54 -37h-277q-13 0 -21 1.5t-16 10.5t-5 26z" />
<glyph unicode="J" d="M85 104q5 26 22.5 40t38.5 14q22 0 34.5 -15t8.5 -36q-3 -16 -9 -24q23 -19 69 -19q11 0 22.5 2t30 9t32.5 25t19 44l65 392h-73q-12 0 -20 1.5t-15.5 10.5t-4.5 26q6 37 53 37h177q13 0 21 -1.5t16 -10t5 -25.5q-6 -38 -55 -38h-22l-66 -398q-11 -67 -69 -108t-129 -41 q-76 0 -117.5 32.5t-33.5 82.5z" />
<glyph unicode="K" d="M30 38q6 37 55 37h14l76 461h-14q-13 0 -21 1.5t-15.5 10.5t-4.5 26q6 37 54 37h97q13 0 21.5 -1.5t16 -10.5t4.5 -26q-6 -37 -55 -37h-13l-38 -229l221 230q-32 4 -26 36q6 38 54 38h85q12 0 20.5 -1.5t16.5 -10.5t5 -25q-4 -24 -19 -31t-47 -7l-173 -180l112 -281 q27 0 39 -7.5t8 -30.5q-6 -37 -54 -37h-73q-13 0 -21.5 1.5t-16 10.5t-4.5 26q6 34 40 36l-87 223l-99 -103l-19 -119h13q13 0 21 -1.5t15.5 -10.5t4.5 -26q-6 -37 -54 -37h-97q-13 0 -21.5 1.5t-16 10.5t-4.5 26z" />
<glyph unicode="L" d="M36 37q6 38 54 38h28l76 461h-28q-13 0 -20.5 1.5t-15 10t-4.5 25.5q6 38 53 38h158q12 0 20 -1.5t16 -10.5t5 -26q-6 -37 -54 -37h-47l-76 -461h219l9 59q3 13 4.5 18.5t6.5 14t14.5 12t24.5 3.5q19 0 27.5 -7t7.5 -18t-2 -23l-14 -86q-5 -29 -15.5 -38.5t-39.5 -9.5 h-366q-13 0 -21 1.5t-15.5 10t-4.5 25.5z" />
<glyph unicode="M" d="M21 37q4 23 18 30.5t41 7.5l76 461q-27 0 -38 7.5t-7 30.5q6 37 53 37h55q43 0 50 -28l43 -282l130 266q12 25 24.5 34.5t42.5 9.5h55q13 0 21 -1.5t15.5 -10t4.5 -25.5q-4 -23 -18 -30.5t-41 -7.5l-76 -461q27 0 38 -7.5t7 -30.5q-6 -37 -53 -37h-80q-13 0 -21 1.5 t-15.5 10t-4.5 25.5q4 23 18 30.5t41 7.5l68 408l-127 -258q-18 -26 -46 -26q-21 0 -33 19l-43 265l-68 -408q26 0 37 -7.5t7 -30.5q-6 -37 -53 -37h-80q-13 0 -21 1.5t-15.5 10t-4.5 25.5z" />
<glyph unicode="N" d="M32 38q6 37 54 37h17l76 461h-17q-13 0 -21 1.5t-15 10.5t-4 26q6 37 53 37h66q25 0 36.5 -7.5t16.5 -32.5l91 -447l68 412h-16q-13 0 -20.5 1.5t-15 10t-4.5 25.5q6 38 53 38h103q13 0 21 -1.5t15.5 -10.5t4.5 -26q-6 -37 -54 -37h-17l-81 -488q-5 -31 -16.5 -39.5 t-39.5 -8.5q-18 0 -26.5 1.5t-16.5 10.5t-11 28l-91 447l-68 -412h16q13 0 21 -1.5t15 -10.5t4 -26q-6 -37 -53 -37h-103q-13 0 -21 1.5t-15.5 10.5t-4.5 26z" />
<glyph unicode="O" d="M104 305q13 78 23 125t25.5 86t30.5 57t43.5 30.5t58.5 15.5t81 3q38 0 62.5 -1.5t47 -7.5t34.5 -14.5t21.5 -26.5t11.5 -39t0.5 -56.5t-6.5 -74.5t-15 -97t-17.5 -97t-18 -74.5t-19.5 -56.5t-24.5 -38.5t-30.5 -26t-40 -14.5t-49.5 -7.5t-62.5 -1.5q-51 0 -80 2.5 t-53 15.5t-33 31t-11.5 57t3 85.5t18.5 124.5zM169 128q3 -36 24.5 -50t79.5 -14q60 0 86 15t40 54q19 50 41 181q22 130 18 176q-4 35 -27 46t-78 11q-58 0 -84.5 -13.5t-44.5 -57.5q-14 -38 -36 -162q-22 -147 -19 -186z" />
<glyph unicode="P" d="M30 37q6 38 55 38h21l76 461h-21q-13 0 -21 1.5t-15.5 10.5t-4.5 26q6 37 54 37h218q84 0 129 -56t32 -130q-13 -75 -75.5 -130.5t-147.5 -55.5h-114l-27 -164h21q13 0 21 -1.5t15.5 -10.5t4.5 -26q-6 -37 -54 -37h-125q-13 0 -21 1.5t-16 10t-5 25.5zM229 314h95 q61 0 100.5 34.5t46.5 76.5q7 41 -21 76t-89 35h-95z" />
<glyph unicode="Q" d="M104 305q13 78 23 125t25.5 86t30.5 57t43.5 30.5t58.5 15.5t81 3q38 0 62.5 -1.5t47 -7.5t34.5 -14.5t21.5 -26.5t11.5 -39t0.5 -56.5t-6.5 -74.5t-15 -97q-21 -119 -33 -164q-17 -59 -37 -89t-52 -44l20 -51l20 -66q-4 -26 -44 -26h-9q-29 0 -38 15l-39 110l-50 -1 q-51 0 -80 2.5t-53 15.5t-33 31t-11.5 57t3 85.5t18.5 124.5zM168 138q1 -40 20.5 -57t76.5 -17h19l-27 75q-3 8 -2 17q4 26 43 26h11q18 0 22.5 -2.5t10.5 -16.5l29 -77q18 12 33 55.5t35 164.5q20 116 19 167q0 44 -22 59t-83 15t-86 -14t-41 -53q-17 -44 -39 -175 q-20 -116 -19 -167z" />
<glyph unicode="R" d="M27 37q6 38 53 38h17l76 461h-17q-13 0 -20.5 1.5t-14.5 10t-4 25.5q6 38 52 38h173q87 0 133.5 -51.5t34.5 -120.5q-5 -35 -30 -72.5t-70 -63.5q24 -24 32 -55q5 -25 -6 -95q-4 -23 -5.5 -34.5t-2.5 -26.5t2.5 -21.5t10.5 -6.5q10 0 14 24q8 49 50 49q10 0 17 -1 t13.5 -10.5t3.5 -27.5q-6 -37 -35.5 -73t-74.5 -36q-56 0 -76 49q-9 31 -8 51t11 77q6 27 5.5 46t-11.5 31q-25 25 -70 25h-68l-32 -193h16q13 0 21 -1.5t15 -10.5t4 -26q-6 -37 -53 -37h-116q-13 0 -20.5 1.5t-15 10t-4.5 25.5zM223 343h63q58 0 96.5 29.5t44.5 66.5 q7 37 -21.5 67t-87.5 30h-63z" />
<glyph unicode="S" d="M56 37l22 129q3 16 5.5 23.5t13.5 15.5t30 8q18 0 26.5 -6t8 -15.5t-0.5 -19.5q-7 -52 34 -82q38 -26 100 -26q51 0 86.5 31t42.5 70q14 82 -86 102l-108 27q-59 17 -86 62t-18 98q11 68 73 118t144 50q77 0 125 -40q18 40 47 40q37 0 29 -48l-22 -129q-2 -11 -4 -17.5 t-7 -14.5t-14.5 -11.5t-24.5 -3.5q-19 0 -27 7t-8 26q0 116 -108 116q-47 0 -83 -26.5t-42 -62.5q-5 -30 12.5 -52.5t46.5 -31.5l75 -18q62 -15 86.5 -26t49.5 -39q40 -52 28 -121q-12 -72 -74 -126.5t-147 -54.5q-94 0 -149 40q-11 -22 -21 -31t-26 -9q-37 0 -29 48z" />
<glyph unicode="T" d="M106 492l12 71q4 29 15.5 38.5t40.5 9.5h381q29 0 36.5 -10t2.5 -38l-12 -71q-3 -15 -6 -23.5t-14 -16.5t-30 -8t-27.5 7.5t-7.5 18t2 22.5l7 44h-113l-76 -461h43q13 0 21 -1.5t15 -10.5t4 -26q-6 -37 -53 -37h-169q-13 0 -21 1.5t-15.5 10.5t-4.5 26q6 37 54 37h43 l76 461h-114l-7 -44q-3 -15 -6 -23.5t-14 -16.5t-30 -8t-27.5 7.5t-7.5 18t2 22.5z" />
<glyph unicode="U" d="M99 574q6 37 54 37h125q13 0 21 -1.5t16 -10t5 -25.5q-6 -38 -55 -38h-21l-54 -325q-11 -69 15.5 -108t67.5 -39q40 0 80 39.5t51 107.5l54 325h-21q-13 0 -21 1.5t-15.5 10.5t-4.5 26q6 37 54 37h125q13 0 21 -1.5t16 -10t5 -25.5q-6 -38 -55 -38h-21l-54 -329 q-15 -92 -82.5 -155t-144.5 -63t-122.5 63t-30.5 155l54 329h-21q-13 0 -21 1.5t-15.5 10.5t-4.5 26z" />
<glyph unicode="V" d="M112 574q6 37 54 37h100q12 0 20 -1.5t16 -10t5 -25.5q-4 -23 -17 -30t-42 -8l33 -425l173 425q-28 1 -38.5 8.5t-6.5 29.5q6 37 53 37h100q13 0 21 -1.5t16 -10t5 -25.5q-4 -24 -19 -31t-46 -7l-210 -502q-8 -19 -19.5 -29t-21 -11.5t-27.5 -1.5q-19 0 -28 2t-16.5 11.5 t-9.5 29.5l-44 501q-31 0 -43 7t-8 31z" />
<glyph unicode="W" d="M106 573q6 38 53 38h77q13 0 21 -1.5t15.5 -10.5t4.5 -26q-6 -37 -54 -37h-15l-16 -407l82 217q16 27 50 27q37 0 43 -28l9 -215l118 406h-15q-13 0 -20.5 1.5t-15 10t-4.5 25.5q6 38 53 38h77q12 0 20 -1.5t16 -10.5t5 -26q-7 -35 -45 -37l-152 -503q-13 -41 -55 -41 q-38 0 -41 30l-11 235l-93 -240q-17 -25 -49 -25q-8 0 -13 1t-12.5 4t-11.5 12.5t-4 23.5l14 503q-38 3 -31 37z" />
<glyph unicode="X" d="M31 37q6 38 54 38h17l166 249l-78 212h-17q-13 0 -21 1.5t-15.5 10.5t-4.5 26q6 37 54 37h101q13 0 21 -1.5t15.5 -10t4.5 -25.5q-6 -34 -44 -38l43 -117l76 117q-18 1 -27 9t-6 29q6 37 52 37h102q13 0 21 -1.5t16 -10.5t5 -26q-6 -37 -55 -37h-17l-141 -210l92 -251h18 q13 0 21 -1.5t15.5 -10.5t4.5 -26q-6 -37 -54 -37h-101q-13 0 -21 1.5t-15.5 10t-4.5 25.5q3 21 14.5 29t31.5 9l-57 164l-104 -164q40 -2 34 -38q-6 -37 -54 -37h-101q-13 0 -21 1.5t-15.5 10t-4.5 25.5z" />
<glyph unicode="Y" d="M113 574q6 37 53 37h102q12 0 20 -1.5t15.5 -10t4.5 -25.5q-6 -36 -47 -38l58 -203l122 203q-18 1 -27 9t-6 29q6 37 52 37h102q13 0 21 -1.5t15.5 -10.5t4.5 -26q-6 -37 -54 -37h-16l-188 -292l-28 -169h16q14 0 21.5 -1.5t14.5 -10.5t4 -26q-6 -37 -53 -37h-115 q-14 0 -22 1.5t-15 10.5t-4 26q6 37 54 37h16l28 169l-93 292h-16q-13 0 -21 1.5t-15 10.5t-4 26z" />
<glyph unicode="Z" d="M53 41q3 18 17 34l388 461h-229l-7 -44q-3 -16 -5.5 -23.5t-13.5 -16t-31 -8.5q-19 0 -27.5 7.5t-7.5 18t2 22.5l12 71q4 29 15.5 38.5t40.5 9.5h326q11 0 17 -1t13.5 -4.5t9.5 -12.5t0 -23q-3 -18 -17 -34l-388 -461h245l10 62q2 12 4 18.5t7 14.5t14.5 11.5t24.5 3.5 q19 0 27.5 -7.5t7.5 -18t-2 -22.5l-15 -89q-5 -29 -15.5 -38.5t-39.5 -9.5h-343q-11 0 -17 1t-13.5 4.5t-9.5 12.5t0 23z" />
<glyph unicode="[" d="M212 -33l113 677q5 29 15.5 38.5t38.5 9.5h177q13 0 21 -1.5t15 -10.5t4 -26q-6 -37 -52 -37h-141l-104 -623h141q13 0 21 -1.5t15 -10.5t4 -26q-6 -37 -53 -37h-177q-28 0 -35.5 10t-2.5 38z" />
<glyph unicode="\" d="M163 650q3 17 17 29.5t32 12.5q28 0 36 -31l211 -673q5 -18 3 -27q-2 -17 -16.5 -29.5t-32.5 -12.5q-27 0 -35 31l-211 673q-5 18 -4 27z" />
<glyph unicode="]" d="M30 -43q6 37 52 37h141l104 623h-141q-13 0 -21 1.5t-15 10.5t-4 26q6 37 52 37h177q28 0 35.5 -10t2.5 -38l-113 -677q-5 -28 -15.5 -38t-38.5 -10h-177q-13 0 -20.5 1.5t-14.5 10.5t-4 26z" />
<glyph unicode="^" d="M180 544l172 77q14 6 29 0l146 -77q17 -12 15.5 -30.5t-19.5 -32t-37 -4.5l-134 62l-154 -62q-28 -11 -41 13t8 44q6 6 15 10z" />
<glyph unicode="_" d="M33 -117q7 42 61 42h310q12 0 21 -1.5t19 -11.5t7 -29q-6 -42 -61 -42h-310q-12 0 -21 1.5t-19 11.5t-7 29z" />
<glyph unicode="`" d="M273 539q-37 18 -23 50.5t47 32.5q9 0 21 -6l119 -58q14 -6 20 -13.5t3 -22.5q-1 -11 -14.5 -28.5t-33.5 -17.5q-8 0 -20 5z" />
<glyph unicode="a" d="M75 133q12 70 98 109.5t220 42.5q4 43 -23 63.5t-79 20.5l-49 -3q-5 -28 -23.5 -40.5t-36.5 -12.5q-21 0 -33.5 14t-8.5 38q14 79 162 79q101 0 142.5 -48t31.5 -110l-34 -205q14 -6 50 -6q13 0 20.5 -1.5t15 -10t4.5 -25.5q-4 -25 -18.5 -31.5t-44.5 -6.5q-81 0 -102 29 q-64 -35 -146 -35q-76 0 -115.5 41.5t-30.5 97.5zM157 133q-5 -27 18 -45.5t64 -18.5q50 0 86 16q17 7 26.5 17t11.5 16.5t4 19.5l12 74q-97 -4 -156.5 -25t-65.5 -54z" />
<glyph unicode="b" d="M101 48l81 488h-36q-12 0 -20 1.5t-15.5 10t-4.5 25.5q6 38 54 38h71q29 0 36.5 -10t2.5 -38l-27 -160q59 38 123 38q81 0 128.5 -65t31.5 -158q-15 -94 -88.5 -159t-157.5 -65q-59 0 -99 40q-9 -34 -46 -34q-19 0 -28 7t-8 18t2 23zM209 194q-7 -41 13.5 -83t68.5 -42 q51 0 97 42.5t56 106.5q11 60 -17 104t-79 44q-43 0 -81.5 -30.5t-45.5 -70.5z" />
<glyph unicode="c" d="M106 218q6 36 25 73.5t51 72.5t83.5 57.5t112.5 22.5q19 0 34.5 -1t38.5 -5t37.5 -12t24 -23.5t5.5 -37.5q-4 -24 -21.5 -38t-39.5 -14q-48 0 -41 55l-50 1q-44 0 -78.5 -16.5t-54 -42.5t-30 -49t-14.5 -43q-10 -62 26 -105.5t95 -43.5q67 0 98 54q9 17 18.5 21.5 t25.5 4.5q7 0 14.5 -1t16 -10t5.5 -24q-2 -9 -13 -26.5t-32.5 -39.5t-61.5 -38t-90 -16q-94 0 -147 66t-38 158z" />
<glyph unicode="d" d="M70 217q16 95 89 159.5t157 64.5q59 0 100 -35l21 130h-36q-12 0 -20 1.5t-15.5 10t-4.5 25.5q6 38 54 38h71q29 0 36.5 -10t2.5 -38l-81 -488h36q12 0 20 -1.5t15.5 -10t4.5 -25.5q-6 -38 -54 -38h-71q-28 0 -35 8.5t-5 30.5q-59 -45 -123 -45q-81 0 -129.5 65 t-32.5 158zM152 217q-10 -61 18 -104.5t78 -43.5q48 0 86 42t46 86l11 69q7 39 -18 69.5t-67 30.5q-51 0 -97 -42.5t-57 -106.5z" />
<glyph unicode="e" d="M89 219q15 93 90 159t165 66q94 0 135.5 -61.5t25.5 -152.5q-3 -21 -12.5 -31t-17.5 -11.5t-24 -1.5h-281q4 -54 42.5 -85.5t90.5 -31.5q70 0 103 54q9 16 18 21t26 5q7 0 14.5 -1t16 -10t5.5 -24q-2 -12 -15 -30t-36.5 -39t-64 -36t-87.5 -15q-97 0 -153.5 66t-40.5 159 zM183 260h241q3 59 -24 84t-68 25q-46 0 -87.5 -30.5t-61.5 -78.5z" />
<glyph unicode="f" d="M45 38q6 37 55 37h91l47 286h-91q-13 0 -21 1.5t-15.5 10t-4.5 25.5q6 38 55 38h90l7 43q11 64 64 101t119 37q12 0 24 -1.5t31.5 -7t29.5 -20.5t6 -37q-4 -23 -22 -37t-37 -14q-36 0 -42 42q-80 0 -92 -68l-6 -38h112q13 0 21 -1.5t14.5 -10.5t3.5 -26q-6 -37 -52 -37 h-112l-47 -286h91q13 0 21 -1.5t15.5 -10.5t4.5 -26q-6 -37 -54 -37h-264q-13 0 -21 1.5t-16 10.5t-5 26z" />
<glyph unicode="g" d="M15 -72q14 78 90 123q-14 29 -8 68q7 39 29 66q-23 38 -15 93q11 66 68.5 114.5t128.5 48.5q50 0 89 -27q53 32 109 32q40 0 56.5 -19t12.5 -41q-3 -23 -20 -35.5t-35 -12.5q-11 0 -23 8t-15 25q-25 -5 -42 -12q16 -39 9 -81q-11 -68 -68.5 -116.5t-127.5 -48.5 q-46 0 -80 21q-5 -12 -5 -16q-2 -19 5 -30q4 -6 11.5 -9.5t11.5 -4t16 0t13 0.5h69q90 0 140 -29q32 -19 44 -52t7 -66q-10 -64 -86 -107.5t-174 -43.5q-99 0 -160 43t-50 108zM87 -72q-5 -31 38.5 -54t111.5 -23t119.5 23t56.5 54q3 18 -2 32t-20 22t-29.5 12.5t-40.5 6.5 t-41 2.5t-43 0.5q-54 0 -69.5 -2t-33.5 -12q-40 -22 -47 -62zM193 277q-6 -36 14.5 -63t56.5 -27t65.5 26.5t35.5 64.5q6 36 -14.5 62.5t-56.5 26.5q-35 0 -64.5 -26t-36.5 -64z" />
<glyph unicode="h" d="M17 37q6 38 54 38h35l76 461h-36q-12 0 -19.5 1.5t-15 10.5t-4.5 25q6 38 53 38h71q29 0 36.5 -10t2.5 -38l-27 -164q60 42 127 42q134 0 110 -148l-36 -218h35q13 0 21 -1.5t15 -10.5t4 -26q-6 -37 -52 -37h-149q-12 0 -20.5 1.5t-16.5 10.5t-5 25q6 38 55 38h30l35 213 q7 42 -2 60t-43 18q-42 0 -83.5 -32t-51.5 -94l-27 -165h35q13 0 21 -1.5t15.5 -10.5t4.5 -26q-6 -37 -53 -37h-155q-8 0 -14 1t-14 4t-11 11t-1 21z" />
<glyph unicode="i" d="M81 37q6 38 55 38h110l47 286h-102q-9 0 -15 1t-14 4t-11 11.5t-1 21.5q5 37 54 37h138q29 0 36.5 -10t2.5 -38l-52 -313h94q13 0 21 -1.5t15.5 -10.5t4.5 -26q-6 -37 -54 -37h-287q-13 0 -21 1.5t-16 10t-5 25.5zM298 550q4 23 23 39.5t43 16.5t38 -16.5t10 -39.5 q-5 -24 -24 -40.5t-43 -16.5t-37.5 16.5t-9.5 40.5z" />
<glyph unicode="j" d="M21 -140q4 24 21.5 38t38.5 14t34 -15.5t8 -40.5q18 -3 44 -3q49 0 83 38q24 28 34 79l65 391h-119q-13 0 -21 1.5t-15.5 10t-4.5 25.5q6 38 55 38h154q29 0 36.5 -10t2.5 -38l-71 -423q-5 -28 -18.5 -57.5t-37.5 -60t-65.5 -50t-93.5 -19.5q-18 0 -32 1t-36 5.5 t-35.5 12.5t-22 24.5t-4.5 38.5zM354 550q4 23 23 39.5t43 16.5t38 -16.5t10 -39.5q-3 -16 -13 -29t-24 -20.5t-30 -7.5q-24 0 -37.5 16.5t-9.5 40.5z" />
<glyph unicode="k" d="M25 38q6 37 54 37h40l76 461h-40q-13 0 -21 1.5t-15 10.5t-4 26q6 37 53 37h64q28 0 35.5 -10t2.5 -38l-54 -325l151 123h-17q-13 0 -20.5 1.5t-15 10t-4.5 25.5q7 38 53 38h150q12 0 20.5 -1.5t16 -10.5t4.5 -26q-6 -37 -54 -37h-31l-129 -106l108 -180h27q13 0 21 -1.5 t15.5 -10.5t4.5 -26q-6 -37 -54 -37h-115q-13 0 -21 1.5t-15.5 10t-4.5 25.5q4 22 16 29.5t38 8.5l-80 132l-80 -64l-11 -68h40q13 0 21 -1.5t15 -10.5t4 -26q-6 -37 -53 -37h-150q-13 0 -21 1.5t-15.5 10.5t-4.5 26z" />
<glyph unicode="l" d="M61 37q6 38 55 38h118l76 461h-119q-12 0 -20 1.5t-15.5 10t-4.5 25.5q6 38 54 38h154q29 0 36.5 -10t2.5 -38l-81 -488h119q13 0 21 -1.5t15 -10.5t4 -26q-6 -37 -53 -37h-321q-12 0 -20 1.5t-16 10t-5 25.5z" />
<glyph unicode="m" d="M6 37q4 23 18 30.5t44 7.5l47 286q-30 0 -41 7.5t-7 30.5q5 37 54 37h31q37 0 40 -23q40 28 84 28q49 0 67 -44q47 44 103 44q32 0 50.5 -17t21.5 -45.5t2.5 -43.5t-2.5 -32l-38 -228q30 0 41 -7.5t7 -30.5q-6 -37 -54 -37h-73q-12 0 -19.5 1.5t-14.5 10t-4 25.5 q7 36 46 38l36 219q5 28 4.5 44t-5.5 22t-15 6q-29 0 -56 -33.5t-37 -90.5l-27 -167q29 0 39.5 -7.5t6.5 -30.5q-6 -37 -51 -37h-73q-12 0 -19.5 1.5t-15 10t-4.5 25.5q4 22 15.5 29.5t31.5 8.5l36 219q6 42 2.5 57t-18.5 15q-30 0 -56.5 -33t-36.5 -91l-27 -167 q29 0 39 -7.5t6 -30.5q-6 -37 -51 -37h-85q-12 0 -20.5 1.5t-16.5 10.5t-5 25z" />
<glyph unicode="n" d="M17 37q6 38 54 38h35l47 286h-36q-8 0 -14 1t-14 4t-11 11t-1 21q6 38 54 38h71q28 0 35.5 -8.5t5.5 -28.5q60 42 127 42q134 0 110 -148l-36 -218h35q13 0 21 -1.5t15 -10.5t4 -26q-6 -37 -52 -37h-149q-12 0 -20.5 1.5t-16.5 10.5t-5 25q6 38 55 38h30l35 213 q7 42 -2 60t-43 18q-42 0 -83.5 -32t-51.5 -94l-27 -165h35q13 0 21 -1.5t15.5 -10.5t4.5 -26q-6 -37 -53 -37h-155q-8 0 -14 1t-14 4t-11 11t-1 21z" />
<glyph unicode="o" d="M90 218q16 95 88.5 160.5t157.5 65.5q86 0 136 -66t34 -160t-88.5 -159t-156.5 -65q-85 0 -136 64.5t-35 159.5zM175 225q-11 -64 18.5 -110t80.5 -46t95.5 46t55.5 110q10 62 -20 103t-81 41q-50 0 -94.5 -41.5t-54.5 -102.5z" />
<glyph unicode="p" d="M-20 -179q6 38 54 38h35l84 502h-36q-12 0 -20 1.5t-16 10t-5 25.5q6 38 55 38h71q26 0 34 -8t6 -26q58 39 124 39q81 0 128.5 -65t31.5 -158q-15 -94 -88.5 -159t-157.5 -65q-59 0 -98 40l-30 -175h35q13 0 21.5 -1.5t16 -10.5t4.5 -26q-6 -37 -53 -37h-155 q-12 0 -20 1.5t-16 10t-5 25.5zM209 194q-7 -41 13.5 -83t68.5 -42q51 0 97 42.5t56 106.5q11 60 -17 104t-79 44q-43 0 -81.5 -30.5t-45.5 -70.5z" />
<glyph unicode="q" d="M75 217q16 95 91.5 159.5t162.5 64.5q65 0 106 -43q6 24 15.5 33.5t34.5 9.5q19 0 27 -7.5t7.5 -17.5t-1.5 -22l-90 -535h40q13 0 21 -1.5t15 -10.5t4 -26q-6 -37 -52 -37h-163q-13 0 -21 1.5t-15.5 10.5t-4.5 26q6 37 53 37h40l31 183q-63 -48 -132 -48q-84 0 -134.5 65 t-34.5 158zM156 217q-10 -61 21 -104.5t83 -43.5t92.5 42t48.5 86l6 38q8 49 -15.5 90t-71.5 41q-56 0 -105 -43t-59 -106z" />
<glyph unicode="r" d="M36 38q6 37 54 37h71l47 286h-71q-10 0 -16 1t-13.5 4t-10 11.5t-0.5 21.5q5 37 53 37h107q29 0 36.5 -10t2.5 -38l-3 -14q79 67 170 67q58 0 75.5 -21.5t12.5 -46.5q-4 -22 -20.5 -35.5t-36.5 -13.5t-32.5 12t-9.5 30q-76 -2 -127 -54.5t-62 -122.5l-19 -114h100 q13 0 21 -1.5t15.5 -10.5t4.5 -26q-6 -37 -54 -37h-254q-13 0 -21 1.5t-15.5 10.5t-4.5 26z" />
<glyph unicode="s" d="M76 42l16 94q2 12 4 18.5t7 14.5t14.5 11.5t24.5 3.5q21 0 27.5 -7.5t8.5 -26.5q13 -81 104 -81q59 0 90.5 17t36.5 44q2 16 -7 27.5t-30 19t-35 10.5t-37 7q-34 5 -55.5 9.5t-49.5 14.5t-43.5 22.5t-24.5 33.5t-4 48q3 17 12.5 34.5t31 39t65.5 35t104 13.5q58 0 97 -17 q13 17 37 17q36 0 29 -47l-11 -68q-2 -11 -4 -17.5t-7 -14.5t-14.5 -11.5t-24.5 -3.5q-25 0 -31 10.5t-3 29.5q1 21 -16 34t-66 13q-59 0 -90 -13.5t-34 -33.5q-5 -28 46 -40l98 -18q15 -2 29 -5.5t39 -13.5t41.5 -23.5t27 -37.5t5.5 -54q-3 -21 -15 -42t-35 -43.5 t-66 -36.5t-100 -14q-73 0 -117 33q-19 -33 -46 -33q-37 0 -29 48z" />
<glyph unicode="t" d="M89 398q6 38 54 38h77l12 72q2 11 4 17.5t7 14.5t14.5 11.5t24.5 3.5q19 0 27 -7.5t7.5 -17.5t-1.5 -22l-12 -72h152q10 0 16 -1t13.5 -4t10 -11.5t0.5 -21.5q-6 -37 -53 -37h-152l-37 -225q-13 -67 56 -67q14 0 29 4t31.5 19t21.5 40q2 13 5 21t13.5 15.5t28.5 7.5 q19 0 28 -7t8.5 -17t-1.5 -21q-11 -65 -64.5 -101t-116.5 -36t-99 33.5t-24 103.5l38 230h-78q-13 0 -20.5 1.5t-15 10t-4.5 25.5z" />
<glyph unicode="u" d="M77 398q6 38 54 38h71q29 0 36.5 -10t2.5 -38l-44 -263q-2 -15 -2 -27t15 -20.5t47 -8.5q20 0 41 5t46 27.5t31 59.5l33 200h-36q-12 0 -20 1.5t-16 10t-5 25.5q6 38 55 38h71q28 0 36 -10t3 -38l-52 -313h36q12 0 19.5 -1.5t15 -10.5t4.5 -25q-6 -38 -53 -38h-71 q-39 0 -42 25q-52 -31 -114 -31q-65 0 -101.5 28.5t-24.5 96.5l40 242h-36q-8 0 -14 1t-14 4t-11 11t-1 21z" />
<glyph unicode="v" d="M88 398q7 38 54 38h114q10 0 16 -1t13.5 -4t10 -11.5t0.5 -21.5q-6 -37 -53 -37h-16l48 -282l142 282h-16q-10 0 -16 1t-13.5 4t-10 11.5t-0.5 21.5q5 37 53 37h114q10 0 16 -1t13.5 -4t10 -11.5t0.5 -21.5q-6 -37 -53 -37h-24l-164 -327q-13 -25 -28.5 -31.5t-37.5 -6.5 q-15 0 -23 1.5t-17 10t-12 26.5l-56 327h-24q-13 0 -21 1.5t-15.5 10t-4.5 25.5z" />
<glyph unicode="w" d="M81 399q5 37 55 37h112q15 0 23.5 -1.5t15 -10.5t3.5 -26t-13 -25.5t-18.5 -10t-23.5 -1.5h-38l2 -248l59 129q18 26 51 26q27 0 35 -13t14 -65l6 -75l83 246h-38q-15 0 -23.5 1.5t-15 10.5t-3.5 26q5 37 55 37h112q14 0 22.5 -1.5t15.5 -10.5t5 -25q-4 -24 -17.5 -31 t-40.5 -7l-111 -321q-8 -24 -18.5 -34t-39.5 -10q-34 0 -44 21l-14 145l-40 -92q-20 -50 -32.5 -62t-44.5 -12q-31 0 -38.5 10t-6.5 34l-5 321q-27 0 -37.5 7t-6.5 31z" />
<glyph unicode="x" d="M31 37q6 38 55 38h35l139 149l-86 137h-35q-12 0 -20.5 1.5t-16.5 10.5t-5 25q6 38 55 38h114q12 0 20.5 -1.5t15.5 -10.5t5 -25q-6 -36 -47 -38l46 -78l70 78q-20 1 -28.5 9t-4.5 29q5 37 52 37h114q12 0 20.5 -1.5t16 -10.5t4.5 -26q-6 -37 -54 -37h-35l-128 -137 l95 -149h35q13 0 21 -1.5t15.5 -10.5t4.5 -26q-6 -37 -54 -37h-114q-13 0 -21 1.5t-15.5 10t-4.5 25.5q3 21 15 28.5t34 9.5l-56 99l-85 -99q22 -1 31 -8.5t6 -29.5q-6 -37 -53 -37h-114q-12 0 -20.5 1.5t-16.5 10.5t-5 25z" />
<glyph unicode="y" d="M19 -134q3 22 19 36t39 14q22 0 33.5 -14t8.5 -36q-1 -5 -3.5 -9t-4.5 -6l-4 -4l-3 -3q15 0 38 17t42 44q7 10 18.5 32.5t22 45t12.5 25.5l-81 353h-25q-13 0 -21 1.5t-15.5 10t-4.5 25.5q7 38 54 38h114q10 0 16 -1t13.5 -4t10 -11.5t0.5 -21.5q-6 -37 -53 -37h-13 l56 -261l129 261h-16q-10 0 -16 1t-13.5 4t-10 11.5t-0.5 21.5q5 37 53 37h114q10 0 16 -1t13.5 -4t10 -11.5t0.5 -21.5q-6 -37 -53 -37h-24l-222 -439q-8 -14 -17.5 -29t-34 -45.5t-57.5 -50t-68 -19.5q-38 0 -58.5 26.5t-14.5 61.5z" />
<glyph unicode="z" d="M38 41q2 15 6.5 21.5t24.5 23.5l336 275h-216l-3 -18q-3 -16 -5.5 -24t-13.5 -16t-31 -8q-19 0 -27 7.5t-7.5 18t1.5 22.5l8 45q4 28 15.5 38t40.5 10h332q11 0 17 -1t13.5 -4.5t9.5 -12.5t0 -23q-2 -15 -7 -22t-25 -23l-334 -275h234l4 29q2 12 4 18.5t7 14.5t14.5 11.5 t24.5 3.5q19 0 27.5 -7.5t7.5 -18t-2 -22.5l-9 -56q-7 -41 -36 -48h-370q-11 0 -17.5 1t-14 4.5t-9.5 12.5t0 23z" />
<glyph unicode="{" d="M105 306q3 19 16.5 28t23.5 9q66 0 106 15q22 10 28.5 20.5t10.5 37.5l30 171q11 58 77 81.5t139 23.5q14 0 22.5 -1.5t16 -10.5t4.5 -26q-3 -19 -16.5 -28t-23.5 -9q-3 0 -20 0.5t-28.5 0.5t-29 -2t-28.5 -6t-21 -13t-12 -21l-32 -190q-8 -46 -63 -81q44 -31 34 -94 l-26 -156q-4 -11 -1.5 -21.5t10.5 -19t35 -14t71 -6.5q41 0 35 -37q-6 -38 -56 -38q-89 0 -140 30q-51 33 -36 108l27 162q5 44 -118 49q-41 0 -35 38z" />
<glyph unicode="|" d="M215 -27l111 665q12 54 51 54q45 0 33 -54l-111 -665q-8 -54 -51 -54q-41 0 -33 54z" />
<glyph unicode="}" d="M47 -43q3 19 16.5 28t23.5 9q47 1 77 5.5t43 14.5t16.5 17t6.5 21l29 173q0 5 4 15.5t19 30.5t39 35q-44 32 -33 93l26 156q4 11 1.5 22t-11 19.5t-35.5 14t-72 6.5q-40 0 -34 37q6 38 55 38q91 0 141 -30q51 -32 38 -107l-27 -162q-6 -44 116 -50q41 0 35 -38 q-3 -19 -16.5 -28t-23.5 -9q-65 0 -105 -15q-22 -10 -28.5 -20.5t-10.5 -37.5l-30 -171q-8 -46 -76.5 -75.5t-141.5 -29.5q-14 0 -22 1.5t-15.5 10.5t-4.5 26z" />
<glyph unicode="~" d="M131 278q4 22 61 60q49 34 86 34q33 0 65 -35q19 -19 22 -19q18 0 70 41q17 13 30 13q15 0 24.5 -12.5t7.5 -26.5q-5 -22 -61 -60q-52 -34 -86 -34t-65 36q-16 18 -22 18q-20 0 -70 -41q-17 -13 -30 -13q-15 0 -24.5 12.5t-7.5 26.5z" />
<glyph unicode="&#xa0;" />
<glyph unicode="&#xa1;" d="M178 -164l63 325q8 35 18 44.5t39 9.5q11 0 19 -1t16.5 -8.5t6.5 -21.5l-48 -348q-5 -27 -20.5 -42.5t-27 -18t-20.5 -2.5t-19 2.5t-21 18t-6 42.5zM261 338q5 24 24 40.5t43 16.5t37.5 -16.5t9.5 -40.5t-23 -40t-43 -16t-38 16t-10 40z" />
<glyph unicode="&#xa2;" d="M106 218q13 71 69 137.5t149 83.5l7 49q3 16 16.5 27t29.5 11q15 0 24.5 -11t6.5 -27l-7 -44q23 -1 42 -4t39 -11t30 -24.5t6 -39.5q-4 -24 -21.5 -38t-39.5 -14q-48 0 -41 55q-14 1 -27 1l-50 -297q46 9 69 51q14 26 44 26q7 0 14.5 -1t16 -10t5.5 -24q-2 -8 -11 -23.5 t-27 -35.5t-51 -37t-73 -22l-8 -49q-2 -15 -15.5 -26.5t-28.5 -11.5q-16 0 -25.5 11.5t-7.5 26.5l9 51q-76 15 -117 77t-27 143zM187 218q-8 -48 13 -86.5t62 -53.5l47 284q-39 -12 -67 -41t-39.5 -54t-15.5 -49z" />
<glyph unicode="&#xa3;" d="M31 88q7 44 50.5 71.5t96.5 27.5q17 0 35 -5q-4 25 -23 82h-58q-17 0 -27.5 12t-7.5 30q3 17 17.5 29.5t31.5 12.5h20q-8 42 -3 80q13 76 76 129.5t139 53.5q74 0 120 -47.5t35 -116.5q-4 -20 -21.5 -35t-38.5 -15q-20 0 -32.5 15t-8.5 35q3 17 15 31q-7 23 -30 36 t-53 13q-41 0 -75.5 -29t-41.5 -70q-5 -38 3 -80h152q17 0 27.5 -12.5t7.5 -29.5q-3 -18 -17.5 -30t-31.5 -12h-112q29 -88 23 -139q28 -26 51 -39t53 -13q34 0 47 75q3 17 17.5 29.5t31.5 12.5q18 0 28 -12.5t7 -29.5q-11 -64 -51.5 -111.5t-93.5 -47.5q-21 0 -44.5 10.5 t-38 21t-38.5 30.5q-26 -28 -67 -45t-85 -17q-42 0 -67 29t-18 70zM112 88q-1 -6 3.5 -10.5t11.5 -4.5q54 0 75 22q-19 8 -41 8q-47 0 -49 -15z" />
<glyph unicode="&#xa4;" d="M128 147q-6 6 -8.5 13t0 14.5t3.5 11.5t8 12t8 9l7 7l22 18q-11 25 -9 53.5t10.5 51.5t22.5 43l-16 19q-29 40 4 67q29 26 66 -7l15 -19q38 19 79 19q37 0 70 -19l20 18l4 3q4 3 6 4t6.5 4t7 4t7 2.5t8 2t8 0.5t8 -1.5t7.5 -4.5t7 -7q23 -25 -19 -67l-20 -17 q25 -73 -25 -150l16 -18q26 -41 -5 -67q-30 -28 -65 7l-15 19q-40 -19 -77 -19q-40 0 -72 19l-21 -18q-1 0 -4.5 -3t-5.5 -4t-6.5 -4t-7 -4t-7 -2.5t-8 -2t-7.5 -0.5t-7.5 1.5t-7.5 4.5t-7 7zM245 306q-5 -29 12 -49t46 -20q28 0 51 20t28 49t-11.5 49t-44.5 20 q-29 0 -52.5 -20t-28.5 -49z" />
<glyph unicode="&#xa5;" d="M105 230q3 18 17.5 30t31.5 12h99l-22 68h-65q-17 0 -27.5 12t-7.5 30q3 17 17.5 29.5t31.5 12.5h25l-36 112h-16q-13 0 -21 1.5t-15 10.5t-4 26q6 37 53 37h102q12 0 20 -1.5t15.5 -10t4.5 -25.5q-3 -22 -15 -29.5t-32 -8.5l35 -112h78l67 112q-18 1 -27 9t-6 29 q6 37 52 37h102q13 0 21 -1.5t15.5 -10.5t4.5 -26q-6 -37 -54 -37h-16l-72 -112h26q17 0 27.5 -12.5t7.5 -29.5q-3 -18 -17.5 -30t-31.5 -12h-66l-45 -68h99q17 0 27.5 -12t7.5 -30q-2 -17 -17 -29.5t-32 -12.5h-112l-18 -113h16q14 0 21.5 -1.5t14.5 -10.5t4 -26 q-6 -37 -53 -37h-115q-14 0 -22 1.5t-15 10.5t-4 26q6 37 54 37h16l18 113h-112q-17 0 -27 12.5t-8 29.5zM310 340l6 -25l15 25h-21z" />
<glyph unicode="&#xa6;" d="M215 -27l40 234q2 16 16.5 27t31.5 11t27.5 -11t8.5 -27l-40 -234q-8 -54 -51 -54q-41 0 -33 54zM287 404l39 234q12 54 51 54q45 0 33 -54l-39 -234q-2 -16 -16.5 -27t-31.5 -11t-27.5 11t-8.5 27z" />
<glyph unicode="&#xa7;" d="M64 5q4 21 21 36t38 15q30 0 40.5 -27t-8.5 -49q8 -8 27 -12.5t33.5 -5t41.5 -0.5q48 0 84.5 16t42.5 50q1 9 -1 16.5t-9 14.5t-12.5 11.5t-18.5 10.5t-18.5 8.5t-20.5 8.5l-92 37q-60 23 -93.5 68t-24.5 103q9 56 60 96q-19 32 -12 70q11 67 77.5 108.5t147.5 41.5 q52 0 94 -13t67 -43t18 -71q-4 -21 -21.5 -36t-38.5 -15q-29 0 -39.5 27t8.5 49q-18 18 -102 18q-49 0 -85 -16t-42 -50q-3 -17 11.5 -31.5t27 -20.5t40.5 -18l93 -37q59 -23 93 -68t24 -103q-9 -58 -60 -97q19 -31 13 -69q-12 -67 -78 -108.5t-147 -41.5q-82 0 -136 33 t-43 94zM178 306q-10 -57 76 -93l92 -37q37 -15 56 -28q24 16 29 46q10 58 -75 93l-93 37q-34 14 -55 28q-25 -17 -30 -46z" />
<glyph unicode="&#xa8;" d="M220 550q4 22 21 36.5t39 14.5t35 -14.5t9 -36.5t-21.5 -37t-39.5 -15t-34.5 15t-8.5 37zM385 550q4 22 21 36.5t39 14.5t35 -14.5t9 -36.5t-21.5 -37t-39.5 -15t-34.5 15t-8.5 37z" />
<glyph unicode="&#xa9;" d="M43 264q18 109 108.5 186t199.5 77t173 -77t46 -186t-108 -186.5t-199 -77.5t-173.5 77t-46.5 187zM85 264q-15 -92 39 -157t146 -65q91 0 167 65t91 157t-39 157t-145 65q-92 0 -168 -65t-91 -157zM184 264q7 44 30 80.5t54.5 56.5t63.5 20q31 0 55 -19q2 2 6.5 8 t8.5 8.5t11 2.5q23 0 18 -27l-11 -66q-2 -9 -4 -13.5t-8.5 -8.5t-17.5 -4q-9 0 -13.5 4t-4.5 6.5v10.5q-1 26 -13.5 40t-31.5 14q-31 0 -59.5 -32.5t-36.5 -80.5q-8 -49 9.5 -81.5t48.5 -32.5q18 0 37 12t26 39q5 20 25 20q25 0 21 -23q-5 -35 -40 -63t-78 -28 q-50 0 -78.5 45t-17.5 112z" />
<glyph unicode="&#xaa;" d="M161 401q8 49 69 78t154 31q2 28 -16.5 41t-53.5 13h-24l-7 1q-4 -22 -17.5 -31t-26.5 -9q-16 0 -25.5 10.5t-6.5 28.5q9 58 116 58q72 0 101.5 -34.5t22.5 -78.5l-24 -143q15 -3 34 -3q9 0 14.5 -1t11.5 -8t4 -19q-3 -18 -14.5 -23.5t-32.5 -5.5q-56 0 -73 20 q-45 -24 -102 -24q-54 0 -82.5 29.5t-21.5 69.5zM168 259q2 12 14.5 20.5t28.5 8.5h199q16 0 25.5 -8.5t7.5 -20.5q-2 -11 -14 -19.5t-28 -8.5h-199q-16 0 -26 8.5t-8 19.5zM224 401q-3 -18 12.5 -29.5t42.5 -11.5q34 0 63 12q20 10 24 33l8 50q-142 -6 -150 -54z" />
<glyph unicode="&#xab;" d="M94 306q3 18 22 35l240 182q16 10 24 10q12 0 19 -10.5t3 -28.5q-3 -20 -22 -35l-202 -153l151 -153q14 -16 11 -35q-4 -18 -14.5 -28.5t-21.5 -10.5q-9 0 -20 11l-182 183q-11 13 -8 33zM256 306q3 18 22 35l240 182q16 10 24 10q12 0 19 -10.5t3 -28.5q-3 -20 -22 -35 l-202 -153l151 -153q14 -16 11 -35q-4 -18 -14.5 -28.5t-21.5 -10.5q-9 0 -20 11l-182 183q-11 13 -8 33z" />
<glyph unicode="&#xac;" d="M99 380q3 17 17.5 29.5t31.5 12.5h368q17 0 27.5 -12.5t7.5 -29.5l-24 -148q-3 -17 -17.5 -29.5t-31.5 -12.5t-27.5 12.5t-7.5 29.5l17 106h-326q-17 0 -27 12.5t-8 29.5z" />
<glyph unicode="&#xad;" d="M104 306q7 42 61 42h310q12 0 21 -1.5t19 -11.5t7 -29q-7 -42 -61 -42h-310q-12 0 -21 1.5t-19 11.5t-7 29z" />
<glyph unicode="&#xae;" d="M43 264q18 109 108.5 186t199.5 77t173 -77t46 -186t-108 -186.5t-199 -77.5t-173.5 77t-46.5 187zM85 264q-15 -92 39 -157t146 -65q91 0 167 65t91 157t-39 157t-145 65q-92 0 -168 -65t-91 -157zM171 136q3 22 28 22h5l37 217h-5q-7 0 -11.5 1t-8 6t-2.5 14 q3 22 29 22h84q44 0 67 -26t17 -61q-7 -41 -46 -66q12 -18 13.5 -28.5t-3.5 -44.5q-5 -39 -1 -40l2 2q3 16 9.5 24t10.5 9t10 1q22 0 19 -22q-4 -20 -19 -38t-39 -18q-29 0 -39 24q-6 18 1 64q5 28 -2 35q-11 12 -31 12h-31l-15 -87h5q8 0 12.5 -1t8 -6t2.5 -15 q-4 -21 -30 -21h-56q-25 0 -21 21zM272 287h27q27 0 45 13.5t20 30.5q2 10 -2.5 20t-17 17t-30.5 7h-27z" />
<glyph unicode="&#xaf;" d="M163 550q6 38 53 38h290q14 0 22 -1.5t15 -10.5t4 -27q-7 -38 -54 -38h-289q-14 0 -22 1.5t-15 10.5t-4 27z" />
<glyph unicode="&#xb0;" d="M274 544q4 27 30.5 52.5t60.5 25.5q36 0 53 -23.5t12 -54.5q-5 -30 -30 -54t-61 -24q-34 0 -52 25t-13 53zM316 544q-2 -13 6 -24.5t24 -11.5t28 11t14 25t-6 25t-24 11t-28 -11.5t-14 -24.5z" />
<glyph unicode="&#xb1;" d="M43 42q7 42 61 42h130l17 101h-130q-12 0 -21 1.5t-19 11.5t-7 29q7 42 61 42h130l22 132q8 53 51 53q41 0 33 -53l-22 -132h130q12 0 21 -1.5t19 -11.5t7 -29q-7 -42 -61 -42h-130l-17 -101h130q12 0 21 -1.5t19 -11.5t7 -29q-7 -42 -61 -42h-344q-12 0 -21 1.5 t-19 11.5t-7 29z" />
<glyph unicode="&#xb2;" d="M207 326q2 9 13 19l124 91q59 43 66 83q4 28 -13.5 43t-46.5 15q-36 0 -52 -28q4 -7 2 -18q-6 -29 -34 -29q-10 0 -18.5 7t-5.5 24q5 35 39 62t79 27q49 0 78 -28.5t22 -74.5q-9 -53 -74 -103l-91 -67h87q2 12 8 17t21 5q25 0 19 -27l-2 -13q-2 -16 -8.5 -22t-22.5 -6 h-166q-7 0 -12 1t-9 6.5t-3 15.5z" />
<glyph unicode="&#xb3;" d="M212 377q2 15 12 23t22 8q17 0 23 -16t-4 -29q13 -20 56 -20q28 0 48.5 16t23.5 37t-11.5 37t-44.5 16h-22q-8 0 -13 1t-9 6.5t-2 15.5q2 13 11 17.5t36 6.5q26 2 43 13q21 16 24 36q2 14 -11 23t-34 9q-29 0 -45 -10v-3q1 -5 0 -8q-2 -13 -12.5 -21.5t-21.5 -8.5 t-19.5 8t-5.5 23q5 29 34.5 47t76.5 18q45 0 68.5 -22.5t17.5 -53.5q-7 -42 -46 -71q45 -29 36 -79q-6 -39 -43 -68.5t-86 -29.5q-50 0 -79 22.5t-23 56.5z" />
<glyph unicode="&#xb4;" d="M239 522q4 24 35 36l139 58l23 6q18 0 28 -12t7 -30q-4 -27 -39 -41l-139 -58q-12 -5 -22 -5q-14 0 -22 10t-9.5 19.5t-0.5 16.5z" />
<glyph unicode="&#xb5;" d="M-23 -199q6 38 54 38h35l87 522h-36q-8 0 -14 1t-14 4t-11 11t-1 21q6 38 54 38h71q29 0 36.5 -10t2.5 -38l-44 -263q-2 -15 -2 -27t15 -20.5t47 -8.5q20 0 41 5t46 27.5t31 59.5l33 200h-36q-12 0 -20 1.5t-16 10t-5 25.5q6 38 55 38h71q28 0 36 -10t3 -38l-52 -313h36 q12 0 19.5 -1.5t15 -10.5t4.5 -25q-6 -38 -53 -38h-71q-39 0 -42 25q-52 -31 -114 -31q-32 0 -63 6l-27 -161h35q13 0 21.5 -1.5t16 -10.5t4.5 -26q-6 -37 -53 -37h-155q-12 0 -20 1.5t-16 10t-5 25.5z" />
<glyph unicode="&#xb6;" d="M123 459q16 96 90.5 164.5t164.5 68.5h204q15 0 24.5 -5t6.5 -22q-4 -28 -40 -28h-34l-131 -786q-7 -40 -32 -40t-18 40l131 786h-43l-131 -786q-7 -40 -31 -40t-17 40l63 374q-43 3 -82.5 18.5t-71.5 43t-47 72.5t-6 100z" />
<glyph unicode="&#xb7;" d="M245 306q5 27 27.5 47.5t52.5 20.5q27 0 44.5 -19.5t12.5 -49.5q-5 -27 -27.5 -47.5t-52.5 -20.5q-27 0 -44.5 19.5t-12.5 49.5z" />
<glyph unicode="&#xb8;" d="M130 -165q4 24 20.5 31t52.5 7q126 0 131 32q2 12 -12 21t-41 10q-25 1 -30 13.5t-1 34.5l5 27q3 15 6 23.5t14 16.5t30 8q26 0 32 -12.5t0 -41.5q46 -11 65.5 -39.5t13.5 -60.5q-5 -30 -24.5 -51t-43.5 -32t-61 -17t-62.5 -7t-62.5 -1t-32 38z" />
<glyph unicode="&#xb9;" d="M229 325q4 24 32 24h37l31 182q-25 -14 -46 -14q-25 0 -21 23q3 22 30 22q25 3 47 34q17 26 31 26q22 0 17 -28l-41 -245h37q8 0 13 -1t9 -6.5t2 -16.5q-3 -22 -31 -22h-122q-7 0 -12 1t-9.5 6t-3.5 15z" />
<glyph unicode="&#xba;" d="M188 259q2 11 15 20t28 9h159q16 0 25.5 -9t7.5 -20t-14 -19.5t-28 -8.5h-159q-16 0 -26 8.5t-8 19.5zM192 461q11 67 62.5 114t112.5 47q60 0 95.5 -47t24.5 -114q-11 -66 -63 -112.5t-111 -46.5q-60 0 -96 46t-25 113zM255 466q-7 -44 13 -75t55 -31t65.5 31t37.5 75 q7 42 -14 70t-55 28q-35 0 -65 -28t-37 -70z" />
<glyph unicode="&#xbb;" d="M62 118q3 21 23 35l201 153l-150 153q-15 15 -12 35q4 18 14.5 28.5t21.5 10.5q9 0 20 -10l180 -182q13 -15 10 -35t-18 -33l-244 -183q-15 -11 -24 -11q-12 0 -19 10.5t-3 28.5zM224 118q3 21 23 35l201 153l-150 153q-15 15 -12 35q4 18 14.5 28.5t21.5 10.5 q9 0 20 -10l180 -182q13 -15 10 -35t-18 -33l-244 -183q-15 -11 -24 -11q-12 0 -19 10.5t-3 28.5z" />
<glyph unicode="&#xbc;" d="M77 325q4 24 32 24h37l31 182q-25 -14 -46 -14q-25 0 -21 23q3 22 30 22q25 3 47 34q17 26 31 26q22 0 17 -28l-41 -245h37q8 0 13 -1t9 -6.5t2 -16.5q-3 -22 -31 -22h-122q-7 0 -12 1t-9.5 6t-3.5 15zM86 16q2 14 17 32l400 556q15 22 39 22q18 0 14 -29q-5 -19 -17 -34 l-400 -556q-15 -22 -41 -22q-7 0 -10.5 10t-1.5 21zM279 110q3 14 11 21l139 174q12 15 29 15h14q17 0 21 -5.5t2 -23.5l-28 -163h31q7 0 12 -1t9 -6.5t3 -15.5q-4 -22 -31 -22h-31l-6 -37h23q7 0 12 -1t9 -6.5t2 -16.5q-4 -22 -31 -22h-88q-7 0 -11.5 1t-9 6t-2.5 15 q4 24 31 24h22l6 37h-115q-16 0 -20.5 5t-2.5 22zM338 128h86l23 136z" />
<glyph unicode="&#xbd;" d="M73 16q2 14 17 32l400 556q15 22 39 22q18 0 14 -29q-5 -19 -17 -34l-400 -556q-15 -22 -41 -22q-7 0 -10.5 10t-1.5 21zM77 325q4 24 32 24h37l31 182q-25 -14 -46 -14q-25 0 -21 23q3 22 30 22q25 3 47 34q17 26 31 26q22 0 17 -28l-41 -245h37q8 0 13 -1t9 -6.5 t2 -16.5q-3 -22 -31 -22h-122q-7 0 -12 1t-9.5 6t-3.5 15zM288 23q2 10 14 19l122 91q61 45 67 83q3 19 -4.5 32.5t-22 19.5t-33.5 6q-16 0 -30 -8t-22 -21q9 -17 -4.5 -31.5t-27.5 -14.5q-30 0 -25 31q6 35 40 62t79 27q49 0 78 -28.5t21 -74.5q-9 -54 -72 -103l-91 -67h87 q3 22 27 22q25 0 20 -27l-2 -13q-3 -16 -9 -22t-23 -6h-165q-8 0 -12.5 1t-9 6.5t-2.5 15.5z" />
<glyph unicode="&#xbe;" d="M80 377q2 15 12.5 23t22.5 8t19 -8.5t5 -20.5q-1 -5 -6 -15q12 -21 56 -21q29 0 49.5 16t23.5 37t-11.5 37t-44.5 16h-22q-8 0 -13 1t-9 6.5t-2 15.5q2 14 10.5 18.5t36.5 5.5q26 2 42 13q21 14 24 36q2 14 -11 23t-34 9q-30 0 -45 -10v-11q-2 -13 -12.5 -21.5 t-21.5 -8.5t-19 8t-5 23q5 29 34.5 47t76.5 18q44 0 67.5 -22.5t18.5 -53.5q-7 -42 -46 -71q44 -29 35 -79q-6 -39 -42.5 -68.5t-86.5 -29.5q-49 0 -78.5 22.5t-23.5 56.5zM97 16q2 14 17 32l400 556q15 22 39 22q18 0 14 -29q-5 -19 -17 -34l-400 -556q-15 -22 -41 -22 q-7 0 -10.5 10t-1.5 21zM279 110q3 14 11 21l139 174q12 15 29 15h14q17 0 21 -5.5t2 -23.5l-28 -163h31q7 0 12 -1t9 -6.5t3 -15.5q-4 -22 -31 -22h-31l-6 -37h23q7 0 12 -1t9 -6.5t2 -16.5q-4 -22 -31 -22h-88q-7 0 -11.5 1t-9 6t-2.5 15q4 24 31 24h22l6 37h-115 q-16 0 -20.5 5t-2.5 22zM338 128h86l23 136z" />
<glyph unicode="&#xbf;" d="M43 -94q10 62 90 109q81 54 93 136l3 17q5 30 15.5 38.5t38.5 8.5q33 0 39 -12.5t-2 -45.5q-3 -22 -8.5 -39.5t-21 -47.5t-48.5 -62t-82 -61q-30 -19 -34 -41q-3 -18 8 -30t32 -16.5t33 -5.5t25 -1q86 0 125 26q-5 11 -3 27q4 23 22.5 37.5t37.5 14.5q20 0 33.5 -14 t9.5 -39q-6 -35 -30.5 -61t-52 -38t-64.5 -19t-55 -8t-36 -1q-51 0 -87.5 11t-51.5 27t-24 34.5t-6.5 33t1.5 22.5zM246 338q5 24 24 40.5t43 16.5t37.5 -16.5t9.5 -40.5t-23 -40t-43 -16t-38 16t-10 40z" />
<glyph unicode="&#xc0;" d="M31 37q4 24 27 35q9 3 40 3l201 505q12 29 25 36t42 7t40 -7.5t13 -36.5l33 -504q30 0 43.5 -7.5t9.5 -30.5q-6 -37 -56 -37h-99q-15 0 -23 1.5t-15.5 10t-4.5 25.5q4 23 17 30t43 8l-5 86h-146l-33 -86q29 -1 39.5 -8t6.5 -30q-3 -17 -13 -25.5t-18.5 -10t-23.5 -1.5 h-99q-13 0 -22 1.5t-17 10.5t-5 25zM246 236h110l-11 260zM306 736q-36 19 -23.5 51t46.5 32q9 0 21 -6l120 -58q14 -6 19.5 -13.5t3.5 -22.5q-3 -13 -15.5 -29.5t-32.5 -16.5q-10 0 -20 5z" />
<glyph unicode="&#xc1;" d="M31 37q4 24 27 35q9 3 40 3l201 505q12 29 25 36t42 7t40 -7.5t13 -36.5l33 -504q30 0 43.5 -7.5t9.5 -30.5q-6 -37 -56 -37h-99q-15 0 -23 1.5t-15.5 10t-4.5 25.5q4 23 17 30t43 8l-5 86h-146l-33 -86q29 -1 39.5 -8t6.5 -30q-3 -17 -13 -25.5t-18.5 -10t-23.5 -1.5 h-99q-13 0 -22 1.5t-17 10.5t-5 25zM246 236h110l-11 260zM272 719q3 24 35 36l138 58l23 6q18 0 28 -12t7 -30q-4 -26 -38 -41l-139 -58q-13 -5 -22 -5q-20 0 -27.5 17t-4.5 29z" />
<glyph unicode="&#xc2;" d="M31 37q4 24 27 35q9 3 40 3l201 505q12 29 25 36t42 7t40 -7.5t13 -36.5l33 -504q30 0 43.5 -7.5t9.5 -30.5q-6 -37 -56 -37h-99q-15 0 -23 1.5t-15.5 10t-4.5 25.5q4 23 17 30t43 8l-5 86h-146l-33 -86q29 -1 39.5 -8t6.5 -30q-3 -17 -13 -25.5t-18.5 -10t-23.5 -1.5 h-99q-13 0 -22 1.5t-17 10.5t-5 25zM229 702q3 23 63 43l83 28q17 6 32 0l73 -28q26 -11 38.5 -20t10.5 -23q-7 -39 -43 -39q-8 0 -46 12l-62 20l-70 -20q-42 -12 -50 -12q-19 0 -25.5 11.5t-3.5 27.5zM246 236h110l-11 260z" />
<glyph unicode="&#xc3;" d="M31 37q4 24 27 35q9 3 40 3l201 505q12 29 25 36t42 7t40 -7.5t13 -36.5l33 -504q30 0 43.5 -7.5t9.5 -30.5q-6 -37 -56 -37h-99q-15 0 -23 1.5t-15.5 10t-4.5 25.5q4 23 17 30t43 8l-5 86h-146l-33 -86q29 -1 39.5 -8t6.5 -30q-3 -17 -13 -25.5t-18.5 -10t-23.5 -1.5 h-99q-13 0 -22 1.5t-17 10.5t-5 25zM202 702q3 23 61 60q49 34 86 34q33 0 65 -35q17 -19 22 -19q17 0 69 41q16 13 31 13t24 -12t7 -27q-4 -23 -61 -60q-52 -34 -86 -34t-65 36q-16 18 -22 18q-19 0 -69 -41q-19 -13 -31 -13q-15 0 -24 12t-7 27zM246 236h110l-11 260z" />
<glyph unicode="&#xc4;" d="M31 37q4 24 27 35q9 3 40 3l201 505q12 29 25 36t42 7t40 -7.5t13 -36.5l33 -504q30 0 43.5 -7.5t9.5 -30.5q-6 -37 -56 -37h-99q-15 0 -23 1.5t-15.5 10t-4.5 25.5q4 23 17 30t43 8l-5 86h-146l-33 -86q29 -1 39.5 -8t6.5 -30q-3 -17 -13 -25.5t-18.5 -10t-23.5 -1.5 h-99q-13 0 -22 1.5t-17 10.5t-5 25zM232 715q4 22 21.5 36.5t39.5 14.5t34.5 -14.5t8.5 -36.5t-21.5 -37t-39.5 -15t-34.5 15t-8.5 37zM246 236h110l-11 260zM427 715q4 22 21.5 36.5t39.5 14.5t34.5 -14.5t8.5 -36.5t-21.5 -37t-39.5 -15t-34.5 15t-8.5 37z" />
<glyph unicode="&#xc5;" d="M31 37q4 24 27 35q9 3 40 3l201 505q12 29 25 36t42 7t40 -7.5t13 -36.5l33 -504q30 0 43.5 -7.5t9.5 -30.5q-6 -37 -56 -37h-99q-15 0 -23 1.5t-15.5 10t-4.5 25.5q4 23 17 30t43 8l-5 86h-146l-33 -86q29 -1 39.5 -8t6.5 -30q-3 -17 -13 -25.5t-18.5 -10t-23.5 -1.5 h-99q-13 0 -22 1.5t-17 10.5t-5 25zM246 236h110l-11 260zM291 691q5 26 33 46t65 20t59 -20t17 -46q-5 -27 -33 -47.5t-65 -20.5t-59 20.5t-17 47.5zM347 690q-1 -9 7.5 -14.5t20.5 -5.5t22.5 5.5t11.5 14.5t-7.5 14.5t-20.5 5.5q-31 0 -34 -20z" />
<glyph unicode="&#xc6;" d="M27 37q4 23 17.5 30.5t37.5 7.5l170 461q-36 2 -30 38q6 37 52 37h274q29 0 36.5 -10t2.5 -38l-12 -71q-8 -48 -43 -48t-27 48l7 44h-97l-30 -182h105q13 0 21 -1.5t15 -10.5t4 -26q-6 -37 -52 -37h-105l-34 -204h105l9 59q8 48 43 48t27 -48l-14 -86q-5 -29 -16 -38.5 t-39 -9.5h-189q-13 0 -21.5 1.5t-16 10.5t-4.5 26q7 35 46 37l17 103h-94l-38 -103q20 -1 30 -8.5t6 -29.5q-6 -37 -53 -37h-69q-13 0 -21 1.5t-15.5 10t-4.5 25.5zM218 253h79l47 283h-22z" />
<glyph unicode="&#xc7;" d="M89 306q22 134 109.5 225t186.5 91q67 0 117 -43q13 21 13 22q19 21 38 21q17 0 24.5 -8t6.5 -19t-2 -21l-23 -135q-2 -12 -4 -18.5t-7 -14.5t-14.5 -11.5t-24.5 -3.5q-13 0 -20.5 2.5t-10.5 9t-3.5 11.5t-0.5 15q0 55 -28 86.5t-71 31.5q-64 0 -125 -69.5t-78 -171.5 q-17 -103 20.5 -172.5t103.5 -69.5q16 0 34.5 5t39.5 16.5t38 35t24 55.5q9 35 47 35q6 0 9.5 -0.5t10 -2.5t10 -5.5t6 -11.5t0.5 -19q-9 -54 -52 -101t-104 -68q41 -13 57.5 -40t11.5 -58q-4 -22 -15 -39t-25.5 -28t-36.5 -19t-41.5 -12t-46.5 -6.5t-45.5 -3t-44.5 -0.5 q-15 0 -25 9.5t-7 28.5q4 24 20.5 31t53.5 7q125 0 130 32q2 8 -3.5 14.5t-18 11t-30.5 5.5q-12 1 -19 4.5t-10 7.5t-3.5 13t0 13t2.5 16q-93 8 -144 97t-30 219z" />
<glyph unicode="&#xc8;" d="M30 37q6 38 55 38h21l76 461h-21q-13 0 -21 1.5t-15.5 10.5t-4.5 26q6 37 54 37h364q28 0 35.5 -10t2.5 -38l-12 -71q-3 -16 -5.5 -23.5t-13.5 -16t-31 -8.5q-19 0 -27.5 7.5t-7.5 18t2 22.5l7 44h-223l-30 -182h112q7 33 16 44t35 11q19 0 27.5 -7.5t7.5 -17.5t-2 -22 l-15 -91q-3 -15 -5.5 -23.5t-13.5 -16.5t-30 -8q-26 0 -32 12.5t0 43.5h-112l-34 -204h245l9 59q2 12 4 18.5t7 14.5t14.5 11.5t24.5 3.5q19 0 27.5 -7.5t7.5 -18t-2 -22.5l-14 -86q-5 -29 -16 -38.5t-39 -9.5h-385q-13 0 -21 1.5t-16 10t-5 25.5zM306 736q-36 19 -23.5 51 t46.5 32q9 0 21 -6l120 -58q14 -6 19.5 -13.5t3.5 -22.5q-3 -13 -15.5 -29.5t-32.5 -16.5q-10 0 -20 5z" />
<glyph unicode="&#xc9;" d="M30 37q6 38 55 38h21l76 461h-21q-13 0 -21 1.5t-15.5 10.5t-4.5 26q6 37 54 37h364q28 0 35.5 -10t2.5 -38l-12 -71q-3 -16 -5.5 -23.5t-13.5 -16t-31 -8.5q-19 0 -27.5 7.5t-7.5 18t2 22.5l7 44h-223l-30 -182h112q7 33 16 44t35 11q19 0 27.5 -7.5t7.5 -17.5t-2 -22 l-15 -91q-3 -15 -5.5 -23.5t-13.5 -16.5t-30 -8q-26 0 -32 12.5t0 43.5h-112l-34 -204h245l9 59q2 12 4 18.5t7 14.5t14.5 11.5t24.5 3.5q19 0 27.5 -7.5t7.5 -18t-2 -22.5l-14 -86q-5 -29 -16 -38.5t-39 -9.5h-385q-13 0 -21 1.5t-16 10t-5 25.5zM272 719q3 24 35 36 l138 58l23 6q18 0 28 -12t7 -30q-4 -26 -38 -41l-139 -58q-13 -5 -22 -5q-20 0 -27.5 17t-4.5 29z" />
<glyph unicode="&#xca;" d="M30 37q6 38 55 38h21l76 461h-21q-13 0 -21 1.5t-15.5 10.5t-4.5 26q6 37 54 37h364q28 0 35.5 -10t2.5 -38l-12 -71q-3 -16 -5.5 -23.5t-13.5 -16t-31 -8.5q-19 0 -27.5 7.5t-7.5 18t2 22.5l7 44h-223l-30 -182h112q7 33 16 44t35 11q19 0 27.5 -7.5t7.5 -17.5t-2 -22 l-15 -91q-3 -15 -5.5 -23.5t-13.5 -16.5t-30 -8q-26 0 -32 12.5t0 43.5h-112l-34 -204h245l9 59q2 12 4 18.5t7 14.5t14.5 11.5t24.5 3.5q19 0 27.5 -7.5t7.5 -18t-2 -22.5l-14 -86q-5 -29 -16 -38.5t-39 -9.5h-385q-13 0 -21 1.5t-16 10t-5 25.5zM229 702q3 23 63 43l83 28 q17 6 32 0l73 -28q26 -11 38.5 -20t10.5 -23q-7 -39 -43 -39q-8 0 -46 12l-62 20l-70 -20q-42 -12 -50 -12q-19 0 -25.5 11.5t-3.5 27.5z" />
<glyph unicode="&#xcb;" d="M30 37q6 38 55 38h21l76 461h-21q-13 0 -21 1.5t-15.5 10.5t-4.5 26q6 37 54 37h364q28 0 35.5 -10t2.5 -38l-12 -71q-3 -16 -5.5 -23.5t-13.5 -16t-31 -8.5q-19 0 -27.5 7.5t-7.5 18t2 22.5l7 44h-223l-30 -182h112q7 33 16 44t35 11q19 0 27.5 -7.5t7.5 -17.5t-2 -22 l-15 -91q-3 -15 -5.5 -23.5t-13.5 -16.5t-30 -8q-26 0 -32 12.5t0 43.5h-112l-34 -204h245l9 59q2 12 4 18.5t7 14.5t14.5 11.5t24.5 3.5q19 0 27.5 -7.5t7.5 -18t-2 -22.5l-14 -86q-5 -29 -16 -38.5t-39 -9.5h-385q-13 0 -21 1.5t-16 10t-5 25.5zM232 715q4 22 21.5 36.5 t39.5 14.5t34.5 -14.5t8.5 -36.5t-21.5 -37t-39.5 -15t-34.5 15t-8.5 37zM427 715q4 22 21.5 36.5t39.5 14.5t34.5 -14.5t8.5 -36.5t-21.5 -37t-39.5 -15t-34.5 15t-8.5 37z" />
<glyph unicode="&#xcc;" d="M82 38q6 37 55 37h97l76 461h-97q-13 0 -21 1.5t-15.5 10.5t-4.5 26q6 37 54 37h277q13 0 21 -1.5t16 -10.5t5 -26q-6 -37 -55 -37h-97l-76 -461h97q13 0 21 -1.5t15.5 -10.5t4.5 -26q-6 -37 -54 -37h-277q-13 0 -21 1.5t-16 10.5t-5 26zM306 736q-36 19 -23.5 51 t46.5 32q9 0 21 -6l120 -58q14 -6 19.5 -13.5t3.5 -22.5q-3 -13 -15.5 -29.5t-32.5 -16.5q-10 0 -20 5z" />
<glyph unicode="&#xcd;" d="M82 38q6 37 55 37h97l76 461h-97q-13 0 -21 1.5t-15.5 10.5t-4.5 26q6 37 54 37h277q13 0 21 -1.5t16 -10.5t5 -26q-6 -37 -55 -37h-97l-76 -461h97q13 0 21 -1.5t15.5 -10.5t4.5 -26q-6 -37 -54 -37h-277q-13 0 -21 1.5t-16 10.5t-5 26zM272 719q3 24 35 36l138 58l23 6 q18 0 28 -12t7 -30q-4 -26 -38 -41l-139 -58q-13 -5 -22 -5q-20 0 -27.5 17t-4.5 29z" />
<glyph unicode="&#xce;" d="M82 38q6 37 55 37h97l76 461h-97q-13 0 -21 1.5t-15.5 10.5t-4.5 26q6 37 54 37h277q13 0 21 -1.5t16 -10.5t5 -26q-6 -37 -55 -37h-97l-76 -461h97q13 0 21 -1.5t15.5 -10.5t4.5 -26q-6 -37 -54 -37h-277q-13 0 -21 1.5t-16 10.5t-5 26zM229 702q3 23 63 43l83 28 q17 6 32 0l73 -28q26 -11 38.5 -20t10.5 -23q-7 -39 -43 -39q-8 0 -46 12l-62 20l-70 -20q-42 -12 -50 -12q-19 0 -25.5 11.5t-3.5 27.5z" />
<glyph unicode="&#xcf;" d="M82 38q6 37 55 37h97l76 461h-97q-13 0 -21 1.5t-15.5 10.5t-4.5 26q6 37 54 37h277q13 0 21 -1.5t16 -10.5t5 -26q-6 -37 -55 -37h-97l-76 -461h97q13 0 21 -1.5t15.5 -10.5t4.5 -26q-6 -37 -54 -37h-277q-13 0 -21 1.5t-16 10.5t-5 26zM232 715q4 22 21.5 36.5 t39.5 14.5t34.5 -14.5t8.5 -36.5t-21.5 -37t-39.5 -15t-34.5 15t-8.5 37zM427 715q4 22 21.5 36.5t39.5 14.5t34.5 -14.5t8.5 -36.5t-21.5 -37t-39.5 -15t-34.5 15t-8.5 37z" />
<glyph unicode="&#xd0;" d="M23 37q6 38 55 38h14l32 193h-20q-16 0 -25.5 11t-6.5 27t15.5 27t28.5 11h20l32 192h-14q-13 0 -21 1.5t-15.5 10t-4.5 25.5q6 38 54 38h201q64 0 108 -44t59.5 -114.5t1.5 -151.5q-21 -124 -98 -212.5t-173 -88.5h-201q-13 0 -21 1.5t-16 10t-5 25.5zM175 75h86 q73 0 126 68t68 158q7 57 1 109.5t-37.5 89t-81.5 36.5h-86l-32 -192h50q16 0 25.5 -11t6.5 -27t-15.5 -27t-28.5 -11h-50z" />
<glyph unicode="&#xd1;" d="M32 38q6 37 54 37h17l76 461h-17q-13 0 -21 1.5t-15 10.5t-4 26q6 37 53 37h66q25 0 36.5 -7.5t16.5 -32.5l91 -447l68 412h-16q-13 0 -20.5 1.5t-15 10t-4.5 25.5q6 38 53 38h103q13 0 21 -1.5t15.5 -10.5t4.5 -26q-6 -37 -54 -37h-17l-81 -488q-5 -31 -16.5 -39.5 t-39.5 -8.5q-18 0 -26.5 1.5t-16.5 10.5t-11 28l-91 447l-68 -412h16q13 0 21 -1.5t15 -10.5t4 -26q-6 -37 -53 -37h-103q-13 0 -21 1.5t-15.5 10.5t-4.5 26zM202 702q3 23 61 60q49 34 86 34q33 0 65 -35q17 -19 22 -19q17 0 69 41q16 13 31 13t24 -12t7 -27 q-4 -23 -61 -60q-52 -34 -86 -34t-65 36q-16 18 -22 18q-19 0 -69 -41q-19 -13 -31 -13q-15 0 -24 12t-7 27z" />
<glyph unicode="&#xd2;" d="M104 305q13 78 23 125t25.5 86t30.5 57t43.5 30.5t58.5 15.5t81 3q38 0 62.5 -1.5t47 -7.5t34.5 -14.5t21.5 -26.5t11.5 -39t0.5 -56.5t-6.5 -74.5t-15 -97t-17.5 -97t-18 -74.5t-19.5 -56.5t-24.5 -38.5t-30.5 -26t-40 -14.5t-49.5 -7.5t-62.5 -1.5q-51 0 -80 2.5 t-53 15.5t-33 31t-11.5 57t3 85.5t18.5 124.5zM169 128q3 -36 24.5 -50t79.5 -14q60 0 86 15t40 54q19 50 41 181q22 130 18 176q-4 35 -27 46t-78 11q-58 0 -84.5 -13.5t-44.5 -57.5q-14 -38 -36 -162q-22 -147 -19 -186zM306 736q-36 19 -23.5 51t46.5 32q9 0 21 -6 l120 -58q14 -6 19.5 -13.5t3.5 -22.5q-3 -13 -15.5 -29.5t-32.5 -16.5q-10 0 -20 5z" />
<glyph unicode="&#xd3;" d="M104 305q13 78 23 125t25.5 86t30.5 57t43.5 30.5t58.5 15.5t81 3q38 0 62.5 -1.5t47 -7.5t34.5 -14.5t21.5 -26.5t11.5 -39t0.5 -56.5t-6.5 -74.5t-15 -97t-17.5 -97t-18 -74.5t-19.5 -56.5t-24.5 -38.5t-30.5 -26t-40 -14.5t-49.5 -7.5t-62.5 -1.5q-51 0 -80 2.5 t-53 15.5t-33 31t-11.5 57t3 85.5t18.5 124.5zM169 128q3 -36 24.5 -50t79.5 -14q60 0 86 15t40 54q19 50 41 181q22 130 18 176q-4 35 -27 46t-78 11q-58 0 -84.5 -13.5t-44.5 -57.5q-14 -38 -36 -162q-22 -147 -19 -186zM272 719q3 24 35 36l138 58l23 6q18 0 28 -12 t7 -30q-4 -26 -38 -41l-139 -58q-13 -5 -22 -5q-20 0 -27.5 17t-4.5 29z" />
<glyph unicode="&#xd4;" d="M104 305q13 78 23 125t25.5 86t30.5 57t43.5 30.5t58.5 15.5t81 3q38 0 62.5 -1.5t47 -7.5t34.5 -14.5t21.5 -26.5t11.5 -39t0.5 -56.5t-6.5 -74.5t-15 -97t-17.5 -97t-18 -74.5t-19.5 -56.5t-24.5 -38.5t-30.5 -26t-40 -14.5t-49.5 -7.5t-62.5 -1.5q-51 0 -80 2.5 t-53 15.5t-33 31t-11.5 57t3 85.5t18.5 124.5zM169 128q3 -36 24.5 -50t79.5 -14q60 0 86 15t40 54q19 50 41 181q22 130 18 176q-4 35 -27 46t-78 11q-58 0 -84.5 -13.5t-44.5 -57.5q-14 -38 -36 -162q-22 -147 -19 -186zM229 702q3 23 63 43l83 28q17 6 32 0l73 -28 q26 -11 38.5 -20t10.5 -23q-7 -39 -43 -39q-8 0 -46 12l-62 20l-70 -20q-42 -12 -50 -12q-19 0 -25.5 11.5t-3.5 27.5z" />
<glyph unicode="&#xd5;" d="M104 305q13 78 23 125t25.5 86t30.5 57t43.5 30.5t58.5 15.5t81 3q38 0 62.5 -1.5t47 -7.5t34.5 -14.5t21.5 -26.5t11.5 -39t0.5 -56.5t-6.5 -74.5t-15 -97t-17.5 -97t-18 -74.5t-19.5 -56.5t-24.5 -38.5t-30.5 -26t-40 -14.5t-49.5 -7.5t-62.5 -1.5q-51 0 -80 2.5 t-53 15.5t-33 31t-11.5 57t3 85.5t18.5 124.5zM169 128q3 -36 24.5 -50t79.5 -14q60 0 86 15t40 54q19 50 41 181q22 130 18 176q-4 35 -27 46t-78 11q-58 0 -84.5 -13.5t-44.5 -57.5q-14 -38 -36 -162q-22 -147 -19 -186zM202 702q3 23 61 60q49 34 86 34q33 0 65 -35 q17 -19 22 -19q17 0 69 41q16 13 31 13t24 -12t7 -27q-4 -23 -61 -60q-52 -34 -86 -34t-65 36q-16 18 -22 18q-19 0 -69 -41q-19 -13 -31 -13q-15 0 -24 12t-7 27z" />
<glyph unicode="&#xd6;" d="M104 305q13 78 23 125t25.5 86t30.5 57t43.5 30.5t58.5 15.5t81 3q38 0 62.5 -1.5t47 -7.5t34.5 -14.5t21.5 -26.5t11.5 -39t0.5 -56.5t-6.5 -74.5t-15 -97t-17.5 -97t-18 -74.5t-19.5 -56.5t-24.5 -38.5t-30.5 -26t-40 -14.5t-49.5 -7.5t-62.5 -1.5q-51 0 -80 2.5 t-53 15.5t-33 31t-11.5 57t3 85.5t18.5 124.5zM169 128q3 -36 24.5 -50t79.5 -14q60 0 86 15t40 54q19 50 41 181q22 130 18 176q-4 35 -27 46t-78 11q-58 0 -84.5 -13.5t-44.5 -57.5q-14 -38 -36 -162q-22 -147 -19 -186zM232 715q4 22 21.5 36.5t39.5 14.5t34.5 -14.5 t8.5 -36.5t-21.5 -37t-39.5 -15t-34.5 15t-8.5 37zM427 715q4 22 21.5 36.5t39.5 14.5t34.5 -14.5t8.5 -36.5t-21.5 -37t-39.5 -15t-34.5 15t-8.5 37z" />
<glyph unicode="&#xd7;" d="M128 147q-24 25 18 67l108 92l-78 93q-29 40 4 67q29 26 66 -7l77 -94l107 93l4 3q4 3 6 4t6.5 4t7 4t7 2.5t8 2t8 0.5t8 -1.5t7.5 -4.5t7 -7q23 -25 -19 -67l-108 -92l79 -93q26 -41 -5 -67q-30 -28 -65 7l-78 94l-107 -93q-1 0 -4.5 -3t-5.5 -4t-6.5 -4t-7 -4t-7 -2.5 t-8 -2t-7.5 -0.5t-7.5 1.5t-7.5 4.5t-7 7z" />
<glyph unicode="&#xd8;" d="M83 150q2 38 21 155q13 78 23 125t25.5 86t30.5 57t43.5 30.5t58.5 15.5t81 3q40 0 62 -2l19 39q17 35 43 35q4 0 10.5 -1.5t15.5 -11t7 -24.5q-2 -8 -24 -54q40 -21 44.5 -85.5t-21.5 -212.5q-10 -58 -17.5 -97t-18 -74.5t-19.5 -56.5t-24.5 -38.5t-30.5 -26t-40 -14.5 t-49.5 -7.5t-62.5 -1.5q-40 0 -63 2l-18 -39q-17 -35 -43 -35q-4 0 -10.5 1.5t-15.5 11t-7 24.5q2 8 24 54q-30 16 -39 48.5t-5 93.5zM167 90l223 456q-12 1 -38 1q-61 0 -90 -11t-46 -49q-20 -46 -43 -182q-31 -187 -6 -215zM236 65q12 -1 38 -1q61 0 90 11t46 49 q20 46 43 182q31 187 6 215z" />
<glyph unicode="&#xd9;" d="M99 574q6 37 54 37h125q13 0 21 -1.5t16 -10t5 -25.5q-6 -38 -55 -38h-21l-54 -325q-11 -69 15.5 -108t67.5 -39q40 0 80 39.5t51 107.5l54 325h-21q-13 0 -21 1.5t-15.5 10.5t-4.5 26q6 37 54 37h125q13 0 21 -1.5t16 -10t5 -25.5q-6 -38 -55 -38h-21l-54 -329 q-15 -92 -82.5 -155t-144.5 -63t-122.5 63t-30.5 155l54 329h-21q-13 0 -21 1.5t-15.5 10.5t-4.5 26zM306 736q-36 19 -23.5 51t46.5 32q9 0 21 -6l120 -58q14 -6 19.5 -13.5t3.5 -22.5q-3 -13 -15.5 -29.5t-32.5 -16.5q-10 0 -20 5z" />
<glyph unicode="&#xda;" d="M99 574q6 37 54 37h125q13 0 21 -1.5t16 -10t5 -25.5q-6 -38 -55 -38h-21l-54 -325q-11 -69 15.5 -108t67.5 -39q40 0 80 39.5t51 107.5l54 325h-21q-13 0 -21 1.5t-15.5 10.5t-4.5 26q6 37 54 37h125q13 0 21 -1.5t16 -10t5 -25.5q-6 -38 -55 -38h-21l-54 -329 q-15 -92 -82.5 -155t-144.5 -63t-122.5 63t-30.5 155l54 329h-21q-13 0 -21 1.5t-15.5 10.5t-4.5 26zM272 719q3 24 35 36l138 58l23 6q18 0 28 -12t7 -30q-4 -26 -38 -41l-139 -58q-13 -5 -22 -5q-20 0 -27.5 17t-4.5 29z" />
<glyph unicode="&#xdb;" d="M99 574q6 37 54 37h125q13 0 21 -1.5t16 -10t5 -25.5q-6 -38 -55 -38h-21l-54 -325q-11 -69 15.5 -108t67.5 -39q40 0 80 39.5t51 107.5l54 325h-21q-13 0 -21 1.5t-15.5 10.5t-4.5 26q6 37 54 37h125q13 0 21 -1.5t16 -10t5 -25.5q-6 -38 -55 -38h-21l-54 -329 q-15 -92 -82.5 -155t-144.5 -63t-122.5 63t-30.5 155l54 329h-21q-13 0 -21 1.5t-15.5 10.5t-4.5 26zM229 702q3 23 63 43l83 28q17 6 32 0l73 -28q26 -11 38.5 -20t10.5 -23q-7 -39 -43 -39q-8 0 -46 12l-62 20l-70 -20q-42 -12 -50 -12q-19 0 -25.5 11.5t-3.5 27.5z" />
<glyph unicode="&#xdc;" d="M99 574q6 37 54 37h125q13 0 21 -1.5t16 -10t5 -25.5q-6 -38 -55 -38h-21l-54 -325q-11 -69 15.5 -108t67.5 -39q40 0 80 39.5t51 107.5l54 325h-21q-13 0 -21 1.5t-15.5 10.5t-4.5 26q6 37 54 37h125q13 0 21 -1.5t16 -10t5 -25.5q-6 -38 -55 -38h-21l-54 -329 q-15 -92 -82.5 -155t-144.5 -63t-122.5 63t-30.5 155l54 329h-21q-13 0 -21 1.5t-15.5 10.5t-4.5 26zM232 715q4 22 21.5 36.5t39.5 14.5t34.5 -14.5t8.5 -36.5t-21.5 -37t-39.5 -15t-34.5 15t-8.5 37zM427 715q4 22 21.5 36.5t39.5 14.5t34.5 -14.5t8.5 -36.5t-21.5 -37 t-39.5 -15t-34.5 15t-8.5 37z" />
<glyph unicode="&#xdd;" d="M113 574q6 37 53 37h102q12 0 20 -1.5t15.5 -10t4.5 -25.5q-6 -36 -47 -38l58 -203l122 203q-18 1 -27 9t-6 29q6 37 52 37h102q13 0 21 -1.5t15.5 -10.5t4.5 -26q-6 -37 -54 -37h-16l-188 -292l-28 -169h16q14 0 21.5 -1.5t14.5 -10.5t4 -26q-6 -37 -53 -37h-115 q-14 0 -22 1.5t-15 10.5t-4 26q6 37 54 37h16l28 169l-93 292h-16q-13 0 -21 1.5t-15 10.5t-4 26zM272 719q3 24 35 36l138 58l23 6q18 0 28 -12t7 -30q-4 -26 -38 -41l-139 -58q-13 -5 -22 -5q-20 0 -27.5 17t-4.5 29z" />
<glyph unicode="&#xde;" d="M26 37q6 38 54 38h16l76 461h-16q-13 0 -20.5 1.5t-15 10t-4.5 25.5q6 38 53 38h116q13 0 21 -1.5t15 -10.5t4 -26q-6 -37 -53 -37h-17l-7 -44h114q85 0 129.5 -55.5t31.5 -130.5t-75.5 -130.5t-147.5 -55.5h-114l-7 -45h17q13 0 20.5 -1.5t14.5 -10.5t4 -26 q-6 -37 -52 -37h-116q-13 0 -21 1.5t-15.5 10t-4.5 25.5zM200 195h95q61 0 100 34.5t46 76.5q7 41 -20.5 76t-88.5 35h-95z" />
<glyph unicode="&#xdf;" d="M21 37q6 38 54 38h45l47 286h-45q-13 0 -21 1.5t-15.5 10t-4.5 25.5q7 38 54 38h45l10 60q7 44 45 73t78 38.5t78 9.5q75 0 122 -32t39 -82q-12 -67 -93 -111q27 -24 44 -54.5t22 -61t5.5 -53.5t-3.5 -45q-14 -81 -79 -132.5t-138 -51.5q-51 0 -75.5 24.5t-18.5 56.5 q4 22 20.5 35.5t35.5 13.5q21 0 35 -19q5 -11 2 -34q8 -2 14 -2q39 0 76 30t45 79q1 16 2.5 38t-6 46.5t-19.5 45.5t-38 36t-62 17q-3 1 -8 2.5t-11.5 11t-4.5 23.5q4 20 19.5 28.5t51.5 11.5q47 7 73 26.5t29 37.5q2 16 -25 28t-68 12q-36 0 -71 -13q-21 -9 -26.5 -17 t-7.5 -23l-74 -441q-5 -29 -16 -38.5t-39 -9.5h-81q-13 0 -21 1.5t-15.5 10t-4.5 25.5z" />
<glyph unicode="&#xe0;" d="M75 133q12 70 98 109.5t220 42.5q4 43 -23 63.5t-79 20.5l-49 -3q-5 -28 -23.5 -40.5t-36.5 -12.5q-21 0 -33.5 14t-8.5 38q14 79 162 79q101 0 142.5 -48t31.5 -110l-34 -205q14 -6 50 -6q13 0 20.5 -1.5t15 -10t4.5 -25.5q-4 -25 -18.5 -31.5t-44.5 -6.5q-81 0 -102 29 q-64 -35 -146 -35q-76 0 -115.5 41.5t-30.5 97.5zM157 133q-5 -27 18 -45.5t64 -18.5q50 0 86 16q17 7 26.5 17t11.5 16.5t4 19.5l12 74q-97 -4 -156.5 -25t-65.5 -54zM275 552q-37 18 -23 50.5t47 32.5q9 0 21 -6l119 -58q14 -6 20 -13.5t3 -22.5q-1 -11 -14.5 -28.5 t-33.5 -17.5q-8 0 -20 5z" />
<glyph unicode="&#xe1;" d="M75 133q12 70 98 109.5t220 42.5q4 43 -23 63.5t-79 20.5l-49 -3q-5 -28 -23.5 -40.5t-36.5 -12.5q-21 0 -33.5 14t-8.5 38q14 79 162 79q101 0 142.5 -48t31.5 -110l-34 -205q14 -6 50 -6q13 0 20.5 -1.5t15 -10t4.5 -25.5q-4 -25 -18.5 -31.5t-44.5 -6.5q-81 0 -102 29 q-64 -35 -146 -35q-76 0 -115.5 41.5t-30.5 97.5zM157 133q-5 -27 18 -45.5t64 -18.5q50 0 86 16q17 7 26.5 17t11.5 16.5t4 19.5l12 74q-97 -4 -156.5 -25t-65.5 -54zM241 535q4 24 35 36l139 58l23 6q18 0 28 -12t7 -30q-4 -27 -39 -41l-139 -58q-12 -5 -22 -5 q-14 0 -22 10t-9.5 19.5t-0.5 16.5z" />
<glyph unicode="&#xe2;" d="M75 133q12 70 98 109.5t220 42.5q4 43 -23 63.5t-79 20.5l-49 -3q-5 -28 -23.5 -40.5t-36.5 -12.5q-21 0 -33.5 14t-8.5 38q14 79 162 79q101 0 142.5 -48t31.5 -110l-34 -205q14 -6 50 -6q13 0 20.5 -1.5t15 -10t4.5 -25.5q-4 -25 -18.5 -31.5t-44.5 -6.5q-81 0 -102 29 q-64 -35 -146 -35q-76 0 -115.5 41.5t-30.5 97.5zM157 133q-5 -27 18 -45.5t64 -18.5q50 0 86 16q17 7 26.5 17t11.5 16.5t4 19.5l12 74q-97 -4 -156.5 -25t-65.5 -54zM198 520q1 11 9 20.5t15 14t29 17.5l100 58q18 11 32 0l80 -58q18 -13 23.5 -18t10.5 -14t3 -20 q-8 -32 -46 -32q-10 0 -39 21l-61 42l-75 -42q-36 -21 -47 -21q-20 0 -28 8t-6 24z" />
<glyph unicode="&#xe3;" d="M75 133q12 70 98 109.5t220 42.5q4 43 -23 63.5t-79 20.5l-49 -3q-5 -28 -23.5 -40.5t-36.5 -12.5q-21 0 -33.5 14t-8.5 38q14 79 162 79q101 0 142.5 -48t31.5 -110l-34 -205q14 -6 50 -6q13 0 20.5 -1.5t15 -10t4.5 -25.5q-4 -25 -18.5 -31.5t-44.5 -6.5q-81 0 -102 29 q-64 -35 -146 -35q-76 0 -115.5 41.5t-30.5 97.5zM157 133q-5 -27 18 -45.5t64 -18.5q50 0 86 16q17 7 26.5 17t11.5 16.5t4 19.5l12 74q-97 -4 -156.5 -25t-65.5 -54zM174 535q3 23 61 60q49 34 86 34q33 0 65 -35q17 -19 22 -19q16 0 70 41q17 13 30 13q15 0 24 -12t7 -27 q-4 -23 -61 -60q-52 -34 -85 -34q-37 0 -65 36q-18 18 -22 18q-20 0 -70 -41q-17 -13 -30 -13q-15 0 -24.5 12.5t-7.5 26.5z" />
<glyph unicode="&#xe4;" d="M75 133q12 70 98 109.5t220 42.5q4 43 -23 63.5t-79 20.5l-49 -3q-5 -28 -23.5 -40.5t-36.5 -12.5q-21 0 -33.5 14t-8.5 38q14 79 162 79q101 0 142.5 -48t31.5 -110l-34 -205q14 -6 50 -6q13 0 20.5 -1.5t15 -10t4.5 -25.5q-4 -25 -18.5 -31.5t-44.5 -6.5q-81 0 -102 29 q-64 -35 -146 -35q-76 0 -115.5 41.5t-30.5 97.5zM157 133q-5 -27 18 -45.5t64 -18.5q50 0 86 16q17 7 26.5 17t11.5 16.5t4 19.5l12 74q-97 -4 -156.5 -25t-65.5 -54zM222 563q4 22 21 36.5t39 14.5t35 -14.5t9 -36.5t-21.5 -37t-39.5 -15t-34.5 15t-8.5 37zM387 563 q4 22 21 36.5t39 14.5t35 -14.5t9 -36.5t-21.5 -37t-39.5 -15t-34.5 15t-8.5 37z" />
<glyph unicode="&#xe5;" d="M75 133q12 70 98 109.5t220 42.5q4 43 -23 63.5t-79 20.5l-49 -3q-5 -28 -23.5 -40.5t-36.5 -12.5q-21 0 -33.5 14t-8.5 38q14 79 162 79q101 0 142.5 -48t31.5 -110l-34 -205q14 -6 50 -6q13 0 20.5 -1.5t15 -10t4.5 -25.5q-4 -25 -18.5 -31.5t-44.5 -6.5q-81 0 -102 29 q-64 -35 -146 -35q-76 0 -115.5 41.5t-30.5 97.5zM157 133q-5 -27 18 -45.5t64 -18.5q50 0 86 16q17 7 26.5 17t11.5 16.5t4 19.5l12 74q-97 -4 -156.5 -25t-65.5 -54zM271 573q5 26 33 46t65 20t59 -20t17 -46q-4 -27 -32.5 -47.5t-65.5 -20.5t-58.5 20.5t-17.5 47.5z M327 572q-1 -9 7.5 -14.5t20.5 -5.5t22.5 5.5t11.5 14.5t-7 14.5t-20 5.5t-23 -5.5t-12 -14.5z" />
<glyph unicode="&#xe6;" d="M52 123q9 60 70.5 96t147.5 38l4 25q14 87 -55 87q-9 0 -18 -5q-12 -51 -59 -51q-22 0 -34.5 14t-8.5 38q6 32 37.5 55.5t97.5 23.5q71 0 102 -63q51 63 114 63q57 0 84.5 -55.5t10.5 -153.5q-5 -29 -15 -39t-40 -10h-159q-1 -53 20 -85t52 -32q25 0 44 33q11 23 21.5 35 t27.5 12q15 0 23 -10.5t6 -24.5q-2 -15 -17 -41t-49 -52.5t-74 -26.5q-60 0 -100 62q-25 -29 -62 -45.5t-74 -16.5q-53 0 -79.5 39.5t-17.5 89.5zM120 124q-4 -21 8 -38t37 -17q28 0 55 19q19 15 26 50l9 46q-56 -3 -93.5 -18.5t-41.5 -41.5zM346 260h134q11 109 -39 109 q-27 0 -54.5 -33t-40.5 -76z" />
<glyph unicode="&#xe7;" d="M106 218q6 36 25 73.5t51 72.5t83.5 57.5t112.5 22.5q19 0 34.5 -1t38.5 -5t37.5 -12t24 -23.5t5.5 -37.5q-4 -24 -21.5 -38t-39.5 -14q-48 0 -41 55l-50 1q-44 0 -78.5 -16.5t-54 -42.5t-30 -49t-14.5 -43q-10 -62 26 -105.5t95 -43.5q67 0 98 54q9 17 18.5 21.5 t25.5 4.5q7 0 14.5 -1t16 -10t5.5 -24q-1 -11 -13 -30.5t-43 -44.5t-73 -36q41 -13 57.5 -40t11.5 -58q-5 -30 -24.5 -51t-43.5 -32t-61 -17t-62.5 -7t-62.5 -1t-32 38q4 24 20.5 31t52.5 7q126 0 131 32q2 12 -12 21t-41 10q-25 1 -30 13.5t-1 34.5l2 12q-82 10 -127 73.5 t-31 148.5z" />
<glyph unicode="&#xe8;" d="M89 219q15 93 90 159t165 66q94 0 135.5 -61.5t25.5 -152.5q-3 -21 -12.5 -31t-17.5 -11.5t-24 -1.5h-281q4 -54 42.5 -85.5t90.5 -31.5q70 0 103 54q9 16 18 21t26 5q7 0 14.5 -1t16 -10t5.5 -24q-2 -12 -15 -30t-36.5 -39t-64 -36t-87.5 -15q-97 0 -153.5 66t-40.5 159 zM183 260h241q3 59 -24 84t-68 25q-46 0 -87.5 -30.5t-61.5 -78.5zM275 552q-37 18 -23 50.5t47 32.5q9 0 21 -6l119 -58q14 -6 20 -13.5t3 -22.5q-1 -11 -14.5 -28.5t-33.5 -17.5q-8 0 -20 5z" />
<glyph unicode="&#xe9;" d="M89 219q15 93 90 159t165 66q94 0 135.5 -61.5t25.5 -152.5q-3 -21 -12.5 -31t-17.5 -11.5t-24 -1.5h-281q4 -54 42.5 -85.5t90.5 -31.5q70 0 103 54q9 16 18 21t26 5q7 0 14.5 -1t16 -10t5.5 -24q-2 -12 -15 -30t-36.5 -39t-64 -36t-87.5 -15q-97 0 -153.5 66t-40.5 159 zM183 260h241q3 59 -24 84t-68 25q-46 0 -87.5 -30.5t-61.5 -78.5zM241 535q4 24 35 36l139 58l23 6q18 0 28 -12t7 -30q-4 -27 -39 -41l-139 -58q-12 -5 -22 -5q-14 0 -22 10t-9.5 19.5t-0.5 16.5z" />
<glyph unicode="&#xea;" d="M89 219q15 93 90 159t165 66q94 0 135.5 -61.5t25.5 -152.5q-3 -21 -12.5 -31t-17.5 -11.5t-24 -1.5h-281q4 -54 42.5 -85.5t90.5 -31.5q70 0 103 54q9 16 18 21t26 5q7 0 14.5 -1t16 -10t5.5 -24q-2 -12 -15 -30t-36.5 -39t-64 -36t-87.5 -15q-97 0 -153.5 66t-40.5 159 zM183 260h241q3 59 -24 84t-68 25q-46 0 -87.5 -30.5t-61.5 -78.5zM198 520q1 11 9 20.5t15 14t29 17.5l100 58q18 11 32 0l80 -58q18 -13 23.5 -18t10.5 -14t3 -20q-8 -32 -46 -32q-10 0 -39 21l-61 42l-75 -42q-36 -21 -47 -21q-20 0 -28 8t-6 24z" />
<glyph unicode="&#xeb;" d="M89 219q15 93 90 159t165 66q94 0 135.5 -61.5t25.5 -152.5q-3 -21 -12.5 -31t-17.5 -11.5t-24 -1.5h-281q4 -54 42.5 -85.5t90.5 -31.5q70 0 103 54q9 16 18 21t26 5q7 0 14.5 -1t16 -10t5.5 -24q-2 -12 -15 -30t-36.5 -39t-64 -36t-87.5 -15q-97 0 -153.5 66t-40.5 159 zM183 260h241q3 59 -24 84t-68 25q-46 0 -87.5 -30.5t-61.5 -78.5zM222 563q4 22 21 36.5t39 14.5t35 -14.5t9 -36.5t-21.5 -37t-39.5 -15t-34.5 15t-8.5 37zM387 563q4 22 21 36.5t39 14.5t35 -14.5t9 -36.5t-21.5 -37t-39.5 -15t-34.5 15t-8.5 37z" />
<glyph unicode="&#xec;" d="M81 37q6 38 55 38h110l47 286h-102q-9 0 -15 1t-14 4t-11 11.5t-1 21.5q5 37 54 37h138q29 0 36.5 -10t2.5 -38l-52 -313h94q13 0 21 -1.5t15.5 -10.5t4.5 -26q-6 -37 -54 -37h-287q-13 0 -21 1.5t-16 10t-5 25.5zM273 539q-37 18 -23 50.5t47 32.5q9 0 21 -6l119 -58 q14 -6 20 -13.5t3 -22.5q-1 -11 -14.5 -28.5t-33.5 -17.5q-8 0 -20 5z" />
<glyph unicode="&#xed;" d="M81 37q6 38 55 38h110l47 286h-102q-9 0 -15 1t-14 4t-11 11.5t-1 21.5q5 37 54 37h138q29 0 36.5 -10t2.5 -38l-52 -313h94q13 0 21 -1.5t15.5 -10.5t4.5 -26q-6 -37 -54 -37h-287q-13 0 -21 1.5t-16 10t-5 25.5zM239 522q4 24 35 36l139 58l23 6q18 0 28 -12t7 -30 q-4 -27 -39 -41l-139 -58q-12 -5 -22 -5q-14 0 -22 10t-9.5 19.5t-0.5 16.5z" />
<glyph unicode="&#xee;" d="M81 37q6 38 55 38h110l47 286h-102q-9 0 -15 1t-14 4t-11 11.5t-1 21.5q5 37 54 37h138q29 0 36.5 -10t2.5 -38l-52 -313h94q13 0 21 -1.5t15.5 -10.5t4.5 -26q-6 -37 -54 -37h-287q-13 0 -21 1.5t-16 10t-5 25.5zM196 507q1 11 9 20.5t15 14t29 17.5l100 58q18 11 32 0 l80 -58q18 -13 23.5 -18t10.5 -14t3 -20q-8 -32 -46 -32q-10 0 -39 21l-61 42l-75 -42q-36 -21 -47 -21q-20 0 -28 8t-6 24z" />
<glyph unicode="&#xef;" d="M81 37q6 38 55 38h110l47 286h-102q-9 0 -15 1t-14 4t-11 11.5t-1 21.5q5 37 54 37h138q29 0 36.5 -10t2.5 -38l-52 -313h94q13 0 21 -1.5t15.5 -10.5t4.5 -26q-6 -37 -54 -37h-287q-13 0 -21 1.5t-16 10t-5 25.5zM220 550q4 22 21 36.5t39 14.5t35 -14.5t9 -36.5 t-21.5 -37t-39.5 -15t-34.5 15t-8.5 37zM385 550q4 22 21 36.5t39 14.5t35 -14.5t9 -36.5t-21.5 -37t-39.5 -15t-34.5 15t-8.5 37z" />
<glyph unicode="&#xf0;" d="M90 218q16 95 88.5 160.5t157.5 65.5q57 0 100 -31q-5 42 -16 70l-13 -11q-14 -12 -30 -12t-25 11t-7 27q2 13 16 27l10 9q-21 8 -44 8q-16 0 -25 11t-6 27q2 16 15 27t29 11q55 0 94 -28l19 17q13 11 29 11t25 -11t7 -27q-3 -16 -15 -26l-19 -17q62 -108 26 -319 q-13 -86 -84.5 -155t-160.5 -69q-85 0 -136 64.5t-35 159.5zM175 225q-11 -64 18.5 -110t80.5 -46t95.5 46t55.5 110q10 62 -20 103t-81 41q-50 0 -94.5 -41.5t-54.5 -102.5z" />
<glyph unicode="&#xf1;" d="M17 37q6 38 54 38h35l47 286h-36q-8 0 -14 1t-14 4t-11 11t-1 21q6 38 54 38h71q28 0 35.5 -8.5t5.5 -28.5q60 42 127 42q134 0 110 -148l-36 -218h35q13 0 21 -1.5t15 -10.5t4 -26q-6 -37 -52 -37h-149q-12 0 -20.5 1.5t-16.5 10.5t-5 25q6 38 55 38h30l35 213 q7 42 -2 60t-43 18q-42 0 -83.5 -32t-51.5 -94l-27 -165h35q13 0 21 -1.5t15.5 -10.5t4.5 -26q-6 -37 -53 -37h-155q-8 0 -14 1t-14 4t-11 11t-1 21zM172 522q3 23 61 60q49 34 86 34q33 0 65 -35q17 -19 22 -19q16 0 70 41q17 13 30 13q15 0 24 -12t7 -27q-4 -23 -61 -60 q-52 -34 -85 -34q-37 0 -65 36q-18 18 -22 18q-20 0 -70 -41q-17 -13 -30 -13q-15 0 -24.5 12.5t-7.5 26.5z" />
<glyph unicode="&#xf2;" d="M90 218q16 95 88.5 160.5t157.5 65.5q86 0 136 -66t34 -160t-88.5 -159t-156.5 -65q-85 0 -136 64.5t-35 159.5zM175 225q-11 -64 18.5 -110t80.5 -46t95.5 46t55.5 110q10 62 -20 103t-81 41q-50 0 -94.5 -41.5t-54.5 -102.5zM275 552q-37 18 -23 50.5t47 32.5 q9 0 21 -6l119 -58q14 -6 20 -13.5t3 -22.5q-1 -11 -14.5 -28.5t-33.5 -17.5q-8 0 -20 5z" />
<glyph unicode="&#xf3;" d="M90 218q16 95 88.5 160.5t157.5 65.5q86 0 136 -66t34 -160t-88.5 -159t-156.5 -65q-85 0 -136 64.5t-35 159.5zM175 225q-11 -64 18.5 -110t80.5 -46t95.5 46t55.5 110q10 62 -20 103t-81 41q-50 0 -94.5 -41.5t-54.5 -102.5zM241 535q4 24 35 36l139 58l23 6 q18 0 28 -12t7 -30q-4 -27 -39 -41l-139 -58q-12 -5 -22 -5q-14 0 -22 10t-9.5 19.5t-0.5 16.5z" />
<glyph unicode="&#xf4;" d="M90 218q16 95 88.5 160.5t157.5 65.5q86 0 136 -66t34 -160t-88.5 -159t-156.5 -65q-85 0 -136 64.5t-35 159.5zM175 225q-11 -64 18.5 -110t80.5 -46t95.5 46t55.5 110q10 62 -20 103t-81 41q-50 0 -94.5 -41.5t-54.5 -102.5zM198 520q1 11 9 20.5t15 14t29 17.5l100 58 q18 11 32 0l80 -58q18 -13 23.5 -18t10.5 -14t3 -20q-8 -32 -46 -32q-10 0 -39 21l-61 42l-75 -42q-36 -21 -47 -21q-20 0 -28 8t-6 24z" />
<glyph unicode="&#xf5;" d="M90 218q16 95 88.5 160.5t157.5 65.5q86 0 136 -66t34 -160t-88.5 -159t-156.5 -65q-85 0 -136 64.5t-35 159.5zM174 535q3 23 61 60q49 34 86 34q33 0 65 -35q17 -19 22 -19q16 0 70 41q17 13 30 13q15 0 24 -12t7 -27q-4 -23 -61 -60q-52 -34 -85 -34q-37 0 -65 36 q-18 18 -22 18q-20 0 -70 -41q-17 -13 -30 -13q-15 0 -24.5 12.5t-7.5 26.5zM175 225q-11 -64 18.5 -110t80.5 -46t95.5 46t55.5 110q10 62 -20 103t-81 41q-50 0 -94.5 -41.5t-54.5 -102.5z" />
<glyph unicode="&#xf6;" d="M90 218q16 95 88.5 160.5t157.5 65.5q86 0 136 -66t34 -160t-88.5 -159t-156.5 -65q-85 0 -136 64.5t-35 159.5zM175 225q-11 -64 18.5 -110t80.5 -46t95.5 46t55.5 110q10 62 -20 103t-81 41q-50 0 -94.5 -41.5t-54.5 -102.5zM222 563q4 22 21 36.5t39 14.5t35 -14.5 t9 -36.5t-21.5 -37t-39.5 -15t-34.5 15t-8.5 37zM387 563q4 22 21 36.5t39 14.5t35 -14.5t9 -36.5t-21.5 -37t-39.5 -15t-34.5 15t-8.5 37z" />
<glyph unicode="&#xf7;" d="M87 306q7 42 64 42h338q12 0 22.5 -1.5t20.5 -12t7 -28.5q-7 -42 -59 -42h-348q-12 0 -20.5 1.5t-18 11.5t-6.5 29zM210 99q4 27 27 48t53 21q27 0 44 -20t12 -50q-4 -27 -27 -47.5t-53 -20.5q-27 0 -44 20t-12 49zM279 513q4 27 27 47.5t53 20.5q27 0 44 -20t12 -49 q-4 -27 -27 -48t-53 -21q-27 0 -44 20t-12 50z" />
<glyph unicode="&#xf8;" d="M24 -99q2 10 24 41l80 105q-65 69 -49 171q16 93 91 159.5t166 66.5q43 0 77 -15l90 121q15 22 36 22q13 0 24.5 -10t8.5 -27q0 -8 -12 -24l-90 -122q63 -73 47 -171q-15 -93 -90.5 -158.5t-165.5 -65.5q-42 0 -75 15l-92 -123q-15 -22 -37 -22q-13 0 -24.5 10t-8.5 27z M148 218q-10 -60 27 -106l188 252q-16 5 -40 5q-62 0 -113.5 -44t-61.5 -107zM236 74q15 -5 39 -5q62 0 112.5 43.5t60.5 105.5q12 62 -25 107z" />
<glyph unicode="&#xf9;" d="M77 398q6 38 54 38h71q29 0 36.5 -10t2.5 -38l-44 -263q-2 -15 -2 -27t15 -20.5t47 -8.5q20 0 41 5t46 27.5t31 59.5l33 200h-36q-12 0 -20 1.5t-16 10t-5 25.5q6 38 55 38h71q28 0 36 -10t3 -38l-52 -313h36q12 0 19.5 -1.5t15 -10.5t4.5 -25q-6 -38 -53 -38h-71 q-39 0 -42 25q-52 -31 -114 -31q-65 0 -101.5 28.5t-24.5 96.5l40 242h-36q-8 0 -14 1t-14 4t-11 11t-1 21zM273 539q-37 18 -23 50.5t47 32.5q9 0 21 -6l119 -58q14 -6 20 -13.5t3 -22.5q-1 -11 -14.5 -28.5t-33.5 -17.5q-8 0 -20 5z" />
<glyph unicode="&#xfa;" d="M77 398q6 38 54 38h71q29 0 36.5 -10t2.5 -38l-44 -263q-2 -15 -2 -27t15 -20.5t47 -8.5q20 0 41 5t46 27.5t31 59.5l33 200h-36q-12 0 -20 1.5t-16 10t-5 25.5q6 38 55 38h71q28 0 36 -10t3 -38l-52 -313h36q12 0 19.5 -1.5t15 -10.5t4.5 -25q-6 -38 -53 -38h-71 q-39 0 -42 25q-52 -31 -114 -31q-65 0 -101.5 28.5t-24.5 96.5l40 242h-36q-8 0 -14 1t-14 4t-11 11t-1 21zM239 522q4 24 35 36l139 58l23 6q18 0 28 -12t7 -30q-4 -27 -39 -41l-139 -58q-12 -5 -22 -5q-14 0 -22 10t-9.5 19.5t-0.5 16.5z" />
<glyph unicode="&#xfb;" d="M77 398q6 38 54 38h71q29 0 36.5 -10t2.5 -38l-44 -263q-2 -15 -2 -27t15 -20.5t47 -8.5q20 0 41 5t46 27.5t31 59.5l33 200h-36q-12 0 -20 1.5t-16 10t-5 25.5q6 38 55 38h71q28 0 36 -10t3 -38l-52 -313h36q12 0 19.5 -1.5t15 -10.5t4.5 -25q-6 -38 -53 -38h-71 q-39 0 -42 25q-52 -31 -114 -31q-65 0 -101.5 28.5t-24.5 96.5l40 242h-36q-8 0 -14 1t-14 4t-11 11t-1 21zM196 507q1 11 9 20.5t15 14t29 17.5l100 58q18 11 32 0l80 -58q18 -13 23.5 -18t10.5 -14t3 -20q-8 -32 -46 -32q-10 0 -39 21l-61 42l-75 -42q-36 -21 -47 -21 q-20 0 -28 8t-6 24z" />
<glyph unicode="&#xfc;" d="M77 398q6 38 54 38h71q29 0 36.5 -10t2.5 -38l-44 -263q-2 -15 -2 -27t15 -20.5t47 -8.5q20 0 41 5t46 27.5t31 59.5l33 200h-36q-12 0 -20 1.5t-16 10t-5 25.5q6 38 55 38h71q28 0 36 -10t3 -38l-52 -313h36q12 0 19.5 -1.5t15 -10.5t4.5 -25q-6 -38 -53 -38h-71 q-39 0 -42 25q-52 -31 -114 -31q-65 0 -101.5 28.5t-24.5 96.5l40 242h-36q-8 0 -14 1t-14 4t-11 11t-1 21zM220 550q4 22 21 36.5t39 14.5t35 -14.5t9 -36.5t-21.5 -37t-39.5 -15t-34.5 15t-8.5 37zM385 550q4 22 21 36.5t39 14.5t35 -14.5t9 -36.5t-21.5 -37t-39.5 -15 t-34.5 15t-8.5 37z" />
<glyph unicode="&#xfd;" d="M19 -134q3 22 19 36t39 14q22 0 33.5 -14t8.5 -36q-1 -5 -3.5 -9t-4.5 -6l-4 -4l-3 -3q15 0 38 17t42 44q7 10 18.5 32.5t22 45t12.5 25.5l-81 353h-25q-13 0 -21 1.5t-15.5 10t-4.5 25.5q7 38 54 38h114q10 0 16 -1t13.5 -4t10 -11.5t0.5 -21.5q-6 -37 -53 -37h-13 l56 -261l129 261h-16q-10 0 -16 1t-13.5 4t-10 11.5t-0.5 21.5q5 37 53 37h114q10 0 16 -1t13.5 -4t10 -11.5t0.5 -21.5q-6 -37 -53 -37h-24l-222 -439q-8 -14 -17.5 -29t-34 -45.5t-57.5 -50t-68 -19.5q-38 0 -58.5 26.5t-14.5 61.5zM239 522q4 24 35 36l139 58l23 6 q18 0 28 -12t7 -30q-4 -27 -39 -41l-139 -58q-12 -5 -22 -5q-14 0 -22 10t-9.5 19.5t-0.5 16.5z" />
<glyph unicode="&#xfe;" d="M-20 -179q6 38 54 38h35l113 677h-36q-12 0 -20 1.5t-15.5 10t-4.5 25.5q6 38 54 38h71q29 0 36.5 -10t2.5 -38l-27 -160q59 38 123 38q81 0 128.5 -65t31.5 -158q-15 -94 -88.5 -159t-157.5 -65q-59 0 -98 40l-30 -175h35q13 0 21.5 -1.5t16 -10.5t4.5 -26 q-6 -37 -53 -37h-155q-12 0 -20 1.5t-16 10t-5 25.5zM209 194q-7 -41 13.5 -83t68.5 -42q51 0 97 42.5t56 106.5q11 60 -17 104t-79 44q-43 0 -81.5 -30.5t-45.5 -70.5z" />
<glyph unicode="&#xff;" d="M19 -134q3 22 19 36t39 14q22 0 33.5 -14t8.5 -36q-1 -5 -3.5 -9t-4.5 -6l-4 -4l-3 -3q15 0 38 17t42 44q7 10 18.5 32.5t22 45t12.5 25.5l-81 353h-25q-13 0 -21 1.5t-15.5 10t-4.5 25.5q7 38 54 38h114q10 0 16 -1t13.5 -4t10 -11.5t0.5 -21.5q-6 -37 -53 -37h-13 l56 -261l129 261h-16q-10 0 -16 1t-13.5 4t-10 11.5t-0.5 21.5q5 37 53 37h114q10 0 16 -1t13.5 -4t10 -11.5t0.5 -21.5q-6 -37 -53 -37h-24l-222 -439q-8 -14 -17.5 -29t-34 -45.5t-57.5 -50t-68 -19.5q-38 0 -58.5 26.5t-14.5 61.5zM220 550q4 22 21 36.5t39 14.5 t35 -14.5t9 -36.5t-21.5 -37t-39.5 -15t-34.5 15t-8.5 37zM385 550q4 22 21 36.5t39 14.5t35 -14.5t9 -36.5t-21.5 -37t-39.5 -15t-34.5 15t-8.5 37z" />
<glyph unicode="&#x100;" d="M31 37q4 24 27 35q9 3 40 3l201 505q12 29 25 36t42 7t40 -7.5t13 -36.5l33 -504q30 0 43.5 -7.5t9.5 -30.5q-6 -37 -56 -37h-99q-15 0 -23 1.5t-15.5 10t-4.5 25.5q4 23 17 30t43 8l-5 86h-146l-33 -86q29 -1 39.5 -8t6.5 -30q-3 -17 -13 -25.5t-18.5 -10t-23.5 -1.5 h-99q-13 0 -22 1.5t-17 10.5t-5 25zM191 722q6 38 54 38h290q14 0 21.5 -1.5t14.5 -10.5t4 -27q-6 -38 -53 -38h-289q-14 0 -22 1.5t-15.5 10.5t-4.5 27zM246 236h110l-11 260z" />
<glyph unicode="&#x101;" d="M75 133q12 70 98 109.5t220 42.5q4 43 -23 63.5t-79 20.5l-49 -3q-5 -28 -23.5 -40.5t-36.5 -12.5q-21 0 -33.5 14t-8.5 38q14 79 162 79q101 0 142.5 -48t31.5 -110l-34 -205q14 -6 50 -6q13 0 20.5 -1.5t15 -10t4.5 -25.5q-4 -25 -18.5 -31.5t-44.5 -6.5q-81 0 -102 29 q-64 -35 -146 -35q-76 0 -115.5 41.5t-30.5 97.5zM157 133q-5 -27 18 -45.5t64 -18.5q50 0 86 16q17 7 26.5 17t11.5 16.5t4 19.5l12 74q-97 -4 -156.5 -25t-65.5 -54zM165 563q6 38 53 38h290q14 0 22 -1.5t15 -10.5t4 -27q-7 -38 -54 -38h-289q-14 0 -22 1.5t-15 10.5 t-4 27z" />
<glyph unicode="&#x102;" d="M31 37q4 24 27 35q9 3 40 3l201 505q12 29 25 36t42 7t40 -7.5t13 -36.5l33 -504q30 0 43.5 -7.5t9.5 -30.5q-6 -37 -56 -37h-99q-15 0 -23 1.5t-15.5 10t-4.5 25.5q4 23 17 30t43 8l-5 86h-146l-33 -86q29 -1 39.5 -8t6.5 -30q-3 -17 -13 -25.5t-18.5 -10t-23.5 -1.5 h-99q-13 0 -22 1.5t-17 10.5t-5 25zM211 761q7 38 44 38q31 0 31 -34q2 -14 102 -14t106 14q4 10 7.5 15.5t13 12t22.5 6.5q18 0 26.5 -10t5.5 -28q-5 -30 -25.5 -49t-53 -27t-57 -10t-58.5 -2t-57.5 2t-53.5 10t-44 27t-9 49zM246 236h110l-11 260z" />
<glyph unicode="&#x103;" d="M75 133q12 70 98 109.5t220 42.5q4 43 -23 63.5t-79 20.5l-49 -3q-5 -28 -23.5 -40.5t-36.5 -12.5q-21 0 -33.5 14t-8.5 38q14 79 162 79q101 0 142.5 -48t31.5 -110l-34 -205q14 -6 50 -6q13 0 20.5 -1.5t15 -10t4.5 -25.5q-4 -25 -18.5 -31.5t-44.5 -6.5q-81 0 -102 29 q-64 -35 -146 -35q-76 0 -115.5 41.5t-30.5 97.5zM157 133q-5 -27 18 -45.5t64 -18.5q50 0 86 16q17 7 26.5 17t11.5 16.5t4 19.5l12 74q-97 -4 -156.5 -25t-65.5 -54zM182 587q7 38 44 38q31 0 31 -34q2 -14 102 -14t106 14q4 10 7.5 15.5t13 12t22.5 6.5q18 0 26.5 -10 t5.5 -28q-5 -30 -25.5 -49t-53 -27t-57 -10t-58.5 -2t-57.5 2t-53.5 10t-44 27t-9 49z" />
<glyph unicode="&#x104;" d="M31 37q4 24 27 35q9 3 40 3l201 505q12 29 25 36t42 7t40 -7.5t13 -36.5l33 -504q30 0 43.5 -7.5t9.5 -30.5q-6 -37 -56 -37h-38q-37 -20 -53.5 -43.5t-22.5 -55.5q-2 -13 8 -22t22 -9q11 0 22 8q45 39 58 41q12 2 20 -9q7 -10 7 -24.5t-8 -22.5q-56 -61 -114 -61 q-47 0 -70.5 31.5t-16.5 69.5q10 59 65 99q-26 6 -21 35q4 23 17 30t43 8l-5 86h-146l-33 -86q29 -1 39.5 -8t6.5 -30q-3 -17 -13 -25.5t-18.5 -10t-23.5 -1.5h-99q-13 0 -22 1.5t-17 10.5t-5 25zM246 236h110l-11 260z" />
<glyph unicode="&#x105;" d="M75 133q12 70 98 109.5t220 42.5q4 43 -23 63.5t-79 20.5l-49 -3q-5 -28 -23.5 -40.5t-36.5 -12.5q-21 0 -33.5 14t-8.5 38q14 79 162 79q101 0 142.5 -48t31.5 -110l-34 -205q14 -6 50 -6q13 0 20.5 -1.5t15 -10t4.5 -25.5q-2 -16 -13 -25t-21 -10.5t-27 -2.5h-20 q-71 -42 -81 -99q-2 -13 8 -22t23 -9q9 0 22 8q19 17 27 23.5t20 13.5t18.5 5t12.5 -10q7 -11 6.5 -25t-8.5 -22q-56 -61 -113 -61q-47 0 -71 31.5t-17 69.5q10 61 85 112q-10 7 -16 14q-64 -35 -146 -35q-76 0 -115.5 41.5t-30.5 97.5zM157 133q-5 -27 18 -45.5t64 -18.5 q50 0 86 16q17 7 26.5 17t11.5 16.5t4 19.5l12 74q-97 -4 -156.5 -25t-65.5 -54z" />
<glyph unicode="&#x106;" d="M89 306q22 134 109.5 225t186.5 91q67 0 117 -43q12 21 13 22q19 21 38 21q37 0 29 -48l-23 -135q-2 -12 -4 -18.5t-7 -14.5t-14.5 -11.5t-24.5 -3.5q-16 0 -24.5 6t-9.5 12.5t-1 19.5q0 55 -28 86.5t-71 31.5q-64 0 -125 -69.5t-78 -171.5q-17 -103 20.5 -172.5 t103.5 -69.5q39 0 80.5 26t55.5 86q9 35 47 35q10 0 17 -1t14.5 -10.5t4.5 -27.5q-12 -71 -81 -127t-155 -56q-99 0 -155.5 91t-34.5 226zM299 719q3 24 35 36l138 58l23 6q18 0 28 -12t7 -30q-4 -26 -38 -41l-139 -58q-13 -5 -22 -5q-20 0 -27.5 17t-4.5 29z" />
<glyph unicode="&#x107;" d="M106 218q6 36 25 73.5t51 72.5t83.5 57.5t112.5 22.5q19 0 34.5 -1t38.5 -5t37.5 -12t24 -23.5t5.5 -37.5q-4 -24 -21.5 -38t-39.5 -14q-48 0 -41 55l-50 1q-44 0 -78.5 -16.5t-54 -42.5t-30 -49t-14.5 -43q-10 -62 26 -105.5t95 -43.5q67 0 98 54q9 17 18.5 21.5 t25.5 4.5q7 0 14.5 -1t16 -10t5.5 -24q-2 -9 -13 -26.5t-32.5 -39.5t-61.5 -38t-90 -16q-94 0 -147 66t-38 158zM268 535q4 24 35 36l139 58l23 6q18 0 28 -12t7 -30q-4 -27 -39 -41l-139 -58q-12 -5 -22 -5q-14 0 -22 10t-9.5 19.5t-0.5 16.5z" />
<glyph unicode="&#x108;" d="M89 306q22 134 109.5 225t186.5 91q67 0 117 -43q12 21 13 22q19 21 38 21q37 0 29 -48l-23 -135q-2 -12 -4 -18.5t-7 -14.5t-14.5 -11.5t-24.5 -3.5q-16 0 -24.5 6t-9.5 12.5t-1 19.5q0 55 -28 86.5t-71 31.5q-64 0 -125 -69.5t-78 -171.5q-17 -103 20.5 -172.5 t103.5 -69.5q39 0 80.5 26t55.5 86q9 35 47 35q10 0 17 -1t14.5 -10.5t4.5 -27.5q-12 -71 -81 -127t-155 -56q-99 0 -155.5 91t-34.5 226zM256 702q3 23 63 43l83 28q17 6 32 0l73 -28q26 -11 38.5 -20t10.5 -23q-3 -16 -13.5 -27.5t-29.5 -11.5q-8 0 -46 12l-62 20l-70 -20 q-42 -12 -50 -12q-35 0 -29 39z" />
<glyph unicode="&#x109;" d="M106 218q6 36 25 73.5t51 72.5t83.5 57.5t112.5 22.5q19 0 34.5 -1t38.5 -5t37.5 -12t24 -23.5t5.5 -37.5q-4 -24 -21.5 -38t-39.5 -14q-48 0 -41 55l-50 1q-44 0 -78.5 -16.5t-54 -42.5t-30 -49t-14.5 -43q-10 -62 26 -105.5t95 -43.5q67 0 98 54q9 17 18.5 21.5 t25.5 4.5q7 0 14.5 -1t16 -10t5.5 -24q-2 -9 -13 -26.5t-32.5 -39.5t-61.5 -38t-90 -16q-94 0 -147 66t-38 158zM225 520q1 11 9 20.5t15 14t29 17.5l100 58q18 11 32 0l80 -58q18 -13 23.5 -18t10.5 -14t3 -20q-8 -32 -46 -32q-10 0 -39 21l-61 42l-75 -42q-36 -21 -47 -21 q-20 0 -28 8t-6 24z" />
<glyph unicode="&#x10a;" d="M89 306q22 134 109.5 225t186.5 91q67 0 117 -43q12 21 13 22q19 21 38 21q37 0 29 -48l-23 -135q-2 -12 -4 -18.5t-7 -14.5t-14.5 -11.5t-24.5 -3.5q-16 0 -24.5 6t-9.5 12.5t-1 19.5q0 55 -28 86.5t-71 31.5q-64 0 -125 -69.5t-78 -171.5q-17 -103 20.5 -172.5 t103.5 -69.5q39 0 80.5 26t55.5 86q9 35 47 35q10 0 17 -1t14.5 -10.5t4.5 -27.5q-12 -71 -81 -127t-155 -56q-99 0 -155.5 91t-34.5 226zM354 731q4 23 23 39.5t43 16.5t38 -16.5t10 -39.5q-4 -24 -23.5 -40.5t-43.5 -16.5t-37.5 16.5t-9.5 40.5z" />
<glyph unicode="&#x10b;" d="M106 218q6 36 25 73.5t51 72.5t83.5 57.5t112.5 22.5q19 0 34.5 -1t38.5 -5t37.5 -12t24 -23.5t5.5 -37.5q-4 -24 -21.5 -38t-39.5 -14q-48 0 -41 55l-50 1q-44 0 -78.5 -16.5t-54 -42.5t-30 -49t-14.5 -43q-10 -62 26 -105.5t95 -43.5q67 0 98 54q9 17 18.5 21.5 t25.5 4.5q7 0 14.5 -1t16 -10t5.5 -24q-2 -9 -13 -26.5t-32.5 -39.5t-61.5 -38t-90 -16q-94 0 -147 66t-38 158zM327 563q4 23 23 39.5t43 16.5t38 -16.5t10 -39.5q-5 -24 -24 -40.5t-43 -16.5t-37.5 16.5t-9.5 40.5z" />
<glyph unicode="&#x10c;" d="M89 306q22 134 109.5 225t186.5 91q67 0 117 -43q12 21 13 22q19 21 38 21q37 0 29 -48l-23 -135q-2 -12 -4 -18.5t-7 -14.5t-14.5 -11.5t-24.5 -3.5q-16 0 -24.5 6t-9.5 12.5t-1 19.5q0 55 -28 86.5t-71 31.5q-64 0 -125 -69.5t-78 -171.5q-17 -103 20.5 -172.5 t103.5 -69.5q39 0 80.5 26t55.5 86q9 35 47 35q10 0 17 -1t14.5 -10.5t4.5 -27.5q-12 -71 -81 -127t-155 -56q-99 0 -155.5 91t-34.5 226zM262 738q3 16 13 27.5t29 11.5q8 0 46 -12l63 -20l69 20q42 12 50 12q36 0 30 -39q-3 -23 -63 -43l-83 -28q-17 -6 -32 0l-73 28 q-26 11 -38.5 20t-10.5 23z" />
<glyph unicode="&#x10d;" d="M106 218q6 36 25 73.5t51 72.5t83.5 57.5t112.5 22.5q19 0 34.5 -1t38.5 -5t37.5 -12t24 -23.5t5.5 -37.5q-4 -24 -21.5 -38t-39.5 -14q-48 0 -41 55l-50 1q-44 0 -78.5 -16.5t-54 -42.5t-30 -49t-14.5 -43q-10 -62 26 -105.5t95 -43.5q67 0 98 54q9 17 18.5 21.5 t25.5 4.5q7 0 14.5 -1t16 -10t5.5 -24q-2 -9 -13 -26.5t-32.5 -39.5t-61.5 -38t-90 -16q-94 0 -147 66t-38 158zM239 604q6 32 45 32q10 0 39 -21l61 -42l75 42q39 21 47 21q20 0 28.5 -8t6.5 -24q-1 -11 -9.5 -20.5t-15.5 -14t-29 -17.5l-100 -58q-18 -11 -32 0l-80 58 q-18 13 -23.5 18t-10 14t-2.5 20z" />
<glyph unicode="&#x10e;" d="M23 37q6 38 55 38h14l76 461h-14q-13 0 -21 1.5t-15.5 10t-4.5 25.5q6 38 54 38h201q64 0 108 -44t59.5 -114.5t1.5 -151.5q-21 -124 -98 -212.5t-173 -88.5h-201q-13 0 -21 1.5t-16 10t-5 25.5zM172 738q3 16 13 27.5t29 11.5q8 0 46 -12l63 -20l69 20q42 12 50 12 q36 0 30 -39q-3 -23 -63 -43l-83 -28q-17 -6 -32 0l-73 28q-26 11 -38.5 20t-10.5 23zM175 75h86q73 0 126 68t68 158q7 57 1 109.5t-37.5 89t-81.5 36.5h-86z" />
<glyph unicode="&#x10f;" d="M70 217q16 95 89 159.5t157 64.5q59 0 100 -35l21 130h-36q-12 0 -20 1.5t-15.5 10t-4.5 25.5q6 38 54 38h71q29 0 36.5 -10t2.5 -38l-81 -488h36q12 0 20 -1.5t15.5 -10t4.5 -25.5q-6 -38 -54 -38h-71q-28 0 -35 8.5t-5 30.5q-59 -45 -123 -45q-81 0 -129.5 65 t-32.5 158zM152 217q-10 -61 18 -104.5t78 -43.5q48 0 86 42t46 86l11 69q7 39 -18 69.5t-67 30.5q-51 0 -97 -42.5t-57 -106.5zM542 434q4 19 31 28q34 10 52 42h-3q-22 0 -35.5 15.5t-9.5 39.5q4 21 21.5 36.5t42.5 15.5q28 0 44.5 -22t10.5 -58q-10 -57 -55.5 -92.5 t-72.5 -35.5q-12 0 -20 10t-6 21z" />
<glyph unicode="&#x110;" d="M23 37q6 38 55 38h14l32 193h-20q-16 0 -25.5 11t-6.5 27t15.5 27t28.5 11h20l32 192h-14q-13 0 -21 1.5t-15.5 10t-4.5 25.5q6 38 54 38h201q64 0 108 -44t59.5 -114.5t1.5 -151.5q-21 -124 -98 -212.5t-173 -88.5h-201q-13 0 -21 1.5t-16 10t-5 25.5zM175 75h86 q73 0 126 68t68 158q7 57 1 109.5t-37.5 89t-81.5 36.5h-86l-32 -192h50q16 0 25.5 -11t6.5 -27t-15.5 -27t-28.5 -11h-50z" />
<glyph unicode="&#x111;" d="M70 217q16 95 89 159.5t157 64.5q59 0 100 -35l8 47h-136q-17 0 -26.5 8.5t-6.5 23.5q5 32 43 32h136l3 19h-36q-12 0 -20 1.5t-15.5 10t-4.5 25.5q6 38 54 38h71q29 0 36.5 -10t2.5 -38l-8 -46h41q16 0 25.5 -8.5t7.5 -23.5q-6 -32 -43 -32h-41l-63 -378h36 q12 0 20 -1.5t15.5 -10t4.5 -25.5q-6 -38 -54 -38h-71q-28 0 -35 8.5t-5 30.5q-59 -45 -123 -45q-81 0 -129.5 65t-32.5 158zM152 217q-10 -61 18 -104.5t78 -43.5q48 0 86 42t46 86l11 69q7 39 -18 69.5t-67 30.5q-51 0 -97 -42.5t-57 -106.5z" />
<glyph unicode="&#x112;" d="M30 37q6 38 55 38h21l76 461h-21q-13 0 -21 1.5t-15.5 10.5t-4.5 26q6 37 54 37h364q28 0 35.5 -10t2.5 -38l-12 -71q-3 -16 -5.5 -23.5t-13.5 -16t-31 -8.5q-19 0 -27.5 7.5t-7.5 18t2 22.5l7 44h-223l-30 -182h112q7 33 16 44t35 11q19 0 27.5 -7.5t7.5 -17.5t-2 -22 l-15 -91q-3 -15 -5.5 -23.5t-13.5 -16.5t-30 -8q-26 0 -32 12.5t0 43.5h-112l-34 -204h245l9 59q2 12 4 18.5t7 14.5t14.5 11.5t24.5 3.5q19 0 27.5 -7.5t7.5 -18t-2 -22.5l-14 -86q-5 -29 -16 -38.5t-39 -9.5h-385q-13 0 -21 1.5t-16 10t-5 25.5zM191 722q6 38 54 38h290 q14 0 21.5 -1.5t14.5 -10.5t4 -27q-6 -38 -53 -38h-289q-14 0 -22 1.5t-15.5 10.5t-4.5 27z" />
<glyph unicode="&#x113;" d="M89 219q15 93 90 159t165 66q94 0 135.5 -61.5t25.5 -152.5q-3 -21 -12.5 -31t-17.5 -11.5t-24 -1.5h-281q4 -54 42.5 -85.5t90.5 -31.5q70 0 103 54q9 16 18 21t26 5q7 0 14.5 -1t16 -10t5.5 -24q-2 -12 -15 -30t-36.5 -39t-64 -36t-87.5 -15q-97 0 -153.5 66t-40.5 159 zM165 563q6 38 53 38h290q14 0 22 -1.5t15 -10.5t4 -27q-7 -38 -54 -38h-289q-14 0 -22 1.5t-15 10.5t-4 27zM183 260h241q3 59 -24 84t-68 25q-46 0 -87.5 -30.5t-61.5 -78.5z" />
<glyph unicode="&#x114;" d="M30 37q6 38 55 38h21l76 461h-21q-13 0 -21 1.5t-15.5 10.5t-4.5 26q6 37 54 37h364q28 0 35.5 -10t2.5 -38l-12 -71q-3 -16 -5.5 -23.5t-13.5 -16t-31 -8.5q-19 0 -27.5 7.5t-7.5 18t2 22.5l7 44h-223l-30 -182h112q7 33 16 44t35 11q19 0 27.5 -7.5t7.5 -17.5t-2 -22 l-15 -91q-3 -15 -5.5 -23.5t-13.5 -16.5t-30 -8q-26 0 -32 12.5t0 43.5h-112l-34 -204h245l9 59q2 12 4 18.5t7 14.5t14.5 11.5t24.5 3.5q19 0 27.5 -7.5t7.5 -18t-2 -22.5l-14 -86q-5 -29 -16 -38.5t-39 -9.5h-385q-13 0 -21 1.5t-16 10t-5 25.5zM211 761q7 38 44 38 q31 0 31 -34q2 -14 102 -14t106 14q4 10 7.5 15.5t13 12t22.5 6.5q18 0 26.5 -10t5.5 -28q-5 -30 -25.5 -49t-53 -27t-57 -10t-58.5 -2t-57.5 2t-53.5 10t-44 27t-9 49z" />
<glyph unicode="&#x115;" d="M89 219q15 93 90 159t165 66q94 0 135.5 -61.5t25.5 -152.5q-3 -21 -12.5 -31t-17.5 -11.5t-24 -1.5h-281q4 -54 42.5 -85.5t90.5 -31.5q70 0 103 54q9 16 18 21t26 5q7 0 14.5 -1t16 -10t5.5 -24q-2 -12 -15 -30t-36.5 -39t-64 -36t-87.5 -15q-97 0 -153.5 66t-40.5 159 zM182 587q7 38 44 38q31 0 31 -34q2 -14 102 -14t106 14q4 10 7.5 15.5t13 12t22.5 6.5q18 0 26.5 -10t5.5 -28q-5 -30 -25.5 -49t-53 -27t-57 -10t-58.5 -2t-57.5 2t-53.5 10t-44 27t-9 49zM183 260h241q3 59 -24 84t-68 25q-46 0 -87.5 -30.5t-61.5 -78.5z" />
<glyph unicode="&#x116;" d="M30 37q6 38 55 38h21l76 461h-21q-13 0 -21 1.5t-15.5 10.5t-4.5 26q6 37 54 37h364q28 0 35.5 -10t2.5 -38l-12 -71q-3 -16 -5.5 -23.5t-13.5 -16t-31 -8.5q-19 0 -27.5 7.5t-7.5 18t2 22.5l7 44h-223l-30 -182h112q7 33 16 44t35 11q19 0 27.5 -7.5t7.5 -17.5t-2 -22 l-15 -91q-3 -15 -5.5 -23.5t-13.5 -16.5t-30 -8q-26 0 -32 12.5t0 43.5h-112l-34 -204h245l9 59q2 12 4 18.5t7 14.5t14.5 11.5t24.5 3.5q19 0 27.5 -7.5t7.5 -18t-2 -22.5l-14 -86q-5 -29 -16 -38.5t-39 -9.5h-385q-13 0 -21 1.5t-16 10t-5 25.5zM328 731q4 23 23 39.5 t43 16.5t38 -16.5t10 -39.5q-4 -24 -23.5 -40.5t-43.5 -16.5t-37.5 16.5t-9.5 40.5z" />
<glyph unicode="&#x117;" d="M89 219q15 93 90 159t165 66q94 0 135.5 -61.5t25.5 -152.5q-3 -21 -12.5 -31t-17.5 -11.5t-24 -1.5h-281q4 -54 42.5 -85.5t90.5 -31.5q70 0 103 54q9 16 18 21t26 5q7 0 14.5 -1t16 -10t5.5 -24q-2 -12 -15 -30t-36.5 -39t-64 -36t-87.5 -15q-97 0 -153.5 66t-40.5 159 zM183 260h241q3 59 -24 84t-68 25q-46 0 -87.5 -30.5t-61.5 -78.5zM300 563q4 23 23 39.5t43 16.5t38 -16.5t10 -39.5q-5 -24 -24 -40.5t-43 -16.5t-37.5 16.5t-9.5 40.5z" />
<glyph unicode="&#x118;" d="M30 37q6 38 55 38h21l76 461h-21q-13 0 -21 1.5t-15.5 10.5t-4.5 26q6 37 54 37h364q28 0 35.5 -10t2.5 -38l-12 -71q-3 -16 -5.5 -23.5t-13.5 -16t-31 -8.5q-19 0 -27.5 7.5t-7.5 18t2 22.5l7 44h-223l-30 -182h112q7 33 16 44t35 11q19 0 27.5 -7.5t7.5 -17.5t-2 -22 l-15 -91q-3 -15 -5.5 -23.5t-13.5 -16.5t-30 -8q-26 0 -32 12.5t0 43.5h-112l-34 -204h245l9 59q2 12 4 18.5t7 14.5t14.5 11.5t24.5 3.5q19 0 27.5 -7.5t7.5 -18t-2 -22.5l-14 -86q-5 -29 -16 -38.5t-39 -9.5h-46q-37 -20 -53.5 -43.5t-22.5 -55.5q-2 -13 8 -22t22 -9 q11 0 22 8q45 39 58 41q12 2 20 -9q7 -10 7 -24.5t-8 -22.5q-56 -61 -114 -61q-47 0 -70.5 31.5t-16.5 69.5q8 56 63 97h-254q-13 0 -21 1.5t-16 10t-5 25.5z" />
<glyph unicode="&#x119;" d="M89 219q15 93 90 159t165 66q94 0 135.5 -61.5t25.5 -152.5q-3 -21 -12.5 -31t-17.5 -11.5t-24 -1.5h-281q4 -54 42.5 -85.5t90.5 -31.5q70 0 103 54q9 16 18 21t26 5q7 0 14.5 -1t16 -10t5.5 -24q-3 -23 -45.5 -63.5t-106.5 -53.5q-63 -19 -77 -96q-2 -13 8 -22t22 -9 q11 0 22 8q19 17 27 23.5t20 13.5t18.5 5t12.5 -10q7 -11 6.5 -25t-8.5 -22q-54 -61 -113 -61q-47 0 -70.5 31.5t-16.5 69.5q10 60 58 95q-80 14 -124 76.5t-30 144.5zM183 260h241q3 59 -24 84t-68 25q-46 0 -87.5 -30.5t-61.5 -78.5z" />
<glyph unicode="&#x11a;" d="M30 37q6 38 55 38h21l76 461h-21q-13 0 -21 1.5t-15.5 10.5t-4.5 26q6 37 54 37h364q28 0 35.5 -10t2.5 -38l-12 -71q-3 -16 -5.5 -23.5t-13.5 -16t-31 -8.5q-19 0 -27.5 7.5t-7.5 18t2 22.5l7 44h-223l-30 -182h112q7 33 16 44t35 11q19 0 27.5 -7.5t7.5 -17.5t-2 -22 l-15 -91q-3 -15 -5.5 -23.5t-13.5 -16.5t-30 -8q-26 0 -32 12.5t0 43.5h-112l-34 -204h245l9 59q2 12 4 18.5t7 14.5t14.5 11.5t24.5 3.5q19 0 27.5 -7.5t7.5 -18t-2 -22.5l-14 -86q-5 -29 -16 -38.5t-39 -9.5h-385q-13 0 -21 1.5t-16 10t-5 25.5zM235 738q7 39 42 39 q8 0 46 -12l63 -20l69 20q42 12 50 12q19 0 26 -11.5t4 -27.5q-3 -23 -63 -43l-83 -28q-17 -6 -32 0l-73 28q-26 11 -38.5 20t-10.5 23z" />
<glyph unicode="&#x11b;" d="M89 219q15 93 90 159t165 66q94 0 135.5 -61.5t25.5 -152.5q-3 -21 -12.5 -31t-17.5 -11.5t-24 -1.5h-281q4 -54 42.5 -85.5t90.5 -31.5q70 0 103 54q9 16 18 21t26 5q7 0 14.5 -1t16 -10t5.5 -24q-2 -12 -15 -30t-36.5 -39t-64 -36t-87.5 -15q-97 0 -153.5 66t-40.5 159 zM183 260h241q3 59 -24 84t-68 25q-46 0 -87.5 -30.5t-61.5 -78.5zM212 604q6 32 45 32q10 0 39 -21l61 -42l75 42q39 21 47 21q20 0 28.5 -8t6.5 -24q-1 -11 -9.5 -20.5t-15.5 -14t-29 -17.5l-100 -58q-18 -11 -32 0l-80 58q-18 13 -23.5 18t-10 14t-2.5 20z" />
<glyph unicode="&#x11c;" d="M87 306q22 134 104 225t174 91q62 0 104 -39q15 23 25 31t25 8q37 0 29 -48l-23 -135q-2 -12 -4 -18.5t-7 -14.5t-14.5 -11.5t-24.5 -3.5q-21 0 -28 8.5t-7 26.5q1 66 -25.5 93.5t-58.5 27.5q-57 0 -113 -69t-73 -173q-17 -101 15 -171t90 -70q38 0 71.5 35t53.5 105h-32 q-13 0 -21 1.5t-15.5 10.5t-4.5 26q6 37 54 37h116q12 0 20.5 -1.5t16 -10.5t4.5 -25q-6 -38 -52 -38l-26 -156q-3 -15 -5.5 -23.5t-13.5 -16.5t-30 -8q-38 0 -36 31q-52 -42 -116 -42q-91 0 -143 91t-29 226zM229 702q3 23 63 43l83 28q17 6 32 0l73 -28q26 -11 38.5 -20 t10.5 -23q-7 -39 -43 -39q-8 0 -46 12l-62 20l-70 -20q-42 -12 -50 -12q-19 0 -25.5 11.5t-3.5 27.5z" />
<glyph unicode="&#x11d;" d="M15 -72q14 78 90 123q-14 29 -8 68q7 39 29 66q-23 38 -15 93q11 66 68.5 114.5t128.5 48.5q50 0 89 -27q53 32 109 32q40 0 56.5 -19t12.5 -41q-3 -23 -20 -35.5t-35 -12.5q-11 0 -23 8t-15 25q-25 -5 -42 -12q16 -39 9 -81q-11 -68 -68.5 -116.5t-127.5 -48.5 q-46 0 -80 21q-5 -12 -5 -16q-2 -19 5 -30q4 -6 11.5 -9.5t11.5 -4t16 0t13 0.5h69q90 0 140 -29q32 -19 44 -52t7 -66q-10 -64 -86 -107.5t-174 -43.5q-99 0 -160 43t-50 108zM87 -72q-5 -31 38.5 -54t111.5 -23t119.5 23t56.5 54q3 18 -2 32t-20 22t-29.5 12.5t-40.5 6.5 t-41 2.5t-43 0.5q-54 0 -69.5 -2t-33.5 -12q-40 -22 -47 -62zM162 522q1 11 9 20.5t15 14t29 17.5l100 58q18 11 32 0l80 -58q18 -13 23.5 -18t10.5 -14t3 -20q-8 -32 -46 -32q-10 0 -39 21l-61 42l-75 -42q-36 -21 -47 -21q-20 0 -28 8t-6 24zM193 277q-6 -36 14.5 -63 t56.5 -27t65.5 26.5t35.5 64.5q6 36 -14.5 62.5t-56.5 26.5q-35 0 -64.5 -26t-36.5 -64z" />
<glyph unicode="&#x11e;" d="M87 306q22 134 104 225t174 91q62 0 104 -39q15 23 25 31t25 8q37 0 29 -48l-23 -135q-2 -12 -4 -18.5t-7 -14.5t-14.5 -11.5t-24.5 -3.5q-21 0 -28 8.5t-7 26.5q1 66 -25.5 93.5t-58.5 27.5q-57 0 -113 -69t-73 -173q-17 -101 15 -171t90 -70q38 0 71.5 35t53.5 105h-32 q-13 0 -21 1.5t-15.5 10.5t-4.5 26q6 37 54 37h116q12 0 20.5 -1.5t16 -10.5t4.5 -25q-6 -38 -52 -38l-26 -156q-3 -15 -5.5 -23.5t-13.5 -16.5t-30 -8q-38 0 -36 31q-52 -42 -116 -42q-91 0 -143 91t-29 226zM211 761q7 38 44 38q31 0 31 -34q2 -14 102 -14t106 14 q4 10 7.5 15.5t13 12t22.5 6.5q18 0 26.5 -10t5.5 -28q-5 -30 -25.5 -49t-53 -27t-57 -10t-58.5 -2t-57.5 2t-53.5 10t-44 27t-9 49z" />
<glyph unicode="&#x11f;" d="M15 -72q14 78 90 123q-14 29 -8 68q7 39 29 66q-23 38 -15 93q11 66 68.5 114.5t128.5 48.5q50 0 89 -27q53 32 109 32q40 0 56.5 -19t12.5 -41q-3 -23 -20 -35.5t-35 -12.5q-11 0 -23 8t-15 25q-25 -5 -42 -12q16 -39 9 -81q-11 -68 -68.5 -116.5t-127.5 -48.5 q-46 0 -80 21q-5 -12 -5 -16q-2 -19 5 -30q4 -6 11.5 -9.5t11.5 -4t16 0t13 0.5h69q90 0 140 -29q32 -19 44 -52t7 -66q-10 -64 -86 -107.5t-174 -43.5q-99 0 -160 43t-50 108zM87 -72q-5 -31 38.5 -54t111.5 -23t119.5 23t56.5 54q3 18 -2 32t-20 22t-29.5 12.5t-40.5 6.5 t-41 2.5t-43 0.5q-54 0 -69.5 -2t-33.5 -12q-40 -22 -47 -62zM146 589q7 38 44 38q31 0 31 -34q2 -14 102 -14t106 14q4 10 7.5 15.5t13 12t22.5 6.5q18 0 26.5 -10t5.5 -28q-5 -30 -25.5 -49t-53 -27t-57 -10t-58.5 -2t-57.5 2t-53.5 10t-44 27t-9 49zM193 277 q-6 -36 14.5 -63t56.5 -27t65.5 26.5t35.5 64.5q6 36 -14.5 62.5t-56.5 26.5q-35 0 -64.5 -26t-36.5 -64z" />
<glyph unicode="&#x120;" d="M87 306q22 134 104 225t174 91q62 0 104 -39q15 23 25 31t25 8q37 0 29 -48l-23 -135q-2 -12 -4 -18.5t-7 -14.5t-14.5 -11.5t-24.5 -3.5q-21 0 -28 8.5t-7 26.5q1 66 -25.5 93.5t-58.5 27.5q-57 0 -113 -69t-73 -173q-17 -101 15 -171t90 -70q38 0 71.5 35t53.5 105h-32 q-13 0 -21 1.5t-15.5 10.5t-4.5 26q6 37 54 37h116q12 0 20.5 -1.5t16 -10.5t4.5 -25q-6 -38 -52 -38l-26 -156q-3 -15 -5.5 -23.5t-13.5 -16.5t-30 -8q-38 0 -36 31q-52 -42 -116 -42q-91 0 -143 91t-29 226zM328 731q4 23 23 39.5t43 16.5t38 -16.5t10 -39.5 q-4 -24 -23.5 -40.5t-43.5 -16.5t-37.5 16.5t-9.5 40.5z" />
<glyph unicode="&#x121;" d="M15 -72q14 78 90 123q-14 29 -8 68q7 39 29 66q-23 38 -15 93q11 66 68.5 114.5t128.5 48.5q50 0 89 -27q53 32 109 32q40 0 56.5 -19t12.5 -41q-3 -23 -20 -35.5t-35 -12.5q-11 0 -23 8t-15 25q-25 -5 -42 -12q16 -39 9 -81q-11 -68 -68.5 -116.5t-127.5 -48.5 q-46 0 -80 21q-5 -12 -5 -16q-2 -19 5 -30q4 -6 11.5 -9.5t11.5 -4t16 0t13 0.5h69q90 0 140 -29q32 -19 44 -52t7 -66q-10 -64 -86 -107.5t-174 -43.5q-99 0 -160 43t-50 108zM87 -72q-5 -31 38.5 -54t111.5 -23t119.5 23t56.5 54q3 18 -2 32t-20 22t-29.5 12.5t-40.5 6.5 t-41 2.5t-43 0.5q-54 0 -69.5 -2t-33.5 -12q-40 -22 -47 -62zM193 277q-6 -36 14.5 -63t56.5 -27t65.5 26.5t35.5 64.5q6 36 -14.5 62.5t-56.5 26.5q-35 0 -64.5 -26t-36.5 -64zM264 565q4 23 23 39.5t43 16.5t38 -16.5t10 -39.5q-5 -24 -24 -40.5t-43 -16.5t-37.5 16.5 t-9.5 40.5z" />
<glyph unicode="&#x122;" d="M87 306q22 134 104 225t174 91q62 0 104 -39q15 23 25 31t25 8q37 0 29 -48l-23 -135q-2 -12 -4 -18.5t-7 -14.5t-14.5 -11.5t-24.5 -3.5q-21 0 -28 8.5t-7 26.5q1 66 -25.5 93.5t-58.5 27.5q-57 0 -113 -69t-73 -173q-17 -101 15 -171t90 -70q38 0 71.5 35t53.5 105h-32 q-13 0 -21 1.5t-15.5 10.5t-4.5 26q6 37 54 37h116q12 0 20.5 -1.5t16 -10.5t4.5 -25q-6 -38 -52 -38l-26 -156q-3 -15 -5.5 -23.5t-13.5 -16.5t-30 -8q-38 0 -36 31q-52 -42 -116 -42q-91 0 -143 91t-29 226zM162 -194q3 19 30 28q34 8 52 42h-3q-22 0 -35.5 15.5 t-9.5 39.5q4 21 21.5 36.5t42.5 15.5q28 0 44.5 -22t10.5 -58q-10 -57 -55.5 -92.5t-72.5 -35.5q-12 0 -19.5 10t-5.5 21z" />
<glyph unicode="&#x123;" d="M15 -72q14 78 90 123q-14 29 -8 68q7 39 29 66q-23 38 -15 93q11 66 68.5 114.5t128.5 48.5q50 0 89 -27q53 32 109 32q40 0 56.5 -19t12.5 -41q-3 -23 -20 -35.5t-35 -12.5q-11 0 -23 8t-15 25q-25 -5 -42 -12q16 -39 9 -81q-11 -68 -68.5 -116.5t-127.5 -48.5 q-46 0 -80 21q-5 -12 -5 -16q-2 -19 5 -30q4 -6 11.5 -9.5t11.5 -4t16 0t13 0.5h69q90 0 140 -29q32 -19 44 -52t7 -66q-10 -64 -86 -107.5t-174 -43.5q-99 0 -160 43t-50 108zM87 -72q-5 -31 38.5 -54t111.5 -23t119.5 23t56.5 54q3 18 -2 32t-20 22t-29.5 12.5t-40.5 6.5 t-41 2.5t-43 0.5q-54 0 -69.5 -2t-33.5 -12q-40 -22 -47 -62zM193 277q-6 -36 14.5 -63t56.5 -27t65.5 26.5t35.5 64.5q6 36 -14.5 62.5t-56.5 26.5q-35 0 -64.5 -26t-36.5 -64zM248 542q10 57 55.5 92.5t72.5 35.5q12 0 20 -10t6 -21q-4 -19 -31 -28q-34 -10 -52 -42h3 q22 0 35.5 -15.5t9.5 -39.5q-4 -21 -21.5 -36.5t-42.5 -15.5q-28 0 -44.5 22t-10.5 58z" />
<glyph unicode="&#x124;" d="M26 37q6 38 54 38h17l76 461h-17q-13 0 -20.5 1.5t-15 10t-4.5 25.5q6 38 53 38h116q13 0 21 -1.5t15.5 -10.5t4.5 -26q-6 -37 -54 -37h-16l-30 -181h190l30 181h-16q-13 0 -21 1.5t-15 10.5t-4 26q6 37 53 37h116q13 0 21 -1.5t15.5 -10.5t4.5 -26q-6 -37 -54 -37h-17 l-76 -461h17q13 0 21 -1.5t15 -10.5t4 -26q-6 -37 -53 -37h-116q-13 0 -21 1.5t-15.5 10.5t-4.5 26q6 37 54 37h16l34 205h-190l-34 -205h16q13 0 21 -1.5t15 -10.5t4 -26q-6 -37 -53 -37h-116q-13 0 -21 1.5t-15.5 10t-4.5 25.5zM229 702q3 23 63 43l83 28q17 6 32 0 l73 -28q26 -11 38.5 -20t10.5 -23q-7 -39 -43 -39q-8 0 -46 12l-62 20l-70 -20q-42 -12 -50 -12q-19 0 -25.5 11.5t-3.5 27.5z" />
<glyph unicode="&#x125;" d="M17 37q6 38 54 38h35l76 461h-36q-12 0 -19.5 1.5t-15 10.5t-4.5 25q6 38 53 38h71q29 0 36.5 -10t2.5 -38l-27 -164q60 42 127 42q134 0 110 -148l-36 -218h35q13 0 21 -1.5t15 -10.5t4 -26q-6 -37 -52 -37h-149q-12 0 -20.5 1.5t-16.5 10.5t-5 25q6 38 55 38h30l35 213 q7 42 -2 60t-43 18q-42 0 -83.5 -32t-51.5 -94l-27 -165h35q13 0 21 -1.5t15.5 -10.5t4.5 -26q-6 -37 -53 -37h-155q-8 0 -14 1t-14 4t-11 11t-1 21zM229 702q3 23 63 43l83 28q17 6 32 0l73 -28q26 -11 38.5 -20t10.5 -23q-7 -39 -43 -39q-8 0 -46 12l-62 20l-70 -20 q-42 -12 -50 -12q-19 0 -25.5 11.5t-3.5 27.5z" />
<glyph unicode="&#x126;" d="M26 37q6 38 54 38h17l56 341h-22q-16 0 -25 11t-6 27q2 16 15 27t29 11h22l7 44h-17q-13 0 -20.5 1.5t-15 10t-4.5 25.5q6 38 53 38h116q13 0 21 -1.5t15.5 -10.5t4.5 -26q-6 -37 -54 -37h-16l-7 -44h190l7 44h-16q-13 0 -21 1.5t-15 10.5t-4 26q6 37 53 37h116 q13 0 21 -1.5t15.5 -10.5t4.5 -26q-6 -37 -54 -37h-17l-7 -44h22q16 0 25 -11t7 -27q-3 -16 -16 -27t-29 -11h-22l-56 -341h17q13 0 21 -1.5t15 -10.5t4 -26q-6 -37 -53 -37h-116q-13 0 -21 1.5t-15.5 10.5t-4.5 26q6 37 54 37h16l34 205h-190l-34 -205h16q13 0 21 -1.5 t15 -10.5t4 -26q-6 -37 -53 -37h-116q-13 0 -21 1.5t-15.5 10t-4.5 25.5zM226 355h190l10 61h-190z" />
<glyph unicode="&#x127;" d="M17 37q6 38 54 38h35l63 378h-41q-16 0 -26 8.5t-7 23.5q2 15 14.5 23.5t28.5 8.5h41l3 19h-36q-12 0 -19.5 1.5t-15 10.5t-4.5 25q6 38 53 38h71q29 0 36.5 -10t2.5 -38l-8 -46h87q16 0 25.5 -8.5t7.5 -23.5q-6 -32 -43 -32h-87l-9 -54q60 42 127 42q134 0 110 -148 l-36 -218h35q13 0 21 -1.5t15 -10.5t4 -26q-6 -37 -52 -37h-149q-12 0 -20.5 1.5t-16.5 10.5t-5 25q6 38 55 38h30l35 213q7 42 -2 60t-43 18q-42 0 -83.5 -32t-51.5 -94l-27 -165h35q13 0 21 -1.5t15.5 -10.5t4.5 -26q-6 -37 -53 -37h-155q-8 0 -14 1t-14 4t-11 11t-1 21z " />
<glyph unicode="&#x128;" d="M82 38q6 37 55 37h97l76 461h-97q-13 0 -21 1.5t-15.5 10.5t-4.5 26q6 37 54 37h277q13 0 21 -1.5t16 -10.5t5 -26q-6 -37 -55 -37h-97l-76 -461h97q13 0 21 -1.5t15.5 -10.5t4.5 -26q-6 -37 -54 -37h-277q-13 0 -21 1.5t-16 10.5t-5 26zM202 702q3 23 61 60q49 34 86 34 q33 0 65 -35q17 -19 22 -19q17 0 69 41q16 13 31 13t24 -12t7 -27q-4 -23 -61 -60q-52 -34 -86 -34t-65 36q-16 18 -22 18q-19 0 -69 -41q-19 -13 -31 -13q-15 0 -24 12t-7 27z" />
<glyph unicode="&#x129;" d="M81 37q6 38 55 38h110l47 286h-102q-9 0 -15 1t-14 4t-11 11.5t-1 21.5q5 37 54 37h138q29 0 36.5 -10t2.5 -38l-52 -313h94q13 0 21 -1.5t15.5 -10.5t4.5 -26q-6 -37 -54 -37h-287q-13 0 -21 1.5t-16 10t-5 25.5zM172 522q3 23 61 60q49 34 86 34q33 0 65 -35 q17 -19 22 -19q16 0 70 41q17 13 30 13q15 0 24 -12t7 -27q-4 -23 -61 -60q-52 -34 -85 -34q-37 0 -65 36q-18 18 -22 18q-20 0 -70 -41q-17 -13 -30 -13q-15 0 -24.5 12.5t-7.5 26.5z" />
<glyph unicode="&#x12a;" d="M82 38q6 37 55 37h97l76 461h-97q-13 0 -21 1.5t-15.5 10.5t-4.5 26q6 37 54 37h277q13 0 21 -1.5t16 -10.5t5 -26q-6 -37 -55 -37h-97l-76 -461h97q13 0 21 -1.5t15.5 -10.5t4.5 -26q-6 -37 -54 -37h-277q-13 0 -21 1.5t-16 10.5t-5 26zM191 722q6 38 54 38h290 q14 0 21.5 -1.5t14.5 -10.5t4 -27q-6 -38 -53 -38h-289q-14 0 -22 1.5t-15.5 10.5t-4.5 27z" />
<glyph unicode="&#x12b;" d="M81 37q6 38 55 38h110l47 286h-102q-9 0 -15 1t-14 4t-11 11.5t-1 21.5q5 37 54 37h138q29 0 36.5 -10t2.5 -38l-52 -313h94q13 0 21 -1.5t15.5 -10.5t4.5 -26q-6 -37 -54 -37h-287q-13 0 -21 1.5t-16 10t-5 25.5zM163 550q6 38 53 38h290q14 0 22 -1.5t15 -10.5t4 -27 q-7 -38 -54 -38h-289q-14 0 -22 1.5t-15 10.5t-4 27z" />
<glyph unicode="&#x12c;" d="M82 38q6 37 55 37h97l76 461h-97q-13 0 -21 1.5t-15.5 10.5t-4.5 26q6 37 54 37h277q13 0 21 -1.5t16 -10.5t5 -26q-6 -37 -55 -37h-97l-76 -461h97q13 0 21 -1.5t15.5 -10.5t4.5 -26q-6 -37 -54 -37h-277q-13 0 -21 1.5t-16 10.5t-5 26zM211 761q7 38 44 38q31 0 31 -34 q2 -14 102 -14t106 14q4 10 7.5 15.5t13 12t22.5 6.5q18 0 26.5 -10t5.5 -28q-5 -30 -25.5 -49t-53 -27t-57 -10t-58.5 -2t-57.5 2t-53.5 10t-44 27t-9 49z" />
<glyph unicode="&#x12d;" d="M81 37q6 38 55 38h110l47 286h-102q-9 0 -15 1t-14 4t-11 11.5t-1 21.5q5 37 54 37h138q29 0 36.5 -10t2.5 -38l-52 -313h94q13 0 21 -1.5t15.5 -10.5t4.5 -26q-6 -37 -54 -37h-287q-13 0 -21 1.5t-16 10t-5 25.5zM180 574q7 38 44 38q31 0 31 -34q2 -14 102 -14t106 14 q4 10 7.5 15.5t13 12t22.5 6.5q18 0 26.5 -10t5.5 -28q-5 -30 -25.5 -49t-53 -27t-57 -10t-58.5 -2t-57.5 2t-53.5 10t-44 27t-9 49z" />
<glyph unicode="&#x12e;" d="M82 38q6 37 55 37h97l76 461h-97q-13 0 -21 1.5t-15.5 10.5t-4.5 26q6 37 54 37h277q13 0 21 -1.5t16 -10.5t5 -26q-6 -37 -55 -37h-97l-76 -461h97q13 0 21 -1.5t15.5 -10.5t4.5 -26q-6 -37 -54 -37h-113q-52 -28 -64 -99q-2 -13 8 -22t22 -9q11 0 22 8q19 17 27 23.5 t20 13.5t18.5 5t12.5 -10q7 -11 6.5 -25t-8.5 -22q-54 -61 -113 -61q-47 0 -71 31.5t-17 69.5q8 50 66 97h-93q-13 0 -21 1.5t-16 10.5t-5 26z" />
<glyph unicode="&#x12f;" d="M81 37q6 38 55 38h110l47 286h-102q-9 0 -15 1t-14 4t-11 11.5t-1 21.5q5 37 54 37h138q29 0 36.5 -10t2.5 -38l-52 -313h94q13 0 21 -1.5t15.5 -10.5t4.5 -26q-6 -37 -54 -37h-133q-53 -28 -65 -99q-2 -13 8 -22t22 -9q10 0 23 8q45 39 58 41q11 2 19 -9 q8 -10 7.5 -24.5t-8.5 -22.5q-56 -61 -114 -61q-47 0 -70.5 31.5t-16.5 69.5q8 50 64 97h-81q-13 0 -21 1.5t-16 10t-5 25.5zM295 555q4 24 23 40.5t43 16.5t38 -16.5t10 -40.5q-5 -23 -24 -39.5t-43 -16.5t-37.5 16.5t-9.5 39.5z" />
<glyph unicode="&#x130;" d="M82 38q6 37 55 37h97l76 461h-97q-13 0 -21 1.5t-15.5 10.5t-4.5 26q6 37 54 37h277q13 0 21 -1.5t16 -10.5t5 -26q-6 -37 -55 -37h-97l-76 -461h97q13 0 21 -1.5t15.5 -10.5t4.5 -26q-6 -37 -54 -37h-277q-13 0 -21 1.5t-16 10.5t-5 26zM328 731q4 23 23 39.5t43 16.5 t38 -16.5t10 -39.5q-4 -24 -23.5 -40.5t-43.5 -16.5t-37.5 16.5t-9.5 40.5z" />
<glyph unicode="&#x131;" d="M81 37q6 38 55 38h110l47 286h-102q-9 0 -15 1t-14 4t-11 11.5t-1 21.5q5 37 54 37h138q29 0 36.5 -10t2.5 -38l-52 -313h94q13 0 21 -1.5t15.5 -10.5t4.5 -26q-6 -37 -54 -37h-287q-13 0 -21 1.5t-16 10t-5 25.5z" />
<glyph unicode="&#x134;" d="M85 104q5 26 22.5 40t38.5 14q22 0 34.5 -15t8.5 -36q-3 -16 -9 -24q23 -19 69 -19q11 0 22.5 2t30 9t32.5 25t19 44l65 392h-73q-12 0 -20 1.5t-15.5 10.5t-4.5 26q6 37 53 37h177q13 0 21 -1.5t16 -10t5 -25.5q-6 -38 -55 -38h-22l-66 -398q-11 -67 -69 -108t-129 -41 q-76 0 -117.5 32.5t-33.5 82.5zM314 702q3 23 63 43l83 28q17 6 32 0l73 -28q26 -11 38.5 -20t10.5 -23q-3 -16 -13.5 -27.5t-29.5 -11.5q-8 0 -46 12l-62 20l-70 -20q-42 -12 -50 -12q-35 0 -29 39z" />
<glyph unicode="&#x135;" d="M21 -140q4 24 21.5 38t38.5 14t34 -15.5t8 -40.5q18 -3 44 -3q49 0 83 38q24 28 34 79l65 391h-119q-13 0 -21 1.5t-15.5 10t-4.5 25.5q6 38 55 38h154q29 0 36.5 -10t2.5 -38l-71 -423q-5 -28 -18.5 -57.5t-37.5 -60t-65.5 -50t-93.5 -19.5q-18 0 -32 1t-36 5.5 t-35.5 12.5t-22 24.5t-4.5 38.5zM252 507q1 11 9 20.5t15 14t29 17.5l100 58q18 11 32 0l80 -58q18 -13 23.5 -18t10.5 -14t3 -20q-8 -32 -46 -32q-10 0 -39 21l-61 42l-75 -42q-36 -21 -47 -21q-20 0 -28 8t-6 24z" />
<glyph unicode="&#x136;" d="M30 38q6 37 55 37h14l76 461h-14q-13 0 -21 1.5t-15.5 10.5t-4.5 26q6 37 54 37h97q13 0 21.5 -1.5t16 -10.5t4.5 -26q-6 -37 -55 -37h-13l-38 -229l221 230q-32 4 -26 36q6 38 54 38h85q12 0 20.5 -1.5t16.5 -10.5t5 -25q-4 -24 -19 -31t-47 -7l-173 -180l112 -281 q27 0 39 -7.5t8 -30.5q-6 -37 -54 -37h-73q-13 0 -21.5 1.5t-16 10.5t-4.5 26q6 34 40 36l-87 223l-99 -103l-19 -119h13q13 0 21 -1.5t15.5 -10.5t4.5 -26q-6 -37 -54 -37h-97q-13 0 -21.5 1.5t-16 10.5t-4.5 26zM162 -194q3 19 30 28q34 8 52 42h-3q-22 0 -35.5 15.5 t-9.5 39.5q4 21 21.5 36.5t42.5 15.5q28 0 44.5 -22t10.5 -58q-10 -57 -55.5 -92.5t-72.5 -35.5q-12 0 -19.5 10t-5.5 21z" />
<glyph unicode="&#x137;" d="M25 38q6 37 54 37h40l76 461h-40q-13 0 -21 1.5t-15 10.5t-4 26q6 37 53 37h64q28 0 35.5 -10t2.5 -38l-54 -325l151 123h-17q-13 0 -20.5 1.5t-15 10t-4.5 25.5q7 38 53 38h150q12 0 20.5 -1.5t16 -10.5t4.5 -26q-6 -37 -54 -37h-31l-129 -106l108 -180h27q13 0 21 -1.5 t15.5 -10.5t4.5 -26q-6 -37 -54 -37h-115q-13 0 -21 1.5t-15.5 10t-4.5 25.5q4 22 16 29.5t38 8.5l-80 132l-80 -64l-11 -68h40q13 0 21 -1.5t15 -10.5t4 -26q-6 -37 -53 -37h-150q-13 0 -21 1.5t-15.5 10.5t-4.5 26zM162 -194q3 19 30 28q34 8 52 42h-3q-22 0 -35.5 15.5 t-9.5 39.5q4 21 21.5 36.5t42.5 15.5q28 0 44.5 -22t10.5 -58q-10 -57 -55.5 -92.5t-72.5 -35.5q-12 0 -19.5 10t-5.5 21z" />
<glyph unicode="&#x139;" d="M36 37q6 38 54 38h28l76 461h-28q-13 0 -20.5 1.5t-15 10t-4.5 25.5q6 38 53 38h158q12 0 20 -1.5t16 -10.5t5 -26q-6 -37 -54 -37h-47l-76 -461h219l9 59q3 13 4.5 18.5t6.5 14t14.5 12t24.5 3.5q19 0 27.5 -7t7.5 -18t-2 -23l-14 -86q-5 -29 -15.5 -38.5t-39.5 -9.5 h-366q-13 0 -21 1.5t-15.5 10t-4.5 25.5zM153 719q3 24 35 36l138 58l23 6q18 0 28 -12t7 -30q-4 -26 -38 -41l-139 -58q-13 -5 -22 -5q-20 0 -27.5 17t-4.5 29z" />
<glyph unicode="&#x13a;" d="M61 37q6 38 55 38h118l76 461h-119q-12 0 -20 1.5t-15.5 10t-4.5 25.5q6 38 54 38h154q29 0 36.5 -10t2.5 -38l-81 -488h119q13 0 21 -1.5t15 -10.5t4 -26q-6 -37 -53 -37h-321q-12 0 -20 1.5t-16 10t-5 25.5zM272 719q3 24 35 36l138 58l23 6q18 0 28 -12t7 -30 q-4 -26 -38 -41l-139 -58q-13 -5 -22 -5q-20 0 -27.5 17t-4.5 29z" />
<glyph unicode="&#x13b;" d="M36 37q6 38 54 38h28l76 461h-28q-13 0 -20.5 1.5t-15 10t-4.5 25.5q6 38 53 38h158q12 0 20 -1.5t16 -10.5t5 -26q-6 -37 -54 -37h-47l-76 -461h219l9 59q3 13 4.5 18.5t6.5 14t14.5 12t24.5 3.5q19 0 27.5 -7t7.5 -18t-2 -23l-14 -86q-5 -29 -15.5 -38.5t-39.5 -9.5 h-366q-13 0 -21 1.5t-15.5 10t-4.5 25.5zM162 -194q3 19 30 28q34 8 52 42h-3q-22 0 -35.5 15.5t-9.5 39.5q4 21 21.5 36.5t42.5 15.5q28 0 44.5 -22t10.5 -58q-10 -57 -55.5 -92.5t-72.5 -35.5q-12 0 -19.5 10t-5.5 21z" />
<glyph unicode="&#x13c;" d="M61 37q6 38 55 38h118l76 461h-119q-12 0 -20 1.5t-15.5 10t-4.5 25.5q6 38 54 38h154q29 0 36.5 -10t2.5 -38l-81 -488h119q13 0 21 -1.5t15 -10.5t4 -26q-6 -37 -53 -37h-321q-12 0 -20 1.5t-16 10t-5 25.5zM162 -194q3 19 30 28q34 8 52 42h-3q-22 0 -35.5 15.5 t-9.5 39.5q4 21 21.5 36.5t42.5 15.5q28 0 44.5 -22t10.5 -58q-10 -57 -55.5 -92.5t-72.5 -35.5q-12 0 -19.5 10t-5.5 21z" />
<glyph unicode="&#x13d;" d="M36 37q6 38 54 38h28l76 461h-28q-13 0 -20.5 1.5t-15 10t-4.5 25.5q6 38 53 38h158q12 0 20 -1.5t16 -10.5t5 -26q-6 -37 -54 -37h-47l-76 -461h219l9 59q3 13 4.5 18.5t6.5 14t14.5 12t24.5 3.5q19 0 27.5 -7t7.5 -18t-2 -23l-14 -86q-5 -29 -15.5 -38.5t-39.5 -9.5 h-366q-13 0 -21 1.5t-15.5 10t-4.5 25.5zM412 434q4 19 31 28q34 10 52 42h-3q-22 0 -35.5 15.5t-9.5 39.5q4 21 21.5 36.5t42.5 15.5q28 0 44.5 -22t10.5 -58q-10 -57 -55.5 -92.5t-72.5 -35.5q-12 0 -20 10t-6 21z" />
<glyph unicode="&#x13e;" d="M61 37q6 38 55 38h118l76 461h-119q-12 0 -20 1.5t-15.5 10t-4.5 25.5q6 38 54 38h154q29 0 36.5 -10t2.5 -38l-81 -488h119q13 0 21 -1.5t15 -10.5t4 -26q-6 -37 -53 -37h-321q-12 0 -20 1.5t-16 10t-5 25.5zM415 434q4 19 31 28q34 10 52 42h-3q-22 0 -35.5 15.5 t-9.5 39.5q4 21 21.5 36.5t42.5 15.5q28 0 44.5 -22t10.5 -58q-10 -57 -55.5 -92.5t-72.5 -35.5q-12 0 -20 10t-6 21z" />
<glyph unicode="&#x13f;" d="M36 37q6 38 54 38h28l76 461h-28q-13 0 -20.5 1.5t-15 10t-4.5 25.5q6 38 53 38h158q12 0 20 -1.5t16 -10.5t5 -26q-6 -37 -54 -37h-47l-76 -461h219l9 59q3 13 4.5 18.5t6.5 14t14.5 12t24.5 3.5q19 0 27.5 -7t7.5 -18t-2 -23l-14 -86q-5 -29 -15.5 -38.5t-39.5 -9.5 h-366q-13 0 -21 1.5t-15.5 10t-4.5 25.5zM405 317q4 23 23 39.5t43 16.5t38 -16.5t10 -39.5q-4 -24 -23.5 -40.5t-43.5 -16.5t-37.5 16.5t-9.5 40.5z" />
<glyph unicode="&#x140;" d="M61 37q6 38 55 38h118l76 461h-119q-12 0 -20 1.5t-15.5 10t-4.5 25.5q6 38 54 38h154q29 0 36.5 -10t2.5 -38l-81 -488h119q13 0 21 -1.5t15 -10.5t4 -26q-6 -37 -53 -37h-321q-12 0 -20 1.5t-16 10t-5 25.5zM521 317q4 23 23 39.5t43 16.5t38 -16.5t10 -39.5 q-4 -24 -23.5 -40.5t-43.5 -16.5t-37.5 16.5t-9.5 40.5z" />
<glyph unicode="&#x141;" d="M36 37q6 38 54 38h28l28 173l-24 -15q-14 -9 -28.5 -6t-21.5 15q-6 12 -0.5 27.5t19.5 23.5l70 43l33 200h-28q-13 0 -20.5 1.5t-15 10t-4.5 25.5q6 38 53 38h158q12 0 20 -1.5t16 -10.5t5 -26q-6 -37 -54 -37h-47l-23 -143l169 104q14 8 28 5t20 -15q7 -12 1.5 -28 t-18.5 -24l-215 -130l-38 -230h219l9 59q3 13 4.5 18.5t6.5 14t14.5 12t24.5 3.5q19 0 27.5 -7t7.5 -18t-2 -23l-14 -86q-5 -29 -15.5 -38.5t-39.5 -9.5h-366q-13 0 -21 1.5t-15.5 10t-4.5 25.5z" />
<glyph unicode="&#x142;" d="M61 37q6 38 55 38h118l36 217l-97 -59q-16 -9 -29.5 -6t-20.5 15q-6 12 -0.5 27.5t19.5 23.5l142 87l26 156h-119q-12 0 -20 1.5t-15.5 10t-4.5 25.5q6 38 54 38h154q29 0 36.5 -10t2.5 -38l-21 -125l97 59q14 8 28 5t20 -15q7 -12 1.5 -28t-18.5 -24l-143 -86l-45 -274 h119q13 0 21 -1.5t15 -10.5t4 -26q-6 -37 -53 -37h-321q-12 0 -20 1.5t-16 10t-5 25.5z" />
<glyph unicode="&#x143;" d="M32 38q6 37 54 37h17l76 461h-17q-13 0 -21 1.5t-15 10.5t-4 26q6 37 53 37h66q25 0 36.5 -7.5t16.5 -32.5l91 -447l68 412h-16q-13 0 -20.5 1.5t-15 10t-4.5 25.5q6 38 53 38h103q13 0 21 -1.5t15.5 -10.5t4.5 -26q-6 -37 -54 -37h-17l-81 -488q-5 -31 -16.5 -39.5 t-39.5 -8.5q-18 0 -26.5 1.5t-16.5 10.5t-11 28l-91 447l-68 -412h16q13 0 21 -1.5t15 -10.5t4 -26q-6 -37 -53 -37h-103q-13 0 -21 1.5t-15.5 10.5t-4.5 26zM272 719q3 24 35 36l138 58l23 6q18 0 28 -12t7 -30q-4 -26 -38 -41l-139 -58q-13 -5 -22 -5q-20 0 -27.5 17 t-4.5 29z" />
<glyph unicode="&#x144;" d="M17 37q6 38 54 38h35l47 286h-36q-8 0 -14 1t-14 4t-11 11t-1 21q6 38 54 38h71q28 0 35.5 -8.5t5.5 -28.5q60 42 127 42q134 0 110 -148l-36 -218h35q13 0 21 -1.5t15 -10.5t4 -26q-6 -37 -52 -37h-149q-12 0 -20.5 1.5t-16.5 10.5t-5 25q6 38 55 38h30l35 213 q7 42 -2 60t-43 18q-42 0 -83.5 -32t-51.5 -94l-27 -165h35q13 0 21 -1.5t15.5 -10.5t4.5 -26q-6 -37 -53 -37h-155q-8 0 -14 1t-14 4t-11 11t-1 21zM239 522q4 24 35 36l139 58l23 6q18 0 28 -12t7 -30q-4 -27 -39 -41l-139 -58q-12 -5 -22 -5q-14 0 -22 10t-9.5 19.5 t-0.5 16.5z" />
<glyph unicode="&#x145;" d="M32 38q6 37 54 37h17l76 461h-17q-13 0 -21 1.5t-15 10.5t-4 26q6 37 53 37h66q25 0 36.5 -7.5t16.5 -32.5l91 -447l68 412h-16q-13 0 -20.5 1.5t-15 10t-4.5 25.5q6 38 53 38h103q13 0 21 -1.5t15.5 -10.5t4.5 -26q-6 -37 -54 -37h-17l-81 -488q-5 -31 -16.5 -39.5 t-39.5 -8.5q-18 0 -26.5 1.5t-16.5 10.5t-11 28l-91 447l-68 -412h16q13 0 21 -1.5t15 -10.5t4 -26q-6 -37 -53 -37h-103q-13 0 -21 1.5t-15.5 10.5t-4.5 26zM162 -194q3 19 30 28q34 8 52 42h-3q-22 0 -35.5 15.5t-9.5 39.5q4 21 21.5 36.5t42.5 15.5q28 0 44.5 -22 t10.5 -58q-10 -57 -55.5 -92.5t-72.5 -35.5q-12 0 -19.5 10t-5.5 21z" />
<glyph unicode="&#x146;" d="M17 37q6 38 54 38h35l47 286h-36q-8 0 -14 1t-14 4t-11 11t-1 21q6 38 54 38h71q28 0 35.5 -8.5t5.5 -28.5q60 42 127 42q134 0 110 -148l-36 -218h35q13 0 21 -1.5t15 -10.5t4 -26q-6 -37 -52 -37h-149q-12 0 -20.5 1.5t-16.5 10.5t-5 25q6 38 55 38h30l35 213 q7 42 -2 60t-43 18q-42 0 -83.5 -32t-51.5 -94l-27 -165h35q13 0 21 -1.5t15.5 -10.5t4.5 -26q-6 -37 -53 -37h-155q-8 0 -14 1t-14 4t-11 11t-1 21zM162 -194q3 19 30 28q34 8 52 42h-3q-22 0 -35.5 15.5t-9.5 39.5q4 21 21.5 36.5t42.5 15.5q28 0 44.5 -22t10.5 -58 q-10 -57 -55.5 -92.5t-72.5 -35.5q-12 0 -19.5 10t-5.5 21z" />
<glyph unicode="&#x147;" d="M32 38q6 37 54 37h17l76 461h-17q-13 0 -21 1.5t-15 10.5t-4 26q6 37 53 37h66q25 0 36.5 -7.5t16.5 -32.5l91 -447l68 412h-16q-13 0 -20.5 1.5t-15 10t-4.5 25.5q6 38 53 38h103q13 0 21 -1.5t15.5 -10.5t4.5 -26q-6 -37 -54 -37h-17l-81 -488q-5 -31 -16.5 -39.5 t-39.5 -8.5q-18 0 -26.5 1.5t-16.5 10.5t-11 28l-91 447l-68 -412h16q13 0 21 -1.5t15 -10.5t4 -26q-6 -37 -53 -37h-103q-13 0 -21 1.5t-15.5 10.5t-4.5 26zM235 738q7 39 42 39q8 0 46 -12l63 -20l69 20q42 12 50 12q19 0 26 -11.5t4 -27.5q-3 -23 -63 -43l-83 -28 q-17 -6 -32 0l-73 28q-26 11 -38.5 20t-10.5 23z" />
<glyph unicode="&#x148;" d="M17 37q6 38 54 38h35l47 286h-36q-8 0 -14 1t-14 4t-11 11t-1 21q6 38 54 38h71q28 0 35.5 -8.5t5.5 -28.5q60 42 127 42q134 0 110 -148l-36 -218h35q13 0 21 -1.5t15 -10.5t4 -26q-6 -37 -52 -37h-149q-12 0 -20.5 1.5t-16.5 10.5t-5 25q6 38 55 38h30l35 213 q7 42 -2 60t-43 18q-42 0 -83.5 -32t-51.5 -94l-27 -165h35q13 0 21 -1.5t15.5 -10.5t4.5 -26q-6 -37 -53 -37h-155q-8 0 -14 1t-14 4t-11 11t-1 21zM210 591q6 32 45 32q10 0 39 -21l61 -42l75 42q39 21 47 21q20 0 28.5 -8t6.5 -24q-1 -11 -9.5 -20.5t-15.5 -14t-29 -17.5 l-100 -58q-18 -11 -32 0l-80 58q-18 13 -23.5 18t-10 14t-2.5 20z" />
<glyph unicode="&#x14a;" d="M16 37q6 38 55 38h35l76 461h-36q-12 0 -20 1.5t-15.5 10t-4.5 25.5q6 38 54 38h71q24 0 33 -6.5t8 -23.5q57 41 120 41q50 0 85.5 -27.5t51.5 -72t21 -101t-7 -115.5q-11 -66 -24 -115t-35.5 -98.5t-57.5 -76.5t-81 -27q-20 0 -32.5 15t-8.5 36q3 21 20.5 36t37.5 15 q14 0 25 -7q19 15 34 55.5t22 75t16 91.5q8 58 9 109.5t-22 87t-68 35.5q-44 0 -81 -33t-50 -81l-58 -349h35q13 0 21 -1.5t15.5 -10.5t4.5 -26q-6 -37 -53 -37h-155q-12 0 -20 1.5t-16 10t-5 25.5z" />
<glyph unicode="&#x14b;" d="M50 37q6 38 55 38h35l47 286h-36q-12 0 -20 1.5t-16 10.5t-5 25q6 38 55 38h71q28 0 35.5 -8.5t5.5 -28.5q57 42 127 42q134 0 110 -148l-38 -226q-20 -122 -57 -196q-50 -98 -135 -98q-18 0 -28 12t-7 30q3 17 17 29.5t32 12.5q14 0 26.5 8t21.5 26.5t15.5 34.5t13 46 t9.5 46t9 49l37 221q7 42 -2 60t-43 18q-42 0 -83.5 -32t-51.5 -94l-27 -165h35q13 0 21 -1.5t15.5 -10.5t4.5 -26q-6 -37 -53 -37h-155q-12 0 -20 1.5t-16 10.5t-5 25z" />
<glyph unicode="&#x14c;" d="M104 305q13 78 23 125t25.5 86t30.5 57t43.5 30.5t58.5 15.5t81 3q38 0 62.5 -1.5t47 -7.5t34.5 -14.5t21.5 -26.5t11.5 -39t0.5 -56.5t-6.5 -74.5t-15 -97t-17.5 -97t-18 -74.5t-19.5 -56.5t-24.5 -38.5t-30.5 -26t-40 -14.5t-49.5 -7.5t-62.5 -1.5q-51 0 -80 2.5 t-53 15.5t-33 31t-11.5 57t3 85.5t18.5 124.5zM169 128q3 -36 24.5 -50t79.5 -14q60 0 86 15t40 54q19 50 41 181q22 130 18 176q-4 35 -27 46t-78 11q-58 0 -84.5 -13.5t-44.5 -57.5q-14 -38 -36 -162q-22 -147 -19 -186zM191 722q6 38 54 38h290q14 0 21.5 -1.5 t14.5 -10.5t4 -27q-6 -38 -53 -38h-289q-14 0 -22 1.5t-15.5 10.5t-4.5 27z" />
<glyph unicode="&#x14d;" d="M90 218q16 95 88.5 160.5t157.5 65.5q86 0 136 -66t34 -160t-88.5 -159t-156.5 -65q-85 0 -136 64.5t-35 159.5zM165 563q6 38 53 38h290q14 0 22 -1.5t15 -10.5t4 -27q-7 -38 -54 -38h-289q-14 0 -22 1.5t-15 10.5t-4 27zM175 225q-11 -64 18.5 -110t80.5 -46t95.5 46 t55.5 110q10 62 -20 103t-81 41q-50 0 -94.5 -41.5t-54.5 -102.5z" />
<glyph unicode="&#x14e;" d="M104 305q13 78 23 125t25.5 86t30.5 57t43.5 30.5t58.5 15.5t81 3q38 0 62.5 -1.5t47 -7.5t34.5 -14.5t21.5 -26.5t11.5 -39t0.5 -56.5t-6.5 -74.5t-15 -97t-17.5 -97t-18 -74.5t-19.5 -56.5t-24.5 -38.5t-30.5 -26t-40 -14.5t-49.5 -7.5t-62.5 -1.5q-51 0 -80 2.5 t-53 15.5t-33 31t-11.5 57t3 85.5t18.5 124.5zM169 128q3 -36 24.5 -50t79.5 -14q60 0 86 15t40 54q19 50 41 181q22 130 18 176q-4 35 -27 46t-78 11q-58 0 -84.5 -13.5t-44.5 -57.5q-14 -38 -36 -162q-22 -147 -19 -186zM211 761q7 38 44 38q31 0 31 -34q2 -14 102 -14 t106 14q4 10 7.5 15.5t13 12t22.5 6.5q18 0 26.5 -10t5.5 -28q-5 -30 -25.5 -49t-53 -27t-57 -10t-58.5 -2t-57.5 2t-53.5 10t-44 27t-9 49z" />
<glyph unicode="&#x14f;" d="M90 218q16 95 88.5 160.5t157.5 65.5q86 0 136 -66t34 -160t-88.5 -159t-156.5 -65q-85 0 -136 64.5t-35 159.5zM175 225q-11 -64 18.5 -110t80.5 -46t95.5 46t55.5 110q10 62 -20 103t-81 41q-50 0 -94.5 -41.5t-54.5 -102.5zM182 587q7 38 44 38q31 0 31 -34 q2 -14 102 -14t106 14q4 10 7.5 15.5t13 12t22.5 6.5q18 0 26.5 -10t5.5 -28q-5 -30 -25.5 -49t-53 -27t-57 -10t-58.5 -2t-57.5 2t-53.5 10t-44 27t-9 49z" />
<glyph unicode="&#x150;" d="M104 305q13 78 23 125t25.5 86t30.5 57t43.5 30.5t58.5 15.5t81 3q38 0 62.5 -1.5t47 -7.5t34.5 -14.5t21.5 -26.5t11.5 -39t0.5 -56.5t-6.5 -74.5t-15 -97t-17.5 -97t-18 -74.5t-19.5 -56.5t-24.5 -38.5t-30.5 -26t-40 -14.5t-49.5 -7.5t-62.5 -1.5q-51 0 -80 2.5 t-53 15.5t-33 31t-11.5 57t3 85.5t18.5 124.5zM169 128q3 -36 24.5 -50t79.5 -14q60 0 86 15t40 54q19 50 41 181q22 130 18 176q-4 35 -27 46t-78 11q-58 0 -84.5 -13.5t-44.5 -57.5q-14 -38 -36 -162q-22 -147 -19 -186zM207 719q3 16 36 42l54 44q29 20 44 20 q17 0 27.5 -13t7.5 -30q-3 -20 -37 -44l-54 -43q-29 -22 -44 -22t-26 15.5t-8 30.5zM401 719q3 16 36 42l54 44q29 20 44 20q17 0 27.5 -13t7.5 -30q-3 -20 -37 -44l-54 -43q-29 -22 -44 -22t-26 15.5t-8 30.5z" />
<glyph unicode="&#x151;" d="M90 218q16 95 88.5 160.5t157.5 65.5q86 0 136 -66t34 -160t-88.5 -159t-156.5 -65q-85 0 -136 64.5t-35 159.5zM175 225q-11 -64 18.5 -110t80.5 -46t95.5 46t55.5 110q10 62 -20 103t-81 41q-50 0 -94.5 -41.5t-54.5 -102.5zM176 532q2 15 36 42l54 44q29 20 44 20 q17 0 27.5 -13t7.5 -30q-4 -21 -37 -44l-54 -43q-29 -22 -44 -22t-26 15.5t-8 30.5zM370 532q2 15 36 42l54 44q29 20 44 20q17 0 27.5 -13t7.5 -30q-4 -21 -37 -44l-54 -43q-29 -22 -44 -22t-26 15.5t-8 30.5z" />
<glyph unicode="&#x152;" d="M55 85q-3 61 23 221q28 165 53 227q20 50 57.5 69.5t110.5 19.5q28 0 56 -6q22 -5 43 -5h154q29 0 36.5 -10t2.5 -38l-12 -71q-8 -48 -43 -48t-27 48l7 44h-103l-30 -182h112q13 0 21 -1.5t15 -10.5t4 -26q-6 -37 -52 -37h-112l-34 -204h110l9 59q8 48 43 48t27 -48 l-14 -86q-5 -29 -16 -38.5t-39 -9.5h-161q-21 0 -41 -4q-35 -7 -62 -7q-80 0 -108 22.5t-30 73.5zM147 314q-25 -152 -20 -191q6 -48 49 -56q14 -3 33 -3q33 0 47 21.5t25 89.5l44 261q11 72 3.5 91.5t-41.5 19.5q-25 0 -42.5 -3.5t-31.5 -17t-22 -26t-16 -44.5t-13 -57.5 t-14 -79.5q-1 -3 -1 -5z" />
<glyph unicode="&#x153;" d="M54 219q15 96 70 160.5t117 64.5q67 0 99 -76q57 76 119 76q54 0 79 -55.5t8 -153.5q-5 -29 -15.5 -39t-39.5 -10h-143q-2 -50 16 -83.5t46 -33.5t47 50q10 30 40 30q14 0 23 -10t6 -26q-2 -14 -16 -39.5t-46 -52.5t-70 -27q-70 0 -102 78q-57 -78 -126 -78q-62 0 -95 64 t-17 161zM123 225q-11 -64 5.5 -110t47.5 -46t62.5 45.5t42.5 110.5q10 62 -7 103t-48 41t-62 -41t-41 -103zM364 260h117q5 42 0.5 66t-12.5 33.5t-19 9.5q-22 0 -46.5 -31.5t-39.5 -77.5z" />
<glyph unicode="&#x154;" d="M27 37q6 38 53 38h17l76 461h-17q-13 0 -20.5 1.5t-14.5 10t-4 25.5q6 38 52 38h173q87 0 133.5 -51.5t34.5 -120.5q-5 -35 -30 -72.5t-70 -63.5q24 -24 32 -55q5 -25 -6 -95q-4 -23 -5.5 -34.5t-2.5 -26.5t2.5 -21.5t10.5 -6.5q10 0 14 24q8 49 50 49q10 0 17 -1 t13.5 -10.5t3.5 -27.5q-6 -37 -35.5 -73t-74.5 -36q-56 0 -76 49q-9 31 -8 51t11 77q6 27 5.5 46t-11.5 31q-25 25 -70 25h-68l-32 -193h16q13 0 21 -1.5t15 -10.5t4 -26q-6 -37 -53 -37h-116q-13 0 -20.5 1.5t-15 10t-4.5 25.5zM223 343h63q58 0 96.5 29.5t44.5 66.5 q7 37 -21.5 67t-87.5 30h-63zM272 719q3 24 35 36l138 58l23 6q18 0 28 -12t7 -30q-4 -26 -38 -41l-139 -58q-13 -5 -22 -5q-20 0 -27.5 17t-4.5 29z" />
<glyph unicode="&#x155;" d="M36 38q6 37 54 37h71l47 286h-71q-10 0 -16 1t-13.5 4t-10 11.5t-0.5 21.5q5 37 53 37h107q29 0 36.5 -10t2.5 -38l-3 -14q79 67 170 67q58 0 75.5 -21.5t12.5 -46.5q-4 -22 -20.5 -35.5t-36.5 -13.5t-32.5 12t-9.5 30q-76 -2 -127 -54.5t-62 -122.5l-19 -114h100 q13 0 21 -1.5t15.5 -10.5t4.5 -26q-6 -37 -54 -37h-254q-13 0 -21 1.5t-15.5 10.5t-4.5 26zM239 522q4 24 35 36l139 58l23 6q18 0 28 -12t7 -30q-4 -27 -39 -41l-139 -58q-12 -5 -22 -5q-14 0 -22 10t-9.5 19.5t-0.5 16.5z" />
<glyph unicode="&#x156;" d="M27 37q6 38 53 38h17l76 461h-17q-13 0 -20.5 1.5t-14.5 10t-4 25.5q6 38 52 38h173q87 0 133.5 -51.5t34.5 -120.5q-5 -35 -30 -72.5t-70 -63.5q24 -24 32 -55q5 -25 -6 -95q-4 -23 -5.5 -34.5t-2.5 -26.5t2.5 -21.5t10.5 -6.5q10 0 14 24q8 49 50 49q10 0 17 -1 t13.5 -10.5t3.5 -27.5q-6 -37 -35.5 -73t-74.5 -36q-56 0 -76 49q-9 31 -8 51t11 77q6 27 5.5 46t-11.5 31q-25 25 -70 25h-68l-32 -193h16q13 0 21 -1.5t15 -10.5t4 -26q-6 -37 -53 -37h-116q-13 0 -20.5 1.5t-15 10t-4.5 25.5zM162 -194q3 19 30 28q34 8 52 42h-3 q-22 0 -35.5 15.5t-9.5 39.5q4 21 21.5 36.5t42.5 15.5q28 0 44.5 -22t10.5 -58q-10 -57 -55.5 -92.5t-72.5 -35.5q-12 0 -19.5 10t-5.5 21zM223 343h63q58 0 96.5 29.5t44.5 66.5q7 37 -21.5 67t-87.5 30h-63z" />
<glyph unicode="&#x157;" d="M36 38q6 37 54 37h71l47 286h-71q-10 0 -16 1t-13.5 4t-10 11.5t-0.5 21.5q5 37 53 37h107q29 0 36.5 -10t2.5 -38l-3 -14q79 67 170 67q58 0 75.5 -21.5t12.5 -46.5q-4 -22 -20.5 -35.5t-36.5 -13.5t-32.5 12t-9.5 30q-76 -2 -127 -54.5t-62 -122.5l-19 -114h100 q13 0 21 -1.5t15.5 -10.5t4.5 -26q-6 -37 -54 -37h-254q-13 0 -21 1.5t-15.5 10.5t-4.5 26zM87 -194q3 19 30 28q34 8 52 42h-3q-22 0 -35.5 15.5t-9.5 39.5q4 21 21.5 36.5t42.5 15.5q28 0 44.5 -22t10.5 -58q-10 -57 -55.5 -92.5t-72.5 -35.5q-12 0 -19.5 10t-5.5 21z" />
<glyph unicode="&#x158;" d="M27 37q6 38 53 38h17l76 461h-17q-13 0 -20.5 1.5t-14.5 10t-4 25.5q6 38 52 38h173q87 0 133.5 -51.5t34.5 -120.5q-5 -35 -30 -72.5t-70 -63.5q24 -24 32 -55q5 -25 -6 -95q-4 -23 -5.5 -34.5t-2.5 -26.5t2.5 -21.5t10.5 -6.5q10 0 14 24q8 49 50 49q10 0 17 -1 t13.5 -10.5t3.5 -27.5q-6 -37 -35.5 -73t-74.5 -36q-56 0 -76 49q-9 31 -8 51t11 77q6 27 5.5 46t-11.5 31q-25 25 -70 25h-68l-32 -193h16q13 0 21 -1.5t15 -10.5t4 -26q-6 -37 -53 -37h-116q-13 0 -20.5 1.5t-15 10t-4.5 25.5zM223 343h63q58 0 96.5 29.5t44.5 66.5 q7 37 -21.5 67t-87.5 30h-63zM235 738q7 39 42 39q8 0 46 -12l63 -20l69 20q42 12 50 12q19 0 26 -11.5t4 -27.5q-3 -23 -63 -43l-83 -28q-17 -6 -32 0l-73 28q-26 11 -38.5 20t-10.5 23z" />
<glyph unicode="&#x159;" d="M36 38q6 37 54 37h71l47 286h-71q-10 0 -16 1t-13.5 4t-10 11.5t-0.5 21.5q5 37 53 37h107q29 0 36.5 -10t2.5 -38l-3 -14q79 67 170 67q58 0 75.5 -21.5t12.5 -46.5q-4 -22 -20.5 -35.5t-36.5 -13.5t-32.5 12t-9.5 30q-76 -2 -127 -54.5t-62 -122.5l-19 -114h100 q13 0 21 -1.5t15.5 -10.5t4.5 -26q-6 -37 -54 -37h-254q-13 0 -21 1.5t-15.5 10.5t-4.5 26zM210 591q6 32 45 32q10 0 39 -21l61 -42l75 42q39 21 47 21q20 0 28.5 -8t6.5 -24q-1 -11 -9.5 -20.5t-15.5 -14t-29 -17.5l-100 -58q-18 -11 -32 0l-80 58q-18 13 -23.5 18t-10 14 t-2.5 20z" />
<glyph unicode="&#x15a;" d="M56 37l22 129q3 16 5.5 23.5t13.5 15.5t30 8q18 0 26.5 -6t8 -15.5t-0.5 -19.5q-7 -52 34 -82q38 -26 100 -26q51 0 86.5 31t42.5 70q14 82 -86 102l-108 27q-59 17 -86 62t-18 98q11 68 73 118t144 50q77 0 125 -40q18 40 47 40q37 0 29 -48l-22 -129q-2 -11 -4 -17.5 t-7 -14.5t-14.5 -11.5t-24.5 -3.5q-19 0 -27 7t-8 26q0 116 -108 116q-47 0 -83 -26.5t-42 -62.5q-5 -30 12.5 -52.5t46.5 -31.5l75 -18q62 -15 86.5 -26t49.5 -39q40 -52 28 -121q-12 -72 -74 -126.5t-147 -54.5q-94 0 -149 40q-11 -22 -21 -31t-26 -9q-37 0 -29 48z M272 719q3 24 35 36l138 58l23 6q18 0 28 -12t7 -30q-4 -26 -38 -41l-139 -58q-13 -5 -22 -5q-20 0 -27.5 17t-4.5 29z" />
<glyph unicode="&#x15b;" d="M76 42l16 94q2 12 4 18.5t7 14.5t14.5 11.5t24.5 3.5q21 0 27.5 -7.5t8.5 -26.5q13 -81 104 -81q59 0 90.5 17t36.5 44q2 16 -7 27.5t-30 19t-35 10.5t-37 7q-34 5 -55.5 9.5t-49.5 14.5t-43.5 22.5t-24.5 33.5t-4 48q3 17 12.5 34.5t31 39t65.5 35t104 13.5q58 0 97 -17 q13 17 37 17q36 0 29 -47l-11 -68q-2 -11 -4 -17.5t-7 -14.5t-14.5 -11.5t-24.5 -3.5q-25 0 -31 10.5t-3 29.5q1 21 -16 34t-66 13q-59 0 -90 -13.5t-34 -33.5q-5 -28 46 -40l98 -18q15 -2 29 -5.5t39 -13.5t41.5 -23.5t27 -37.5t5.5 -54q-3 -21 -15 -42t-35 -43.5 t-66 -36.5t-100 -14q-73 0 -117 33q-19 -33 -46 -33q-37 0 -29 48zM241 535q4 24 35 36l139 58l23 6q18 0 28 -12t7 -30q-4 -27 -39 -41l-139 -58q-12 -5 -22 -5q-14 0 -22 10t-9.5 19.5t-0.5 16.5z" />
<glyph unicode="&#x15c;" d="M56 37l22 129q3 16 5.5 23.5t13.5 15.5t30 8q18 0 26.5 -6t8 -15.5t-0.5 -19.5q-7 -52 34 -82q38 -26 100 -26q51 0 86.5 31t42.5 70q14 82 -86 102l-108 27q-59 17 -86 62t-18 98q11 68 73 118t144 50q77 0 125 -40q18 40 47 40q37 0 29 -48l-22 -129q-2 -11 -4 -17.5 t-7 -14.5t-14.5 -11.5t-24.5 -3.5q-19 0 -27 7t-8 26q0 116 -108 116q-47 0 -83 -26.5t-42 -62.5q-5 -30 12.5 -52.5t46.5 -31.5l75 -18q62 -15 86.5 -26t49.5 -39q40 -52 28 -121q-12 -72 -74 -126.5t-147 -54.5q-94 0 -149 40q-11 -22 -21 -31t-26 -9q-37 0 -29 48z M229 702q3 23 63 43l83 28q17 6 32 0l73 -28q26 -11 38.5 -20t10.5 -23q-7 -39 -43 -39q-8 0 -46 12l-62 20l-70 -20q-42 -12 -50 -12q-19 0 -25.5 11.5t-3.5 27.5z" />
<glyph unicode="&#x15d;" d="M76 42l16 94q2 12 4 18.5t7 14.5t14.5 11.5t24.5 3.5q21 0 27.5 -7.5t8.5 -26.5q13 -81 104 -81q59 0 90.5 17t36.5 44q2 16 -7 27.5t-30 19t-35 10.5t-37 7q-34 5 -55.5 9.5t-49.5 14.5t-43.5 22.5t-24.5 33.5t-4 48q3 17 12.5 34.5t31 39t65.5 35t104 13.5q58 0 97 -17 q13 17 37 17q36 0 29 -47l-11 -68q-2 -11 -4 -17.5t-7 -14.5t-14.5 -11.5t-24.5 -3.5q-25 0 -31 10.5t-3 29.5q1 21 -16 34t-66 13q-59 0 -90 -13.5t-34 -33.5q-5 -28 46 -40l98 -18q15 -2 29 -5.5t39 -13.5t41.5 -23.5t27 -37.5t5.5 -54q-3 -21 -15 -42t-35 -43.5 t-66 -36.5t-100 -14q-73 0 -117 33q-19 -33 -46 -33q-37 0 -29 48zM198 520q1 11 9 20.5t15 14t29 17.5l100 58q18 11 32 0l80 -58q18 -13 23.5 -18t10.5 -14t3 -20q-8 -32 -46 -32q-10 0 -39 21l-61 42l-75 -42q-36 -21 -47 -21q-20 0 -28 8t-6 24z" />
<glyph unicode="&#x15e;" d="M56 37l22 129q3 16 5.5 23.5t13.5 15.5t30 8q18 0 26.5 -6t8 -15.5t-0.5 -19.5q-7 -52 34 -82q38 -26 100 -26q51 0 86.5 31t42.5 70q14 82 -86 102l-108 27q-59 17 -86 62t-18 98q11 68 73 118t144 50q77 0 125 -40q18 40 47 40q37 0 29 -48l-22 -129q-2 -11 -4 -17.5 t-7 -14.5t-14.5 -11.5t-24.5 -3.5q-19 0 -27 7t-8 26q0 116 -108 116q-47 0 -83 -26.5t-42 -62.5q-5 -30 12.5 -52.5t46.5 -31.5l75 -18q62 -15 86.5 -26t49.5 -39q40 -52 28 -121q-10 -62 -58.5 -112t-117.5 -65q44 -12 62.5 -40t12.5 -59q-5 -30 -25 -51t-43.5 -31.5 t-61 -16.5t-62.5 -7t-63 -1q-16 0 -25 9t-6 29q4 24 20 31t52 7q126 0 131 31q2 13 -12 21.5t-41 9.5q-25 1 -30 16t1 33l3 18q-65 8 -107 37q-11 -22 -21 -31t-26 -9q-37 0 -29 48z" />
<glyph unicode="&#x15f;" d="M76 42l16 94q2 12 4 18.5t7 14.5t14.5 11.5t24.5 3.5q21 0 27.5 -7.5t8.5 -26.5q13 -81 104 -81q59 0 90.5 17t36.5 44q2 16 -7 27.5t-30 19t-35 10.5t-37 7q-34 5 -55.5 9.5t-49.5 14.5t-43.5 22.5t-24.5 33.5t-4 48q3 17 12.5 34.5t31 39t65.5 35t104 13.5q58 0 97 -17 q13 17 37 17q36 0 29 -47l-11 -68q-2 -11 -4 -17.5t-7 -14.5t-14.5 -11.5t-24.5 -3.5q-25 0 -31 10.5t-3 29.5q1 21 -16 34t-66 13q-59 0 -90 -13.5t-34 -33.5q-5 -28 46 -40l98 -18q15 -2 29 -5.5t39 -13.5t41.5 -23.5t27 -37.5t5.5 -54q-7 -41 -41 -78t-105 -51 q39 -13 54.5 -39.5t10.5 -56.5t-24.5 -51t-43.5 -32t-61 -17t-63 -7t-63 -1q-15 0 -25 9.5t-7 28.5q4 24 20.5 31t52.5 7q126 0 131 32q2 12 -12 21t-41 10q-17 1 -24.5 8.5t-7.5 17.5t2 22l2 12q-52 4 -88 31q-19 -33 -46 -33q-37 0 -29 48z" />
<glyph unicode="&#x160;" d="M56 37l22 129q3 16 5.5 23.5t13.5 15.5t30 8q18 0 26.5 -6t8 -15.5t-0.5 -19.5q-7 -52 34 -82q38 -26 100 -26q51 0 86.5 31t42.5 70q14 82 -86 102l-108 27q-59 17 -86 62t-18 98q11 68 73 118t144 50q77 0 125 -40q18 40 47 40q37 0 29 -48l-22 -129q-2 -11 -4 -17.5 t-7 -14.5t-14.5 -11.5t-24.5 -3.5q-19 0 -27 7t-8 26q0 116 -108 116q-47 0 -83 -26.5t-42 -62.5q-5 -30 12.5 -52.5t46.5 -31.5l75 -18q62 -15 86.5 -26t49.5 -39q40 -52 28 -121q-12 -72 -74 -126.5t-147 -54.5q-94 0 -149 40q-11 -22 -21 -31t-26 -9q-37 0 -29 48z M235 738q7 39 42 39q8 0 46 -12l63 -20l69 20q42 12 50 12q19 0 26 -11.5t4 -27.5q-3 -23 -63 -43l-83 -28q-17 -6 -32 0l-73 28q-26 11 -38.5 20t-10.5 23z" />
<glyph unicode="&#x161;" d="M76 42l16 94q2 12 4 18.5t7 14.5t14.5 11.5t24.5 3.5q21 0 27.5 -7.5t8.5 -26.5q13 -81 104 -81q59 0 90.5 17t36.5 44q2 16 -7 27.5t-30 19t-35 10.5t-37 7q-34 5 -55.5 9.5t-49.5 14.5t-43.5 22.5t-24.5 33.5t-4 48q3 17 12.5 34.5t31 39t65.5 35t104 13.5q58 0 97 -17 q13 17 37 17q36 0 29 -47l-11 -68q-2 -11 -4 -17.5t-7 -14.5t-14.5 -11.5t-24.5 -3.5q-25 0 -31 10.5t-3 29.5q1 21 -16 34t-66 13q-59 0 -90 -13.5t-34 -33.5q-5 -28 46 -40l98 -18q15 -2 29 -5.5t39 -13.5t41.5 -23.5t27 -37.5t5.5 -54q-3 -21 -15 -42t-35 -43.5 t-66 -36.5t-100 -14q-73 0 -117 33q-19 -33 -46 -33q-37 0 -29 48zM212 604q6 32 45 32q10 0 39 -21l61 -42l75 42q39 21 47 21q20 0 28.5 -8t6.5 -24q-1 -11 -9.5 -20.5t-15.5 -14t-29 -17.5l-100 -58q-18 -11 -32 0l-80 58q-18 13 -23.5 18t-10 14t-2.5 20z" />
<glyph unicode="&#x162;" d="M97 -168q4 24 20.5 31t52.5 7q126 0 131 32q2 12 -12 21t-41 10q-25 1 -30 13.5t-1 34.5l4 19h-43q-13 0 -21 1.5t-15.5 10.5t-4.5 26q6 37 54 37h43l76 461h-114l-7 -44q-3 -15 -6 -23.5t-14 -16.5t-30 -8t-27.5 7.5t-7.5 18t2 22.5l12 71q4 29 15.5 38.5t40.5 9.5h381 q29 0 36.5 -10t2.5 -38l-12 -71q-3 -15 -6 -23.5t-14 -16.5t-30 -8t-27.5 7.5t-7.5 18t2 22.5l7 44h-113l-76 -461h43q13 0 21 -1.5t15 -10.5t4 -26q-6 -37 -53 -37h-36q43 -12 60 -39.5t12 -58.5q-5 -30 -24.5 -51t-43.5 -32t-61 -17t-62.5 -7t-62.5 -1t-32 38z" />
<glyph unicode="&#x163;" d="M89 398q6 38 54 38h77l12 72q2 11 4 17.5t7 14.5t14.5 11.5t24.5 3.5q19 0 27 -7.5t7.5 -17.5t-1.5 -22l-12 -72h152q10 0 16 -1t13.5 -4t10 -11.5t0.5 -21.5q-6 -37 -53 -37h-152l-37 -225q-13 -67 56 -67q14 0 29 4t31.5 19t21.5 40q2 13 5 21t13.5 15.5t28.5 7.5 q19 0 28 -7t8.5 -17t-1.5 -21q-8 -51 -44.5 -84.5t-86.5 -46.5q43 -12 60.5 -39t12.5 -59q-5 -30 -25 -51t-43.5 -32t-60.5 -17t-62.5 -7t-62.5 -1q-16 0 -25.5 9.5t-6.5 28.5q4 24 20 31t52 7q126 0 132 32q2 12 -12.5 21t-40.5 10q-25 1 -31 16t0 32l3 17q-102 22 -83 133 l38 230h-78q-13 0 -20.5 1.5t-15 10t-4.5 25.5z" />
<glyph unicode="&#x164;" d="M106 492l12 71q4 29 15.5 38.5t40.5 9.5h381q29 0 36.5 -10t2.5 -38l-12 -71q-3 -15 -6 -23.5t-14 -16.5t-30 -8t-27.5 7.5t-7.5 18t2 22.5l7 44h-113l-76 -461h43q13 0 21 -1.5t15 -10.5t4 -26q-6 -37 -53 -37h-169q-13 0 -21 1.5t-15.5 10.5t-4.5 26q6 37 54 37h43 l76 461h-114l-7 -44q-3 -15 -6 -23.5t-14 -16.5t-30 -8t-27.5 7.5t-7.5 18t2 22.5zM235 738q7 39 42 39q8 0 46 -12l63 -20l69 20q42 12 50 12q19 0 26 -11.5t4 -27.5q-3 -23 -63 -43l-83 -28q-17 -6 -32 0l-73 28q-26 11 -38.5 20t-10.5 23z" />
<glyph unicode="&#x165;" d="M89 398q6 38 54 38h77l12 72q2 11 4 17.5t7 14.5t14.5 11.5t24.5 3.5q19 0 27 -7.5t7.5 -17.5t-1.5 -22l-12 -72h152q10 0 16 -1t13.5 -4t10 -11.5t0.5 -21.5q-6 -37 -53 -37h-152l-37 -225q-13 -67 56 -67q14 0 29 4t31.5 19t21.5 40q2 13 5 21t13.5 15.5t28.5 7.5 q19 0 28 -7t8.5 -17t-1.5 -21q-11 -65 -64.5 -101t-116.5 -36t-99 33.5t-24 103.5l38 230h-78q-13 0 -20.5 1.5t-15 10t-4.5 25.5zM352 500q4 19 31 28q34 10 52 42h-3q-22 0 -35.5 15.5t-9.5 39.5q4 21 21.5 36.5t42.5 15.5q28 0 44.5 -22t10.5 -58q-10 -57 -55.5 -92.5 t-72.5 -35.5q-12 0 -20 10t-6 21z" />
<glyph unicode="&#x168;" d="M99 574q6 37 54 37h125q13 0 21 -1.5t16 -10t5 -25.5q-6 -38 -55 -38h-21l-54 -325q-11 -69 15.5 -108t67.5 -39q40 0 80 39.5t51 107.5l54 325h-21q-13 0 -21 1.5t-15.5 10.5t-4.5 26q6 37 54 37h125q13 0 21 -1.5t16 -10t5 -25.5q-6 -38 -55 -38h-21l-54 -329 q-15 -92 -82.5 -155t-144.5 -63t-122.5 63t-30.5 155l54 329h-21q-13 0 -21 1.5t-15.5 10.5t-4.5 26zM202 702q3 23 61 60q49 34 86 34q33 0 65 -35q17 -19 22 -19q17 0 69 41q16 13 31 13t24 -12t7 -27q-4 -23 -61 -60q-52 -34 -86 -34t-65 36q-16 18 -22 18q-19 0 -69 -41 q-19 -13 -31 -13q-15 0 -24 12t-7 27z" />
<glyph unicode="&#x169;" d="M77 398q6 38 54 38h71q29 0 36.5 -10t2.5 -38l-44 -263q-2 -15 -2 -27t15 -20.5t47 -8.5q20 0 41 5t46 27.5t31 59.5l33 200h-36q-12 0 -20 1.5t-16 10t-5 25.5q6 38 55 38h71q28 0 36 -10t3 -38l-52 -313h36q12 0 19.5 -1.5t15 -10.5t4.5 -25q-6 -38 -53 -38h-71 q-39 0 -42 25q-52 -31 -114 -31q-65 0 -101.5 28.5t-24.5 96.5l40 242h-36q-8 0 -14 1t-14 4t-11 11t-1 21zM172 522q3 23 61 60q49 34 86 34q33 0 65 -35q17 -19 22 -19q16 0 70 41q17 13 30 13q15 0 24 -12t7 -27q-4 -23 -61 -60q-52 -34 -85 -34q-37 0 -65 36 q-18 18 -22 18q-20 0 -70 -41q-17 -13 -30 -13q-15 0 -24.5 12.5t-7.5 26.5z" />
<glyph unicode="&#x16a;" d="M99 574q6 37 54 37h125q13 0 21 -1.5t16 -10t5 -25.5q-6 -38 -55 -38h-21l-54 -325q-11 -69 15.5 -108t67.5 -39q40 0 80 39.5t51 107.5l54 325h-21q-13 0 -21 1.5t-15.5 10.5t-4.5 26q6 37 54 37h125q13 0 21 -1.5t16 -10t5 -25.5q-6 -38 -55 -38h-21l-54 -329 q-15 -92 -82.5 -155t-144.5 -63t-122.5 63t-30.5 155l54 329h-21q-13 0 -21 1.5t-15.5 10.5t-4.5 26zM191 722q6 38 54 38h290q14 0 21.5 -1.5t14.5 -10.5t4 -27q-6 -38 -53 -38h-289q-14 0 -22 1.5t-15.5 10.5t-4.5 27z" />
<glyph unicode="&#x16b;" d="M77 398q6 38 54 38h71q29 0 36.5 -10t2.5 -38l-44 -263q-2 -15 -2 -27t15 -20.5t47 -8.5q20 0 41 5t46 27.5t31 59.5l33 200h-36q-12 0 -20 1.5t-16 10t-5 25.5q6 38 55 38h71q28 0 36 -10t3 -38l-52 -313h36q12 0 19.5 -1.5t15 -10.5t4.5 -25q-6 -38 -53 -38h-71 q-39 0 -42 25q-52 -31 -114 -31q-65 0 -101.5 28.5t-24.5 96.5l40 242h-36q-8 0 -14 1t-14 4t-11 11t-1 21zM163 550q6 38 53 38h290q14 0 22 -1.5t15 -10.5t4 -27q-7 -38 -54 -38h-289q-14 0 -22 1.5t-15 10.5t-4 27z" />
<glyph unicode="&#x16c;" d="M99 574q6 37 54 37h125q13 0 21 -1.5t16 -10t5 -25.5q-6 -38 -55 -38h-21l-54 -325q-11 -69 15.5 -108t67.5 -39q40 0 80 39.5t51 107.5l54 325h-21q-13 0 -21 1.5t-15.5 10.5t-4.5 26q6 37 54 37h125q13 0 21 -1.5t16 -10t5 -25.5q-6 -38 -55 -38h-21l-54 -329 q-15 -92 -82.5 -155t-144.5 -63t-122.5 63t-30.5 155l54 329h-21q-13 0 -21 1.5t-15.5 10.5t-4.5 26zM211 761q7 38 44 38q31 0 31 -34q2 -14 102 -14t106 14q4 10 7.5 15.5t13 12t22.5 6.5q18 0 26.5 -10t5.5 -28q-5 -30 -25.5 -49t-53 -27t-57 -10t-58.5 -2t-57.5 2 t-53.5 10t-44 27t-9 49z" />
<glyph unicode="&#x16d;" d="M77 398q6 38 54 38h71q29 0 36.5 -10t2.5 -38l-44 -263q-2 -15 -2 -27t15 -20.5t47 -8.5q20 0 41 5t46 27.5t31 59.5l33 200h-36q-12 0 -20 1.5t-16 10t-5 25.5q6 38 55 38h71q28 0 36 -10t3 -38l-52 -313h36q12 0 19.5 -1.5t15 -10.5t4.5 -25q-6 -38 -53 -38h-71 q-39 0 -42 25q-52 -31 -114 -31q-65 0 -101.5 28.5t-24.5 96.5l40 242h-36q-8 0 -14 1t-14 4t-11 11t-1 21zM180 574q7 38 44 38q31 0 31 -34q2 -14 102 -14t106 14q4 10 7.5 15.5t13 12t22.5 6.5q18 0 26.5 -10t5.5 -28q-5 -30 -25.5 -49t-53 -27t-57 -10t-58.5 -2t-57.5 2 t-53.5 10t-44 27t-9 49z" />
<glyph unicode="&#x16e;" d="M99 574q6 37 54 37h125q13 0 21 -1.5t16 -10t5 -25.5q-6 -38 -55 -38h-21l-54 -325q-11 -69 15.5 -108t67.5 -39q40 0 80 39.5t51 107.5l54 325h-21q-13 0 -21 1.5t-15.5 10.5t-4.5 26q6 37 54 37h125q13 0 21 -1.5t16 -10t5 -25.5q-6 -38 -55 -38h-21l-54 -329 q-15 -92 -82.5 -155t-144.5 -63t-122.5 63t-30.5 155l54 329h-21q-13 0 -21 1.5t-15.5 10.5t-4.5 26zM291 691q5 26 33 46t65 20t59 -20t17 -46q-5 -27 -33 -47.5t-65 -20.5t-59 20.5t-17 47.5zM347 690q-1 -9 7.5 -14.5t20.5 -5.5t22.5 5.5t11.5 14.5t-7.5 14.5t-20.5 5.5 q-31 0 -34 -20z" />
<glyph unicode="&#x16f;" d="M77 398q6 38 54 38h71q29 0 36.5 -10t2.5 -38l-44 -263q-2 -15 -2 -27t15 -20.5t47 -8.5q20 0 41 5t46 27.5t31 59.5l33 200h-36q-12 0 -20 1.5t-16 10t-5 25.5q6 38 55 38h71q28 0 36 -10t3 -38l-52 -313h36q12 0 19.5 -1.5t15 -10.5t4.5 -25q-6 -38 -53 -38h-71 q-39 0 -42 25q-52 -31 -114 -31q-65 0 -101.5 28.5t-24.5 96.5l40 242h-36q-8 0 -14 1t-14 4t-11 11t-1 21zM269 560q5 26 33 46t65 20t59 -20t17 -46q-4 -27 -32.5 -47.5t-65.5 -20.5t-58.5 20.5t-17.5 47.5zM325 559q-1 -9 7.5 -14.5t20.5 -5.5t22.5 5.5t11.5 14.5 t-7 14.5t-20 5.5t-23 -5.5t-12 -14.5z" />
<glyph unicode="&#x170;" d="M99 574q6 37 54 37h125q13 0 21 -1.5t16 -10t5 -25.5q-6 -38 -55 -38h-21l-54 -325q-11 -69 15.5 -108t67.5 -39q40 0 80 39.5t51 107.5l54 325h-21q-13 0 -21 1.5t-15.5 10.5t-4.5 26q6 37 54 37h125q13 0 21 -1.5t16 -10t5 -25.5q-6 -38 -55 -38h-21l-54 -329 q-15 -92 -82.5 -155t-144.5 -63t-122.5 63t-30.5 155l54 329h-21q-13 0 -21 1.5t-15.5 10.5t-4.5 26zM207 719q3 16 36 42l54 44q29 20 44 20q17 0 27.5 -13t7.5 -30q-3 -20 -37 -44l-54 -43q-29 -22 -44 -22t-26 15.5t-8 30.5zM401 719q3 16 36 42l54 44q29 20 44 20 q17 0 27.5 -13t7.5 -30q-3 -20 -37 -44l-54 -43q-29 -22 -44 -22t-26 15.5t-8 30.5z" />
<glyph unicode="&#x171;" d="M77 398q6 38 54 38h71q29 0 36.5 -10t2.5 -38l-44 -263q-2 -15 -2 -27t15 -20.5t47 -8.5q20 0 41 5t46 27.5t31 59.5l33 200h-36q-12 0 -20 1.5t-16 10t-5 25.5q6 38 55 38h71q28 0 36 -10t3 -38l-52 -313h36q12 0 19.5 -1.5t15 -10.5t4.5 -25q-6 -38 -53 -38h-71 q-39 0 -42 25q-52 -31 -114 -31q-65 0 -101.5 28.5t-24.5 96.5l40 242h-36q-8 0 -14 1t-14 4t-11 11t-1 21zM174 519q2 15 36 42l54 44q29 20 44 20q17 0 27.5 -13t7.5 -30q-4 -21 -37 -44l-54 -43q-29 -22 -44 -22t-26 15.5t-8 30.5zM368 519q2 15 36 42l54 44q29 20 44 20 q17 0 27.5 -13t7.5 -30q-4 -21 -37 -44l-54 -43q-29 -22 -44 -22t-26 15.5t-8 30.5z" />
<glyph unicode="&#x172;" d="M99 574q6 37 54 37h125q13 0 21 -1.5t16 -10t5 -25.5q-6 -38 -55 -38h-21l-54 -325q-11 -69 15.5 -108t67.5 -39q40 0 80 39.5t51 107.5l54 325h-21q-13 0 -21 1.5t-15.5 10.5t-4.5 26q6 37 54 37h125q13 0 21 -1.5t16 -10t5 -25.5q-6 -38 -55 -38h-21l-54 -329 q-14 -80 -68 -139t-121 -74q-52 -33 -63 -93q-2 -13 8 -22t22 -9q10 0 23 8q19 17 27 23.5t20 13.5t18.5 5t12.5 -10q7 -11 6.5 -25t-8.5 -22q-56 -61 -114 -61q-47 0 -70.5 31.5t-16.5 69.5q7 47 58 91q-61 16 -94 75t-20 138l54 329h-21q-13 0 -21 1.5t-15.5 10.5t-4.5 26 z" />
<glyph unicode="&#x173;" d="M77 398q6 38 55 38h71q28 0 35.5 -10t2.5 -38l-44 -263q-2 -15 -2 -27t15.5 -20.5t47.5 -8.5q20 0 41 5t45.5 27.5t30.5 59.5l33 200h-36q-12 0 -20 1.5t-16 10t-5 25.5q6 38 55 38h71q29 0 36.5 -10t2.5 -38l-52 -313h36q12 0 20 -1.5t15.5 -10t4.5 -25.5 q-6 -38 -54 -38h-26q-52 -28 -64 -99q-2 -13 8 -22t22 -9q10 0 23 8q18 16 26 23t19.5 13.5t18.5 5t13 -9.5q7 -10 7 -24.5t-8 -22.5q-56 -61 -114 -61q-47 0 -70.5 31.5t-16.5 69.5q9 53 67 99q-16 5 -17 23q-54 -31 -115 -31q-146 0 -125 125l40 242h-36q-12 0 -20 1.5 t-16 10t-5 25.5z" />
<glyph unicode="&#x174;" d="M106 573q6 38 53 38h77q13 0 21 -1.5t15.5 -10.5t4.5 -26q-6 -37 -54 -37h-15l-16 -407l82 217q16 27 50 27q37 0 43 -28l9 -215l118 406h-15q-13 0 -20.5 1.5t-15 10t-4.5 25.5q6 38 53 38h77q12 0 20 -1.5t16 -10.5t5 -26q-7 -35 -45 -37l-152 -503q-13 -41 -55 -41 q-38 0 -41 30l-11 235l-93 -240q-17 -25 -49 -25q-8 0 -13 1t-12.5 4t-11.5 12.5t-4 23.5l14 503q-38 3 -31 37zM229 702q3 23 63 43l83 28q17 6 32 0l73 -28q26 -11 38.5 -20t10.5 -23q-7 -39 -43 -39q-8 0 -46 12l-62 20l-70 -20q-42 -12 -50 -12q-19 0 -25.5 11.5 t-3.5 27.5z" />
<glyph unicode="&#x175;" d="M81 399q5 37 55 37h112q15 0 23.5 -1.5t15 -10.5t3.5 -26t-13 -25.5t-18.5 -10t-23.5 -1.5h-38l2 -248l59 129q18 26 51 26q27 0 35 -13t14 -65l6 -75l83 246h-38q-15 0 -23.5 1.5t-15 10.5t-3.5 26q5 37 55 37h112q14 0 22.5 -1.5t15.5 -10.5t5 -25q-4 -24 -17.5 -31 t-40.5 -7l-111 -321q-8 -24 -18.5 -34t-39.5 -10q-34 0 -44 21l-14 145l-40 -92q-20 -50 -32.5 -62t-44.5 -12q-31 0 -38.5 10t-6.5 34l-5 321q-27 0 -37.5 7t-6.5 31zM196 507q1 11 9 20.5t15 14t29 17.5l100 58q18 11 32 0l80 -58q18 -13 23.5 -18t10.5 -14t3 -20 q-8 -32 -46 -32q-10 0 -39 21l-61 42l-75 -42q-36 -21 -47 -21q-20 0 -28 8t-6 24z" />
<glyph unicode="&#x176;" d="M113 574q6 37 53 37h102q12 0 20 -1.5t15.5 -10t4.5 -25.5q-6 -36 -47 -38l58 -203l122 203q-18 1 -27 9t-6 29q6 37 52 37h102q13 0 21 -1.5t15.5 -10.5t4.5 -26q-6 -37 -54 -37h-16l-188 -292l-28 -169h16q14 0 21.5 -1.5t14.5 -10.5t4 -26q-6 -37 -53 -37h-115 q-14 0 -22 1.5t-15 10.5t-4 26q6 37 54 37h16l28 169l-93 292h-16q-13 0 -21 1.5t-15 10.5t-4 26zM229 702q3 23 63 43l83 28q17 6 32 0l73 -28q26 -11 38.5 -20t10.5 -23q-7 -39 -43 -39q-8 0 -46 12l-62 20l-70 -20q-42 -12 -50 -12q-19 0 -25.5 11.5t-3.5 27.5z" />
<glyph unicode="&#x177;" d="M19 -134q3 22 19 36t39 14q22 0 33.5 -14t8.5 -36q-1 -5 -3.5 -9t-4.5 -6l-4 -4l-3 -3q15 0 38 17t42 44q7 10 18.5 32.5t22 45t12.5 25.5l-81 353h-25q-13 0 -21 1.5t-15.5 10t-4.5 25.5q7 38 54 38h114q10 0 16 -1t13.5 -4t10 -11.5t0.5 -21.5q-6 -37 -53 -37h-13 l56 -261l129 261h-16q-10 0 -16 1t-13.5 4t-10 11.5t-0.5 21.5q5 37 53 37h114q10 0 16 -1t13.5 -4t10 -11.5t0.5 -21.5q-6 -37 -53 -37h-24l-222 -439q-8 -14 -17.5 -29t-34 -45.5t-57.5 -50t-68 -19.5q-38 0 -58.5 26.5t-14.5 61.5zM196 507q1 11 9 20.5t15 14t29 17.5 l100 58q18 11 32 0l80 -58q18 -13 23.5 -18t10.5 -14t3 -20q-8 -32 -46 -32q-10 0 -39 21l-61 42l-75 -42q-36 -21 -47 -21q-20 0 -28 8t-6 24z" />
<glyph unicode="&#x178;" d="M113 574q6 37 53 37h102q12 0 20 -1.5t15.5 -10t4.5 -25.5q-6 -36 -47 -38l58 -203l122 203q-18 1 -27 9t-6 29q6 37 52 37h102q13 0 21 -1.5t15.5 -10.5t4.5 -26q-6 -37 -54 -37h-16l-188 -292l-28 -169h16q14 0 21.5 -1.5t14.5 -10.5t4 -26q-6 -37 -53 -37h-115 q-14 0 -22 1.5t-15 10.5t-4 26q6 37 54 37h16l28 169l-93 292h-16q-13 0 -21 1.5t-15 10.5t-4 26zM232 715q4 22 21.5 36.5t39.5 14.5t34.5 -14.5t8.5 -36.5t-21.5 -37t-39.5 -15t-34.5 15t-8.5 37zM427 715q4 22 21.5 36.5t39.5 14.5t34.5 -14.5t8.5 -36.5t-21.5 -37 t-39.5 -15t-34.5 15t-8.5 37z" />
<glyph unicode="&#x179;" d="M53 41q3 18 17 34l388 461h-229l-7 -44q-3 -16 -5.5 -23.5t-13.5 -16t-31 -8.5q-19 0 -27.5 7.5t-7.5 18t2 22.5l12 71q4 29 15.5 38.5t40.5 9.5h326q11 0 17 -1t13.5 -4.5t9.5 -12.5t0 -23q-3 -18 -17 -34l-388 -461h245l10 62q2 12 4 18.5t7 14.5t14.5 11.5t24.5 3.5 q19 0 27.5 -7.5t7.5 -18t-2 -22.5l-15 -89q-5 -29 -15.5 -38.5t-39.5 -9.5h-343q-11 0 -17 1t-13.5 4.5t-9.5 12.5t0 23zM272 719q3 24 35 36l138 58l23 6q18 0 28 -12t7 -30q-4 -26 -38 -41l-139 -58q-13 -5 -22 -5q-20 0 -27.5 17t-4.5 29z" />
<glyph unicode="&#x17a;" d="M38 41q2 15 6.5 21.5t24.5 23.5l336 275h-216l-3 -18q-3 -16 -5.5 -24t-13.5 -16t-31 -8q-19 0 -27 7.5t-7.5 18t1.5 22.5l8 45q4 28 15.5 38t40.5 10h332q11 0 17 -1t13.5 -4.5t9.5 -12.5t0 -23q-2 -15 -7 -22t-25 -23l-334 -275h234l4 29q2 12 4 18.5t7 14.5t14.5 11.5 t24.5 3.5q19 0 27.5 -7.5t7.5 -18t-2 -22.5l-9 -56q-7 -41 -36 -48h-370q-11 0 -17.5 1t-14 4.5t-9.5 12.5t0 23zM239 522q4 24 35 36l139 58l23 6q18 0 28 -12t7 -30q-4 -27 -39 -41l-139 -58q-12 -5 -22 -5q-14 0 -22 10t-9.5 19.5t-0.5 16.5z" />
<glyph unicode="&#x17b;" d="M53 41q3 18 17 34l388 461h-229l-7 -44q-3 -16 -5.5 -23.5t-13.5 -16t-31 -8.5q-19 0 -27.5 7.5t-7.5 18t2 22.5l12 71q4 29 15.5 38.5t40.5 9.5h326q11 0 17 -1t13.5 -4.5t9.5 -12.5t0 -23q-3 -18 -17 -34l-388 -461h245l10 62q2 12 4 18.5t7 14.5t14.5 11.5t24.5 3.5 q19 0 27.5 -7.5t7.5 -18t-2 -22.5l-15 -89q-5 -29 -15.5 -38.5t-39.5 -9.5h-343q-11 0 -17 1t-13.5 4.5t-9.5 12.5t0 23zM328 731q4 23 23 39.5t43 16.5t38 -16.5t10 -39.5q-4 -24 -23.5 -40.5t-43.5 -16.5t-37.5 16.5t-9.5 40.5z" />
<glyph unicode="&#x17c;" d="M38 41q2 15 6.5 21.5t24.5 23.5l336 275h-216l-3 -18q-3 -16 -5.5 -24t-13.5 -16t-31 -8q-19 0 -27 7.5t-7.5 18t1.5 22.5l8 45q4 28 15.5 38t40.5 10h332q11 0 17 -1t13.5 -4.5t9.5 -12.5t0 -23q-2 -15 -7 -22t-25 -23l-334 -275h234l4 29q2 12 4 18.5t7 14.5t14.5 11.5 t24.5 3.5q19 0 27.5 -7.5t7.5 -18t-2 -22.5l-9 -56q-7 -41 -36 -48h-370q-11 0 -17.5 1t-14 4.5t-9.5 12.5t0 23zM298 550q4 23 23 39.5t43 16.5t38 -16.5t10 -39.5q-5 -24 -24 -40.5t-43 -16.5t-37.5 16.5t-9.5 40.5z" />
<glyph unicode="&#x17d;" d="M53 41q3 18 17 34l388 461h-229l-7 -44q-3 -16 -5.5 -23.5t-13.5 -16t-31 -8.5q-19 0 -27.5 7.5t-7.5 18t2 22.5l12 71q4 29 15.5 38.5t40.5 9.5h326q11 0 17 -1t13.5 -4.5t9.5 -12.5t0 -23q-3 -18 -17 -34l-388 -461h245l10 62q2 12 4 18.5t7 14.5t14.5 11.5t24.5 3.5 q19 0 27.5 -7.5t7.5 -18t-2 -22.5l-15 -89q-5 -29 -15.5 -38.5t-39.5 -9.5h-343q-11 0 -17 1t-13.5 4.5t-9.5 12.5t0 23zM235 738q7 39 42 39q8 0 46 -12l63 -20l69 20q42 12 50 12q19 0 26 -11.5t4 -27.5q-3 -23 -63 -43l-83 -28q-17 -6 -32 0l-73 28q-26 11 -38.5 20 t-10.5 23z" />
<glyph unicode="&#x17e;" d="M38 41q2 15 6.5 21.5t24.5 23.5l336 275h-216l-3 -18q-3 -16 -5.5 -24t-13.5 -16t-31 -8q-19 0 -27 7.5t-7.5 18t1.5 22.5l8 45q4 28 15.5 38t40.5 10h332q11 0 17 -1t13.5 -4.5t9.5 -12.5t0 -23q-2 -15 -7 -22t-25 -23l-334 -275h234l4 29q2 12 4 18.5t7 14.5t14.5 11.5 t24.5 3.5q19 0 27.5 -7.5t7.5 -18t-2 -22.5l-9 -56q-7 -41 -36 -48h-370q-11 0 -17.5 1t-14 4.5t-9.5 12.5t0 23zM210 591q6 32 45 32q10 0 39 -21l61 -42l75 42q39 21 47 21q20 0 28.5 -8t6.5 -24q-1 -11 -9.5 -20.5t-15.5 -14t-29 -17.5l-100 -58q-18 -11 -32 0l-80 58 q-18 13 -23.5 18t-10 14t-2.5 20z" />
<glyph unicode="&#x17f;" d="M45 38q6 37 55 37h91l47 286h-91q-13 0 -21 1.5t-15.5 10t-4.5 25.5q6 38 55 38h90l7 43q11 64 64 101t119 37q12 0 24 -1.5t31.5 -7t29.5 -20.5t6 -37q-4 -23 -22 -37t-37 -14q-22 0 -33 14.5t-9 27.5q-80 0 -92 -68l-66 -399h91q13 0 21 -1.5t15.5 -10.5t4.5 -26 q-6 -37 -54 -37h-264q-13 0 -21 1.5t-16 10.5t-5 26z" />
<glyph unicode="&#x18e;" d="M32 48l14 86q3 15 5.5 23.5t13.5 16.5t30 8t28 -7t8 -18t-2 -23l-9 -59h245l34 204h-112q-6 -33 -16 -44.5t-36 -11.5q-19 0 -27.5 7.5t-7.5 18t2 22.5l15 91q3 15 5.5 23t13.5 16t30 8q26 0 32 -11.5t1 -43.5h112l30 182h-223l-7 -44q-3 -15 -5.5 -23t-13.5 -16.5 t-30 -8.5q-28 0 -34.5 15.5t0.5 32.5l12 71q5 28 15.5 38t38.5 10h364q13 0 21 -1.5t16 -10t5 -25.5q-6 -38 -55 -38h-21l-76 -461h21q13 0 21 -1.5t15.5 -10.5t4.5 -26q-6 -37 -54 -37h-385q-28 0 -36 9.5t-3 38.5z" />
<glyph unicode="&#x192;" d="M45 38q6 37 55 37h91l47 286h-91q-13 0 -21 1.5t-15.5 10t-4.5 25.5q6 38 55 38h90l7 43q11 64 64 101t119 37q12 0 24 -1.5t31.5 -7t29.5 -20.5t6 -37q-4 -23 -22 -37t-37 -14q-36 0 -42 42q-80 0 -92 -68l-6 -38h112q13 0 21 -1.5t14.5 -10.5t3.5 -26q-6 -37 -52 -37 h-112l-47 -286h91q13 0 21 -1.5t15.5 -10.5t4.5 -26q-6 -37 -54 -37h-264q-13 0 -21 1.5t-16 10.5t-5 26z" />
<glyph unicode="&#x1a0;" d="M94 42q-24 51 11 263q35 211 77 264q19 24 53 36.5t60.5 14.5t69.5 2q103 0 139 -22q5 2 8 3q-26 16 -19 49q3 22 22 38.5t44 17.5q29 -1 38.5 -23t5.5 -51q-12 -65 -63 -96q10 -61 -19 -233q-35 -211 -77 -263q-20 -24 -54 -36.5t-61 -14.5t-70 -2t-69 2t-55.5 14.5 t-40.5 36.5zM174 102q13 -38 98 -38t111 38q27 40 56 216q26 161 13 195q-5 12 -15 19.5t-26 10.5t-27 3.5t-32 0.5q-27 0 -42 -1t-36 -9.5t-33 -25.5q-25 -36 -52 -193q-29 -178 -15 -216z" />
<glyph unicode="&#x1a1;" d="M90 217q14 87 84.5 156.5t160.5 69.5q50 0 89 -24q15 -2 26 9q-24 16 -19 48q4 22 22.5 38.5t43.5 17.5q29 0 39 -22t6 -51q-12 -65 -62 -96q33 -53 29.5 -111t-28 -107.5t-63.5 -84.5q-71 -66 -158 -66q-85 0 -134.5 66t-35.5 157zM175 226q-11 -61 17 -108.5t81 -47.5 q56 0 98.5 49t52.5 107q9 57 -20 99.5t-82 42.5q-54 0 -96 -44.5t-51 -97.5z" />
<glyph unicode="&#x1af;" d="M98 571q2 11 7.5 20t14.5 14.5t20 5.5h150q16 0 23.5 -12t4.5 -28q-1 -7 -5 -13.5t-9.5 -11t-12.5 -7.5t-14 -3h-33l-54 -329q-11 -61 15 -104q26 -39 67 -39q49 0 85 45t46 98l54 329h-33q-15 0 -23 10t-6 25q3 17 14.5 28.5t27.5 11.5h82l15 -3q-17 17 -12 44 q3 22 22 38.5t44 17.5q29 -1 38.5 -22.5t5.5 -50.5q-6 -35 -31.5 -62.5t-59.5 -38.5l-54 -327q-16 -89 -80 -153q-68 -65 -148 -65q-78 0 -125 65q-44 65 -28 153l54 329h-33q-15 0 -23 10t-6 25z" />
<glyph unicode="&#x1b0;" d="M76 395q1 8 5 15t9.5 12.5t12.5 9t15 3.5h95q15 0 23 -10t6 -25l-48 -285q-2 -15 1.5 -24.5t14 -13.5t21.5 -5.5t29 -1.5q41 0 74 23t38 57l35 210h-47q-15 0 -23 10t-6 25q2 16 14 28t28 12h95l21 -2q-26 30 -5 64.5t59 34.5q29 0 38.5 -21.5t5.5 -50.5q-7 -36 -33 -63 t-63 -39l-47 -283h46q16 0 24 -11.5t5 -28.5q-3 -15 -15 -25t-27 -10h-94q-26 0 -31 25q-50 -31 -110 -31q-70 0 -103 28q-38 31 -28 93l41 245h-47q-14 0 -22.5 10.5t-6.5 24.5z" />
<glyph unicode="&#x1dd;" d="M87 208q3 21 12.5 31t17.5 11.5t24 1.5h281q-4 54 -42 85.5t-90 31.5q-71 0 -103 -54q-9 -16 -18.5 -21t-26.5 -5q-7 0 -14.5 1t-16 10t-5.5 24q2 12 15 30t36.5 39t64 36t87.5 15q97 0 153.5 -66t41.5 -159q-16 -93 -91 -159t-165 -66q-94 0 -135 61.5t-26 152.5z M168 178q-3 -59 24.5 -84t68.5 -25q46 0 86.5 30.5t61.5 78.5h-241z" />
<glyph unicode="&#x1e6;" d="M87 306q22 134 104 225t174 91q62 0 104 -39q15 23 25 31t25 8q37 0 29 -48l-23 -135q-2 -12 -4 -18.5t-7 -14.5t-14.5 -11.5t-24.5 -3.5q-21 0 -28 8.5t-7 26.5q1 66 -25.5 93.5t-58.5 27.5q-57 0 -113 -69t-73 -173q-17 -101 15 -171t90 -70q38 0 71.5 35t53.5 105h-32 q-13 0 -21 1.5t-15.5 10.5t-4.5 26q6 37 54 37h116q12 0 20.5 -1.5t16 -10.5t4.5 -25q-6 -38 -52 -38l-26 -156q-3 -15 -5.5 -23.5t-13.5 -16.5t-30 -8q-38 0 -36 31q-52 -42 -116 -42q-91 0 -143 91t-29 226zM235 738q7 39 42 39q8 0 46 -12l63 -20l69 20q42 12 50 12 q19 0 26 -11.5t4 -27.5q-3 -23 -63 -43l-83 -28q-17 -6 -32 0l-73 28q-26 11 -38.5 20t-10.5 23z" />
<glyph unicode="&#x1e7;" d="M15 -72q14 78 90 123q-14 29 -8 68q7 39 29 66q-23 38 -15 93q11 66 68.5 114.5t128.5 48.5q50 0 89 -27q53 32 109 32q40 0 56.5 -19t12.5 -41q-3 -23 -20 -35.5t-35 -12.5q-11 0 -23 8t-15 25q-25 -5 -42 -12q16 -39 9 -81q-11 -68 -68.5 -116.5t-127.5 -48.5 q-46 0 -80 21q-5 -12 -5 -16q-2 -19 5 -30q4 -6 11.5 -9.5t11.5 -4t16 0t13 0.5h69q90 0 140 -29q32 -19 44 -52t7 -66q-10 -64 -86 -107.5t-174 -43.5q-99 0 -160 43t-50 108zM87 -72q-5 -31 38.5 -54t111.5 -23t119.5 23t56.5 54q3 18 -2 32t-20 22t-29.5 12.5t-40.5 6.5 t-41 2.5t-43 0.5q-54 0 -69.5 -2t-33.5 -12q-40 -22 -47 -62zM176 606q6 32 45 32q10 0 39 -21l61 -42l75 42q39 21 47 21q20 0 28.5 -8t6.5 -24q-1 -11 -9.5 -20.5t-15.5 -14t-29 -17.5l-100 -58q-18 -11 -32 0l-80 58q-18 13 -23.5 18t-10 14t-2.5 20zM193 277 q-6 -36 14.5 -63t56.5 -27t65.5 26.5t35.5 64.5q6 36 -14.5 62.5t-56.5 26.5q-35 0 -64.5 -26t-36.5 -64z" />
<glyph unicode="&#x1ea;" d="M104 305q13 78 23 125t25.5 86t30.5 57t43.5 30.5t58.5 15.5t81 3q38 0 62.5 -1.5t47 -7.5t34.5 -14.5t21.5 -26.5t11.5 -39t0.5 -56.5t-6.5 -74.5t-15 -97q-18 -110 -33 -166.5t-42.5 -92.5t-62.5 -45.5t-100 -11.5q-48 -36 -57 -88q-2 -13 8 -22t23 -9q9 0 22 8 q53 46 78 32q6 -6 6 -22.5t-8 -24.5q-56 -61 -113 -61q-47 0 -71 31.5t-17 69.5q7 45 53 87q-43 3 -67.5 12t-40 26.5t-17.5 56t2.5 87.5t18.5 133zM169 128q3 -36 24.5 -50t79.5 -14q60 0 86 15t40 54q19 50 41 181q22 130 18 176q-4 35 -27 46t-78 11q-58 0 -84.5 -13.5 t-44.5 -57.5q-14 -38 -36 -162q-22 -147 -19 -186z" />
<glyph unicode="&#x1eb;" d="M90 218q16 95 88.5 160.5t157.5 65.5q86 0 136 -66t34 -160q-14 -85 -76.5 -148t-139.5 -74q-56 -34 -67 -95q-2 -13 8 -22t22 -9q11 0 22 8q53 46 78 32q7 -7 6.5 -23t-8.5 -24q-54 -61 -113 -61q-47 0 -70.5 31.5t-16.5 69.5q8 50 64 97q-66 18 -102 77.5t-23 140.5z M175 225q-11 -64 18.5 -110t80.5 -46t95.5 46t55.5 110q10 62 -20 103t-81 41q-50 0 -94.5 -41.5t-54.5 -102.5z" />
<glyph unicode="&#x1f4;" d="M87 306q22 134 104 225t174 91q62 0 104 -39q15 23 25 31t25 8q37 0 29 -48l-23 -135q-2 -12 -4 -18.5t-7 -14.5t-14.5 -11.5t-24.5 -3.5q-21 0 -28 8.5t-7 26.5q1 66 -25.5 93.5t-58.5 27.5q-57 0 -113 -69t-73 -173q-17 -101 15 -171t90 -70q38 0 71.5 35t53.5 105h-32 q-13 0 -21 1.5t-15.5 10.5t-4.5 26q6 37 54 37h116q12 0 20.5 -1.5t16 -10.5t4.5 -25q-6 -38 -52 -38l-26 -156q-3 -15 -5.5 -23.5t-13.5 -16.5t-30 -8q-38 0 -36 31q-52 -42 -116 -42q-91 0 -143 91t-29 226zM272 719q3 24 35 36l138 58l23 6q18 0 28 -12t7 -30 q-4 -26 -38 -41l-139 -58q-13 -5 -22 -5q-20 0 -27.5 17t-4.5 29z" />
<glyph unicode="&#x1f5;" d="M15 -72q14 78 90 123q-14 29 -8 68q7 39 29 66q-23 38 -15 93q11 66 68.5 114.5t128.5 48.5q50 0 89 -27q53 32 109 32q40 0 56.5 -19t12.5 -41q-3 -23 -20 -35.5t-35 -12.5q-11 0 -23 8t-15 25q-25 -5 -42 -12q16 -39 9 -81q-11 -68 -68.5 -116.5t-127.5 -48.5 q-46 0 -80 21q-5 -12 -5 -16q-2 -19 5 -30q4 -6 11.5 -9.5t11.5 -4t16 0t13 0.5h69q90 0 140 -29q32 -19 44 -52t7 -66q-10 -64 -86 -107.5t-174 -43.5q-99 0 -160 43t-50 108zM87 -72q-5 -31 38.5 -54t111.5 -23t119.5 23t56.5 54q3 18 -2 32t-20 22t-29.5 12.5t-40.5 6.5 t-41 2.5t-43 0.5q-54 0 -69.5 -2t-33.5 -12q-40 -22 -47 -62zM193 277q-6 -36 14.5 -63t56.5 -27t65.5 26.5t35.5 64.5q6 36 -14.5 62.5t-56.5 26.5q-35 0 -64.5 -26t-36.5 -64zM205 537q4 24 35 36l139 58l23 6q18 0 28 -12t7 -30q-4 -27 -39 -41l-139 -58q-12 -5 -22 -5 q-14 0 -22 10t-9.5 19.5t-0.5 16.5z" />
<glyph unicode="&#x1fa;" d="M31 37q4 24 27 35q9 3 40 3l201 505q12 29 25 36t42 7t40 -7.5t13 -36.5l33 -504q30 0 43.5 -7.5t9.5 -30.5q-6 -37 -56 -37h-99q-15 0 -23 1.5t-15.5 10t-4.5 25.5q4 23 17 30t43 8l-5 86h-146l-33 -86q29 -1 39.5 -8t6.5 -30q-3 -17 -13 -25.5t-18.5 -10t-23.5 -1.5 h-99q-13 0 -22 1.5t-17 10.5t-5 25zM246 236h110l-11 260zM289 823q4 24 35 36l139 58l23 6q18 0 28 -12t7 -30q-4 -26 -39 -41l-139 -58q-12 -5 -22 -5q-14 0 -22 10t-9.5 19.5t-0.5 16.5zM291 691q5 26 33 46t65 20t59 -20t17 -46q-5 -27 -33 -47.5t-65 -20.5t-59 20.5 t-17 47.5zM347 690q-1 -9 7.5 -14.5t20.5 -5.5t22.5 5.5t11.5 14.5t-7.5 14.5t-20.5 5.5q-31 0 -34 -20z" />
<glyph unicode="&#x1fb;" d="M75 133q12 70 98 109.5t220 42.5q4 43 -23 63.5t-79 20.5l-49 -3q-5 -28 -23.5 -40.5t-36.5 -12.5q-21 0 -33.5 14t-8.5 38q14 79 162 79q101 0 142.5 -48t31.5 -110l-34 -205q14 -6 50 -6q13 0 20.5 -1.5t15 -10t4.5 -25.5q-4 -25 -18.5 -31.5t-44.5 -6.5q-81 0 -102 29 q-64 -35 -146 -35q-76 0 -115.5 41.5t-30.5 97.5zM157 133q-5 -27 18 -45.5t64 -18.5q50 0 86 16q17 7 26.5 17t11.5 16.5t4 19.5l12 74q-97 -4 -156.5 -25t-65.5 -54zM269 705q4 24 35 36l139 58l23 6q18 0 28 -12t7 -30q-4 -26 -39 -41l-138 -58q-13 -5 -22 -5 q-20 0 -27 16.5t-6 29.5zM271 573q5 26 33 46t65 20t59 -20t17 -46q-4 -27 -32.5 -47.5t-65.5 -20.5t-58.5 20.5t-17.5 47.5zM327 572q-1 -9 7.5 -14.5t20.5 -5.5t22.5 5.5t11.5 14.5t-7 14.5t-20 5.5t-23 -5.5t-12 -14.5z" />
<glyph unicode="&#x1fc;" d="M27 37q4 23 17.5 30.5t37.5 7.5l170 461q-36 2 -30 38q6 37 52 37h274q29 0 36.5 -10t2.5 -38l-12 -71q-8 -48 -43 -48t-27 48l7 44h-97l-30 -182h105q13 0 21 -1.5t15 -10.5t4 -26q-6 -37 -52 -37h-105l-34 -204h105l9 59q8 48 43 48t27 -48l-14 -86q-5 -29 -16 -38.5 t-39 -9.5h-189q-13 0 -21.5 1.5t-16 10.5t-4.5 26q7 35 46 37l17 103h-94l-38 -103q20 -1 30 -8.5t6 -29.5q-6 -37 -53 -37h-69q-13 0 -21 1.5t-15.5 10t-4.5 25.5zM218 253h79l47 283h-22zM272 719q3 24 35 36l138 58l23 6q18 0 28 -12t7 -30q-4 -26 -38 -41l-139 -58 q-13 -5 -22 -5q-20 0 -27.5 17t-4.5 29z" />
<glyph unicode="&#x1fd;" d="M52 123q9 60 70.5 96t147.5 38l4 25q14 87 -55 87q-9 0 -18 -5q-12 -51 -59 -51q-22 0 -34.5 14t-8.5 38q6 32 37.5 55.5t97.5 23.5q71 0 102 -63q51 63 114 63q57 0 84.5 -55.5t10.5 -153.5q-5 -29 -15 -39t-40 -10h-159q-1 -53 20 -85t52 -32q25 0 44 33q11 23 21.5 35 t27.5 12q15 0 23 -10.5t6 -24.5q-2 -15 -17 -41t-49 -52.5t-74 -26.5q-60 0 -100 62q-25 -29 -62 -45.5t-74 -16.5q-53 0 -79.5 39.5t-17.5 89.5zM120 124q-4 -21 8 -38t37 -17q28 0 55 19q19 15 26 50l9 46q-56 -3 -93.5 -18.5t-41.5 -41.5zM241 535q4 24 35 36l139 58 l23 6q18 0 28 -12t7 -30q-4 -27 -39 -41l-139 -58q-12 -5 -22 -5q-14 0 -22 10t-9.5 19.5t-0.5 16.5zM346 260h134q11 109 -39 109q-27 0 -54.5 -33t-40.5 -76z" />
<glyph unicode="&#x1fe;" d="M83 150q2 38 21 155q13 78 23 125t25.5 86t30.5 57t43.5 30.5t58.5 15.5t81 3q40 0 62 -2l19 39q17 35 43 35q4 0 10.5 -1.5t15.5 -11t7 -24.5q-2 -8 -24 -54q40 -21 44.5 -85.5t-21.5 -212.5q-10 -58 -17.5 -97t-18 -74.5t-19.5 -56.5t-24.5 -38.5t-30.5 -26t-40 -14.5 t-49.5 -7.5t-62.5 -1.5q-40 0 -63 2l-18 -39q-17 -35 -43 -35q-4 0 -10.5 1.5t-15.5 11t-7 24.5q2 8 24 54q-30 16 -39 48.5t-5 93.5zM167 90l223 456q-12 1 -38 1q-61 0 -90 -11t-46 -49q-20 -46 -43 -182q-31 -187 -6 -215zM236 65q12 -1 38 -1q61 0 90 11t46 49 q20 46 43 182q31 187 6 215zM259 719q3 24 35 36l138 58l23 6q18 0 28 -12t7 -30q-4 -26 -38 -41l-139 -58q-13 -5 -22 -5q-20 0 -27.5 17t-4.5 29z" />
<glyph unicode="&#x1ff;" d="M24 -99q2 10 24 41l80 105q-65 69 -49 171q16 93 91 159.5t166 66.5q43 0 77 -15l90 121q15 22 36 22q13 0 24.5 -10t8.5 -27q0 -8 -12 -24l-90 -122q63 -73 47 -171q-15 -93 -90.5 -158.5t-165.5 -65.5q-42 0 -75 15l-92 -123q-15 -22 -37 -22q-13 0 -24.5 10t-8.5 27z M148 218q-10 -60 27 -106l188 252q-16 5 -40 5q-62 0 -113.5 -44t-61.5 -107zM234 522q4 24 35 36l139 58l23 6q18 0 28 -12t7 -30q-4 -27 -39 -41l-139 -58q-12 -5 -22 -5q-14 0 -22 10t-9.5 19.5t-0.5 16.5zM236 74q15 -5 39 -5q62 0 112.5 43.5t60.5 105.5q12 62 -25 107 z" />
<glyph unicode="&#x200;" d="M31 37q4 24 27 35q9 3 40 3l201 505q12 29 25 36t42 7t40 -7.5t13 -36.5l33 -504q30 0 43.5 -7.5t9.5 -30.5q-6 -37 -56 -37h-99q-15 0 -23 1.5t-15.5 10t-4.5 25.5q4 23 17 30t43 8l-5 86h-146l-33 -86q29 -1 39.5 -8t6.5 -30q-3 -17 -13 -25.5t-18.5 -10t-23.5 -1.5 h-99q-13 0 -22 1.5t-17 10.5t-5 25zM186 782q3 17 17.5 30t31.5 13q15 0 38 -20l40 -44q25 -27 22 -42t-19 -30.5t-31 -15.5q-16 0 -36 22l-40 43q-26 22 -23 44zM246 236h110l-11 260zM380 782q3 17 17.5 30t31.5 13q15 0 38 -20l40 -44q25 -27 22 -42t-19 -30.5t-31 -15.5 q-16 0 -36 22l-40 43q-26 22 -23 44z" />
<glyph unicode="&#x201;" d="M75 133q12 70 98 109.5t220 42.5q4 43 -23 63.5t-79 20.5l-49 -3q-5 -28 -23.5 -40.5t-36.5 -12.5q-21 0 -33.5 14t-8.5 38q14 79 162 79q101 0 142.5 -48t31.5 -110l-34 -205q14 -6 50 -6q13 0 20.5 -1.5t15 -10t4.5 -25.5q-4 -25 -18.5 -31.5t-44.5 -6.5q-81 0 -102 29 q-64 -35 -146 -35q-76 0 -115.5 41.5t-30.5 97.5zM157 133q-5 -27 18 -45.5t64 -18.5q50 0 86 16q17 7 26.5 17t11.5 16.5t4 19.5l12 74q-97 -4 -156.5 -25t-65.5 -54zM184 595q3 17 17.5 30t31.5 13q15 0 38 -20l40 -44q24 -26 22 -42q-3 -15 -19 -30.5t-31 -15.5 q-16 0 -36 22l-40 43q-27 23 -23 44zM378 595q3 17 17.5 30t31.5 13q15 0 38 -20l40 -44q24 -26 22 -42q-3 -15 -19 -30.5t-31 -15.5q-16 0 -36 22l-40 43q-27 23 -23 44z" />
<glyph unicode="&#x204;" d="M30 37q6 38 55 38h21l76 461h-21q-13 0 -21 1.5t-15.5 10.5t-4.5 26q6 37 54 37h364q28 0 35.5 -10t2.5 -38l-12 -71q-3 -16 -5.5 -23.5t-13.5 -16t-31 -8.5q-19 0 -27.5 7.5t-7.5 18t2 22.5l7 44h-223l-30 -182h112q7 33 16 44t35 11q19 0 27.5 -7.5t7.5 -17.5t-2 -22 l-15 -91q-3 -15 -5.5 -23.5t-13.5 -16.5t-30 -8q-26 0 -32 12.5t0 43.5h-112l-34 -204h245l9 59q2 12 4 18.5t7 14.5t14.5 11.5t24.5 3.5q19 0 27.5 -7.5t7.5 -18t-2 -22.5l-14 -86q-5 -29 -16 -38.5t-39 -9.5h-385q-13 0 -21 1.5t-16 10t-5 25.5zM215 782q3 17 17.5 30 t31.5 13q15 0 38 -20l40 -44q25 -27 22 -42t-19 -30.5t-31 -15.5q-16 0 -36 22l-40 43q-26 22 -23 44zM409 782q3 17 17.5 30t31.5 13q15 0 38 -20l40 -44q25 -27 22 -42t-19 -30.5t-31 -15.5q-16 0 -36 22l-40 43q-26 22 -23 44z" />
<glyph unicode="&#x205;" d="M89 219q15 93 90 159t165 66q94 0 135.5 -61.5t25.5 -152.5q-3 -21 -12.5 -31t-17.5 -11.5t-24 -1.5h-281q4 -54 42.5 -85.5t90.5 -31.5q70 0 103 54q9 16 18 21t26 5q7 0 14.5 -1t16 -10t5.5 -24q-2 -12 -15 -30t-36.5 -39t-64 -36t-87.5 -15q-97 0 -153.5 66t-40.5 159 zM183 260h241q3 59 -24 84t-68 25q-46 0 -87.5 -30.5t-61.5 -78.5zM184 595q3 17 17.5 30t31.5 13q15 0 38 -20l40 -44q24 -26 22 -42q-3 -15 -19 -30.5t-31 -15.5q-16 0 -36 22l-40 43q-27 23 -23 44zM378 595q3 17 17.5 30t31.5 13q15 0 38 -20l40 -44q24 -26 22 -42 q-3 -15 -19 -30.5t-31 -15.5q-16 0 -36 22l-40 43q-27 23 -23 44z" />
<glyph unicode="&#x208;" d="M82 38q6 37 55 37h97l76 461h-97q-13 0 -21 1.5t-15.5 10.5t-4.5 26q6 37 54 37h277q13 0 21 -1.5t16 -10.5t5 -26q-6 -37 -55 -37h-97l-76 -461h97q13 0 21 -1.5t15.5 -10.5t4.5 -26q-6 -37 -54 -37h-277q-13 0 -21 1.5t-16 10.5t-5 26zM215 782q3 17 17.5 30t31.5 13 q15 0 38 -20l40 -44q25 -27 22 -42t-19 -30.5t-31 -15.5q-16 0 -36 22l-40 43q-26 22 -23 44zM409 782q3 17 17.5 30t31.5 13q15 0 38 -20l40 -44q25 -27 22 -42t-19 -30.5t-31 -15.5q-16 0 -36 22l-40 43q-26 22 -23 44z" />
<glyph unicode="&#x209;" d="M81 37q6 38 55 38h110l47 286h-102q-9 0 -15 1t-14 4t-11 11.5t-1 21.5q5 37 54 37h138q29 0 36.5 -10t2.5 -38l-52 -313h94q13 0 21 -1.5t15.5 -10.5t4.5 -26q-6 -37 -54 -37h-287q-13 0 -21 1.5t-16 10t-5 25.5zM182 582q3 17 17.5 30t31.5 13q15 0 38 -20l40 -44 q24 -26 22 -42q-3 -15 -19 -30.5t-31 -15.5q-16 0 -36 22l-40 43q-27 23 -23 44zM376 582q3 17 17.5 30t31.5 13q15 0 38 -20l40 -44q24 -26 22 -42q-3 -15 -19 -30.5t-31 -15.5q-16 0 -36 22l-40 43q-27 23 -23 44z" />
<glyph unicode="&#x20c;" d="M104 305q13 78 23 125t25.5 86t30.5 57t43.5 30.5t58.5 15.5t81 3q38 0 62.5 -1.5t47 -7.5t34.5 -14.5t21.5 -26.5t11.5 -39t0.5 -56.5t-6.5 -74.5t-15 -97t-17.5 -97t-18 -74.5t-19.5 -56.5t-24.5 -38.5t-30.5 -26t-40 -14.5t-49.5 -7.5t-62.5 -1.5q-51 0 -80 2.5 t-53 15.5t-33 31t-11.5 57t3 85.5t18.5 124.5zM169 128q3 -36 24.5 -50t79.5 -14q60 0 86 15t40 54q19 50 41 181q22 130 18 176q-4 35 -27 46t-78 11q-58 0 -84.5 -13.5t-44.5 -57.5q-14 -38 -36 -162q-22 -147 -19 -186zM215 782q3 17 17.5 30t31.5 13q15 0 38 -20l40 -44 q25 -27 22 -42t-19 -30.5t-31 -15.5q-16 0 -36 22l-40 43q-26 22 -23 44zM409 782q3 17 17.5 30t31.5 13q15 0 38 -20l40 -44q25 -27 22 -42t-19 -30.5t-31 -15.5q-16 0 -36 22l-40 43q-26 22 -23 44z" />
<glyph unicode="&#x20d;" d="M90 218q16 95 88.5 160.5t157.5 65.5q86 0 136 -66t34 -160t-88.5 -159t-156.5 -65q-85 0 -136 64.5t-35 159.5zM175 225q-11 -64 18.5 -110t80.5 -46t95.5 46t55.5 110q10 62 -20 103t-81 41q-50 0 -94.5 -41.5t-54.5 -102.5zM184 595q3 17 17.5 30t31.5 13q15 0 38 -20 l40 -44q24 -26 22 -42q-3 -15 -19 -30.5t-31 -15.5q-16 0 -36 22l-40 43q-27 23 -23 44zM378 595q3 17 17.5 30t31.5 13q15 0 38 -20l40 -44q24 -26 22 -42q-3 -15 -19 -30.5t-31 -15.5q-16 0 -36 22l-40 43q-27 23 -23 44z" />
<glyph unicode="&#x210;" d="M27 37q6 38 53 38h17l76 461h-17q-13 0 -20.5 1.5t-14.5 10t-4 25.5q6 38 52 38h173q87 0 133.5 -51.5t34.5 -120.5q-5 -35 -30 -72.5t-70 -63.5q24 -24 32 -55q5 -25 -6 -95q-4 -23 -5.5 -34.5t-2.5 -26.5t2.5 -21.5t10.5 -6.5q10 0 14 24q8 49 50 49q10 0 17 -1 t13.5 -10.5t3.5 -27.5q-6 -37 -35.5 -73t-74.5 -36q-56 0 -76 49q-9 31 -8 51t11 77q6 27 5.5 46t-11.5 31q-25 25 -70 25h-68l-32 -193h16q13 0 21 -1.5t15 -10.5t4 -26q-6 -37 -53 -37h-116q-13 0 -20.5 1.5t-15 10t-4.5 25.5zM186 782q3 17 17.5 30t31.5 13q15 0 38 -20 l40 -44q25 -27 22 -42t-19 -30.5t-31 -15.5q-16 0 -36 22l-40 43q-26 22 -23 44zM223 343h63q58 0 96.5 29.5t44.5 66.5q7 37 -21.5 67t-87.5 30h-63zM380 782q3 17 17.5 30t31.5 13q15 0 38 -20l40 -44q25 -27 22 -42t-19 -30.5t-31 -15.5q-16 0 -36 22l-40 43 q-26 22 -23 44z" />
<glyph unicode="&#x211;" d="M36 38q6 37 54 37h71l47 286h-71q-10 0 -16 1t-13.5 4t-10 11.5t-0.5 21.5q5 37 53 37h107q29 0 36.5 -10t2.5 -38l-3 -14q79 67 170 67q58 0 75.5 -21.5t12.5 -46.5q-4 -22 -20.5 -35.5t-36.5 -13.5t-32.5 12t-9.5 30q-76 -2 -127 -54.5t-62 -122.5l-19 -114h100 q13 0 21 -1.5t15.5 -10.5t4.5 -26q-6 -37 -54 -37h-254q-13 0 -21 1.5t-15.5 10.5t-4.5 26zM182 582q3 17 17.5 30t31.5 13q15 0 38 -20l40 -44q24 -26 22 -42q-3 -15 -19 -30.5t-31 -15.5q-16 0 -36 22l-40 43q-27 23 -23 44zM376 582q3 17 17.5 30t31.5 13q15 0 38 -20 l40 -44q24 -26 22 -42q-3 -15 -19 -30.5t-31 -15.5q-16 0 -36 22l-40 43q-27 23 -23 44z" />
<glyph unicode="&#x214;" d="M99 574q6 37 54 37h125q13 0 21 -1.5t16 -10t5 -25.5q-6 -38 -55 -38h-21l-54 -325q-11 -69 15.5 -108t67.5 -39q40 0 80 39.5t51 107.5l54 325h-21q-13 0 -21 1.5t-15.5 10.5t-4.5 26q6 37 54 37h125q13 0 21 -1.5t16 -10t5 -25.5q-6 -38 -55 -38h-21l-54 -329 q-15 -92 -82.5 -155t-144.5 -63t-122.5 63t-30.5 155l54 329h-21q-13 0 -21 1.5t-15.5 10.5t-4.5 26zM215 782q3 17 17.5 30t31.5 13q15 0 38 -20l40 -44q25 -27 22 -42t-19 -30.5t-31 -15.5q-16 0 -36 22l-40 43q-26 22 -23 44zM409 782q3 17 17.5 30t31.5 13q15 0 38 -20 l40 -44q25 -27 22 -42t-19 -30.5t-31 -15.5q-16 0 -36 22l-40 43q-26 22 -23 44z" />
<glyph unicode="&#x215;" d="M77 398q6 38 54 38h71q29 0 36.5 -10t2.5 -38l-44 -263q-2 -15 -2 -27t15 -20.5t47 -8.5q20 0 41 5t46 27.5t31 59.5l33 200h-36q-12 0 -20 1.5t-16 10t-5 25.5q6 38 55 38h71q28 0 36 -10t3 -38l-52 -313h36q12 0 19.5 -1.5t15 -10.5t4.5 -25q-6 -38 -53 -38h-71 q-39 0 -42 25q-52 -31 -114 -31q-65 0 -101.5 28.5t-24.5 96.5l40 242h-36q-8 0 -14 1t-14 4t-11 11t-1 21zM182 582q3 17 17.5 30t31.5 13q15 0 38 -20l40 -44q24 -26 22 -42q-3 -15 -19 -30.5t-31 -15.5q-16 0 -36 22l-40 43q-27 23 -23 44zM376 582q3 17 17.5 30t31.5 13 q15 0 38 -20l40 -44q24 -26 22 -42q-3 -15 -19 -30.5t-31 -15.5q-16 0 -36 22l-40 43q-27 23 -23 44z" />
<glyph unicode="&#x218;" d="M56 37l22 129q3 16 5.5 23.5t13.5 15.5t30 8q18 0 26.5 -6t8 -15.5t-0.5 -19.5q-7 -52 34 -82q38 -26 100 -26q51 0 86.5 31t42.5 70q14 82 -86 102l-108 27q-59 17 -86 62t-18 98q11 68 73 118t144 50q77 0 125 -40q18 40 47 40q37 0 29 -48l-22 -129q-2 -11 -4 -17.5 t-7 -14.5t-14.5 -11.5t-24.5 -3.5q-19 0 -27 7t-8 26q0 116 -108 116q-47 0 -83 -26.5t-42 -62.5q-5 -30 12.5 -52.5t46.5 -31.5l75 -18q62 -15 86.5 -26t49.5 -39q40 -52 28 -121q-12 -72 -74 -126.5t-147 -54.5q-94 0 -149 40q-11 -22 -21 -31t-26 -9q-37 0 -29 48z M162 -194q3 19 30 28q34 8 52 42h-3q-22 0 -35.5 15.5t-9.5 39.5q4 21 21.5 36.5t42.5 15.5q28 0 44.5 -22t10.5 -58q-10 -57 -55.5 -92.5t-72.5 -35.5q-12 0 -19.5 10t-5.5 21z" />
<glyph unicode="&#x219;" d="M76 42l16 94q2 12 4 18.5t7 14.5t14.5 11.5t24.5 3.5q21 0 27.5 -7.5t8.5 -26.5q13 -81 104 -81q59 0 90.5 17t36.5 44q2 16 -7 27.5t-30 19t-35 10.5t-37 7q-34 5 -55.5 9.5t-49.5 14.5t-43.5 22.5t-24.5 33.5t-4 48q3 17 12.5 34.5t31 39t65.5 35t104 13.5q58 0 97 -17 q13 17 37 17q36 0 29 -47l-11 -68q-2 -11 -4 -17.5t-7 -14.5t-14.5 -11.5t-24.5 -3.5q-25 0 -31 10.5t-3 29.5q1 21 -16 34t-66 13q-59 0 -90 -13.5t-34 -33.5q-5 -28 46 -40l98 -18q15 -2 29 -5.5t39 -13.5t41.5 -23.5t27 -37.5t5.5 -54q-3 -21 -15 -42t-35 -43.5 t-66 -36.5t-100 -14q-73 0 -117 33q-19 -33 -46 -33q-37 0 -29 48zM162 -194q3 19 30 28q34 8 52 42h-3q-22 0 -35.5 15.5t-9.5 39.5q4 21 21.5 36.5t42.5 15.5q28 0 44.5 -22t10.5 -58q-10 -57 -55.5 -92.5t-72.5 -35.5q-12 0 -19.5 10t-5.5 21z" />
<glyph unicode="&#x21a;" d="M106 492l12 71q4 29 15.5 38.5t40.5 9.5h381q29 0 36.5 -10t2.5 -38l-12 -71q-3 -15 -6 -23.5t-14 -16.5t-30 -8t-27.5 7.5t-7.5 18t2 22.5l7 44h-113l-76 -461h43q13 0 21 -1.5t15 -10.5t4 -26q-6 -37 -53 -37h-169q-13 0 -21 1.5t-15.5 10.5t-4.5 26q6 37 54 37h43 l76 461h-114l-7 -44q-3 -15 -6 -23.5t-14 -16.5t-30 -8t-27.5 7.5t-7.5 18t2 22.5zM162 -194q3 19 30 28q34 8 52 42h-3q-22 0 -35.5 15.5t-9.5 39.5q4 21 21.5 36.5t42.5 15.5q28 0 44.5 -22t10.5 -58q-10 -57 -55.5 -92.5t-72.5 -35.5q-12 0 -19.5 10t-5.5 21z" />
<glyph unicode="&#x21b;" d="M89 398q6 38 54 38h77l12 72q2 11 4 17.5t7 14.5t14.5 11.5t24.5 3.5q19 0 27 -7.5t7.5 -17.5t-1.5 -22l-12 -72h152q10 0 16 -1t13.5 -4t10 -11.5t0.5 -21.5q-6 -37 -53 -37h-152l-37 -225q-13 -67 56 -67q14 0 29 4t31.5 19t21.5 40q2 13 5 21t13.5 15.5t28.5 7.5 q19 0 28 -7t8.5 -17t-1.5 -21q-11 -65 -64.5 -101t-116.5 -36t-99 33.5t-24 103.5l38 230h-78q-13 0 -20.5 1.5t-15 10t-4.5 25.5zM162 -194q3 19 30 28q34 8 52 42h-3q-22 0 -35.5 15.5t-9.5 39.5q4 21 21.5 36.5t42.5 15.5q28 0 44.5 -22t10.5 -58q-10 -57 -55.5 -92.5 t-72.5 -35.5q-12 0 -19.5 10t-5.5 21z" />
<glyph unicode="&#x258;" d="M71 114q6 35 48 35q17 0 24.5 -5t11.5 -21q14 -54 85 -54q52 0 100.5 31.5t70.5 85.5h-281q-16 0 -24 1.5t-13.5 11.5t-2.5 31q16 92 77.5 153t155.5 61q90 0 143 -66t38 -159q-16 -93 -94.5 -159t-175.5 -66q-47 0 -82.5 15t-52 36t-23.5 39t-5 30zM181 260h241 q-4 48 -34.5 78.5t-76.5 30.5q-97 0 -130 -109z" />
<glyph unicode="&#x259;" d="M87 208q3 21 12.5 31t17.5 11.5t24 1.5h281q-4 54 -42 85.5t-90 31.5q-71 0 -103 -54q-9 -16 -18.5 -21t-26.5 -5q-7 0 -14.5 1t-16 10t-5.5 24q2 12 15 30t36.5 39t64 36t87.5 15q97 0 153.5 -66t41.5 -159q-16 -93 -91 -159t-165 -66q-94 0 -135 61.5t-26 152.5z M168 178q-3 -59 24.5 -84t68.5 -25q46 0 86.5 30.5t61.5 78.5h-241z" />
<glyph unicode="&#x2be;" d="M167 269q3 20 17.5 31.5t32.5 11.5q38 0 35 -40h31q56 0 84.5 34t34.5 68q7 42 -17 71.5t-64 29.5q-42 0 -64 -35q-12 -22 -38 -22q-6 0 -12.5 1t-13.5 9t-5 21q1 7 9.5 20t24.5 30.5t46.5 29.5t67.5 12q70 0 109.5 -49.5t28.5 -117.5q-10 -61 -62.5 -114.5t-139.5 -53.5 q-18 0 -33.5 2t-35.5 7.5t-30 19t-6 34.5z" />
<glyph unicode="&#x2bf;" d="M175 373q10 61 62.5 114.5t139.5 53.5q18 0 33.5 -2t35.5 -7.5t30.5 -19t6.5 -34.5q-4 -20 -18 -31.5t-32 -11.5q-39 0 -36 40h-31q-56 0 -84.5 -34t-34.5 -68q-7 -42 17 -71.5t64 -29.5q46 0 64 35q13 22 39 22q6 0 12.5 -1t13.5 -9t5 -21q-1 -7 -9.5 -20t-24.5 -30.5 t-47 -29.5t-68 -12q-70 0 -109.5 49.5t-28.5 117.5z" />
<glyph unicode="&#x2c6;" d="M196 507q1 11 9 20.5t15 14t29 17.5l100 58q18 11 32 0l80 -58q18 -13 23.5 -18t10.5 -14t3 -20q-8 -32 -46 -32q-10 0 -39 21l-61 42l-75 -42q-36 -21 -47 -21q-20 0 -28 8t-6 24z" />
<glyph unicode="&#x2c7;" d="M210 591q6 32 45 32q10 0 39 -21l61 -42l75 42q39 21 47 21q20 0 28.5 -8t6.5 -24q-1 -11 -9.5 -20.5t-15.5 -14t-29 -17.5l-100 -58q-18 -11 -32 0l-80 58q-18 13 -23.5 18t-10 14t-2.5 20z" />
<glyph unicode="&#x2d8;" d="M180 574q7 38 44 38q31 0 31 -34q2 -14 102 -14t106 14q4 10 7.5 15.5t13 12t22.5 6.5q18 0 26.5 -10t5.5 -28q-5 -30 -25.5 -49t-53 -27t-57 -10t-58.5 -2t-57.5 2t-53.5 10t-44 27t-9 49z" />
<glyph unicode="&#x2d9;" d="M298 550q4 23 23 39.5t43 16.5t38 -16.5t10 -39.5q-5 -24 -24 -40.5t-43 -16.5t-37.5 16.5t-9.5 40.5z" />
<glyph unicode="&#x2da;" d="M269 560q5 26 33 46t65 20t59 -20t17 -46q-4 -27 -32.5 -47.5t-65.5 -20.5t-58.5 20.5t-17.5 47.5zM325 559q-1 -9 7.5 -14.5t20.5 -5.5t22.5 5.5t11.5 14.5t-7 14.5t-20 5.5t-23 -5.5t-12 -14.5z" />
<glyph unicode="&#x2db;" d="M140 -97q6 34 33.5 66.5t65.5 54.5l76 2v-15q-39 -10 -67.5 -41t-35.5 -69q-2 -13 8 -22t22 -9q10 0 23 8q51 46 77 32q7 -7 6.5 -23t-7.5 -24q-56 -61 -114 -61q-47 0 -70.5 31.5t-16.5 69.5z" />
<glyph unicode="&#x2dc;" d="M172 522q3 23 61 60q49 34 86 34q33 0 65 -35q17 -19 22 -19q16 0 70 41q17 13 30 13q15 0 24 -12t7 -27q-4 -23 -61 -60q-52 -34 -85 -34q-37 0 -65 36q-18 18 -22 18q-20 0 -70 -41q-17 -13 -30 -13q-15 0 -24.5 12.5t-7.5 26.5z" />
<glyph unicode="&#x2dd;" d="M174 519q2 15 36 42l54 44q29 20 44 20q17 0 27.5 -13t7.5 -30q-4 -21 -37 -44l-54 -43q-29 -22 -44 -22t-26 15.5t-8 30.5zM368 519q2 15 36 42l54 44q29 20 44 20q17 0 27.5 -13t7.5 -30q-4 -21 -37 -44l-54 -43q-29 -22 -44 -22t-26 15.5t-8 30.5z" />
<glyph unicode="&#x300;" horiz-adv-x="0" d="M-252 539q-37 18 -23 50.5t47 32.5q9 0 21 -6l119 -58q14 -6 20 -13.5t3 -22.5q-1 -11 -14.5 -28.5t-33.5 -17.5q-8 0 -20 5z" />
<glyph unicode="&#x301;" horiz-adv-x="0" d="M-286 522q4 24 35 36l139 58l23 6q18 0 28 -12t7 -30q-4 -27 -39 -41l-139 -58q-12 -5 -22 -5q-14 0 -22 10t-9.5 19.5t-0.5 16.5z" />
<glyph unicode="&#x302;" horiz-adv-x="0" d="M-329 507q1 11 9 20.5t15 14t29 17.5l100 58q18 11 32 0l80 -58q18 -13 23.5 -18t10.5 -14t3 -20q-8 -32 -46 -32q-10 0 -39 21l-61 42l-75 -42q-36 -21 -47 -21q-20 0 -28 8t-6 24z" />
<glyph unicode="&#x303;" horiz-adv-x="0" d="M-353 522q3 23 61 60q49 34 86 34q33 0 65 -35q17 -19 22 -19q16 0 70 41q17 13 30 13q15 0 24 -12t7 -27q-4 -23 -61 -60q-52 -34 -85 -34q-37 0 -65 36q-18 18 -22 18q-20 0 -70 -41q-17 -13 -30 -13q-15 0 -24.5 12.5t-7.5 26.5z" />
<glyph unicode="&#x304;" horiz-adv-x="0" d="M-362 550q6 38 53 38h290q14 0 22 -1.5t15 -10.5t4 -27q-7 -38 -54 -38h-289q-14 0 -22 1.5t-15 10.5t-4 27z" />
<glyph unicode="&#x306;" horiz-adv-x="0" d="M-345 574q7 38 44 38q31 0 31 -34q2 -14 102 -14t106 14q4 10 7.5 15.5t13 12t22.5 6.5q18 0 26.5 -10t5.5 -28q-5 -30 -25.5 -49t-53 -27t-57 -10t-58.5 -2t-57.5 2t-53.5 10t-44 27t-9 49z" />
<glyph unicode="&#x307;" horiz-adv-x="0" d="M-227 550q4 23 23 39.5t43 16.5t38 -16.5t10 -39.5q-5 -24 -24 -40.5t-43 -16.5t-37.5 16.5t-9.5 40.5z" />
<glyph unicode="&#x308;" horiz-adv-x="0" d="M-305 550q4 22 21 36.5t39 14.5t35 -14.5t9 -36.5t-21.5 -37t-39.5 -15t-34.5 15t-8.5 37zM-140 550q4 22 21 36.5t39 14.5t35 -14.5t9 -36.5t-21.5 -37t-39.5 -15t-34.5 15t-8.5 37z" />
<glyph unicode="&#x309;" horiz-adv-x="0" d="M-269 583q7 38 40.5 62t72.5 24q52 0 76.5 -23t17.5 -63q-6 -41 -48 -62q-41 -21 -45 -39l-3 -18q-2 -14 -14 -24.5t-26 -10.5q-15 0 -23.5 10.5t-6.5 24.5l3 18q10 58 89 99q11 6 -4 13q-11 5 -30 5q-23 0 -27 -16q-8 -36 -42 -36q-16 0 -24 11t-6 25z" />
<glyph unicode="&#x30a;" horiz-adv-x="0" d="M-256 560q5 26 33 46t65 20t59 -20t17 -46q-4 -27 -32.5 -47.5t-65.5 -20.5t-58.5 20.5t-17.5 47.5zM-200 559q-1 -9 7.5 -14.5t20.5 -5.5t22.5 5.5t11.5 14.5t-7 14.5t-20 5.5t-23 -5.5t-12 -14.5z" />
<glyph unicode="&#x30b;" horiz-adv-x="0" d="M-351 519q2 15 36 42l54 44q29 20 44 20q17 0 27.5 -13t7.5 -30q-4 -21 -37 -44l-54 -43q-29 -22 -44 -22t-26 15.5t-8 30.5zM-157 519q2 15 36 42l54 44q29 20 44 20q17 0 27.5 -13t7.5 -30q-4 -21 -37 -44l-54 -43q-29 -22 -44 -22t-26 15.5t-8 30.5z" />
<glyph unicode="&#x30c;" horiz-adv-x="0" d="M-315 591q6 32 45 32q10 0 39 -21l61 -42l75 42q39 21 47 21q20 0 28.5 -8t6.5 -24q-1 -11 -9.5 -20.5t-15.5 -14t-29 -17.5l-100 -58q-18 -11 -32 0l-80 58q-18 13 -23.5 18t-10 14t-2.5 20z" />
<glyph unicode="&#x30f;" horiz-adv-x="0" d="M-343 582q3 17 17.5 30t31.5 13q15 0 38 -20l40 -44q24 -26 22 -42q-3 -15 -19 -30.5t-31 -15.5q-16 0 -36 22l-40 43q-27 23 -23 44zM-149 582q3 17 17.5 30t31.5 13q15 0 38 -20l40 -44q24 -26 22 -42q-3 -15 -19 -30.5t-31 -15.5q-16 0 -36 22l-40 43q-27 23 -23 44z " />
<glyph unicode="&#x311;" horiz-adv-x="0" d="M-354 524q5 30 25.5 49t53 27t57 10t58.5 2t57.5 -2t53.5 -10t44 -27t9 -49q-2 -17 -14 -27.5t-30 -10.5q-31 0 -31 34q-2 14 -102 14t-106 -14q-4 -10 -7.5 -15.5t-13 -12t-22.5 -6.5q-37 0 -32 38z" />
<glyph unicode="&#x323;" horiz-adv-x="0" d="M-342 -138q4 23 23 39.5t43 16.5t38 -16.5t10 -39.5q-4 -24 -23.5 -40.5t-43.5 -16.5t-37.5 16.5t-9.5 40.5z" />
<glyph unicode="&#x326;" horiz-adv-x="0" d="M-363 -194q3 19 30 28q34 8 52 42h-3q-22 0 -35.5 15.5t-9.5 39.5q4 21 21.5 36.5t42.5 15.5q28 0 44.5 -22t10.5 -58q-10 -57 -55.5 -92.5t-72.5 -35.5q-12 0 -19.5 10t-5.5 21z" />
<glyph unicode="&#x32e;" horiz-adv-x="0" d="M-462 -125q7 38 44 38q30 0 32 -34q1 -14 101 -14t107 14q12 34 42 34q18 0 26.5 -10t5.5 -28q-5 -30 -25.5 -49t-53 -27t-57 -10t-58.5 -2t-57.5 2t-53.5 10t-44 27t-9 49z" />
<glyph unicode="&#x32f;" horiz-adv-x="0" d="M-470 -175q5 30 25 49t52.5 27t57 10t58.5 2q26 0 45 -1t45.5 -6t42.5 -13.5t26 -26t6 -41.5q-7 -38 -45 -38q-29 0 -31 34q-2 14 -102 14t-106 -14q-12 -34 -43 -34q-38 0 -31 38z" />
<glyph unicode="&#x330;" horiz-adv-x="0" d="M-470 -177q4 22 61 60q49 34 86 34q33 0 65 -35q19 -19 22 -19q18 0 70 41q15 13 30 13t24.5 -12t7.5 -27q-5 -22 -61 -60q-52 -34 -86 -34t-65 36q-16 18 -22 18q-20 0 -70 -41q-17 -13 -30 -13q-15 0 -24.5 12.5t-7.5 26.5z" />
<glyph unicode="&#x331;" horiz-adv-x="0" d="M-479 -149q6 38 53 38h290q14 0 22 -1.5t15 -10.5t4 -27q-6 -38 -53 -38h-289q-14 0 -22 1.5t-15.5 10.5t-4.5 27z" />
<glyph unicode="&#x332;" horiz-adv-x="0" d="M-479 -149q6 38 53 38h290q14 0 22 -1.5t15 -10.5t4 -27q-6 -38 -53 -38h-289q-14 0 -22 1.5t-15.5 10.5t-4.5 27z" />
<glyph unicode="&#x393;" d="M36 37q6 38 54 38h28l76 461h-28q-13 0 -20.5 1.5t-15 10t-4.5 25.5q6 38 53 38h366q29 0 36.5 -10t2.5 -38l-12 -71q-3 -15 -6 -23.5t-14 -16.5t-30 -8t-27.5 7.5t-7.5 18t2 22.5l7 44h-219l-76 -461h47q12 0 20 -1.5t15.5 -10.5t4.5 -26q-6 -37 -53 -37h-158 q-13 0 -21 1.5t-15.5 10t-4.5 25.5z" />
<glyph unicode="&#x394;" d="M37 29q1 4 8 20l254 536q11 25 26.5 31.5t40.5 6.5q29 0 39.5 -7t14.5 -34l75 -533l2 -20q-5 -29 -47 -29h-376q-12 0 -19.5 1.5t-13.5 8t-4 19.5zM147 81h258l-59 425z" />
<glyph unicode="&#x398;" d="M104 305q13 78 23 125t25.5 86t30.5 57t43.5 30.5t58.5 15.5t81 3q38 0 62.5 -1.5t47 -7.5t34.5 -14.5t21.5 -26.5t11.5 -39t0.5 -56.5t-6.5 -74.5t-15 -97t-17.5 -97t-18 -74.5t-19.5 -56.5t-24.5 -38.5t-30.5 -26t-40 -14.5t-49.5 -7.5t-62.5 -1.5q-51 0 -80 2.5 t-53 15.5t-33 31t-11.5 57t3 85.5t18.5 124.5zM168 138q0 -44 22 -59t83 -15t86 14t41 53q17 44 39 175q20 116 19 167q0 44 -22 59t-83 15t-86 -14t-41 -53q-17 -44 -39 -175q-20 -116 -19 -167zM206 283l8 45q3 16 5.5 24t13.5 16t31 8q35 0 35 -30h42q10 30 45 30 q28 0 34 -15t0 -33l-8 -45q-3 -16 -5.5 -24t-13.5 -16t-31 -8q-35 0 -35 30h-42q-10 -30 -45 -30q-28 0 -34 15t0 33z" />
<glyph unicode="&#x39b;" d="M33 37q4 23 18.5 30.5t45.5 7.5l202 509q7 18 18.5 27t20 10.5t23.5 1.5h10q15 0 23.5 -1.5t16.5 -11.5t9 -29l33 -506q30 0 42 -7.5t8 -30.5q-6 -37 -54 -37h-105q-13 0 -21.5 1.5t-16 10.5t-4.5 26q6 37 55 37h11l-24 414l-162 -414h11q13 0 21 -1.5t15.5 -10.5 t4.5 -26q-6 -37 -54 -37h-105q-13 0 -21 1.5t-16 10t-5 25.5z" />
<glyph unicode="&#x39e;" d="M39 48l4 23q3 15 5.5 23.5t13.5 16.5t30 8q26 0 31.5 -11t2.5 -35h296q5 24 15 35t35 11q19 0 27.5 -7.5t7.5 -18t-2 -22.5l-4 -23q-5 -29 -15.5 -38.5t-39.5 -9.5h-367q-29 0 -37 9.5t-3 38.5zM126 545l3 18q4 29 15.5 38.5t40.5 9.5h359q29 0 36.5 -10t2.5 -38l-3 -18 q-3 -15 -5.5 -23.5t-13.5 -16.5t-30 -8q-25 0 -31.5 10t-3.5 31h-288q-4 -21 -14 -31t-35 -10q-19 0 -27.5 7.5t-7.5 18t2 22.5zM154 293l8 48q3 15 6 23.5t14 16t30 7.5q20 0 28 -8t7 -26h148q9 34 47 34q19 0 28 -7t8 -17.5t-2 -22.5l-8 -48q-3 -15 -6 -23t-14 -15.5 t-30 -7.5q-20 0 -28 8t-7 26h-148q-8 -34 -47 -34q-19 0 -28 7t-8 17t2 22z" />
<glyph unicode="&#x3a0;" d="M26 37q6 38 54 38h17l76 461h-17q-13 0 -20.5 1.5t-15 10t-4.5 25.5q6 38 53 38h390q13 0 21 -1.5t15.5 -10.5t4.5 -26q-6 -37 -54 -37h-17l-76 -461h17q13 0 21 -1.5t15 -10.5t4 -26q-6 -37 -53 -37h-116q-13 0 -21 1.5t-15.5 10.5t-4.5 26q6 37 54 37h16l76 461h-190 l-76 -461h16q13 0 21 -1.5t15 -10.5t4 -26q-6 -37 -53 -37h-116q-13 0 -21 1.5t-15.5 10t-4.5 25.5z" />
<glyph unicode="&#x3a3;" d="M44 35q1 9 14 26l183 244l-103 241q-6 13 -4 27q6 38 54 38h353q29 0 36.5 -10t2.5 -38l-12 -71q-3 -15 -6 -23.5t-14 -16.5t-30 -8t-27.5 7.5t-7.5 18t2 22.5l7 44h-254l94 -222q-2 -17 -15 -34l-151 -203h250l7 44q3 15 6 23.5t14 16.5t30 8t27.5 -7.5t7.5 -18 t-2 -22.5l-12 -73q-5 -29 -15.5 -38.5t-39.5 -9.5h-353q-11 0 -20 1.5t-17 10t-5 23.5z" />
<glyph unicode="&#x3a5;" d="M117 488q8 49 49 91.5t94 42.5q80 0 88 -105q44 105 124 105q53 0 79 -42.5t18 -91.5q-6 -39 -47 -39q-8 0 -13 1t-12.5 4t-9.5 12t0 23q9 66 -27 66q-64 0 -97 -200l-46 -280h26q13 0 21 -1.5t15.5 -10.5t4.5 -26q-6 -37 -54 -37h-135q-13 0 -21 1.5t-16 10t-5 25.5 q6 38 55 38h26l46 280q33 200 -30 200q-38 0 -50 -68q-6 -38 -48 -38q-41 0 -35 39z" />
<glyph unicode="&#x3a6;" d="M89 306q9 55 68 99t141 54l12 77h-32q-13 0 -21 1.5t-15.5 10.5t-4.5 26q6 37 54 37h147q13 0 21 -1.5t16 -10.5t5 -26q-6 -37 -55 -37h-32l-12 -77q77 -10 121 -53.5t35 -100.5q-9 -55 -67.5 -99t-140.5 -54l-12 -77h32q13 0 21 -1.5t15.5 -10.5t4.5 -26q-6 -37 -54 -37 h-147q-13 0 -21 1.5t-16 10.5t-5 26q6 37 55 37h32l12 77q-77 9 -122 53t-35 101zM169 305q-5 -26 19.5 -48t68.5 -30l26 157q-46 -8 -78 -29.5t-36 -49.5zM344 227q44 8 76 29t37 50q4 27 -20.5 48.5t-66.5 29.5z" />
<glyph unicode="&#x3a8;" d="M111 448q6 38 49 38q80 0 60 -117q-19 -111 40 -137l50 304h-26q-13 0 -21 1.5t-15.5 10t-4.5 25.5q6 38 54 38h135q13 0 21.5 -1.5t16 -10.5t4.5 -26q-6 -37 -55 -37h-26l-50 -304q66 26 84 136q20 118 99 118q10 0 17 -1t15 -10.5t5 -26.5q-2 -13 -10.5 -22t-13 -10.5 l-13.5 -4.5q-9 -1 -16 -45q-32 -184 -180 -213l-13 -78h26q13 0 21 -1.5t15.5 -10.5t4.5 -26q-6 -37 -54 -37h-135q-13 0 -21 1.5t-16 10t-5 25.5q6 38 55 38h26l13 78q-53 11 -82 47t-31.5 76.5t1.5 80.5q7 53 1 54q-30 9 -25 37z" />
<glyph unicode="&#x3a9;" d="M38 48l4 25q8 48 43 48q14 0 21 -7t7.5 -17t-0.5 -22h46q-2 46 -28 129q-9 31 -13.5 48.5t-10.5 49t-5 50t3 51.5q16 92 92.5 155.5t168.5 63.5t147.5 -63.5t39.5 -155.5q-12 -72 -88 -192q-57 -88 -74 -136h46q8 46 42 46q35 0 27 -48l-4 -25q-5 -29 -15.5 -38.5 t-39.5 -9.5h-100q-11 0 -17.5 1t-14 4.5t-9.5 12.5t0 24q11 63 83 184q26 44 38.5 66t25.5 53.5t17 57.5q10 62 -24.5 103t-92.5 41t-106.5 -41t-58.5 -103q-7 -47 8.5 -112t30 -131t5.5 -118q-3 -19 -12.5 -29t-18 -11.5t-23.5 -1.5h-100q-29 0 -37 9.5t-3 38.5z" />
<glyph unicode="&#xe3f;" d="M27 37q6 38 55 38h18l76 461h-18q-13 0 -21 1.5t-15.5 10.5t-4.5 26q6 37 53 37h148l10 53q2 15 15 26.5t29 11.5t25 -11.5t7 -26.5l-9 -53q78 -1 116 -50t27 -109q-7 -42 -36.5 -76.5t-73.5 -54.5q48 -18 70.5 -59.5t14.5 -90.5q-12 -66 -68 -118.5t-137 -52.5h-15 l-9 -52q-2 -16 -15 -27.5t-29 -11.5t-25.5 11.5t-7.5 26.5l9 53h-148q-12 0 -20 1.5t-16 10t-5 25.5zM182 75h47l34 205h-47zM228 355h47l30 181h-47zM306 75q53 2 87 31.5t40 65.5q7 38 -14 73t-73 35h-6zM353 357q47 8 74 36t31 58q5 29 -12 55.5t-64 29.5z" />
<glyph unicode="&#x1e0c;" d="M23 37q6 38 55 38h14l76 461h-14q-13 0 -21 1.5t-15.5 10t-4.5 25.5q6 38 54 38h201q64 0 108 -44t59.5 -114.5t1.5 -151.5q-21 -124 -98 -212.5t-173 -88.5h-201q-13 0 -21 1.5t-16 10t-5 25.5zM120 -138q4 23 23 39.5t43 16.5t38 -16.5t10 -39.5q-4 -24 -23.5 -40.5 t-43.5 -16.5t-37.5 16.5t-9.5 40.5zM175 75h86q73 0 126 68t68 158q7 57 1 109.5t-37.5 89t-81.5 36.5h-86z" />
<glyph unicode="&#x1e0d;" d="M70 217q16 95 89 159.5t157 64.5q59 0 100 -35l21 130h-36q-12 0 -20 1.5t-15.5 10t-4.5 25.5q6 38 54 38h71q29 0 36.5 -10t2.5 -38l-81 -488h36q12 0 20 -1.5t15.5 -10t4.5 -25.5q-6 -38 -54 -38h-71q-28 0 -35 8.5t-5 30.5q-59 -45 -123 -45q-81 0 -129.5 65 t-32.5 158zM152 217q-10 -61 18 -104.5t78 -43.5q48 0 86 42t46 86l11 69q7 39 -18 69.5t-67 30.5q-51 0 -97 -42.5t-57 -106.5zM183 -138q4 23 23 39.5t43 16.5t38 -16.5t10 -39.5q-4 -24 -23.5 -40.5t-43.5 -16.5t-37.5 16.5t-9.5 40.5z" />
<glyph unicode="&#x1e0e;" d="M-17 -149q6 38 53 38h290q14 0 22 -1.5t15 -10.5t4 -27q-6 -38 -53 -38h-289q-14 0 -22 1.5t-15.5 10.5t-4.5 27zM23 37q6 38 55 38h14l76 461h-14q-13 0 -21 1.5t-15.5 10t-4.5 25.5q6 38 54 38h201q64 0 108 -44t59.5 -114.5t1.5 -151.5q-21 -124 -98 -212.5 t-173 -88.5h-201q-13 0 -21 1.5t-16 10t-5 25.5zM175 75h86q73 0 126 68t68 158q7 57 1 109.5t-37.5 89t-81.5 36.5h-86z" />
<glyph unicode="&#x1e0f;" d="M46 -149q6 38 53 38h290q14 0 22 -1.5t15 -10.5t4 -27q-6 -38 -53 -38h-289q-14 0 -22 1.5t-15.5 10.5t-4.5 27zM70 217q16 95 89 159.5t157 64.5q59 0 100 -35l21 130h-36q-12 0 -20 1.5t-15.5 10t-4.5 25.5q6 38 54 38h71q29 0 36.5 -10t2.5 -38l-81 -488h36 q12 0 20 -1.5t15.5 -10t4.5 -25.5q-6 -38 -54 -38h-71q-28 0 -35 8.5t-5 30.5q-59 -45 -123 -45q-81 0 -129.5 65t-32.5 158zM152 217q-10 -61 18 -104.5t78 -43.5q48 0 86 42t46 86l11 69q7 39 -18 69.5t-67 30.5q-51 0 -97 -42.5t-57 -106.5z" />
<glyph unicode="&#x1e24;" d="M26 37q6 38 54 38h17l76 461h-17q-13 0 -20.5 1.5t-15 10t-4.5 25.5q6 38 53 38h116q13 0 21 -1.5t15.5 -10.5t4.5 -26q-6 -37 -54 -37h-16l-30 -181h190l30 181h-16q-13 0 -21 1.5t-15 10.5t-4 26q6 37 53 37h116q13 0 21 -1.5t15.5 -10.5t4.5 -26q-6 -37 -54 -37h-17 l-76 -461h17q13 0 21 -1.5t15 -10.5t4 -26q-6 -37 -53 -37h-116q-13 0 -21 1.5t-15.5 10.5t-4.5 26q6 37 54 37h16l34 205h-190l-34 -205h16q13 0 21 -1.5t15 -10.5t4 -26q-6 -37 -53 -37h-116q-13 0 -21 1.5t-15.5 10t-4.5 25.5zM183 -138q4 23 23 39.5t43 16.5t38 -16.5 t10 -39.5q-4 -24 -23.5 -40.5t-43.5 -16.5t-37.5 16.5t-9.5 40.5z" />
<glyph unicode="&#x1e25;" d="M17 37q6 38 54 38h35l76 461h-36q-12 0 -19.5 1.5t-15 10.5t-4.5 25q6 38 53 38h71q29 0 36.5 -10t2.5 -38l-27 -164q60 42 127 42q134 0 110 -148l-36 -218h35q13 0 21 -1.5t15 -10.5t4 -26q-6 -37 -52 -37h-149q-12 0 -20.5 1.5t-16.5 10.5t-5 25q6 38 55 38h30l35 213 q7 42 -2 60t-43 18q-42 0 -83.5 -32t-51.5 -94l-27 -165h35q13 0 21 -1.5t15.5 -10.5t4.5 -26q-6 -37 -53 -37h-155q-8 0 -14 1t-14 4t-11 11t-1 21zM183 -138q4 23 23 39.5t43 16.5t38 -16.5t10 -39.5q-4 -24 -23.5 -40.5t-43.5 -16.5t-37.5 16.5t-9.5 40.5z" />
<glyph unicode="&#x1e26;" d="M26 37q6 38 54 38h17l76 461h-17q-13 0 -20.5 1.5t-15 10t-4.5 25.5q6 38 53 38h116q13 0 21 -1.5t15.5 -10.5t4.5 -26q-6 -37 -54 -37h-16l-30 -181h190l30 181h-16q-13 0 -21 1.5t-15 10.5t-4 26q6 37 53 37h116q13 0 21 -1.5t15.5 -10.5t4.5 -26q-6 -37 -54 -37h-17 l-76 -461h17q13 0 21 -1.5t15 -10.5t4 -26q-6 -37 -53 -37h-116q-13 0 -21 1.5t-15.5 10.5t-4.5 26q6 37 54 37h16l34 205h-190l-34 -205h16q13 0 21 -1.5t15 -10.5t4 -26q-6 -37 -53 -37h-116q-13 0 -21 1.5t-15.5 10t-4.5 25.5zM232 715q4 22 21.5 36.5t39.5 14.5 t34.5 -14.5t8.5 -36.5t-21.5 -37t-39.5 -15t-34.5 15t-8.5 37zM427 715q4 22 21.5 36.5t39.5 14.5t34.5 -14.5t8.5 -36.5t-21.5 -37t-39.5 -15t-34.5 15t-8.5 37z" />
<glyph unicode="&#x1e27;" d="M17 37q6 38 54 38h35l76 461h-36q-12 0 -19.5 1.5t-15 10.5t-4.5 25q6 38 53 38h71q29 0 36.5 -10t2.5 -38l-27 -164q60 42 127 42q134 0 110 -148l-36 -218h35q13 0 21 -1.5t15 -10.5t4 -26q-6 -37 -52 -37h-149q-12 0 -20.5 1.5t-16.5 10.5t-5 25q6 38 55 38h30l35 213 q7 42 -2 60t-43 18q-42 0 -83.5 -32t-51.5 -94l-27 -165h35q13 0 21 -1.5t15.5 -10.5t4.5 -26q-6 -37 -53 -37h-155q-8 0 -14 1t-14 4t-11 11t-1 21zM232 715q4 22 21.5 36.5t39.5 14.5t34.5 -14.5t8.5 -36.5t-21.5 -37t-39.5 -15t-34.5 15t-8.5 37zM427 715q4 22 21.5 36.5 t39.5 14.5t34.5 -14.5t8.5 -36.5t-21.5 -37t-39.5 -15t-34.5 15t-8.5 37z" />
<glyph unicode="&#x1e2a;" d="M26 37q6 38 54 38h17l76 461h-17q-13 0 -20.5 1.5t-15 10t-4.5 25.5q6 38 53 38h116q13 0 21 -1.5t15.5 -10.5t4.5 -26q-6 -37 -54 -37h-16l-30 -181h190l30 181h-16q-13 0 -21 1.5t-15 10.5t-4 26q6 37 53 37h116q13 0 21 -1.5t15.5 -10.5t4.5 -26q-6 -37 -54 -37h-17 l-76 -461h17q13 0 21 -1.5t15 -10.5t4 -26q-6 -37 -53 -37h-116q-13 0 -21 1.5t-15.5 10.5t-4.5 26q6 37 54 37h16l34 205h-190l-34 -205h16q13 0 21 -1.5t15 -10.5t4 -26q-6 -37 -53 -37h-116q-13 0 -21 1.5t-15.5 10t-4.5 25.5zM63 -125q7 38 44 38q30 0 32 -34 q1 -14 101 -14t107 14q12 34 42 34q18 0 26.5 -10t5.5 -28q-5 -30 -25.5 -49t-53 -27t-57 -10t-58.5 -2t-57.5 2t-53.5 10t-44 27t-9 49z" />
<glyph unicode="&#x1e2b;" d="M17 37q6 38 54 38h35l76 461h-36q-12 0 -19.5 1.5t-15 10.5t-4.5 25q6 38 53 38h71q29 0 36.5 -10t2.5 -38l-27 -164q60 42 127 42q134 0 110 -148l-36 -218h35q13 0 21 -1.5t15 -10.5t4 -26q-6 -37 -52 -37h-149q-12 0 -20.5 1.5t-16.5 10.5t-5 25q6 38 55 38h30l35 213 q7 42 -2 60t-43 18q-42 0 -83.5 -32t-51.5 -94l-27 -165h35q13 0 21 -1.5t15.5 -10.5t4.5 -26q-6 -37 -53 -37h-155q-8 0 -14 1t-14 4t-11 11t-1 21zM63 -125q7 38 44 38q30 0 32 -34q1 -14 101 -14t107 14q12 34 42 34q18 0 26.5 -10t5.5 -28q-5 -30 -25.5 -49t-53 -27 t-57 -10t-58.5 -2t-57.5 2t-53.5 10t-44 27t-9 49z" />
<glyph unicode="&#x1e36;" d="M36 37q6 38 54 38h28l76 461h-28q-13 0 -20.5 1.5t-15 10t-4.5 25.5q6 38 53 38h158q12 0 20 -1.5t16 -10.5t5 -26q-6 -37 -54 -37h-47l-76 -461h219l9 59q3 13 4.5 18.5t6.5 14t14.5 12t24.5 3.5q19 0 27.5 -7t7.5 -18t-2 -23l-14 -86q-5 -29 -15.5 -38.5t-39.5 -9.5 h-366q-13 0 -21 1.5t-15.5 10t-4.5 25.5zM183 -138q4 23 23 39.5t43 16.5t38 -16.5t10 -39.5q-4 -24 -23.5 -40.5t-43.5 -16.5t-37.5 16.5t-9.5 40.5z" />
<glyph unicode="&#x1e37;" d="M61 37q6 38 55 38h118l76 461h-119q-12 0 -20 1.5t-15.5 10t-4.5 25.5q6 38 54 38h154q29 0 36.5 -10t2.5 -38l-81 -488h119q13 0 21 -1.5t15 -10.5t4 -26q-6 -37 -53 -37h-321q-12 0 -20 1.5t-16 10t-5 25.5zM183 -138q4 23 23 39.5t43 16.5t38 -16.5t10 -39.5 q-4 -24 -23.5 -40.5t-43.5 -16.5t-37.5 16.5t-9.5 40.5z" />
<glyph unicode="&#x1e38;" d="M36 37q6 38 54 38h28l76 461h-28q-13 0 -20.5 1.5t-15 10t-4.5 25.5q6 38 53 38h158q12 0 20 -1.5t16 -10.5t5 -26q-6 -37 -54 -37h-47l-76 -461h219l9 59q3 13 4.5 18.5t6.5 14t14.5 12t24.5 3.5q19 0 27.5 -7t7.5 -18t-2 -23l-14 -86q-5 -29 -15.5 -38.5t-39.5 -9.5 h-366q-13 0 -21 1.5t-15.5 10t-4.5 25.5zM85 722q6 38 54 38h290q14 0 21.5 -1.5t14.5 -10.5t4 -27q-6 -38 -53 -38h-289q-14 0 -22 1.5t-15.5 10.5t-4.5 27zM183 -138q4 23 23 39.5t43 16.5t38 -16.5t10 -39.5q-4 -24 -23.5 -40.5t-43.5 -16.5t-37.5 16.5t-9.5 40.5z" />
<glyph unicode="&#x1e39;" d="M61 37q6 38 55 38h118l76 461h-119q-12 0 -20 1.5t-15.5 10t-4.5 25.5q6 38 54 38h154q29 0 36.5 -10t2.5 -38l-81 -488h119q13 0 21 -1.5t15 -10.5t4 -26q-6 -37 -53 -37h-321q-12 0 -20 1.5t-16 10t-5 25.5zM150 722q6 38 54 38h290q14 0 21.5 -1.5t14.5 -10.5t4 -27 q-6 -38 -53 -38h-289q-14 0 -22 1.5t-15.5 10.5t-4.5 27zM183 -138q4 23 23 39.5t43 16.5t38 -16.5t10 -39.5q-4 -24 -23.5 -40.5t-43.5 -16.5t-37.5 16.5t-9.5 40.5z" />
<glyph unicode="&#x1e42;" d="M21 37q4 23 18 30.5t41 7.5l76 461q-27 0 -38 7.5t-7 30.5q6 37 53 37h55q43 0 50 -28l43 -282l130 266q12 25 24.5 34.5t42.5 9.5h55q13 0 21 -1.5t15.5 -10t4.5 -25.5q-4 -23 -18 -30.5t-41 -7.5l-76 -461q27 0 38 -7.5t7 -30.5q-6 -37 -53 -37h-80q-13 0 -21 1.5 t-15.5 10t-4.5 25.5q4 23 18 30.5t41 7.5l68 408l-127 -258q-18 -26 -46 -26q-21 0 -33 19l-43 265l-68 -408q26 0 37 -7.5t7 -30.5q-6 -37 -53 -37h-80q-13 0 -21 1.5t-15.5 10t-4.5 25.5zM183 -138q4 23 23 39.5t43 16.5t38 -16.5t10 -39.5q-4 -24 -23.5 -40.5 t-43.5 -16.5t-37.5 16.5t-9.5 40.5z" />
<glyph unicode="&#x1e43;" d="M6 37q4 23 18 30.5t44 7.5l47 286q-30 0 -41 7.5t-7 30.5q5 37 54 37h31q37 0 40 -23q40 28 84 28q49 0 67 -44q47 44 103 44q32 0 50.5 -17t21.5 -45.5t2.5 -43.5t-2.5 -32l-38 -228q30 0 41 -7.5t7 -30.5q-6 -37 -54 -37h-73q-12 0 -19.5 1.5t-14.5 10t-4 25.5 q7 36 46 38l36 219q5 28 4.5 44t-5.5 22t-15 6q-29 0 -56 -33.5t-37 -90.5l-27 -167q29 0 39.5 -7.5t6.5 -30.5q-6 -37 -51 -37h-73q-12 0 -19.5 1.5t-15 10t-4.5 25.5q4 22 15.5 29.5t31.5 8.5l36 219q6 42 2.5 57t-18.5 15q-30 0 -56.5 -33t-36.5 -91l-27 -167 q29 0 39 -7.5t6 -30.5q-6 -37 -51 -37h-85q-12 0 -20.5 1.5t-16.5 10.5t-5 25zM183 -138q4 23 23 39.5t43 16.5t38 -16.5t10 -39.5q-4 -24 -23.5 -40.5t-43.5 -16.5t-37.5 16.5t-9.5 40.5z" />
<glyph unicode="&#x1e44;" d="M32 38q6 37 54 37h17l76 461h-17q-13 0 -21 1.5t-15 10.5t-4 26q6 37 53 37h66q25 0 36.5 -7.5t16.5 -32.5l91 -447l68 412h-16q-13 0 -20.5 1.5t-15 10t-4.5 25.5q6 38 53 38h103q13 0 21 -1.5t15.5 -10.5t4.5 -26q-6 -37 -54 -37h-17l-81 -488q-5 -31 -16.5 -39.5 t-39.5 -8.5q-18 0 -26.5 1.5t-16.5 10.5t-11 28l-91 447l-68 -412h16q13 0 21 -1.5t15 -10.5t4 -26q-6 -37 -53 -37h-103q-13 0 -21 1.5t-15.5 10.5t-4.5 26zM326 720q4 23 23 39.5t43 16.5t38 -16.5t10 -39.5q-4 -24 -23.5 -40.5t-43.5 -16.5t-37.5 16.5t-9.5 40.5z" />
<glyph unicode="&#x1e45;" d="M17 37q6 38 54 38h35l47 286h-36q-8 0 -14 1t-14 4t-11 11t-1 21q6 38 54 38h71q28 0 35.5 -8.5t5.5 -28.5q60 42 127 42q134 0 110 -148l-36 -218h35q13 0 21 -1.5t15 -10.5t4 -26q-6 -37 -52 -37h-149q-12 0 -20.5 1.5t-16.5 10.5t-5 25q6 38 55 38h30l35 213 q7 42 -2 60t-43 18q-42 0 -83.5 -32t-51.5 -94l-27 -165h35q13 0 21 -1.5t15.5 -10.5t4.5 -26q-6 -37 -53 -37h-155q-8 0 -14 1t-14 4t-11 11t-1 21zM298 550q4 23 23 39.5t43 16.5t38 -16.5t10 -39.5q-5 -24 -24 -40.5t-43 -16.5t-37.5 16.5t-9.5 40.5z" />
<glyph unicode="&#x1e46;" d="M32 38q6 37 54 37h17l76 461h-17q-13 0 -21 1.5t-15 10.5t-4 26q6 37 53 37h66q25 0 36.5 -7.5t16.5 -32.5l91 -447l68 412h-16q-13 0 -20.5 1.5t-15 10t-4.5 25.5q6 38 53 38h103q13 0 21 -1.5t15.5 -10.5t4.5 -26q-6 -37 -54 -37h-17l-81 -488q-5 -31 -16.5 -39.5 t-39.5 -8.5q-18 0 -26.5 1.5t-16.5 10.5t-11 28l-91 447l-68 -412h16q13 0 21 -1.5t15 -10.5t4 -26q-6 -37 -53 -37h-103q-13 0 -21 1.5t-15.5 10.5t-4.5 26zM183 -138q4 23 23 39.5t43 16.5t38 -16.5t10 -39.5q-4 -24 -23.5 -40.5t-43.5 -16.5t-37.5 16.5t-9.5 40.5z" />
<glyph unicode="&#x1e47;" d="M17 37q6 38 54 38h35l47 286h-36q-8 0 -14 1t-14 4t-11 11t-1 21q6 38 54 38h71q28 0 35.5 -8.5t5.5 -28.5q60 42 127 42q134 0 110 -148l-36 -218h35q13 0 21 -1.5t15 -10.5t4 -26q-6 -37 -52 -37h-149q-12 0 -20.5 1.5t-16.5 10.5t-5 25q6 38 55 38h30l35 213 q7 42 -2 60t-43 18q-42 0 -83.5 -32t-51.5 -94l-27 -165h35q13 0 21 -1.5t15.5 -10.5t4.5 -26q-6 -37 -53 -37h-155q-8 0 -14 1t-14 4t-11 11t-1 21zM183 -138q4 23 23 39.5t43 16.5t38 -16.5t10 -39.5q-4 -24 -23.5 -40.5t-43.5 -16.5t-37.5 16.5t-9.5 40.5z" />
<glyph unicode="&#x1e58;" d="M27 37q6 38 53 38h17l76 461h-17q-13 0 -20.5 1.5t-14.5 10t-4 25.5q6 38 52 38h173q87 0 133.5 -51.5t34.5 -120.5q-5 -35 -30 -72.5t-70 -63.5q24 -24 32 -55q5 -25 -6 -95q-4 -23 -5.5 -34.5t-2.5 -26.5t2.5 -21.5t10.5 -6.5q10 0 14 24q8 49 50 49q10 0 17 -1 t13.5 -10.5t3.5 -27.5q-6 -37 -35.5 -73t-74.5 -36q-56 0 -76 49q-9 31 -8 51t11 77q6 27 5.5 46t-11.5 31q-25 25 -70 25h-68l-32 -193h16q13 0 21 -1.5t15 -10.5t4 -26q-6 -37 -53 -37h-116q-13 0 -20.5 1.5t-15 10t-4.5 25.5zM223 343h63q58 0 96.5 29.5t44.5 66.5 q7 37 -21.5 67t-87.5 30h-63zM328 731q4 23 23 39.5t43 16.5t38 -16.5t10 -39.5q-4 -24 -23.5 -40.5t-43.5 -16.5t-37.5 16.5t-9.5 40.5z" />
<glyph unicode="&#x1e59;" d="M36 38q6 37 54 37h71l47 286h-71q-10 0 -16 1t-13.5 4t-10 11.5t-0.5 21.5q5 37 53 37h107q29 0 36.5 -10t2.5 -38l-3 -14q79 67 170 67q58 0 75.5 -21.5t12.5 -46.5q-4 -22 -20.5 -35.5t-36.5 -13.5t-32.5 12t-9.5 30q-76 -2 -127 -54.5t-62 -122.5l-19 -114h100 q13 0 21 -1.5t15.5 -10.5t4.5 -26q-6 -37 -54 -37h-254q-13 0 -21 1.5t-15.5 10.5t-4.5 26zM298 550q4 23 23 39.5t43 16.5t38 -16.5t10 -39.5q-5 -24 -24 -40.5t-43 -16.5t-37.5 16.5t-9.5 40.5z" />
<glyph unicode="&#x1e5a;" d="M27 37q6 38 53 38h17l76 461h-17q-13 0 -20.5 1.5t-14.5 10t-4 25.5q6 38 52 38h173q87 0 133.5 -51.5t34.5 -120.5q-5 -35 -30 -72.5t-70 -63.5q24 -24 32 -55q5 -25 -6 -95q-4 -23 -5.5 -34.5t-2.5 -26.5t2.5 -21.5t10.5 -6.5q10 0 14 24q8 49 50 49q10 0 17 -1 t13.5 -10.5t3.5 -27.5q-6 -37 -35.5 -73t-74.5 -36q-56 0 -76 49q-9 31 -8 51t11 77q6 27 5.5 46t-11.5 31q-25 25 -70 25h-68l-32 -193h16q13 0 21 -1.5t15 -10.5t4 -26q-6 -37 -53 -37h-116q-13 0 -20.5 1.5t-15 10t-4.5 25.5zM183 -138q4 23 23 39.5t43 16.5t38 -16.5 t10 -39.5q-4 -24 -23.5 -40.5t-43.5 -16.5t-37.5 16.5t-9.5 40.5zM223 343h63q58 0 96.5 29.5t44.5 66.5q7 37 -21.5 67t-87.5 30h-63z" />
<glyph unicode="&#x1e5b;" d="M36 38q6 37 54 37h71l47 286h-71q-10 0 -16 1t-13.5 4t-10 11.5t-0.5 21.5q5 37 53 37h107q29 0 36.5 -10t2.5 -38l-3 -14q79 67 170 67q58 0 75.5 -21.5t12.5 -46.5q-4 -22 -20.5 -35.5t-36.5 -13.5t-32.5 12t-9.5 30q-76 -2 -127 -54.5t-62 -122.5l-19 -114h100 q13 0 21 -1.5t15.5 -10.5t4.5 -26q-6 -37 -54 -37h-254q-13 0 -21 1.5t-15.5 10.5t-4.5 26zM125 -138q4 23 23 39.5t43 16.5t38 -16.5t10 -39.5q-4 -24 -23.5 -40.5t-43.5 -16.5t-37.5 16.5t-9.5 40.5z" />
<glyph unicode="&#x1e5c;" d="M27 37q6 38 53 38h17l76 461h-17q-13 0 -20.5 1.5t-14.5 10t-4 25.5q6 38 52 38h173q87 0 133.5 -51.5t34.5 -120.5q-5 -35 -30 -72.5t-70 -63.5q24 -24 32 -55q5 -25 -6 -95q-4 -23 -5.5 -34.5t-2.5 -26.5t2.5 -21.5t10.5 -6.5q10 0 14 24q8 49 50 49q10 0 17 -1 t13.5 -10.5t3.5 -27.5q-6 -37 -35.5 -73t-74.5 -36q-56 0 -76 49q-9 31 -8 51t11 77q6 27 5.5 46t-11.5 31q-25 25 -70 25h-68l-32 -193h16q13 0 21 -1.5t15 -10.5t4 -26q-6 -37 -53 -37h-116q-13 0 -20.5 1.5t-15 10t-4.5 25.5zM183 -138q4 23 23 39.5t43 16.5t38 -16.5 t10 -39.5q-4 -24 -23.5 -40.5t-43.5 -16.5t-37.5 16.5t-9.5 40.5zM191 722q6 38 54 38h290q14 0 21.5 -1.5t14.5 -10.5t4 -27q-6 -38 -53 -38h-289q-14 0 -22 1.5t-15.5 10.5t-4.5 27zM223 343h63q58 0 96.5 29.5t44.5 66.5q7 37 -21.5 67t-87.5 30h-63z" />
<glyph unicode="&#x1e5d;" d="M36 38q6 37 54 37h71l47 286h-71q-10 0 -16 1t-13.5 4t-10 11.5t-0.5 21.5q5 37 53 37h107q29 0 36.5 -10t2.5 -38l-3 -14q79 67 170 67q58 0 75.5 -21.5t12.5 -46.5q-4 -22 -20.5 -35.5t-36.5 -13.5t-32.5 12t-9.5 30q-76 -2 -127 -54.5t-62 -122.5l-19 -114h100 q13 0 21 -1.5t15.5 -10.5t4.5 -26q-6 -37 -54 -37h-254q-13 0 -21 1.5t-15.5 10.5t-4.5 26zM125 -138q4 23 23 39.5t43 16.5t38 -16.5t10 -39.5q-4 -24 -23.5 -40.5t-43.5 -16.5t-37.5 16.5t-9.5 40.5zM163 550q6 38 53 38h290q14 0 22 -1.5t15 -10.5t4 -27q-7 -38 -54 -38 h-289q-14 0 -22 1.5t-15 10.5t-4 27z" />
<glyph unicode="&#x1e62;" d="M56 37l22 129q3 16 5.5 23.5t13.5 15.5t30 8q18 0 26.5 -6t8 -15.5t-0.5 -19.5q-7 -52 34 -82q38 -26 100 -26q51 0 86.5 31t42.5 70q14 82 -86 102l-108 27q-59 17 -86 62t-18 98q11 68 73 118t144 50q77 0 125 -40q18 40 47 40q37 0 29 -48l-22 -129q-2 -11 -4 -17.5 t-7 -14.5t-14.5 -11.5t-24.5 -3.5q-19 0 -27 7t-8 26q0 116 -108 116q-47 0 -83 -26.5t-42 -62.5q-5 -30 12.5 -52.5t46.5 -31.5l75 -18q62 -15 86.5 -26t49.5 -39q40 -52 28 -121q-12 -72 -74 -126.5t-147 -54.5q-94 0 -149 40q-11 -22 -21 -31t-26 -9q-37 0 -29 48z M183 -138q4 23 23 39.5t43 16.5t38 -16.5t10 -39.5q-4 -24 -23.5 -40.5t-43.5 -16.5t-37.5 16.5t-9.5 40.5z" />
<glyph unicode="&#x1e63;" d="M76 42l16 94q2 12 4 18.5t7 14.5t14.5 11.5t24.5 3.5q21 0 27.5 -7.5t8.5 -26.5q13 -81 104 -81q59 0 90.5 17t36.5 44q2 16 -7 27.5t-30 19t-35 10.5t-37 7q-34 5 -55.5 9.5t-49.5 14.5t-43.5 22.5t-24.5 33.5t-4 48q3 17 12.5 34.5t31 39t65.5 35t104 13.5q58 0 97 -17 q13 17 37 17q36 0 29 -47l-11 -68q-2 -11 -4 -17.5t-7 -14.5t-14.5 -11.5t-24.5 -3.5q-25 0 -31 10.5t-3 29.5q1 21 -16 34t-66 13q-59 0 -90 -13.5t-34 -33.5q-5 -28 46 -40l98 -18q15 -2 29 -5.5t39 -13.5t41.5 -23.5t27 -37.5t5.5 -54q-3 -21 -15 -42t-35 -43.5 t-66 -36.5t-100 -14q-73 0 -117 33q-19 -33 -46 -33q-37 0 -29 48zM183 -138q4 23 23 39.5t43 16.5t38 -16.5t10 -39.5q-4 -24 -23.5 -40.5t-43.5 -16.5t-37.5 16.5t-9.5 40.5z" />
<glyph unicode="&#x1e6c;" d="M106 492l12 71q4 29 15.5 38.5t40.5 9.5h381q29 0 36.5 -10t2.5 -38l-12 -71q-3 -15 -6 -23.5t-14 -16.5t-30 -8t-27.5 7.5t-7.5 18t2 22.5l7 44h-113l-76 -461h43q13 0 21 -1.5t15 -10.5t4 -26q-6 -37 -53 -37h-169q-13 0 -21 1.5t-15.5 10.5t-4.5 26q6 37 54 37h43 l76 461h-114l-7 -44q-3 -15 -6 -23.5t-14 -16.5t-30 -8t-27.5 7.5t-7.5 18t2 22.5zM183 -138q4 23 23 39.5t43 16.5t38 -16.5t10 -39.5q-4 -24 -23.5 -40.5t-43.5 -16.5t-37.5 16.5t-9.5 40.5z" />
<glyph unicode="&#x1e6d;" d="M89 398q6 38 54 38h77l12 72q2 11 4 17.5t7 14.5t14.5 11.5t24.5 3.5q19 0 27 -7.5t7.5 -17.5t-1.5 -22l-12 -72h152q10 0 16 -1t13.5 -4t10 -11.5t0.5 -21.5q-6 -37 -53 -37h-152l-37 -225q-13 -67 56 -67q14 0 29 4t31.5 19t21.5 40q2 13 5 21t13.5 15.5t28.5 7.5 q19 0 28 -7t8.5 -17t-1.5 -21q-11 -65 -64.5 -101t-116.5 -36t-99 33.5t-24 103.5l38 230h-78q-13 0 -20.5 1.5t-15 10t-4.5 25.5zM183 -138q4 23 23 39.5t43 16.5t38 -16.5t10 -39.5q-4 -24 -23.5 -40.5t-43.5 -16.5t-37.5 16.5t-9.5 40.5z" />
<glyph unicode="&#x1e6e;" d="M46 -149q6 38 53 38h290q14 0 22 -1.5t15 -10.5t4 -27q-6 -38 -53 -38h-289q-14 0 -22 1.5t-15.5 10.5t-4.5 27zM106 492l12 71q4 29 15.5 38.5t40.5 9.5h381q29 0 36.5 -10t2.5 -38l-12 -71q-3 -15 -6 -23.5t-14 -16.5t-30 -8t-27.5 7.5t-7.5 18t2 22.5l7 44h-113 l-76 -461h43q13 0 21 -1.5t15 -10.5t4 -26q-6 -37 -53 -37h-169q-13 0 -21 1.5t-15.5 10.5t-4.5 26q6 37 54 37h43l76 461h-114l-7 -44q-3 -15 -6 -23.5t-14 -16.5t-30 -8t-27.5 7.5t-7.5 18t2 22.5z" />
<glyph unicode="&#x1e6f;" d="M46 -149q6 38 53 38h290q14 0 22 -1.5t15 -10.5t4 -27q-6 -38 -53 -38h-289q-14 0 -22 1.5t-15.5 10.5t-4.5 27zM89 398q6 38 54 38h77l12 72q2 11 4 17.5t7 14.5t14.5 11.5t24.5 3.5q19 0 27 -7.5t7.5 -17.5t-1.5 -22l-12 -72h152q10 0 16 -1t13.5 -4t10 -11.5 t0.5 -21.5q-6 -37 -53 -37h-152l-37 -225q-13 -67 56 -67q14 0 29 4t31.5 19t21.5 40q2 13 5 21t13.5 15.5t28.5 7.5q19 0 28 -7t8.5 -17t-1.5 -21q-11 -65 -64.5 -101t-116.5 -36t-99 33.5t-24 103.5l38 230h-78q-13 0 -20.5 1.5t-15 10t-4.5 25.5z" />
<glyph unicode="&#x1e80;" d="M106 573q6 38 53 38h77q13 0 21 -1.5t15.5 -10.5t4.5 -26q-6 -37 -54 -37h-15l-16 -407l82 217q16 27 50 27q37 0 43 -28l9 -215l118 406h-15q-13 0 -20.5 1.5t-15 10t-4.5 25.5q6 38 53 38h77q12 0 20 -1.5t16 -10.5t5 -26q-7 -35 -45 -37l-152 -503q-13 -41 -55 -41 q-38 0 -41 30l-11 235l-93 -240q-17 -25 -49 -25q-8 0 -13 1t-12.5 4t-11.5 12.5t-4 23.5l14 503q-38 3 -31 37zM306 736q-36 19 -23.5 51t46.5 32q9 0 21 -6l120 -58q14 -6 19.5 -13.5t3.5 -22.5q-3 -13 -15.5 -29.5t-32.5 -16.5q-10 0 -20 5z" />
<glyph unicode="&#x1e81;" d="M81 399q5 37 55 37h112q15 0 23.5 -1.5t15 -10.5t3.5 -26t-13 -25.5t-18.5 -10t-23.5 -1.5h-38l2 -248l59 129q18 26 51 26q27 0 35 -13t14 -65l6 -75l83 246h-38q-15 0 -23.5 1.5t-15 10.5t-3.5 26q5 37 55 37h112q14 0 22.5 -1.5t15.5 -10.5t5 -25q-4 -24 -17.5 -31 t-40.5 -7l-111 -321q-8 -24 -18.5 -34t-39.5 -10q-34 0 -44 21l-14 145l-40 -92q-20 -50 -32.5 -62t-44.5 -12q-31 0 -38.5 10t-6.5 34l-5 321q-27 0 -37.5 7t-6.5 31zM273 539q-37 18 -23 50.5t47 32.5q9 0 21 -6l119 -58q14 -6 20 -13.5t3 -22.5q-1 -11 -14.5 -28.5 t-33.5 -17.5q-8 0 -20 5z" />
<glyph unicode="&#x1e82;" d="M106 573q6 38 53 38h77q13 0 21 -1.5t15.5 -10.5t4.5 -26q-6 -37 -54 -37h-15l-16 -407l82 217q16 27 50 27q37 0 43 -28l9 -215l118 406h-15q-13 0 -20.5 1.5t-15 10t-4.5 25.5q6 38 53 38h77q12 0 20 -1.5t16 -10.5t5 -26q-7 -35 -45 -37l-152 -503q-13 -41 -55 -41 q-38 0 -41 30l-11 235l-93 -240q-17 -25 -49 -25q-8 0 -13 1t-12.5 4t-11.5 12.5t-4 23.5l14 503q-38 3 -31 37zM272 719q3 24 35 36l138 58l23 6q18 0 28 -12t7 -30q-4 -26 -38 -41l-139 -58q-13 -5 -22 -5q-20 0 -27.5 17t-4.5 29z" />
<glyph unicode="&#x1e83;" d="M81 399q5 37 55 37h112q15 0 23.5 -1.5t15 -10.5t3.5 -26t-13 -25.5t-18.5 -10t-23.5 -1.5h-38l2 -248l59 129q18 26 51 26q27 0 35 -13t14 -65l6 -75l83 246h-38q-15 0 -23.5 1.5t-15 10.5t-3.5 26q5 37 55 37h112q14 0 22.5 -1.5t15.5 -10.5t5 -25q-4 -24 -17.5 -31 t-40.5 -7l-111 -321q-8 -24 -18.5 -34t-39.5 -10q-34 0 -44 21l-14 145l-40 -92q-20 -50 -32.5 -62t-44.5 -12q-31 0 -38.5 10t-6.5 34l-5 321q-27 0 -37.5 7t-6.5 31zM239 522q4 24 35 36l139 58l23 6q18 0 28 -12t7 -30q-4 -27 -39 -41l-139 -58q-12 -5 -22 -5 q-14 0 -22 10t-9.5 19.5t-0.5 16.5z" />
<glyph unicode="&#x1e84;" d="M106 573q6 38 53 38h77q13 0 21 -1.5t15.5 -10.5t4.5 -26q-6 -37 -54 -37h-15l-16 -407l82 217q16 27 50 27q37 0 43 -28l9 -215l118 406h-15q-13 0 -20.5 1.5t-15 10t-4.5 25.5q6 38 53 38h77q12 0 20 -1.5t16 -10.5t5 -26q-7 -35 -45 -37l-152 -503q-13 -41 -55 -41 q-38 0 -41 30l-11 235l-93 -240q-17 -25 -49 -25q-8 0 -13 1t-12.5 4t-11.5 12.5t-4 23.5l14 503q-38 3 -31 37zM232 715q4 22 21.5 36.5t39.5 14.5t34.5 -14.5t8.5 -36.5t-21.5 -37t-39.5 -15t-34.5 15t-8.5 37zM427 715q4 22 21.5 36.5t39.5 14.5t34.5 -14.5t8.5 -36.5 t-21.5 -37t-39.5 -15t-34.5 15t-8.5 37z" />
<glyph unicode="&#x1e85;" d="M81 399q5 37 55 37h112q15 0 23.5 -1.5t15 -10.5t3.5 -26t-13 -25.5t-18.5 -10t-23.5 -1.5h-38l2 -248l59 129q18 26 51 26q27 0 35 -13t14 -65l6 -75l83 246h-38q-15 0 -23.5 1.5t-15 10.5t-3.5 26q5 37 55 37h112q14 0 22.5 -1.5t15.5 -10.5t5 -25q-4 -24 -17.5 -31 t-40.5 -7l-111 -321q-8 -24 -18.5 -34t-39.5 -10q-34 0 -44 21l-14 145l-40 -92q-20 -50 -32.5 -62t-44.5 -12q-31 0 -38.5 10t-6.5 34l-5 321q-27 0 -37.5 7t-6.5 31zM220 550q4 22 21 36.5t39 14.5t35 -14.5t9 -36.5t-21.5 -37t-39.5 -15t-34.5 15t-8.5 37zM385 550 q4 22 21 36.5t39 14.5t35 -14.5t9 -36.5t-21.5 -37t-39.5 -15t-34.5 15t-8.5 37z" />
</font>
</defs>
</svg>
