<?xml version="1.0" standalone="no"?>
<!DOCTYPE svg PUBLIC "-//W3C//DTD SVG 1.1//EN" "http://www.w3.org/Graphics/SVG/1.1/DTD/svg11.dtd" >
<svg xmlns="http://www.w3.org/2000/svg">
<metadata></metadata>
<defs>
<font id="latin_modern_mono_prop_10BdOb" horiz-adv-x="525" >
<font-face units-per-em="1000" ascent="784" descent="-216" />
<missing-glyph horiz-adv-x="350" />
<glyph unicode="IJ" horiz-adv-x="840" d="M42 38q7 39 55 39h48l76 457h-48q-13 0 -21.5 1.5t-16 10.5t-4.5 26q7 39 55 39h181q14 0 22 -1.5t15 -10.5t4 -27q-6 -38 -54 -38h-48l-76 -457h48q14 0 22 -1.5t15 -10.5t4 -27q-6 -38 -54 -38h-181q-13 0 -21.5 1.5t-16 10.5t-4.5 26zM401 105q4 26 22 40t40 14 t34 -15t8 -36q-3 -16 -9 -24q23 -18 68 -18q16 0 32.5 3t40.5 22.5t29 53.5l65 389h-70q-13 0 -21.5 1.5t-16 11t-4.5 26.5q6 38 55 38h175q13 0 21.5 -1.5t16.5 -10.5t5 -26q-7 -39 -56 -39h-20l-66 -395q-11 -68 -69 -109t-130 -41q-76 0 -117 33t-33 83z" />
<glyph unicode="ij" horiz-adv-x="583" d="M18 38q7 39 54 39h44l47 282h-39q-12 0 -20.5 1.5t-16.5 11t-5 26.5q7 38 55 38h76q29 0 37 -10t3 -38l-52 -311h34q13 0 21.5 -1.5t15.5 -11t4 -26.5q-6 -38 -53 -38h-164q-13 0 -21 1.5t-15.5 10.5t-4.5 26zM162 537q4 23 23.5 40t44.5 17q23 0 37 -17t10 -40 q-4 -22 -23 -39.5t-44 -17.5q-23 0 -37.5 17t-10.5 40zM188 -139q4 24 22 39t39 15q50 0 42 -59q3 -1 21 -1q57 0 74 112l66 392h-53q-13 0 -21.5 1.5t-16 11t-4.5 26.5q7 38 55 38h89q30 0 37.5 -10t2.5 -38l-71 -425q-12 -69 -56.5 -126.5t-117.5 -57.5q-57 0 -85.5 22.5 t-22.5 59.5zM453 537q4 23 23.5 40t44.5 17q23 0 37 -17t10 -40q-4 -22 -23 -39.5t-44 -17.5q-23 0 -37.5 17t-10.5 40z" />
<glyph unicode="fk" horiz-adv-x="855" d="M26 38q7 39 55 39h43l47 282h-33q-12 0 -20.5 1.5t-16 10.5t-4.5 26q7 39 55 39h32l7 42q11 67 84.5 103t171.5 36q18 0 39.5 -2t34.5 -4l13 -2q8 2 10 2q23 0 27.5 -16.5t-0.5 -32.5l-54 -324l158 121h-16q-12 0 -20.5 1.5t-16.5 10.5t-5 26q7 39 55 39h159 q13 0 21.5 -1.5t16 -11t4.5 -26.5q-6 -38 -55 -38h-34l-135 -104l115 -178h30q12 0 20.5 -1.5t16 -11t4.5 -26.5q-6 -38 -54 -38h-123q-13 0 -21 1.5t-15 10.5t-4 27q6 38 53 38l-84 131l-85 -66l-11 -65h44q14 0 22 -1.5t15 -10.5t4 -27q-6 -38 -54 -38h-172q-13 0 -21 1.5 t-15 10.5t-4 27q6 38 53 38h44l47 282h-198l-47 -282h43q14 0 22 -1.5t15 -10.5t4 -27q-6 -38 -54 -38h-171q-13 0 -21.5 1.5t-16 10.5t-4.5 26zM265 436h198l12 76q-11 12 -9 27q-16 1 -43 1q-60 0 -97 -15q-23 -9 -35.5 -19t-15 -16t-4.5 -18z" />
<glyph unicode="ff" horiz-adv-x="613" d="M23 38q7 39 55 39h44l47 282h-33q-13 0 -21.5 1.5t-16 10.5t-4.5 26q7 39 56 39h32l7 42q8 47 48 79.5t93 46t113 13.5q85 0 110 -27q45 27 102 27q11 0 23 -1.5t31 -7t29.5 -20.5t6.5 -38t-22.5 -37.5t-37.5 -14.5q-36 0 -42 42q-77 0 -88 -67l-6 -37h70q13 0 21 -1.5 t15 -10.5t4 -27q-6 -38 -53 -38h-70l-47 -282h67q13 0 21 -1.5t15 -10.5t4 -27q-6 -38 -53 -38h-195q-14 0 -22 1.5t-15 10.5t-4 27q6 38 54 38h43l67 402q2 11 5 23q-12 13 -10 36q-18 2 -43 2q-58 0 -96 -15q-23 -9 -35.5 -19t-15 -16t-4.5 -18l-6 -36h70q14 0 22 -1.5 t15 -10.5t4 -27q-6 -38 -54 -38h-70l-47 -282h44q13 0 21 -1.5t15 -10.5t4 -27q-6 -38 -53 -38h-172q-13 0 -21 1.5t-16 10.5t-5 26z" />
<glyph unicode="fi" horiz-adv-x="583" d="M22 38q7 39 55 39h43l47 282h-33q-12 0 -20.5 1.5t-16 10.5t-4.5 26q7 39 55 39h32l7 42q6 37 33 65.5t65 43.5t76 22.5t74 7.5q17 0 34 -2t44 -9.5t41 -27t9 -48.5q-4 -24 -21.5 -38.5t-39.5 -14.5q-21 0 -34 14.5t-9 37.5q1 4 2 7t1 4q0 3 -10.5 3t-23.5 -1l-13 -2 q-54 0 -96 -18q-20 -8 -30.5 -17.5t-13 -15.5t-4.5 -17l-6 -36h235q29 0 37 -10t3 -38l-52 -311h43q14 0 22 -1.5t15 -10.5t4 -27q-6 -38 -54 -38h-172q-13 0 -21 1.5t-15 10.5t-4 27q6 38 53 38h44l47 282h-198l-47 -282h44q13 0 21 -1.5t15 -10.5t4 -27q-6 -38 -53 -38 h-172q-13 0 -21.5 1.5t-16 10.5t-4.5 26z" />
<glyph unicode="fl" horiz-adv-x="583" d="M22 38q7 39 55 39h43l47 282h-33q-12 0 -20.5 1.5t-16 10.5t-4.5 26q7 39 55 39h32l7 42q11 67 85 103t172 36q44 0 86 -8q8 2 11 2q37 0 28 -49l-81 -485h43q14 0 22 -1.5t15 -10.5t4 -27q-6 -38 -54 -38h-172q-13 0 -21 1.5t-15 10.5t-4 27q6 38 53 38h44l47 282h-198 l-47 -282h44q13 0 21 -1.5t15 -10.5t4 -27q-6 -38 -53 -38h-172q-13 0 -21.5 1.5t-16 10.5t-4.5 26zM265 436h198l12 76q-11 12 -9 27q-16 1 -43 1q-60 0 -97 -15q-23 -9 -35.5 -19t-15 -16t-4.5 -18z" />
<glyph unicode="ffi" horiz-adv-x="875" d="M26 38q7 39 55 39h44l47 282h-33q-13 0 -21.5 1.5t-16 10.5t-4.5 26q7 39 56 39h32l7 42q8 50 54 83t95 44.5t98 11.5q91 0 118 -37q71 37 166 37q17 0 34 -2t43.5 -9.5t40.5 -27t9 -48.5q-4 -24 -21 -38.5t-39 -14.5q-21 0 -34.5 14.5t-9.5 37.5q1 4 2 7t1 4q0 3 -10 3 t-23 -1l-13 -2q-54 0 -96 -18q-20 -8 -31 -17.5t-13 -15t-4 -17.5l-6 -36h235q29 0 36.5 -10t2.5 -38l-52 -311h44q14 0 22 -1.5t15 -10.5t4 -27q-6 -38 -54 -38h-172q-13 0 -21 1.5t-15 10.5t-4 27q6 38 53 38h44l47 282h-198l-47 -282h43q14 0 22 -1.5t15 -10.5t4 -27 q-6 -38 -54 -38h-171q-13 0 -21.5 1.5t-16 10.5t-4.5 26q7 39 55 39h43l47 282h-199l-47 -282h44q13 0 21 -1.5t15 -10.5t4 -27q-6 -38 -53 -38h-172q-13 0 -21 1.5t-16 10.5t-5 26zM265 436h199l8 52q-16 14 -12 41q1 4 2 7t1 4q0 3 -10.5 3t-23.5 -1l-13 -2 q-56 0 -106 -22q-16 -8 -24.5 -16t-10.5 -13.5t-4 -16.5z" />
<glyph unicode="ffl" horiz-adv-x="875" d="M26 38q7 39 55 39h44l47 282h-33q-13 0 -21.5 1.5t-16 10.5t-4.5 26q7 39 56 39h32l7 42q8 46 48 78.5t93.5 46.5t113.5 14q93 0 115 -34q71 34 169 34q47 0 73 -6h24q37 0 28 -49l-81 -485h44q14 0 22 -1.5t15 -10.5t4 -27q-6 -38 -54 -38h-172q-13 0 -21 1.5t-15 10.5 t-4 27q6 38 53 38h44l47 282h-198l-47 -282h43q14 0 22 -1.5t15 -10.5t4 -27q-6 -38 -54 -38h-171q-13 0 -21.5 1.5t-16 10.5t-4.5 26q7 39 55 39h43l47 282h-199l-47 -282h44q13 0 21 -1.5t15 -10.5t4 -27q-6 -38 -53 -38h-172q-13 0 -21 1.5t-16 10.5t-5 26zM265 436h199 l7 42q2 17 5 24q-14 14 -10 36q-19 2 -44 2q-58 0 -96 -15q-23 -9 -35.5 -19t-15 -16t-4.5 -18zM557 436h198l12 76q-11 12 -9 27q-16 1 -43 1q-60 0 -97 -15q-23 -9 -35.5 -19t-15 -16t-4.5 -18z" />
<glyph unicode=" "  horiz-adv-x="350" />
<glyph unicode="&#x09;" horiz-adv-x="350" />
<glyph unicode="&#xa0;" horiz-adv-x="350" />
<glyph unicode="!" horiz-adv-x="292" d="M99 57q4 24 23 41t43 17t38 -17t10 -41q-5 -24 -24 -40.5t-43 -16.5t-37.5 16.5t-9.5 40.5zM133 212q10 68 49 345q3 21 12.5 35.5t21.5 20t20 7.5t14 2t13 -2t17 -7.5t14.5 -19.5t1.5 -35q-5 -31 -17 -88.5t-14 -67.5l-31 -168q-8 -36 -17.5 -45.5t-40.5 -9.5 q-11 0 -19.5 1.5t-16.5 9.5t-7 22z" />
<glyph unicode="&#x22;" horiz-adv-x="432" d="M169 394l27 163q6 43 26 55q29 18 52 0q10 -8 11 -24t-3 -31l-27 -163q-2 -13 -13.5 -22.5t-23.5 -9.5h-24q-13 0 -20 9.5t-5 22.5zM309 394l27 163q6 43 26 55q29 18 52 0q10 -8 11 -24t-3 -31l-27 -163q-2 -13 -13.5 -22.5t-23.5 -9.5h-24q-13 0 -20 9.5t-5 22.5z" />
<glyph unicode="#" horiz-adv-x="875" d="M99 232q7 43 60 43h155l36 62h-181q-8 0 -14.5 1t-16 4.5t-13.5 13t-2 24.5q7 43 66 43h212l90 154q19 34 48 34q18 0 28 -13t8 -30q-2 -10 -11 -25l-70 -120h128l89 154q19 34 49 34q17 0 27 -13t8 -30q-3 -10 -10 -25l-71 -120h113q12 0 22.5 -1.5t20.5 -12t7 -29.5 q-7 -43 -60 -43h-154l-36 -62h180q8 0 14.5 -1t16 -4.5t13.5 -13t2 -24.5q-7 -43 -65 -43h-211l-92 -155q-19 -34 -48 -34q-18 0 -28 13t-8 30q4 13 11 25l72 121h-128l-91 -155q-19 -34 -49 -34q-17 0 -27 13t-8 30q5 15 10 25l73 121h-114q-13 0 -23 1.5t-20.5 12 t-7.5 29.5zM407 275h127l36 62h-127z" />
<glyph unicode="$" d="M83 170q4 24 18.5 38t25 16.5t19.5 2.5q19 0 32.5 -14.5t9.5 -37.5q-4 -27 -20 -37q10 -52 68 -64l35 208q-45 10 -75.5 28.5t-44 37t-19 41.5t-5 35t2.5 24q9 58 63 106t133 60l5 29q8 49 47 49q38 0 30 -49l-4 -28q80 -9 115.5 -54.5t25.5 -107.5q-11 -57 -63 -57 q-36 0 -41.5 33.5t17.5 52.5q-8 44 -67 55l-31 -185q48 -10 80 -33t43 -48t16 -51.5t-1 -44.5q-9 -59 -60.5 -111t-137.5 -67l-4 -29q-10 -49 -47 -49q-40 0 -30 49l4 28q-79 10 -114.5 59t-25.5 115zM207 452q-5 -31 17.5 -53t60.5 -31l28 168q-41 -8 -71 -31.5t-35 -52.5z M314 76q42 10 71.5 36.5t35.5 58.5q5 33 -15.5 59t-60.5 36z" />
<glyph unicode="%" horiz-adv-x="875" d="M135 494q14 84 68 141t116 57t97.5 -56.5t20.5 -142.5q-13 -83 -67.5 -140t-116.5 -57q-61 0 -96.5 56.5t-21.5 141.5zM162 -38q1 12 16 30l560 678q18 22 40 22q18 0 28.5 -13t7.5 -30q-2 -13 -16 -30l-558 -675q-21 -25 -43 -25q-18 0 -28 13t-7 30zM207 493 q-8 -50 10 -85t49 -35t61 35t38 86q9 51 -9 86t-49 35t-61 -35t-39 -87zM539 118q13 83 67.5 140t116.5 57q61 0 96.5 -56.5t21.5 -141.5q-14 -84 -68.5 -141t-116.5 -57t-97 56.5t-20 142.5zM611 117q-9 -51 9 -86t49 -35t61 35t39 87q8 50 -10 85t-49 35t-61 -35t-38 -86z " />
<glyph unicode="&#x26;" horiz-adv-x="817" d="M70 143q12 70 79 113l110 69q-19 76 -6 149q12 69 63.5 108.5t104.5 39.5q58 0 84.5 -44t17.5 -98q-7 -43 -48.5 -85.5t-125.5 -97.5q30 -77 94 -145q32 26 62.5 59t52 59.5t69.5 88.5h-58q-12 0 -20.5 1.5t-16.5 10.5t-5 26q7 39 55 39h206q13 0 21 -1.5t15 -10.5t4 -27 q-6 -38 -53 -38h-62l-99 -126q-64 -78 -118 -127q57 -40 119 -40q30 0 55.5 11.5t33.5 34.5q9 40 42 40q4 0 10 -1t14.5 -11t5.5 -28q-8 -47 -56.5 -85t-117.5 -38q-87 0 -172 65q-98 -65 -193 -65q-80 0 -129 44t-38 110zM149 145q-5 -34 23 -56.5t74 -22.5q64 0 129 39 q-70 83 -97 150q-72 -43 -98.5 -63.5t-30.5 -46.5zM322 474q-11 -43 2 -106q117 75 124 112q4 24 -6.5 44.5t-36.5 20.5q-24 0 -50.5 -17t-32.5 -54z" />
<glyph unicode="'" horiz-adv-x="292" d="M169 394l27 163q6 43 26 55q29 18 52 0q10 -8 11 -24t-3 -31l-27 -163q-2 -13 -13.5 -22.5t-23.5 -9.5h-24q-13 0 -20 9.5t-5 22.5z" />
<glyph unicode="(" horiz-adv-x="408" d="M131 306q12 72 44.5 137.5t71 109t78 76.5t67.5 48t38 15q22 0 28.5 -12t4.5 -24q-2 -13 -8.5 -19.5t-23.5 -17.5q-66 -40 -114 -98.5t-70 -110t-31 -104.5q-15 -88 10 -172.5t99 -139.5q15 -11 19.5 -18t2.5 -20q-1 -7 -5 -14t-14.5 -14.5t-25.5 -7.5q-20 0 -62 39 t-72 90q-60 120 -37 257z" />
<glyph unicode=")" horiz-adv-x="408" d="M46 -44q3 20 32 37q97 59 149 143.5t66 169.5q33 207 -116 318q-18 12 -15 32q2 12 13 24t32 12q20 0 62 -39t72 -90q61 -117 37 -257q-12 -72 -44.5 -137.5t-70.5 -109t-78 -76.5t-68 -48t-38 -15q-21 0 -28 12.5t-5 23.5z" />
<glyph unicode="*" d="M101 217q4 24 36 39l98 50l-83 50q-25 14 -21 38q2 15 16 28t32 13q11 0 25 -10l81 -53l15 102q9 50 49 50q42 0 33 -50l-19 -102l119 63q22 0 33.5 -9.5t10 -18.5t-0.5 -13q-4 -24 -36 -39l-98 -50l93 -55q14 -14 11 -33q-2 -15 -16 -28t-32 -13q-12 0 -37 17l-69 46 l-15 -102q-9 -50 -49 -50q-42 0 -33 50l19 102l-119 -63q-22 0 -33.5 9.5t-10 18.5t0.5 13z" />
<glyph unicode="+" horiz-adv-x="817" d="M110 306q7 43 62 43h251l42 251q8 55 52 55q42 0 34 -55l-42 -251h251q11 0 21 -1.5t20 -12t7 -29.5q-7 -43 -62 -43h-251l-42 -251q-11 -55 -52 -55q-45 0 -34 55l42 251h-251q-11 0 -21 1.5t-20 12t-7 29.5z" />
<glyph unicode="," horiz-adv-x="292" d="M64 -96q3 16 28 36q35 26 44 61q-45 9 -37 56q4 24 22.5 41t43.5 17q29 0 45 -24t8 -73q-10 -61 -54 -107t-67 -46q-15 0 -25 12.5t-8 26.5z" />
<glyph unicode="-" horiz-adv-x="350" d="M44 219q6 37 54 37h193q10 0 16 -1t14 -4t10.5 -11.5t0.5 -21.5q-6 -38 -54 -38h-193q-14 0 -22 1.5t-15 10.5t-4 27z" />
<glyph unicode="." horiz-adv-x="292" d="M99 57q4 24 23 41t43 17t38 -17t10 -41q-5 -24 -24 -40.5t-43 -16.5t-37.5 16.5t-9.5 40.5z" />
<glyph unicode="/" d="M49 -38q1 7 13 27l432 670q21 33 47 33q18 0 28.5 -13t7.5 -30q-1 -7 -13 -27l-432 -670q-21 -33 -48 -33q-18 0 -28 13t-7 30z" />
<glyph unicode="0" d="M98 306q4 22 7.5 39t13.5 52t22 62t33.5 59t47 53.5t63 36t81.5 14.5t76.5 -14.5t51 -36t29 -54t13.5 -59t1.5 -62t-3.5 -52.5t-6 -39t-7.5 -39t-13.5 -52t-22 -62t-33.5 -59t-47 -53.5t-63 -36t-81.5 -14.5t-76.5 14.5t-51 36t-29 54t-13.5 59t-1.5 62t3.5 52.5t6 39z M185 315q-4 -24 -7 -46t-3 -62.5t8 -68.5t30.5 -50t59.5 -22q127 0 172 249q36 230 -92 230q-132 0 -168 -230z" />
<glyph unicode="1" d="M113 38q7 39 55 39h79l71 427q-46 -18 -93 -18q-43 0 -37 38q7 35 63 40q59 5 96 38q21 20 38 20q37 0 30 -49l-83 -496h79q14 0 22 -1.5t15 -10.5t4 -27q-6 -38 -54 -38h-243q-13 0 -21.5 1.5t-16 10.5t-4.5 26z" />
<glyph unicode="2" d="M56 39q2 17 23 33l245 180q123 90 137 172q9 57 -28 89t-97 32q-36 0 -67.5 -17.5t-47.5 -46.5q11 -12 7 -33q-4 -23 -22.5 -38t-37.5 -15t-34 13.5t-10 42.5q12 68 77 119.5t152 51.5q96 0 152 -54.5t41 -143.5q-18 -105 -143 -201q-19 -15 -199 -146h199 q5 24 14.5 34.5t35.5 10.5q19 0 28 -7.5t8 -18t-2 -22.5l-4 -25q-5 -29 -16 -39t-40 -10h-329q-10 0 -16.5 1t-14.5 4t-10.5 12t-0.5 22z" />
<glyph unicode="3" d="M65 141q4 26 22 40t40 14t34 -15t8 -36q-4 -23 -14 -31q23 -47 120 -47q59 0 102 33.5t51 78.5q7 43 -24.5 77.5t-94.5 34.5h-45q-13 0 -21 1.5t-15 11t-4 26.5q4 24 19 31t66 10q57 3 89 27q44 32 51 78q5 30 -22 50t-72 20q-66 0 -100 -23q10 -30 -11.5 -53.5 t-47.5 -23.5q-20 0 -33.5 14t-9.5 40q9 55 66.5 89t147.5 34q85 0 130.5 -43t35.5 -103q-14 -87 -96 -142q42 -25 63 -66t13 -90q-13 -75 -84 -132t-167 -57q-95 0 -152 42.5t-45 109.5z" />
<glyph unicode="4" d="M62 212q4 25 17 39l280 347q13 17 22 21t30 4h27q30 0 37.5 -9.5t2.5 -39.5l-56 -333h67q14 0 22 -1.5t15.5 -10.5t4.5 -27q-6 -38 -55 -38h-67l-14 -87h52q13 0 21.5 -1.5t15.5 -11t4 -26.5q-6 -38 -54 -38h-175q-13 0 -21 1.5t-16 10.5t-5 26q7 39 55 39h52l14 87h-236 q-28 0 -36 9t-4 39zM158 241h191l50 300z" />
<glyph unicode="5" d="M74 147q5 30 24 42.5t38 12.5q20 0 33 -14.5t9 -37.5q-4 -22 -15 -33q20 -51 96 -51q59 0 106.5 36.5t56.5 90.5q8 48 -16.5 87t-76.5 39q-77 0 -123 -46q-8 -8 -11 -10.5t-10 -5t-18 -2.5q-26 0 -32 16.5t0 32.5l43 258q5 29 16 39t40 10h261q14 0 22 -1.5t15 -10.5 t4 -27q-6 -38 -54 -38h-224l-27 -161q52 22 112 22q86 0 131.5 -60.5t32.5 -141.5q-14 -84 -90 -144t-171 -60q-84 0 -133.5 46.5t-38.5 111.5z" />
<glyph unicode="6" d="M100 299q16 97 68.5 172.5t119.5 113t135 37.5q70 0 98.5 -32.5t21.5 -76.5q-4 -25 -21.5 -40t-40.5 -15t-35 15t-8 37q2 14 11 27q-14 8 -40 8q-61 0 -121 -51t-88 -136q65 44 140 44q84 0 132.5 -59.5t34.5 -146.5q-15 -89 -87.5 -148t-157.5 -59q-40 0 -73 15 t-60.5 51t-34 95.5t5.5 148.5zM180 167q16 -101 95 -101q51 0 94.5 36.5t52.5 93.5q9 52 -18.5 90t-81.5 38q-52 0 -92 -29t-48 -71q-4 -43 -2 -57z" />
<glyph unicode="7" d="M131 537l6 41q3 15 6 23.5t14.5 17t30.5 8.5q27 0 34 -16h315q13 0 21.5 -1.5t15.5 -11t4 -26.5q-1 -12 -6 -18t-25 -21q-27 -23 -53 -47.5t-66 -73t-71.5 -100t-60.5 -125t-42 -150.5q-4 -24 -18 -36t-31 -12q-19 0 -28 10.5t-7.5 22.5t1.5 22q8 46 24.5 98t47 118.5 t82.5 138.5t118 135h-228q-5 -24 -14.5 -34.5t-35.5 -10.5q-19 0 -28 7.5t-8 18t2 22.5z" />
<glyph unicode="8" d="M71 178q8 49 47.5 89.5t95.5 61.5q-46 21 -67.5 55t-15.5 74q11 64 79 114t156 50t139 -49.5t40 -114.5q-13 -84 -126 -129q48 -21 75 -61.5t19 -89.5q-13 -76 -86 -132.5t-167 -56.5q-93 0 -147.5 56.5t-41.5 132.5zM156 179q-8 -47 26.5 -80t90.5 -33t101.5 33t53.5 80 q7 44 -25.5 77.5t-92.5 33.5t-103.5 -33.5t-50.5 -77.5zM216 457q-6 -38 25.5 -64t81.5 -26t90.5 26t46.5 64q6 35 -25 61.5t-82 26.5q-52 0 -91.5 -26.5t-45.5 -61.5z" />
<glyph unicode="9" d="M83 98q4 25 21.5 40t40.5 15t35 -15t8 -37q-2 -11 -9 -25q16 -10 49 -10q62 0 118 53.5t81 133.5q-65 -44 -141 -44q-84 0 -132.5 59.5t-34.5 146.5q15 89 89 148t161 59q39 0 70.5 -14.5t58.5 -50t33.5 -95t-5.5 -150.5q-24 -143 -115.5 -233t-195.5 -90 q-47 0 -77.5 12.5t-40 29.5t-14.5 36t0 31zM204 415q-9 -52 19 -90t81 -38q54 0 94 30.5t47 69.5q7 55 3.5 72t-21.5 48q-27 38 -71 38q-52 0 -97.5 -36.5t-54.5 -93.5z" />
<glyph unicode=":" horiz-adv-x="292" d="M99 57q4 24 23 41t43 17t38 -17t10 -41q-5 -24 -24 -40.5t-43 -16.5t-37.5 16.5t-9.5 40.5zM152 379q5 24 24 40.5t43 16.5t37.5 -16.5t9.5 -40.5t-23 -40.5t-43 -16.5t-38 16.5t-10 40.5z" />
<glyph unicode=";" horiz-adv-x="292" d="M64 -95q3 15 15 24q38 35 51 74q-39 13 -31 54q4 24 22.5 41t43.5 17q60 0 45 -91q-11 -66 -50.5 -112.5t-62.5 -46.5q-15 0 -25 12.5t-8 27.5zM152 379q5 24 24 40.5t43 16.5t37.5 -16.5t9.5 -40.5t-23 -40.5t-43 -16.5t-38 16.5t-10 40.5z" />
<glyph unicode="&#x3c;" d="M104 306q4 24 33 39l352 202q20 11 32 11q17 0 28.5 -11.5t7.5 -31.5q-4 -22 -35 -41l-295 -168l239 -168q25 -19 21 -41q-3 -20 -18 -31.5t-32 -11.5q-13 0 -28 11l-289 204q-20 14 -16 37z" />
<glyph unicode="=" horiz-adv-x="817" d="M98 232q7 43 60 43h592q8 0 14.5 -1t16 -4.5t13.5 -13t2 -24.5q-7 -43 -66 -43h-580q-13 0 -23.5 1.5t-21 12t-7.5 29.5zM122 380q7 43 67 43h580q9 0 16.5 -1t17.5 -5t14.5 -13.5t2.5 -23.5q-7 -43 -60 -43h-592q-8 0 -14.5 1t-16 4.5t-13.5 13t-2 24.5z" />
<glyph unicode="&#x3e;" d="M69 97q4 21 35 41l295 168l-239 168q-25 20 -21 41q4 20 19 31.5t31 11.5q13 0 28 -12l289 -203q20 -14 16 -37t-32 -39l-353 -202q-20 -11 -32 -11q-16 0 -27.5 11.5t-8.5 31.5z" />
<glyph unicode="?" horiz-adv-x="496" d="M137 490q8 51 61.5 89t142.5 38q41 0 73 -6.5t51 -17t33 -24t18 -27.5t6.5 -28t-1.5 -26q-10 -64 -78 -100q-32 -18 -54 -34.5t-41.5 -45.5t-25.5 -65l-3 -17q-5 -29 -16.5 -38t-39.5 -9q-33 0 -39 12.5t2 46.5q3 21 7.5 36t16 39t29.5 44t50.5 45t75.5 49q29 18 32 37 q2 11 -3.5 20.5t-18.5 16.5t-35 11t-52 4q-59 0 -91 -26q13 -30 -9 -54.5t-48 -24.5q-20 0 -34 14.5t-9 40.5zM186 57q4 24 23 41t43 17t38 -17t10 -41q-5 -24 -24 -40.5t-43 -16.5t-37.5 16.5t-9.5 40.5z" />
<glyph unicode="@" horiz-adv-x="700" d="M109 306q21 128 138 219.5t260 91.5q237 0 187 -301q-12 -71 -52 -121.5t-85.5 -71t-90.5 -20.5q-78 0 -124.5 58.5t-32.5 144.5q14 83 80 142.5t146 59.5q39 0 74 -17q-14 20 -35 32q-30 17 -80 17q-113 0 -205.5 -68.5t-108.5 -166.5q-16 -95 53 -164.5t184 -69.5 q81 0 161 40q19 11 38 11q10 0 17.5 -1.5t16 -10t5.5 -24.5q-3 -23 -37 -38q-104 -54 -213 -54q-146 0 -231.5 91.5t-64.5 220.5zM384 305q-8 -51 20 -88t79 -37q48 0 89.5 36.5t50.5 89.5q8 51 -20 88t-79 37q-48 0 -89.5 -36.5t-50.5 -89.5z" />
<glyph unicode="A" horiz-adv-x="758" d="M49 39q6 38 54 38h38l267 508q13 25 28.5 31.5t36.5 6.5h19q15 0 23 -1.5t17 -10.5t12 -27l98 -507h38q14 0 22 -1.5t15 -10.5t4 -27q-6 -38 -54 -38h-154q-13 0 -21.5 1.5t-16 11t-4.5 26.5q6 38 55 38h26l-17 90h-257l-47 -90h26q13 0 21.5 -1.5t16 -11t4.5 -26.5 q-6 -38 -55 -38h-154q-14 0 -22 1.5t-15 10.5t-4 27zM319 244h201l-54 282z" />
<glyph unicode="B" horiz-adv-x="729" d="M52 38q7 39 55 39h43l76 457h-43q-12 0 -20.5 1.5t-16.5 10.5t-5 26q7 39 55 39h314q99 0 158.5 -48t48.5 -111q-7 -44 -47 -77.5t-94 -53.5q66 -19 98.5 -60.5t24.5 -89.5q-12 -68 -88 -119.5t-176 -51.5h-341q-13 0 -21 1.5t-16 10.5t-5 26zM236 77h186q72 0 129.5 27 t64.5 69q7 43 -35 74.5t-110 31.5h-201zM282 356h152q80 0 136.5 27.5t62.5 67.5q6 34 -33.5 58.5t-103.5 24.5h-184z" />
<glyph unicode="C" horiz-adv-x="758" d="M109 306q21 128 137.5 222t264.5 94q122 0 193 -56q10 17 18 27q18 29 43 29q37 0 30 -49l-23 -135q-3 -16 -6 -24t-14 -16t-31 -8q-34 0 -36 29q-5 62 -53 94q-50 32 -127 32q-114 0 -204.5 -71t-106.5 -168q-16 -98 50 -169t183 -71q82 0 138 26q29 13 47.5 31t23 28 t8.5 26q8 36 48 36q42 0 36 -41q-13 -79 -100.5 -131t-220.5 -52q-150 0 -235 94.5t-63 222.5z" />
<glyph unicode="D" horiz-adv-x="788" d="M53 38q7 39 55 39h43l76 457h-43q-13 0 -21.5 1.5t-16 10.5t-4.5 26q7 39 55 39h312q132 0 211 -91.5t57 -219.5q-20 -123 -128.5 -211.5t-241.5 -88.5h-312q-13 0 -21.5 1.5t-16 10.5t-4.5 26zM237 77h167q106 0 190.5 65.5t99.5 158.5q16 94 -45 163.5t-170 69.5h-166z " />
<glyph unicode="E" horiz-adv-x="700" d="M52 38q7 39 55 39h43l76 457h-43q-12 0 -20.5 1.5t-16.5 10.5t-5 26q7 39 55 39h500q29 0 37 -10t3 -39l-12 -70q-3 -16 -6 -24.5t-14 -16.5t-31 -8q-19 0 -28 7.5t-8 18.5t2 23l7 42h-335l-30 -179h176q6 32 15.5 43.5t36.5 11.5q19 0 27.5 -7.5t7.5 -18.5t-2 -23 l-15 -90q-3 -15 -5.5 -23.5t-13.5 -17t-30 -8.5q-27 0 -33 11.5t-1 44.5h-176l-33 -201h363l10 58q3 16 6 24.5t14 16.5t31 8q19 0 27.5 -7.5t8 -18.5t-1.5 -23l-15 -86q-5 -29 -16 -39t-40 -10h-528q-13 0 -21 1.5t-16 10.5t-5 26z" />
<glyph unicode="F" horiz-adv-x="671" d="M52 38q7 39 54 39h44l76 457h-44q-12 0 -20.5 1.5t-16 10.5t-4.5 26q7 39 54 39h486q29 0 36.5 -10t2.5 -39l-12 -70q-3 -16 -5.5 -24t-13.5 -16.5t-31 -8.5q-19 0 -28 7.5t-8 18.5t2 23l7 42h-321l-32 -190h170q6 32 16 43.5t37 11.5q19 0 27.5 -7.5t8 -18t-1.5 -22.5 l-16 -91q-2 -14 -5 -23t-14.5 -17t-30.5 -8q-27 0 -32.5 11.5t-0.5 43.5h-170l-32 -190h67q14 0 22 -1.5t15 -10.5t4 -27q-6 -38 -54 -38h-195q-13 0 -21 1.5t-15.5 10.5t-4.5 26z" />
<glyph unicode="G" horiz-adv-x="817" d="M110 306q21 128 137.5 222t264.5 94q122 0 193 -56q4 7 10 15.5t8 11.5q18 29 43 29q37 0 30 -49l-23 -135q-3 -16 -6 -24t-14 -16t-31 -8q-34 0 -36 29q-5 62 -53 94q-50 32 -127 32q-114 0 -204 -70.5t-107 -169.5q-17 -98 50 -168.5t177 -70.5q72 0 133.5 38t88.5 99 h-75q-13 0 -21 1.5t-15.5 10.5t-4.5 27q6 38 54 38h187q13 0 21.5 -1.5t16 -11t4.5 -26.5q-6 -38 -55 -38h-22l-26 -154q-2 -11 -4 -17.5t-7 -15t-14.5 -12.5t-24.5 -4q-20 0 -29 7.5t-8 18.5t2 23l3 15q-99 -75 -222 -75q-143 0 -229.5 93t-64.5 224z" />
<glyph unicode="H" horiz-adv-x="758" d="M53 38q7 39 54 39h44l76 457h-44q-12 0 -20.5 1.5t-16 10.5t-4.5 26q7 39 54 39h172q14 0 22 -1.5t15 -10.5t4 -27q-6 -38 -54 -38h-43l-30 -178h311l30 178h-43q-13 0 -21.5 1.5t-16 10.5t-4.5 26q7 39 55 39h172q13 0 21 -1.5t15 -10.5t4 -27q-6 -38 -53 -38h-44 l-76 -457h44q13 0 21 -1.5t15 -10.5t4 -27q-6 -38 -53 -38h-172q-13 0 -21.5 1.5t-16 10.5t-4.5 26q7 39 55 39h43l34 202h-311l-34 -202h43q14 0 22 -1.5t15 -10.5t4 -27q-6 -38 -54 -38h-172q-13 0 -21 1.5t-15.5 10.5t-4.5 26z" />
<glyph unicode="I" horiz-adv-x="350" d="M42 38q7 39 55 39h48l76 457h-48q-13 0 -21.5 1.5t-16 10.5t-4.5 26q7 39 55 39h181q14 0 22 -1.5t15 -10.5t4 -27q-6 -38 -54 -38h-48l-76 -457h48q14 0 22 -1.5t15 -10.5t4 -27q-6 -38 -54 -38h-181q-13 0 -21.5 1.5t-16 10.5t-4.5 26z" />
<glyph unicode="J" d="M86 105q4 26 22 40t40 14t34 -15t8 -36q-3 -16 -9 -24q23 -18 68 -18q16 0 32.5 3t40.5 22.5t29 53.5l65 389h-70q-13 0 -21.5 1.5t-16 11t-4.5 26.5q6 38 55 38h175q13 0 21.5 -1.5t16.5 -10.5t5 -26q-7 -39 -56 -39h-20l-66 -395q-11 -68 -69 -109t-130 -41 q-76 0 -117 33t-33 83z" />
<glyph unicode="K" horiz-adv-x="788" d="M60 38q7 39 55 39h43l76 457h-43q-13 0 -21.5 1.5t-16 10.5t-4.5 26q7 39 55 39h159q13 0 21.5 -1.5t15.5 -11t4 -26.5q-6 -38 -54 -38h-44l-42 -252l354 253q-20 2 -28 10t-4 28q6 38 54 38h141q9 0 15 -1t14 -4t11 -12t1 -22q-6 -38 -54 -38h-36l-252 -180l195 -277h31 q13 0 21.5 -1.5t16 -11t4.5 -26.5q-6 -38 -55 -38h-122q-13 0 -21 1.5t-16 10.5t-5 26q4 21 16 29t36 9l-164 233l-168 -120l-19 -112h44q13 0 21.5 -1.5t15.5 -11t4 -26.5q-6 -38 -54 -38h-159q-13 0 -21.5 1.5t-16 10.5t-4.5 26z" />
<glyph unicode="L" horiz-adv-x="642" d="M51 38q7 39 55 39h43l76 457h-43q-13 0 -21.5 1.5t-16 10.5t-4.5 26q7 39 55 39h195q13 0 21.5 -1.5t15.5 -11t4 -26.5q-6 -38 -54 -38h-67l-76 -457h292l10 58q3 16 6 24.5t14 16.5t31 8q19 0 28 -7.5t8 -18.5t-2 -23l-15 -86q-5 -29 -16 -39t-40 -10h-457 q-13 0 -21.5 1.5t-16 10.5t-4.5 26z" />
<glyph unicode="M" horiz-adv-x="933" d="M62 38q7 39 55 39h43l76 457h-43q-13 0 -21.5 1.5t-16 10.5t-4.5 26q7 39 55 39h93q28 0 39.5 -8t17.5 -33l127 -467l283 469q11 18 24.5 27t22.5 10.5t24 1.5h93q14 0 22 -1.5t15 -10.5t4 -27q-6 -38 -54 -38h-43l-76 -457h43q14 0 22 -1.5t15 -10.5t4 -27 q-6 -38 -54 -38h-159q-13 0 -21.5 1.5t-15.5 11t-4 26.5q6 38 54 38h44l70 419l-271 -446q-23 -39 -57 -39q-35 0 -44 41l-122 445l-70 -420h44q13 0 21.5 -1.5t15.5 -11t4 -26.5q-6 -38 -54 -38h-159q-13 0 -21.5 1.5t-16 10.5t-4.5 26z" />
<glyph unicode="N" horiz-adv-x="758" d="M60 38q7 39 54 39h44l76 457h-44q-12 0 -20.5 1.5t-16 10.5t-4.5 26q7 39 54 39h92q15 0 23.5 -1t20.5 -10t19 -26l197 -483l74 443h-43q-13 0 -21.5 1.5t-16 10.5t-4.5 26q7 39 55 39h159q13 0 21 -1.5t15 -10.5t4 -27q-6 -38 -53 -38h-44l-81 -485q-5 -31 -16 -40 t-40 -9q-15 0 -23.5 1t-20.5 10t-19 26l-197 483l-74 -443h43q14 0 22 -1.5t15 -10.5t4 -27q-6 -38 -54 -38h-159q-13 0 -21 1.5t-15.5 10.5t-4.5 26z" />
<glyph unicode="O" horiz-adv-x="817" d="M110 306q21 128 138 222t264 94q146 0 232 -93t64 -224q-21 -128 -138 -222t-264 -94q-146 0 -232 93t-64 224zM197 317q-17 -103 47.5 -177t174.5 -74t199.5 74t106.5 177q16 93 -50 160.5t-176 67.5t-198 -67t-104 -161z" />
<glyph unicode="P" horiz-adv-x="700" d="M52 38q7 39 54 39h44l76 457h-44q-12 0 -20.5 1.5t-16 10.5t-4.5 26q7 39 54 39h300q105 0 167 -55.5t50 -131.5q-13 -75 -93.5 -130.5t-185.5 -55.5h-171l-27 -161h43q14 0 22 -1.5t15 -10.5t4 -27q-6 -38 -54 -38h-172q-13 0 -21 1.5t-15.5 10.5t-4.5 26zM276 315h154 q75 0 133 32t66 77t-39.5 77.5t-123.5 32.5h-154z" />
<glyph unicode="Q" horiz-adv-x="817" d="M110 306q21 128 138 222t264 94q146 0 232 -93t64 -224q-4 -26 -14.5 -54.5t-33 -67.5t-65.5 -78.5t-102 -70.5l80 -108q18 -25 17 -36q-5 -25 -44 -25q-20 0 -28.5 3t-18.5 17l-79 106l-8 12l-2 -1q-53 -13 -104 -13q-146 0 -232 93t-64 224zM195 305q-17 -98 48 -168.5 t176 -70.5q21 0 45 3l-57 81q4 22 13 28t33 6q18 0 23 -2t15 -11q47 -64 57 -77q68 30 116 87.5t59 124.5q17 98 -48 168.5t-176 70.5q-109 0 -198 -70.5t-106 -169.5z" />
<glyph unicode="R" horiz-adv-x="758" d="M53 38q7 39 55 39h44l76 457h-44q-12 0 -20.5 1.5t-16.5 10.5t-5 26q7 39 55 39h260q111 0 183.5 -50.5t60.5 -121.5q-6 -39 -38.5 -74t-84.5 -59q22 -15 36 -39q11 -22 11 -42t-7 -60q-4 -26 -5.5 -39t-0.5 -29.5t9 -23.5t24 -7q31 0 40 36q10 37 48 37q43 0 37 -39 q-7 -41 -46 -76t-92 -35q-67 0 -93 48q-14 25 -14.5 52.5t8.5 71.5q8 39 5 55t-25 30q-40 21 -115 21h-130l-32 -190h44q13 0 21.5 -1.5t15.5 -11t4 -26.5q-6 -38 -54 -38h-172q-13 0 -21 1.5t-16 10.5t-5 26zM280 344h123q78 0 142.5 26.5t70.5 68.5q7 42 -48 68.5 t-133 26.5h-123z" />
<glyph unicode="S" horiz-adv-x="583" d="M62 38l22 128q3 16 6 24.5t14 16.5t31 8q18 0 26.5 -6.5t8 -15.5t-0.5 -18q-5 -55 36 -83q42 -26 121 -26q59 0 100 30.5t47 69.5q3 17 -1.5 32.5t-10.5 22.5l-6 7q-18 18 -34.5 24.5t-61.5 16.5l-40 9q-74 16 -103 27t-53 37q-42 50 -31 112q11 67 78 117.5t159 50.5 q93 0 145 -44q16 29 24.5 36.5t25.5 7.5q37 0 30 -49l-22 -128q-3 -16 -6 -24.5t-14 -16.5t-31 -8q-24 0 -30 9.5t-5 29.5q-4 110 -131 110q-55 0 -95.5 -26t-46.5 -61q-4 -26 11 -45.5t31.5 -27.5t32.5 -11l139 -30q66 -15 101.5 -64t25.5 -110q-11 -71 -78.5 -126 t-163.5 -55q-112 0 -171 42q-15 -26 -24 -34t-25 -8q-17 0 -25 8.5t-7 19t2 21.5z" />
<glyph unicode="T" horiz-adv-x="758" d="M121 492l12 70q4 30 15.5 39.5t41.5 9.5h582q30 0 37.5 -10t2.5 -39l-12 -70q-3 -16 -6 -24.5t-14 -16.5t-31 -8q-19 0 -28 7.5t-8 18.5t2 23l7 42h-212l-76 -457h81q13 0 21.5 -1.5t16 -11t4.5 -26.5q-6 -38 -55 -38h-247q-10 0 -16 1t-14 4t-11 12t-1 22q6 38 55 38h81 l76 457h-212l-7 -42q-3 -16 -6 -24.5t-14 -16.5t-31 -8q-19 0 -28 7.5t-8 18.5t2 23z" />
<glyph unicode="U" horiz-adv-x="758" d="M142 572q7 39 54 39h172q14 0 22 -1.5t15 -10.5t4 -27q-6 -38 -54 -38h-43l-53 -319q-12 -71 29.5 -110t101.5 -39q58 0 113 38.5t67 110.5l53 319h-43q-13 0 -21.5 1.5t-16 10.5t-4.5 26q7 39 55 39h172q13 0 21 -1.5t15 -10.5t4 -27q-6 -38 -53 -38h-44l-54 -325 q-16 -93 -97 -156.5t-181 -63.5q-98 0 -158 63t-45 157l54 325h-44q-12 0 -20.5 1.5t-16 10.5t-4.5 26z" />
<glyph unicode="V" horiz-adv-x="758" d="M125 573q6 38 54 38h149q10 0 16.5 -1t14.5 -4t10.5 -12t0.5 -22q-6 -38 -55 -38h-25l103 -452l252 452h-25q-13 0 -21.5 1.5t-16.5 10.5t-5 26q7 39 56 39h149q14 0 22 -1.5t15 -10.5t4 -27q-6 -38 -54 -38h-34l-281 -502q-14 -26 -28.5 -33t-38.5 -7h-19q-29 0 -39 9 t-15 32l-114 501h-34q-14 0 -22 1.5t-15 10.5t-4 27z" />
<glyph unicode="W" horiz-adv-x="1050" d="M126 573q6 38 54 38h131q13 0 21.5 -1.5t16 -11t4.5 -26.5q-6 -38 -55 -38h-29l61 -453l229 491q12 26 26.5 32.5t41.5 6.5q16 0 24.5 -1.5t18 -10.5t11.5 -27l66 -491l211 453h-29q-12 0 -20.5 1.5t-17 11t-5.5 25.5q7 39 56 39h131q9 0 15 -1t14 -4t11 -12t1 -22 q-6 -38 -54 -38h-27l-234 -503q-8 -18 -20.5 -27t-21.5 -10.5t-25 -1.5q-31 0 -41 8t-13 35l-67 489l-228 -490q-13 -28 -27 -35t-41 -7q-44 0 -53 27l-68 515h-27q-12 0 -20.5 1.5t-16 11t-4.5 26.5z" />
<glyph unicode="X" horiz-adv-x="758" d="M49 38q7 39 55 39h44l228 246l-136 211h-43q-13 0 -21.5 1.5t-16 11t-4.5 26.5q6 38 55 38h151q10 0 16.5 -1t14.5 -4t10.5 -12t0.5 -22q-6 -38 -55 -38l89 -140l127 140h-4q-12 0 -20.5 1.5t-16 11t-4.5 26.5q6 38 54 38h152q9 0 15 -1t14 -4t11 -12t1 -22 q-6 -38 -54 -38h-43l-195 -210l158 -247h45q12 0 20.5 -1.5t16 -11t4.5 -26.5q-6 -38 -54 -38h-153q-13 0 -21 1.5t-16 10.5t-5 26q7 39 55 39h3l-113 182l-163 -182h5q13 0 21.5 -1.5t16 -11t4.5 -26.5q-6 -38 -55 -38h-152q-12 0 -20.5 1.5t-16.5 10.5t-5 26z" />
<glyph unicode="Y" horiz-adv-x="758" d="M127 573q6 38 55 38h151q13 0 21.5 -1.5t16 -11t4.5 -26.5q-6 -38 -55 -38h-5l118 -206l187 206h-5q-13 0 -21.5 1.5t-16 11t-4.5 26.5q6 38 55 38h151q13 0 21.5 -1.5t16 -11t4.5 -26.5q-6 -38 -55 -38h-42l-262 -291l-28 -166h43q14 0 22 -1.5t15 -10.5t4 -27 q-6 -38 -54 -38h-171q-13 0 -21.5 1.5t-16 10.5t-4.5 26q7 39 55 39h43l28 166l-166 291h-42q-13 0 -21.5 1.5t-16 11t-4.5 26.5z" />
<glyph unicode="Z" horiz-adv-x="642" d="M64 42q3 21 20 36l467 456h-306l-7 -42q-3 -16 -6 -24.5t-14 -16.5t-31 -8q-19 0 -28 7.5t-8 18.5t2 23l12 70q4 30 15.5 39.5t41.5 9.5h416q11 0 17.5 -1t14 -4.5t9.5 -12.5t0 -24q-3 -21 -20 -36l-467 -456h327l10 61q3 16 5.5 24t13.5 16.5t31 8.5q19 0 28 -7.5 t8 -18.5t-2 -23l-15 -89q-5 -29 -15.5 -39t-39.5 -10h-438q-11 0 -17 1t-14 4.5t-10 12.5t0 24z" />
<glyph unicode="[" horiz-adv-x="297" d="M99 -32l112 675q5 29 15.5 39t39.5 10h81q13 0 21 -1.5t15.5 -11t4.5 -26.5q-6 -38 -53 -38h-44l-104 -619h44q13 0 21 -1.5t15.5 -10.5t4.5 -27q-6 -38 -54 -38h-81q-29 0 -36 10t-2 39z" />
<glyph unicode="\" d="M167 622q-12 24 4.5 47t41.5 23q26 0 37 -31l209 -672q12 -25 -5 -47.5t-42 -22.5t-36 31z" />
<glyph unicode="]" horiz-adv-x="297" d="M10 -42q6 38 53 38h44l104 619h-44q-13 0 -21 1.5t-15.5 10.5t-4.5 27q6 38 53 38h81q29 0 36.5 -10t2.5 -39l-112 -675q-5 -29 -16 -39t-40 -10h-81q-13 0 -21 1.5t-15 11t-4 26.5z" />
<glyph unicode="^" d="M152 506q5 24 27 33l172 77q15 6 29 0l146 -77q26 -15 12.5 -43t-38.5 -28q-11 0 -16 3l-133 62l-153 -62q-7 -3 -17 -3q-15 0 -23 11.5t-6 26.5z" />
<glyph unicode="_" horiz-adv-x="758" d="M-24 -155l14 85h754l-14 -85h-754z" />
<glyph unicode="`" d="M271 526q-38 19 -24 52t48 33q9 0 21 -6l119 -58q28 -12 24 -36q-1 -12 -15 -30t-34 -18q-6 0 -20 6z" />
<glyph unicode="a" horiz-adv-x="510" d="M73 133q11 68 93.5 109t214.5 44q4 42 -22 62t-75 20l-44 -3q-5 -28 -23 -40.5t-37 -12.5q-22 0 -35 14t-9 39q14 80 160 80q98 0 139 -48t31 -111l-34 -204q10 -5 45 -5q12 0 20.5 -1.5t16 -10.5t4.5 -26q-5 -25 -19.5 -32t-43.5 -7q-78 0 -99 28q-62 -34 -142 -34 q-72 0 -111 41.5t-30 97.5zM156 133q-4 -26 17.5 -44t59.5 -18q46 0 80 15q17 7 26.5 17t11.5 16.5t4 19.5l12 72q-100 -4 -152.5 -25t-58.5 -53z" />
<glyph unicode="b" horiz-adv-x="583" d="M111 572q7 39 54 39h81q29 0 37 -10t3 -39l-27 -163q65 43 139 43q89 0 141 -66t37 -157q-16 -95 -94.5 -160t-169.5 -65q-68 0 -114 46q-6 -22 -15.5 -31t-32.5 -9q-20 0 -29 7.5t-8 18.5t2 23l81 485h-44q-12 0 -20.5 1.5t-16 10.5t-4.5 26zM226 198q-7 -44 18.5 -85.5 t77.5 -41.5q59 0 109.5 42.5t61.5 105.5q9 59 -23 102.5t-90 43.5q-49 0 -92.5 -30t-50.5 -72z" />
<glyph unicode="c" horiz-adv-x="467" d="M78 219q6 36 24.5 73t50 72.5t83 58t113.5 22.5q19 0 34.5 -1t38.5 -5.5t37.5 -12.5t24 -23.5t5.5 -37.5q-4 -24 -21.5 -38.5t-39.5 -14.5q-49 0 -42 56h-50q-43 0 -77.5 -16.5t-54 -42t-29.5 -48t-13 -42.5q-10 -62 25 -105t94 -43q66 0 97 53q9 17 18.5 22t25.5 5 q8 0 15.5 -1.5t16 -10t5.5 -24.5q-2 -10 -13 -27t-32.5 -39.5t-61.5 -38.5t-90 -16q-94 0 -147 66t-37 159z" />
<glyph unicode="d" horiz-adv-x="583" d="M79 218q16 93 93.5 158.5t170.5 65.5q67 0 114 -40l22 132h-43q-14 0 -22 1.5t-15 10.5t-4 27q6 38 54 38h80q30 0 37.5 -10t2.5 -39l-81 -485h44q13 0 21 -1.5t15 -10.5t4 -27q-6 -38 -53 -38h-81q-28 0 -36 9t-4 35q-67 -50 -141 -50q-88 0 -140.5 65.5t-37.5 158.5z M162 218q-10 -60 22.5 -103.5t89.5 -43.5q54 0 97.5 42t50.5 87l11 64q7 40 -22.5 70.5t-76.5 30.5q-60 0 -111 -42.5t-61 -104.5z" />
<glyph unicode="e" horiz-adv-x="467" d="M72 221q15 92 88 158t162 66q91 0 131.5 -60.5t24.5 -154.5q-3 -21 -12.5 -31t-17.5 -11.5t-25 -1.5h-269q4 -52 39.5 -83.5t86.5 -31.5q67 0 98 53q9 17 18.5 22t25.5 5q8 0 15.5 -1.5t16 -10t5.5 -24.5q-5 -32 -59 -76.5t-139 -44.5q-95 0 -150 66t-39 161zM169 261 h228q3 59 -23 83t-65 24q-43 0 -82 -30t-58 -77z" />
<glyph unicode="f" horiz-adv-x="321" d="M19 38q7 39 55 39h44l47 282h-34q-12 0 -20.5 1.5t-16 10.5t-4.5 26q7 39 55 39h33l7 43q11 64 64 101t119 37q11 0 23 -1.5t31 -7t29.5 -20.5t6.5 -38t-22.5 -37.5t-37.5 -14.5q-36 0 -42 42q-77 0 -88 -67l-6 -37h70q13 0 21.5 -1.5t15.5 -11t4 -26.5q-6 -38 -54 -38 h-70l-47 -282h67q13 0 21.5 -1.5t15.5 -11t4 -26.5q-6 -38 -54 -38h-195q-13 0 -21 1.5t-16 10.5t-5 26z" />
<glyph unicode="g" d="M15 -71q14 78 89 123q-13 31 -7 67q7 40 28 66q-22 40 -14 93q11 66 68.5 115t128.5 49q50 0 89 -27q52 32 109 32q41 0 57.5 -19t11.5 -42q-3 -24 -20.5 -36.5t-35.5 -12.5q-11 0 -23 7.5t-15 24.5q-19 -2 -40 -10q16 -37 8 -81q-11 -68 -68.5 -116.5t-127.5 -48.5 q-44 0 -79 20l-4 -14q-2 -19 4 -30q7 -10 25 -10q7 -2 27 -2h68q90 0 140 -29q33 -19 45 -52.5t6 -66.5q-10 -64 -86 -107.5t-174 -43.5t-159 43t-51 108zM89 -71q-5 -31 38 -53.5t110 -22.5t118 22.5t56 53.5q3 18 -2 31.5t-20 21.5t-29 12.5t-39.5 6.5t-40.5 2.5t-43 0.5 q-53 0 -68.5 -2t-33.5 -12q-39 -23 -46 -61zM194 277q-6 -36 14.5 -62.5t55.5 -26.5t64.5 26.5t35.5 63.5q6 36 -14 62t-56 26q-35 0 -64 -26t-36 -63z" />
<glyph unicode="h" horiz-adv-x="583" d="M22 38q7 39 55 39h43l76 457h-43q-13 0 -21.5 1.5t-16 10.5t-4.5 26q7 39 55 39h80q30 0 37.5 -10t2.5 -39l-28 -165q65 45 142 45q148 0 124 -151l-36 -214h43q14 0 22 -1.5t15 -10.5t4 -27q-6 -38 -54 -38h-172q-13 0 -21 1.5t-15 10.5t-4 27q6 38 53 38h44l35 209 q7 41 -4 60t-53 19q-47 0 -92.5 -31t-56.5 -95l-27 -162h44q13 0 21 -1.5t15 -10.5t4 -27q-6 -38 -53 -38h-172q-13 0 -21.5 1.5t-16 10.5t-4.5 26z" />
<glyph unicode="i" horiz-adv-x="292" d="M18 38q7 39 54 39h44l47 282h-39q-12 0 -20.5 1.5t-16.5 11t-5 26.5q7 38 55 38h76q29 0 37 -10t3 -38l-52 -311h34q13 0 21.5 -1.5t15.5 -11t4 -26.5q-6 -38 -53 -38h-164q-13 0 -21 1.5t-15.5 10.5t-4.5 26zM178 537q3 23 22.5 40t44.5 17q23 0 37.5 -17t10.5 -40 q-4 -22 -23.5 -39.5t-44.5 -17.5q-23 0 -37 17t-10 40z" />
<glyph unicode="j" horiz-adv-x="321" d="M-74 -139q4 24 22 39t39 15q50 0 42 -59q3 -1 21 -1q57 0 74 112l66 392h-53q-13 0 -21.5 1.5t-16 11t-4.5 26.5q7 38 55 38h89q30 0 37.5 -10t2.5 -38l-71 -425q-12 -69 -56.5 -126.5t-117.5 -57.5q-57 0 -85.5 22.5t-22.5 59.5zM191 537q3 23 22.5 40t44.5 17 q23 0 37.5 -17t10.5 -40q-4 -22 -23.5 -39.5t-44.5 -17.5q-23 0 -37 17t-10 40z" />
<glyph unicode="k" horiz-adv-x="554" d="M29 38q7 39 54 39h44l76 457h-44q-12 0 -20.5 1.5t-16 10.5t-4.5 26q7 39 54 39h68q30 0 37.5 -10t2.5 -39l-54 -324l157 121h-16q-12 0 -20.5 1.5t-16 10.5t-4.5 26q7 39 54 39h160q9 0 15 -1t14 -4t11 -12t1 -22q-6 -38 -54 -38h-35l-135 -104l115 -178h30 q12 0 20.5 -1.5t16 -11t4.5 -26.5q-6 -38 -54 -38h-123q-13 0 -21 1.5t-15 10.5t-4 27q6 38 53 38h1l-85 131l-85 -66l-11 -65h43q14 0 22 -1.5t15 -10.5t4 -27q-6 -38 -54 -38h-159q-13 0 -21 1.5t-15.5 10.5t-4.5 26z" />
<glyph unicode="l" horiz-adv-x="292" d="M18 38q7 39 55 39h43l76 457h-43q-13 0 -21.5 1.5t-16 10.5t-4.5 26q7 39 55 39h80q30 0 37.5 -10t2.5 -39l-81 -485h43q14 0 22 -1.5t15 -10.5t4 -27q-6 -38 -54 -38h-171q-13 0 -21.5 1.5t-16 10.5t-4.5 26z" />
<glyph unicode="m" horiz-adv-x="875" d="M26 38q7 39 55 39h44l47 282h-44q-12 0 -20.5 1.5t-16.5 10.5t-5 26q7 39 55 39h81q28 0 35.5 -8.5t4.5 -31.5q65 46 142 46q93 0 119 -63q75 63 165 63q149 0 124 -151l-36 -214h44q14 0 22 -1.5t15 -10.5t4 -27q-6 -38 -54 -38h-172q-13 0 -21 1.5t-15.5 10.5t-4.5 26 q7 39 54 39h44l35 209q7 41 -4.5 60t-53.5 19q-46 0 -92 -30.5t-57 -95.5l-27 -162h43q14 0 22 -1.5t15 -10.5t4 -27q-6 -38 -54 -38h-171q-13 0 -21.5 1.5t-16 10.5t-4.5 26q7 39 55 39h43l35 209q7 41 -4.5 60t-53.5 19q-46 0 -92 -30.5t-57 -95.5l-27 -162h44 q13 0 21 -1.5t15 -10.5t4 -27q-6 -38 -53 -38h-172q-13 0 -21 1.5t-16 10.5t-5 26z" />
<glyph unicode="n" horiz-adv-x="583" d="M22 38q7 39 55 39h43l47 282h-43q-13 0 -21.5 1.5t-16 10.5t-4.5 26q7 39 55 39h80q28 0 35.5 -8.5t5.5 -30.5q68 45 142 45q148 0 124 -151l-36 -214h43q14 0 22 -1.5t15 -10.5t4 -27q-6 -38 -54 -38h-172q-13 0 -21 1.5t-15 10.5t-4 27q6 38 53 38h44l35 209 q7 41 -4 60t-53 19q-47 0 -92.5 -31t-56.5 -95l-27 -162h44q13 0 21 -1.5t15 -10.5t4 -27q-6 -38 -53 -38h-172q-13 0 -21.5 1.5t-16 10.5t-4.5 26z" />
<glyph unicode="o" d="M73 219q15 93 92 159.5t171 66.5t149 -66.5t40 -159.5q-16 -94 -93.5 -159.5t-170.5 -65.5t-148.5 65.5t-39.5 159.5zM158 225q-11 -63 23 -108.5t93 -45.5t108 45.5t60 108.5q10 61 -25.5 102t-93.5 41t-106.5 -41t-58.5 -102z" />
<glyph unicode="p" horiz-adv-x="583" d="M-14 -178q7 39 54 39h44l83 498h-44q-12 0 -20.5 1.5t-16 10.5t-4.5 26q7 39 54 39h81q28 0 35.5 -8t5.5 -29q65 43 140 43q89 0 141 -66t37 -157q-16 -95 -94.5 -160t-169.5 -65q-71 0 -113 46l-30 -179h43q14 0 22 -1.5t15 -10.5t4 -27q-6 -38 -54 -38h-172 q-12 0 -20.5 1.5t-16 10.5t-4.5 26zM226 198q-7 -44 18.5 -85.5t77.5 -41.5q59 0 109.5 42.5t61.5 105.5q9 59 -23 102.5t-90 43.5q-49 0 -92.5 -30t-50.5 -72z" />
<glyph unicode="q" horiz-adv-x="554" d="M79 218q16 94 94 159t170 65q67 0 113 -46q3 15 6.5 23t14.5 15.5t30 7.5t27.5 -7.5t8 -18.5t-1.5 -23l-89 -532h44q13 0 21 -1.5t15 -10.5t4 -27q-6 -38 -53 -38h-172q-13 0 -21.5 1.5t-16 11t-4.5 26.5q7 38 55 38h43l30 183q-67 -50 -140 -50q-88 0 -140.5 65.5 t-37.5 158.5zM162 218q-10 -60 22.5 -103.5t89.5 -43.5q54 0 97.5 41.5t50.5 85.5l6 36q8 49 -17.5 90t-77.5 41q-59 0 -109.5 -42t-61.5 -105z" />
<glyph unicode="r" horiz-adv-x="408" d="M19 38q7 39 55 39h44l47 282h-44q-12 0 -20.5 1.5t-16.5 10.5t-5 26q7 39 55 39h81q28 0 35 -8t5 -32q58 46 119 46q46 0 62.5 -30t0.5 -59.5t-51 -29.5q-41 0 -41 40q-48 -10 -80.5 -59t-43.5 -113l-19 -114h67q14 0 22 -1.5t15 -10.5t4 -27q-6 -38 -54 -38h-195 q-13 0 -21 1.5t-16 10.5t-5 26z" />
<glyph unicode="s" horiz-adv-x="414" d="M38 43l16 93q3 16 6 24.5t14 16.5t31 8q15 0 23.5 -5.5t10 -11t2.5 -14.5q2 -17 5.5 -29.5t11.5 -26t24 -20.5t40 -7q95 0 105 59q7 42 -58 58q-34 4 -57 10q-18 4 -29.5 7t-35 13t-36.5 22t-22 33.5t-4 48.5q3 18 12.5 36.5t29.5 39.5t59 34t91 13q51 0 82 -16 q14 16 34 16q37 0 30 -49l-11 -67q-3 -16 -6 -24t-14 -16t-31 -8q-18 0 -26.5 7t-9.5 13.5t0 18.5q1 9 -0.5 15t-6.5 15t-19 13.5t-37 4.5q-93 0 -100 -46q-4 -22 21.5 -32.5t89.5 -22.5q149 -28 131 -137q-9 -53 -56.5 -94.5t-139.5 -41.5q-61 0 -97 28q-16 -28 -43 -28 q-37 0 -30 49z" />
<glyph unicode="t" horiz-adv-x="408" d="M81 397q7 39 56 39h40l12 71q3 16 6 24.5t14 16.5t31 8q19 0 27.5 -7.5t8 -18.5t-1.5 -23l-12 -71h99q13 0 21.5 -1.5t15.5 -11t4 -26.5q-6 -38 -54 -38h-99l-38 -225q-11 -63 29 -63q17 0 31.5 15.5t19.5 44.5q3 15 5.5 23t13.5 16t30 8q20 0 29 -7.5t8 -18t-2 -22.5 q-10 -59 -54.5 -97.5t-97.5 -38.5q-46 0 -77.5 31.5t-20.5 102.5l39 231h-41q-13 0 -21.5 1.5t-16 10.5t-4.5 26z" />
<glyph unicode="u" horiz-adv-x="583" d="M82 397q7 39 55 39h80q30 0 37.5 -10t2.5 -38l-44 -262q-1 -14 -1 -26t17.5 -20.5t54.5 -8.5q16 0 32.5 2.5t39.5 10.5t39.5 28t21.5 49l33 198h-44q-13 0 -21 1.5t-15.5 11t-4.5 26.5q7 38 54 38h81q29 0 37 -10t3 -38l-52 -311h43q14 0 22 -1.5t15 -10.5t4 -27 q-6 -38 -54 -38h-80q-13 0 -20 1t-14 7t-7 19q-58 -33 -132 -33q-27 0 -49 4t-47.5 15.5t-37 38.5t-4.5 68l40 239h-43q-13 0 -21.5 1.5t-16 10.5t-4.5 26z" />
<glyph unicode="v" horiz-adv-x="554" d="M90 397q7 39 55 39h136q10 0 16 -1t14 -4t11 -12t1 -22q-6 -38 -55 -38h-28l50 -282l143 282h-28q-13 0 -21.5 1.5t-16.5 11t-5 26.5q7 38 56 38h136q13 0 21.5 -1.5t15.5 -11t4 -26.5q-6 -38 -54 -38h-33l-163 -324q-9 -18 -21.5 -27t-22 -10.5t-25.5 -1.5 q-17 0 -26 1.5t-18 11t-12 27.5l-55 323h-33q-12 0 -20.5 1.5t-16.5 10.5t-5 26z" />
<glyph unicode="w" horiz-adv-x="758" d="M90 398q7 38 56 38h131q13 0 21.5 -1.5t16 -11t4.5 -26.5q-6 -38 -55 -38h-31l29 -266l132 302q10 23 22.5 32t37.5 9q19 0 29 -7t12 -13t4 -20l32 -296l113 259h-31q-13 0 -21.5 1.5t-16.5 11t-5 26.5q7 38 56 38h131q13 0 21.5 -1.5t16 -11t4.5 -26.5q-6 -38 -55 -38 h-25l-143 -323q-8 -18 -19 -27.5t-20.5 -11t-26.5 -1.5q-34 0 -42.5 10t-11.5 44l-21 273l-128 -303q-16 -24 -60 -24q-19 0 -28 1.5t-17 11t-10 28.5l-34 322h-25q-13 0 -21.5 1.5t-16.5 11t-5 26.5z" />
<glyph unicode="x" horiz-adv-x="554" d="M32 38q7 39 56 39h44l141 148l-87 134h-44q-13 0 -22 1.5t-16.5 11t-4.5 26.5q7 38 56 38h136q13 0 21 -1.5t15 -10.5t4 -27q-6 -38 -53 -38h-3l47 -74l67 74h-3q-13 0 -21.5 1.5t-16.5 11t-5 26.5q7 38 56 38h136q13 0 21 -1.5t15 -10.5t4 -27q-6 -38 -53 -38h-45 l-127 -134l96 -148h44q13 0 21.5 -1.5t16 -11t4.5 -26.5q-6 -38 -55 -38h-136q-13 0 -21.5 1.5t-15.5 11t-4 26.5q6 38 54 38h5l-57 98l-85 -98h7q13 0 21.5 -1.5t15.5 -11t4 -26.5q-6 -38 -54 -38h-136q-12 0 -21 1.5t-17 10.5t-5 26z" />
<glyph unicode="y" horiz-adv-x="554" d="M-3 -133q4 23 19.5 37t39.5 14q21 0 34 -13.5t9 -37.5l-3 -12q30 0 55.5 14t37 28t25.5 35l40 77l-85 350h-34q-13 0 -21.5 1.5t-16.5 11t-5 26.5q7 38 56 38h136q13 0 21 -1.5t15 -10.5t4 -27q-6 -38 -53 -38h-24l58 -257l127 257h-28q-12 0 -20.5 1.5t-16.5 10.5t-5 26 q7 39 55 39h137q13 0 21 -1.5t15 -10.5t4 -27q-6 -38 -53 -38h-33l-221 -434q-28 -56 -83 -101t-119 -45q-45 0 -69.5 26t-18.5 62z" />
<glyph unicode="z" horiz-adv-x="467" d="M33 43q3 15 8 24l317 292h-173l-3 -16q-3 -16 -6 -24.5t-14 -16.5t-31 -8q-19 0 -28 7.5t-8 18.5t2 23l8 45q4 29 15.5 38.5t41.5 9.5h285q16 0 24 -1.5t14 -11.5t3 -30q-3 -15 -8 -24l-317 -292h191l5 28q3 16 5.5 24t13.5 16t31 8q19 0 27.5 -7.5t8 -18t-1.5 -22.5 l-10 -56q-5 -29 -15.5 -39t-39.5 -10h-304q-16 0 -24 1.5t-14 11.5t-3 30z" />
<glyph unicode="{" d="M105 306q3 20 16.5 29t23.5 9q67 0 106 15q21 9 27.5 19.5t10.5 37.5l15 87q15 82 15 83q39 106 216 106q14 0 23 -1.5t16.5 -11t4.5 -26.5q-3 -20 -16.5 -29t-23.5 -9q-113 0 -135 -34q-2 -5 -13 -67l-22 -129q-9 -45 -62 -80q43 -32 33 -93l-26 -157q-4 -10 -1 -20 t11 -18.5t34 -14t69 -6.5q42 0 36 -38q-6 -39 -57 -39q-88 0 -139 31q-50 30 -37 108l27 161q5 43 -116 48q-42 0 -36 39z" />
<glyph unicode="|" d="M215 -26l110 663q12 55 52 55q19 0 28 -11t7.5 -23.5t-1.5 -20.5l-110 -663q-12 -55 -53 -55q-19 0 -27.5 11t-7.5 23.5t2 20.5z" />
<glyph unicode="}" d="M47 -42q3 20 16.5 29t23.5 9q61 1 93.5 10.5t39 19t9.5 26.5l29 173q0 5 4 15.5t19 30.5t39 35q-44 31 -34 92l27 157q4 11 1 21.5t-11 18.5t-34.5 13.5t-70.5 6.5q-42 0 -35 38q6 39 56 39q90 0 141 -31q22 -14 32.5 -34.5t8.5 -38t-3 -33.5l-27 -162q-6 -43 114 -49 q42 0 36 -39q-3 -20 -16.5 -29t-23.5 -9q-66 0 -105 -15q-21 -9 -27.5 -19.5t-10.5 -37.5l-15 -87q-15 -82 -15 -83q-21 -57 -81 -81.5t-137 -24.5q-14 0 -22.5 1.5t-16 11t-4.5 26.5z" />
<glyph unicode="~" d="M131 279q3 22 61 60q51 34 86 34q38 0 66 -35q16 -18 21 -18q19 0 69 40q15 13 31 13q15 0 25 -12.5t8 -27.5q-4 -21 -61 -60q-51 -34 -87 -34q-35 0 -66 36q-18 18 -21 18q-18 0 -69 -41q-17 -13 -31 -13q-15 0 -25 12.5t-7 27.5z" />
<glyph unicode="&#xa0;" />
<glyph unicode="&#xa1;" horiz-adv-x="292" d="M62 -162l31 155l31 169q8 35 18 45t40 10q46 0 43 -33q-10 -69 -49 -346q-5 -27 -20.5 -42.5t-27 -18.5t-20.5 -3q-6 0 -13 2t-17 7.5t-14.5 19.5t-1.5 35zM145 338q5 24 24 40.5t43 16.5t37.5 -16.5t9.5 -40.5q-2 -12 -8 -22.5t-15 -18t-20 -12t-23 -4.5q-16 0 -28 7.5 t-17 20.5t-3 29z" />
<glyph unicode="&#xa2;" horiz-adv-x="467" d="M78 219q7 43 30.5 86t71.5 82t111 52l8 49q3 16 16.5 27t29.5 11t25 -11t6 -27l-7 -43q33 -1 58.5 -6t46 -24t15.5 -50q-4 -24 -21.5 -38.5t-39.5 -14.5q-49 0 -42 56q0 1 -2 1.5t-7 0.5h-8.5t-11.5 -1l-50 -296q48 9 71 51q9 17 18.5 22t25.5 5q8 0 15.5 -1.5t16 -10 t5.5 -24.5q-2 -9 -11 -24.5t-27 -36t-51.5 -37t-75.5 -21.5l-8 -47q-2 -16 -15 -27.5t-29 -11.5t-25.5 11t-7.5 28l9 50q-76 16 -115 78t-25 142zM160 219q-8 -48 11.5 -85t58.5 -53l46 278q-53 -18 -82 -61t-34 -79z" />
<glyph unicode="&#xa3;" horiz-adv-x="758" d="M57 88q8 51 62 75.5t126 24.5q39 0 74 -12q-4 32 -24 87h-124q-17 0 -27.5 12.5t-7.5 30.5q3 17 17.5 30t31.5 13h85q-8 38 -2 78q13 80 88.5 132t165.5 52q91 0 149.5 -45t46.5 -119q-3 -17 -18 -30t-33 -13t-27.5 12.5t-6.5 30.5q6 40 -31 59.5t-94 19.5 q-55 0 -100.5 -27t-53.5 -72q-6 -41 3 -78h197q18 0 28 -13t7 -30q-3 -18 -17 -30.5t-32 -12.5h-157q26 -79 24 -128q110 -60 170 -60q28 0 51 22t28 52q3 17 17.5 29.5t31.5 12.5q19 0 29 -12.5t7 -29.5q-11 -66 -63.5 -113t-115.5 -47q-62 0 -186 67q-60 -67 -208 -67 q-52 0 -85 27.5t-26 71.5zM137 88q-1 -5 2.5 -7.5t11 -4t12.5 -1.5h15q94 0 119 15q-37 13 -71 13q-87 0 -89 -15z" />
<glyph unicode="&#xa4;" horiz-adv-x="817" d="M172 60q-25 28 19 68l52 45q-25 45 -22.5 95.5t20.5 94t46 76.5l-36 45q-34 38 3 68q33 30 67 -8l37 -44q68 41 140 41q77 0 127 -41l52 44q44 40 69 8q25 -28 -19 -68l-52 -44q18 -33 22 -71.5t-4.5 -74t-24.5 -66.5t-37 -56l36 -44q34 -38 -3 -68q-33 -30 -67 8l-36 44 q-65 -41 -141 -41q-74 0 -126 41l-53 -44q-44 -40 -69 -8zM309 306q-5 -31 2 -58.5t24 -47.5t42.5 -32t56.5 -12q63 0 114 44t62 106t-26 106t-100 44q-62 0 -113 -44t-62 -106z" />
<glyph unicode="&#xa5;" horiz-adv-x="758" d="M127 573q6 38 55 38h151q13 0 21.5 -1.5t16 -11t4.5 -26.5q-6 -38 -55 -38h-5l64 -110h141l100 110h-5q-13 0 -21.5 1.5t-16 11t-4.5 26.5q6 38 55 38h151q13 0 21.5 -1.5t16 -11t4.5 -26.5q-6 -38 -55 -38h-42l-98 -110h45q18 0 28.5 -12.5t7.5 -29.5q-3 -19 -17.5 -31 t-32.5 -12h-109l-59 -66h157q18 0 28.5 -12t6.5 -31q-2 -17 -17 -30t-33 -13h-179l-18 -110h43q14 0 22 -1.5t15 -10.5t4 -27q-6 -38 -54 -38h-171q-13 0 -21.5 1.5t-16 10.5t-4.5 26q7 39 55 39h43l18 110h-178q-18 0 -27.5 12.5t-7.5 30.5q4 19 18 31t32 12h156l-37 66 h-108q-18 0 -28 12t-7 31q3 17 17 29.5t32 12.5h44l-62 110h-42q-13 0 -21.5 1.5t-16 11t-4.5 26.5zM427 339l6 -11l10 11h-16z" />
<glyph unicode="&#xa6;" d="M215 -26l39 233q2 16 16.5 27.5t32.5 11.5q17 0 28 -11.5t9 -27.5l-39 -233q-12 -55 -53 -55q-19 0 -27.5 11t-7.5 23.5t2 20.5zM286 404l39 233q12 55 52 55q19 0 28 -11t7.5 -23.5t-1.5 -20.5l-39 -233q-2 -16 -16.5 -27.5t-32.5 -11.5q-17 0 -28 11.5t-9 27.5z" />
<glyph unicode="&#xa7;" horiz-adv-x="545" d="M86 5q4 22 21.5 37t39.5 15q32 0 41 -28.5t-11 -50.5q18 -16 86 -16q40 0 72.5 17.5t38.5 48.5q1 8 -1 15.5t-8.5 14t-12.5 11.5t-17 10.5t-17.5 9t-19.5 8.5l-88 39q-57 25 -89 69.5t-23 100.5q3 16 9.5 31.5t16 29t22 25t26.5 20.5q-13 29 -8 60q11 66 72.5 108 t136.5 42t123.5 -34t39.5 -93q-4 -22 -21.5 -37t-39.5 -15q-32 0 -41 28t10 51q-17 16 -85 16q-41 0 -73.5 -17.5t-37.5 -48.5q-3 -16 10.5 -30t26 -20.5t38.5 -18.5l89 -39q57 -25 89 -69.5t22 -100.5q-11 -67 -73 -106q12 -28 8 -60q-11 -66 -72.5 -108t-136.5 -42 t-124 34t-39 93zM182 306q-10 -56 72 -92l88 -39q28 -12 58 -32q15 6 26 20t13 31q10 57 -71 92l-89 39q-37 17 -57 32q-33 -14 -40 -51z" />
<glyph unicode="&#xa8;" d="M217 537q3 21 20 37t41 16q21 0 34 -16t10 -37q-4 -21 -21 -36.5t-41 -15.5q-21 0 -34 15t-9 37zM384 537q3 21 20 37t41 16q21 0 34 -16t10 -37q-4 -21 -21 -36.5t-41 -15.5q-21 0 -34 15t-9 37z" />
<glyph unicode="&#xa9;" horiz-adv-x="611" d="M51 306q21 126 125.5 215.5t231.5 89.5q126 0 200.5 -89.5t53.5 -215.5q-21 -127 -125.5 -216.5t-230.5 -89.5q-127 0 -201.5 89.5t-53.5 216.5zM96 306q-18 -108 46 -184.5t172 -76.5q107 0 196 76.5t107 184.5q18 107 -46 183.5t-171 76.5q-108 0 -197 -76.5 t-107 -183.5zM160 306q11 70 75.5 122t145.5 52q66 0 107 -31q0 1 4 8t5.5 9t5.5 6.5t8.5 6t9.5 1.5q19 0 17 -27l-13 -75q-1 -8 -3 -13t-8 -9t-17 -4q-19 0 -20 16q-2 35 -29 52q-26 17 -70 17q-63 0 -112.5 -39t-58.5 -92q-9 -54 27.5 -93t100.5 -39q47 0 76 14 q35 16 43 47q5 20 27 20q23 0 20 -23q-8 -44 -56 -72.5t-121 -28.5q-82 0 -129 52t-35 123z" />
<glyph unicode="&#xaa;" horiz-adv-x="472" d="M109 401q8 47 76 77t178 33q3 51 -82 51h-29q-3 0 -5 2l-1 -1q-5 -20 -20 -29.5t-32 -9.5q-19 0 -30 10.5t-8 28.5q10 59 134 59q83 0 119.5 -34.5t28.5 -79.5l-24 -141q18 -3 36 -3q11 0 18.5 -1.5t14 -8.5t4.5 -19q-3 -19 -16 -24.5t-38 -5.5q-65 0 -84 20 q-52 -24 -118 -24q-62 0 -95.5 30t-26.5 70zM115 259q2 13 14.5 21.5t29.5 8.5h251q16 0 26 -9t8 -21q-2 -11 -15 -20t-29 -9h-251q-17 0 -26.5 8.5t-7.5 20.5zM180 401q-3 -17 15.5 -29t50.5 -12q38 0 67 11q29 10 33 34l8 48q-166 -6 -174 -52z" />
<glyph unicode="&#xab;" horiz-adv-x="583" d="M153 201q-7 9 -5 21t12 21q83 77 132 179q12 22 34 22h15q15 0 22.5 -12.5t0.5 -27.5q-45 -101 -123 -182q51 -82 63 -182q1 -15 -10.5 -27.5t-26.5 -12.5h-15q-23 0 -26 22q-15 102 -73 179zM328 201q-7 9 -5 21t12 21q83 77 132 179q12 22 34 22h15q15 0 22.5 -12.5 t0.5 -27.5q-45 -101 -123 -182q51 -82 63 -182q1 -15 -10.5 -27.5t-26.5 -12.5h-15q-23 0 -26 22q-15 102 -73 179z" />
<glyph unicode="&#xac;" horiz-adv-x="817" d="M122 380q3 17 18.5 30t32.5 13h612q17 0 27.5 -13t7.5 -30l-24 -148q-3 -17 -18 -30t-32 -13t-28 13t-8 30l17 105h-569q-17 0 -27.5 13t-8.5 30z" />
<glyph unicode="&#xad;" horiz-adv-x="350" d="M44 219q6 37 54 37h193q10 0 16 -1t14 -4t10.5 -11.5t0.5 -21.5q-6 -38 -54 -38h-193q-14 0 -22 1.5t-15 10.5t-4 27z" />
<glyph unicode="&#xae;" horiz-adv-x="611" d="M51 306q21 126 125.5 215.5t231.5 89.5q126 0 200.5 -89.5t53.5 -215.5q-21 -127 -125.5 -216.5t-230.5 -89.5q-127 0 -201.5 89.5t-53.5 216.5zM96 306q-18 -108 46 -184.5t172 -76.5q107 0 196 76.5t107 184.5q18 107 -46 183.5t-171 76.5q-108 0 -197 -76.5 t-107 -183.5zM150 161q3 22 31 22h24l41 251h-24q-7 0 -11.5 1t-8.5 6t-3 14q3 22 31 22h143q61 0 100.5 -28t33.5 -67q-8 -46 -68 -73q11 -7 19 -22q6 -12 6.5 -23t-3.5 -33q-6 -22 -3.5 -38t18.5 -16q18 0 22 20q5 20 26 20q24 0 21 -22q-4 -22 -26 -41.5t-51 -19.5 q-36 0 -50 27q-8 14 -8.5 29t4.5 39q4 21 2.5 30t-13.5 17q-22 11 -63 11h-72l-17 -104h24q7 0 11.5 -1t8.5 -6t3 -15q-3 -21 -31 -21h-94q-7 0 -11.5 1t-8.5 6t-3 14zM275 330h68q43 0 78 14.5t39 37.5t-26.5 37.5t-73.5 14.5h-68z" />
<glyph unicode="&#xaf;" d="M161 538q6 39 53 39h290q14 0 22 -1.5t15 -11t4 -27.5q-7 -39 -54 -39h-289q-13 0 -21.5 1.5t-15.5 11t-4 27.5z" />
<glyph unicode="&#xb0;" horiz-adv-x="394" d="M159 490q8 50 48.5 86t89.5 36q53 0 83 -36t22 -85t-50 -86t-89 -37q-53 0 -82.5 36.5t-21.5 85.5zM228 491q-4 -22 8.5 -38t34.5 -16q21 0 39.5 15.5t22.5 37.5t-8.5 37.5t-34.5 15.5q-21 0 -39.5 -15t-22.5 -37z" />
<glyph unicode="&#xb1;" horiz-adv-x="817" d="M66 43q7 42 62 42h251l30 177h-251q-11 0 -21 1.5t-20 12t-7 29.5q7 43 62 43h251l35 208q8 54 52 54q42 0 34 -54l-35 -208h251q11 0 21 -1.5t20 -12t7 -29.5q-7 -43 -62 -43h-251l-30 -177h251q12 0 21.5 -1.5t19.5 -11.5t7 -29q-7 -43 -62 -43h-588q-12 0 -21.5 1.5 t-19.5 12t-7 29.5z" />
<glyph unicode="&#xb2;" horiz-adv-x="377" d="M78 269q2 12 18 23l172 108q86 52 93 99q4 23 -8 39t-33.5 23.5t-48.5 7.5q-53 0 -77 -34q9 -15 3.5 -27.5t-19 -20.5t-25.5 -8q-14 0 -25.5 9t-8.5 28q7 42 54 74t110 32q70 0 112 -34t32 -89q-10 -64 -100 -123q-17 -11 -66 -41.5t-63 -39.5h129q7 28 38 28 q15 0 22 -5.5t6.5 -13t-1.5 -15.5l-2 -14q-3 -20 -11 -26.5t-32 -6.5h-237q-16 0 -25.5 5t-6.5 22z" />
<glyph unicode="&#xb3;" horiz-adv-x="377" d="M83 330q3 17 16 26.5t30 9.5q22 0 31 -19t-6 -34q20 -24 84 -24q42 0 71 19t34 44q4 25 -19 44.5t-67 19.5h-32q-16 0 -25.5 5t-6.5 22q2 15 18.5 20.5t71.5 9.5q23 4 44.5 21t24.5 36q3 17 -16 28t-51 11q-44 0 -68 -12q7 -20 -9 -34t-35 -14q-15 0 -26 9.5t-8 26.5 q5 33 46.5 55t107.5 22q63 0 97.5 -27.5t28.5 -63.5q-8 -50 -64 -85q63 -32 54 -94q-8 -45 -59 -81t-121 -36q-69 0 -111 26.5t-35 68.5z" />
<glyph unicode="&#xb4;" d="M236 511q4 24 36 36l139 58l23 6q18 0 28.5 -12t7.5 -31q-4 -27 -40 -42l-139 -57q-14 -6 -22 -6q-20 0 -27 17t-6 31z" />
<glyph unicode="&#xb5;" horiz-adv-x="583" d="M-14 -178q7 39 54 39h44l83 498h-43q-13 0 -21.5 1.5t-16 10.5t-4.5 26q7 39 55 39h80q30 0 37.5 -10t2.5 -38l-44 -262q-1 -14 -1 -26t17.5 -20.5t54.5 -8.5q16 0 32.5 2.5t39.5 10.5t39.5 28t21.5 49l33 198h-44q-13 0 -21 1.5t-15.5 11t-4.5 26.5q7 38 54 38h81 q29 0 37 -10t3 -38l-52 -311h43q14 0 22 -1.5t15 -10.5t4 -27q-6 -38 -54 -38h-80q-13 0 -20 1t-14 7t-7 19q-58 -33 -132 -33q-45 0 -72 9l-24 -142h43q14 0 22 -1.5t15 -10.5t4 -27q-6 -38 -54 -38h-172q-12 0 -20.5 1.5t-16 10.5t-4.5 26z" />
<glyph unicode="&#xb6;" horiz-adv-x="611" d="M131 458q17 96 101 165t189 69h236q11 0 19 -1.5t14 -8.5t4 -19q-6 -28 -46 -28h-39l-131 -783q-7 -40 -35 -40q-29 0 -22 40l131 783h-50l-131 -783q-7 -40 -34 -40q-30 0 -23 40l62 372q-49 3 -94.5 18.5t-83.5 43t-57 72.5t-10 100z" />
<glyph unicode="&#xb7;" horiz-adv-x="817" d="M402 306q4 24 23.5 40.5t43.5 16.5t37.5 -16.5t9.5 -40.5t-23 -40.5t-43 -16.5t-38 16.5t-10 40.5z" />
<glyph unicode="&#xb8;" horiz-adv-x="467" d="M108 -163q4 25 20.5 32t48.5 7q63 0 86.5 7t25.5 23q2 12 -10 20t-32 10q-17 1 -24.5 8.5t-7 17.5t1.5 21l6 32q2 14 5 22t14 16t30 8q27 0 32.5 -12t1.5 -43q35 -12 54 -38t13 -63q-6 -36 -30 -59.5t-63 -33t-68.5 -12t-71.5 -2.5q-14 0 -24.5 9.5t-7.5 29.5z" />
<glyph unicode="&#xb9;" horiz-adv-x="394" d="M120 268q4 27 41 27h54l42 248q-35 -10 -64 -10q-33 0 -29 27q4 23 32 27q54 0 82 23q15 12 28 12q14 0 20 -5.5t5 -12.5t-1 -14l-49 -295h54q16 0 26 -5t7 -22q-4 -26 -42 -26h-174q-10 0 -16.5 1.5t-12 7.5t-3.5 17z" />
<glyph unicode="&#xba;" horiz-adv-x="440" d="M102 259q2 12 15 21t29 9h244q16 0 26 -9t8 -21q-2 -11 -15 -20t-29 -9h-244q-16 0 -26 8.5t-8 20.5zM106 460q11 66 74.5 114t143.5 48t127.5 -47.5t36.5 -114.5q-11 -65 -75 -112t-143 -47t-127 47t-37 112zM180 465q-8 -42 21.5 -73.5t78.5 -31.5q48 0 88 31.5 t48 73.5q7 42 -23.5 69.5t-78.5 27.5t-87.5 -27.5t-46.5 -69.5z" />
<glyph unicode="&#xbb;" horiz-adv-x="583" d="M118 40q50 105 123 182q-47 77 -63 182q-1 15 10.5 27.5t26.5 12.5h15q24 0 26 -22q18 -105 74 -179q7 -9 5 -21t-12 -21q-81 -75 -133 -179q-10 -22 -34 -22h-15q-15 0 -22.5 12.5t-0.5 27.5zM293 40q50 105 123 182q-47 77 -63 182q-1 15 10.5 27.5t26.5 12.5h15 q24 0 26 -22q18 -105 74 -179q7 -9 5 -21t-12 -21q-81 -75 -133 -179q-10 -22 -34 -22h-15q-15 0 -22.5 12.5t-0.5 27.5z" />
<glyph unicode="&#xbc;" horiz-adv-x="840" d="M120 268q4 27 41 27h54l42 248q-35 -10 -64 -10q-33 0 -29 27q4 23 32 27q54 0 82 23q15 12 28 12q14 0 20 -5.5t5 -12.5t-1 -14l-49 -295h54q16 0 26 -5t7 -22q-4 -26 -42 -26h-174q-10 0 -16.5 1.5t-12 7.5t-3.5 17zM207 18q1 4 25 36l500 554q16 18 37 18t15 -32 q-3 -15 -21 -36l-501 -556q-17 -17 -31 -17q-30 0 -24 33zM446 130q2 17 13 26l194 209q10 10 16.5 13t22.5 3h20q23 0 28.5 -6.5t2.5 -26.5l-33 -196h46q16 0 26 -5.5t7 -22.5q-4 -26 -42 -26h-46l-7 -45h35q10 0 16.5 -1t11.5 -7.5t3 -18.5q-4 -26 -40 -26h-126 q-10 0 -16.5 1.5t-12.5 7.5t-4 17q5 27 42 27h35l7 45h-168q-22 0 -28 6.5t-3 25.5zM524 152h129l28 168z" />
<glyph unicode="&#xbd;" horiz-adv-x="933" d="M120 268q4 27 41 27h54l42 248q-35 -10 -64 -10q-33 0 -29 27q4 23 32 27q54 0 82 23q15 12 28 12q14 0 20 -5.5t5 -12.5t-1 -14l-49 -295h54q16 0 26 -5t7 -22q-4 -26 -42 -26h-174q-10 0 -16.5 1.5t-12 7.5t-3.5 17zM219 18q1 4 25 36l500 554q16 18 37 18t15 -32 q-3 -15 -21 -36l-501 -556q-17 -17 -31 -17q-30 0 -24 33zM556 27q1 13 17 23l172 108q87 54 94 99q6 33 -21 51.5t-70 18.5q-53 0 -77 -34q7 -11 4 -21q-2 -16 -16 -25.5t-29 -9.5q-14 0 -25 9t-8 28q7 42 53.5 74t109.5 32q70 0 111.5 -34t32.5 -89q-10 -63 -100 -123 l-129 -81h130q3 14 11 21t27 7q21 0 26 -10.5t0 -22.5l-2 -15q-4 -20 -12 -26.5t-30 -6.5h-238q-9 0 -15.5 1.5t-12 7.5t-3.5 18z" />
<glyph unicode="&#xbe;" horiz-adv-x="840" d="M114 330q3 17 16.5 26.5t30.5 9.5q22 0 30.5 -19t-6.5 -33q20 -25 85 -25q41 0 70.5 19t34.5 44q4 25 -19 44.5t-67 19.5h-33q-15 0 -24.5 5t-6.5 22q2 15 17.5 20.5t68.5 9.5q22 3 44 17q26 16 29 40q3 17 -16 28t-51 11q-45 0 -68 -12q7 -20 -9.5 -34t-34.5 -14 q-16 0 -27 9.5t-8 26.5q5 33 47 55t108 22q62 0 96.5 -27t28.5 -64q-8 -50 -64 -85q63 -33 54 -94q-8 -45 -59 -81t-120 -36q-70 0 -112 26.5t-35 68.5zM209 18q1 4 5.5 11t11.5 15.5t8 9.5l500 554q16 18 37 18q8 0 13 -8t2 -24q-3 -15 -21 -36l-501 -556q-17 -17 -31 -17 q-30 0 -24 33zM446 130q2 12 4 16t9 10l194 209q10 10 16.5 13t22.5 3h20q23 0 28.5 -6.5t2.5 -26.5l-33 -196h46q10 0 17 -1.5t12.5 -8t3.5 -18.5q-4 -26 -42 -26h-46l-7 -45h35q10 0 16.5 -1t11.5 -7.5t3 -18.5q-4 -26 -40 -26h-126q-10 0 -16.5 1.5t-12.5 7.5t-4 17 q5 27 42 27h35l7 45h-168q-22 0 -28 6.5t-3 25.5zM524 152h129l28 168z" />
<glyph unicode="&#xbf;" horiz-adv-x="496" d="M40 -92q9 61 71 100q87 56 100 144l3 16q5 31 16 40t39 9q33 0 39.5 -12.5t-1.5 -47.5q-4 -25 -10 -43.5t-21.5 -48t-47.5 -60.5t-79 -61q-22 -14 -25 -36q-3 -18 6.5 -30t28 -16.5t29 -5.5t22.5 -1q79 0 113 27q-5 10 -2 26q4 23 22 37.5t38 14.5t33.5 -14t9.5 -40 q-8 -54 -65 -90.5t-162 -36.5q-46 0 -79.5 10t-48 25.5t-23.5 33t-7.5 33.5t1.5 27zM232 338q5 24 24 40.5t43 16.5t37.5 -16.5t9.5 -40.5t-23 -40.5t-43 -16.5t-38 16.5t-10 40.5z" />
<glyph unicode="&#xc0;" horiz-adv-x="758" d="M49 39q6 38 54 38h38l267 508q13 25 28.5 31.5t36.5 6.5h19q15 0 23 -1.5t17 -10.5t12 -27l98 -507h38q14 0 22 -1.5t15 -10.5t4 -27q-6 -38 -54 -38h-154q-13 0 -21.5 1.5t-16 11t-4.5 26.5q6 38 55 38h26l-17 90h-257l-47 -90h26q13 0 21.5 -1.5t16 -11t4.5 -26.5 q-6 -38 -55 -38h-154q-14 0 -22 1.5t-15 10.5t-4 27zM319 244h201l-54 282zM419 716q-38 19 -24 52t48 33q9 0 21 -6l120 -58q14 -6 20 -13.5t4 -22.5q-3 -13 -16 -30.5t-33 -17.5q-8 0 -20 6z" />
<glyph unicode="&#xc1;" horiz-adv-x="758" d="M49 39q6 38 54 38h38l267 508q13 25 28.5 31.5t36.5 6.5h19q15 0 23 -1.5t17 -10.5t12 -27l98 -507h38q14 0 22 -1.5t15 -10.5t4 -27q-6 -38 -54 -38h-154q-13 0 -21.5 1.5t-16 11t-4.5 26.5q6 38 55 38h26l-17 90h-257l-47 -90h26q13 0 21.5 -1.5t16 -11t4.5 -26.5 q-6 -38 -55 -38h-154q-14 0 -22 1.5t-15 10.5t-4 27zM319 244h201l-54 282zM385 701q2 15 10.5 22.5t25.5 13.5l138 58l23 6q18 0 28.5 -12t7.5 -31q-4 -27 -40 -42l-138 -57q-16 -6 -22 -6q-20 0 -27.5 18t-5.5 30z" />
<glyph unicode="&#xc2;" horiz-adv-x="758" d="M49 39q6 38 54 38h38l267 508q13 25 28.5 31.5t36.5 6.5h19q15 0 23 -1.5t17 -10.5t12 -27l98 -507h38q14 0 22 -1.5t15 -10.5t4 -27q-6 -38 -54 -38h-154q-13 0 -21.5 1.5t-16 11t-4.5 26.5q6 38 55 38h26l-17 90h-257l-47 -90h26q13 0 21.5 -1.5t16 -11t4.5 -26.5 q-6 -38 -55 -38h-154q-14 0 -22 1.5t-15 10.5t-4 27zM319 244h201l-54 282zM341 681q5 25 32 35l121 42q14 3 25 0l107 -42q20 -7 20.5 -25t-13 -33t-30.5 -15q-8 0 -13 2l-97 31l-109 -31q-5 -2 -13 -2q-15 0 -23.5 12t-6.5 26z" />
<glyph unicode="&#xc3;" horiz-adv-x="758" d="M49 39q6 38 54 38h38l267 508q13 25 28.5 31.5t36.5 6.5h19q15 0 23 -1.5t17 -10.5t12 -27l98 -507h38q14 0 22 -1.5t15 -10.5t4 -27q-6 -38 -54 -38h-154q-13 0 -21.5 1.5t-16 11t-4.5 26.5q6 38 55 38h26l-17 90h-257l-47 -90h26q13 0 21.5 -1.5t16 -11t4.5 -26.5 q-6 -38 -55 -38h-154q-14 0 -22 1.5t-15 10.5t-4 27zM315 683q3 22 61 60q51 34 86 34q37 0 67 -35q14 -18 21 -18q18 0 68 40q16 13 31 13t25 -12.5t8 -27.5q-3 -20 -61 -60q-51 -34 -87 -34q-35 0 -66 36q-16 18 -21 18q-18 0 -69 -41q-17 -13 -31 -13q-15 0 -25 12.5 t-7 27.5zM319 244h201l-54 282z" />
<glyph unicode="&#xc4;" horiz-adv-x="758" d="M49 39q6 38 54 38h38l267 508q13 25 28.5 31.5t36.5 6.5h19q15 0 23 -1.5t17 -10.5t12 -27l98 -507h38q14 0 22 -1.5t15 -10.5t4 -27q-6 -38 -54 -38h-154q-13 0 -21.5 1.5t-16 11t-4.5 26.5q6 38 55 38h26l-17 90h-257l-47 -90h26q13 0 21.5 -1.5t16 -11t4.5 -26.5 q-6 -38 -55 -38h-154q-14 0 -22 1.5t-15 10.5t-4 27zM319 244h201l-54 282zM345 695q3 21 20.5 37t41.5 16q21 0 33.5 -16t9.5 -37q-4 -21 -21 -36.5t-41 -15.5q-21 0 -34 15t-9 37zM542 695q3 21 20.5 37t41.5 16q21 0 33.5 -16t9.5 -37q-4 -21 -21 -36.5t-41 -15.5 q-21 0 -34 15t-9 37z" />
<glyph unicode="&#xc5;" horiz-adv-x="758" d="M49 39q6 38 54 38h38l267 508q13 25 28.5 31.5t36.5 6.5h9q-50 0 -82.5 20t-27.5 47t43 47t91 20q50 0 82.5 -20t27.5 -47t-43 -47t-91 -20h10q15 0 23 -1.5t17 -10.5t12 -27l98 -507h38q14 0 22 -1.5t15 -10.5t4 -27q-6 -38 -54 -38h-154q-13 0 -21.5 1.5t-16 11 t-4.5 26.5q6 38 55 38h26l-17 90h-257l-47 -90h26q13 0 21.5 -1.5t16 -11t4.5 -26.5q-6 -38 -55 -38h-154q-14 0 -22 1.5t-15 10.5t-4 27zM319 244h201l-54 282zM447 690q-3 -19 44 -19t50 19t-44 19t-50 -19z" />
<glyph unicode="&#xc6;" horiz-adv-x="933" d="M55 39q6 38 54 38h40l276 457h-3q-12 0 -20.5 1.5t-16.5 10.5t-5 26q7 39 55 39h491q29 0 36.5 -10t2.5 -39l-12 -70q-3 -16 -5.5 -24t-13.5 -16.5t-31 -8.5q-19 0 -28 7.5t-8 18.5t2 23l7 42h-242l-30 -179h125q7 33 16 44t36 11q19 0 28 -7.5t8 -18.5t-2 -23l-15 -90 q-2 -11 -4 -17.5t-7 -15t-14.5 -12.5t-24.5 -4q-27 0 -32.5 11.5t-1.5 44.5h-125l-33 -201h270l10 58q3 16 6 24.5t14 16.5t31 8q19 0 27.5 -7.5t7.5 -18.5t-2 -23l-15 -86q-5 -29 -15.5 -39t-39.5 -10h-412q-12 0 -21 1.5t-17 10.5t-5 26q7 39 56 39h20l17 101h-188 l-61 -101h23q13 0 21 -1.5t15 -10.5t4 -27q-6 -38 -53 -38h-155q-13 0 -21.5 1.5t-15.5 11t-4 26.5zM346 255h155l46 279h-32z" />
<glyph unicode="&#xc7;" horiz-adv-x="758" d="M109 306q21 128 137.5 222t264.5 94q122 0 193 -56q10 17 18 27q18 29 43 29q37 0 30 -49l-23 -135q-3 -16 -6 -24t-14 -16t-31 -8q-34 0 -36 29q-5 62 -53 94q-50 32 -127 32q-114 0 -204.5 -71t-106.5 -168q-16 -98 50 -169t183 -71q82 0 138 26q29 13 47.5 31t23 28 t8.5 26q8 36 48 36q42 0 36 -41q-11 -63 -69.5 -110t-151.5 -64q58 -31 48 -93q-6 -36 -30 -59.5t-63 -33t-68.5 -12t-71.5 -2.5q-14 0 -24.5 9.5t-7.5 29.5q4 25 20.5 32t48.5 7q63 0 86.5 7t25.5 23q2 12 -10 20t-32 10q-18 1 -25.5 9.5t-6 20t2.5 23.5 q-147 3 -229.5 96.5t-61.5 220.5z" />
<glyph unicode="&#xc8;" horiz-adv-x="700" d="M52 38q7 39 55 39h43l76 457h-43q-12 0 -20.5 1.5t-16.5 10.5t-5 26q7 39 55 39h500q29 0 37 -10t3 -39l-12 -70q-3 -16 -6 -24.5t-14 -16.5t-31 -8q-19 0 -28 7.5t-8 18.5t2 23l7 42h-335l-30 -179h176q6 32 15.5 43.5t36.5 11.5q19 0 27.5 -7.5t7.5 -18.5t-2 -23 l-15 -90q-3 -15 -5.5 -23.5t-13.5 -17t-30 -8.5q-27 0 -33 11.5t-1 44.5h-176l-33 -201h363l10 58q3 16 6 24.5t14 16.5t31 8q19 0 27.5 -7.5t8 -18.5t-1.5 -23l-15 -86q-5 -29 -16 -39t-40 -10h-528q-13 0 -21 1.5t-16 10.5t-5 26zM390 716q-38 19 -24 52t48 33q9 0 21 -6 l120 -58q14 -6 20 -13.5t4 -22.5q-3 -13 -16 -30.5t-33 -17.5q-8 0 -20 6z" />
<glyph unicode="&#xc9;" horiz-adv-x="700" d="M52 38q7 39 55 39h43l76 457h-43q-12 0 -20.5 1.5t-16.5 10.5t-5 26q7 39 55 39h500q29 0 37 -10t3 -39l-12 -70q-3 -16 -6 -24.5t-14 -16.5t-31 -8q-19 0 -28 7.5t-8 18.5t2 23l7 42h-335l-30 -179h176q6 32 15.5 43.5t36.5 11.5q19 0 27.5 -7.5t7.5 -18.5t-2 -23 l-15 -90q-3 -15 -5.5 -23.5t-13.5 -17t-30 -8.5q-27 0 -33 11.5t-1 44.5h-176l-33 -201h363l10 58q3 16 6 24.5t14 16.5t31 8q19 0 27.5 -7.5t8 -18.5t-1.5 -23l-15 -86q-5 -29 -16 -39t-40 -10h-528q-13 0 -21 1.5t-16 10.5t-5 26zM356 701q2 15 10.5 22.5t25.5 13.5 l138 58l23 6q18 0 28.5 -12t7.5 -31q-4 -27 -40 -42l-138 -57q-16 -6 -22 -6q-20 0 -27.5 18t-5.5 30z" />
<glyph unicode="&#xca;" horiz-adv-x="700" d="M52 38q7 39 55 39h43l76 457h-43q-12 0 -20.5 1.5t-16.5 10.5t-5 26q7 39 55 39h500q29 0 37 -10t3 -39l-12 -70q-3 -16 -6 -24.5t-14 -16.5t-31 -8q-19 0 -28 7.5t-8 18.5t2 23l7 42h-335l-30 -179h176q6 32 15.5 43.5t36.5 11.5q19 0 27.5 -7.5t7.5 -18.5t-2 -23 l-15 -90q-3 -15 -5.5 -23.5t-13.5 -17t-30 -8.5q-27 0 -33 11.5t-1 44.5h-176l-33 -201h363l10 58q3 16 6 24.5t14 16.5t31 8q19 0 27.5 -7.5t8 -18.5t-1.5 -23l-15 -86q-5 -29 -16 -39t-40 -10h-528q-13 0 -21 1.5t-16 10.5t-5 26zM312 681q5 25 32 35l121 42q14 3 25 0 l107 -42q20 -7 20.5 -25t-13 -33t-30.5 -15q-8 0 -13 2l-97 31l-109 -31q-5 -2 -13 -2q-15 0 -23.5 12t-6.5 26z" />
<glyph unicode="&#xcb;" horiz-adv-x="700" d="M52 38q7 39 55 39h43l76 457h-43q-12 0 -20.5 1.5t-16.5 10.5t-5 26q7 39 55 39h500q29 0 37 -10t3 -39l-12 -70q-3 -16 -6 -24.5t-14 -16.5t-31 -8q-19 0 -28 7.5t-8 18.5t2 23l7 42h-335l-30 -179h176q6 32 15.5 43.5t36.5 11.5q19 0 27.5 -7.5t7.5 -18.5t-2 -23 l-15 -90q-3 -15 -5.5 -23.5t-13.5 -17t-30 -8.5q-27 0 -33 11.5t-1 44.5h-176l-33 -201h363l10 58q3 16 6 24.5t14 16.5t31 8q19 0 27.5 -7.5t8 -18.5t-1.5 -23l-15 -86q-5 -29 -16 -39t-40 -10h-528q-13 0 -21 1.5t-16 10.5t-5 26zM316 695q3 21 20.5 37t41.5 16 q21 0 33.5 -16t9.5 -37q-4 -21 -21 -36.5t-41 -15.5q-21 0 -34 15t-9 37zM513 695q3 21 20.5 37t41.5 16q21 0 33.5 -16t9.5 -37q-4 -21 -21 -36.5t-41 -15.5q-21 0 -34 15t-9 37z" />
<glyph unicode="&#xcc;" horiz-adv-x="350" d="M42 38q7 39 55 39h48l76 457h-48q-13 0 -21.5 1.5t-16 10.5t-4.5 26q7 39 55 39h181q14 0 22 -1.5t15 -10.5t4 -27q-6 -38 -54 -38h-48l-76 -457h48q14 0 22 -1.5t15 -10.5t4 -27q-6 -38 -54 -38h-181q-13 0 -21.5 1.5t-16 10.5t-4.5 26zM215 716q-38 19 -24 52t48 33 q9 0 21 -6l120 -58q14 -6 20 -13.5t4 -22.5q-3 -13 -16 -30.5t-33 -17.5q-8 0 -20 6z" />
<glyph unicode="&#xcd;" horiz-adv-x="350" d="M42 38q7 39 55 39h48l76 457h-48q-13 0 -21.5 1.5t-16 10.5t-4.5 26q7 39 55 39h181q14 0 22 -1.5t15 -10.5t4 -27q-6 -38 -54 -38h-48l-76 -457h48q14 0 22 -1.5t15 -10.5t4 -27q-6 -38 -54 -38h-181q-13 0 -21.5 1.5t-16 10.5t-4.5 26zM181 701q2 15 10.5 22.5 t25.5 13.5l138 58l23 6q18 0 28.5 -12t7.5 -31q-4 -27 -40 -42l-138 -57q-16 -6 -22 -6q-20 0 -27.5 18t-5.5 30z" />
<glyph unicode="&#xce;" horiz-adv-x="350" d="M42 38q7 39 55 39h48l76 457h-48q-13 0 -21.5 1.5t-16 10.5t-4.5 26q7 39 55 39h181q14 0 22 -1.5t15 -10.5t4 -27q-6 -38 -54 -38h-48l-76 -457h48q14 0 22 -1.5t15 -10.5t4 -27q-6 -38 -54 -38h-181q-13 0 -21.5 1.5t-16 10.5t-4.5 26zM137 681q5 25 32 35l121 42 q14 3 25 0l107 -42q20 -7 20.5 -25t-13 -33t-30.5 -15q-8 0 -13 2l-97 31l-109 -31q-5 -2 -13 -2q-15 0 -23.5 12t-6.5 26z" />
<glyph unicode="&#xcf;" horiz-adv-x="350" d="M42 38q7 39 55 39h48l76 457h-48q-13 0 -21.5 1.5t-16 10.5t-4.5 26q7 39 55 39h181q14 0 22 -1.5t15 -10.5t4 -27q-6 -38 -54 -38h-48l-76 -457h48q14 0 22 -1.5t15 -10.5t4 -27q-6 -38 -54 -38h-181q-13 0 -21.5 1.5t-16 10.5t-4.5 26zM141 695q3 21 20.5 37t41.5 16 q21 0 33.5 -16t9.5 -37q-4 -21 -21 -36.5t-41 -15.5q-21 0 -34 15t-9 37zM338 695q3 21 20.5 37t41.5 16q21 0 33.5 -16t9.5 -37q-4 -21 -21 -36.5t-41 -15.5q-21 0 -34 15t-9 37z" />
<glyph unicode="&#xd0;" horiz-adv-x="788" d="M53 38q7 39 55 39h43l32 190h-48q-17 0 -26.5 11t-6.5 28q3 16 16.5 27.5t29.5 11.5h48l31 189h-43q-13 0 -21.5 1.5t-16 10.5t-4.5 26q7 39 55 39h312q132 0 211 -91.5t57 -219.5q-20 -123 -128.5 -211.5t-241.5 -88.5h-312q-13 0 -21.5 1.5t-16 10.5t-4.5 26zM237 77 h167q106 0 190.5 65.5t99.5 158.5q16 94 -45 163.5t-170 69.5h-166l-31 -189h171q16 0 25.5 -11.5t6.5 -27.5q-3 -17 -16 -28t-29 -11h-171z" />
<glyph unicode="&#xd1;" horiz-adv-x="758" d="M60 38q7 39 54 39h44l76 457h-44q-12 0 -20.5 1.5t-16 10.5t-4.5 26q7 39 54 39h92q15 0 23.5 -1t20.5 -10t19 -26l197 -483l74 443h-43q-13 0 -21.5 1.5t-16 10.5t-4.5 26q7 39 55 39h159q13 0 21 -1.5t15 -10.5t4 -27q-6 -38 -53 -38h-44l-81 -485q-5 -31 -16 -40 t-40 -9q-15 0 -23.5 1t-20.5 10t-19 26l-197 483l-74 -443h43q14 0 22 -1.5t15 -10.5t4 -27q-6 -38 -54 -38h-159q-13 0 -21 1.5t-15.5 10.5t-4.5 26zM315 683q3 22 61 60q51 34 86 34q37 0 67 -35q14 -18 21 -18q18 0 68 40q16 13 31 13t25 -12.5t8 -27.5q-3 -20 -61 -60 q-51 -34 -87 -34q-35 0 -66 36q-16 18 -21 18q-18 0 -69 -41q-17 -13 -31 -13q-15 0 -25 12.5t-7 27.5z" />
<glyph unicode="&#xd2;" horiz-adv-x="817" d="M110 306q21 128 138 222t264 94q146 0 232 -93t64 -224q-21 -128 -138 -222t-264 -94q-146 0 -232 93t-64 224zM197 317q-17 -103 47.5 -177t174.5 -74t199.5 74t106.5 177q16 93 -50 160.5t-176 67.5t-198 -67t-104 -161zM448 716q-38 19 -24 52t48 33q9 0 21 -6 l120 -58q14 -6 20 -13.5t4 -22.5q-3 -13 -16 -30.5t-33 -17.5q-8 0 -20 6z" />
<glyph unicode="&#xd3;" horiz-adv-x="817" d="M110 306q21 128 138 222t264 94q146 0 232 -93t64 -224q-21 -128 -138 -222t-264 -94q-146 0 -232 93t-64 224zM197 317q-17 -103 47.5 -177t174.5 -74t199.5 74t106.5 177q16 93 -50 160.5t-176 67.5t-198 -67t-104 -161zM414 701q2 15 10.5 22.5t25.5 13.5l138 58l23 6 q18 0 28.5 -12t7.5 -31q-4 -27 -40 -42l-138 -57q-16 -6 -22 -6q-20 0 -27.5 18t-5.5 30z" />
<glyph unicode="&#xd4;" horiz-adv-x="817" d="M110 306q21 128 138 222t264 94q146 0 232 -93t64 -224q-21 -128 -138 -222t-264 -94q-146 0 -232 93t-64 224zM197 317q-17 -103 47.5 -177t174.5 -74t199.5 74t106.5 177q16 93 -50 160.5t-176 67.5t-198 -67t-104 -161zM370 681q5 25 32 35l121 42q14 3 25 0l107 -42 q20 -7 20.5 -25t-13 -33t-30.5 -15q-8 0 -13 2l-97 31l-109 -31q-5 -2 -13 -2q-15 0 -23.5 12t-6.5 26z" />
<glyph unicode="&#xd5;" horiz-adv-x="817" d="M110 306q21 128 138 222t264 94q146 0 232 -93t64 -224q-21 -128 -138 -222t-264 -94q-146 0 -232 93t-64 224zM197 317q-17 -103 47.5 -177t174.5 -74t199.5 74t106.5 177q16 93 -50 160.5t-176 67.5t-198 -67t-104 -161zM344 683q3 22 61 60q51 34 86 34q37 0 67 -35 q14 -18 21 -18q18 0 68 40q16 13 31 13t25 -12.5t8 -27.5q-3 -20 -61 -60q-51 -34 -87 -34q-35 0 -66 36q-16 18 -21 18q-18 0 -69 -41q-17 -13 -31 -13q-15 0 -25 12.5t-7 27.5z" />
<glyph unicode="&#xd6;" horiz-adv-x="817" d="M110 306q21 128 138 222t264 94q146 0 232 -93t64 -224q-21 -128 -138 -222t-264 -94q-146 0 -232 93t-64 224zM197 317q-17 -103 47.5 -177t174.5 -74t199.5 74t106.5 177q16 93 -50 160.5t-176 67.5t-198 -67t-104 -161zM374 695q3 21 20.5 37t41.5 16q21 0 33.5 -16 t9.5 -37q-4 -21 -21 -36.5t-41 -15.5q-21 0 -34 15t-9 37zM571 695q3 21 20.5 37t41.5 16q21 0 33.5 -16t9.5 -37q-4 -21 -21 -36.5t-41 -15.5q-21 0 -34 15t-9 37z" />
<glyph unicode="&#xd7;" horiz-adv-x="817" d="M172 60q-25 28 19 68l208 178l-148 178q-34 38 3 68q33 30 67 -8l148 -178l208 178q44 40 69 8q25 -28 -19 -68l-208 -178l148 -178q34 -38 -3 -68q-33 -30 -67 8l-148 178l-208 -178q-44 -40 -69 -8z" />
<glyph unicode="&#xd8;" horiz-adv-x="817" d="M110 -44q1 12 21 35l64 71q-57 51 -76.5 115.5t-8.5 128.5q21 128 138 222t264 94q62 0 151 -34l73 83q19 23 40 23q14 0 24.5 -10.5t7.5 -28.5q-1 -12 -17 -30l-68 -76q57 -51 76.5 -115.5t8.5 -128.5q-21 -128 -138 -222t-264 -94q-86 0 -151 34l-75 -85 q-20 -21 -38 -21q-14 0 -24.5 11t-7.5 28zM180 305q-9 -55 10.5 -102.5t56.5 -79.5l357 402q-56 20 -107 20q-116 0 -208 -70.5t-109 -169.5zM314 86q56 -20 107 -20q116 0 208 70.5t109 169.5q9 57 -11 105t-57 77z" />
<glyph unicode="&#xd9;" horiz-adv-x="758" d="M142 572q7 39 54 39h172q14 0 22 -1.5t15 -10.5t4 -27q-6 -38 -54 -38h-43l-53 -319q-12 -71 29.5 -110t101.5 -39q58 0 113 38.5t67 110.5l53 319h-43q-13 0 -21.5 1.5t-16 10.5t-4.5 26q7 39 55 39h172q13 0 21 -1.5t15 -10.5t4 -27q-6 -38 -53 -38h-44l-54 -325 q-16 -93 -97 -156.5t-181 -63.5q-98 0 -158 63t-45 157l54 325h-44q-12 0 -20.5 1.5t-16 10.5t-4.5 26zM442 716q-38 19 -24 52t48 33q9 0 21 -6l120 -58q14 -6 20 -13.5t4 -22.5q-3 -13 -16 -30.5t-33 -17.5q-8 0 -20 6z" />
<glyph unicode="&#xda;" horiz-adv-x="758" d="M142 572q7 39 54 39h172q14 0 22 -1.5t15 -10.5t4 -27q-6 -38 -54 -38h-43l-53 -319q-12 -71 29.5 -110t101.5 -39q58 0 113 38.5t67 110.5l53 319h-43q-13 0 -21.5 1.5t-16 10.5t-4.5 26q7 39 55 39h172q13 0 21 -1.5t15 -10.5t4 -27q-6 -38 -53 -38h-44l-54 -325 q-16 -93 -97 -156.5t-181 -63.5q-98 0 -158 63t-45 157l54 325h-44q-12 0 -20.5 1.5t-16 10.5t-4.5 26zM408 701q2 15 10.5 22.5t25.5 13.5l138 58l23 6q18 0 28.5 -12t7.5 -31q-4 -27 -40 -42l-138 -57q-16 -6 -22 -6q-20 0 -27.5 18t-5.5 30z" />
<glyph unicode="&#xdb;" horiz-adv-x="758" d="M142 572q7 39 54 39h172q14 0 22 -1.5t15 -10.5t4 -27q-6 -38 -54 -38h-43l-53 -319q-12 -71 29.5 -110t101.5 -39q58 0 113 38.5t67 110.5l53 319h-43q-13 0 -21.5 1.5t-16 10.5t-4.5 26q7 39 55 39h172q13 0 21 -1.5t15 -10.5t4 -27q-6 -38 -53 -38h-44l-54 -325 q-16 -93 -97 -156.5t-181 -63.5q-98 0 -158 63t-45 157l54 325h-44q-12 0 -20.5 1.5t-16 10.5t-4.5 26zM364 681q5 25 32 35l121 42q14 3 25 0l107 -42q20 -7 20.5 -25t-13 -33t-30.5 -15q-8 0 -13 2l-97 31l-109 -31q-5 -2 -13 -2q-15 0 -23.5 12t-6.5 26z" />
<glyph unicode="&#xdc;" horiz-adv-x="758" d="M142 572q7 39 54 39h172q14 0 22 -1.5t15 -10.5t4 -27q-6 -38 -54 -38h-43l-53 -319q-12 -71 29.5 -110t101.5 -39q58 0 113 38.5t67 110.5l53 319h-43q-13 0 -21.5 1.5t-16 10.5t-4.5 26q7 39 55 39h172q13 0 21 -1.5t15 -10.5t4 -27q-6 -38 -53 -38h-44l-54 -325 q-16 -93 -97 -156.5t-181 -63.5q-98 0 -158 63t-45 157l54 325h-44q-12 0 -20.5 1.5t-16 10.5t-4.5 26zM368 695q3 21 20.5 37t41.5 16q21 0 33.5 -16t9.5 -37q-4 -21 -21 -36.5t-41 -15.5q-21 0 -34 15t-9 37zM565 695q3 21 20.5 37t41.5 16q21 0 33.5 -16t9.5 -37 q-4 -21 -21 -36.5t-41 -15.5q-21 0 -34 15t-9 37z" />
<glyph unicode="&#xdd;" horiz-adv-x="758" d="M127 573q6 38 55 38h151q13 0 21.5 -1.5t16 -11t4.5 -26.5q-6 -38 -55 -38h-5l118 -206l187 206h-5q-13 0 -21.5 1.5t-16 11t-4.5 26.5q6 38 55 38h151q13 0 21.5 -1.5t16 -11t4.5 -26.5q-6 -38 -55 -38h-42l-262 -291l-28 -166h43q14 0 22 -1.5t15 -10.5t4 -27 q-6 -38 -54 -38h-171q-13 0 -21.5 1.5t-16 10.5t-4.5 26q7 39 55 39h43l28 166l-166 291h-42q-13 0 -21.5 1.5t-16 11t-4.5 26.5zM385 701q2 15 10.5 22.5t25.5 13.5l138 58l23 6q18 0 28.5 -12t7.5 -31q-4 -27 -40 -42l-138 -57q-16 -6 -22 -6q-20 0 -27.5 18t-5.5 30z" />
<glyph unicode="&#xde;" horiz-adv-x="700" d="M52 38q7 39 54 39h44l76 457h-44q-12 0 -20.5 1.5t-16 10.5t-4.5 26q7 39 54 39h172q14 0 22 -1.5t15 -10.5t4 -27q-6 -38 -54 -38h-43l-7 -42h171q105 0 167 -55.5t50 -130.5t-93 -131t-186 -56h-171l-7 -42h43q14 0 22 -1.5t15 -10.5t4 -27q-6 -38 -54 -38h-172 q-13 0 -21 1.5t-15.5 10.5t-4.5 26zM256 196h154q75 0 133 32.5t66 77.5t-39.5 77.5t-123.5 32.5h-154z" />
<glyph unicode="&#xdf;" d="M21 38q7 39 55 39h43l47 282h-43q-13 0 -21.5 1.5t-16 10.5t-4.5 26q7 39 55 39h43l10 59q7 44 45 73.5t78 39t79 9.5q75 0 122.5 -32.5t39.5 -82.5q-11 -65 -93 -111q51 -45 63.5 -103.5t3.5 -108.5q-14 -81 -79 -133t-139 -52q-51 0 -75 24.5t-18 57.5q4 23 20 36 t36 13q25 0 35 -19q7 -12 3 -34q4 -1 12 -1q39 0 75.5 29.5t44.5 78.5q6 19 2 48.5t-13 58t-38 50t-72 23.5q-3 1 -8 3t-12 11.5t-5 23.5q4 21 20.5 30t51.5 12q47 6 72 25.5t28 36.5q2 16 -24.5 27.5t-66.5 11.5q-38 0 -70 -13q-21 -8 -26.5 -16t-7.5 -22l-74 -440 q-5 -29 -16 -39t-40 -10h-80q-13 0 -21.5 1.5t-16 10.5t-4.5 26z" />
<glyph unicode="&#xe0;" horiz-adv-x="510" d="M73 133q11 68 93.5 109t214.5 44q4 42 -22 62t-75 20l-44 -3q-5 -28 -23 -40.5t-37 -12.5q-22 0 -35 14t-9 39q14 80 160 80q98 0 139 -48t31 -111l-34 -204q10 -5 45 -5q12 0 20.5 -1.5t16 -10.5t4.5 -26q-5 -25 -19.5 -32t-43.5 -7q-78 0 -99 28q-62 -34 -142 -34 q-72 0 -111 41.5t-30 97.5zM156 133q-4 -26 17.5 -44t59.5 -18q46 0 80 15q17 7 26.5 17t11.5 16.5t4 19.5l12 72q-100 -4 -152.5 -25t-58.5 -53zM266 540q-38 19 -24 52t48 33q9 0 21 -6l119 -58q28 -12 24 -36q-1 -12 -15 -30t-34 -18q-6 0 -20 6z" />
<glyph unicode="&#xe1;" horiz-adv-x="510" d="M73 133q11 68 93.5 109t214.5 44q4 42 -22 62t-75 20l-44 -3q-5 -28 -23 -40.5t-37 -12.5q-22 0 -35 14t-9 39q14 80 160 80q98 0 139 -48t31 -111l-34 -204q10 -5 45 -5q12 0 20.5 -1.5t16 -10.5t4.5 -26q-5 -25 -19.5 -32t-43.5 -7q-78 0 -99 28q-62 -34 -142 -34 q-72 0 -111 41.5t-30 97.5zM156 133q-4 -26 17.5 -44t59.5 -18q46 0 80 15q17 7 26.5 17t11.5 16.5t4 19.5l12 72q-100 -4 -152.5 -25t-58.5 -53zM231 525q4 24 36 36l139 58l23 6q18 0 28.5 -12t7.5 -31q-4 -27 -40 -42l-139 -57q-14 -6 -22 -6q-20 0 -27 17t-6 31z" />
<glyph unicode="&#xe2;" horiz-adv-x="510" d="M73 133q11 68 93.5 109t214.5 44q4 42 -22 62t-75 20l-44 -3q-5 -28 -23 -40.5t-37 -12.5q-22 0 -35 14t-9 39q14 80 160 80q98 0 139 -48t31 -111l-34 -204q10 -5 45 -5q12 0 20.5 -1.5t16 -10.5t4.5 -26q-5 -25 -19.5 -32t-43.5 -7q-78 0 -99 28q-62 -34 -142 -34 q-72 0 -111 41.5t-30 97.5zM156 133q-4 -26 17.5 -44t59.5 -18q46 0 80 15q17 7 26.5 17t11.5 16.5t4 19.5l12 72q-100 -4 -152.5 -25t-58.5 -53zM189 516q4 20 23 31l127 72q22 13 40 0l103 -72q24 -18 8 -44t-41 -26q-8 0 -17 6l-86 58l-106 -58q-9 -6 -19 -6 q-16 0 -25.5 12t-6.5 27z" />
<glyph unicode="&#xe3;" horiz-adv-x="510" d="M73 133q11 68 93.5 109t214.5 44q4 42 -22 62t-75 20l-44 -3q-5 -28 -23 -40.5t-37 -12.5q-22 0 -35 14t-9 39q14 80 160 80q98 0 139 -48t31 -111l-34 -204q10 -5 45 -5q12 0 20.5 -1.5t16 -10.5t4.5 -26q-5 -25 -19.5 -32t-43.5 -7q-78 0 -99 28q-62 -34 -142 -34 q-72 0 -111 41.5t-30 97.5zM156 133q-4 -26 17.5 -44t59.5 -18q46 0 80 15q17 7 26.5 17t11.5 16.5t4 19.5l12 72q-100 -4 -152.5 -25t-58.5 -53zM164 524q3 22 61 60q51 34 87 34t66 -35q14 -18 21 -18q18 0 69 40q15 13 31 13q15 0 24.5 -12.5t7.5 -27.5q-3 -22 -61 -60 q-51 -34 -87 -34q-35 0 -66 36q-16 18 -21 18q-17 0 -68 -41q-19 -13 -32 -13q-15 0 -24.5 12.5t-7.5 27.5z" />
<glyph unicode="&#xe4;" horiz-adv-x="510" d="M73 133q11 68 93.5 109t214.5 44q4 42 -22 62t-75 20l-44 -3q-5 -28 -23 -40.5t-37 -12.5q-22 0 -35 14t-9 39q14 80 160 80q98 0 139 -48t31 -111l-34 -204q10 -5 45 -5q12 0 20.5 -1.5t16 -10.5t4.5 -26q-5 -25 -19.5 -32t-43.5 -7q-78 0 -99 28q-62 -34 -142 -34 q-72 0 -111 41.5t-30 97.5zM156 133q-4 -26 17.5 -44t59.5 -18q46 0 80 15q17 7 26.5 17t11.5 16.5t4 19.5l12 72q-100 -4 -152.5 -25t-58.5 -53zM212 551q3 21 20 37t41 16q21 0 34 -16t10 -37q-4 -21 -21 -36.5t-41 -15.5q-21 0 -34 15t-9 37zM379 551q3 21 20 37t41 16 q21 0 34 -16t10 -37q-4 -21 -21 -36.5t-41 -15.5q-21 0 -34 15t-9 37z" />
<glyph unicode="&#xe5;" horiz-adv-x="510" d="M73 133q11 68 93.5 109t214.5 44q4 42 -22 62t-75 20l-44 -3q-5 -28 -23 -40.5t-37 -12.5q-22 0 -35 14t-9 39q14 80 160 80q98 0 139 -48t31 -111l-34 -204q10 -5 45 -5q12 0 20.5 -1.5t16 -10.5t4.5 -26q-5 -25 -19.5 -32t-43.5 -7q-78 0 -99 28q-62 -34 -142 -34 q-72 0 -111 41.5t-30 97.5zM156 133q-4 -26 17.5 -44t59.5 -18q46 0 80 15q17 7 26.5 17t11.5 16.5t4 19.5l12 72q-100 -4 -152.5 -25t-58.5 -53zM228 573q5 27 43 47t91 20q50 0 82.5 -20t27.5 -47q-4 -26 -42.5 -46.5t-91.5 -20.5q-50 0 -82.5 20t-27.5 47zM303 573 q-3 -19 44 -19t50 19t-44 19q-46 0 -50 -19z" />
<glyph unicode="&#xe6;" horiz-adv-x="758" d="M75 123q7 41 43.5 70t91 42t92.5 17.5t78 6.5l4 21q7 43 -18.5 65.5t-78.5 22.5q-22 0 -36 -1l-8 -2q-5 -28 -23.5 -40.5t-36.5 -12.5q-22 0 -35 14t-9 39q14 80 160 80q115 0 156 -72q78 72 165 72q85 0 123 -60t23 -154q-4 -21 -13 -31.5t-17.5 -12t-25.5 -1.5h-254 q3 -52 38.5 -83.5t84.5 -31.5q56 0 86 53q15 27 44 27q8 0 15.5 -1.5t16 -10t5.5 -24.5q-5 -32 -56.5 -76.5t-129.5 -44.5q-97 0 -152 71q-32 -40 -86.5 -55.5t-104.5 -15.5q-73 0 -112 38.5t-30 90.5zM155 124q-4 -23 18.5 -38t60.5 -15q44 0 81 14q38 14 44 47l6 51 q-80 -4 -123 -13q-82 -18 -87 -46zM474 261h215q2 47 -16 77t-61 30q-40 0 -79 -29.5t-59 -77.5z" />
<glyph unicode="&#xe7;" horiz-adv-x="467" d="M78 219q6 36 24.5 73t50 72.5t83 58t113.5 22.5q19 0 34.5 -1t38.5 -5.5t37.5 -12.5t24 -23.5t5.5 -37.5q-4 -24 -21.5 -38.5t-39.5 -14.5q-49 0 -42 56h-50q-43 0 -77.5 -16.5t-54 -42t-29.5 -48t-13 -42.5q-10 -62 25 -105t94 -43q66 0 97 53q9 17 18.5 22t25.5 5 q8 0 15.5 -1.5t16 -10t5.5 -24.5q-1 -10 -12.5 -29t-42 -44.5t-71.5 -37.5q73 -28 62 -99q-6 -36 -30 -59.5t-63 -33t-68.5 -12t-72.5 -2.5q-13 0 -24 9.5t-8 29.5q4 25 21 32t49 7q62 0 85.5 7t25.5 23q2 12 -9.5 20t-32.5 10q-16 1 -23.5 8.5t-7 17.5t1.5 21l2 12 q-85 8 -131.5 72.5t-31.5 151.5z" />
<glyph unicode="&#xe8;" horiz-adv-x="467" d="M72 221q15 92 88 158t162 66q91 0 131.5 -60.5t24.5 -154.5q-3 -21 -12.5 -31t-17.5 -11.5t-25 -1.5h-269q4 -52 39.5 -83.5t86.5 -31.5q67 0 98 53q9 17 18.5 22t25.5 5q8 0 15.5 -1.5t16 -10t5.5 -24.5q-5 -32 -59 -76.5t-139 -44.5q-95 0 -150 66t-39 161zM169 261 h228q3 59 -23 83t-65 24q-43 0 -82 -30t-58 -77zM244 540q-38 19 -24 52t48 33q9 0 21 -6l119 -58q28 -12 24 -36q-1 -12 -15 -30t-34 -18q-6 0 -20 6z" />
<glyph unicode="&#xe9;" horiz-adv-x="467" d="M72 221q15 92 88 158t162 66q91 0 131.5 -60.5t24.5 -154.5q-3 -21 -12.5 -31t-17.5 -11.5t-25 -1.5h-269q4 -52 39.5 -83.5t86.5 -31.5q67 0 98 53q9 17 18.5 22t25.5 5q8 0 15.5 -1.5t16 -10t5.5 -24.5q-5 -32 -59 -76.5t-139 -44.5q-95 0 -150 66t-39 161zM169 261 h228q3 59 -23 83t-65 24q-43 0 -82 -30t-58 -77zM209 525q4 24 36 36l139 58l23 6q18 0 28.5 -12t7.5 -31q-4 -27 -40 -42l-139 -57q-14 -6 -22 -6q-20 0 -27 17t-6 31z" />
<glyph unicode="&#xea;" horiz-adv-x="467" d="M72 221q15 92 88 158t162 66q91 0 131.5 -60.5t24.5 -154.5q-3 -21 -12.5 -31t-17.5 -11.5t-25 -1.5h-269q4 -52 39.5 -83.5t86.5 -31.5q67 0 98 53q9 17 18.5 22t25.5 5q8 0 15.5 -1.5t16 -10t5.5 -24.5q-5 -32 -59 -76.5t-139 -44.5q-95 0 -150 66t-39 161zM167 516 q4 20 23 31l127 72q22 13 40 0l103 -72q24 -18 8 -44t-41 -26q-8 0 -17 6l-86 58l-106 -58q-9 -6 -19 -6q-16 0 -25.5 12t-6.5 27zM169 261h228q3 59 -23 83t-65 24q-43 0 -82 -30t-58 -77z" />
<glyph unicode="&#xeb;" horiz-adv-x="467" d="M72 221q15 92 88 158t162 66q91 0 131.5 -60.5t24.5 -154.5q-3 -21 -12.5 -31t-17.5 -11.5t-25 -1.5h-269q4 -52 39.5 -83.5t86.5 -31.5q67 0 98 53q9 17 18.5 22t25.5 5q8 0 15.5 -1.5t16 -10t5.5 -24.5q-5 -32 -59 -76.5t-139 -44.5q-95 0 -150 66t-39 161zM169 261 h228q3 59 -23 83t-65 24q-43 0 -82 -30t-58 -77zM190 551q3 21 20 37t41 16q21 0 34 -16t10 -37q-4 -21 -21 -36.5t-41 -15.5q-21 0 -34 15t-9 37zM357 551q3 21 20 37t41 16q21 0 34 -16t10 -37q-4 -21 -21 -36.5t-41 -15.5q-21 0 -34 15t-9 37z" />
<glyph unicode="&#xec;" horiz-adv-x="292" d="M18 38q7 39 54 39h44l47 282h-39q-12 0 -20.5 1.5t-16.5 11t-5 26.5q7 38 55 38h76q29 0 37 -10t3 -38l-52 -311h34q13 0 21.5 -1.5t15.5 -11t4 -26.5q-6 -38 -53 -38h-164q-13 0 -21 1.5t-15.5 10.5t-4.5 26zM154 526q-38 19 -24 52t48 33q9 0 21 -6l119 -58 q28 -12 24 -36q-1 -12 -15 -30t-34 -18q-6 0 -20 6z" />
<glyph unicode="&#xed;" horiz-adv-x="292" d="M18 38q7 39 54 39h44l47 282h-39q-12 0 -20.5 1.5t-16.5 11t-5 26.5q7 38 55 38h76q29 0 37 -10t3 -38l-52 -311h34q13 0 21.5 -1.5t15.5 -11t4 -26.5q-6 -38 -53 -38h-164q-13 0 -21 1.5t-15.5 10.5t-4.5 26zM119 511q4 24 36 36l139 58l23 6q18 0 28.5 -12t7.5 -31 q-4 -27 -40 -42l-139 -57q-14 -6 -22 -6q-20 0 -27 17t-6 31z" />
<glyph unicode="&#xee;" horiz-adv-x="292" d="M18 38q7 39 54 39h44l47 282h-39q-12 0 -20.5 1.5t-16.5 11t-5 26.5q7 38 55 38h76q29 0 37 -10t3 -38l-52 -311h34q13 0 21.5 -1.5t15.5 -11t4 -26.5q-6 -38 -53 -38h-164q-13 0 -21 1.5t-15.5 10.5t-4.5 26zM77 502q4 20 23 31l127 72q22 13 40 0l103 -72q24 -18 8 -44 t-41 -26q-8 0 -17 6l-86 58l-106 -58q-9 -6 -19 -6q-16 0 -25.5 12t-6.5 27z" />
<glyph unicode="&#xef;" horiz-adv-x="292" d="M18 38q7 39 54 39h44l47 282h-39q-12 0 -20.5 1.5t-16.5 11t-5 26.5q7 38 55 38h76q29 0 37 -10t3 -38l-52 -311h34q13 0 21.5 -1.5t15.5 -11t4 -26.5q-6 -38 -53 -38h-164q-13 0 -21 1.5t-15.5 10.5t-4.5 26zM100 537q3 21 20 37t41 16q21 0 34 -16t10 -37 q-4 -21 -21 -36.5t-41 -15.5q-21 0 -34 15t-9 37zM267 537q3 21 20 37t41 16q21 0 34 -16t10 -37q-4 -21 -21 -36.5t-41 -15.5q-21 0 -34 15t-9 37z" />
<glyph unicode="&#xf0;" d="M73 219q15 93 92 159.5t171 66.5q73 0 128 -45q5 76 -11 125l-50 -38q-14 -8 -26 -8q-16 0 -25.5 11.5t-7.5 27.5q3 17 19 30l45 32q-22 10 -47 10q-18 0 -28 12.5t-8 29.5q3 18 18 30.5t33 12.5q65 0 106 -39l56 42q14 9 27 9q16 0 25.5 -11.5t6.5 -27.5q-3 -19 -18 -30 l-58 -42q44 -110 4 -357q-15 -89 -91 -157t-173 -68q-93 0 -148.5 65.5t-39.5 159.5zM158 225q-11 -63 23 -108.5t93 -45.5t108 45.5t60 108.5q10 61 -25.5 102t-93.5 41t-106.5 -41t-58.5 -102z" />
<glyph unicode="&#xf1;" horiz-adv-x="583" d="M22 38q7 39 55 39h43l47 282h-43q-13 0 -21.5 1.5t-16 10.5t-4.5 26q7 39 55 39h80q28 0 35.5 -8.5t5.5 -30.5q68 45 142 45q148 0 124 -151l-36 -214h43q14 0 22 -1.5t15 -10.5t4 -27q-6 -38 -54 -38h-172q-13 0 -21 1.5t-15 10.5t-4 27q6 38 53 38h44l35 209 q7 41 -4 60t-53 19q-47 0 -92.5 -31t-56.5 -95l-27 -162h44q13 0 21 -1.5t15 -10.5t4 -27q-6 -38 -53 -38h-172q-13 0 -21.5 1.5t-16 10.5t-4.5 26zM198 510q3 22 61 60q51 34 87 34t66 -35q14 -18 21 -18q18 0 69 40q15 13 31 13q15 0 24.5 -12.5t7.5 -27.5q-3 -22 -61 -60 q-51 -34 -87 -34q-35 0 -66 36q-16 18 -21 18q-17 0 -68 -41q-19 -13 -32 -13q-15 0 -24.5 12.5t-7.5 27.5z" />
<glyph unicode="&#xf2;" d="M73 219q15 93 92 159.5t171 66.5t149 -66.5t40 -159.5q-16 -94 -93.5 -159.5t-170.5 -65.5t-148.5 65.5t-39.5 159.5zM158 225q-11 -63 23 -108.5t93 -45.5t108 45.5t60 108.5q10 61 -25.5 102t-93.5 41t-106.5 -41t-58.5 -102zM273 540q-38 19 -24 52t48 33q9 0 21 -6 l119 -58q28 -12 24 -36q-1 -12 -15 -30t-34 -18q-6 0 -20 6z" />
<glyph unicode="&#xf3;" d="M73 219q15 93 92 159.5t171 66.5t149 -66.5t40 -159.5q-16 -94 -93.5 -159.5t-170.5 -65.5t-148.5 65.5t-39.5 159.5zM158 225q-11 -63 23 -108.5t93 -45.5t108 45.5t60 108.5q10 61 -25.5 102t-93.5 41t-106.5 -41t-58.5 -102zM238 525q4 24 36 36l139 58l23 6 q18 0 28.5 -12t7.5 -31q-4 -27 -40 -42l-139 -57q-14 -6 -22 -6q-20 0 -27 17t-6 31z" />
<glyph unicode="&#xf4;" d="M73 219q15 93 92 159.5t171 66.5t149 -66.5t40 -159.5q-16 -94 -93.5 -159.5t-170.5 -65.5t-148.5 65.5t-39.5 159.5zM158 225q-11 -63 23 -108.5t93 -45.5t108 45.5t60 108.5q10 61 -25.5 102t-93.5 41t-106.5 -41t-58.5 -102zM196 516q4 20 23 31l127 72q22 13 40 0 l103 -72q24 -18 8 -44t-41 -26q-8 0 -17 6l-86 58l-106 -58q-9 -6 -19 -6q-16 0 -25.5 12t-6.5 27z" />
<glyph unicode="&#xf5;" d="M73 219q15 93 92 159.5t171 66.5t149 -66.5t40 -159.5q-16 -94 -93.5 -159.5t-170.5 -65.5t-148.5 65.5t-39.5 159.5zM158 225q-11 -63 23 -108.5t93 -45.5t108 45.5t60 108.5q10 61 -25.5 102t-93.5 41t-106.5 -41t-58.5 -102zM171 524q3 22 61 60q51 34 87 34t66 -35 q14 -18 21 -18q18 0 69 40q15 13 31 13q15 0 24.5 -12.5t7.5 -27.5q-3 -22 -61 -60q-51 -34 -87 -34q-35 0 -66 36q-16 18 -21 18q-17 0 -68 -41q-19 -13 -32 -13q-15 0 -24.5 12.5t-7.5 27.5z" />
<glyph unicode="&#xf6;" d="M73 219q15 93 92 159.5t171 66.5t149 -66.5t40 -159.5q-16 -94 -93.5 -159.5t-170.5 -65.5t-148.5 65.5t-39.5 159.5zM158 225q-11 -63 23 -108.5t93 -45.5t108 45.5t60 108.5q10 61 -25.5 102t-93.5 41t-106.5 -41t-58.5 -102zM219 551q3 21 20 37t41 16q21 0 34 -16 t10 -37q-4 -21 -21 -36.5t-41 -15.5q-21 0 -34 15t-9 37zM386 551q3 21 20 37t41 16q21 0 34 -16t10 -37q-4 -21 -21 -36.5t-41 -15.5q-21 0 -34 15t-9 37z" />
<glyph unicode="&#xf7;" horiz-adv-x="817" d="M110 306q7 43 66 43h580q13 0 23.5 -1.5t21 -12t7.5 -29.5q-7 -43 -60 -43h-592q-8 0 -14.5 1t-16 4.5t-13.5 13t-2 24.5zM374 137q4 24 23 40.5t43 16.5t38 -16.5t10 -40.5t-23.5 -40.5t-43.5 -16.5t-37.5 16.5t-9.5 40.5zM430 475q5 24 24 40.5t43 16.5t37.5 -16.5 t9.5 -40.5t-23 -40.5t-43 -16.5t-38 16.5t-10 40.5z" />
<glyph unicode="&#xf8;" d="M25 -98q1 9 23 41l79 105q-66 69 -48 171q15 93 90.5 159.5t166.5 66.5q34 0 77 -15l89 119q15 23 37 23q13 0 24.5 -10.5t8.5 -27.5q0 -8 -12 -25l-89 -120q63 -73 48 -170q-16 -94 -92 -159.5t-166 -65.5q-40 0 -75 14l-91 -121q-16 -23 -38 -23q-13 0 -24 10.5 t-8 27.5zM150 219q-10 -60 25 -105l186 249q-14 5 -40 5q-60 0 -110.5 -44t-60.5 -105zM239 75q13 -4 37 -4q60 0 111 43t61 105q10 60 -25 104z" />
<glyph unicode="&#xf9;" horiz-adv-x="583" d="M82 397q7 39 55 39h80q30 0 37.5 -10t2.5 -38l-44 -262q-1 -14 -1 -26t17.5 -20.5t54.5 -8.5q16 0 32.5 2.5t39.5 10.5t39.5 28t21.5 49l33 198h-44q-13 0 -21 1.5t-15.5 11t-4.5 26.5q7 38 54 38h81q29 0 37 -10t3 -38l-52 -311h43q14 0 22 -1.5t15 -10.5t4 -27 q-6 -38 -54 -38h-80q-13 0 -20 1t-14 7t-7 19q-58 -33 -132 -33q-27 0 -49 4t-47.5 15.5t-37 38.5t-4.5 68l40 239h-43q-13 0 -21.5 1.5t-16 10.5t-4.5 26zM300 526q-38 19 -24 52t48 33q9 0 21 -6l119 -58q28 -12 24 -36q-1 -12 -15 -30t-34 -18q-6 0 -20 6z" />
<glyph unicode="&#xfa;" horiz-adv-x="583" d="M82 397q7 39 55 39h80q30 0 37.5 -10t2.5 -38l-44 -262q-1 -14 -1 -26t17.5 -20.5t54.5 -8.5q16 0 32.5 2.5t39.5 10.5t39.5 28t21.5 49l33 198h-44q-13 0 -21 1.5t-15.5 11t-4.5 26.5q7 38 54 38h81q29 0 37 -10t3 -38l-52 -311h43q14 0 22 -1.5t15 -10.5t4 -27 q-6 -38 -54 -38h-80q-13 0 -20 1t-14 7t-7 19q-58 -33 -132 -33q-27 0 -49 4t-47.5 15.5t-37 38.5t-4.5 68l40 239h-43q-13 0 -21.5 1.5t-16 10.5t-4.5 26zM265 511q4 24 36 36l139 58l23 6q18 0 28.5 -12t7.5 -31q-4 -27 -40 -42l-139 -57q-14 -6 -22 -6q-20 0 -27 17 t-6 31z" />
<glyph unicode="&#xfb;" horiz-adv-x="583" d="M82 397q7 39 55 39h80q30 0 37.5 -10t2.5 -38l-44 -262q-1 -14 -1 -26t17.5 -20.5t54.5 -8.5q16 0 32.5 2.5t39.5 10.5t39.5 28t21.5 49l33 198h-44q-13 0 -21 1.5t-15.5 11t-4.5 26.5q7 38 54 38h81q29 0 37 -10t3 -38l-52 -311h43q14 0 22 -1.5t15 -10.5t4 -27 q-6 -38 -54 -38h-80q-13 0 -20 1t-14 7t-7 19q-58 -33 -132 -33q-27 0 -49 4t-47.5 15.5t-37 38.5t-4.5 68l40 239h-43q-13 0 -21.5 1.5t-16 10.5t-4.5 26zM223 502q4 20 23 31l127 72q22 13 40 0l103 -72q24 -18 8 -44t-41 -26q-8 0 -17 6l-86 58l-106 -58q-9 -6 -19 -6 q-16 0 -25.5 12t-6.5 27z" />
<glyph unicode="&#xfc;" horiz-adv-x="583" d="M82 397q7 39 55 39h80q30 0 37.5 -10t2.5 -38l-44 -262q-1 -14 -1 -26t17.5 -20.5t54.5 -8.5q16 0 32.5 2.5t39.5 10.5t39.5 28t21.5 49l33 198h-44q-13 0 -21 1.5t-15.5 11t-4.5 26.5q7 38 54 38h81q29 0 37 -10t3 -38l-52 -311h43q14 0 22 -1.5t15 -10.5t4 -27 q-6 -38 -54 -38h-80q-13 0 -20 1t-14 7t-7 19q-58 -33 -132 -33q-27 0 -49 4t-47.5 15.5t-37 38.5t-4.5 68l40 239h-43q-13 0 -21.5 1.5t-16 10.5t-4.5 26zM246 537q3 21 20 37t41 16q21 0 34 -16t10 -37q-4 -21 -21 -36.5t-41 -15.5q-21 0 -34 15t-9 37zM413 537 q3 21 20 37t41 16q21 0 34 -16t10 -37q-4 -21 -21 -36.5t-41 -15.5q-21 0 -34 15t-9 37z" />
<glyph unicode="&#xfd;" horiz-adv-x="554" d="M-3 -133q4 23 19.5 37t39.5 14q21 0 34 -13.5t9 -37.5l-3 -12q30 0 55.5 14t37 28t25.5 35l40 77l-85 350h-34q-13 0 -21.5 1.5t-16.5 11t-5 26.5q7 38 56 38h136q13 0 21 -1.5t15 -10.5t4 -27q-6 -38 -53 -38h-24l58 -257l127 257h-28q-12 0 -20.5 1.5t-16.5 10.5t-5 26 q7 39 55 39h137q13 0 21 -1.5t15 -10.5t4 -27q-6 -38 -53 -38h-33l-221 -434q-28 -56 -83 -101t-119 -45q-45 0 -69.5 26t-18.5 62zM251 511q4 24 36 36l139 58l23 6q18 0 28.5 -12t7.5 -31q-4 -27 -40 -42l-139 -57q-14 -6 -22 -6q-20 0 -27 17t-6 31z" />
<glyph unicode="&#xfe;" horiz-adv-x="583" d="M-14 -178q7 39 54 39h44l112 673h-44q-12 0 -20.5 1.5t-16 10.5t-4.5 26q7 39 54 39h81q29 0 37 -10t3 -39l-27 -163q65 43 139 43q89 0 141 -66t37 -157q-16 -95 -94.5 -160t-169.5 -65q-71 0 -113 46l-30 -179h43q14 0 22 -1.5t15 -10.5t4 -27q-6 -38 -54 -38h-172 q-12 0 -20.5 1.5t-16 10.5t-4.5 26zM226 198q-7 -44 18.5 -85.5t77.5 -41.5q59 0 109.5 42.5t61.5 105.5q9 59 -23 102.5t-90 43.5q-49 0 -92.5 -30t-50.5 -72z" />
<glyph unicode="&#xff;" horiz-adv-x="554" d="M-3 -133q4 23 19.5 37t39.5 14q21 0 34 -13.5t9 -37.5l-3 -12q30 0 55.5 14t37 28t25.5 35l40 77l-85 350h-34q-13 0 -21.5 1.5t-16.5 11t-5 26.5q7 38 56 38h136q13 0 21 -1.5t15 -10.5t4 -27q-6 -38 -53 -38h-24l58 -257l127 257h-28q-12 0 -20.5 1.5t-16.5 10.5t-5 26 q7 39 55 39h137q13 0 21 -1.5t15 -10.5t4 -27q-6 -38 -53 -38h-33l-221 -434q-28 -56 -83 -101t-119 -45q-45 0 -69.5 26t-18.5 62zM232 537q3 21 20 37t41 16q21 0 34 -16t10 -37q-4 -21 -21 -36.5t-41 -15.5q-21 0 -34 15t-9 37zM399 537q3 21 20 37t41 16q21 0 34 -16 t10 -37q-4 -21 -21 -36.5t-41 -15.5q-21 0 -34 15t-9 37z" />
<glyph unicode="&#x100;" horiz-adv-x="758" d="M49 39q6 38 54 38h38l267 508q13 25 28.5 31.5t36.5 6.5h19q15 0 23 -1.5t17 -10.5t12 -27l98 -507h38q14 0 22 -1.5t15 -10.5t4 -27q-6 -38 -54 -38h-154q-13 0 -21.5 1.5t-16 11t-4.5 26.5q6 38 55 38h26l-17 90h-257l-47 -90h26q13 0 21.5 -1.5t16 -11t4.5 -26.5 q-6 -38 -55 -38h-154q-14 0 -22 1.5t-15 10.5t-4 27zM305 703q6 39 54 39h290q14 0 21.5 -1.5t14.5 -11t4 -27.5q-6 -39 -54 -39h-289q-13 0 -21.5 1.5t-15.5 11t-4 27.5zM319 244h201l-54 282z" />
<glyph unicode="&#x101;" horiz-adv-x="510" d="M73 133q11 68 93.5 109t214.5 44q4 42 -22 62t-75 20l-44 -3q-5 -28 -23 -40.5t-37 -12.5q-22 0 -35 14t-9 39q14 80 160 80q98 0 139 -48t31 -111l-34 -204q10 -5 45 -5q12 0 20.5 -1.5t16 -10.5t4.5 -26q-5 -25 -19.5 -32t-43.5 -7q-78 0 -99 28q-62 -34 -142 -34 q-72 0 -111 41.5t-30 97.5zM156 133q-4 -26 17.5 -44t59.5 -18q46 0 80 15q17 7 26.5 17t11.5 16.5t4 19.5l12 72q-100 -4 -152.5 -25t-58.5 -53zM156 552q6 39 53 39h290q14 0 22 -1.5t15 -11t4 -27.5q-7 -39 -54 -39h-289q-13 0 -21.5 1.5t-15.5 11t-4 27.5z" />
<glyph unicode="&#x102;" horiz-adv-x="758" d="M49 39q6 38 54 38h38l267 508q13 25 28.5 31.5t36.5 6.5h19q15 0 23 -1.5t17 -10.5t12 -27l98 -507h38q14 0 22 -1.5t15 -10.5t4 -27q-6 -38 -54 -38h-154q-13 0 -21.5 1.5t-16 11t-4.5 26.5q6 38 55 38h26l-17 90h-257l-47 -90h26q13 0 21.5 -1.5t16 -11t4.5 -26.5 q-6 -38 -55 -38h-154q-14 0 -22 1.5t-15 10.5t-4 27zM319 244h201l-54 282zM323 741q7 39 46 39q32 0 32 -35q2 -12 101 -12t105 12q4 11 7.5 16.5t13 12t23.5 6.5q39 0 32 -39q-5 -30 -25.5 -49t-53 -27t-57 -10t-58.5 -2q-26 0 -45.5 1t-46 6t-42.5 13.5t-26 26t-6 41.5z " />
<glyph unicode="&#x103;" horiz-adv-x="510" d="M73 133q11 68 93.5 109t214.5 44q4 42 -22 62t-75 20l-44 -3q-5 -28 -23 -40.5t-37 -12.5q-22 0 -35 14t-9 39q14 80 160 80q98 0 139 -48t31 -111l-34 -204q10 -5 45 -5q12 0 20.5 -1.5t16 -10.5t4.5 -26q-5 -25 -19.5 -32t-43.5 -7q-78 0 -99 28q-62 -34 -142 -34 q-72 0 -111 41.5t-30 97.5zM156 133q-4 -26 17.5 -44t59.5 -18q46 0 80 15q17 7 26.5 17t11.5 16.5t4 19.5l12 72q-100 -4 -152.5 -25t-58.5 -53zM172 576q3 18 15 28.5t30 10.5q32 0 32 -35q2 -12 101 -12t105 12q4 11 7.5 16.5t13 12t23.5 6.5q39 0 33 -39 q-5 -30 -25.5 -49t-53.5 -26.5t-57.5 -10t-58.5 -2.5q-26 0 -45 1t-45.5 6t-42.5 13.5t-26 26t-6 41.5z" />
<glyph unicode="&#x104;" horiz-adv-x="758" d="M49 39q6 38 54 38h38l267 508q13 25 28.5 31.5t36.5 6.5h19q15 0 23 -1.5t17 -10.5t12 -27l98 -507h38q14 0 22 -1.5t15 -10.5t4 -27q-6 -38 -54 -38h-49q-64 -34 -74 -98q-2 -13 7.5 -21t21.5 -8q10 0 20 7q45 38 57 41q13 3 22 -9q8 -11 7.5 -25.5t-8.5 -22.5 q-54 -61 -114 -61q-47 0 -71 31.5t-17 69.5q8 55 61 96h-17q-13 0 -21.5 1.5t-16 11t-4.5 26.5q6 38 55 38h26l-17 90h-257l-47 -90h26q13 0 21.5 -1.5t16 -11t4.5 -26.5q-6 -38 -55 -38h-154q-14 0 -22 1.5t-15 10.5t-4 27zM319 244h201l-54 282z" />
<glyph unicode="&#x105;" horiz-adv-x="510" d="M73 133q11 68 93.5 109t214.5 44q4 42 -22 62t-75 20l-44 -3q-5 -28 -23 -40.5t-37 -12.5q-22 0 -35 14t-9 39q14 80 160 80q98 0 139 -48t31 -111l-34 -204q10 -5 45 -5q12 0 20.5 -1.5t16 -10.5t4.5 -26q-4 -25 -18.5 -32t-42.5 -7q-16 0 -25 -5q-30 -18 -51 -43.5 t-25 -49.5q-2 -12 8 -20.5t21 -8.5t21 7q45 38 57 41q13 3 22 -9q8 -11 7.5 -25t-8.5 -23q-54 -61 -115 -61q-47 0 -70.5 31.5t-16.5 69.5q5 31 29 61t57 52q-7 4 -12 11q-62 -34 -142 -34q-72 0 -111 41.5t-30 97.5zM156 133q-4 -26 17.5 -44t59.5 -18q46 0 80 15 q17 7 26.5 17t11.5 16.5t4 19.5l12 72q-100 -4 -152.5 -25t-58.5 -53z" />
<glyph unicode="&#x106;" horiz-adv-x="758" d="M109 306q21 128 137.5 222t264.5 94q122 0 193 -56q10 17 18 27q18 29 43 29q37 0 30 -49l-23 -135q-3 -16 -6 -24t-14 -16t-31 -8q-34 0 -36 29q-5 62 -53 94q-50 32 -127 32q-114 0 -204.5 -71t-106.5 -168q-16 -98 50 -169t183 -71q82 0 138 26q29 13 47.5 31t23 28 t8.5 26q8 36 48 36q42 0 36 -41q-13 -79 -100.5 -131t-220.5 -52q-150 0 -235 94.5t-63 222.5zM423 701q2 15 10.5 22.5t25.5 13.5l138 58l23 6q18 0 28.5 -12t7.5 -31q-4 -27 -40 -42l-138 -57q-16 -6 -22 -6q-20 0 -27.5 18t-5.5 30z" />
<glyph unicode="&#x107;" horiz-adv-x="467" d="M78 219q6 36 24.5 73t50 72.5t83 58t113.5 22.5q19 0 34.5 -1t38.5 -5.5t37.5 -12.5t24 -23.5t5.5 -37.5q-4 -24 -21.5 -38.5t-39.5 -14.5q-49 0 -42 56h-50q-43 0 -77.5 -16.5t-54 -42t-29.5 -48t-13 -42.5q-10 -62 25 -105t94 -43q66 0 97 53q9 17 18.5 22t25.5 5 q8 0 15.5 -1.5t16 -10t5.5 -24.5q-2 -10 -13 -27t-32.5 -39.5t-61.5 -38.5t-90 -16q-94 0 -147 66t-37 159zM233 525q4 24 36 36l139 58l23 6q18 0 28.5 -12t7.5 -31q-4 -27 -40 -42l-139 -57q-14 -6 -22 -6q-20 0 -27 17t-6 31z" />
<glyph unicode="&#x108;" horiz-adv-x="758" d="M109 306q21 128 137.5 222t264.5 94q122 0 193 -56q10 17 18 27q18 29 43 29q37 0 30 -49l-23 -135q-3 -16 -6 -24t-14 -16t-31 -8q-34 0 -36 29q-5 62 -53 94q-50 32 -127 32q-114 0 -204.5 -71t-106.5 -168q-16 -98 50 -169t183 -71q82 0 138 26q29 13 47.5 31t23 28 t8.5 26q8 36 48 36q42 0 36 -41q-13 -79 -100.5 -131t-220.5 -52q-150 0 -235 94.5t-63 222.5zM379 681q5 25 32 35l121 42q14 3 25 0l107 -42q20 -7 20.5 -25t-13 -33t-30.5 -15q-8 0 -13 2l-97 31l-109 -31q-5 -2 -13 -2q-15 0 -23.5 12t-6.5 26z" />
<glyph unicode="&#x109;" horiz-adv-x="467" d="M78 219q6 36 24.5 73t50 72.5t83 58t113.5 22.5q19 0 34.5 -1t38.5 -5.5t37.5 -12.5t24 -23.5t5.5 -37.5q-4 -24 -21.5 -38.5t-39.5 -14.5q-49 0 -42 56h-50q-43 0 -77.5 -16.5t-54 -42t-29.5 -48t-13 -42.5q-10 -62 25 -105t94 -43q66 0 97 53q9 17 18.5 22t25.5 5 q8 0 15.5 -1.5t16 -10t5.5 -24.5q-2 -10 -13 -27t-32.5 -39.5t-61.5 -38.5t-90 -16q-94 0 -147 66t-37 159zM191 516q4 20 23 31l127 72q22 13 40 0l103 -72q24 -18 8 -44t-41 -26q-8 0 -17 6l-86 58l-106 -58q-9 -6 -19 -6q-16 0 -25.5 12t-6.5 27z" />
<glyph unicode="&#x10a;" horiz-adv-x="758" d="M109 306q21 128 137.5 222t264.5 94q122 0 193 -56q10 17 18 27q18 29 43 29q37 0 30 -49l-23 -135q-3 -16 -6 -24t-14 -16t-31 -8q-34 0 -36 29q-5 62 -53 94q-50 32 -127 32q-114 0 -204.5 -71t-106.5 -168q-16 -98 50 -169t183 -71q82 0 138 26q29 13 47.5 31t23 28 t8.5 26q8 36 48 36q42 0 36 -41q-13 -79 -100.5 -131t-220.5 -52q-150 0 -235 94.5t-63 222.5zM478 711q3 23 22.5 40t44.5 17q23 0 37.5 -17t10.5 -40q-4 -22 -23.5 -39.5t-44.5 -17.5q-23 0 -37 17t-10 40z" />
<glyph unicode="&#x10b;" horiz-adv-x="467" d="M78 219q6 36 24.5 73t50 72.5t83 58t113.5 22.5q19 0 34.5 -1t38.5 -5.5t37.5 -12.5t24 -23.5t5.5 -37.5q-4 -24 -21.5 -38.5t-39.5 -14.5q-49 0 -42 56h-50q-43 0 -77.5 -16.5t-54 -42t-29.5 -48t-13 -42.5q-10 -62 25 -105t94 -43q66 0 97 53q9 17 18.5 22t25.5 5 q8 0 15.5 -1.5t16 -10t5.5 -24.5q-2 -10 -13 -27t-32.5 -39.5t-61.5 -38.5t-90 -16q-94 0 -147 66t-37 159zM292 551q3 23 22.5 40t44.5 17q23 0 37.5 -17t10.5 -40q-4 -22 -23.5 -39.5t-44.5 -17.5q-23 0 -37 17t-10 40z" />
<glyph unicode="&#x10c;" horiz-adv-x="758" d="M109 306q21 128 137.5 222t264.5 94q122 0 193 -56q10 17 18 27q18 29 43 29q37 0 30 -49l-23 -135q-3 -16 -6 -24t-14 -16t-31 -8q-34 0 -36 29q-5 62 -53 94q-50 32 -127 32q-114 0 -204.5 -71t-106.5 -168q-16 -98 50 -169t183 -71q82 0 138 26q29 13 47.5 31t23 28 t8.5 26q8 36 48 36q42 0 36 -41q-13 -79 -100.5 -131t-220.5 -52q-150 0 -235 94.5t-63 222.5zM405 687q-19 7 -20 25t13 33t31 15q8 0 12 -2l98 -31l108 31q6 2 14 2q15 0 23 -12t6 -26q-4 -25 -32 -35l-121 -42q-13 -3 -25 0z" />
<glyph unicode="&#x10d;" horiz-adv-x="467" d="M78 219q6 36 24.5 73t50 72.5t83 58t113.5 22.5q19 0 34.5 -1t38.5 -5.5t37.5 -12.5t24 -23.5t5.5 -37.5q-4 -24 -21.5 -38.5t-39.5 -14.5q-49 0 -42 56h-50q-43 0 -77.5 -16.5t-54 -42t-29.5 -48t-13 -42.5q-10 -62 25 -105t94 -43q66 0 97 53q9 17 18.5 22t25.5 5 q8 0 15.5 -1.5t16 -10t5.5 -24.5q-2 -10 -13 -27t-32.5 -39.5t-61.5 -38.5t-90 -16q-94 0 -147 66t-37 159zM202 586q3 15 16.5 27t29.5 12q10 0 17 -6l86 -58l106 58q10 6 19 6q16 0 25.5 -12t6.5 -27q-2 -20 -23 -31l-127 -72q-22 -13 -40 0l-103 72q-15 11 -13 31z" />
<glyph unicode="&#x10e;" horiz-adv-x="788" d="M53 38q7 39 55 39h43l76 457h-43q-13 0 -21.5 1.5t-16 10.5t-4.5 26q7 39 55 39h312q132 0 211 -91.5t57 -219.5q-20 -123 -128.5 -211.5t-241.5 -88.5h-312q-13 0 -21.5 1.5t-16 10.5t-4.5 26zM237 77h167q106 0 190.5 65.5t99.5 158.5q16 94 -45 163.5t-170 69.5h-166z M287 687q-19 7 -20 25t13 33t31 15q8 0 12 -2l98 -31l108 31q6 2 14 2q15 0 23 -12t6 -26q-4 -25 -32 -35l-121 -42q-13 -3 -25 0z" />
<glyph unicode="&#x10f;" horiz-adv-x="583" d="M79 218q16 93 93.5 158.5t170.5 65.5q67 0 114 -40l22 132h-43q-14 0 -22 1.5t-15 10.5t-4 27q6 38 54 38h80q30 0 37.5 -10t2.5 -39l-81 -485h44q13 0 21 -1.5t15 -10.5t4 -27q-6 -38 -53 -38h-81q-28 0 -36 9t-4 35q-67 -50 -141 -50q-88 0 -140.5 65.5t-37.5 158.5z M162 218q-10 -60 22.5 -103.5t89.5 -43.5q54 0 97.5 42t50.5 87l11 64q7 40 -22.5 70.5t-76.5 30.5q-60 0 -111 -42.5t-61 -104.5zM589 451q1 9 7.5 16t28.5 26q13 15 17 29q-33 8 -27 45q3 18 17.5 31t34.5 13q23 0 35.5 -18t6.5 -55q-8 -48 -41.5 -83t-51.5 -35 q-13 0 -21 10t-6 21z" />
<glyph unicode="&#x110;" horiz-adv-x="788" d="M53 38q7 39 55 39h43l32 190h-48q-17 0 -26.5 11t-6.5 28q3 16 16.5 27.5t29.5 11.5h48l31 189h-43q-13 0 -21.5 1.5t-16 10.5t-4.5 26q7 39 55 39h312q132 0 211 -91.5t57 -219.5q-20 -123 -128.5 -211.5t-241.5 -88.5h-312q-13 0 -21.5 1.5t-16 10.5t-4.5 26zM237 77 h167q106 0 190.5 65.5t99.5 158.5q16 94 -45 163.5t-170 69.5h-166l-31 -189h171q16 0 25.5 -11.5t6.5 -27.5q-3 -17 -16 -28t-29 -11h-171z" />
<glyph unicode="&#x111;" horiz-adv-x="583" d="M79 218q16 93 93.5 158.5t170.5 65.5q67 0 114 -40l9 54h-155q-18 0 -27.5 7t-6.5 22q4 29 44 29h155l3 20h-43q-14 0 -22 1.5t-15 10.5t-4 27q6 38 54 38h80q30 0 37.5 -10t2.5 -39l-8 -48h49q37 0 33 -29q-5 -29 -43 -29h-49l-63 -379h44q13 0 21 -1.5t15 -10.5t4 -27 q-6 -38 -53 -38h-81q-28 0 -36 9t-4 35q-67 -50 -141 -50q-88 0 -140.5 65.5t-37.5 158.5zM162 218q-10 -60 22.5 -103.5t89.5 -43.5q54 0 97.5 42t50.5 87l11 64q7 40 -22.5 70.5t-76.5 30.5q-60 0 -111 -42.5t-61 -104.5z" />
<glyph unicode="&#x112;" horiz-adv-x="700" d="M52 38q7 39 55 39h43l76 457h-43q-12 0 -20.5 1.5t-16.5 10.5t-5 26q7 39 55 39h500q29 0 37 -10t3 -39l-12 -70q-3 -16 -6 -24.5t-14 -16.5t-31 -8q-19 0 -28 7.5t-8 18.5t2 23l7 42h-335l-30 -179h176q6 32 15.5 43.5t36.5 11.5q19 0 27.5 -7.5t7.5 -18.5t-2 -23 l-15 -90q-3 -15 -5.5 -23.5t-13.5 -17t-30 -8.5q-27 0 -33 11.5t-1 44.5h-176l-33 -201h363l10 58q3 16 6 24.5t14 16.5t31 8q19 0 27.5 -7.5t8 -18.5t-1.5 -23l-15 -86q-5 -29 -16 -39t-40 -10h-528q-13 0 -21 1.5t-16 10.5t-5 26zM276 703q6 39 54 39h290q14 0 21.5 -1.5 t14.5 -11t4 -27.5q-6 -39 -54 -39h-289q-13 0 -21.5 1.5t-15.5 11t-4 27.5z" />
<glyph unicode="&#x113;" horiz-adv-x="467" d="M72 221q15 92 88 158t162 66q91 0 131.5 -60.5t24.5 -154.5q-3 -21 -12.5 -31t-17.5 -11.5t-25 -1.5h-269q4 -52 39.5 -83.5t86.5 -31.5q67 0 98 53q9 17 18.5 22t25.5 5q8 0 15.5 -1.5t16 -10t5.5 -24.5q-5 -32 -59 -76.5t-139 -44.5q-95 0 -150 66t-39 161zM134 552 q6 39 53 39h290q14 0 22 -1.5t15 -11t4 -27.5q-7 -39 -54 -39h-289q-13 0 -21.5 1.5t-15.5 11t-4 27.5zM169 261h228q3 59 -23 83t-65 24q-43 0 -82 -30t-58 -77z" />
<glyph unicode="&#x114;" horiz-adv-x="700" d="M52 38q7 39 55 39h43l76 457h-43q-12 0 -20.5 1.5t-16.5 10.5t-5 26q7 39 55 39h500q29 0 37 -10t3 -39l-12 -70q-3 -16 -6 -24.5t-14 -16.5t-31 -8q-19 0 -28 7.5t-8 18.5t2 23l7 42h-335l-30 -179h176q6 32 15.5 43.5t36.5 11.5q19 0 27.5 -7.5t7.5 -18.5t-2 -23 l-15 -90q-3 -15 -5.5 -23.5t-13.5 -17t-30 -8.5q-27 0 -33 11.5t-1 44.5h-176l-33 -201h363l10 58q3 16 6 24.5t14 16.5t31 8q19 0 27.5 -7.5t8 -18.5t-1.5 -23l-15 -86q-5 -29 -16 -39t-40 -10h-528q-13 0 -21 1.5t-16 10.5t-5 26zM294 741q3 18 15.5 28.5t30.5 10.5 q32 0 32 -35q2 -12 101 -12t105 12q4 11 7.5 16.5t13 12t23.5 6.5q38 0 32 -39q-5 -30 -25.5 -49t-53 -27t-57 -10t-58.5 -2q-26 0 -45.5 1t-46 6t-42.5 13.5t-26 26t-6 41.5z" />
<glyph unicode="&#x115;" horiz-adv-x="467" d="M72 221q15 92 88 158t162 66q91 0 131.5 -60.5t24.5 -154.5q-3 -21 -12.5 -31t-17.5 -11.5t-25 -1.5h-269q4 -52 39.5 -83.5t86.5 -31.5q67 0 98 53q9 17 18.5 22t25.5 5q8 0 15.5 -1.5t16 -10t5.5 -24.5q-5 -32 -59 -76.5t-139 -44.5q-95 0 -150 66t-39 161zM150 576 q3 18 15 28.5t30 10.5q32 0 32 -35q2 -12 101 -12t105 12q4 11 7.5 16.5t13 12t23.5 6.5q39 0 33 -39q-5 -30 -25.5 -49t-53.5 -26.5t-57.5 -10t-58.5 -2.5q-26 0 -45 1t-45.5 6t-42.5 13.5t-26 26t-6 41.5zM169 261h228q3 59 -23 83t-65 24q-43 0 -82 -30t-58 -77z" />
<glyph unicode="&#x116;" horiz-adv-x="700" d="M52 38q7 39 55 39h43l76 457h-43q-12 0 -20.5 1.5t-16.5 10.5t-5 26q7 39 55 39h500q29 0 37 -10t3 -39l-12 -70q-3 -16 -6 -24.5t-14 -16.5t-31 -8q-19 0 -28 7.5t-8 18.5t2 23l7 42h-335l-30 -179h176q6 32 15.5 43.5t36.5 11.5q19 0 27.5 -7.5t7.5 -18.5t-2 -23 l-15 -90q-3 -15 -5.5 -23.5t-13.5 -17t-30 -8.5q-27 0 -33 11.5t-1 44.5h-176l-33 -201h363l10 58q3 16 6 24.5t14 16.5t31 8q19 0 27.5 -7.5t8 -18.5t-1.5 -23l-15 -86q-5 -29 -16 -39t-40 -10h-528q-13 0 -21 1.5t-16 10.5t-5 26zM411 711q3 23 22.5 40t44.5 17 q23 0 37.5 -17t10.5 -40q-4 -22 -23.5 -39.5t-44.5 -17.5q-23 0 -37 17t-10 40z" />
<glyph unicode="&#x117;" horiz-adv-x="467" d="M72 221q15 92 88 158t162 66q91 0 131.5 -60.5t24.5 -154.5q-3 -21 -12.5 -31t-17.5 -11.5t-25 -1.5h-269q4 -52 39.5 -83.5t86.5 -31.5q67 0 98 53q9 17 18.5 22t25.5 5q8 0 15.5 -1.5t16 -10t5.5 -24.5q-5 -32 -59 -76.5t-139 -44.5q-95 0 -150 66t-39 161zM169 261 h228q3 59 -23 83t-65 24q-43 0 -82 -30t-58 -77zM268 551q3 23 22.5 40t44.5 17q23 0 37.5 -17t10.5 -40q-4 -22 -23.5 -39.5t-44.5 -17.5q-23 0 -37 17t-10 40z" />
<glyph unicode="&#x118;" horiz-adv-x="700" d="M52 38q7 39 55 39h43l76 457h-43q-12 0 -20.5 1.5t-16.5 10.5t-5 26q7 39 55 39h500q29 0 37 -10t3 -39l-12 -70q-3 -16 -6 -24.5t-14 -16.5t-31 -8q-19 0 -28 7.5t-8 18.5t2 23l7 42h-335l-30 -179h176q6 32 15.5 43.5t36.5 11.5q19 0 27.5 -7.5t7.5 -18.5t-2 -23 l-15 -90q-3 -15 -5.5 -23.5t-13.5 -17t-30 -8.5q-27 0 -33 11.5t-1 44.5h-176l-33 -201h363l10 58q3 16 6 24.5t14 16.5t31 8q19 0 27.5 -7.5t8 -18.5t-1.5 -23l-15 -86q-5 -29 -16 -39t-40 -10h-63q-64 -34 -74 -98q-2 -13 7.5 -21t21.5 -8q10 0 21 7q46 39 58 41 q12 1 20 -9q9 -11 8.5 -25t-9.5 -23q-54 -61 -114 -61q-47 0 -71 31.5t-17 69.5q9 55 62 96h-378q-13 0 -21 1.5t-16 10.5t-5 26z" />
<glyph unicode="&#x119;" horiz-adv-x="467" d="M72 221q15 92 88 158t162 66q91 0 131.5 -60.5t24.5 -154.5q-3 -21 -12.5 -31t-17.5 -11.5t-25 -1.5h-269q4 -52 39.5 -83.5t86.5 -31.5q67 0 98 53q9 17 18.5 22t25.5 5q8 0 15.5 -1.5t16 -10t5.5 -24.5q-4 -31 -47.5 -68.5t-108.5 -51.5q-38 -20 -53.5 -41t-20.5 -52 q-2 -13 7.5 -21t21.5 -8q10 0 21 7q46 39 58 41t20 -9q9 -11 8.5 -25t-9.5 -23q-54 -61 -114 -61q-47 0 -71 31.5t-17 69.5q10 58 60 96q-75 16 -115 78t-27 143zM169 261h228q3 59 -23 83t-65 24q-43 0 -82 -30t-58 -77z" />
<glyph unicode="&#x11a;" horiz-adv-x="700" d="M52 38q7 39 55 39h43l76 457h-43q-12 0 -20.5 1.5t-16.5 10.5t-5 26q7 39 55 39h500q29 0 37 -10t3 -39l-12 -70q-3 -16 -6 -24.5t-14 -16.5t-31 -8q-19 0 -28 7.5t-8 18.5t2 23l7 42h-335l-30 -179h176q6 32 15.5 43.5t36.5 11.5q19 0 27.5 -7.5t7.5 -18.5t-2 -23 l-15 -90q-3 -15 -5.5 -23.5t-13.5 -17t-30 -8.5q-27 0 -33 11.5t-1 44.5h-176l-33 -201h363l10 58q3 16 6 24.5t14 16.5t31 8q19 0 27.5 -7.5t8 -18.5t-1.5 -23l-15 -86q-5 -29 -16 -39t-40 -10h-528q-13 0 -21 1.5t-16 10.5t-5 26zM338 687q-19 7 -20 25t13 33t31 15 q8 0 12 -2l98 -31l108 31q6 2 14 2q15 0 23 -12t6 -26q-4 -25 -32 -35l-121 -42q-12 -3 -25 0z" />
<glyph unicode="&#x11b;" horiz-adv-x="467" d="M72 221q15 92 88 158t162 66q91 0 131.5 -60.5t24.5 -154.5q-3 -21 -12.5 -31t-17.5 -11.5t-25 -1.5h-269q4 -52 39.5 -83.5t86.5 -31.5q67 0 98 53q9 17 18.5 22t25.5 5q8 0 15.5 -1.5t16 -10t5.5 -24.5q-5 -32 -59 -76.5t-139 -44.5q-95 0 -150 66t-39 161zM169 261 h228q3 59 -23 83t-65 24q-43 0 -82 -30t-58 -77zM178 586q3 15 16.5 27t29.5 12q10 0 17 -6l86 -58l106 58q11 6 19 6q16 0 25.5 -12t6.5 -27q-2 -20 -23 -31l-127 -72q-22 -13 -40 0l-103 72q-15 11 -13 31z" />
<glyph unicode="&#x11c;" horiz-adv-x="817" d="M110 306q21 128 137.5 222t264.5 94q122 0 193 -56q4 7 10 15.5t8 11.5q18 29 43 29q37 0 30 -49l-23 -135q-3 -16 -6 -24t-14 -16t-31 -8q-34 0 -36 29q-5 62 -53 94q-50 32 -127 32q-114 0 -204 -70.5t-107 -169.5q-17 -98 50 -168.5t177 -70.5q72 0 133.5 38t88.5 99 h-75q-13 0 -21 1.5t-15.5 10.5t-4.5 27q6 38 54 38h187q13 0 21.5 -1.5t16 -11t4.5 -26.5q-6 -38 -55 -38h-22l-26 -154q-2 -11 -4 -17.5t-7 -15t-14.5 -12.5t-24.5 -4q-20 0 -29 7.5t-8 18.5t2 23l3 15q-99 -75 -222 -75q-143 0 -229.5 93t-64.5 224zM370 681q5 25 32 35 l121 42q14 3 25 0l107 -42q20 -7 20.5 -25t-13 -33t-30.5 -15q-8 0 -13 2l-97 31l-109 -31q-5 -2 -13 -2q-15 0 -23.5 12t-6.5 26z" />
<glyph unicode="&#x11d;" d="M15 -71q14 78 89 123q-13 31 -7 67q7 40 28 66q-22 40 -14 93q11 66 68.5 115t128.5 49q50 0 89 -27q52 32 109 32q41 0 57.5 -19t11.5 -42q-3 -24 -20.5 -36.5t-35.5 -12.5q-11 0 -23 7.5t-15 24.5q-19 -2 -40 -10q16 -37 8 -81q-11 -68 -68.5 -116.5t-127.5 -48.5 q-44 0 -79 20l-4 -14q-2 -19 4 -30q7 -10 25 -10q7 -2 27 -2h68q90 0 140 -29q33 -19 45 -52.5t6 -66.5q-10 -64 -86 -107.5t-174 -43.5t-159 43t-51 108zM89 -71q-5 -31 38 -53.5t110 -22.5t118 22.5t56 53.5q3 18 -2 31.5t-20 21.5t-29 12.5t-39.5 6.5t-40.5 2.5t-43 0.5 q-53 0 -68.5 -2t-33.5 -12q-39 -23 -46 -61zM160 518q4 20 23 31l127 72q22 13 40 0l103 -72q24 -18 8 -44t-41 -26q-8 0 -17 6l-86 58l-106 -58q-9 -6 -19 -6q-16 0 -25.5 12t-6.5 27zM194 277q-6 -36 14.5 -62.5t55.5 -26.5t64.5 26.5t35.5 63.5q6 36 -14 62t-56 26 q-35 0 -64 -26t-36 -63z" />
<glyph unicode="&#x11e;" horiz-adv-x="817" d="M110 306q21 128 137.5 222t264.5 94q122 0 193 -56q4 7 10 15.5t8 11.5q18 29 43 29q37 0 30 -49l-23 -135q-3 -16 -6 -24t-14 -16t-31 -8q-34 0 -36 29q-5 62 -53 94q-50 32 -127 32q-114 0 -204 -70.5t-107 -169.5q-17 -98 50 -168.5t177 -70.5q72 0 133.5 38t88.5 99 h-75q-13 0 -21 1.5t-15.5 10.5t-4.5 27q6 38 54 38h187q13 0 21.5 -1.5t16 -11t4.5 -26.5q-6 -38 -55 -38h-22l-26 -154q-2 -11 -4 -17.5t-7 -15t-14.5 -12.5t-24.5 -4q-20 0 -29 7.5t-8 18.5t2 23l3 15q-99 -75 -222 -75q-143 0 -229.5 93t-64.5 224zM352 741 q3 18 15.5 28.5t30.5 10.5q32 0 32 -35q2 -12 101 -12t105 12q4 11 7.5 16.5t13 12t23.5 6.5q38 0 32 -39q-5 -30 -25.5 -49t-53 -27t-57 -10t-58.5 -2q-26 0 -45.5 1t-46 6t-42.5 13.5t-26 26t-6 41.5z" />
<glyph unicode="&#x11f;" d="M15 -71q14 78 89 123q-13 31 -7 67q7 40 28 66q-22 40 -14 93q11 66 68.5 115t128.5 49q50 0 89 -27q52 32 109 32q41 0 57.5 -19t11.5 -42q-3 -24 -20.5 -36.5t-35.5 -12.5q-11 0 -23 7.5t-15 24.5q-19 -2 -40 -10q16 -37 8 -81q-11 -68 -68.5 -116.5t-127.5 -48.5 q-44 0 -79 20l-4 -14q-2 -19 4 -30q7 -10 25 -10q7 -2 27 -2h68q90 0 140 -29q33 -19 45 -52.5t6 -66.5q-10 -64 -86 -107.5t-174 -43.5t-159 43t-51 108zM89 -71q-5 -31 38 -53.5t110 -22.5t118 22.5t56 53.5q3 18 -2 31.5t-20 21.5t-29 12.5t-39.5 6.5t-40.5 2.5t-43 0.5 q-53 0 -68.5 -2t-33.5 -12q-39 -23 -46 -61zM143 578q7 39 45 39q32 0 32 -35q2 -12 101 -12t105 12q4 11 7.5 16.5t13 12t23.5 6.5q19 0 27.5 -10.5t5.5 -28.5q-5 -30 -25.5 -49t-53.5 -26.5t-57.5 -10t-58.5 -2.5q-26 0 -45 1t-45.5 6t-42.5 13.5t-26 26t-6 41.5zM194 277 q-6 -36 14.5 -62.5t55.5 -26.5t64.5 26.5t35.5 63.5q6 36 -14 62t-56 26q-35 0 -64 -26t-36 -63z" />
<glyph unicode="&#x120;" horiz-adv-x="817" d="M110 306q21 128 137.5 222t264.5 94q122 0 193 -56q4 7 10 15.5t8 11.5q18 29 43 29q37 0 30 -49l-23 -135q-3 -16 -6 -24t-14 -16t-31 -8q-34 0 -36 29q-5 62 -53 94q-50 32 -127 32q-114 0 -204 -70.5t-107 -169.5q-17 -98 50 -168.5t177 -70.5q72 0 133.5 38t88.5 99 h-75q-13 0 -21 1.5t-15.5 10.5t-4.5 27q6 38 54 38h187q13 0 21.5 -1.5t16 -11t4.5 -26.5q-6 -38 -55 -38h-22l-26 -154q-2 -11 -4 -17.5t-7 -15t-14.5 -12.5t-24.5 -4q-20 0 -29 7.5t-8 18.5t2 23l3 15q-99 -75 -222 -75q-143 0 -229.5 93t-64.5 224zM469 711q3 23 22.5 40 t44.5 17q23 0 37.5 -17t10.5 -40q-4 -22 -23.5 -39.5t-44.5 -17.5q-23 0 -37 17t-10 40z" />
<glyph unicode="&#x121;" d="M15 -71q14 78 89 123q-13 31 -7 67q7 40 28 66q-22 40 -14 93q11 66 68.5 115t128.5 49q50 0 89 -27q52 32 109 32q41 0 57.5 -19t11.5 -42q-3 -24 -20.5 -36.5t-35.5 -12.5q-11 0 -23 7.5t-15 24.5q-19 -2 -40 -10q16 -37 8 -81q-11 -68 -68.5 -116.5t-127.5 -48.5 q-44 0 -79 20l-4 -14q-2 -19 4 -30q7 -10 25 -10q7 -2 27 -2h68q90 0 140 -29q33 -19 45 -52.5t6 -66.5q-10 -64 -86 -107.5t-174 -43.5t-159 43t-51 108zM89 -71q-5 -31 38 -53.5t110 -22.5t118 22.5t56 53.5q3 18 -2 31.5t-20 21.5t-29 12.5t-39.5 6.5t-40.5 2.5t-43 0.5 q-53 0 -68.5 -2t-33.5 -12q-39 -23 -46 -61zM194 277q-6 -36 14.5 -62.5t55.5 -26.5t64.5 26.5t35.5 63.5q6 36 -14 62t-56 26q-35 0 -64 -26t-36 -63zM261 553q3 23 22.5 40t44.5 17q23 0 37.5 -17t10.5 -40q-4 -22 -23.5 -39.5t-44.5 -17.5q-23 0 -37 17t-10 40z" />
<glyph unicode="&#x122;" horiz-adv-x="817" d="M110 306q21 128 137.5 222t264.5 94q122 0 193 -56q4 7 10 15.5t8 11.5q18 29 43 29q37 0 30 -49l-23 -135q-3 -16 -6 -24t-14 -16t-31 -8q-34 0 -36 29q-5 62 -53 94q-50 32 -127 32q-114 0 -204 -70.5t-107 -169.5q-17 -98 50 -168.5t177 -70.5q72 0 133.5 38t88.5 99 h-75q-13 0 -21 1.5t-15.5 10.5t-4.5 27q6 38 54 38h187q13 0 21.5 -1.5t16 -11t4.5 -26.5q-6 -38 -55 -38h-22l-26 -154q-2 -11 -4 -17.5t-7 -15t-14.5 -12.5t-24.5 -4q-20 0 -29 7.5t-8 18.5t2 23l3 15q-99 -75 -222 -75q-143 0 -229.5 93t-64.5 224zM327 -175q1 9 7.5 16 t28.5 26q10 11 17 29q-34 8 -28 45q3 18 17.5 31t34.5 13q23 0 35.5 -18t6.5 -55q-8 -48 -41 -83t-51 -35q-13 0 -21 10t-6 21z" />
<glyph unicode="&#x123;" d="M15 -71q14 78 89 123q-13 31 -7 67q7 40 28 66q-22 40 -14 93q11 66 68.5 115t128.5 49q50 0 89 -27q52 32 109 32q41 0 57.5 -19t11.5 -42q-3 -24 -20.5 -36.5t-35.5 -12.5q-11 0 -23 7.5t-15 24.5q-19 -2 -40 -10q16 -37 8 -81q-11 -68 -68.5 -116.5t-127.5 -48.5 q-44 0 -79 20l-4 -14q-2 -19 4 -30q7 -10 25 -10q7 -2 27 -2h68q90 0 140 -29q33 -19 45 -52.5t6 -66.5q-10 -64 -86 -107.5t-174 -43.5t-159 43t-51 108zM89 -71q-5 -31 38 -53.5t110 -22.5t118 22.5t56 53.5q3 18 -2 31.5t-20 21.5t-29 12.5t-39.5 6.5t-40.5 2.5t-43 0.5 q-53 0 -68.5 -2t-33.5 -12q-39 -23 -46 -61zM194 277q-6 -36 14.5 -62.5t55.5 -26.5t64.5 26.5t35.5 63.5q6 36 -14 62t-56 26q-35 0 -64 -26t-36 -63zM263 533q8 48 41.5 83t51.5 35q13 0 20.5 -10.5t5.5 -20.5q-1 -9 -7.5 -16t-28.5 -26q-13 -15 -16 -29q33 -8 27 -45 q-3 -18 -17.5 -31t-34.5 -13q-23 0 -35.5 18t-6.5 55z" />
<glyph unicode="&#x124;" horiz-adv-x="758" d="M53 38q7 39 54 39h44l76 457h-44q-12 0 -20.5 1.5t-16 10.5t-4.5 26q7 39 54 39h172q14 0 22 -1.5t15 -10.5t4 -27q-6 -38 -54 -38h-43l-30 -178h311l30 178h-43q-13 0 -21.5 1.5t-16 10.5t-4.5 26q7 39 55 39h172q13 0 21 -1.5t15 -10.5t4 -27q-6 -38 -53 -38h-44 l-76 -457h44q13 0 21 -1.5t15 -10.5t4 -27q-6 -38 -53 -38h-172q-13 0 -21.5 1.5t-16 10.5t-4.5 26q7 39 55 39h43l34 202h-311l-34 -202h43q14 0 22 -1.5t15 -10.5t4 -27q-6 -38 -54 -38h-172q-13 0 -21 1.5t-15.5 10.5t-4.5 26zM341 681q5 25 32 35l121 42q14 3 25 0 l107 -42q20 -7 20.5 -25t-13 -33t-30.5 -15q-8 0 -13 2l-97 31l-109 -31q-5 -2 -13 -2q-15 0 -23.5 12t-6.5 26z" />
<glyph unicode="&#x125;" horiz-adv-x="583" d="M22 38q7 39 55 39h43l76 457h-43q-13 0 -21.5 1.5t-16 10.5t-4.5 26q7 39 55 39h80q30 0 37.5 -10t2.5 -39l-28 -165q65 45 142 45q148 0 124 -151l-36 -214h43q14 0 22 -1.5t15 -10.5t4 -27q-6 -38 -54 -38h-172q-13 0 -21 1.5t-15 10.5t-4 27q6 38 53 38h44l35 209 q7 41 -4 60t-53 19q-47 0 -92.5 -31t-56.5 -95l-27 -162h44q13 0 21 -1.5t15 -10.5t4 -27q-6 -38 -53 -38h-172q-13 0 -21.5 1.5t-16 10.5t-4.5 26zM253 681q5 25 32 35l121 42q14 3 25 0l107 -42q20 -7 20.5 -25t-13 -33t-30.5 -15q-8 0 -13 2l-97 31l-109 -31 q-5 -2 -13 -2q-15 0 -23.5 12t-6.5 26z" />
<glyph unicode="&#x126;" horiz-adv-x="758" d="M53 38q7 39 54 39h44l56 338h-48q-17 0 -26 11.5t-6 27.5q2 16 15.5 27t29.5 11h48l7 42h-44q-12 0 -20.5 1.5t-16 10.5t-4.5 26q7 39 54 39h172q14 0 22 -1.5t15 -10.5t4 -27q-6 -38 -54 -38h-43l-7 -42h311l7 42h-43q-13 0 -21.5 1.5t-16 10.5t-4.5 26q7 39 55 39h172 q13 0 21 -1.5t15 -10.5t4 -27q-6 -38 -53 -38h-44l-7 -42h48q16 0 25.5 -11t7.5 -27q-3 -17 -16.5 -28t-29.5 -11h-48l-56 -338h44q13 0 21 -1.5t15 -10.5t4 -27q-6 -38 -53 -38h-172q-13 0 -21.5 1.5t-16 10.5t-4.5 26q7 39 55 39h43l34 202h-311l-34 -202h43q14 0 22 -1.5 t15 -10.5t4 -27q-6 -38 -54 -38h-172q-13 0 -21 1.5t-15.5 10.5t-4.5 26zM282 356h311l10 59h-311z" />
<glyph unicode="&#x127;" horiz-adv-x="583" d="M22 38q7 39 55 39h43l63 379h-48q-18 0 -27.5 7t-6.5 22q4 29 44 29h48l3 20h-43q-13 0 -21.5 1.5t-16 10.5t-4.5 26q7 39 55 39h80q30 0 37.5 -10t2.5 -39l-8 -48h100q38 0 34 -29q-5 -29 -44 -29h-100l-10 -59q65 45 142 45q148 0 124 -151l-36 -214h43q14 0 22 -1.5 t15 -10.5t4 -27q-6 -38 -54 -38h-172q-13 0 -21 1.5t-15 10.5t-4 27q6 38 53 38h44l35 209q7 41 -4 60t-53 19q-47 0 -92.5 -31t-56.5 -95l-27 -162h44q13 0 21 -1.5t15 -10.5t4 -27q-6 -38 -53 -38h-172q-13 0 -21.5 1.5t-16 10.5t-4.5 26z" />
<glyph unicode="&#x128;" horiz-adv-x="350" d="M42 38q7 39 55 39h48l76 457h-48q-13 0 -21.5 1.5t-16 10.5t-4.5 26q7 39 55 39h181q14 0 22 -1.5t15 -10.5t4 -27q-6 -38 -54 -38h-48l-76 -457h48q14 0 22 -1.5t15 -10.5t4 -27q-6 -38 -54 -38h-181q-13 0 -21.5 1.5t-16 10.5t-4.5 26zM111 683q3 22 61 60q51 34 86 34 q37 0 67 -35q14 -18 21 -18q18 0 68 40q16 13 31 13t25 -12.5t8 -27.5q-3 -20 -61 -60q-51 -34 -87 -34q-35 0 -66 36q-16 18 -21 18q-18 0 -69 -41q-17 -13 -31 -13q-15 0 -25 12.5t-7 27.5z" />
<glyph unicode="&#x129;" horiz-adv-x="292" d="M18 38q7 39 54 39h44l47 282h-39q-12 0 -20.5 1.5t-16.5 11t-5 26.5q7 38 55 38h76q29 0 37 -10t3 -38l-52 -311h34q13 0 21.5 -1.5t15.5 -11t4 -26.5q-6 -38 -53 -38h-164q-13 0 -21 1.5t-15.5 10.5t-4.5 26zM52 510q3 22 61 60q51 34 87 34t66 -35q14 -18 21 -18 q18 0 69 40q15 13 31 13q15 0 24.5 -12.5t7.5 -27.5q-3 -22 -61 -60q-51 -34 -87 -34q-35 0 -66 36q-16 18 -21 18q-17 0 -68 -41q-19 -13 -32 -13q-15 0 -24.5 12.5t-7.5 27.5z" />
<glyph unicode="&#x12a;" horiz-adv-x="350" d="M42 38q7 39 55 39h48l76 457h-48q-13 0 -21.5 1.5t-16 10.5t-4.5 26q7 39 55 39h181q14 0 22 -1.5t15 -10.5t4 -27q-6 -38 -54 -38h-48l-76 -457h48q14 0 22 -1.5t15 -10.5t4 -27q-6 -38 -54 -38h-181q-13 0 -21.5 1.5t-16 10.5t-4.5 26zM101 703q6 39 54 39h290 q14 0 21.5 -1.5t14.5 -11t4 -27.5q-6 -39 -54 -39h-289q-13 0 -21.5 1.5t-15.5 11t-4 27.5z" />
<glyph unicode="&#x12b;" horiz-adv-x="292" d="M18 38q7 39 54 39h44l47 282h-39q-12 0 -20.5 1.5t-16.5 11t-5 26.5q7 38 55 38h76q29 0 37 -10t3 -38l-52 -311h34q13 0 21.5 -1.5t15.5 -11t4 -26.5q-6 -38 -53 -38h-164q-13 0 -21 1.5t-15.5 10.5t-4.5 26zM44 538q6 39 53 39h290q14 0 22 -1.5t15 -11t4 -27.5 q-7 -39 -54 -39h-289q-13 0 -21.5 1.5t-15.5 11t-4 27.5z" />
<glyph unicode="&#x12c;" horiz-adv-x="350" d="M42 38q7 39 55 39h48l76 457h-48q-13 0 -21.5 1.5t-16 10.5t-4.5 26q7 39 55 39h181q14 0 22 -1.5t15 -10.5t4 -27q-6 -38 -54 -38h-48l-76 -457h48q14 0 22 -1.5t15 -10.5t4 -27q-6 -38 -54 -38h-181q-13 0 -21.5 1.5t-16 10.5t-4.5 26zM119 741q7 39 46 39q32 0 32 -35 q2 -12 101 -12t105 12q4 11 7.5 16.5t13 12t23.5 6.5q39 0 32 -39q-5 -30 -25.5 -49t-53 -27t-57 -10t-58.5 -2q-26 0 -45.5 1t-46 6t-42.5 13.5t-26 26t-6 41.5z" />
<glyph unicode="&#x12d;" horiz-adv-x="292" d="M18 38q7 39 54 39h44l47 282h-39q-12 0 -20.5 1.5t-16.5 11t-5 26.5q7 38 55 38h76q29 0 37 -10t3 -38l-52 -311h34q13 0 21.5 -1.5t15.5 -11t4 -26.5q-6 -38 -53 -38h-164q-13 0 -21 1.5t-15.5 10.5t-4.5 26zM60 562q3 18 15 28.5t30 10.5q32 0 32 -35q2 -12 101 -12 t105 12q4 11 7.5 16.5t13 12t23.5 6.5q39 0 33 -39q-5 -30 -25.5 -49t-53.5 -26.5t-57.5 -10t-58.5 -2.5q-26 0 -45 1t-45.5 6t-42.5 13.5t-26 26t-6 41.5z" />
<glyph unicode="&#x12e;" horiz-adv-x="350" d="M42 38q7 39 55 39h48l76 457h-48q-13 0 -21.5 1.5t-16 10.5t-4.5 26q7 39 55 39h181q14 0 22 -1.5t15 -10.5t4 -27q-6 -38 -54 -38h-48l-76 -457h48q14 0 22 -1.5t15 -10.5t4 -27q-6 -38 -54 -38h-34q-29 -14 -49.5 -41t-24.5 -57q-2 -13 7.5 -21t21.5 -8q10 0 21 7 q55 47 78 32q8 -8 7.5 -24t-8.5 -24q-54 -61 -114 -61q-47 0 -71 31.5t-17 69.5q8 49 64 96h-62q-13 0 -21.5 1.5t-16 10.5t-4.5 26z" />
<glyph unicode="&#x12f;" horiz-adv-x="292" d="M18 38q7 39 54 39h44l47 282h-39q-12 0 -20.5 1.5t-16.5 11t-5 26.5q7 38 55 38h76q29 0 37 -10t3 -38l-52 -311h34q13 0 21.5 -1.5t15.5 -11t4 -26.5q-6 -38 -53 -38h-53q-29 -14 -48.5 -40.5t-23.5 -57.5q-2 -13 7.5 -21t21.5 -8q10 0 21 7q55 47 78 32q8 -7 7.5 -23.5 t-8.5 -24.5q-54 -61 -114 -61q-47 0 -71 31.5t-17 69.5q8 49 63 96h-27q-13 0 -21 1.5t-15.5 10.5t-4.5 26zM166 555q4 24 23 40.5t43 16.5t38 -16.5t10 -40.5q-5 -24 -24 -41t-43 -17t-38 17t-9 41z" />
<glyph unicode="&#x130;" horiz-adv-x="350" d="M42 38q7 39 55 39h48l76 457h-48q-13 0 -21.5 1.5t-16 10.5t-4.5 26q7 39 55 39h181q14 0 22 -1.5t15 -10.5t4 -27q-6 -38 -54 -38h-48l-76 -457h48q14 0 22 -1.5t15 -10.5t4 -27q-6 -38 -54 -38h-181q-13 0 -21.5 1.5t-16 10.5t-4.5 26zM236 711q3 23 22.5 40t44.5 17 q23 0 37.5 -17t10.5 -40q-4 -22 -23.5 -39.5t-44.5 -17.5q-23 0 -37 17t-10 40z" />
<glyph unicode="&#x131;" horiz-adv-x="292" d="M18 38q7 39 54 39h44l47 282h-39q-12 0 -20.5 1.5t-16.5 11t-5 26.5q7 38 55 38h76q29 0 37 -10t3 -38l-52 -311h34q13 0 21.5 -1.5t15.5 -11t4 -26.5q-6 -38 -53 -38h-164q-13 0 -21 1.5t-15.5 10.5t-4.5 26z" />
<glyph unicode="&#x134;" d="M86 105q4 26 22 40t40 14t34 -15t8 -36q-3 -16 -9 -24q23 -18 68 -18q16 0 32.5 3t40.5 22.5t29 53.5l65 389h-70q-13 0 -21.5 1.5t-16 11t-4.5 26.5q6 38 55 38h175q13 0 21.5 -1.5t16.5 -10.5t5 -26q-7 -39 -56 -39h-20l-66 -395q-11 -68 -69 -109t-130 -41 q-76 0 -117 33t-33 83zM309 681q5 25 32 35l121 42q14 3 25 0l107 -42q20 -7 20.5 -25t-13 -33t-30.5 -15q-8 0 -13 2l-97 31l-109 -31q-5 -2 -13 -2q-15 0 -23.5 12t-6.5 26z" />
<glyph unicode="&#x135;" horiz-adv-x="321" d="M-74 -139q4 24 22 39t39 15q50 0 42 -59q3 -1 21 -1q57 0 74 112l66 392h-53q-13 0 -21.5 1.5t-16 11t-4.5 26.5q7 38 55 38h89q30 0 37.5 -10t2.5 -38l-71 -425q-12 -69 -56.5 -126.5t-117.5 -57.5q-57 0 -85.5 22.5t-22.5 59.5zM91 502q4 20 23 31l127 72q22 13 40 0 l103 -72q24 -18 8 -44t-41 -26q-8 0 -17 6l-86 58l-106 -58q-9 -6 -19 -6q-16 0 -25.5 12t-6.5 27z" />
<glyph unicode="&#x136;" horiz-adv-x="788" d="M60 38q7 39 55 39h43l76 457h-43q-13 0 -21.5 1.5t-16 10.5t-4.5 26q7 39 55 39h159q13 0 21.5 -1.5t15.5 -11t4 -26.5q-6 -38 -54 -38h-44l-42 -252l354 253q-20 2 -28 10t-4 28q6 38 54 38h141q9 0 15 -1t14 -4t11 -12t1 -22q-6 -38 -54 -38h-36l-252 -180l195 -277h31 q13 0 21.5 -1.5t16 -11t4.5 -26.5q-6 -38 -55 -38h-122q-13 0 -21 1.5t-16 10.5t-5 26q4 21 16 29t36 9l-164 233l-168 -120l-19 -112h44q13 0 21.5 -1.5t15.5 -11t4 -26.5q-6 -38 -54 -38h-159q-13 0 -21.5 1.5t-16 10.5t-4.5 26zM312 -175q1 9 7.5 16t28.5 26q10 11 17 29 q-34 8 -28 45q3 18 17.5 31t34.5 13q23 0 35.5 -18t6.5 -55q-8 -48 -41 -83t-51 -35q-13 0 -21 10t-6 21z" />
<glyph unicode="&#x137;" horiz-adv-x="554" d="M29 38q7 39 54 39h44l76 457h-44q-12 0 -20.5 1.5t-16 10.5t-4.5 26q7 39 54 39h68q30 0 37.5 -10t2.5 -39l-54 -324l157 121h-16q-12 0 -20.5 1.5t-16 10.5t-4.5 26q7 39 54 39h160q9 0 15 -1t14 -4t11 -12t1 -22q-6 -38 -54 -38h-35l-135 -104l115 -178h30 q12 0 20.5 -1.5t16 -11t4.5 -26.5q-6 -38 -54 -38h-123q-13 0 -21 1.5t-15 10.5t-4 27q6 38 53 38h1l-85 131l-85 -66l-11 -65h43q14 0 22 -1.5t15 -10.5t4 -27q-6 -38 -54 -38h-159q-13 0 -21 1.5t-15.5 10.5t-4.5 26zM196 -175q1 9 7.5 16t28.5 26q10 11 17 29 q-34 8 -28 45q3 18 17.5 31t34.5 13q23 0 35.5 -18t6.5 -55q-8 -48 -41 -83t-51 -35q-13 0 -21 10t-6 21z" />
<glyph unicode="&#x139;" horiz-adv-x="642" d="M51 38q7 39 55 39h43l76 457h-43q-13 0 -21.5 1.5t-16 10.5t-4.5 26q7 39 55 39h195q13 0 21.5 -1.5t15.5 -11t4 -26.5q-6 -38 -54 -38h-67l-76 -457h292l10 58q3 16 6 24.5t14 16.5t31 8q19 0 28 -7.5t8 -18.5t-2 -23l-15 -86q-5 -29 -16 -39t-40 -10h-457 q-13 0 -21.5 1.5t-16 10.5t-4.5 26zM326 701q2 15 10.5 22.5t25.5 13.5l138 58l23 6q18 0 28.5 -12t7.5 -31q-4 -27 -40 -42l-138 -57q-16 -6 -22 -6q-20 0 -27.5 18t-5.5 30z" />
<glyph unicode="&#x13a;" horiz-adv-x="292" d="M18 38q7 39 55 39h43l76 457h-43q-13 0 -21.5 1.5t-16 10.5t-4.5 26q7 39 55 39h80q30 0 37.5 -10t2.5 -39l-81 -485h43q14 0 22 -1.5t15 -10.5t4 -27q-6 -38 -54 -38h-171q-13 0 -21.5 1.5t-16 10.5t-4.5 26zM151 701q2 15 10.5 22.5t25.5 13.5l138 58l23 6 q18 0 28.5 -12t7.5 -31q-4 -27 -40 -42l-138 -57q-16 -6 -22 -6q-20 0 -27.5 18t-5.5 30z" />
<glyph unicode="&#x13b;" horiz-adv-x="642" d="M51 38q7 39 55 39h43l76 457h-43q-13 0 -21.5 1.5t-16 10.5t-4.5 26q7 39 55 39h195q13 0 21.5 -1.5t15.5 -11t4 -26.5q-6 -38 -54 -38h-67l-76 -457h292l10 58q3 16 6 24.5t14 16.5t31 8q19 0 28 -7.5t8 -18.5t-2 -23l-15 -86q-5 -29 -16 -39t-40 -10h-457 q-13 0 -21.5 1.5t-16 10.5t-4.5 26zM239 -175q1 9 7.5 16t28.5 26q10 11 17 29q-34 8 -28 45q3 18 17.5 31t34.5 13q23 0 35.5 -18t6.5 -55q-8 -48 -41 -83t-51 -35q-13 0 -21 10t-6 21z" />
<glyph unicode="&#x13c;" horiz-adv-x="292" d="M18 38q7 39 55 39h43l76 457h-43q-13 0 -21.5 1.5t-16 10.5t-4.5 26q7 39 55 39h80q30 0 37.5 -10t2.5 -39l-81 -485h43q14 0 22 -1.5t15 -10.5t4 -27q-6 -38 -54 -38h-171q-13 0 -21.5 1.5t-16 10.5t-4.5 26zM64 -175q1 9 7.5 16t28.5 26q10 11 17 29q-34 8 -28 45 q3 18 17.5 31t34.5 13q23 0 35.5 -18t6.5 -55q-8 -48 -41 -83t-51 -35q-13 0 -21 10t-6 21z" />
<glyph unicode="&#x13d;" horiz-adv-x="642" d="M51 38q7 39 55 39h43l76 457h-43q-13 0 -21.5 1.5t-16 10.5t-4.5 26q7 39 55 39h195q13 0 21.5 -1.5t15.5 -11t4 -26.5q-6 -38 -54 -38h-67l-76 -457h292l10 58q3 16 6 24.5t14 16.5t31 8q19 0 28 -7.5t8 -18.5t-2 -23l-15 -86q-5 -29 -16 -39t-40 -10h-457 q-13 0 -21.5 1.5t-16 10.5t-4.5 26zM469 451q1 9 7.5 16t28.5 26q13 15 17 29q-33 8 -27 45q3 18 17.5 31t34.5 13q23 0 35.5 -18t6.5 -55q-8 -48 -41.5 -83t-51.5 -35q-13 0 -21 10t-6 21z" />
<glyph unicode="&#x13e;" horiz-adv-x="292" d="M18 38q7 39 55 39h43l76 457h-43q-13 0 -21.5 1.5t-16 10.5t-4.5 26q7 39 55 39h80q30 0 37.5 -10t2.5 -39l-81 -485h43q14 0 22 -1.5t15 -10.5t4 -27q-6 -38 -54 -38h-171q-13 0 -21.5 1.5t-16 10.5t-4.5 26zM302 451q1 9 7.5 16t28.5 26q13 15 17 29q-33 8 -27 45 q3 18 17.5 31t34.5 13q23 0 35.5 -18t6.5 -55q-8 -48 -41.5 -83t-51.5 -35q-13 0 -21 10t-6 21z" />
<glyph unicode="&#x13f;" horiz-adv-x="642" d="M51 38q7 39 55 39h43l76 457h-43q-13 0 -21.5 1.5t-16 10.5t-4.5 26q7 39 55 39h195q13 0 21.5 -1.5t15.5 -11t4 -26.5q-6 -38 -54 -38h-67l-76 -457h292l10 58q3 16 6 24.5t14 16.5t31 8q19 0 28 -7.5t8 -18.5t-2 -23l-15 -86q-5 -29 -16 -39t-40 -10h-457 q-13 0 -21.5 1.5t-16 10.5t-4.5 26zM494 317q4 23 23 40t44 17q23 0 37.5 -17t10.5 -40q-4 -22 -23.5 -39.5t-44.5 -17.5q-23 0 -37 17t-10 40z" />
<glyph unicode="&#x140;" horiz-adv-x="369" d="M18 38q7 39 55 39h43l76 457h-43q-13 0 -21.5 1.5t-16 10.5t-4.5 26q7 39 55 39h80q30 0 37.5 -10t2.5 -39l-81 -485h43q14 0 22 -1.5t15 -10.5t4 -27q-6 -38 -54 -38h-171q-13 0 -21.5 1.5t-16 10.5t-4.5 26zM325 317q4 23 23 40t44 17q23 0 37.5 -17t10.5 -40 q-4 -22 -23.5 -39.5t-44.5 -17.5q-23 0 -37 17t-10 40z" />
<glyph unicode="&#x141;" horiz-adv-x="642" d="M51 38q7 39 55 39h43l29 172l-23 -16q-32 -23 -52 9q-17 28 19 52l71 46l32 194h-43q-13 0 -21.5 1.5t-16 10.5t-4.5 26q7 39 55 39h195q13 0 21.5 -1.5t15.5 -11t4 -26.5q-6 -38 -54 -38h-67l-24 -142l167 105q15 10 29.5 6.5t20.5 -18.5q6 -13 0.5 -27.5t-19.5 -23.5 l-213 -133l-37 -224h292l10 58q3 16 6 24.5t14 16.5t31 8q19 0 28 -7.5t8 -18.5t-2 -23l-15 -86q-5 -29 -16 -39t-40 -10h-457q-13 0 -21.5 1.5t-16 10.5t-4.5 26z" />
<glyph unicode="&#x142;" horiz-adv-x="353" d="M43 241q-16 31 18 53l142 89l25 151h-43q-13 0 -21.5 1.5t-16 10.5t-4.5 26q7 39 55 39h80q30 0 37.5 -10t2.5 -39l-21 -125l95 60q15 9 30 5.5t20 -17.5t-0.5 -28.5t-18.5 -22.5l-141 -89l-45 -268h43q14 0 22 -1.5t15 -10.5t4 -27q-6 -38 -54 -38h-171q-13 0 -21.5 1.5 t-16 10.5t-4.5 26q7 39 55 39h43l36 216l-95 -60q-16 -10 -29.5 -7.5t-20.5 15.5z" />
<glyph unicode="&#x143;" horiz-adv-x="758" d="M60 38q7 39 54 39h44l76 457h-44q-12 0 -20.5 1.5t-16 10.5t-4.5 26q7 39 54 39h92q15 0 23.5 -1t20.5 -10t19 -26l197 -483l74 443h-43q-13 0 -21.5 1.5t-16 10.5t-4.5 26q7 39 55 39h159q13 0 21 -1.5t15 -10.5t4 -27q-6 -38 -53 -38h-44l-81 -485q-5 -31 -16 -40 t-40 -9q-15 0 -23.5 1t-20.5 10t-19 26l-197 483l-74 -443h43q14 0 22 -1.5t15 -10.5t4 -27q-6 -38 -54 -38h-159q-13 0 -21 1.5t-15.5 10.5t-4.5 26zM385 701q2 15 10.5 22.5t25.5 13.5l138 58l23 6q18 0 28.5 -12t7.5 -31q-4 -27 -40 -42l-138 -57q-16 -6 -22 -6 q-20 0 -27.5 18t-5.5 30z" />
<glyph unicode="&#x144;" horiz-adv-x="583" d="M22 38q7 39 55 39h43l47 282h-43q-13 0 -21.5 1.5t-16 10.5t-4.5 26q7 39 55 39h80q28 0 35.5 -8.5t5.5 -30.5q68 45 142 45q148 0 124 -151l-36 -214h43q14 0 22 -1.5t15 -10.5t4 -27q-6 -38 -54 -38h-172q-13 0 -21 1.5t-15 10.5t-4 27q6 38 53 38h44l35 209 q7 41 -4 60t-53 19q-47 0 -92.5 -31t-56.5 -95l-27 -162h44q13 0 21 -1.5t15 -10.5t4 -27q-6 -38 -53 -38h-172q-13 0 -21.5 1.5t-16 10.5t-4.5 26zM265 511q4 24 36 36l139 58l23 6q18 0 28.5 -12t7.5 -31q-4 -27 -40 -42l-139 -57q-14 -6 -22 -6q-20 0 -27 17t-6 31z" />
<glyph unicode="&#x145;" horiz-adv-x="758" d="M60 38q7 39 54 39h44l76 457h-44q-12 0 -20.5 1.5t-16 10.5t-4.5 26q7 39 54 39h92q15 0 23.5 -1t20.5 -10t19 -26l197 -483l74 443h-43q-13 0 -21.5 1.5t-16 10.5t-4.5 26q7 39 55 39h159q13 0 21 -1.5t15 -10.5t4 -27q-6 -38 -53 -38h-44l-81 -485q-5 -31 -16 -40 t-40 -9q-15 0 -23.5 1t-20.5 10t-19 26l-197 483l-74 -443h43q14 0 22 -1.5t15 -10.5t4 -27q-6 -38 -54 -38h-159q-13 0 -21 1.5t-15.5 10.5t-4.5 26zM298 -175q1 9 7.5 16t28.5 26q10 11 17 29q-34 8 -28 45q3 18 17.5 31t34.5 13q23 0 35.5 -18t6.5 -55q-8 -48 -41 -83 t-51 -35q-13 0 -21 10t-6 21z" />
<glyph unicode="&#x146;" horiz-adv-x="583" d="M22 38q7 39 55 39h43l47 282h-43q-13 0 -21.5 1.5t-16 10.5t-4.5 26q7 39 55 39h80q28 0 35.5 -8.5t5.5 -30.5q68 45 142 45q148 0 124 -151l-36 -214h43q14 0 22 -1.5t15 -10.5t4 -27q-6 -38 -54 -38h-172q-13 0 -21 1.5t-15 10.5t-4 27q6 38 53 38h44l35 209 q7 41 -4 60t-53 19q-47 0 -92.5 -31t-56.5 -95l-27 -162h44q13 0 21 -1.5t15 -10.5t4 -27q-6 -38 -53 -38h-172q-13 0 -21.5 1.5t-16 10.5t-4.5 26zM210 -175q1 9 7.5 16t28.5 26q10 11 17 29q-34 8 -28 45q3 18 17.5 31t34.5 13q23 0 35.5 -18t6.5 -55q-8 -48 -41 -83 t-51 -35q-13 0 -21 10t-6 21z" />
<glyph unicode="&#x147;" horiz-adv-x="758" d="M60 38q7 39 54 39h44l76 457h-44q-12 0 -20.5 1.5t-16 10.5t-4.5 26q7 39 54 39h92q15 0 23.5 -1t20.5 -10t19 -26l197 -483l74 443h-43q-13 0 -21.5 1.5t-16 10.5t-4.5 26q7 39 55 39h159q13 0 21 -1.5t15 -10.5t4 -27q-6 -38 -53 -38h-44l-81 -485q-5 -31 -16 -40 t-40 -9q-15 0 -23.5 1t-20.5 10t-19 26l-197 483l-74 -443h43q14 0 22 -1.5t15 -10.5t4 -27q-6 -38 -54 -38h-159q-13 0 -21 1.5t-15.5 10.5t-4.5 26zM367 687q-19 7 -20 25t13 33t31 15q8 0 12 -2l98 -31l108 31q6 2 14 2q15 0 23 -12t6 -26q-4 -25 -32 -35l-121 -42 q-13 -3 -25 0z" />
<glyph unicode="&#x148;" horiz-adv-x="583" d="M22 38q7 39 55 39h43l47 282h-43q-13 0 -21.5 1.5t-16 10.5t-4.5 26q7 39 55 39h80q28 0 35.5 -8.5t5.5 -30.5q68 45 142 45q148 0 124 -151l-36 -214h43q14 0 22 -1.5t15 -10.5t4 -27q-6 -38 -54 -38h-172q-13 0 -21 1.5t-15 10.5t-4 27q6 38 53 38h44l35 209 q7 41 -4 60t-53 19q-47 0 -92.5 -31t-56.5 -95l-27 -162h44q13 0 21 -1.5t15 -10.5t4 -27q-6 -38 -53 -38h-172q-13 0 -21.5 1.5t-16 10.5t-4.5 26zM234 572q3 15 16.5 27t29.5 12q10 0 17 -6l86 -58l106 58q10 6 19 6q16 0 25.5 -12t6.5 -27q-2 -20 -23 -31l-127 -72 q-22 -13 -40 0l-103 72q-15 11 -13 31z" />
<glyph unicode="&#x14a;" horiz-adv-x="758" d="M24 38q7 39 55 39h44l76 457h-44q-12 0 -20.5 1.5t-16.5 10.5t-5 26q7 39 55 39h81q30 0 37.5 -12t0.5 -41q99 64 233 64q128 0 201.5 -93t51.5 -223q-22 -129 -96.5 -223t-176.5 -94q-22 0 -34 15.5t-8 36.5t21 36t38 15q20 0 32 -12q54 17 89 80t49 146q16 94 -37 162 t-145 68q-85 0 -153.5 -28.5t-87.5 -86.5l-57 -344h44q13 0 21 -1.5t15 -10.5t4 -27q-6 -38 -53 -38h-172q-13 0 -21 1.5t-16 10.5t-5 26z" />
<glyph unicode="&#x14b;" horiz-adv-x="583" d="M56 38q7 39 54 39h44l47 282h-44q-12 0 -20.5 1.5t-16 10.5t-4.5 26q7 39 54 39h81q28 0 35.5 -8.5t4.5 -30.5q67 45 143 45q147 0 123 -151l-38 -223q-20 -124 -63 -198q-52 -96 -140 -96q-18 0 -28.5 12t-7.5 30t18 30.5t32 12.5q13 0 24 4.5t20 15t16 21t13 29 t10 31.5t8.5 36t7 35.5t6.5 36.5l37 218q7 41 -4 60t-53 19q-47 0 -92.5 -31t-56.5 -95l-27 -162h43q14 0 22 -1.5t15 -10.5t4 -27q-6 -38 -54 -38h-172q-13 0 -21 1.5t-15.5 10.5t-4.5 26z" />
<glyph unicode="&#x14c;" horiz-adv-x="817" d="M110 306q21 128 138 222t264 94q146 0 232 -93t64 -224q-21 -128 -138 -222t-264 -94q-146 0 -232 93t-64 224zM197 317q-17 -103 47.5 -177t174.5 -74t199.5 74t106.5 177q16 93 -50 160.5t-176 67.5t-198 -67t-104 -161zM334 703q6 39 54 39h290q14 0 21.5 -1.5 t14.5 -11t4 -27.5q-6 -39 -54 -39h-289q-13 0 -21.5 1.5t-15.5 11t-4 27.5z" />
<glyph unicode="&#x14d;" d="M73 219q15 93 92 159.5t171 66.5t149 -66.5t40 -159.5q-16 -94 -93.5 -159.5t-170.5 -65.5t-148.5 65.5t-39.5 159.5zM158 225q-11 -63 23 -108.5t93 -45.5t108 45.5t60 108.5q10 61 -25.5 102t-93.5 41t-106.5 -41t-58.5 -102zM163 552q6 39 53 39h290q14 0 22 -1.5 t15 -11t4 -27.5q-7 -39 -54 -39h-289q-13 0 -21.5 1.5t-15.5 11t-4 27.5z" />
<glyph unicode="&#x14e;" horiz-adv-x="817" d="M110 306q21 128 138 222t264 94q146 0 232 -93t64 -224q-21 -128 -138 -222t-264 -94q-146 0 -232 93t-64 224zM197 317q-17 -103 47.5 -177t174.5 -74t199.5 74t106.5 177q16 93 -50 160.5t-176 67.5t-198 -67t-104 -161zM352 741q3 18 15.5 28.5t30.5 10.5q32 0 32 -35 q2 -12 101 -12t105 12q4 11 7.5 16.5t13 12t23.5 6.5q38 0 32 -39q-5 -30 -25.5 -49t-53 -27t-57 -10t-58.5 -2q-26 0 -45.5 1t-46 6t-42.5 13.5t-26 26t-6 41.5z" />
<glyph unicode="&#x14f;" d="M73 219q15 93 92 159.5t171 66.5t149 -66.5t40 -159.5q-16 -94 -93.5 -159.5t-170.5 -65.5t-148.5 65.5t-39.5 159.5zM158 225q-11 -63 23 -108.5t93 -45.5t108 45.5t60 108.5q10 61 -25.5 102t-93.5 41t-106.5 -41t-58.5 -102zM179 576q7 39 45 39q32 0 32 -35 q2 -12 101 -12t105 12q4 11 7.5 16.5t13 12t23.5 6.5q19 0 27.5 -10.5t5.5 -28.5q-5 -30 -25.5 -49t-53.5 -26.5t-57.5 -10t-58.5 -2.5q-26 0 -45 1t-45.5 6t-42.5 13.5t-26 26t-6 41.5z" />
<glyph unicode="&#x150;" horiz-adv-x="817" d="M110 306q21 128 138 222t264 94q146 0 232 -93t64 -224q-21 -128 -138 -222t-264 -94q-146 0 -232 93t-64 224zM197 317q-17 -103 47.5 -177t174.5 -74t199.5 74t106.5 177q16 93 -50 160.5t-176 67.5t-198 -67t-104 -161zM354 699q2 12 7 17.5t19 15.5l77 54 q19 14 33 14q18 0 28.5 -12t7.5 -31t-28 -37l-77 -54q-18 -13 -30 -13q-16 0 -27.5 16t-9.5 30zM559 699q2 12 7 17.5t19 15.5l77 54q19 14 33 14q18 0 28.5 -12t7.5 -31t-28 -37l-77 -54q-18 -13 -30 -13q-16 0 -27.5 16t-9.5 30z" />
<glyph unicode="&#x151;" d="M73 219q15 93 92 159.5t171 66.5t149 -66.5t40 -159.5q-16 -94 -93.5 -159.5t-170.5 -65.5t-148.5 65.5t-39.5 159.5zM158 225q-11 -63 23 -108.5t93 -45.5t108 45.5t60 108.5q10 61 -25.5 102t-93.5 41t-106.5 -41t-58.5 -102zM179 524q2 12 7 17.5t19 15.5l77 54 q18 14 33 14q18 0 28.5 -12t7.5 -31q-3 -18 -28 -37l-77 -54q-18 -13 -31 -13q-16 0 -27 16t-9 30zM384 524q2 12 7 17.5t19 15.5l77 54q18 14 33 14q18 0 28.5 -12t7.5 -31q-3 -18 -28 -37l-77 -54q-18 -13 -31 -13q-16 0 -27 16t-9 30z" />
<glyph unicode="&#x152;" horiz-adv-x="1050" d="M114 306q21 129 138 222.5t264 93.5q27 0 59 -4q56 -7 84 -7h382q30 0 37.5 -10t2.5 -39l-12 -70q-3 -16 -6 -24.5t-14 -16.5t-31 -8q-19 0 -28 7.5t-8 18.5t2 23l7 42h-301l-30 -179h198q7 33 16 44t36 11q19 0 28 -7.5t8 -18.5t-2 -23l-15 -90q-2 -11 -4 -17.5t-7 -15 t-14.5 -12.5t-24.5 -4q-27 0 -32.5 11.5t-1.5 44.5h-198l-33 -201h329l10 58q3 16 6 24.5t14 16.5t31 8q19 0 27.5 -7.5t8 -18.5t-1.5 -23l-15 -86q-5 -29 -16 -39t-40 -10h-410q-24 0 -80.5 -5.5t-66.5 -5.5q-146 0 -232 93t-64 224zM194 317q-17 -99 46 -175t182 -76 q65 0 86 26t36 110q19 106 34 205q16 81 2.5 109.5t-78.5 28.5q-120 0 -206.5 -68.5t-101.5 -159.5z" />
<glyph unicode="&#x153;" horiz-adv-x="817" d="M77 220q16 94 91 159.5t166 65.5q51 0 93.5 -23.5t67.5 -67.5q36 42 84.5 66.5t98.5 24.5q85 0 123 -60t23 -154q-4 -21 -13 -31.5t-17.5 -12t-25.5 -1.5h-254q3 -52 38.5 -83.5t84.5 -31.5q56 0 86 53q15 27 44 27q8 0 15.5 -1.5t16 -10t5.5 -24.5q-5 -32 -56.5 -76.5 t-129.5 -44.5q-61 0 -103 28t-63 65q-83 -93 -193 -93q-91 0 -144.5 66t-37.5 160zM158 225q-11 -63 21.5 -108.5t87.5 -45.5t102.5 45.5t58.5 108.5q10 61 -23.5 102t-88.5 41t-101.5 -41t-56.5 -102zM533 261h215q2 47 -16 77t-61 30q-40 0 -79 -29.5t-59 -77.5z" />
<glyph unicode="&#x154;" horiz-adv-x="758" d="M53 38q7 39 55 39h44l76 457h-44q-12 0 -20.5 1.5t-16.5 10.5t-5 26q7 39 55 39h260q111 0 183.5 -50.5t60.5 -121.5q-6 -39 -38.5 -74t-84.5 -59q22 -15 36 -39q11 -22 11 -42t-7 -60q-4 -26 -5.5 -39t-0.5 -29.5t9 -23.5t24 -7q31 0 40 36q10 37 48 37q43 0 37 -39 q-7 -41 -46 -76t-92 -35q-67 0 -93 48q-14 25 -14.5 52.5t8.5 71.5q8 39 5 55t-25 30q-40 21 -115 21h-130l-32 -190h44q13 0 21.5 -1.5t15.5 -11t4 -26.5q-6 -38 -54 -38h-172q-13 0 -21 1.5t-16 10.5t-5 26zM280 344h123q78 0 142.5 26.5t70.5 68.5q7 42 -48 68.5 t-133 26.5h-123zM385 701q2 15 10.5 22.5t25.5 13.5l138 58l23 6q18 0 28.5 -12t7.5 -31q-4 -27 -40 -42l-138 -57q-16 -6 -22 -6q-20 0 -27.5 18t-5.5 30z" />
<glyph unicode="&#x155;" horiz-adv-x="408" d="M19 38q7 39 55 39h44l47 282h-44q-12 0 -20.5 1.5t-16.5 10.5t-5 26q7 39 55 39h81q28 0 35 -8t5 -32q58 46 119 46q46 0 62.5 -30t0.5 -59.5t-51 -29.5q-41 0 -41 40q-48 -10 -80.5 -59t-43.5 -113l-19 -114h67q14 0 22 -1.5t15 -10.5t4 -27q-6 -38 -54 -38h-195 q-13 0 -21 1.5t-16 10.5t-5 26zM178 511q4 24 36 36l139 58l23 6q18 0 28.5 -12t7.5 -31q-4 -27 -40 -42l-139 -57q-14 -6 -22 -6q-20 0 -27 17t-6 31z" />
<glyph unicode="&#x156;" horiz-adv-x="758" d="M53 38q7 39 55 39h44l76 457h-44q-12 0 -20.5 1.5t-16.5 10.5t-5 26q7 39 55 39h260q111 0 183.5 -50.5t60.5 -121.5q-6 -39 -38.5 -74t-84.5 -59q22 -15 36 -39q11 -22 11 -42t-7 -60q-4 -26 -5.5 -39t-0.5 -29.5t9 -23.5t24 -7q31 0 40 36q10 37 48 37q43 0 37 -39 q-7 -41 -46 -76t-92 -35q-67 0 -93 48q-14 25 -14.5 52.5t8.5 71.5q8 39 5 55t-25 30q-40 21 -115 21h-130l-32 -190h44q13 0 21.5 -1.5t15.5 -11t4 -26.5q-6 -38 -54 -38h-172q-13 0 -21 1.5t-16 10.5t-5 26zM280 344h123q78 0 142.5 26.5t70.5 68.5q7 42 -48 68.5 t-133 26.5h-123zM298 -175q1 9 7.5 16t28.5 26q10 11 17 29q-34 8 -28 45q3 18 17.5 31t34.5 13q23 0 35.5 -18t6.5 -55q-8 -48 -41 -83t-51 -35q-13 0 -21 10t-6 21z" />
<glyph unicode="&#x157;" horiz-adv-x="408" d="M19 38q7 39 55 39h44l47 282h-44q-12 0 -20.5 1.5t-16.5 10.5t-5 26q7 39 55 39h81q28 0 35 -8t5 -32q58 46 119 46q46 0 62.5 -30t0.5 -59.5t-51 -29.5q-41 0 -41 40q-48 -10 -80.5 -59t-43.5 -113l-19 -114h67q14 0 22 -1.5t15 -10.5t4 -27q-6 -38 -54 -38h-195 q-13 0 -21 1.5t-16 10.5t-5 26zM65 -175q1 9 7.5 16t28.5 26q10 11 17 29q-34 8 -28 45q3 18 17.5 31t34.5 13q23 0 35.5 -18t6.5 -55q-8 -48 -41 -83t-51 -35q-13 0 -21 10t-6 21z" />
<glyph unicode="&#x158;" horiz-adv-x="758" d="M53 38q7 39 55 39h44l76 457h-44q-12 0 -20.5 1.5t-16.5 10.5t-5 26q7 39 55 39h260q111 0 183.5 -50.5t60.5 -121.5q-6 -39 -38.5 -74t-84.5 -59q22 -15 36 -39q11 -22 11 -42t-7 -60q-4 -26 -5.5 -39t-0.5 -29.5t9 -23.5t24 -7q31 0 40 36q10 37 48 37q43 0 37 -39 q-7 -41 -46 -76t-92 -35q-67 0 -93 48q-14 25 -14.5 52.5t8.5 71.5q8 39 5 55t-25 30q-40 21 -115 21h-130l-32 -190h44q13 0 21.5 -1.5t15.5 -11t4 -26.5q-6 -38 -54 -38h-172q-13 0 -21 1.5t-16 10.5t-5 26zM280 344h123q78 0 142.5 26.5t70.5 68.5q7 42 -48 68.5 t-133 26.5h-123zM367 687q-19 7 -20 25t13 33t31 15q8 0 12 -2l98 -31l108 31q6 2 14 2q15 0 23 -12t6 -26q-4 -25 -32 -35l-121 -42q-13 -3 -25 0z" />
<glyph unicode="&#x159;" horiz-adv-x="408" d="M19 38q7 39 55 39h44l47 282h-44q-12 0 -20.5 1.5t-16.5 10.5t-5 26q7 39 55 39h81q28 0 35 -8t5 -32q58 46 119 46q46 0 62.5 -30t0.5 -59.5t-51 -29.5q-41 0 -41 40q-48 -10 -80.5 -59t-43.5 -113l-19 -114h67q14 0 22 -1.5t15 -10.5t4 -27q-6 -38 -54 -38h-195 q-13 0 -21 1.5t-16 10.5t-5 26zM147 572q3 15 16.5 27t29.5 12q9 0 17 -6l86 -58l106 58q10 6 19 6q16 0 25.5 -12t6.5 -27q-2 -20 -23 -31l-127 -72q-22 -13 -40 0l-103 72q-15 11 -13 31z" />
<glyph unicode="&#x15a;" horiz-adv-x="583" d="M62 38l22 128q3 16 6 24.5t14 16.5t31 8q18 0 26.5 -6.5t8 -15.5t-0.5 -18q-5 -55 36 -83q42 -26 121 -26q59 0 100 30.5t47 69.5q3 17 -1.5 32.5t-10.5 22.5l-6 7q-18 18 -34.5 24.5t-61.5 16.5l-40 9q-74 16 -103 27t-53 37q-42 50 -31 112q11 67 78 117.5t159 50.5 q93 0 145 -44q16 29 24.5 36.5t25.5 7.5q37 0 30 -49l-22 -128q-3 -16 -6 -24.5t-14 -16.5t-31 -8q-24 0 -30 9.5t-5 29.5q-4 110 -131 110q-55 0 -95.5 -26t-46.5 -61q-4 -26 11 -45.5t31.5 -27.5t32.5 -11l139 -30q66 -15 101.5 -64t25.5 -110q-11 -71 -78.5 -126 t-163.5 -55q-112 0 -171 42q-15 -26 -24 -34t-25 -8q-17 0 -25 8.5t-7 19t2 21.5zM297 701q2 15 10.5 22.5t25.5 13.5l138 58l23 6q18 0 28.5 -12t7.5 -31q-4 -27 -40 -42l-138 -57q-16 -6 -22 -6q-20 0 -27.5 18t-5.5 30z" />
<glyph unicode="&#x15b;" horiz-adv-x="414" d="M38 43l16 93q3 16 6 24.5t14 16.5t31 8q15 0 23.5 -5.5t10 -11t2.5 -14.5q2 -17 5.5 -29.5t11.5 -26t24 -20.5t40 -7q95 0 105 59q7 42 -58 58q-34 4 -57 10q-18 4 -29.5 7t-35 13t-36.5 22t-22 33.5t-4 48.5q3 18 12.5 36.5t29.5 39.5t59 34t91 13q51 0 82 -16 q14 16 34 16q37 0 30 -49l-11 -67q-3 -16 -6 -24t-14 -16t-31 -8q-18 0 -26.5 7t-9.5 13.5t0 18.5q1 9 -0.5 15t-6.5 15t-19 13.5t-37 4.5q-93 0 -100 -46q-4 -22 21.5 -32.5t89.5 -22.5q149 -28 131 -137q-9 -53 -56.5 -94.5t-139.5 -41.5q-61 0 -97 28q-16 -28 -43 -28 q-37 0 -30 49zM183 525q4 24 36 36l139 58l23 6q18 0 28.5 -12t7.5 -31q-4 -27 -40 -42l-139 -57q-14 -6 -22 -6q-20 0 -27 17t-6 31z" />
<glyph unicode="&#x15c;" horiz-adv-x="583" d="M62 38l22 128q3 16 6 24.5t14 16.5t31 8q18 0 26.5 -6.5t8 -15.5t-0.5 -18q-5 -55 36 -83q42 -26 121 -26q59 0 100 30.5t47 69.5q3 17 -1.5 32.5t-10.5 22.5l-6 7q-18 18 -34.5 24.5t-61.5 16.5l-40 9q-74 16 -103 27t-53 37q-42 50 -31 112q11 67 78 117.5t159 50.5 q93 0 145 -44q16 29 24.5 36.5t25.5 7.5q37 0 30 -49l-22 -128q-3 -16 -6 -24.5t-14 -16.5t-31 -8q-24 0 -30 9.5t-5 29.5q-4 110 -131 110q-55 0 -95.5 -26t-46.5 -61q-4 -26 11 -45.5t31.5 -27.5t32.5 -11l139 -30q66 -15 101.5 -64t25.5 -110q-11 -71 -78.5 -126 t-163.5 -55q-112 0 -171 42q-15 -26 -24 -34t-25 -8q-17 0 -25 8.5t-7 19t2 21.5zM253 681q5 25 32 35l121 42q14 3 25 0l107 -42q20 -7 20.5 -25t-13 -33t-30.5 -15q-8 0 -13 2l-97 31l-109 -31q-5 -2 -13 -2q-15 0 -23.5 12t-6.5 26z" />
<glyph unicode="&#x15d;" horiz-adv-x="414" d="M38 43l16 93q3 16 6 24.5t14 16.5t31 8q15 0 23.5 -5.5t10 -11t2.5 -14.5q2 -17 5.5 -29.5t11.5 -26t24 -20.5t40 -7q95 0 105 59q7 42 -58 58q-34 4 -57 10q-18 4 -29.5 7t-35 13t-36.5 22t-22 33.5t-4 48.5q3 18 12.5 36.5t29.5 39.5t59 34t91 13q51 0 82 -16 q14 16 34 16q37 0 30 -49l-11 -67q-3 -16 -6 -24t-14 -16t-31 -8q-18 0 -26.5 7t-9.5 13.5t0 18.5q1 9 -0.5 15t-6.5 15t-19 13.5t-37 4.5q-93 0 -100 -46q-4 -22 21.5 -32.5t89.5 -22.5q149 -28 131 -137q-9 -53 -56.5 -94.5t-139.5 -41.5q-61 0 -97 28q-16 -28 -43 -28 q-37 0 -30 49zM141 516q4 20 23 31l127 72q22 13 40 0l103 -72q24 -18 8 -44t-41 -26q-8 0 -17 6l-86 58l-106 -58q-9 -6 -19 -6q-16 0 -25.5 12t-6.5 27z" />
<glyph unicode="&#x15e;" horiz-adv-x="583" d="M62 38l22 128q3 16 6 24.5t14 16.5t31 8q18 0 26.5 -6.5t8 -15.5t-0.5 -18q-5 -55 36 -83q42 -26 121 -26q59 0 100 30.5t47 69.5q3 17 -1.5 32.5t-10.5 22.5l-6 7q-18 18 -34.5 24.5t-61.5 16.5l-40 9q-74 16 -103 27t-53 37q-42 50 -31 112q11 67 78 117.5t159 50.5 q93 0 145 -44q16 29 24.5 36.5t25.5 7.5q37 0 30 -49l-22 -128q-3 -16 -6 -24.5t-14 -16.5t-31 -8q-24 0 -30 9.5t-5 29.5q-4 110 -131 110q-55 0 -95.5 -26t-46.5 -61q-4 -26 11 -45.5t31.5 -27.5t32.5 -11l139 -30q66 -15 101.5 -64t25.5 -110q-9 -57 -55.5 -105.5 t-116.5 -66.5q59 -30 48 -93q-6 -36 -29.5 -59.5t-62.5 -33t-68.5 -12t-72.5 -2.5q-14 0 -24.5 9.5t-7.5 29.5q4 25 20.5 32t48.5 7q63 0 86.5 7t25.5 23q2 12 -10 20t-32 10q-26 1 -30.5 19t1.5 36q-80 4 -134 40q-15 -26 -24 -34t-25 -8q-17 0 -25 8.5t-7 19t2 21.5z" />
<glyph unicode="&#x15f;" horiz-adv-x="414" d="M38 43l16 93q3 16 6 24.5t14 16.5t31 8q15 0 23.5 -5.5t10 -11t2.5 -14.5q2 -17 5.5 -29.5t11.5 -26t24 -20.5t40 -7q95 0 105 59q7 42 -58 58q-34 4 -57 10q-18 4 -29.5 7t-35 13t-36.5 22t-22 33.5t-4 48.5q3 18 12.5 36.5t29.5 39.5t59 34t91 13q51 0 82 -16 q14 16 34 16q37 0 30 -49l-11 -67q-3 -16 -6 -24t-14 -16t-31 -8q-18 0 -26.5 7t-9.5 13.5t0 18.5q1 9 -0.5 15t-6.5 15t-19 13.5t-37 4.5q-93 0 -100 -46q-4 -22 21.5 -32.5t89.5 -22.5q149 -28 131 -137q-7 -39 -36.5 -74.5t-84.5 -51.5q34 -12 51.5 -37t11.5 -62 q-6 -36 -29.5 -59.5t-62.5 -33t-68.5 -12t-72.5 -2.5q-14 0 -24.5 9.5t-7.5 29.5q4 25 20.5 32t48.5 7q63 0 86.5 7t25.5 23q2 12 -10 20t-32 10q-17 1 -24.5 8.5t-7 17.5t1.5 21l2 12q-49 2 -81 27q-16 -28 -43 -28q-37 0 -30 49z" />
<glyph unicode="&#x160;" horiz-adv-x="583" d="M62 38l22 128q3 16 6 24.5t14 16.5t31 8q18 0 26.5 -6.5t8 -15.5t-0.5 -18q-5 -55 36 -83q42 -26 121 -26q59 0 100 30.5t47 69.5q3 17 -1.5 32.5t-10.5 22.5l-6 7q-18 18 -34.5 24.5t-61.5 16.5l-40 9q-74 16 -103 27t-53 37q-42 50 -31 112q11 67 78 117.5t159 50.5 q93 0 145 -44q16 29 24.5 36.5t25.5 7.5q37 0 30 -49l-22 -128q-3 -16 -6 -24.5t-14 -16.5t-31 -8q-24 0 -30 9.5t-5 29.5q-4 110 -131 110q-55 0 -95.5 -26t-46.5 -61q-4 -26 11 -45.5t31.5 -27.5t32.5 -11l139 -30q66 -15 101.5 -64t25.5 -110q-11 -71 -78.5 -126 t-163.5 -55q-112 0 -171 42q-15 -26 -24 -34t-25 -8q-17 0 -25 8.5t-7 19t2 21.5zM279 687q-19 7 -20 25t13 33t31 15q8 0 12 -2l98 -31l108 31q6 2 14 2q15 0 23 -12t6 -26q-4 -25 -32 -35l-121 -42q-13 -3 -25 0z" />
<glyph unicode="&#x161;" horiz-adv-x="414" d="M38 43l16 93q3 16 6 24.5t14 16.5t31 8q15 0 23.5 -5.5t10 -11t2.5 -14.5q2 -17 5.5 -29.5t11.5 -26t24 -20.5t40 -7q95 0 105 59q7 42 -58 58q-34 4 -57 10q-18 4 -29.5 7t-35 13t-36.5 22t-22 33.5t-4 48.5q3 18 12.5 36.5t29.5 39.5t59 34t91 13q51 0 82 -16 q14 16 34 16q37 0 30 -49l-11 -67q-3 -16 -6 -24t-14 -16t-31 -8q-18 0 -26.5 7t-9.5 13.5t0 18.5q1 9 -0.5 15t-6.5 15t-19 13.5t-37 4.5q-93 0 -100 -46q-4 -22 21.5 -32.5t89.5 -22.5q149 -28 131 -137q-9 -53 -56.5 -94.5t-139.5 -41.5q-61 0 -97 28q-16 -28 -43 -28 q-37 0 -30 49zM152 586q3 15 16.5 27t29.5 12q10 0 17 -6l86 -58l106 58q11 6 19 6q16 0 25.5 -12t6.5 -27q-2 -20 -23 -31l-127 -72q-22 -13 -40 0l-103 72q-15 11 -13 31z" />
<glyph unicode="&#x162;" horiz-adv-x="758" d="M121 492l12 70q4 30 15.5 39.5t41.5 9.5h582q30 0 37.5 -10t2.5 -39l-12 -70q-3 -16 -6 -24.5t-14 -16.5t-31 -8q-19 0 -28 7.5t-8 18.5t2 23l7 42h-212l-76 -457h81q13 0 21.5 -1.5t16 -11t4.5 -26.5q-6 -38 -55 -38h-72q70 -28 59 -98q-6 -36 -30 -59.5t-63 -33 t-68.5 -12t-71.5 -2.5q-14 0 -24.5 9.5t-7.5 29.5q4 25 20.5 32t48.5 7q63 0 86.5 7t25.5 23q2 12 -10 20t-32 10q-17 1 -24.5 8.5t-7 17.5t1.5 21l3 20h-81q-10 0 -16 1t-14 4t-11 12t-1 22q6 38 55 38h81l76 457h-212l-7 -42q-3 -16 -6 -24.5t-14 -16.5t-31 -8 q-19 0 -28 7.5t-8 18.5t2 23z" />
<glyph unicode="&#x163;" horiz-adv-x="408" d="M69 -166q4 25 20.5 32t48.5 7q63 0 86.5 7t25.5 23q2 12 -10 20t-32 10q-17 1 -24.5 8.5t-7 17.5t1.5 21l4 21q-74 27 -57 127l39 231h-41q-13 0 -21.5 1.5t-16 10.5t-4.5 26q7 39 56 39h40l12 71q3 16 6 24.5t14 16.5t31 8q19 0 27.5 -7.5t8 -18.5t-1.5 -23l-12 -71h99 q13 0 21.5 -1.5t15.5 -11t4 -26.5q-6 -38 -54 -38h-99l-38 -225q-11 -63 29 -63q17 0 31.5 15.5t19.5 44.5q3 15 5.5 23t13.5 16t30 8q20 0 29 -7.5t8 -18t-2 -22.5q-8 -46 -37 -80t-69 -48q35 -12 53 -37.5t12 -62.5q-6 -36 -30 -59.5t-63 -33t-68.5 -12t-71.5 -2.5 q-14 0 -24.5 9.5t-7.5 29.5z" />
<glyph unicode="&#x164;" horiz-adv-x="758" d="M121 492l12 70q4 30 15.5 39.5t41.5 9.5h582q30 0 37.5 -10t2.5 -39l-12 -70q-3 -16 -6 -24.5t-14 -16.5t-31 -8q-19 0 -28 7.5t-8 18.5t2 23l7 42h-212l-76 -457h81q13 0 21.5 -1.5t16 -11t4.5 -26.5q-6 -38 -55 -38h-247q-10 0 -16 1t-14 4t-11 12t-1 22q6 38 55 38h81 l76 457h-212l-7 -42q-3 -16 -6 -24.5t-14 -16.5t-31 -8q-19 0 -28 7.5t-8 18.5t2 23zM367 687q-19 7 -20 25t13 33t31 15q8 0 12 -2l98 -31l108 31q6 2 14 2q15 0 23 -12t6 -26q-4 -25 -32 -35l-121 -42q-13 -3 -25 0z" />
<glyph unicode="&#x165;" horiz-adv-x="408" d="M81 397q7 39 56 39h40l12 71q3 16 6 24.5t14 16.5t31 8q19 0 27.5 -7.5t8 -18.5t-1.5 -23l-12 -71h99q13 0 21.5 -1.5t15.5 -11t4 -26.5q-6 -38 -54 -38h-99l-38 -225q-11 -63 29 -63q17 0 31.5 15.5t19.5 44.5q3 15 5.5 23t13.5 16t30 8q20 0 29 -7.5t8 -18t-2 -22.5 q-10 -59 -54.5 -97.5t-97.5 -38.5q-46 0 -77.5 31.5t-20.5 102.5l39 231h-41q-13 0 -21.5 1.5t-16 10.5t-4.5 26zM311 500q3 13 36 42q13 15 17 29q-33 8 -27 45q3 18 17.5 31t34.5 13q23 0 35.5 -18t6.5 -55q-8 -48 -41.5 -83t-51.5 -35q-13 0 -21 10t-6 21z" />
<glyph unicode="&#x168;" horiz-adv-x="758" d="M142 572q7 39 54 39h172q14 0 22 -1.5t15 -10.5t4 -27q-6 -38 -54 -38h-43l-53 -319q-12 -71 29.5 -110t101.5 -39q58 0 113 38.5t67 110.5l53 319h-43q-13 0 -21.5 1.5t-16 10.5t-4.5 26q7 39 55 39h172q13 0 21 -1.5t15 -10.5t4 -27q-6 -38 -53 -38h-44l-54 -325 q-16 -93 -97 -156.5t-181 -63.5q-98 0 -158 63t-45 157l54 325h-44q-12 0 -20.5 1.5t-16 10.5t-4.5 26zM338 683q3 22 61 60q51 34 86 34q37 0 67 -35q14 -18 21 -18q18 0 68 40q16 13 31 13t25 -12.5t8 -27.5q-3 -20 -61 -60q-51 -34 -87 -34q-35 0 -66 36q-16 18 -21 18 q-18 0 -69 -41q-17 -13 -31 -13q-15 0 -25 12.5t-7 27.5z" />
<glyph unicode="&#x169;" horiz-adv-x="583" d="M82 397q7 39 55 39h80q30 0 37.5 -10t2.5 -38l-44 -262q-1 -14 -1 -26t17.5 -20.5t54.5 -8.5q16 0 32.5 2.5t39.5 10.5t39.5 28t21.5 49l33 198h-44q-13 0 -21 1.5t-15.5 11t-4.5 26.5q7 38 54 38h81q29 0 37 -10t3 -38l-52 -311h43q14 0 22 -1.5t15 -10.5t4 -27 q-6 -38 -54 -38h-80q-13 0 -20 1t-14 7t-7 19q-58 -33 -132 -33q-27 0 -49 4t-47.5 15.5t-37 38.5t-4.5 68l40 239h-43q-13 0 -21.5 1.5t-16 10.5t-4.5 26zM198 510q3 22 61 60q51 34 87 34t66 -35q14 -18 21 -18q18 0 69 40q15 13 31 13q15 0 24.5 -12.5t7.5 -27.5 q-3 -22 -61 -60q-51 -34 -87 -34q-35 0 -66 36q-16 18 -21 18q-17 0 -68 -41q-19 -13 -32 -13q-15 0 -24.5 12.5t-7.5 27.5z" />
<glyph unicode="&#x16a;" horiz-adv-x="758" d="M142 572q7 39 54 39h172q14 0 22 -1.5t15 -10.5t4 -27q-6 -38 -54 -38h-43l-53 -319q-12 -71 29.5 -110t101.5 -39q58 0 113 38.5t67 110.5l53 319h-43q-13 0 -21.5 1.5t-16 10.5t-4.5 26q7 39 55 39h172q13 0 21 -1.5t15 -10.5t4 -27q-6 -38 -53 -38h-44l-54 -325 q-16 -93 -97 -156.5t-181 -63.5q-98 0 -158 63t-45 157l54 325h-44q-12 0 -20.5 1.5t-16 10.5t-4.5 26zM328 703q6 39 54 39h290q14 0 21.5 -1.5t14.5 -11t4 -27.5q-6 -39 -54 -39h-289q-13 0 -21.5 1.5t-15.5 11t-4 27.5z" />
<glyph unicode="&#x16b;" horiz-adv-x="583" d="M82 397q7 39 55 39h80q30 0 37.5 -10t2.5 -38l-44 -262q-1 -14 -1 -26t17.5 -20.5t54.5 -8.5q16 0 32.5 2.5t39.5 10.5t39.5 28t21.5 49l33 198h-44q-13 0 -21 1.5t-15.5 11t-4.5 26.5q7 38 54 38h81q29 0 37 -10t3 -38l-52 -311h43q14 0 22 -1.5t15 -10.5t4 -27 q-6 -38 -54 -38h-80q-13 0 -20 1t-14 7t-7 19q-58 -33 -132 -33q-27 0 -49 4t-47.5 15.5t-37 38.5t-4.5 68l40 239h-43q-13 0 -21.5 1.5t-16 10.5t-4.5 26zM190 538q6 39 53 39h290q14 0 22 -1.5t15 -11t4 -27.5q-7 -39 -54 -39h-289q-13 0 -21.5 1.5t-15.5 11t-4 27.5z" />
<glyph unicode="&#x16c;" horiz-adv-x="758" d="M142 572q7 39 54 39h172q14 0 22 -1.5t15 -10.5t4 -27q-6 -38 -54 -38h-43l-53 -319q-12 -71 29.5 -110t101.5 -39q58 0 113 38.5t67 110.5l53 319h-43q-13 0 -21.5 1.5t-16 10.5t-4.5 26q7 39 55 39h172q13 0 21 -1.5t15 -10.5t4 -27q-6 -38 -53 -38h-44l-54 -325 q-16 -93 -97 -156.5t-181 -63.5q-98 0 -158 63t-45 157l54 325h-44q-12 0 -20.5 1.5t-16 10.5t-4.5 26zM346 741q3 18 15.5 28.5t30.5 10.5q32 0 32 -35q2 -12 101 -12t105 12q4 11 7.5 16.5t13 12t23.5 6.5q38 0 32 -39q-5 -30 -25.5 -49t-53 -27t-57 -10t-58.5 -2 q-26 0 -45.5 1t-46 6t-42.5 13.5t-26 26t-6 41.5z" />
<glyph unicode="&#x16d;" horiz-adv-x="583" d="M82 397q7 39 55 39h80q30 0 37.5 -10t2.5 -38l-44 -262q-1 -14 -1 -26t17.5 -20.5t54.5 -8.5q16 0 32.5 2.5t39.5 10.5t39.5 28t21.5 49l33 198h-44q-13 0 -21 1.5t-15.5 11t-4.5 26.5q7 38 54 38h81q29 0 37 -10t3 -38l-52 -311h43q14 0 22 -1.5t15 -10.5t4 -27 q-6 -38 -54 -38h-80q-13 0 -20 1t-14 7t-7 19q-58 -33 -132 -33q-27 0 -49 4t-47.5 15.5t-37 38.5t-4.5 68l40 239h-43q-13 0 -21.5 1.5t-16 10.5t-4.5 26zM206 562q3 18 15 28.5t30 10.5q32 0 32 -35q2 -12 101 -12t105 12q4 11 7.5 16.5t13 12t23.5 6.5q39 0 33 -39 q-5 -30 -25.5 -49t-53.5 -26.5t-57.5 -10t-58.5 -2.5q-26 0 -45 1t-45.5 6t-42.5 13.5t-26 26t-6 41.5z" />
<glyph unicode="&#x16e;" horiz-adv-x="758" d="M142 572q7 39 54 39h172q14 0 22 -1.5t15 -10.5t4 -27q-6 -38 -54 -38h-43l-53 -319q-12 -71 29.5 -110t101.5 -39q58 0 113 38.5t67 110.5l53 319h-43q-13 0 -21.5 1.5t-16 10.5t-4.5 26q7 39 55 39h172q13 0 21 -1.5t15 -10.5t4 -27q-6 -38 -53 -38h-44l-54 -325 q-16 -93 -97 -156.5t-181 -63.5q-98 0 -158 63t-45 157l54 325h-44q-12 0 -20.5 1.5t-16 10.5t-4.5 26zM395 690q5 27 43 47t91 20q50 0 82.5 -20t27.5 -47t-43 -47t-91 -20q-50 0 -82.5 20t-27.5 47zM470 690q-3 -19 44 -19t50 19t-44 19t-50 -19z" />
<glyph unicode="&#x16f;" horiz-adv-x="583" d="M82 397q7 39 55 39h80q30 0 37.5 -10t2.5 -38l-44 -262q-1 -14 -1 -26t17.5 -20.5t54.5 -8.5q16 0 32.5 2.5t39.5 10.5t39.5 28t21.5 49l33 198h-44q-13 0 -21 1.5t-15.5 11t-4.5 26.5q7 38 54 38h81q29 0 37 -10t3 -38l-52 -311h43q14 0 22 -1.5t15 -10.5t4 -27 q-6 -38 -54 -38h-80q-13 0 -20 1t-14 7t-7 19q-58 -33 -132 -33q-27 0 -49 4t-47.5 15.5t-37 38.5t-4.5 68l40 239h-43q-13 0 -21.5 1.5t-16 10.5t-4.5 26zM262 559q5 27 43 47t91 20q50 0 82.5 -20t27.5 -47q-4 -26 -42.5 -46.5t-91.5 -20.5q-50 0 -82.5 20t-27.5 47z M337 559q-3 -19 44 -19t50 19t-44 19q-46 0 -50 -19z" />
<glyph unicode="&#x170;" horiz-adv-x="758" d="M142 572q7 39 54 39h172q14 0 22 -1.5t15 -10.5t4 -27q-6 -38 -54 -38h-43l-53 -319q-12 -71 29.5 -110t101.5 -39q58 0 113 38.5t67 110.5l53 319h-43q-13 0 -21.5 1.5t-16 10.5t-4.5 26q7 39 55 39h172q13 0 21 -1.5t15 -10.5t4 -27q-6 -38 -53 -38h-44l-54 -325 q-16 -93 -97 -156.5t-181 -63.5q-98 0 -158 63t-45 157l54 325h-44q-12 0 -20.5 1.5t-16 10.5t-4.5 26zM348 699q2 12 7 17.5t19 15.5l77 54q19 14 33 14q18 0 28.5 -12t7.5 -31t-28 -37l-77 -54q-18 -13 -30 -13q-16 0 -27.5 16t-9.5 30zM553 699q2 12 7 17.5t19 15.5 l77 54q19 14 33 14q18 0 28.5 -12t7.5 -31t-28 -37l-77 -54q-18 -13 -30 -13q-16 0 -27.5 16t-9.5 30z" />
<glyph unicode="&#x171;" horiz-adv-x="583" d="M82 397q7 39 55 39h80q30 0 37.5 -10t2.5 -38l-44 -262q-1 -14 -1 -26t17.5 -20.5t54.5 -8.5q16 0 32.5 2.5t39.5 10.5t39.5 28t21.5 49l33 198h-44q-13 0 -21 1.5t-15.5 11t-4.5 26.5q7 38 54 38h81q29 0 37 -10t3 -38l-52 -311h43q14 0 22 -1.5t15 -10.5t4 -27 q-6 -38 -54 -38h-80q-13 0 -20 1t-14 7t-7 19q-58 -33 -132 -33q-27 0 -49 4t-47.5 15.5t-37 38.5t-4.5 68l40 239h-43q-13 0 -21.5 1.5t-16 10.5t-4.5 26zM206 510q2 12 7 17.5t19 15.5l77 54q18 14 33 14q18 0 28.5 -12t7.5 -31q-3 -18 -28 -37l-77 -54q-18 -13 -31 -13 q-16 0 -27 16t-9 30zM411 510q2 12 7 17.5t19 15.5l77 54q18 14 33 14q18 0 28.5 -12t7.5 -31q-3 -18 -28 -37l-77 -54q-18 -13 -31 -13q-16 0 -27 16t-9 30z" />
<glyph unicode="&#x172;" horiz-adv-x="758" d="M142 572q7 39 54 39h172q14 0 22 -1.5t15 -10.5t4 -27q-6 -38 -54 -38h-43l-53 -319q-12 -71 29.5 -110t101.5 -39q58 0 113 38.5t67 110.5l53 319h-43q-13 0 -21.5 1.5t-16 10.5t-4.5 26q7 39 55 39h172q13 0 21 -1.5t15 -10.5t4 -27q-6 -38 -53 -38h-44l-54 -325 q-15 -90 -92.5 -152.5t-174.5 -67.5q-48 -33 -56 -87q-2 -13 7.5 -21t21.5 -8q10 0 21 7q55 47 78 32q8 -7 7.5 -23.5t-8.5 -24.5q-54 -61 -114 -61q-47 0 -71 31.5t-17 69.5q8 48 59 93q-73 19 -114 77t-28 135l54 325h-44q-12 0 -20.5 1.5t-16 10.5t-4.5 26z" />
<glyph unicode="&#x173;" horiz-adv-x="583" d="M82 397q7 39 55 39h81q29 0 36.5 -10t2.5 -38l-44 -262q-1 -14 -1 -26t17.5 -20.5t54.5 -8.5q16 0 32.5 2.5t39.5 10.5t39.5 28t21.5 49l33 198h-43q-13 0 -21.5 1.5t-16 11t-4.5 26.5q7 38 55 38h80q30 0 37.5 -10t2.5 -38l-52 -311h44q13 0 21 -1.5t15 -10.5t4 -27 q-6 -38 -53 -38h-16q-63 -32 -73 -98q-2 -13 7.5 -21t21.5 -8q10 0 21 7q55 47 78 32q8 -7 7.5 -23.5t-8.5 -24.5q-54 -61 -114 -61q-47 0 -71 31.5t-17 69.5q9 51 64 97q-21 4 -22 26q-58 -33 -132 -33q-27 0 -49 4t-47 15.5t-36.5 38.5t-4.5 68l40 239h-44 q-12 0 -20.5 1.5t-16.5 10.5t-5 26z" />
<glyph unicode="&#x174;" horiz-adv-x="1050" d="M126 573q6 38 54 38h131q13 0 21.5 -1.5t16 -11t4.5 -26.5q-6 -38 -55 -38h-29l61 -453l229 491q12 26 26.5 32.5t41.5 6.5q16 0 24.5 -1.5t18 -10.5t11.5 -27l66 -491l211 453h-29q-12 0 -20.5 1.5t-17 11t-5.5 25.5q7 39 56 39h131q9 0 15 -1t14 -4t11 -12t1 -22 q-6 -38 -54 -38h-27l-234 -503q-8 -18 -20.5 -27t-21.5 -10.5t-25 -1.5q-31 0 -41 8t-13 35l-67 489l-228 -490q-13 -28 -27 -35t-41 -7q-44 0 -53 27l-68 515h-27q-12 0 -20.5 1.5t-16 11t-4.5 26.5zM487 681q5 25 32 35l121 42q14 3 25 0l107 -42q20 -7 20.5 -25t-13 -33 t-30.5 -15q-8 0 -13 2l-97 31l-109 -31q-5 -2 -13 -2q-15 0 -23.5 12t-6.5 26z" />
<glyph unicode="&#x175;" horiz-adv-x="758" d="M90 398q7 38 56 38h131q13 0 21.5 -1.5t16 -11t4.5 -26.5q-6 -38 -55 -38h-31l29 -266l132 302q10 23 22.5 32t37.5 9q19 0 29 -7t12 -13t4 -20l32 -296l113 259h-31q-13 0 -21.5 1.5t-16.5 11t-5 26.5q7 38 56 38h131q13 0 21.5 -1.5t16 -11t4.5 -26.5q-6 -38 -55 -38 h-25l-143 -323q-8 -18 -19 -27.5t-20.5 -11t-26.5 -1.5q-34 0 -42.5 10t-11.5 44l-21 273l-128 -303q-16 -24 -60 -24q-19 0 -28 1.5t-17 11t-10 28.5l-34 322h-25q-13 0 -21.5 1.5t-16.5 11t-5 26.5zM311 502q4 20 23 31l127 72q22 13 40 0l103 -72q24 -18 8 -44t-41 -26 q-8 0 -17 6l-86 58l-106 -58q-9 -6 -19 -6q-16 0 -25.5 12t-6.5 27z" />
<glyph unicode="&#x176;" horiz-adv-x="758" d="M127 573q6 38 55 38h151q13 0 21.5 -1.5t16 -11t4.5 -26.5q-6 -38 -55 -38h-5l118 -206l187 206h-5q-13 0 -21.5 1.5t-16 11t-4.5 26.5q6 38 55 38h151q13 0 21.5 -1.5t16 -11t4.5 -26.5q-6 -38 -55 -38h-42l-262 -291l-28 -166h43q14 0 22 -1.5t15 -10.5t4 -27 q-6 -38 -54 -38h-171q-13 0 -21.5 1.5t-16 10.5t-4.5 26q7 39 55 39h43l28 166l-166 291h-42q-13 0 -21.5 1.5t-16 11t-4.5 26.5zM341 681q5 25 32 35l121 42q14 3 25 0l107 -42q20 -7 20.5 -25t-13 -33t-30.5 -15q-8 0 -13 2l-97 31l-109 -31q-5 -2 -13 -2q-15 0 -23.5 12 t-6.5 26z" />
<glyph unicode="&#x177;" horiz-adv-x="554" d="M-3 -133q4 23 19.5 37t39.5 14q21 0 34 -13.5t9 -37.5l-3 -12q30 0 55.5 14t37 28t25.5 35l40 77l-85 350h-34q-13 0 -21.5 1.5t-16.5 11t-5 26.5q7 38 56 38h136q13 0 21 -1.5t15 -10.5t4 -27q-6 -38 -53 -38h-24l58 -257l127 257h-28q-12 0 -20.5 1.5t-16.5 10.5t-5 26 q7 39 55 39h137q13 0 21 -1.5t15 -10.5t4 -27q-6 -38 -53 -38h-33l-221 -434q-28 -56 -83 -101t-119 -45q-45 0 -69.5 26t-18.5 62zM209 502q4 20 23 31l127 72q22 13 40 0l103 -72q24 -18 8 -44t-41 -26q-8 0 -17 6l-86 58l-106 -58q-9 -6 -19 -6q-16 0 -25.5 12t-6.5 27z " />
<glyph unicode="&#x178;" horiz-adv-x="758" d="M127 573q6 38 55 38h151q13 0 21.5 -1.5t16 -11t4.5 -26.5q-6 -38 -55 -38h-5l118 -206l187 206h-5q-13 0 -21.5 1.5t-16 11t-4.5 26.5q6 38 55 38h151q13 0 21.5 -1.5t16 -11t4.5 -26.5q-6 -38 -55 -38h-42l-262 -291l-28 -166h43q14 0 22 -1.5t15 -10.5t4 -27 q-6 -38 -54 -38h-171q-13 0 -21.5 1.5t-16 10.5t-4.5 26q7 39 55 39h43l28 166l-166 291h-42q-13 0 -21.5 1.5t-16 11t-4.5 26.5zM345 695q3 21 20.5 37t41.5 16q21 0 33.5 -16t9.5 -37q-4 -21 -21 -36.5t-41 -15.5q-21 0 -34 15t-9 37zM542 695q3 21 20.5 37t41.5 16 q21 0 33.5 -16t9.5 -37q-4 -21 -21 -36.5t-41 -15.5q-21 0 -34 15t-9 37z" />
<glyph unicode="&#x179;" horiz-adv-x="642" d="M64 42q3 21 20 36l467 456h-306l-7 -42q-3 -16 -6 -24.5t-14 -16.5t-31 -8q-19 0 -28 7.5t-8 18.5t2 23l12 70q4 30 15.5 39.5t41.5 9.5h416q11 0 17.5 -1t14 -4.5t9.5 -12.5t0 -24q-3 -21 -20 -36l-467 -456h327l10 61q3 16 5.5 24t13.5 16.5t31 8.5q19 0 28 -7.5 t8 -18.5t-2 -23l-15 -89q-5 -29 -15.5 -39t-39.5 -10h-438q-11 0 -17 1t-14 4.5t-10 12.5t0 24zM326 701q2 15 10.5 22.5t25.5 13.5l138 58l23 6q18 0 28.5 -12t7.5 -31q-4 -27 -40 -42l-138 -57q-16 -6 -22 -6q-20 0 -27.5 18t-5.5 30z" />
<glyph unicode="&#x17a;" horiz-adv-x="467" d="M33 43q3 15 8 24l317 292h-173l-3 -16q-3 -16 -6 -24.5t-14 -16.5t-31 -8q-19 0 -28 7.5t-8 18.5t2 23l8 45q4 29 15.5 38.5t41.5 9.5h285q16 0 24 -1.5t14 -11.5t3 -30q-3 -15 -8 -24l-317 -292h191l5 28q3 16 5.5 24t13.5 16t31 8q19 0 27.5 -7.5t8 -18t-1.5 -22.5 l-10 -56q-5 -29 -15.5 -39t-39.5 -10h-304q-16 0 -24 1.5t-14 11.5t-3 30zM207 511q4 24 36 36l139 58l23 6q18 0 28.5 -12t7.5 -31q-4 -27 -40 -42l-139 -57q-14 -6 -22 -6q-20 0 -27 17t-6 31z" />
<glyph unicode="&#x17b;" horiz-adv-x="642" d="M64 42q3 21 20 36l467 456h-306l-7 -42q-3 -16 -6 -24.5t-14 -16.5t-31 -8q-19 0 -28 7.5t-8 18.5t2 23l12 70q4 30 15.5 39.5t41.5 9.5h416q11 0 17.5 -1t14 -4.5t9.5 -12.5t0 -24q-3 -21 -20 -36l-467 -456h327l10 61q3 16 5.5 24t13.5 16.5t31 8.5q19 0 28 -7.5 t8 -18.5t-2 -23l-15 -89q-5 -29 -15.5 -39t-39.5 -10h-438q-11 0 -17 1t-14 4.5t-10 12.5t0 24zM382 711q3 23 22.5 40t44.5 17q23 0 37.5 -17t10.5 -40q-4 -22 -23.5 -39.5t-44.5 -17.5q-23 0 -37 17t-10 40z" />
<glyph unicode="&#x17c;" horiz-adv-x="467" d="M33 43q3 15 8 24l317 292h-173l-3 -16q-3 -16 -6 -24.5t-14 -16.5t-31 -8q-19 0 -28 7.5t-8 18.5t2 23l8 45q4 29 15.5 38.5t41.5 9.5h285q16 0 24 -1.5t14 -11.5t3 -30q-3 -15 -8 -24l-317 -292h191l5 28q3 16 5.5 24t13.5 16t31 8q19 0 27.5 -7.5t8 -18t-1.5 -22.5 l-10 -56q-5 -29 -15.5 -39t-39.5 -10h-304q-16 0 -24 1.5t-14 11.5t-3 30zM266 537q3 23 22.5 40t44.5 17q23 0 37.5 -17t10.5 -40q-4 -22 -23.5 -39.5t-44.5 -17.5q-23 0 -37 17t-10 40z" />
<glyph unicode="&#x17d;" horiz-adv-x="642" d="M64 42q3 21 20 36l467 456h-306l-7 -42q-3 -16 -6 -24.5t-14 -16.5t-31 -8q-19 0 -28 7.5t-8 18.5t2 23l12 70q4 30 15.5 39.5t41.5 9.5h416q11 0 17.5 -1t14 -4.5t9.5 -12.5t0 -24q-3 -21 -20 -36l-467 -456h327l10 61q3 16 5.5 24t13.5 16.5t31 8.5q19 0 28 -7.5 t8 -18.5t-2 -23l-15 -89q-5 -29 -15.5 -39t-39.5 -10h-438q-11 0 -17 1t-14 4.5t-10 12.5t0 24zM308 687q-19 7 -20 25t13 33t31 15q8 0 12 -2l98 -31l108 31q6 2 14 2q15 0 23 -12t6 -26q-4 -25 -32 -35l-121 -42q-12 -3 -25 0z" />
<glyph unicode="&#x17e;" horiz-adv-x="467" d="M33 43q3 15 8 24l317 292h-173l-3 -16q-3 -16 -6 -24.5t-14 -16.5t-31 -8q-19 0 -28 7.5t-8 18.5t2 23l8 45q4 29 15.5 38.5t41.5 9.5h285q16 0 24 -1.5t14 -11.5t3 -30q-3 -15 -8 -24l-317 -292h191l5 28q3 16 5.5 24t13.5 16t31 8q19 0 27.5 -7.5t8 -18t-1.5 -22.5 l-10 -56q-5 -29 -15.5 -39t-39.5 -10h-304q-16 0 -24 1.5t-14 11.5t-3 30zM176 572q3 15 16.5 27t29.5 12q10 0 17 -6l86 -58l106 58q11 6 19 6q16 0 25.5 -12t6.5 -27q-2 -20 -23 -31l-127 -72q-22 -13 -40 0l-103 72q-15 11 -13 31z" />
<glyph unicode="&#x17f;" horiz-adv-x="321" d="M19 38q7 39 55 39h44l47 282h-34q-12 0 -20.5 1.5t-16 10.5t-4.5 26q7 39 55 39h33l7 43q11 64 64 101t119 37q11 0 23 -1.5t31 -7t29.5 -20.5t6.5 -38t-22.5 -37.5t-37.5 -14.5q-21 0 -32.5 14t-9.5 28q-77 0 -88 -67l-66 -396h67q13 0 21.5 -1.5t15.5 -11t4 -26.5 q-6 -38 -54 -38h-195q-13 0 -21 1.5t-16 10.5t-5 26z" />
<glyph unicode="&#x18e;" horiz-adv-x="700" d="M54 49l15 86q2 15 5 24t14.5 17t30.5 8q20 0 29 -7.5t8 -18.5t-2 -23l-10 -58h363l33 201h-176q-5 -32 -15 -44t-37 -12q-19 0 -27.5 7.5t-7.5 18.5t2 23l15 90q3 15 5.5 23.5t13.5 17t30 8.5q27 0 33.5 -11.5t0.5 -43.5h176l30 179h-335l-7 -42q-2 -11 -4 -17.5t-7 -15 t-14.5 -12.5t-24.5 -4q-20 0 -29 7.5t-8 18.5t2 23l12 70q5 29 16 39t40 10h500q14 0 22 -1.5t15 -10.5t4 -27q-6 -38 -54 -38h-43l-76 -457h43q14 0 22 -1.5t15 -10.5t4 -27q-6 -38 -54 -38h-528q-29 0 -37 10t-3 39z" />
<glyph unicode="&#x192;" horiz-adv-x="321" d="M19 38q7 39 55 39h44l47 282h-34q-12 0 -20.5 1.5t-16 10.5t-4.5 26q7 39 55 39h33l7 43q11 64 64 101t119 37q11 0 23 -1.5t31 -7t29.5 -20.5t6.5 -38t-22.5 -37.5t-37.5 -14.5q-36 0 -42 42q-77 0 -88 -67l-6 -37h70q13 0 21.5 -1.5t15.5 -11t4 -26.5q-6 -38 -54 -38 h-70l-47 -282h67q13 0 21.5 -1.5t15.5 -11t4 -26.5q-6 -38 -54 -38h-195q-13 0 -21 1.5t-16 10.5t-5 26z" />
<glyph unicode="&#x1a0;" horiz-adv-x="816" d="M110 305q10 63 47 121.5t92 102.5q119 93 262 93q76 0 144 -30q9 6 22 6q3 0 9 4q-24 16 -17 49q3 22 22 39t44 18q30 -1 39.5 -23t5.5 -52q-10 -59 -53 -89q10 -10 14 -15q87 -90 65 -224q-22 -131 -139 -223q-117 -93 -262 -93q-142 0 -230 93q-41 43 -58 101.5 t-7 121.5zM198 318q-17 -106 47 -179q65 -73 173 -73t198 73q49 41 80 98t28.5 123.5t-50.5 117.5q-69 67 -176 67q-109 0 -197 -67t-103 -160z" />
<glyph unicode="&#x1a1;" d="M72 218q16 94 92 159q78 67 171 67q55 0 99 -24q8 4 17 4q5 0 8 3q-23 16 -18 48q4 23 23 39.5t44 17.5q30 0 40 -22t5 -52q-10 -62 -58 -94q42 -62 28 -146q-14 -93 -92 -158q-79 -66 -171 -66t-149 66q-53 64 -39 158zM158 226q-11 -65 24 -109q33 -45 91 -45 q61 0 111 49q27 26 43 60t15 74t-27 71q-35 41 -93 41q-57 0 -107 -41q-48 -45 -57 -100z" />
<glyph unicode="&#x1af;" horiz-adv-x="758" d="M143 575q1 9 7 17.5t15 13.5t19 5h196q17 0 24.5 -12t4.5 -29q-2 -15 -14.5 -25.5t-27.5 -10.5h-56l-54 -327q-11 -58 32 -102q36 -39 100 -39q66 0 122 46q48 40 57 95l54 327h-55q-17 0 -24.5 12t-4.5 29q2 15 14.5 25.5t27.5 10.5h104q8 0 13 -3q-23 31 -2 65t58 35 q29 -1 39 -22.5t6 -51.5q-6 -35 -31.5 -62.5t-59.5 -38.5l-54 -326q-15 -92 -98 -155q-81 -63 -179 -63q-99 0 -157 63q-62 62 -46 155l54 327h-56q-17 0 -24 12t-4 29z" />
<glyph unicode="&#x1b0;" horiz-adv-x="583" d="M82 399q2 15 15 25.5t28 10.5h104q15 0 23.5 -10.5t6.5 -25.5l-48 -283q-3 -20 8.5 -30.5t26 -12t42.5 -1.5q48 0 84.5 22.5t41.5 56.5l35 207h-55q-17 0 -24.5 12t-4.5 29q2 15 14.5 25.5t27.5 10.5h104q9 0 16 -4l3 2q-14 16 -11 42q4 23 23 40t44 17q29 0 39 -22 t6 -51q-7 -36 -33 -63t-63 -39l-47 -280h55q14 0 23 -10.5t7 -25.5q-3 -17 -15 -29t-28 -12h-105q-12 0 -20.5 8t-9.5 19q-58 -33 -125 -33q-75 0 -112 27q-42 31 -32 95l41 242h-55q-17 0 -25 12t-5 29z" />
<glyph unicode="&#x1dd;" horiz-adv-x="467" d="M70 209q3 21 12.5 31t17.5 11.5t25 1.5h269q-4 52 -39.5 83.5t-86.5 31.5q-66 0 -97 -53q-15 -27 -45 -27q-8 0 -15.5 1.5t-16 10t-5.5 24.5q6 33 59.5 77t138.5 44q95 0 150 -66t39 -161q-15 -92 -88 -158t-162 -66q-91 0 -131.5 60.5t-24.5 154.5zM152 178 q-3 -59 22.5 -83t64.5 -24q43 0 82.5 30t58.5 77h-228z" />
<glyph unicode="&#x1e6;" horiz-adv-x="817" d="M110 306q21 128 137.5 222t264.5 94q122 0 193 -56q4 7 10 15.5t8 11.5q18 29 43 29q37 0 30 -49l-23 -135q-3 -16 -6 -24t-14 -16t-31 -8q-34 0 -36 29q-5 62 -53 94q-50 32 -127 32q-114 0 -204 -70.5t-107 -169.5q-17 -98 50 -168.5t177 -70.5q72 0 133.5 38t88.5 99 h-75q-13 0 -21 1.5t-15.5 10.5t-4.5 27q6 38 54 38h187q13 0 21.5 -1.5t16 -11t4.5 -26.5q-6 -38 -55 -38h-22l-26 -154q-2 -11 -4 -17.5t-7 -15t-14.5 -12.5t-24.5 -4q-20 0 -29 7.5t-8 18.5t2 23l3 15q-99 -75 -222 -75q-143 0 -229.5 93t-64.5 224zM396 687q-19 7 -20 25 t13 33t31 15q8 0 12 -2l98 -31l108 31q6 2 14 2q15 0 23 -12t6 -26q-4 -25 -32 -35l-121 -42q-12 -3 -25 0z" />
<glyph unicode="&#x1e7;" d="M15 -71q14 78 89 123q-13 31 -7 67q7 40 28 66q-22 40 -14 93q11 66 68.5 115t128.5 49q50 0 89 -27q52 32 109 32q41 0 57.5 -19t11.5 -42q-3 -24 -20.5 -36.5t-35.5 -12.5q-11 0 -23 7.5t-15 24.5q-19 -2 -40 -10q16 -37 8 -81q-11 -68 -68.5 -116.5t-127.5 -48.5 q-44 0 -79 20l-4 -14q-2 -19 4 -30q7 -10 25 -10q7 -2 27 -2h68q90 0 140 -29q33 -19 45 -52.5t6 -66.5q-10 -64 -86 -107.5t-174 -43.5t-159 43t-51 108zM89 -71q-5 -31 38 -53.5t110 -22.5t118 22.5t56 53.5q3 18 -2 31.5t-20 21.5t-29 12.5t-39.5 6.5t-40.5 2.5t-43 0.5 q-53 0 -68.5 -2t-33.5 -12q-39 -23 -46 -61zM171 588q3 15 16.5 27t29.5 12q9 0 17 -6l86 -58l106 58q11 6 19 6q16 0 25.5 -12t6.5 -27q-2 -20 -23 -31l-127 -72q-22 -13 -40 0l-103 72q-15 11 -13 31zM194 277q-6 -36 14.5 -62.5t55.5 -26.5t64.5 26.5t35.5 63.5 q6 36 -14 62t-56 26q-35 0 -64 -26t-36 -63z" />
<glyph unicode="&#x1ea;" horiz-adv-x="817" d="M110 306q21 128 138 222t264 94q146 0 232 -93t64 -224q-20 -119 -125 -210t-242 -104q-48 -35 -57 -89q-2 -12 8 -20.5t21 -8.5t21 7q55 47 79 32q8 -7 7 -23.5t-9 -24.5q-52 -61 -114 -61q-47 0 -71 31.5t-17 69.5q7 45 54 88q-128 14 -200.5 104t-52.5 210zM197 317 q-17 -103 47.5 -177t174.5 -74t199.5 74t106.5 177q16 93 -50 160.5t-176 67.5t-198 -67t-104 -161z" />
<glyph unicode="&#x1eb;" d="M73 219q15 93 92 159.5t171 66.5t149 -66.5t40 -159.5q-15 -86 -82 -149t-153 -74q-56 -33 -65 -94q-2 -13 7.5 -21t21.5 -8q10 0 20 7q55 47 79 32q8 -7 7.5 -23.5t-8.5 -24.5q-54 -61 -114 -61q-47 0 -71 31.5t-17 69.5q9 51 63 95q-74 17 -113.5 78.5t-26.5 141.5z M158 225q-11 -63 23 -108.5t93 -45.5t108 45.5t60 108.5q10 61 -25.5 102t-93.5 41t-106.5 -41t-58.5 -102z" />
<glyph unicode="&#x1f4;" horiz-adv-x="817" d="M110 306q21 128 137.5 222t264.5 94q122 0 193 -56q4 7 10 15.5t8 11.5q18 29 43 29q37 0 30 -49l-23 -135q-3 -16 -6 -24t-14 -16t-31 -8q-34 0 -36 29q-5 62 -53 94q-50 32 -127 32q-114 0 -204 -70.5t-107 -169.5q-17 -98 50 -168.5t177 -70.5q72 0 133.5 38t88.5 99 h-75q-13 0 -21 1.5t-15.5 10.5t-4.5 27q6 38 54 38h187q13 0 21.5 -1.5t16 -11t4.5 -26.5q-6 -38 -55 -38h-22l-26 -154q-2 -11 -4 -17.5t-7 -15t-14.5 -12.5t-24.5 -4q-20 0 -29 7.5t-8 18.5t2 23l3 15q-99 -75 -222 -75q-143 0 -229.5 93t-64.5 224zM414 701 q2 15 10.5 22.5t25.5 13.5l138 58l23 6q18 0 28.5 -12t7.5 -31q-4 -27 -40 -42l-138 -57q-16 -6 -22 -6q-20 0 -27.5 18t-5.5 30z" />
<glyph unicode="&#x1f5;" d="M15 -71q14 78 89 123q-13 31 -7 67q7 40 28 66q-22 40 -14 93q11 66 68.5 115t128.5 49q50 0 89 -27q52 32 109 32q41 0 57.5 -19t11.5 -42q-3 -24 -20.5 -36.5t-35.5 -12.5q-11 0 -23 7.5t-15 24.5q-19 -2 -40 -10q16 -37 8 -81q-11 -68 -68.5 -116.5t-127.5 -48.5 q-44 0 -79 20l-4 -14q-2 -19 4 -30q7 -10 25 -10q7 -2 27 -2h68q90 0 140 -29q33 -19 45 -52.5t6 -66.5q-10 -64 -86 -107.5t-174 -43.5t-159 43t-51 108zM89 -71q-5 -31 38 -53.5t110 -22.5t118 22.5t56 53.5q3 18 -2 31.5t-20 21.5t-29 12.5t-39.5 6.5t-40.5 2.5t-43 0.5 q-53 0 -68.5 -2t-33.5 -12q-39 -23 -46 -61zM194 277q-6 -36 14.5 -62.5t55.5 -26.5t64.5 26.5t35.5 63.5q6 36 -14 62t-56 26q-35 0 -64 -26t-36 -63zM202 527q4 24 36 36l139 58l23 6q18 0 28.5 -12t7.5 -31q-4 -27 -40 -42l-139 -57q-14 -6 -22 -6q-20 0 -27 17t-6 31z " />
<glyph unicode="&#x1fa;" horiz-adv-x="758" d="M49 39q6 38 54 38h38l267 508q13 25 28.5 31.5t36.5 6.5h9q-50 0 -82.5 20t-27.5 47t43 47t91 20q50 0 82.5 -20t27.5 -47t-43 -47t-91 -20h10q15 0 23 -1.5t17 -10.5t12 -27l98 -507h38q14 0 22 -1.5t15 -10.5t4 -27q-6 -38 -54 -38h-154q-13 0 -21.5 1.5t-16 11 t-4.5 26.5q6 38 55 38h26l-17 90h-257l-47 -90h26q13 0 21.5 -1.5t16 -11t4.5 -26.5q-6 -38 -55 -38h-154q-14 0 -22 1.5t-15 10.5t-4 27zM319 244h201l-54 282zM404 825q4 24 36 36l139 58l23 6q18 0 28.5 -12t7.5 -31q-4 -27 -40 -42l-139 -57q-14 -6 -22 -6q-20 0 -27 17 t-6 31zM447 690q-3 -19 44 -19t50 19t-44 19t-50 -19z" />
<glyph unicode="&#x1fb;" horiz-adv-x="510" d="M73 133q11 68 93.5 109t214.5 44q4 42 -22 62t-75 20l-44 -3q-5 -28 -23 -40.5t-37 -12.5q-22 0 -35 14t-9 39q14 80 160 80q98 0 139 -48t31 -111l-34 -204q10 -5 45 -5q12 0 20.5 -1.5t16 -10.5t4.5 -26q-5 -25 -19.5 -32t-43.5 -7q-78 0 -99 28q-62 -34 -142 -34 q-72 0 -111 41.5t-30 97.5zM156 133q-4 -26 17.5 -44t59.5 -18q46 0 80 15q17 7 26.5 17t11.5 16.5t4 19.5l12 72q-100 -4 -152.5 -25t-58.5 -53zM228 573q5 27 43 47t91 20q50 0 82.5 -20t27.5 -47q-4 -26 -42.5 -46.5t-91.5 -20.5q-50 0 -82.5 20t-27.5 47zM261 708 q2 15 10.5 22.5t25.5 13.5l138 58l23 6q18 0 28.5 -12t7.5 -31q-4 -27 -40 -42l-138 -57q-16 -6 -22 -6q-20 0 -27.5 18t-5.5 30zM303 573q-3 -19 44 -19t50 19t-44 19t-50 -19z" />
<glyph unicode="&#x1fc;" horiz-adv-x="933" d="M55 39q6 38 54 38h40l276 457h-3q-12 0 -20.5 1.5t-16.5 10.5t-5 26q7 39 55 39h491q29 0 36.5 -10t2.5 -39l-12 -70q-3 -16 -5.5 -24t-13.5 -16.5t-31 -8.5q-19 0 -28 7.5t-8 18.5t2 23l7 42h-242l-30 -179h125q7 33 16 44t36 11q19 0 28 -7.5t8 -18.5t-2 -23l-15 -90 q-2 -11 -4 -17.5t-7 -15t-14.5 -12.5t-24.5 -4q-27 0 -32.5 11.5t-1.5 44.5h-125l-33 -201h270l10 58q3 16 6 24.5t14 16.5t31 8q19 0 27.5 -7.5t7.5 -18.5t-2 -23l-15 -86q-5 -29 -15.5 -39t-39.5 -10h-412q-12 0 -21 1.5t-17 10.5t-5 26q7 39 56 39h20l17 101h-188 l-61 -101h23q13 0 21 -1.5t15 -10.5t4 -27q-6 -38 -53 -38h-155q-13 0 -21.5 1.5t-15.5 11t-4 26.5zM346 255h155l46 279h-32zM472 701q2 15 10.5 22.5t25.5 13.5l138 58l23 6q18 0 28.5 -12t7.5 -31q-4 -27 -40 -42l-138 -57q-16 -6 -22 -6q-20 0 -27.5 18t-5.5 30z" />
<glyph unicode="&#x1fd;" horiz-adv-x="758" d="M75 123q7 41 43.5 70t91 42t92.5 17.5t78 6.5l4 21q7 43 -18.5 65.5t-78.5 22.5q-22 0 -36 -1l-8 -2q-5 -28 -23.5 -40.5t-36.5 -12.5q-22 0 -35 14t-9 39q14 80 160 80q115 0 156 -72q78 72 165 72q85 0 123 -60t23 -154q-4 -21 -13 -31.5t-17.5 -12t-25.5 -1.5h-254 q3 -52 38.5 -83.5t84.5 -31.5q56 0 86 53q15 27 44 27q8 0 15.5 -1.5t16 -10t5.5 -24.5q-5 -32 -56.5 -76.5t-129.5 -44.5q-97 0 -152 71q-32 -40 -86.5 -55.5t-104.5 -15.5q-73 0 -112 38.5t-30 90.5zM155 124q-4 -23 18.5 -38t60.5 -15q44 0 81 14q38 14 44 47l6 51 q-80 -4 -123 -13q-82 -18 -87 -46zM355 525q4 24 36 36l139 58l23 6q18 0 28.5 -12t7.5 -31q-4 -27 -40 -42l-139 -57q-14 -6 -22 -6q-20 0 -27 17t-6 31zM474 261h215q2 47 -16 77t-61 30q-40 0 -79 -29.5t-59 -77.5z" />
<glyph unicode="&#x1fe;" horiz-adv-x="817" d="M110 -44q1 12 21 35l64 71q-57 51 -76.5 115.5t-8.5 128.5q21 128 138 222t264 94q62 0 151 -34l73 83q19 23 40 23q14 0 24.5 -10.5t7.5 -28.5q-1 -12 -17 -30l-68 -76q57 -51 76.5 -115.5t8.5 -128.5q-21 -128 -138 -222t-264 -94q-86 0 -151 34l-75 -85 q-20 -21 -38 -21q-14 0 -24.5 11t-7.5 28zM180 305q-9 -55 10.5 -102.5t56.5 -79.5l357 402q-56 20 -107 20q-116 0 -208 -70.5t-109 -169.5zM314 86q56 -20 107 -20q116 0 208 70.5t109 169.5q9 57 -11 105t-57 77zM414 701q2 15 10.5 22.5t25.5 13.5l138 58l23 6 q18 0 28.5 -12t7.5 -31q-4 -27 -40 -42l-138 -57q-16 -6 -22 -6q-20 0 -27.5 18t-5.5 30z" />
<glyph unicode="&#x1ff;" d="M25 -98q1 9 23 41l79 105q-66 69 -48 171q15 93 90.5 159.5t166.5 66.5q34 0 77 -15l89 119q15 23 37 23q13 0 24.5 -10.5t8.5 -27.5q0 -8 -12 -25l-89 -120q63 -73 48 -170q-16 -94 -92 -159.5t-166 -65.5q-40 0 -75 14l-91 -121q-16 -23 -38 -23q-13 0 -24 10.5 t-8 27.5zM150 219q-10 -60 25 -105l186 249q-14 5 -40 5q-60 0 -110.5 -44t-60.5 -105zM231 511q4 24 36 36l139 58l23 6q18 0 28.5 -12t7.5 -31q-4 -27 -40 -42l-139 -57q-14 -6 -22 -6q-20 0 -27 17t-6 31zM239 75q13 -4 37 -4q60 0 111 43t61 105q10 60 -25 104z" />
<glyph unicode="&#x200;" horiz-adv-x="758" d="M49 39q6 38 54 38h38l267 508q13 25 28.5 31.5t36.5 6.5h19q15 0 23 -1.5t17 -10.5t12 -27l98 -507h38q14 0 22 -1.5t15 -10.5t4 -27q-6 -38 -54 -38h-154q-13 0 -21.5 1.5t-16 11t-4.5 26.5q6 38 55 38h26l-17 90h-257l-47 -90h26q13 0 21.5 -1.5t16 -11t4.5 -26.5 q-6 -38 -55 -38h-154q-14 0 -22 1.5t-15 10.5t-4 27zM280 757q3 19 17.5 31t32.5 12q15 0 29 -14l59 -54q17 -17 14 -33q-2 -14 -18.5 -30t-32.5 -16q-13 0 -26 13l-59 54q-19 19 -16 37zM319 244h201l-54 282zM485 757q3 19 17.5 31t32.5 12q15 0 29 -14l59 -54 q17 -17 14 -33q-2 -14 -18.5 -30t-32.5 -16q-13 0 -26 13l-59 54q-19 19 -16 37z" />
<glyph unicode="&#x201;" horiz-adv-x="510" d="M73 133q11 68 93.5 109t214.5 44q4 42 -22 62t-75 20l-44 -3q-5 -28 -23 -40.5t-37 -12.5q-22 0 -35 14t-9 39q14 80 160 80q98 0 139 -48t31 -111l-34 -204q10 -5 45 -5q12 0 20.5 -1.5t16 -10.5t4.5 -26q-5 -25 -19.5 -32t-43.5 -7q-78 0 -99 28q-62 -34 -142 -34 q-72 0 -111 41.5t-30 97.5zM156 133q-4 -26 17.5 -44t59.5 -18q46 0 80 15q17 7 26.5 17t11.5 16.5t4 19.5l12 72q-100 -4 -152.5 -25t-58.5 -53zM156 582q3 19 17.5 31t32.5 12q14 0 29 -14l59 -54q17 -17 14 -33q-2 -14 -19 -30t-33 -16q-12 0 -25 13l-59 54 q-19 17 -16 37zM361 582q3 19 17.5 31t32.5 12q14 0 29 -14l59 -54q17 -17 14 -33q-2 -14 -19 -30t-33 -16q-12 0 -25 13l-59 54q-19 17 -16 37z" />
<glyph unicode="&#x204;" horiz-adv-x="700" d="M52 38q7 39 55 39h43l76 457h-43q-12 0 -20.5 1.5t-16.5 10.5t-5 26q7 39 55 39h500q29 0 37 -10t3 -39l-12 -70q-3 -16 -6 -24.5t-14 -16.5t-31 -8q-19 0 -28 7.5t-8 18.5t2 23l7 42h-335l-30 -179h176q6 32 15.5 43.5t36.5 11.5q19 0 27.5 -7.5t7.5 -18.5t-2 -23 l-15 -90q-3 -15 -5.5 -23.5t-13.5 -17t-30 -8.5q-27 0 -33 11.5t-1 44.5h-176l-33 -201h363l10 58q3 16 6 24.5t14 16.5t31 8q19 0 27.5 -7.5t8 -18.5t-1.5 -23l-15 -86q-5 -29 -16 -39t-40 -10h-528q-13 0 -21 1.5t-16 10.5t-5 26zM280 757q3 19 17.5 31t32.5 12 q15 0 29 -14l59 -54q17 -17 14 -33q-2 -14 -18.5 -30t-32.5 -16q-13 0 -26 13l-59 54q-19 19 -16 37zM485 757q3 19 17.5 31t32.5 12q15 0 29 -14l59 -54q17 -17 14 -33q-2 -14 -18.5 -30t-32.5 -16q-13 0 -26 13l-59 54q-19 19 -16 37z" />
<glyph unicode="&#x205;" horiz-adv-x="467" d="M72 221q15 92 88 158t162 66q91 0 131.5 -60.5t24.5 -154.5q-3 -21 -12.5 -31t-17.5 -11.5t-25 -1.5h-269q4 -52 39.5 -83.5t86.5 -31.5q67 0 98 53q9 17 18.5 22t25.5 5q8 0 15.5 -1.5t16 -10t5.5 -24.5q-5 -32 -59 -76.5t-139 -44.5q-95 0 -150 66t-39 161zM134 582 q3 19 17.5 31t32.5 12q14 0 29 -14l59 -54q17 -17 14 -33q-2 -14 -19 -30t-33 -16q-12 0 -25 13l-59 54q-19 17 -16 37zM169 261h228q3 59 -23 83t-65 24q-43 0 -82 -30t-58 -77zM339 582q3 19 17.5 31t32.5 12q14 0 29 -14l59 -54q17 -17 14 -33q-2 -14 -19 -30t-33 -16 q-12 0 -25 13l-59 54q-19 17 -16 37z" />
<glyph unicode="&#x208;" horiz-adv-x="350" d="M42 38q7 39 55 39h48l76 457h-48q-13 0 -21.5 1.5t-16 10.5t-4.5 26q7 39 55 39h181q14 0 22 -1.5t15 -10.5t4 -27q-6 -38 -54 -38h-48l-76 -457h48q14 0 22 -1.5t15 -10.5t4 -27q-6 -38 -54 -38h-181q-13 0 -21.5 1.5t-16 10.5t-4.5 26zM105 757q3 19 17.5 31t32.5 12 q15 0 29 -14l59 -54q17 -17 14 -33q-2 -14 -18.5 -30t-32.5 -16q-13 0 -26 13l-59 54q-19 19 -16 37zM310 757q3 19 17.5 31t32.5 12q15 0 29 -14l59 -54q17 -17 14 -33q-2 -14 -18.5 -30t-32.5 -16q-13 0 -26 13l-59 54q-19 19 -16 37z" />
<glyph unicode="&#x209;" horiz-adv-x="292" d="M18 38q7 39 54 39h44l47 282h-39q-12 0 -20.5 1.5t-16.5 11t-5 26.5q7 38 55 38h76q29 0 37 -10t3 -38l-52 -311h34q13 0 21.5 -1.5t15.5 -11t4 -26.5q-6 -38 -53 -38h-164q-13 0 -21 1.5t-15.5 10.5t-4.5 26zM44 568q3 19 17.5 31t32.5 12q14 0 29 -14l59 -54 q17 -17 14 -33q-2 -14 -19 -30t-33 -16q-12 0 -25 13l-59 54q-19 17 -16 37zM249 568q3 19 17.5 31t32.5 12q14 0 29 -14l59 -54q17 -17 14 -33q-2 -14 -19 -30t-33 -16q-12 0 -25 13l-59 54q-19 17 -16 37z" />
<glyph unicode="&#x20c;" horiz-adv-x="817" d="M110 306q21 128 138 222t264 94q146 0 232 -93t64 -224q-21 -128 -138 -222t-264 -94q-146 0 -232 93t-64 224zM197 317q-17 -103 47.5 -177t174.5 -74t199.5 74t106.5 177q16 93 -50 160.5t-176 67.5t-198 -67t-104 -161zM338 757q3 19 17.5 31t32.5 12q15 0 29 -14 l59 -54q17 -17 14 -33q-2 -14 -18.5 -30t-32.5 -16q-13 0 -26 13l-59 54q-19 19 -16 37zM543 757q3 19 17.5 31t32.5 12q15 0 29 -14l59 -54q17 -17 14 -33q-2 -14 -18.5 -30t-32.5 -16q-13 0 -26 13l-59 54q-19 19 -16 37z" />
<glyph unicode="&#x20d;" d="M73 219q15 93 92 159.5t171 66.5t149 -66.5t40 -159.5q-16 -94 -93.5 -159.5t-170.5 -65.5t-148.5 65.5t-39.5 159.5zM158 225q-11 -63 23 -108.5t93 -45.5t108 45.5t60 108.5q10 61 -25.5 102t-93.5 41t-106.5 -41t-58.5 -102zM163 582q3 19 17.5 31t32.5 12 q14 0 29 -14l59 -54q17 -17 14 -33q-2 -14 -19 -30t-33 -16q-12 0 -25 13l-59 54q-19 17 -16 37zM368 582q3 19 17.5 31t32.5 12q14 0 29 -14l59 -54q17 -17 14 -33q-2 -14 -19 -30t-33 -16q-12 0 -25 13l-59 54q-19 17 -16 37z" />
<glyph unicode="&#x210;" horiz-adv-x="758" d="M53 38q7 39 55 39h44l76 457h-44q-12 0 -20.5 1.5t-16.5 10.5t-5 26q7 39 55 39h260q111 0 183.5 -50.5t60.5 -121.5q-6 -39 -38.5 -74t-84.5 -59q22 -15 36 -39q11 -22 11 -42t-7 -60q-4 -26 -5.5 -39t-0.5 -29.5t9 -23.5t24 -7q31 0 40 36q10 37 48 37q43 0 37 -39 q-7 -41 -46 -76t-92 -35q-67 0 -93 48q-14 25 -14.5 52.5t8.5 71.5q8 39 5 55t-25 30q-40 21 -115 21h-130l-32 -190h44q13 0 21.5 -1.5t15.5 -11t4 -26.5q-6 -38 -54 -38h-172q-13 0 -21 1.5t-16 10.5t-5 26zM280 344h123q78 0 142.5 26.5t70.5 68.5q7 42 -48 68.5 t-133 26.5h-123zM280 757q3 19 17.5 31t32.5 12q15 0 29 -14l59 -54q17 -17 14 -33q-2 -14 -18.5 -30t-32.5 -16q-13 0 -26 13l-59 54q-19 19 -16 37zM485 757q3 19 17.5 31t32.5 12q15 0 29 -14l59 -54q17 -17 14 -33q-2 -14 -18.5 -30t-32.5 -16q-13 0 -26 13l-59 54 q-19 19 -16 37z" />
<glyph unicode="&#x211;" horiz-adv-x="408" d="M19 38q7 39 55 39h44l47 282h-44q-12 0 -20.5 1.5t-16.5 10.5t-5 26q7 39 55 39h81q28 0 35 -8t5 -32q58 46 119 46q46 0 62.5 -30t0.5 -59.5t-51 -29.5q-41 0 -41 40q-48 -10 -80.5 -59t-43.5 -113l-19 -114h67q14 0 22 -1.5t15 -10.5t4 -27q-6 -38 -54 -38h-195 q-13 0 -21 1.5t-16 10.5t-5 26zM103 568q3 19 17.5 31t32.5 12q14 0 29 -14l59 -54q17 -17 14 -33q-2 -14 -19 -30t-33 -16q-12 0 -25 13l-59 54q-19 17 -16 37zM308 568q3 19 17.5 31t32.5 12q14 0 29 -14l59 -54q17 -17 14 -33q-2 -14 -19 -30t-33 -16q-12 0 -25 13 l-59 54q-19 17 -16 37z" />
<glyph unicode="&#x214;" horiz-adv-x="758" d="M142 572q7 39 54 39h172q14 0 22 -1.5t15 -10.5t4 -27q-6 -38 -54 -38h-43l-53 -319q-12 -71 29.5 -110t101.5 -39q58 0 113 38.5t67 110.5l53 319h-43q-13 0 -21.5 1.5t-16 10.5t-4.5 26q7 39 55 39h172q13 0 21 -1.5t15 -10.5t4 -27q-6 -38 -53 -38h-44l-54 -325 q-16 -93 -97 -156.5t-181 -63.5q-98 0 -158 63t-45 157l54 325h-44q-12 0 -20.5 1.5t-16 10.5t-4.5 26zM332 757q3 19 17.5 31t32.5 12q15 0 29 -14l59 -54q17 -17 14 -33q-2 -14 -18.5 -30t-32.5 -16q-13 0 -26 13l-59 54q-19 19 -16 37zM537 757q3 19 17.5 31t32.5 12 q15 0 29 -14l59 -54q17 -17 14 -33q-2 -14 -18.5 -30t-32.5 -16q-13 0 -26 13l-59 54q-19 19 -16 37z" />
<glyph unicode="&#x215;" horiz-adv-x="583" d="M82 397q7 39 55 39h80q30 0 37.5 -10t2.5 -38l-44 -262q-1 -14 -1 -26t17.5 -20.5t54.5 -8.5q16 0 32.5 2.5t39.5 10.5t39.5 28t21.5 49l33 198h-44q-13 0 -21 1.5t-15.5 11t-4.5 26.5q7 38 54 38h81q29 0 37 -10t3 -38l-52 -311h43q14 0 22 -1.5t15 -10.5t4 -27 q-6 -38 -54 -38h-80q-13 0 -20 1t-14 7t-7 19q-58 -33 -132 -33q-27 0 -49 4t-47.5 15.5t-37 38.5t-4.5 68l40 239h-43q-13 0 -21.5 1.5t-16 10.5t-4.5 26zM190 568q3 19 17.5 31t32.5 12q14 0 29 -14l59 -54q17 -17 14 -33q-2 -14 -19 -30t-33 -16q-12 0 -25 13l-59 54 q-19 17 -16 37zM395 568q3 19 17.5 31t32.5 12q14 0 29 -14l59 -54q17 -17 14 -33q-2 -14 -19 -30t-33 -16q-12 0 -25 13l-59 54q-19 17 -16 37z" />
<glyph unicode="&#x218;" horiz-adv-x="583" d="M62 38l22 128q3 16 6 24.5t14 16.5t31 8q18 0 26.5 -6.5t8 -15.5t-0.5 -18q-5 -55 36 -83q42 -26 121 -26q59 0 100 30.5t47 69.5q3 17 -1.5 32.5t-10.5 22.5l-6 7q-18 18 -34.5 24.5t-61.5 16.5l-40 9q-74 16 -103 27t-53 37q-42 50 -31 112q11 67 78 117.5t159 50.5 q93 0 145 -44q16 29 24.5 36.5t25.5 7.5q37 0 30 -49l-22 -128q-3 -16 -6 -24.5t-14 -16.5t-31 -8q-24 0 -30 9.5t-5 29.5q-4 110 -131 110q-55 0 -95.5 -26t-46.5 -61q-4 -26 11 -45.5t31.5 -27.5t32.5 -11l139 -30q66 -15 101.5 -64t25.5 -110q-11 -71 -78.5 -126 t-163.5 -55q-112 0 -171 42q-15 -26 -24 -34t-25 -8q-17 0 -25 8.5t-7 19t2 21.5zM210 -175q1 9 7.5 16t28.5 26q10 11 17 29q-34 8 -28 45q3 18 17.5 31t34.5 13q23 0 35.5 -18t6.5 -55q-8 -48 -41 -83t-51 -35q-13 0 -21 10t-6 21z" />
<glyph unicode="&#x219;" horiz-adv-x="414" d="M38 43l16 93q3 16 6 24.5t14 16.5t31 8q15 0 23.5 -5.5t10 -11t2.5 -14.5q2 -17 5.5 -29.5t11.5 -26t24 -20.5t40 -7q95 0 105 59q7 42 -58 58q-34 4 -57 10q-18 4 -29.5 7t-35 13t-36.5 22t-22 33.5t-4 48.5q3 18 12.5 36.5t29.5 39.5t59 34t91 13q51 0 82 -16 q14 16 34 16q37 0 30 -49l-11 -67q-3 -16 -6 -24t-14 -16t-31 -8q-18 0 -26.5 7t-9.5 13.5t0 18.5q1 9 -0.5 15t-6.5 15t-19 13.5t-37 4.5q-93 0 -100 -46q-4 -22 21.5 -32.5t89.5 -22.5q149 -28 131 -137q-9 -53 -56.5 -94.5t-139.5 -41.5q-61 0 -97 28q-16 -28 -43 -28 q-37 0 -30 49zM126 -175q1 9 7.5 16t28.5 26q10 11 17 29q-34 8 -28 45q3 18 17.5 31t34.5 13q23 0 35.5 -18t6.5 -55q-8 -48 -41 -83t-51 -35q-13 0 -21 10t-6 21z" />
<glyph unicode="&#x21a;" horiz-adv-x="758" d="M121 492l12 70q4 30 15.5 39.5t41.5 9.5h582q30 0 37.5 -10t2.5 -39l-12 -70q-3 -16 -6 -24.5t-14 -16.5t-31 -8q-19 0 -28 7.5t-8 18.5t2 23l7 42h-212l-76 -457h81q13 0 21.5 -1.5t16 -11t4.5 -26.5q-6 -38 -55 -38h-247q-10 0 -16 1t-14 4t-11 12t-1 22q6 38 55 38h81 l76 457h-212l-7 -42q-3 -16 -6 -24.5t-14 -16.5t-31 -8q-19 0 -28 7.5t-8 18.5t2 23zM298 -175q1 9 7.5 16t28.5 26q10 11 17 29q-34 8 -28 45q3 18 17.5 31t34.5 13q23 0 35.5 -18t6.5 -55q-8 -48 -41 -83t-51 -35q-13 0 -21 10t-6 21z" />
<glyph unicode="&#x21b;" horiz-adv-x="408" d="M81 397q7 39 56 39h40l12 71q3 16 6 24.5t14 16.5t31 8q19 0 27.5 -7.5t8 -18.5t-1.5 -23l-12 -71h99q13 0 21.5 -1.5t15.5 -11t4 -26.5q-6 -38 -54 -38h-99l-38 -225q-11 -63 29 -63q17 0 31.5 15.5t19.5 44.5q3 15 5.5 23t13.5 16t30 8q20 0 29 -7.5t8 -18t-2 -22.5 q-10 -59 -54.5 -97.5t-97.5 -38.5q-46 0 -77.5 31.5t-20.5 102.5l39 231h-41q-13 0 -21.5 1.5t-16 10.5t-4.5 26zM123 -175q1 9 7.5 16t28.5 26q10 11 17 29q-34 8 -28 45q3 18 17.5 31t34.5 13q23 0 35.5 -18t6.5 -55q-8 -48 -41 -83t-51 -35q-13 0 -21 10t-6 21z" />
<glyph unicode="&#x258;" horiz-adv-x="467" d="M54 115q6 36 49 36q16 0 24.5 -5t11.5 -22q14 -53 80 -53q50 0 96.5 31.5t67.5 83.5h-269q-13 0 -18.5 0.5t-14.5 5t-8.5 13.5t0.5 25q16 94 76.5 154.5t151.5 60.5q89 0 140 -66t36 -158q-16 -95 -93 -161t-172 -66q-46 0 -80 15t-50 36t-23 39.5t-5 30.5zM166 261h228 q-4 47 -33.5 77t-72.5 30q-92 0 -122 -107z" />
<glyph unicode="&#x259;" horiz-adv-x="467" d="M70 209q3 21 12.5 31t17.5 11.5t25 1.5h269q-4 52 -39.5 83.5t-86.5 31.5q-66 0 -97 -53q-15 -27 -45 -27q-8 0 -15.5 1.5t-16 10t-5.5 24.5q6 33 59.5 77t138.5 44q95 0 150 -66t39 -161q-15 -92 -88 -158t-162 -66q-91 0 -131.5 60.5t-24.5 154.5zM152 178 q-3 -59 22.5 -83t64.5 -24q43 0 82.5 30t58.5 77h-228z" />
<glyph unicode="&#x2be;" horiz-adv-x="415" d="M112 268q3 20 17.5 32t32.5 12q39 0 36 -40h30q55 0 84 33.5t35 67.5q7 42 -17 71.5t-64 29.5q-41 0 -63 -35q-13 -23 -39 -23q-6 0 -12.5 1.5t-13.5 9t-5 21.5q2 11 14.5 30.5t48.5 41t85 21.5q70 0 109.5 -49.5t28.5 -118.5q-10 -61 -62.5 -114.5t-139.5 -53.5 q-18 0 -33.5 2t-35.5 7.5t-30 19.5t-6 34z" />
<glyph unicode="&#x2bf;" horiz-adv-x="415" d="M120 373q10 61 62.5 114.5t139.5 53.5q18 0 34 -2t35.5 -7.5t29.5 -19.5t7 -34q-4 -20 -18.5 -32t-32.5 -12q-39 0 -36 40h-30q-55 0 -84 -33.5t-35 -67.5q-7 -42 17 -71.5t64 -29.5q45 0 63 35q14 23 39 23q6 0 13 -1.5t14 -9t5 -21.5q-3 -12 -15.5 -31t-48.5 -40.5 t-85 -21.5q-70 0 -109.5 49.5t-28.5 118.5z" />
<glyph unicode="&#x2c6;" d="M194 502q4 20 23 31l127 72q22 13 40 0l103 -72q24 -18 8 -44t-41 -26q-8 0 -17 6l-86 58l-106 -58q-9 -6 -19 -6q-16 0 -25.5 12t-6.5 27z" />
<glyph unicode="&#x2c7;" d="M205 572q3 15 16.5 27t29.5 12q9 0 17 -6l86 -58l106 58q10 6 19 6q16 0 25.5 -12t6.5 -27q-2 -20 -23 -31l-127 -72q-22 -13 -40 0l-103 72q-15 11 -13 31z" />
<glyph unicode="&#x2d8;" d="M177 562q7 39 45 39q32 0 32 -35q2 -12 101 -12t105 12q4 11 7.5 16.5t13 12t23.5 6.5q19 0 27.5 -10.5t5.5 -28.5q-5 -30 -25.5 -49t-53.5 -26.5t-57.5 -10t-58.5 -2.5q-26 0 -45 1t-45.5 6t-42.5 13.5t-26 26t-6 41.5z" />
<glyph unicode="&#x2d9;" horiz-adv-x="292" d="M178 537q3 23 22.5 40t44.5 17q23 0 37.5 -17t10.5 -40q-4 -22 -23.5 -39.5t-44.5 -17.5q-23 0 -37 17t-10 40z" />
<glyph unicode="&#x2da;" horiz-adv-x="798" d="M370 559q5 27 43 47t91 20q50 0 82.5 -20t27.5 -47q-4 -26 -42.5 -46.5t-91.5 -20.5q-50 0 -82.5 20t-27.5 47zM445 559q-3 -19 44 -19t50 19t-44 19q-46 0 -50 -19z" />
<glyph unicode="&#x2db;" d="M139 -96q6 34 35.5 67.5t67.5 55.5l75 1v-17q-39 -10 -68 -40.5t-35 -68.5q-2 -13 7.5 -21t21.5 -8q10 0 21 7q55 47 78 32q8 -7 7.5 -23.5t-8.5 -24.5q-54 -61 -114 -61q-47 0 -71 31.5t-17 69.5z" />
<glyph unicode="&#x2dc;" d="M169 510q3 22 61 60q51 34 87 34t66 -35q14 -18 21 -18q18 0 69 40q15 13 31 13q15 0 24.5 -12.5t7.5 -27.5q-3 -22 -61 -60q-51 -34 -87 -34q-35 0 -66 36q-16 18 -21 18q-17 0 -68 -41q-19 -13 -32 -13q-15 0 -24.5 12.5t-7.5 27.5z" />
<glyph unicode="&#x2dd;" d="M177 510q2 12 7 17.5t19 15.5l77 54q18 14 33 14q18 0 28.5 -12t7.5 -31q-3 -18 -28 -37l-77 -54q-18 -13 -31 -13q-16 0 -27 16t-9 30zM382 510q2 12 7 17.5t19 15.5l77 54q18 14 33 14q18 0 28.5 -12t7.5 -31q-3 -18 -28 -37l-77 -54q-18 -13 -31 -13q-16 0 -27 16 t-9 30z" />
<glyph unicode="&#x300;" horiz-adv-x="0" d="M-247 526q-38 19 -24 52t48 33q9 0 21 -6l119 -58q28 -12 24 -36q-1 -12 -15 -30t-34 -18q-6 0 -20 6z" />
<glyph unicode="&#x301;" horiz-adv-x="0" d="M-282 511q4 24 36 36l139 58l23 6q18 0 28.5 -12t7.5 -31q-4 -27 -40 -42l-139 -57q-14 -6 -22 -6q-20 0 -27 17t-6 31z" />
<glyph unicode="&#x302;" horiz-adv-x="0" d="M-324 502q4 20 23 31l127 72q22 13 40 0l103 -72q24 -18 8 -44t-41 -26q-8 0 -17 6l-86 58l-106 -58q-9 -6 -19 -6q-16 0 -25.5 12t-6.5 27z" />
<glyph unicode="&#x303;" horiz-adv-x="0" d="M-349 510q3 22 61 60q51 34 87 34t66 -35q14 -18 21 -18q18 0 69 40q15 13 31 13q15 0 24.5 -12.5t7.5 -27.5q-3 -22 -61 -60q-51 -34 -87 -34q-35 0 -66 36q-16 18 -21 18q-17 0 -68 -41q-19 -13 -32 -13q-15 0 -24.5 12.5t-7.5 27.5z" />
<glyph unicode="&#x304;" horiz-adv-x="0" d="M-357 538q6 39 53 39h290q14 0 22 -1.5t15 -11t4 -27.5q-7 -39 -54 -39h-289q-13 0 -21.5 1.5t-15.5 11t-4 27.5z" />
<glyph unicode="&#x306;" horiz-adv-x="0" d="M-341 562q7 39 45 39q32 0 32 -35q2 -12 101 -12t105 12q4 11 7.5 16.5t13 12t23.5 6.5q19 0 27.5 -10.5t5.5 -28.5q-5 -30 -25.5 -49t-53.5 -26.5t-57.5 -10t-58.5 -2.5q-26 0 -45 1t-45.5 6t-42.5 13.5t-26 26t-6 41.5z" />
<glyph unicode="&#x307;" horiz-adv-x="0" d="M-223 537q3 23 22.5 40t44.5 17q23 0 37.5 -17t10.5 -40q-4 -22 -23.5 -39.5t-44.5 -17.5q-23 0 -37 17t-10 40z" />
<glyph unicode="&#x308;" horiz-adv-x="0" d="M-301 537q3 21 20 37t41 16q21 0 34 -16t10 -37q-4 -21 -21 -36.5t-41 -15.5q-21 0 -34 15t-9 37zM-134 537q3 21 20 37t41 16q21 0 34 -16t10 -37q-4 -21 -21 -36.5t-41 -15.5q-21 0 -34 15t-9 37z" />
<glyph unicode="&#x309;" horiz-adv-x="0" d="M-269 571q6 39 41.5 63t77.5 24q50 0 77.5 -23.5t20.5 -63.5q-7 -41 -63 -70q-31 -16 -34 -31l-2 -17q-3 -15 -15 -25.5t-27 -10.5t-24 10.5t-6 25.5l2 17q10 60 98 103q-6 13 -42 13q-22 0 -29 -11q-4 -20 -16.5 -30.5t-27.5 -10.5q-17 0 -25 11t-6 26z" />
<glyph unicode="&#x30a;" horiz-adv-x="0" d="M-284 559q5 27 43 47t91 20q50 0 82.5 -20t27.5 -47q-4 -26 -42.5 -46.5t-91.5 -20.5q-50 0 -82.5 20t-27.5 47zM-209 559q-3 -19 44 -19t50 19t-44 19q-46 0 -50 -19z" />
<glyph unicode="&#x30b;" horiz-adv-x="0" d="M-341 510q2 12 7 17.5t19 15.5l77 54q18 14 33 14q18 0 28.5 -12t7.5 -31q-3 -18 -28 -37l-77 -54q-18 -13 -31 -13q-16 0 -27 16t-9 30zM-136 510q2 12 7 17.5t19 15.5l77 54q18 14 33 14q18 0 28.5 -12t7.5 -31q-3 -18 -28 -37l-77 -54q-18 -13 -31 -13q-16 0 -27 16 t-9 30z" />
<glyph unicode="&#x30c;" horiz-adv-x="0" d="M-313 572q3 15 16.5 27t29.5 12q9 0 17 -6l86 -58l106 58q11 6 19 6q16 0 25.5 -12t6.5 -27q-2 -20 -23 -31l-127 -72q-22 -13 -40 0l-103 72q-15 11 -13 31z" />
<glyph unicode="&#x30f;" horiz-adv-x="0" d="M-357 568q3 19 17.5 31t32.5 12q14 0 29 -14l59 -54q17 -17 14 -33q-2 -14 -19 -30t-33 -16q-12 0 -25 13l-59 54q-19 17 -16 37zM-152 568q3 19 17.5 31t32.5 12q14 0 29 -14l59 -54q17 -17 14 -33q-2 -14 -19 -30t-33 -16q-12 0 -25 13l-59 54q-19 17 -16 37z" />
<glyph unicode="&#x311;" horiz-adv-x="0" d="M-349 513q5 30 25.5 49t53 27t57 10t58.5 2q26 0 45.5 -1t46 -6t42.5 -13.5t26 -26t6 -41.5q-7 -39 -46 -39q-32 0 -32 35q-2 12 -101 12t-105 -12q-4 -11 -7.5 -16.5t-13 -12t-23.5 -6.5q-39 0 -32 39z" />
<glyph unicode="&#x323;" horiz-adv-x="0" d="M-336 -137q4 23 23.5 40t44.5 17q23 0 37 -17t10 -40t-23 -40t-44 -17q-23 0 -37.5 17t-10.5 40z" />
<glyph unicode="&#x326;" horiz-adv-x="0" d="M-337 -175q1 9 7.5 16t28.5 26q10 11 17 29q-34 8 -28 45q3 18 17.5 31t34.5 13q23 0 35.5 -18t6.5 -55q-8 -48 -41 -83t-51 -35q-13 0 -21 10t-6 21z" />
<glyph unicode="&#x32e;" horiz-adv-x="0" d="M-456 -125q3 18 15.5 28.5t30.5 10.5q14 0 21.5 -6.5t8.5 -12t2 -16.5q2 -12 101 -12t105 12q12 35 44 35q38 0 32 -39q-5 -30 -25.5 -49t-53.5 -26.5t-57.5 -10t-58.5 -2.5q-26 0 -45 1t-45.5 6t-42.5 13.5t-26 26t-6 41.5z" />
<glyph unicode="&#x32f;" horiz-adv-x="0" d="M-464 -174q5 30 25.5 49t53.5 26.5t57.5 10t58.5 2.5q26 0 45 -1t45.5 -6t42.5 -13.5t26 -26t6 -41.5q-3 -18 -15.5 -28.5t-30.5 -10.5q-14 0 -21.5 6.5t-8.5 12t-2 16.5q-2 12 -101 12t-105 -12q-12 -35 -44 -35q-38 0 -32 39z" />
<glyph unicode="&#x330;" horiz-adv-x="0" d="M-464 -177q4 21 61 60q51 34 87 34q38 0 66 -35q16 -18 21 -18q19 0 69 40q15 13 31 13q15 0 25 -12.5t7 -27.5q-3 -22 -61 -60q-51 -34 -86 -34q-38 0 -66 36q-18 18 -21 18q-18 0 -69 -41q-17 -13 -31 -13q-15 0 -25 12.5t-8 27.5z" />
<glyph unicode="&#x331;" horiz-adv-x="0" d="M-472 -149q6 39 54 39h290q14 0 21.5 -1.5t14.5 -11t4 -27.5q-6 -39 -54 -39h-289q-13 0 -21.5 1.5t-15.5 11t-4 27.5z" />
<glyph unicode="&#x332;" horiz-adv-x="0" d="M-472 -149q6 39 54 39h290q14 0 21.5 -1.5t14.5 -11t4 -27.5q-6 -39 -54 -39h-289q-13 0 -21.5 1.5t-15.5 11t-4 27.5z" />
<glyph unicode="&#x393;" horiz-adv-x="642" d="M51 38q7 39 55 39h43l76 457h-43q-13 0 -21.5 1.5t-16 10.5t-4.5 26q7 39 55 39h457q30 0 37.5 -10t2.5 -39l-12 -70q-3 -16 -6 -24.5t-14 -16.5t-31 -8q-19 0 -28 7.5t-8 18.5t2 23l7 42h-292l-76 -457h67q13 0 21.5 -1.5t15.5 -11t4 -26.5q-6 -38 -54 -38h-195 q-13 0 -21.5 1.5t-16 10.5t-4.5 26z" />
<glyph unicode="&#x394;" horiz-adv-x="875" d="M64 27q0 8 11 23l384 537q17 23 32 29.5t39 6.5h22q28 0 39.5 -8t20.5 -31l204 -536q4 -10 4 -21q-4 -27 -45 -27h-676q-11 0 -18.5 1.5t-13 8t-3.5 17.5zM196 83h510l-177 467z" />
<glyph unicode="&#x398;" horiz-adv-x="817" d="M110 306q21 128 138 222t264 94q146 0 232 -93t64 -224q-21 -128 -138 -222t-264 -94q-146 0 -232 93t-64 224zM195 305q-17 -98 48 -168.5t176 -70.5q109 0 198 70.5t106 169.5q17 98 -48 168.5t-176 70.5q-109 0 -198 -70.5t-106 -169.5zM231 283l8 45q3 16 5.5 24 t13.5 16.5t31 8.5q36 0 36 -30h282q10 30 46 30q28 0 34.5 -15.5t-0.5 -33.5l-8 -45q-3 -16 -5.5 -24t-13.5 -16.5t-31 -8.5q-36 0 -36 30h-282q-10 -30 -46 -30q-28 0 -34.5 15.5t0.5 33.5z" />
<glyph unicode="&#x39b;" horiz-adv-x="700" d="M46 38q7 39 55 39h27l251 508q20 38 65 38h19q46 0 53 -38l81 -508h27q14 0 22 -1.5t15 -10.5t4 -27q-6 -38 -54 -38h-145q-13 0 -21.5 1.5t-16 10.5t-4.5 26q7 39 55 39h28l-71 443l-218 -443h28q14 0 22 -1.5t15 -10.5t4 -27q-6 -38 -54 -38h-145q-13 0 -21.5 1.5 t-16 10.5t-4.5 26z" />
<glyph unicode="&#x39e;" horiz-adv-x="700" d="M52 49l4 23q3 15 6 23.5t14 16.5t30 8q26 0 32 -10.5t3 -34.5h443q3 23 13 34t36 11q19 0 28 -7.5t8 -18t-2 -22.5l-4 -23q-5 -29 -16 -39t-40 -10h-514q-30 0 -38 9.5t-3 39.5zM141 544l3 18q4 30 15.5 39.5t40.5 9.5h504q29 0 36.5 -10t2.5 -39l-3 -18q-2 -11 -4 -17.5 t-7 -15t-14.5 -12.5t-24.5 -4q-25 0 -32 10.5t-4 30.5h-431q-3 -20 -13 -30.5t-35 -10.5q-19 0 -28 7.5t-8 18.5t2 23zM190 283l12 69q2 12 4 18.5t7 14.5t14.5 11.5t24.5 3.5q26 0 32 -10.5t3 -34.5h243q5 24 15 34.5t36 10.5q19 0 28 -7t8 -18t-2 -23l-12 -69 q-3 -16 -6 -24.5t-14 -16.5t-30 -8q-26 0 -32 11t-3 35h-243q-5 -24 -15 -35t-36 -11q-19 0 -28 7.5t-8 18.5t2 23z" />
<glyph unicode="&#x3a0;" horiz-adv-x="758" d="M53 38q7 39 54 39h44l76 457h-44q-12 0 -20.5 1.5t-16 10.5t-4.5 26q7 39 54 39h569q13 0 21 -1.5t15 -10.5t4 -27q-6 -38 -53 -38h-44l-76 -457h44q13 0 21 -1.5t15 -10.5t4 -27q-6 -38 -53 -38h-172q-13 0 -21.5 1.5t-16 10.5t-4.5 26q7 39 55 39h43l76 457h-311 l-76 -457h43q14 0 22 -1.5t15 -10.5t4 -27q-6 -38 -54 -38h-172q-13 0 -21 1.5t-15.5 10.5t-4.5 26z" />
<glyph unicode="&#x3a3;" horiz-adv-x="758" d="M64 36q2 12 19 29l241 240l-163 237q-10 18 -8 30q7 39 56 39h544q29 0 37 -10t3 -39l-12 -70q-3 -16 -6 -24.5t-14 -16.5t-31 -8q-19 0 -28 7.5t-8 18.5t2 23l7 42h-425l137 -199q11 -15 9 -30q-1 -13 -19 -30l-198 -196h420l7 42q3 16 6 24.5t14 16.5t31 8 q19 0 28 -7.5t8 -18.5t-2 -23l-12 -72q-5 -29 -16 -39t-40 -10h-544q-12 0 -20.5 1.5t-17 10t-5.5 24.5z" />
<glyph unicode="&#x3a5;" horiz-adv-x="817" d="M140 487q9 55 65 95t124 40q73 0 109.5 -50.5t42.5 -131.5q35 84 89.5 133t124.5 49q68 0 110 -40t33 -95q-6 -39 -49 -39q-26 0 -32.5 10.5t-3.5 29.5q5 29 -16.5 47.5t-56.5 18.5q-39 0 -71 -23.5t-53 -62t-33.5 -77.5t-19.5 -79l-39 -235h67q13 0 21 -1.5t15 -10.5 t4 -27q-6 -38 -53 -38h-219q-13 0 -21 1.5t-15 10.5t-4 27q6 38 53 38h67l39 235q6 39 6.5 77t-7.5 77.5t-32.5 63.5t-64.5 24q-36 0 -62.5 -19t-31.5 -46q-2 -13 -6 -20.5t-14.5 -14t-28.5 -6.5q-10 0 -17 1t-15 10.5t-5 27.5z" />
<glyph unicode="&#x3a6;" horiz-adv-x="758" d="M109 306q10 61 102 105t202 50l12 73h-67q-12 0 -20.5 1.5t-16 10.5t-4.5 26q7 39 54 39h219q13 0 21 -1.5t15 -10.5t4 -27q-6 -38 -53 -38h-67l-12 -73q107 -6 185 -49.5t67 -106.5q-10 -61 -102 -105t-202 -50l-12 -73h67q13 0 21 -1.5t15 -10.5t4 -27q-6 -38 -53 -38 h-219q-13 0 -21 1.5t-15.5 10.5t-4.5 26q7 39 54 39h67l12 73q-107 6 -185 49.5t-67 106.5zM190 306q-3 -20 14.5 -35.5t48 -24.5t60 -13.5t57.5 -5.5l26 157q-69 -3 -134.5 -22.5t-71.5 -55.5zM463 227q28 1 59 5.5t64.5 13.5t56.5 24.5t26 35.5q3 19 -14 34.5t-46.5 24 t-60 13.5t-59.5 6z" />
<glyph unicode="&#x3a8;" horiz-adv-x="817" d="M134 448q6 39 51 39q43 0 75 -29t23 -99q-7 -59 25.5 -91.5t95.5 -40.5l51 307h-67q-13 0 -21 1.5t-15 10.5t-4 27q6 38 53 38h219q13 0 21 -1.5t15 -10.5t4 -27q-6 -38 -53 -38h-67l-51 -307q139 17 163 129q15 66 48 93q43 38 93 38q11 0 19 -1.5t15.5 -11t4.5 -26.5 q-5 -33 -47 -39q-18 -3 -29 -14t-14 -19.5t-6 -23.5q-19 -90 -89 -141.5t-171 -60.5l-12 -73h67q13 0 21 -1.5t15 -10.5t4 -27q-6 -38 -53 -38h-219q-13 0 -21 1.5t-15 10.5t-4 27q6 38 53 38h67l12 73q-94 10 -149 59q-25 24 -37 65.5t-8 75.5q4 14 2 30.5t-17 23.5 q-13 3 -20.5 5.5t-15.5 7.5t-11 12.5t-1 18.5z" />
<glyph unicode="&#x3a9;" horiz-adv-x="758" d="M56 49l4 25q8 48 44 48t28 -45h106q-6 44 -51 119q-25 43 -36 64.5t-21.5 63t-4.5 79.5q15 91 118 155t240 64q134 0 216 -64t67 -155q-6 -38 -30 -79.5t-42 -62.5t-57 -64q-76 -81 -92 -120h106q8 45 42 45q36 0 28 -48l-4 -25q-5 -29 -15.5 -39t-39.5 -10h-165 q-11 0 -17 1t-14 4.5t-10 12.5t0 24q6 35 32 78.5t51.5 74.5t80.5 94q54 66 61 114q10 58 -51 100t-161 42q-98 0 -173.5 -42t-85.5 -100q-4 -27 3.5 -58t17 -51t28.5 -54q70 -120 56 -198q-3 -19 -13 -29t-18.5 -11.5t-23.5 -1.5h-164q-29 0 -37 9.5t-3 39.5z" />
<glyph unicode="&#xe3f;" horiz-adv-x="729" d="M52 38q7 39 55 39h43l76 457h-43q-12 0 -20.5 1.5t-16.5 10.5t-5 26q7 39 55 39h224l8 51q3 17 16 28t30 11q16 0 25.5 -11.5t6.5 -27.5l-8 -51h12q99 0 158.5 -48t48.5 -111q-7 -44 -47 -77.5t-94 -53.5q66 -19 98.5 -60.5t24.5 -89.5q-12 -68 -88 -119.5t-176 -51.5 h-39l-9 -51q-2 -16 -15.5 -27.5t-29.5 -11.5q-17 0 -26 11t-7 28l9 51h-224q-13 0 -21 1.5t-16 10.5t-5 26zM232 77h99l34 202h-99zM278 356h99l30 178h-99zM409 77h15q73 0 130 27t64 69q7 43 -35 74.5t-109 31.5h-31zM455 356q75 4 125 31t56 64q6 34 -33.5 58.5 t-104.5 24.5h-13z" />
<glyph unicode="&#x1e0c;" horiz-adv-x="788" d="M53 38q7 39 55 39h43l76 457h-43q-13 0 -21.5 1.5t-16 10.5t-4.5 26q7 39 55 39h312q132 0 211 -91.5t57 -219.5q-20 -123 -128.5 -211.5t-241.5 -88.5h-312q-13 0 -21.5 1.5t-16 10.5t-4.5 26zM218 -137q4 23 23.5 40t44.5 17q23 0 37 -17t10 -40t-23 -40t-44 -17 q-23 0 -37.5 17t-10.5 40zM237 77h167q106 0 190.5 65.5t99.5 158.5q16 94 -45 163.5t-170 69.5h-166z" />
<glyph unicode="&#x1e0d;" horiz-adv-x="583" d="M79 218q16 93 93.5 158.5t170.5 65.5q67 0 114 -40l22 132h-43q-14 0 -22 1.5t-15 10.5t-4 27q6 38 54 38h80q30 0 37.5 -10t2.5 -39l-81 -485h44q13 0 21 -1.5t15 -10.5t4 -27q-6 -38 -53 -38h-81q-28 0 -36 9t-4 35q-67 -50 -141 -50q-88 0 -140.5 65.5t-37.5 158.5z M162 218q-10 -60 22.5 -103.5t89.5 -43.5q54 0 97.5 42t50.5 87l11 64q7 40 -22.5 70.5t-76.5 30.5q-60 0 -111 -42.5t-61 -104.5zM211 -137q4 23 23.5 40t44.5 17q23 0 37 -17t10 -40t-23 -40t-44 -17q-23 0 -37.5 17t-10.5 40z" />
<glyph unicode="&#x1e0e;" horiz-adv-x="788" d="M53 38q7 39 55 39h43l76 457h-43q-13 0 -21.5 1.5t-16 10.5t-4.5 26q7 39 55 39h312q132 0 211 -91.5t57 -219.5q-20 -123 -128.5 -211.5t-241.5 -88.5h-312q-13 0 -21.5 1.5t-16 10.5t-4.5 26zM83 -149q6 39 54 39h290q14 0 21.5 -1.5t14.5 -11t4 -27.5q-6 -39 -54 -39 h-289q-13 0 -21.5 1.5t-15.5 11t-4 27.5zM237 77h167q106 0 190.5 65.5t99.5 158.5q16 94 -45 163.5t-170 69.5h-166z" />
<glyph unicode="&#x1e0f;" horiz-adv-x="583" d="M75 -149q6 39 54 39h290q14 0 21.5 -1.5t14.5 -11t4 -27.5q-6 -39 -54 -39h-289q-13 0 -21.5 1.5t-15.5 11t-4 27.5zM79 218q16 93 93.5 158.5t170.5 65.5q67 0 114 -40l22 132h-43q-14 0 -22 1.5t-15 10.5t-4 27q6 38 54 38h80q30 0 37.5 -10t2.5 -39l-81 -485h44 q13 0 21 -1.5t15 -10.5t4 -27q-6 -38 -53 -38h-81q-28 0 -36 9t-4 35q-67 -50 -141 -50q-88 0 -140.5 65.5t-37.5 158.5zM162 218q-10 -60 22.5 -103.5t89.5 -43.5q54 0 97.5 42t50.5 87l11 64q7 40 -22.5 70.5t-76.5 30.5q-60 0 -111 -42.5t-61 -104.5z" />
<glyph unicode="&#x1e24;" horiz-adv-x="758" d="M53 38q7 39 54 39h44l76 457h-44q-12 0 -20.5 1.5t-16 10.5t-4.5 26q7 39 54 39h172q14 0 22 -1.5t15 -10.5t4 -27q-6 -38 -54 -38h-43l-30 -178h311l30 178h-43q-13 0 -21.5 1.5t-16 10.5t-4.5 26q7 39 55 39h172q13 0 21 -1.5t15 -10.5t4 -27q-6 -38 -53 -38h-44 l-76 -457h44q13 0 21 -1.5t15 -10.5t4 -27q-6 -38 -53 -38h-172q-13 0 -21.5 1.5t-16 10.5t-4.5 26q7 39 55 39h43l34 202h-311l-34 -202h43q14 0 22 -1.5t15 -10.5t4 -27q-6 -38 -54 -38h-172q-13 0 -21 1.5t-15.5 10.5t-4.5 26zM298 -137q4 23 23.5 40t44.5 17 q23 0 37 -17t10 -40t-23 -40t-44 -17q-23 0 -37.5 17t-10.5 40z" />
<glyph unicode="&#x1e25;" horiz-adv-x="583" d="M22 38q7 39 55 39h43l76 457h-43q-13 0 -21.5 1.5t-16 10.5t-4.5 26q7 39 55 39h80q30 0 37.5 -10t2.5 -39l-28 -165q65 45 142 45q148 0 124 -151l-36 -214h43q14 0 22 -1.5t15 -10.5t4 -27q-6 -38 -54 -38h-172q-13 0 -21 1.5t-15 10.5t-4 27q6 38 53 38h44l35 209 q7 41 -4 60t-53 19q-47 0 -92.5 -31t-56.5 -95l-27 -162h44q13 0 21 -1.5t15 -10.5t4 -27q-6 -38 -53 -38h-172q-13 0 -21.5 1.5t-16 10.5t-4.5 26zM210 -137q4 23 23.5 40t44.5 17q23 0 37 -17t10 -40t-23 -40t-44 -17q-23 0 -37.5 17t-10.5 40z" />
<glyph unicode="&#x1e26;" horiz-adv-x="758" d="M53 38q7 39 54 39h44l76 457h-44q-12 0 -20.5 1.5t-16 10.5t-4.5 26q7 39 54 39h172q14 0 22 -1.5t15 -10.5t4 -27q-6 -38 -54 -38h-43l-30 -178h311l30 178h-43q-13 0 -21.5 1.5t-16 10.5t-4.5 26q7 39 55 39h172q13 0 21 -1.5t15 -10.5t4 -27q-6 -38 -53 -38h-44 l-76 -457h44q13 0 21 -1.5t15 -10.5t4 -27q-6 -38 -53 -38h-172q-13 0 -21.5 1.5t-16 10.5t-4.5 26q7 39 55 39h43l34 202h-311l-34 -202h43q14 0 22 -1.5t15 -10.5t4 -27q-6 -38 -54 -38h-172q-13 0 -21 1.5t-15.5 10.5t-4.5 26zM345 695q3 21 20.5 37t41.5 16 q21 0 33.5 -16t9.5 -37q-4 -21 -21 -36.5t-41 -15.5q-21 0 -34 15t-9 37zM542 695q3 21 20.5 37t41.5 16q21 0 33.5 -16t9.5 -37q-4 -21 -21 -36.5t-41 -15.5q-21 0 -34 15t-9 37z" />
<glyph unicode="&#x1e27;" horiz-adv-x="583" d="M22 38q7 39 55 39h43l76 457h-43q-13 0 -21.5 1.5t-16 10.5t-4.5 26q7 39 55 39h80q30 0 37.5 -10t2.5 -39l-28 -165q65 45 142 45q148 0 124 -151l-36 -214h43q14 0 22 -1.5t15 -10.5t4 -27q-6 -38 -54 -38h-172q-13 0 -21 1.5t-15 10.5t-4 27q6 38 53 38h44l35 209 q7 41 -4 60t-53 19q-47 0 -92.5 -31t-56.5 -95l-27 -162h44q13 0 21 -1.5t15 -10.5t4 -27q-6 -38 -53 -38h-172q-13 0 -21.5 1.5t-16 10.5t-4.5 26zM257 695q3 21 20.5 37t41.5 16q21 0 33.5 -16t9.5 -37q-4 -21 -21 -36.5t-41 -15.5q-21 0 -34 15t-9 37zM454 695 q3 21 20.5 37t41.5 16q21 0 33.5 -16t9.5 -37q-4 -21 -21 -36.5t-41 -15.5q-21 0 -34 15t-9 37z" />
<glyph unicode="&#x1e2a;" horiz-adv-x="758" d="M53 38q7 39 54 39h44l76 457h-44q-12 0 -20.5 1.5t-16 10.5t-4.5 26q7 39 54 39h172q14 0 22 -1.5t15 -10.5t4 -27q-6 -38 -54 -38h-43l-30 -178h311l30 178h-43q-13 0 -21.5 1.5t-16 10.5t-4.5 26q7 39 55 39h172q13 0 21 -1.5t15 -10.5t4 -27q-6 -38 -53 -38h-44 l-76 -457h44q13 0 21 -1.5t15 -10.5t4 -27q-6 -38 -53 -38h-172q-13 0 -21.5 1.5t-16 10.5t-4.5 26q7 39 55 39h43l34 202h-311l-34 -202h43q14 0 22 -1.5t15 -10.5t4 -27q-6 -38 -54 -38h-172q-13 0 -21 1.5t-15.5 10.5t-4.5 26zM179 -125q7 39 46 39q14 0 21.5 -6.5 t8.5 -12t2 -16.5q2 -12 101 -12t105 12q12 35 44 35q39 0 32 -39q-5 -30 -25.5 -49t-53.5 -26.5t-57.5 -10t-58.5 -2.5q-26 0 -45 1t-45.5 6t-42.5 13.5t-26 26t-6 41.5z" />
<glyph unicode="&#x1e2b;" horiz-adv-x="583" d="M22 38q7 39 55 39h43l76 457h-43q-13 0 -21.5 1.5t-16 10.5t-4.5 26q7 39 55 39h80q30 0 37.5 -10t2.5 -39l-28 -165q65 45 142 45q148 0 124 -151l-36 -214h43q14 0 22 -1.5t15 -10.5t4 -27q-6 -38 -54 -38h-172q-13 0 -21 1.5t-15 10.5t-4 27q6 38 53 38h44l35 209 q7 41 -4 60t-53 19q-47 0 -92.5 -31t-56.5 -95l-27 -162h44q13 0 21 -1.5t15 -10.5t4 -27q-6 -38 -53 -38h-172q-13 0 -21.5 1.5t-16 10.5t-4.5 26zM91 -125q7 39 46 39q14 0 21.5 -6.5t8.5 -12t2 -16.5q2 -12 101 -12t105 12q12 35 44 35q39 0 32 -39q-5 -30 -25.5 -49 t-53.5 -26.5t-57.5 -10t-58.5 -2.5q-26 0 -45 1t-45.5 6t-42.5 13.5t-26 26t-6 41.5z" />
<glyph unicode="&#x1e36;" horiz-adv-x="642" d="M51 38q7 39 55 39h43l76 457h-43q-13 0 -21.5 1.5t-16 10.5t-4.5 26q7 39 55 39h195q13 0 21.5 -1.5t15.5 -11t4 -26.5q-6 -38 -54 -38h-67l-76 -457h292l10 58q3 16 6 24.5t14 16.5t31 8q19 0 28 -7.5t8 -18.5t-2 -23l-15 -86q-5 -29 -16 -39t-40 -10h-457 q-13 0 -21.5 1.5t-16 10.5t-4.5 26zM240 -137q4 23 23.5 40t44.5 17q23 0 37 -17t10 -40t-23 -40t-44 -17q-23 0 -37.5 17t-10.5 40z" />
<glyph unicode="&#x1e37;" horiz-adv-x="292" d="M18 38q7 39 55 39h43l76 457h-43q-13 0 -21.5 1.5t-16 10.5t-4.5 26q7 39 55 39h80q30 0 37.5 -10t2.5 -39l-81 -485h43q14 0 22 -1.5t15 -10.5t4 -27q-6 -38 -54 -38h-171q-13 0 -21.5 1.5t-16 10.5t-4.5 26zM65 -137q4 23 23.5 40t44.5 17q23 0 37 -17t10 -40t-23 -40 t-44 -17q-23 0 -37.5 17t-10.5 40z" />
<glyph unicode="&#x1e38;" horiz-adv-x="642" d="M51 38q7 39 55 39h43l76 457h-43q-13 0 -21.5 1.5t-16 10.5t-4.5 26q7 39 55 39h195q13 0 21.5 -1.5t15.5 -11t4 -26.5q-6 -38 -54 -38h-67l-76 -457h292l10 58q3 16 6 24.5t14 16.5t31 8q19 0 28 -7.5t8 -18.5t-2 -23l-15 -86q-5 -29 -16 -39t-40 -10h-457 q-13 0 -21.5 1.5t-16 10.5t-4.5 26zM116 703q6 39 54 39h290q14 0 21.5 -1.5t14.5 -11t4 -27.5q-6 -39 -54 -39h-289q-13 0 -21.5 1.5t-15.5 11t-4 27.5zM240 -137q4 23 23.5 40t44.5 17q23 0 37 -17t10 -40t-23 -40t-44 -17q-23 0 -37.5 17t-10.5 40z" />
<glyph unicode="&#x1e39;" horiz-adv-x="292" d="M18 38q7 39 55 39h43l76 457h-43q-13 0 -21.5 1.5t-16 10.5t-4.5 26q7 39 55 39h80q30 0 37.5 -10t2.5 -39l-81 -485h43q14 0 22 -1.5t15 -10.5t4 -27q-6 -38 -54 -38h-171q-13 0 -21.5 1.5t-16 10.5t-4.5 26zM55 703q6 39 54 39h290q14 0 21.5 -1.5t14.5 -11t4 -27.5 q-6 -39 -54 -39h-289q-13 0 -21.5 1.5t-15.5 11t-4 27.5zM65 -137q4 23 23.5 40t44.5 17q23 0 37 -17t10 -40t-23 -40t-44 -17q-23 0 -37.5 17t-10.5 40z" />
<glyph unicode="&#x1e42;" horiz-adv-x="933" d="M62 38q7 39 55 39h43l76 457h-43q-13 0 -21.5 1.5t-16 10.5t-4.5 26q7 39 55 39h93q28 0 39.5 -8t17.5 -33l127 -467l283 469q11 18 24.5 27t22.5 10.5t24 1.5h93q14 0 22 -1.5t15 -10.5t4 -27q-6 -38 -54 -38h-43l-76 -457h43q14 0 22 -1.5t15 -10.5t4 -27 q-6 -38 -54 -38h-159q-13 0 -21.5 1.5t-15.5 11t-4 26.5q6 38 54 38h44l70 419l-271 -446q-23 -39 -57 -39q-35 0 -44 41l-122 445l-70 -420h44q13 0 21.5 -1.5t15.5 -11t4 -26.5q-6 -38 -54 -38h-159q-13 0 -21.5 1.5t-16 10.5t-4.5 26zM386 -137q4 23 23.5 40t44.5 17 q23 0 37 -17t10 -40t-23 -40t-44 -17q-23 0 -37.5 17t-10.5 40z" />
<glyph unicode="&#x1e43;" horiz-adv-x="875" d="M26 38q7 39 55 39h44l47 282h-44q-12 0 -20.5 1.5t-16.5 10.5t-5 26q7 39 55 39h81q28 0 35.5 -8.5t4.5 -31.5q65 46 142 46q93 0 119 -63q75 63 165 63q149 0 124 -151l-36 -214h44q14 0 22 -1.5t15 -10.5t4 -27q-6 -38 -54 -38h-172q-13 0 -21 1.5t-15.5 10.5t-4.5 26 q7 39 54 39h44l35 209q7 41 -4.5 60t-53.5 19q-46 0 -92 -30.5t-57 -95.5l-27 -162h43q14 0 22 -1.5t15 -10.5t4 -27q-6 -38 -54 -38h-171q-13 0 -21.5 1.5t-16 10.5t-4.5 26q7 39 55 39h43l35 209q7 41 -4.5 60t-53.5 19q-46 0 -92 -30.5t-57 -95.5l-27 -162h44 q13 0 21 -1.5t15 -10.5t4 -27q-6 -38 -53 -38h-172q-13 0 -21 1.5t-16 10.5t-5 26zM357 -137q4 23 23.5 40t44.5 17q23 0 37 -17t10 -40t-23 -40t-44 -17q-23 0 -37.5 17t-10.5 40z" />
<glyph unicode="&#x1e44;" horiz-adv-x="758" d="M60 38q7 39 54 39h44l76 457h-44q-12 0 -20.5 1.5t-16 10.5t-4.5 26q7 39 54 39h92q15 0 23.5 -1t20.5 -10t19 -26l197 -483l74 443h-43q-13 0 -21.5 1.5t-16 10.5t-4.5 26q7 39 55 39h159q13 0 21 -1.5t15 -10.5t4 -27q-6 -38 -53 -38h-44l-81 -485q-5 -31 -16 -40 t-40 -9q-15 0 -23.5 1t-20.5 10t-19 26l-197 483l-74 -443h43q14 0 22 -1.5t15 -10.5t4 -27q-6 -38 -54 -38h-159q-13 0 -21 1.5t-15.5 10.5t-4.5 26zM438 700q3 23 22.5 40t44.5 17q23 0 37.5 -17t10.5 -40q-4 -22 -23.5 -39.5t-44.5 -17.5q-23 0 -37 17t-10 40z" />
<glyph unicode="&#x1e45;" horiz-adv-x="583" d="M22 38q7 39 55 39h43l47 282h-43q-13 0 -21.5 1.5t-16 10.5t-4.5 26q7 39 55 39h80q28 0 35.5 -8.5t5.5 -30.5q68 45 142 45q148 0 124 -151l-36 -214h43q14 0 22 -1.5t15 -10.5t4 -27q-6 -38 -54 -38h-172q-13 0 -21 1.5t-15 10.5t-4 27q6 38 53 38h44l35 209 q7 41 -4 60t-53 19q-47 0 -92.5 -31t-56.5 -95l-27 -162h44q13 0 21 -1.5t15 -10.5t4 -27q-6 -38 -53 -38h-172q-13 0 -21.5 1.5t-16 10.5t-4.5 26zM324 537q3 23 22.5 40t44.5 17q23 0 37.5 -17t10.5 -40q-4 -22 -23.5 -39.5t-44.5 -17.5q-23 0 -37 17t-10 40z" />
<glyph unicode="&#x1e46;" horiz-adv-x="758" d="M60 38q7 39 54 39h44l76 457h-44q-12 0 -20.5 1.5t-16 10.5t-4.5 26q7 39 54 39h92q15 0 23.5 -1t20.5 -10t19 -26l197 -483l74 443h-43q-13 0 -21.5 1.5t-16 10.5t-4.5 26q7 39 55 39h159q13 0 21 -1.5t15 -10.5t4 -27q-6 -38 -53 -38h-44l-81 -485q-5 -31 -16 -40 t-40 -9q-15 0 -23.5 1t-20.5 10t-19 26l-197 483l-74 -443h43q14 0 22 -1.5t15 -10.5t4 -27q-6 -38 -54 -38h-159q-13 0 -21 1.5t-15.5 10.5t-4.5 26zM298 -137q4 23 23.5 40t44.5 17q23 0 37 -17t10 -40t-23 -40t-44 -17q-23 0 -37.5 17t-10.5 40z" />
<glyph unicode="&#x1e47;" horiz-adv-x="583" d="M22 38q7 39 55 39h43l47 282h-43q-13 0 -21.5 1.5t-16 10.5t-4.5 26q7 39 55 39h80q28 0 35.5 -8.5t5.5 -30.5q68 45 142 45q148 0 124 -151l-36 -214h43q14 0 22 -1.5t15 -10.5t4 -27q-6 -38 -54 -38h-172q-13 0 -21 1.5t-15 10.5t-4 27q6 38 53 38h44l35 209 q7 41 -4 60t-53 19q-47 0 -92.5 -31t-56.5 -95l-27 -162h44q13 0 21 -1.5t15 -10.5t4 -27q-6 -38 -53 -38h-172q-13 0 -21.5 1.5t-16 10.5t-4.5 26zM211 -137q4 23 23.5 40t44.5 17q23 0 37 -17t10 -40t-23 -40t-44 -17q-23 0 -37.5 17t-10.5 40z" />
<glyph unicode="&#x1e58;" horiz-adv-x="758" d="M53 38q7 39 55 39h44l76 457h-44q-12 0 -20.5 1.5t-16.5 10.5t-5 26q7 39 55 39h260q111 0 183.5 -50.5t60.5 -121.5q-6 -39 -38.5 -74t-84.5 -59q22 -15 36 -39q11 -22 11 -42t-7 -60q-4 -26 -5.5 -39t-0.5 -29.5t9 -23.5t24 -7q31 0 40 36q10 37 48 37q43 0 37 -39 q-7 -41 -46 -76t-92 -35q-67 0 -93 48q-14 25 -14.5 52.5t8.5 71.5q8 39 5 55t-25 30q-40 21 -115 21h-130l-32 -190h44q13 0 21.5 -1.5t15.5 -11t4 -26.5q-6 -38 -54 -38h-172q-13 0 -21 1.5t-16 10.5t-5 26zM280 344h123q78 0 142.5 26.5t70.5 68.5q7 42 -48 68.5 t-133 26.5h-123zM440 711q3 23 22.5 40t44.5 17q23 0 37.5 -17t10.5 -40q-4 -22 -23.5 -39.5t-44.5 -17.5q-23 0 -37 17t-10 40z" />
<glyph unicode="&#x1e59;" horiz-adv-x="408" d="M19 38q7 39 55 39h44l47 282h-44q-12 0 -20.5 1.5t-16.5 10.5t-5 26q7 39 55 39h81q28 0 35 -8t5 -32q58 46 119 46q46 0 62.5 -30t0.5 -59.5t-51 -29.5q-41 0 -41 40q-48 -10 -80.5 -59t-43.5 -113l-19 -114h67q14 0 22 -1.5t15 -10.5t4 -27q-6 -38 -54 -38h-195 q-13 0 -21 1.5t-16 10.5t-5 26zM236 537q3 23 22.5 40t44.5 17q23 0 37.5 -17t10.5 -40q-4 -22 -23.5 -39.5t-44.5 -17.5q-23 0 -37 17t-10 40z" />
<glyph unicode="&#x1e5a;" horiz-adv-x="758" d="M53 38q7 39 55 39h44l76 457h-44q-12 0 -20.5 1.5t-16.5 10.5t-5 26q7 39 55 39h260q111 0 183.5 -50.5t60.5 -121.5q-6 -39 -38.5 -74t-84.5 -59q22 -15 36 -39q11 -22 11 -42t-7 -60q-4 -26 -5.5 -39t-0.5 -29.5t9 -23.5t24 -7q31 0 40 36q10 37 48 37q43 0 37 -39 q-7 -41 -46 -76t-92 -35q-67 0 -93 48q-14 25 -14.5 52.5t8.5 71.5q8 39 5 55t-25 30q-40 21 -115 21h-130l-32 -190h44q13 0 21.5 -1.5t15.5 -11t4 -26.5q-6 -38 -54 -38h-172q-13 0 -21 1.5t-16 10.5t-5 26zM280 344h123q78 0 142.5 26.5t70.5 68.5q7 42 -48 68.5 t-133 26.5h-123zM298 -137q4 23 23.5 40t44.5 17q23 0 37 -17t10 -40t-23 -40t-44 -17q-23 0 -37.5 17t-10.5 40z" />
<glyph unicode="&#x1e5b;" horiz-adv-x="408" d="M19 38q7 39 55 39h44l47 282h-44q-12 0 -20.5 1.5t-16.5 10.5t-5 26q7 39 55 39h81q28 0 35 -8t5 -32q58 46 119 46q46 0 62.5 -30t0.5 -59.5t-51 -29.5q-41 0 -41 40q-48 -10 -80.5 -59t-43.5 -113l-19 -114h67q14 0 22 -1.5t15 -10.5t4 -27q-6 -38 -54 -38h-195 q-13 0 -21 1.5t-16 10.5t-5 26zM78 -137q4 23 23.5 40t44.5 17q23 0 37 -17t10 -40t-23 -40t-44 -17q-23 0 -37.5 17t-10.5 40z" />
<glyph unicode="&#x1e5c;" horiz-adv-x="758" d="M53 38q7 39 55 39h44l76 457h-44q-12 0 -20.5 1.5t-16.5 10.5t-5 26q7 39 55 39h260q111 0 183.5 -50.5t60.5 -121.5q-6 -39 -38.5 -74t-84.5 -59q22 -15 36 -39q11 -22 11 -42t-7 -60q-4 -26 -5.5 -39t-0.5 -29.5t9 -23.5t24 -7q31 0 40 36q10 37 48 37q43 0 37 -39 q-7 -41 -46 -76t-92 -35q-67 0 -93 48q-14 25 -14.5 52.5t8.5 71.5q8 39 5 55t-25 30q-40 21 -115 21h-130l-32 -190h44q13 0 21.5 -1.5t15.5 -11t4 -26.5q-6 -38 -54 -38h-172q-13 0 -21 1.5t-16 10.5t-5 26zM280 344h123q78 0 142.5 26.5t70.5 68.5q7 42 -48 68.5 t-133 26.5h-123zM298 -137q4 23 23.5 40t44.5 17q23 0 37 -17t10 -40t-23 -40t-44 -17q-23 0 -37.5 17t-10.5 40zM305 703q6 39 54 39h290q14 0 21.5 -1.5t14.5 -11t4 -27.5q-6 -39 -54 -39h-289q-13 0 -21.5 1.5t-15.5 11t-4 27.5z" />
</font>
</defs>
</svg>
