<?xml version="1.0" standalone="no"?>
<!DOCTYPE svg PUBLIC "-//W3C//DTD SVG 1.1//EN" "http://www.w3.org/Graphics/SVG/1.1/DTD/svg11.dtd" >
<svg xmlns="http://www.w3.org/2000/svg">
<metadata></metadata>
<defs>
<font id="latin_modern_mono_light10Rg" horiz-adv-x="525" >
<font-face units-per-em="1000" ascent="770" descent="-230" />
<missing-glyph horiz-adv-x="500" />
<glyph unicode=" " />
<glyph unicode="!" d="M221 41q0 18 12 30t29 12t29 -12t12 -30q0 -17 -12 -29t-29 -12t-29 12t-12 29zM221 574q0 20 9.5 31.5t17 14t14.5 2.5t14.5 -2.5t17 -14t9.5 -31.5l-9 -344q-2 -26 -6.5 -33t-25.5 -7q-30 0 -31 17z" />
<glyph unicode="&#x22;" d="M135 577q-2 23 11 34t25 11t24.5 -10t10.5 -35l-13 -211q-2 -27 -22 -27t-23 28zM318 577q-2 23 11 34t25 11t24.5 -10t10.5 -35l-13 -211q-2 -27 -22 -27t-23 28z" />
<glyph unicode="#" d="M38 194q0 26 38 26h60l21 172h-81q-38 0 -38 26t38 26h89l16 134q4 33 27 33q11 0 19.5 -8.5t5.5 -28.5l-16 -130h128l16 134q4 33 27 33q11 0 19.5 -8.5t5.5 -28.5l-16 -130h51q38 0 38 -26t-38 -26h-59l-21 -172h80q38 0 38 -26q0 -25 -38 -25h-88l-17 -135 q-7 -34 -27 -34q-12 0 -19 8t-7 18l18 143h-127l-18 -135q-7 -34 -27 -34q-11 0 -18.5 8t-7.5 18l18 143h-52q-38 0 -38 25zM188 220h128l21 172h-128z" />
<glyph unicode="$" d="M61 161q0 17 8 27.5t15.5 12.5t13.5 2q13 0 24 -10.5t11 -26.5q0 -20 -19 -31q25 -85 127 -98v260q-49 9 -85 27t-53.5 36t-27.5 40t-12 34t-2 23q0 57 48.5 103.5t131.5 55.5v49q0 32 22 32q21 0 21 -32v-48q88 -8 133.5 -51.5t45.5 -103.5q0 -21 -11 -30.5t-26 -9.5 t-25 10.5t-10 24.5q0 17 17 30q-23 74 -124 87v-235q53 -10 91 -31.5t55.5 -48t25 -49.5t7.5 -44q0 -58 -45 -108t-134 -64v-48q0 -32 -21 -32q-22 0 -22 32v48q-87 9 -133.5 55.5t-46.5 111.5zM107 461q0 -42 37.5 -72t96.5 -41v227q-61 -10 -97.5 -41.5t-36.5 -72.5z M284 37q61 11 97 46t36 79t-35 79t-98 47v-251z" />
<glyph unicode="%" d="M38 570q0 53 22.5 90t56.5 37t57 -36.5t23 -91.5q0 -54 -22.5 -91t-57.5 -37q-34 0 -56.5 37t-22.5 92zM75 570q0 -37 14.5 -61t27.5 -24q14 0 28.5 24t14.5 61q0 34 -14.5 58.5t-28.5 24.5t-28 -24.5t-14 -58.5zM91 -60q0 6 6 19l282 712q10 26 28 26q10 0 18 -8t8 -18 q0 -5 -6 -19l-286 -721q-9 -17 -24 -17q-11 0 -18.5 8t-7.5 18zM327 41q0 53 22.5 90.5t57.5 37.5t57 -37t22 -91q0 -53 -22 -90t-57 -37t-57.5 37t-22.5 90zM364 41q0 -36 14.5 -59.5t28.5 -23.5q13 0 27.5 23.5t14.5 59.5q0 37 -14.5 60.5t-27.5 23.5q-14 0 -28.5 -23.5 t-14.5 -60.5z" />
<glyph unicode="&#x26;" d="M30 131q0 59 37 105l71 77q-30 90 -30 170q0 67 29 103t68 36q31 0 51 -21.5t27 -49t7 -60.5q0 -80 -106 -191q18 -49 89 -166q38 73 104 249q-18 0 -25.5 0.5t-14.5 5.5t-7 15q0 21 31 21h95q31 0 31 -22q0 -20 -31 -20h-39l-64 -168q-31 -72 -56 -114 q17 -23 44.5 -46.5t54.5 -23.5q45 0 52 75q2 16 18 16q18 -1 18 -24q0 -40 -23 -74.5t-65 -34.5q-25 0 -51.5 15.5t-38.5 28t-31 34.5q-63 -78 -128 -78q-53 0 -85 42t-32 100zM81 134q0 -33 16.5 -68t50.5 -35q53 0 103 70q-23 33 -49 80q-30 48 -48 88q-49 -54 -61 -75.5 t-12 -59.5zM145 483q0 -62 22 -138q86 96 86 146q0 22 -11 55.5t-37 33.5q-23 0 -41.5 -25t-18.5 -72z" />
<glyph unicode="'" d="M227 577q-2 23 11 34t25 11t24.5 -10t10.5 -35l-13 -211q-2 -27 -22 -27t-23 28z" />
<glyph unicode="(" d="M180 306q0 72 21 138.5t51.5 110.5t64.5 77.5t59 49t35 15.5q12 0 17 -6t5 -13q0 -10 -20 -22q-97 -66 -139.5 -161t-42.5 -189q0 -98 44 -192t136 -157q22 -13 22 -23q0 -7 -5 -13t-17 -6q-19 0 -65.5 39t-83.5 90q-82 119 -82 262z" />
<glyph unicode=")" d="M92 -66q0 9 20 22q51 35 88.5 80t57 92.5t28 91t8.5 86.5q0 34 -6 70t-23.5 88.5t-60 105t-104.5 94.5q-8 6 -8 14q0 6 5.5 12.5t16.5 6.5q19 0 65.5 -39t83.5 -90q82 -119 82 -262q0 -72 -21 -138.5t-51.5 -110.5t-64.5 -77.5t-59 -49t-35 -15.5q-11 0 -16.5 6.5 t-5.5 12.5z" />
<glyph unicode="*" d="M72 211q0 14 20 25l129 70l-130 70q-19 11 -19 24q0 9 6.5 16.5t17.5 7.5q4 0 6 -1l137 -80l-1 142q0 33 24 33t24 -33l-1 -141l139 80q28 -1 28 -24q0 -14 -20 -25l-129 -70l142 -76q7 -11 7 -18q0 -9 -6.5 -16.5t-17.5 -7.5q-6 0 -33 15l-109 64v-140q0 -33 -24 -33 t-24 33v141l-138 -80q-28 1 -28 24z" />
<glyph unicode="+" d="M41 306q0 26 38 26h157v158q0 38 26 38t26 -38v-158h157q38 0 38 -26t-38 -26h-157v-158q0 -38 -26 -38t-26 38v158h-157q-38 0 -38 26z" />
<glyph unicode="," d="M188 -121q0 11 14 17q16 5 31.5 13.5t35 30.5t24.5 50l1 20q-11 -10 -32 -10q-22 0 -38 15.5t-16 39.5q0 22 15 38t40 16q31 0 53 -26t22 -67q0 -49 -26.5 -88t-54.5 -55.5t-47 -16.5q-9 0 -15.5 7t-6.5 16z" />
<glyph unicode="-" d="M59 306q0 26 39 26h328q39 0 39 -26t-39 -26h-328q-39 0 -39 26z" />
<glyph unicode="." d="M208 55q0 21 15.5 37.5t39.5 16.5q22 0 38 -16t16 -39q0 -21 -15.5 -37.5t-39.5 -16.5q-22 0 -38 16t-16 39z" />
<glyph unicode="/" d="M61 -60q0 3 8 20l341 714q0 1 1 2q12 20 26 21q10 0 18 -8t8 -18q0 -2 -8 -21l-341 -713q-12 -23 -27 -23q-11 0 -18.5 8t-7.5 18z" />
<glyph unicode="0" d="M53 306q0 134 62 225t147 91t147 -90.5t62 -226.5q0 -134 -62 -225t-147 -91t-147 90.5t-62 226.5zM104 316q0 -119 47 -202t111 -83t111 83t47 202q0 115 -48 189.5t-110 74.5q-63 0 -110.5 -74.5t-47.5 -189.5z" />
<glyph unicode="1" d="M110 475q0 16 18 20q88 11 135 115q5 12 19 12q20 0 20 -32v-548h105q31 0 31 -21t-31 -21h-260q-31 0 -31 21t31 21h105v470q-67 -58 -118 -58q-24 0 -24 21z" />
<glyph unicode="2" d="M55 22q0 10 12 20l228 192q123 102 123 197q0 69 -51.5 109t-123.5 40q-46 0 -82.5 -25t-50.5 -69q17 -13 17 -29t-11 -26t-25 -10q-13 0 -24.5 9.5t-11.5 29.5q0 65 55 113.5t139 48.5q93 0 156.5 -52.5t63.5 -138.5q0 -93 -90 -181q-36 -33 -125.5 -107.5 t-119.5 -100.5h284q0 20 1 28t6.5 14.5t18.5 6.5q12 0 17.5 -6t6.5 -11t1 -15v-27q0 -19 -6 -25.5t-25 -6.5h-351q-32 0 -32 22z" />
<glyph unicode="3" d="M47 130q0 18 10.5 28.5t25.5 10.5t25 -10.5t10 -25.5t-15 -30q22 -39 69.5 -55.5t91.5 -16.5q72 0 117 42.5t45 96.5q0 53 -44 96t-121 43h-48q-31 0 -31 22q0 13 12 17t53 7q36 2 57 7.5t45 25.5q47 38 47 98q0 39 -37.5 66.5t-94.5 27.5q-87 0 -129 -42q13 -14 13 -28 q0 -16 -10.5 -26.5t-24.5 -10.5t-25 10t-11 29q0 51 49.5 80.5t136.5 29.5q82 0 133 -39.5t51 -95.5q0 -91 -98 -154q128 -58 128 -163q0 -72 -60 -126.5t-153 -54.5t-155 38.5t-62 102.5z" />
<glyph unicode="4" d="M31 206q0 17 4 24l240 376q8 12 13.5 14.5t21.5 2.5h28q20 0 26.5 -6t6.5 -26v-374h91q31 0 31 -22q0 -20 -31 -20h-91v-133h74q31 0 31 -21t-31 -21h-186q-31 0 -31 21t31 21h74v133h-271q-18 0 -24.5 6t-6.5 25zM75 217h258v364h-27z" />
<glyph unicode="5" d="M55 136q0 21 11.5 30.5t24.5 9.5q14 0 25 -10t11 -26q0 -14 -16 -32q22 -44 61.5 -60.5t75.5 -16.5q70 0 120 45t50 110q0 59 -38.5 106t-103.5 47q-91 0 -142 -61q-6 -6 -19 -6q-23 0 -23 32v275q0 19 6 25.5t25 6.5h279q31 0 31 -22q0 -20 -31 -20h-259v-224 q67 36 134 36q84 0 138 -58.5t54 -136.5q0 -82 -64.5 -139.5t-156.5 -57.5q-82 0 -137.5 43t-55.5 104z" />
<glyph unicode="6" d="M56 299q0 145 80.5 234t186.5 89q64 0 95.5 -28t31.5 -68q0 -18 -10 -28t-26 -10q-15 0 -25 10t-10 25q0 16 14 30q-27 27 -71 27q-77 0 -140 -70t-76 -197q84 76 167 76q81 0 138 -58t57 -142q0 -86 -60.5 -143t-143.5 -57q-86 0 -147 74t-61 236zM117 219q0 -38 9 -67 q39 -121 138 -121q62 0 107.5 44.5t45.5 113.5q0 64 -41.5 110t-107.5 46q-63 0 -107 -37t-44 -89z" />
<glyph unicode="7" d="M47 552v43q0 10 1 15.5t6.5 11.5t17.5 6q19 0 26 -17h348q31 0 31 -22q0 -7 -4 -12q-245 -239 -245 -560q-1 -28 -25 -28q-26 0 -26 38q0 49 9 105t31.5 129t71 154t116.5 154h-307q0 -20 -1 -28t-6.5 -14.5t-18.5 -6.5q-12 0 -17.5 6t-6.5 11t-1 15z" />
<glyph unicode="8" d="M47 170q0 117 149 159q-77 25 -106 58.5t-29 79.5q0 61 58 108t143 47t143 -46.5t58 -108.5q0 -46 -28.5 -79t-105.5 -59q148 -43 148 -159q0 -73 -62 -127t-153 -54t-153 54t-62 127zM98 171q0 -58 47.5 -99t116.5 -41t116.5 41t47.5 99q0 53 -45.5 93.5t-118.5 40.5 t-118.5 -40.5t-45.5 -93.5zM112 466q0 -46 44 -78t106 -32t106 31.5t44 78.5q0 45 -43.5 79.5t-106.5 34.5q-64 0 -107 -34.5t-43 -79.5z" />
<glyph unicode="9" d="M56 422q0 87 62.5 143.5t146.5 56.5q38 0 72 -15.5t64.5 -49t48.5 -96.5t18 -149q0 -143 -75.5 -233t-178.5 -90q-43 0 -73 10t-43.5 26.5t-18.5 31t-5 28.5q0 17 10 27.5t26 10.5q15 0 25 -10t10 -25q0 -14 -13 -31q35 -26 82 -26q79 0 136 73.5t67 192.5 q-83 -75 -166 -75q-81 0 -138 58t-57 142zM107 422q0 -64 41.5 -110t107.5 -46t109 38.5t43 87.5l-3 39q0 11 -11.5 44t-30.5 57q-39 48 -98 48q-63 0 -110.5 -44.5t-47.5 -113.5z" />
<glyph unicode=":" d="M208 55q0 21 15.5 37.5t39.5 16.5q22 0 38 -16t16 -39q0 -21 -15.5 -37.5t-39.5 -16.5q-22 0 -38 16t-16 39zM208 371q0 21 15.5 37.5t39.5 16.5q22 0 38 -16t16 -39q0 -21 -15.5 -37.5t-39.5 -16.5q-22 0 -38 16t-16 39z" />
<glyph unicode=";" d="M188 -121q0 9 11 16q12 7 19.5 12t21 17t23.5 31.5t16 44.5q-38 0 -54.5 16t-16.5 39q0 22 15.5 38t38.5 16q27 0 43.5 -23.5t16.5 -67.5q0 -70 -43 -116t-69 -46q-9 0 -15.5 7t-6.5 16zM208 371q0 21 15.5 37.5t39.5 16.5q22 0 38 -16t16 -39q0 -21 -15.5 -37.5 t-39.5 -16.5q-22 0 -38 16t-16 39z" />
<glyph unicode="&#x3c;" d="M59 306q0 15 18 25l340 214q13 9 22 9q10 0 18 -7t8 -19q0 -14 -20 -26l-311 -196l311 -196q20 -12 20 -26q0 -12 -8 -19t-18 -7q-9 0 -22 9l-344 216q-14 10 -14 23z" />
<glyph unicode="=" d="M41 227q0 26 36 26h370q36 0 36 -26q0 -25 -42 -25h-358q-42 0 -42 25zM41 385q0 25 42 25h358q42 0 42 -25q0 -26 -36 -26h-370q-36 0 -36 26z" />
<glyph unicode="&#x3e;" d="M59 84q0 14 20 26l311 196l-311 196q-20 12 -20 26q0 12 8 19t18 7q9 0 22 -9l344 -216q14 -10 14 -23q0 -15 -18 -25l-341 -214q-12 -9 -21 -9q-10 0 -18 7t-8 19z" />
<glyph unicode="?" d="M66 501q0 47 45.5 81.5t140.5 34.5q63 0 107.5 -13t64 -33.5t27 -37.5t7.5 -34q0 -57 -62 -91q-119 -64 -119 -169v-18q0 -19 -6.5 -25t-24.5 -6q-22 0 -26.5 8.5t-4.5 35.5q0 22 3 39t15 47.5t44.5 61.5t82.5 59q48 25 48 58q0 30 -38.5 53t-117.5 23q-87 0 -129 -46 q14 -17 14 -30q0 -16 -10.5 -26t-24.5 -10t-25 10t-11 28zM205 41q0 18 12 30t29 12q18 0 30 -12t12 -30q0 -17 -12 -29t-30 -12q-17 0 -29 12t-12 29z" />
<glyph unicode="@" d="M47 306q0 132 77 221.5t181 89.5q172 0 172 -295q0 -60 -14.5 -104t-38 -66t-45 -32t-42.5 -10q-56 0 -97 55.5t-41 140.5q0 82 40 138.5t99 56.5q31 0 88 -36q-42 110 -121 110q-87 0 -154 -76.5t-67 -193.5q0 -113 66.5 -191t155.5 -78q67 0 122 51q5 4 20 4 q29 0 29 -19q0 -23 -54.5 -50.5t-115.5 -27.5q-106 0 -183 90t-77 222zM236 305q0 -64 31 -108.5t71 -44.5q39 0 70.5 44t31.5 109q0 66 -31.5 110t-71.5 44q-38 0 -69.5 -43.5t-31.5 -110.5z" />
<glyph unicode="A" d="M29 21q0 6 1 9.5t4.5 6t6.5 4t9.5 1.5h11h13h14.5l127 550q4 15 11 22t13.5 8t21.5 1q16 0 22.5 -1t13 -8.5t10.5 -22.5l127 -549h14.5h13.5h10.5t9.5 -1.5t6.5 -4t4.5 -6.5t1 -9q0 -21 -35 -21h-105q-33 0 -33 21q0 15 12 18t48 3l-28 129h-184l-28 -129q36 0 48 -3 t12 -18q0 -21 -33 -21h-106q-34 0 -34 21zM181 213h162l-77 368h-7z" />
<glyph unicode="B" d="M25 21q0 21 32 21h39v527h-39q-32 0 -32 21t31 21h234q76 0 121.5 -46t45.5 -104q0 -99 -128 -142q150 -36 150 -157q0 -63 -45.5 -112.5t-122.5 -49.5h-255q-31 0 -31 21zM146 42h142q67 0 103.5 37.5t36.5 84.5q0 51 -45 92t-114 41h-123v-255zM146 339h117 q73 0 108.5 38.5t35.5 82.5q0 39 -28.5 74t-92.5 35h-140v-230z" />
<glyph unicode="C" d="M43 306q0 135 70.5 225.5t168.5 90.5q73 0 137 -55q19 35 21 43q10 12 20 12q21 0 21 -32v-143q0 -11 -1 -16t-7 -10.5t-18 -5.5q-10 0 -15.5 4t-7 8t-3.5 13q-11 65 -51 102.5t-92 37.5q-75 0 -134 -78.5t-59 -195.5q0 -118 59 -196.5t135 -78.5q47 0 92.5 32t50.5 104 q2 20 25 20q26 0 26 -24q0 -68 -57.5 -121t-140.5 -53q-99 0 -169.5 91t-70.5 226z" />
<glyph unicode="D" d="M21 21q0 21 32 21h33v527h-33q-32 0 -32 20q0 22 32 22h213q96 0 156 -92.5t60 -217.5q0 -124 -60.5 -212.5t-155.5 -88.5h-213q-32 0 -32 21zM137 42h109q86 0 136 78t50 181q0 104 -50 186t-136 82h-109v-527z" />
<glyph unicode="E" d="M28 21q0 21 32 21h42v527h-42q-32 0 -32 21t32 21h386q19 0 25 -6.5t6 -25.5v-76q0 -10 -1 -15.5t-7 -11t-18 -5.5q-17 0 -21 8.5t-4 23.5v66h-274v-231h157q0 26 1 36t6.5 16.5t17.5 6.5t17.5 -6t6.5 -11t1 -15v-96q0 -10 -1 -15.5t-6.5 -11t-17.5 -5.5q-17 0 -21 11 t-4 48h-157v-254h297v82q0 10 1 15.5t7 11t18 5.5q17 0 21 -8t4 -24v-92q0 -19 -6 -25.5t-25 -6.5h-409q-32 0 -32 21z" />
<glyph unicode="F" d="M30 21q0 21 32 21h45v527h-45q-32 0 -32 20q0 22 32 22h394q20 0 25.5 -6.5t5.5 -25.5v-76q0 -10 -1 -15.5t-6.5 -11t-17.5 -5.5t-17.5 6t-6.5 11t-1 15v66h-279v-242h161q0 26 1 36t6.5 16.5t18.5 6.5q17 0 21 -8.5t4 -23.5v-97q0 -10 -1 -15t-6.5 -11t-17.5 -6 q-18 0 -22 11t-4 48h-161v-242h64q31 0 31 -21t-31 -21h-160q-32 0 -32 21z" />
<glyph unicode="G" d="M41 306q0 134 64.5 225t155.5 91q64 0 125 -53q15 34 21 43.5t17 9.5q21 0 21 -32v-143q0 -11 -1 -16t-7 -10.5t-18 -5.5q-21 0 -24 16q-7 44 -23 75.5t-35.5 46.5t-37 21t-34.5 6q-67 0 -120.5 -78.5t-53.5 -196.5q0 -116 52.5 -195t120.5 -79q48 0 83.5 45t45.5 140 h-55q-31 0 -31 22q0 20 31 20h124q32 0 32 -20q0 -10 -7 -15t-15.5 -6t-26.5 -1v-184q0 -10 -1 -15t-6.5 -11t-17.5 -6q-18 0 -22 11.5t-4 49.5q-62 -72 -133 -72q-91 0 -155.5 91t-64.5 226z" />
<glyph unicode="H" d="M24 21q0 21 31 21h36v527h-36q-31 0 -31 20q0 22 31 22h123q31 0 31 -22q0 -20 -31 -20h-36v-230h240v230h-36q-31 0 -31 21t31 21h123q31 0 31 -22q0 -20 -31 -20h-36v-527h36q31 0 31 -21t-31 -21h-123q-31 0 -31 22q0 20 31 20h36v255h-240v-255h36q31 0 31 -21 t-31 -21h-123q-31 0 -31 21z" />
<glyph unicode="I" d="M83 22q0 20 32 20h122v527h-122q-32 0 -32 21t32 21h295q32 0 32 -22q0 -20 -32 -20h-122v-527h122q32 0 32 -21t-32 -21h-295q-32 0 -32 22z" />
<glyph unicode="J" d="M75 92q0 18 10.5 28t25.5 10t25 -10.5t10 -24.5q0 -12 -12 -28q40 -36 102 -36q13 0 28 3t37 12t36 31.5t14 56.5v435h-95q-32 0 -32 21t32 21h187q32 0 32 -21t-32 -21h-41v-441q0 -63 -49 -101t-117 -38q-72 0 -116.5 28.5t-44.5 74.5z" />
<glyph unicode="K" d="M28 22q0 20 32 20h31v527h-31q-32 0 -32 21t32 21h104q32 0 32 -22q0 -20 -32 -20h-33v-315l250 315q-15 0 -22.5 0.5t-16 2t-12 6t-3.5 11.5q0 22 32 22h91q32 0 32 -21q0 -10 -7 -14.5t-16 -5.5t-30 -1l-165 -208l179 -319q18 0 26.5 -0.5t16 -5.5t7.5 -15 q0 -21 -33 -21h-77q-32 0 -32 22q0 14 11 17t38 3l-161 288l-108 -136v-152h33q32 0 32 -21t-32 -21h-104q-32 0 -32 22z" />
<glyph unicode="L" d="M35 21q0 21 31 21h48v527h-48q-31 0 -31 20q0 22 31 22h167q32 0 32 -22q0 -20 -32 -20h-68v-527h270v82q0 11 1 16t6.5 10.5t17.5 5.5q17 0 21 -8t4 -24v-92q0 -19 -6 -25.5t-25 -6.5h-388q-31 0 -31 21z" />
<glyph unicode="M" d="M19 21q0 8 3 12.5t11.5 6t16 2t24.5 0.5v527q-17 0 -24.5 0.5t-16 2t-11.5 6t-3 12.5q0 21 31 21h58q38 0 44 -18l109 -340h2l104 324q6 18 15.5 26t33.5 8h58q31 0 31 -21q0 -8 -3 -12.5t-11.5 -6t-16 -2t-24.5 -0.5v-527q17 0 24.5 -0.5t16 -2t11.5 -6t3 -12.5 q0 -21 -31 -21h-85q-31 0 -31 21q0 8 3 12.5t11.5 6t16 2t24.5 0.5v527h-7l-111 -341q-5 -17 -33 -17q-25 0 -30 13l-113 345h-7v-527q16 0 23.5 -0.5t16 -2t11.5 -6t3 -12.5q0 -21 -31 -21h-85q-31 0 -31 21z" />
<glyph unicode="N" d="M30 22q0 20 31 20h37v527h-37q-31 0 -31 21t31 21h71q13 0 20.5 -1.5t15 -8.5t12.5 -20l200 -539h9v527h-36q-31 0 -31 20q0 22 31 22h110q31 0 31 -22q0 -20 -31 -20h-37v-537q0 -21 -6.5 -26.5t-26.5 -5.5q-13 0 -20.5 1.5t-15.5 8t-13 20.5l-200 539h-9v-527h36 q31 0 31 -21t-31 -21h-110q-31 0 -31 22z" />
<glyph unicode="O" d="M59 305q0 59 1 97t5 74t9.5 56.5t17.5 39t25 27t36 14.5t47.5 7.5t61.5 1.5q50 0 79.5 -3t54.5 -16t36.5 -31t20 -57.5t10.5 -85.5t2 -124q0 -67 -2 -109t-6 -79.5t-14.5 -57.5t-23.5 -36t-37 -22t-50.5 -9t-69.5 -3q-37 0 -61.5 1.5t-47.5 7.5t-36 14.5t-25 27t-17.5 39 t-9.5 56t-5 74t-1 96.5zM110 314q0 -148 13 -202q10 -44 39 -62.5t100 -18.5q73 0 102 19.5t38 68.5q12 56 12 195q0 143 -13 192q-12 45 -42.5 59.5t-96.5 14.5q-71 0 -100.5 -16.5t-39.5 -64.5q-12 -49 -12 -185z" />
<glyph unicode="P" d="M28 21q0 21 32 21h42v527h-42q-32 0 -32 21t32 21h232q81 0 133 -54t52 -125q0 -72 -51.5 -125.5t-133.5 -53.5h-140v-211h42q32 0 32 -21t-32 -21h-134q-32 0 -32 21zM152 296h120q74 0 114 42.5t40 93.5t-40 94t-114 43h-120v-273z" />
<glyph unicode="Q" d="M59 305q0 59 1 97t5 74t9.5 56.5t17.5 39t25 27t36 14.5t47.5 7.5t61.5 1.5q50 0 79.5 -3t54.5 -16t36.5 -31t20 -57.5t10.5 -85.5t2 -124q0 -116 -7 -172q-6 -60 -22 -89t-55 -45l39 -72q31 -59 31 -61q0 -10 -23 -10h-9q-22 0 -27 8l-66 126q-18 -1 -64 -1 q-37 0 -61.5 1.5t-47.5 7.5t-36 14.5t-25 27t-17.5 39t-9.5 56t-5 74t-1 96.5zM110 305q0 -127 9 -181q10 -50 37 -71.5t98 -21.5h50l-58 112l-1 4q0 9 23 9h12q11 0 14 -1.5t8 -9.5l55 -100q21 14 30.5 28.5t18 71t8.5 161.5q0 127 -9 181q-10 54 -39 73.5t-104 19.5 q-74 0 -102 -18.5t-39 -67.5q-11 -50 -11 -189z" />
<glyph unicode="R" d="M24 21q0 21 31 21h36v527h-36q-31 0 -31 20q0 22 31 22h183q83 0 136.5 -48.5t53.5 -114.5q0 -89 -96 -143q46 -35 60 -68q9 -22 9 -93q0 -113 39 -113q14 0 22 21.5t8 35.5q1 21 25 21q25 0 25 -23q0 -33 -20 -65t-59 -32q-47 0 -71 38q-14 24 -17 49t-3 81 q0 40 -4.5 59.5t-21.5 36.5q-36 31 -91 31h-91v-242h36q31 0 31 -21t-31 -21h-123q-31 0 -31 21zM142 327h85q71 0 111 37.5t40 83.5q0 45 -40 83t-111 38h-85v-242z" />
<glyph unicode="S" d="M55 21v136q0 10 1 15.5t7 11t18 5.5q11 0 16.5 -4.5t6.5 -9t2 -12.5q3 -66 53 -98q50 -34 127 -34q62 0 99 38.5t37 86.5q0 100 -123 127l-118 28q-59 17 -92.5 59t-33.5 93q0 64 51.5 111.5t130.5 47.5q85 0 151 -56q9 34 14.5 45t17.5 11q21 0 21 -32v-136 q0 -10 -1 -15.5t-7 -11t-18 -5.5q-20 0 -24 15q-4 19 -7 31t-14.5 36t-26.5 38t-43 26t-64 12q-58 0 -96 -34t-38 -79q0 -38 26 -67t64 -40l84 -19q66 -15 91.5 -25.5t54.5 -38.5q47 -51 47 -116q0 -69 -51.5 -120.5t-132.5 -51.5q-105 0 -177 54q-9 -34 -14.5 -44 t-17.5 -10q-21 0 -21 32z" />
<glyph unicode="T" d="M28 503v76q0 19 6.5 25.5t25.5 6.5h405q19 0 25 -6.5t6 -25.5v-76q0 -10 -1 -15.5t-7 -11t-18 -5.5t-17.5 6t-6.5 11t-1 15v66h-157v-527h64q31 0 31 -21t-31 -21h-179q-31 0 -31 22q0 20 31 20h64v527h-158v-66q0 -10 -1 -15.5t-7 -11t-18 -5.5q-17 0 -21 8.5t-4 23.5z " />
<glyph unicode="U" d="M6 590q0 21 32 21h133q32 0 32 -21t-32 -21h-41v-363q0 -83 41 -129t91 -46t91 46t41 129v363h-41q-32 0 -32 21t32 21h133q32 0 32 -21t-32 -21h-41v-368q0 -89 -54 -150.5t-129 -61.5t-129 61.5t-54 150.5v368h-41q-32 0 -32 21z" />
<glyph unicode="V" d="M20 590q0 21 32 21h106q32 0 32 -21q0 -15 -12.5 -18t-48.5 -3l130 -536l7 1l129 535q-36 0 -48.5 3t-12.5 18q0 21 32 21h106q32 0 32 -21q0 -8 -3 -12.5t-12 -6t-16.5 -2t-25.5 -0.5l-138 -547q-4 -14 -11.5 -21t-14 -8t-21.5 -1t-22 1t-14 8t-11 22l-138 546 q-18 0 -25.5 0.5t-16.5 2t-12 6t-3 12.5z" />
<glyph unicode="W" d="M13 589q0 22 32 22h82q31 0 31 -22q0 -20 -31 -20h-34l67 -535h4l65 309q4 16 33 16q30 0 34 -17l63 -308h4l68 535h-34q-31 0 -31 20q0 22 31 22h82q32 0 32 -22q0 -20 -38 -20l-75 -550q-4 -27 -37 -27q-29 0 -33 18l-65 302l-68 -306q-8 -14 -32 -14q-33 0 -37 27 l-75 550h-10q-28 0 -28 20z" />
<glyph unicode="X" d="M29 21q0 21 31 21h29l143 284l-129 243h-30q-32 0 -32 21t32 21h107q31 0 31 -21q0 -10 -7 -14.5t-15.5 -5.5t-28.5 -1l97 -185l90 185q-16 0 -23.5 0.5t-16 2t-11.5 6t-3 12.5q0 21 31 21h108q32 0 32 -22q0 -20 -32 -20h-30l-122 -242l152 -285h30q32 0 32 -21t-32 -21 h-108q-31 0 -31 21q0 10 7 14.5t16 5.5t30 1l-120 235l-111 -235q17 0 24 -0.5t16 -2t12 -6t3 -12.5q0 -21 -32 -21h-108q-31 0 -31 21z" />
<glyph unicode="Y" d="M21 590q0 21 31 21h108q31 0 31 -21q0 -8 -3 -12.5t-11.5 -6t-15.5 -2t-24 -0.5l126 -280l123 280q-21 0 -30 1t-16 5.5t-7 14.5q0 21 31 21h108q31 0 31 -22q0 -20 -31 -20h-28l-156 -325v-202h36q31 0 31 -21t-31 -21h-123q-31 0 -31 22q0 20 31 20h36v202l-157 325 h-28q-31 0 -31 21z" />
<glyph unicode="Z" d="M51 25q0 13 9 26l351 518h-297v-66q0 -10 -1 -15.5t-7 -11t-18 -5.5t-17.5 6t-6.5 11t-1 15v76q0 19 6.5 25.5t26.5 6.5h345q10 0 15 -1t11 -6.5t6 -17.5q0 -13 -9 -26l-351 -518h314v85q0 10 1 15.5t7 11t18 5.5q17 0 21 -8.5t4 -23.5v-95q0 -19 -6 -25.5t-25 -6.5h-364 q-10 0 -15 1t-11 6.5t-6 17.5z" />
<glyph unicode="[" d="M231 -54v719q0 19 6 25.5t25 6.5h187q31 0 31 -22q0 -21 -31 -21h-167v-697h167q31 0 31 -22q0 -21 -31 -21h-187q-19 0 -25 6.5t-6 25.5z" />
<glyph unicode="\" d="M61 671q0 10 7.5 18t18.5 8q16 0 27 -22l342 -715q7 -12 7 -20q0 -10 -8 -18t-18 -8q-16 0 -27 22l-342 715q-7 12 -7 20z" />
<glyph unicode="]" d="M44 -64q0 21 31 21h167v697h-167q-31 0 -31 22q0 21 31 21h187q19 0 25 -6.5t6 -25.5v-719q0 -19 -6 -25.5t-25 -6.5h-187q-31 0 -31 22z" />
<glyph unicode="^" d="M69 525q0 11 22 22l147 70q22 10 44 0l147 -70q22 -11 22 -22q0 -21 -24 -21q-8 0 -30 10l-137 60l-137 -60q-22 -10 -30 -10q-24 0 -24 21z" />
<glyph unicode="_" d="M59 -153q0 26 39 26h328q39 0 39 -26t-39 -26h-328q-39 0 -39 26z" />
<glyph unicode="`" d="M163 597q0 11 7.5 18t18.5 7q6 0 15 -4l138 -62q19 -8 19 -20q0 -9 -5.5 -20t-18.5 -11q-5 0 -7 1l-144 64q-23 10 -23 27z" />
<glyph unicode="a" d="M58 122q0 69 83 105.5t227 38.5q0 126 -142 126q-69 0 -69 -23q-1 -20 -12.5 -28.5t-23.5 -8.5q-15 0 -25.5 10t-10.5 27q0 65 140 65q97 0 145.5 -45t48.5 -105v-230q32 -12 72 -12q32 0 32 -20q0 -10 -7 -15.5t-14 -6t-21 -0.5q-25 0 -40 1t-36 10t-33 26 q-66 -43 -153 -43q-72 0 -116.5 38t-44.5 90zM109 122q0 -35 32.5 -60.5t84.5 -25.5q57 0 96 19q22 10 32.5 23t12 22.5t1.5 27.5v98q-122 -4 -190.5 -33t-68.5 -71z" />
<glyph unicode="b" d="M14 589q0 22 32 22h75q19 0 25 -6.5t6 -25.5v-212q71 64 142 64q78 0 134.5 -64t56.5 -154q0 -92 -60 -155.5t-142 -63.5q-64 0 -131 68q0 -38 -3.5 -50t-20.5 -12q-12 0 -18 5.5t-7 11t-1 15.5v537h-57q-31 0 -31 20zM152 187q0 -49 34.5 -100t93.5 -51q61 0 108 50.5 t47 126.5q0 72 -43 124t-104 52q-53 0 -94.5 -38.5t-41.5 -87.5v-76z" />
<glyph unicode="c" d="M77 213q0 35 12.5 71.5t37.5 71t72 56.5t107 22q144 0 144 -65q0 -17 -10.5 -27t-25.5 -10q-35 0 -35 40q0 8 -25.5 14t-47.5 6q-52 0 -89.5 -20t-55.5 -50.5t-25.5 -57.5t-7.5 -51q0 -74 51 -125.5t121 -51.5q28 0 50 8t35.5 23t18.5 23.5t12 22.5q6 8 21 8q26 0 26 -19 q0 -8 -8 -24t-25.5 -36t-53.5 -34t-82 -14q-92 0 -154.5 64.5t-62.5 154.5z" />
<glyph unicode="d" d="M39 212q0 92 59.5 155.5t141.5 63.5q63 0 132 -59v197h-57q-31 0 -31 20q0 22 32 22h75q19 0 25 -6.5t6 -25.5v-537h57q31 0 31 -20q0 -22 -32 -22h-75q-22 0 -26.5 11.5t-4.5 55.5q-71 -73 -141 -73q-79 0 -135.5 63.5t-56.5 154.5zM89 212q0 -73 43.5 -124.5 t102.5 -51.5q60 0 98.5 50.5t38.5 103.5v74q0 48 -37.5 86.5t-90.5 38.5q-61 0 -108 -50.5t-47 -126.5z" />
<glyph unicode="e" d="M58 214q0 91 62 155.5t150 64.5q92 0 141 -60t49 -149q0 -13 -5 -19.5t-10 -7.5t-16 -1h-320q14 -76 66.5 -118.5t117.5 -42.5q87 0 120 74q4 11 22 11q25 0 25 -19q0 -11 -10 -27.5t-29 -35.5t-55 -32t-80 -13q-96 0 -162 64.5t-66 155.5zM110 239h299q-5 59 -28.5 95 t-50.5 47t-60 11q-58 0 -102.5 -42t-57.5 -111z" />
<glyph unicode="f" d="M45 22q0 20 32 20h115v341h-115q-31 0 -31 20q0 22 32 22h114v65q0 60 45 93.5t107 33.5q89 0 89 -51q0 -16 -11 -26t-24 -10q-18 0 -26.5 15t-8.5 30q-19 0 -30.5 -0.5t-31 -5.5t-30.5 -14t-20 -27t-9 -44v-59h137q31 0 31 -22q0 -20 -31 -20h-137v-341h115q32 0 32 -21 t-32 -21h-280q-32 0 -32 22z" />
<glyph unicode="g" d="M31 -95q0 75 82 125q-29 38 -29 78q0 36 23 70q-35 46 -35 98q0 63 46.5 109t113.5 46q53 0 101 -33q51 38 109 38q32 0 48.5 -14t16.5 -31q0 -16 -9.5 -24t-21.5 -8q-9 0 -18.5 8t-13.5 28q-44 -4 -83 -25q31 -52 31 -94q0 -65 -46.5 -110.5t-113.5 -45.5q-50 0 -98 31 q-12 -31 -12 -45q2 -26 15 -43q11 -13 18.5 -16t22.5 -3q18 -2 31 -2h73q93 0 145 -28q33 -18 49.5 -48.5t16.5 -60.5q0 -62 -67.5 -102t-163.5 -40q-97 0 -164 40t-67 102zM71 -95q0 -38 55.5 -69t135.5 -31t135.5 31t55.5 69q0 33 -19 54.5t-55.5 30.5t-67.5 11.5t-77 2.5 q-60 0 -78 -2.5t-38 -15.5q-47 -29 -47 -81zM122 275q0 -46 32 -80t78 -34q45 0 77.5 33.5t32.5 81.5q0 46 -32 80t-78 34q-45 0 -77.5 -33.5t-32.5 -81.5z" />
<glyph unicode="h" d="M14 21q0 21 32 21h56v527h-57q-31 0 -31 20q0 22 32 22h75q19 0 25 -6.5t6 -25.5v-217q71 69 146 69q124 0 124 -138v-251h56q32 0 32 -21t-31 -21h-158q-32 0 -32 21t32 21h51v245q0 54 -17.5 78t-62.5 24q-51 0 -95.5 -38.5t-44.5 -114.5v-194h56q32 0 32 -21t-31 -21 h-164q-31 0 -31 21z" />
<glyph unicode="i" d="M82 21q0 21 32 21h136v341h-128q-32 0 -32 21t32 21h147q19 0 25 -6.5t6 -25.5v-351h119q32 0 32 -21t-32 -21h-305q-32 0 -32 21zM222 563q0 18 12 30t29 12t29 -12t12 -30q0 -17 -12 -29t-29 -12t-29 12t-12 29z" />
<glyph unicode="j" d="M51 -167q0 17 11 27t25 10t24.5 -10t10.5 -26l-5 -17q24 -10 73 -10q18 0 29.5 1.5t30 11.5t32.5 30q29 40 29 99v434h-145q-31 0 -31 20q0 22 32 22h163q20 0 25.5 -6.5t5.5 -25.5v-449q0 -27 -8 -55t-26.5 -57.5t-55.5 -48.5t-87 -19q-133 0 -133 69zM278 563 q0 18 12 30t29 12t29 -12t12 -30q0 -17 -12 -29t-29 -12t-29 12t-12 29z" />
<glyph unicode="k" d="M23 22q0 20 31 20h54v527h-54q-31 0 -31 21t31 21h67q19 0 25 -6.5t6 -25.5v-388l204 192h-64q-31 0 -31 20q0 22 31 22h159q32 0 32 -22q0 -20 -32 -20h-37l-137 -130l162 -211h35q32 0 32 -21t-32 -21h-122q-31 0 -31 21q0 13 10 16t44 3h12l-140 183l-95 -85v-96h61 q31 0 31 -21t-31 -21h-159q-31 0 -31 22z" />
<glyph unicode="l" d="M61 21q0 21 32 21h144v527h-145q-31 0 -31 20q0 22 32 22h164q19 0 25 -6.5t6 -25.5v-537h145q31 0 31 -21t-31 -21h-341q-31 0 -31 21z" />
<glyph unicode="m" d="M-1 21q0 15 11.5 18t45.5 3v341q-34 0 -45.5 3t-11.5 18q0 21 32 21h33q10 0 15 -1.5t11 -11.5t7 -30q53 49 96 49q47 0 76 -64q46 64 105 64q28 0 46.5 -16t25.5 -42t9 -41t2 -29v-261q34 0 45.5 -3t11.5 -18q0 -21 -32 -21h-77q-32 0 -32 21q0 10 6.5 15t13.5 5.5 t23 0.5v252q0 54 -12 74.5t-34 20.5q-38 0 -66 -40t-28 -111v-196q34 0 45.5 -3t11.5 -18q0 -21 -32 -21h-77q-32 0 -32 21q0 10 6.5 15t13.5 5.5t23 0.5v252q0 54 -12 74.5t-34 20.5q-37 0 -64.5 -40t-27.5 -111v-196q34 0 45.5 -3t11.5 -18q0 -21 -32 -21h-91 q-32 0 -32 21z" />
<glyph unicode="n" d="M14 21q0 21 32 21h56v341h-57q-31 0 -31 20q0 22 32 22h75q22 0 26.5 -11t4.5 -52q71 69 146 69q124 0 124 -138v-251h56q32 0 32 -21t-31 -21h-158q-32 0 -32 21t32 21h51v245q0 54 -17.5 78t-62.5 24q-51 0 -95.5 -38.5t-44.5 -114.5v-194h56q32 0 32 -21t-31 -21h-164 q-31 0 -31 21z" />
<glyph unicode="o" d="M60 213q0 92 59.5 156.5t142.5 64.5t142.5 -64.5t59.5 -156.5t-60 -155.5t-142 -63.5t-142 63.5t-60 155.5zM111 220q0 -76 44.5 -130t106.5 -54q61 0 106 54t45 130q0 74 -45 123t-106 49q-60 0 -105.5 -49t-45.5 -123z" />
<glyph unicode="p" d="M14 -209q0 22 32 22h56v570h-57q-31 0 -31 20q0 22 32 22h75q21 0 26 -10.5t5 -47.5q71 64 142 64q78 0 134.5 -64t56.5 -154q0 -92 -60 -155.5t-142 -63.5q-64 0 -131 68v-249h56q32 0 32 -22q0 -21 -31 -21h-164q-31 0 -31 21zM152 187q0 -49 34.5 -100t93.5 -51 q61 0 108 50.5t47 126.5q0 72 -43 124t-104 52q-53 0 -94.5 -38.5t-41.5 -87.5v-76z" />
<glyph unicode="q" d="M43 212q0 92 63 155.5t148 63.5q72 0 139 -73q0 26 0.5 36.5t3 21t7.5 13t15 2.5q17 0 21 -8.5t4 -23.5v-586h61q31 0 31 -22q0 -21 -31 -21h-173q-31 0 -31 22q0 21 31 21h61v259q-71 -78 -150 -78q-82 0 -141 63.5t-59 154.5zM93 212q0 -73 46.5 -124.5t108.5 -51.5 q63 0 104 50.5t41 103.5v41q0 59 -37.5 108.5t-96.5 49.5q-67 0 -116.5 -51t-49.5 -126z" />
<glyph unicode="r" d="M35 22q0 20 31 20h94v341h-94q-31 0 -31 21t31 21h113q19 0 25 -6.5t6 -25.5v-63q89 101 186 101q50 0 69 -17t19 -37q0 -15 -9.5 -24.5t-23.5 -9.5q-15 0 -24.5 12.5t-9.5 33.5q-100 0 -153.5 -61.5t-53.5 -145.5v-140h125q32 0 32 -21t-32 -21h-269q-31 0 -31 22z" />
<glyph unicode="s" d="M76 26v100q0 10 1 15.5t7 11t18 5.5q16 0 23 -12q21 -65 58.5 -87.5t86.5 -22.5q72 0 107.5 24t35.5 59q0 64 -142 87q-30 4 -46.5 7t-43 9.5t-42 14.5t-32 19.5t-24 28.5t-7.5 38q0 16 7 32.5t24.5 35.5t57.5 31t97 12q63 0 117 -26q4 15 8.5 20.5t16.5 5.5q20 0 20 -32 v-71q0 -10 -1 -15.5t-7 -11t-18 -5.5q-20 0 -23 15q-5 37 -27.5 57.5t-87.5 20.5q-73 0 -107.5 -21.5t-34.5 -47.5q0 -29 35 -45.5t74 -22.5l71 -12q157 -25 157 -124q0 -20 -8 -39.5t-26.5 -40t-58 -33t-93.5 -12.5q-77 0 -140 46q-15 -46 -32 -46q-21 0 -21 32z" />
<glyph unicode="t" d="M27 403q0 22 32 22h101v95q0 10 1 15.5t6.5 11t17.5 5.5q17 0 21 -8.5t4 -23.5v-95h180q31 0 31 -22q0 -20 -31 -20h-180v-257q0 -13 0.5 -21t5.5 -22.5t13.5 -23.5t26.5 -16t44 -7q18 0 36.5 5t38 26t19.5 54q0 9 1 14t6.5 10t17.5 5t18 -5t7 -10t1 -15q0 -60 -45.5 -93 t-104.5 -33q-58 0 -96.5 31t-38.5 95v263h-102q-31 0 -31 20z" />
<glyph unicode="u" d="M14 403q0 22 32 22h75q19 0 25 -6.5t6 -25.5v-279q0 -19 1.5 -29t9.5 -23.5t28 -19.5t53 -6q14 0 28 2t33 9.5t33 19.5t24 34t10 51v231h-57q-31 0 -31 20q0 22 32 22h75q19 0 25 -6.5t6 -25.5v-351h57q31 0 31 -20q0 -22 -32 -22h-75q-10 0 -15 1.5t-11 11.5t-6 30 q-65 -49 -133 -49q-136 0 -136 114v275h-57q-31 0 -31 20z" />
<glyph unicode="v" d="M26 403q0 22 31 22h121q31 0 31 -22q0 -20 -31 -20h-43l117 -345h20l117 345h-43q-31 0 -31 21t31 21h121q31 0 31 -22q0 -20 -31 -20h-37l-121 -360q-9 -27 -47 -27q-12 0 -18.5 1t-15 7.5t-13.5 19.5l-121 359h-37q-31 0 -31 20z" />
<glyph unicode="w" d="M18 404q0 21 33 21h119q33 0 33 -22q0 -20 -33 -20h-59l60 -345h6l55 192q5 17 32 17q30 0 35 -18l49 -191h6l59 345h-59q-33 0 -33 21t33 21h119q33 0 33 -21q0 -10 -6.5 -14.5t-14.5 -5.5t-28 -1l-64 -356q-2 -11 -4.5 -16.5t-10.5 -10t-22 -4.5q-27 0 -37 12l-51 197 h-6l-48 -181q-4 -17 -13.5 -22.5t-29.5 -5.5q-23 0 -30 7t-10 24l-64 356q-15 0 -22 0.5t-14.5 2t-10 6t-2.5 12.5z" />
<glyph unicode="x" d="M29 21q0 21 32 21h47l131 177l-125 164h-46q-32 0 -32 20q0 22 32 22h121q31 0 31 -21q0 -8 -3 -12t-12.5 -6t-17.5 -2.5t-27 -0.5l99 -134l97 134q-36 0 -48.5 3t-12.5 18q0 21 31 21h121q32 0 32 -22q0 -20 -32 -20h-46l-121 -164l135 -177h47q32 0 32 -21t-32 -21 h-121q-31 0 -31 21q0 15 12.5 18t48.5 3l-112 152l-109 -152q38 0 50.5 -3t12.5 -18q0 -21 -31 -21h-121q-32 0 -32 21z" />
<glyph unicode="y" d="M28 403q0 22 31 22h121q31 0 31 -22q0 -20 -31 -20h-41l132 -348l115 348h-40q-31 0 -31 21t31 21h121q31 0 31 -22q0 -20 -31 -20h-38l-162 -478q-3 -8 -8 -19t-18.5 -34.5t-29 -41.5t-40 -32t-50.5 -14q-32 0 -53.5 22.5t-21.5 52.5q0 15 9.5 25t25.5 10 q15 0 24.5 -9.5t9.5 -24.5l-6 -20q6 -13 12 -13q27 0 45.5 11.5t40.5 53.5q6 12 16.5 40.5t18.5 51.5l7 23l-155 396h-35q-31 0 -31 20z" />
<glyph unicode="z" d="M36 25q0 11 3 16.5t16 17.5l341 324h-293v-38q0 -10 -1 -15.5t-7 -11t-18 -5.5q-17 0 -21 8.5t-4 23.5v48q0 19 6 25.5t26 6.5h352q10 0 15 -1t11 -6.5t6 -17.5q0 -10 -3 -15.5t-17 -18.5l-341 -324h314v50q0 10 1 15.5t7 11t18 5.5q17 0 21 -8.5t4 -23.5v-60 q0 -27 -14 -32h-390q-10 0 -15.5 1t-11 6.5t-5.5 17.5z" />
<glyph unicode="{" d="M60 306q0 10 6 15.5t11 5.5q76 0 117 17q29 13 36 28t7 51q0 172 1 178q19 96 192 96q34 0 34 -22q0 -10 -6 -15.5t-11 -5.5q-133 0 -155 -47q-2 -4 -3 -58t-1 -106v-52q-2 -46 -71 -86q71 -39 71 -99v-167q0 -18 3 -28t16 -24.5t47 -22t89 -8.5q21 0 21 -20 q0 -22 -34 -22q-89 0 -144 30q-23 12 -34.5 32t-13 33t-1.5 33v172q-2 62 -157 71q-20 0 -20 21z" />
<glyph unicode="|" d="M236 -48v707q0 38 26 38t26 -38v-707q0 -38 -26 -38t-26 38z" />
<glyph unicode="}" d="M60 -64q0 10 6 15.5t11 5.5q57 1 92 8t48.5 21t16.5 23.5t3 26.5v184q0 6 2.5 15.5t20.5 31.5t48 39q-40 22 -55.5 45t-15.5 53v167q0 15 -1 23t-9 21t-23 20t-45.5 12.5t-74.5 6.5q-24 0 -24 21q0 22 33 22q91 0 146 -30q49 -27 49 -96v-173q2 -63 157 -72q19 0 19 -21 q0 -10 -6 -15.5t-11 -5.5q-75 0 -116 -17q-29 -13 -36 -28t-7 -51q0 -172 -1 -178q-18 -96 -194 -96q-33 0 -33 22z" />
<glyph unicode="~" d="M92 276q0 12 47 49q44 32 74 32q23 0 47 -18q40 -36 49 -38q3 -1 6 -1q26 0 79 48q9 9 18 9q8 0 15 -7t7 -16q0 -14 -47 -48q-44 -32 -74 -32q-25 0 -47 18q-40 36 -49 38q-3 1 -6 1q-27 0 -79 -49q-10 -8 -18 -8t-15 7t-7 15z" />
<glyph unicode="&#xa0;" />
<glyph unicode="&#xa1;" d="M221 -192l9 344q2 25 7 32t25 7q30 0 31 -16l10 -367q0 -16 -5 -26.5t-12.5 -15t-13 -6t-10.5 -1.5t-10.5 1.5t-13 6t-12.5 15t-5 26.5zM221 340q0 17 12 29t29 12t29 -12t12 -29t-12 -29t-29 -12t-29 12t-12 29z" />
<glyph unicode="&#xa2;" d="M77 213q0 25 6 50.5t20.5 53t35.5 50.5t54.5 40.5t74.5 24.5v67q0 9 6.5 15.5t15.5 6.5t15.5 -6.5t6.5 -15.5v-65q29 -1 46.5 -2.5t42 -7t37 -19.5t12.5 -36q0 -17 -10.5 -27t-25.5 -10q-34 0 -35 40q0 7 -20.5 13.5t-46.5 6.5v-356q27 3 46.5 12t30.5 22.5t15.5 20.5 t9.5 19q7 11 23 11q26 0 26 -19q0 -8 -7.5 -22t-22.5 -32.5t-47 -34t-74 -19.5v-68q0 -9 -6.5 -15.5t-15.5 -6.5t-15.5 6.5t-6.5 15.5v69q-85 14 -138 75t-53 143zM128 213q0 -63 38 -109.5t102 -64.5v351q-41 -11 -70.5 -33.5t-43.5 -50t-20 -50t-6 -43.5z" />
<glyph unicode="&#xa3;" d="M20 74q0 40 36 63.5t84 23.5q22 0 66 -17q-13 48 -55 136h-74q-11 0 -18.5 7.5t-7.5 18.5q0 10 7.5 18t18.5 8h48q-24 63 -24 103q0 73 51 124.5t124 51.5q71 0 123 -44.5t52 -110.5q0 -14 -10.5 -24.5t-24.5 -10.5t-24.5 10.5t-10.5 24.5t14 29q-14 35 -46.5 54.5 t-72.5 19.5q-51 0 -87.5 -36.5t-36.5 -87.5q0 -42 23 -103h174q11 0 18.5 -8t7.5 -18q0 -11 -7.5 -18.5t-18.5 -7.5h-149q22 -44 31 -64t19 -52.5t11 -59.5q29 -22 45 -33t42 -21t50 -10q55 0 55 99q0 10 7.5 17.5t18.5 7.5t18.5 -7t7.5 -18q0 -61 -29 -105.5t-78 -44.5 q-21 0 -47.5 12t-45 24.5t-51.5 37.5q-45 -74 -145 -74q-37 0 -63 24.5t-26 60.5zM72 74q0 -14 11 -24t26 -10q80 0 101 51q-41 19 -70 19q-68 0 -68 -36z" />
<glyph unicode="&#xa4;" d="M105 463q16 16 45 -8l31 -31q40 26 82 26q39 0 81 -26l29 30q27 24 43 10q19 -18 -6 -47l-30 -29q26 -42 26 -82t-26 -82l31 -30q24 -29 8 -45t-45 8l-30 31q-42 -26 -81 -26q-42 0 -82 26l-29 -30q-30 -22 -44 -10q-18 17 6 48l30 29q-25 41 -25 81t25 81l-31 31 q-24 29 -8 45zM171 306q0 -38 27 -65t65 -27q37 0 64 27t27 65t-27 65t-64 27q-38 0 -65 -27t-27 -65z" />
<glyph unicode="&#xa5;" d="M21 590q0 21 31 21h108q31 0 31 -21q0 -8 -3 -12.5t-11.5 -6t-15.5 -2t-24 -0.5l74 -157h106l69 157q-21 0 -30 1t-16 5.5t-7 14.5q0 21 31 21h108q31 0 31 -22q0 -20 -31 -20h-28l-75 -157h56q11 0 18.5 -7.5t7.5 -17.5q0 -11 -7.5 -18.5t-18.5 -7.5h-82l-52 -110h134 q11 0 18.5 -7.5t7.5 -18.5q0 -10 -7.5 -17.5t-18.5 -7.5h-137v-158h36q31 0 31 -21t-31 -21h-123q-31 0 -31 22q0 20 31 20h36v158h-137q-11 0 -18.5 7.5t-7.5 17.5q0 11 7.5 18.5t18.5 7.5h134l-53 110h-81q-11 0 -18.5 7.5t-7.5 18.5q0 10 7.5 17.5t18.5 7.5h55l-75 157 h-28q-31 0 -31 21zM235 361l28 -79l32 79h-60z" />
<glyph unicode="&#xa6;" d="M236 -48v249q0 9 7.5 15t18.5 6t18.5 -6t7.5 -15v-249q0 -38 -26 -38t-26 38zM236 410v249q0 38 26 38t26 -38v-249q0 -9 -7.5 -15t-18.5 -6t-18.5 6t-7.5 15z" />
<glyph unicode="&#xa7;" d="M27 306q0 36 21 65t54 41q-23 31 -23 67q0 63 55 103t129 40q75 0 129.5 -34t54.5 -93q0 -15 -10.5 -25.5t-25.5 -10.5t-25.5 10.5t-10.5 25.5q0 17 13 28q-25 47 -125 47q-54 0 -93 -24.5t-39 -66.5q0 -36 30.5 -57t80.5 -36l109 -33q63 -19 105.5 -61t42.5 -98 q0 -37 -21 -65.5t-54 -40.5q23 -31 23 -67q0 -63 -55 -103t-129 -40q-75 0 -129.5 34t-54.5 93q0 15 10.5 25.5t25.5 10.5t25.5 -10.5t10.5 -25.5q0 -17 -13 -28q25 -47 125 -47q54 0 93 24.5t39 66.5q0 36 -30.5 57t-80.5 36l-109 33q-63 19 -105.5 61t-42.5 98zM79 306 q0 -39 31.5 -67t79.5 -42l109 -33q46 -15 80 -36q27 -2 47.5 18t20.5 48q0 39 -31.5 67t-79.5 42l-109 33q-46 15 -80 36q-27 2 -47.5 -18t-20.5 -48z" />
<glyph unicode="&#xa8;" d="M141 563q0 16 10.5 26.5t25.5 10.5t25.5 -10.5t10.5 -26.5q0 -15 -10.5 -25.5t-25.5 -10.5t-25.5 10.5t-10.5 25.5zM312 563q0 16 10.5 26.5t25.5 10.5t25.5 -10.5t10.5 -26.5q0 -15 -10.5 -25.5t-25.5 -10.5t-25.5 10.5t-10.5 25.5z" />
<glyph unicode="&#xa9;" d="M1 262q0 107 77 183.5t185 76.5q107 0 184 -76.5t77 -183.5q0 -108 -77 -185t-184 -77q-108 0 -185 76.5t-77 185.5zM20 262q0 -100 71 -171.5t172 -71.5q100 0 171 71.5t71 171.5q0 99 -71 170t-171 71t-171.5 -71t-71.5 -170zM116 261q0 81 42.5 135.5t101.5 54.5 q44 0 82 -33q12 23 12 26q7 7 12 7q13 0 13 -19v-86q0 -19 -16 -19q-6 0 -9 2.5t-4 4.5t-2 8q-7 39 -31 61.5t-55 22.5q-45 0 -80.5 -47.5t-35.5 -117.5t35.5 -117.5t81.5 -47.5q28 0 55 19t30 63q2 12 15 12q16 0 16 -15q0 -40 -34.5 -72t-84.5 -32q-59 0 -101.5 54.5 t-42.5 135.5z" />
<glyph unicode="&#xaa;" d="M103 407q0 95 217 98q0 94 -102 94h-27q-17 -3 -21 -6.5t-4 -12.5q-1 -12 -7.5 -17.5t-14.5 -5.5q-22 0 -22 23q0 42 94 42q67 0 100.5 -30.5t33.5 -70.5v-164q22 -9 54 -9q18 0 18 -11q0 -12 -26 -12q-57 0 -75 27q-49 -32 -109 -32q-49 0 -79 25.5t-30 61.5zM133 407 q0 -26 23.5 -44.5t61.5 -18.5q40 0 68 14q23 10 28.5 22t5.5 31v72q-89 -3 -138 -24.5t-49 -51.5zM135 256q0 13 22 13h211q22 0 22 -13q0 -11 -22 -11h-211q-22 0 -22 11z" />
<glyph unicode="&#xab;" d="M50 306q0 14 11 23l222 192q8 7 12 7q12 0 12 -22q0 -13 -11 -24l-204 -176l204 -176q11 -11 11 -24q0 -22 -12 -22q-4 0 -12 7l-225 194q-8 8 -8 21zM218 306q0 14 11 23l222 192q7 7 12 7q12 0 12 -22q0 -12 -12 -24l-203 -176l203 -176q12 -12 12 -24q0 -22 -12 -22 q-5 0 -12 7l-225 194q-8 6 -8 21z" />
<glyph unicode="&#xac;" d="M41 385q0 10 7.5 17.5t18.5 7.5h390q11 0 18.5 -7.5t7.5 -17.5v-158q0 -10 -7.5 -17.5t-18.5 -7.5t-18 7t-7 18v132h-365q-11 0 -18.5 7.5t-7.5 18.5z" />
<glyph unicode="&#xad;" d="M59 306q0 26 39 26h328q39 0 39 -26t-39 -26h-328q-39 0 -39 26z" />
<glyph unicode="&#xae;" d="M1 262q0 107 77 183.5t185 76.5q107 0 184 -76.5t77 -183.5q0 -108 -77 -185t-184 -77q-108 0 -185 76.5t-77 185.5zM20 262q0 -100 71 -171.5t172 -71.5q100 0 171 71.5t71 171.5q0 99 -71 170t-171 71t-171.5 -71t-71.5 -170zM129 94q0 12 18 12h22v316h-22 q-18 0 -18 12q0 14 18 14h110q50 0 82 -29.5t32 -68.5q0 -54 -57 -86q27 -21 36 -41q5 -13 5 -56q0 -67 23 -67q9 0 13.5 12.5t4.5 21.5q1 12 15 12q15 0 15 -13q0 -20 -12 -39.5t-35 -19.5q-28 0 -43 23q-12 21 -12 78q0 43 -15 58q-22 18 -55 18h-55v-145h22q19 0 19 -12 q0 -13 -19 -13h-74q-18 0 -18 13zM199 277h51q43 0 67 22.5t24 50.5q0 27 -24 49.5t-67 22.5h-51v-145z" />
<glyph unicode="&#xaf;" d="M78 564q0 22 31 22h308q31 0 31 -23q0 -21 -31 -21h-307q-32 0 -32 22z" />
<glyph unicode="&#xb0;" d="M190 545q0 29 20.5 52.5t53.5 23.5q29 0 50.5 -24.5t21.5 -50.5q0 -29 -20 -51.5t-56 -22.5q-32 0 -51 23.5t-19 49.5zM228 545q0 -15 11 -24t24 -9q15 0 25 9.5t10 24.5q0 14 -10 24.5t-24 10.5q-15 0 -25.5 -10.5t-10.5 -25.5z" />
<glyph unicode="&#xb1;" d="M41 26q0 26 38 26h157v144h-157q-38 0 -38 26t38 26h157v158q0 39 26 39t26 -39v-158h157q38 0 38 -26t-38 -26h-157v-144h157q38 0 38 -26t-38 -26h-366q-38 0 -38 26z" />
<glyph unicode="&#xb2;" d="M154 326q0 6 7 12l110 96q57 49 57 92q0 32 -23.5 50t-56.5 18q-22 0 -38 -12t-21 -32q6 -6 6 -14q0 -10 -6 -15.5t-14 -5.5q-3 0 -7 1t-9 7t-5 15q0 33 27.5 59t69.5 26q47 0 78 -27.5t31 -69.5q0 -55 -57 -104l-96 -81h121q0 8 0.5 11.5t4 7t11.5 3.5q16 0 16 -20v-11 q0 -17 -11 -20h-174q-21 0 -21 14z" />
<glyph unicode="&#xb3;" d="M150 381q0 22 21 22q9 0 14.5 -6t5.5 -14q0 -4 -5 -14q0 -4 7.5 -11.5t25 -15t40.5 -7.5q21 0 38 9t26 23.5t9 31.5q0 23 -19.5 43t-55.5 20h-23q-6 0 -9 0.5t-6.5 4t-3.5 10.5q0 4 0.5 6.5t2.5 4t4 2.5t6 1.5t7 0.5t9.5 0.5t11.5 0.5q34 3 48 22.5t14 37.5q0 17 -17 29 t-42 12q-42 0 -58 -20q4 -5 4 -13q0 -9 -6.5 -14.5t-13.5 -5.5q-8 0 -14.5 5t-6.5 16q0 28 26.5 44.5t68.5 16.5q40 0 65.5 -20.5t25.5 -49.5q0 -48 -44 -75q58 -25 58 -80q0 -37 -29.5 -64.5t-75.5 -27.5t-77.5 21.5t-31.5 53.5z" />
<glyph unicode="&#xb4;" d="M164 536q0 12 19 20l138 62l15 4q11 0 18.5 -7t7.5 -18q0 -17 -23 -27l-144 -64l-7 -1q-13 0 -18.5 11t-5.5 20z" />
<glyph unicode="&#xb5;" d="M14 -209q0 21 32 21h56v571h-57q-31 0 -31 20q0 22 32 22h75q19 0 25 -6.5t6 -25.5v-279q0 -19 1.5 -29t9.5 -23.5t28 -19.5t53 -6q14 0 28 2t33 9.5t33 19.5t24 34t10 51v231h-57q-31 0 -31 20q0 22 32 22h75q19 0 25 -6.5t6 -25.5v-351h57q31 0 31 -20q0 -22 -32 -22 h-75q-10 0 -15 1.5t-11 11.5t-6 30q-65 -49 -133 -49q-55 0 -86 18v-200h56q32 0 32 -21t-31 -21h-164q-31 0 -31 21z" />
<glyph unicode="&#xb6;" d="M51 468q0 94 62 161.5t150 67.5h216q19 0 19 -11q0 -10 -19 -10h-54v-853q0 -7 -4 -15.5t-9 -8.5q-6 0 -10 8t-4 16v853h-71v-853q0 -7 -4 -15.5t-9 -8.5t-9 8.5t-4 15.5v414q-63 3 -118 27t-93.5 77.5t-38.5 126.5z" />
<glyph unicode="&#xb7;" d="M208 306q0 21 15.5 37.5t39.5 16.5q22 0 38 -16t16 -39q0 -21 -15.5 -37.5t-39.5 -16.5q-22 0 -38 16t-16 39z" />
<glyph unicode="&#xb8;" d="M169 -193q0 10 7.5 14.5t16 5.5t28.5 1q51 0 101.5 11.5t50.5 40.5q0 19 -20.5 34.5t-58.5 17.5q-16 1 -20 9t-4 24v28q0 10 1 15.5t7 11.5t18 6q17 0 21 -10.5t4 -43.5q52 -10 77 -35.5t25 -56.5q0 -23 -10 -40t-30.5 -27t-39.5 -16t-51.5 -8.5t-50.5 -3t-50 -0.5 q-22 0 -22 22z" />
<glyph unicode="&#xb9;" d="M175 548q0 14 18 14q30 2 53 50q5 11 14 11q15 0 15 -20v-262h44q20 0 20 -15q0 -14 -20 -14h-121q-20 0 -20 14q0 15 20 15h44v214q-23 -22 -51 -22q-16 0 -16 15z" />
<glyph unicode="&#xba;" d="M124 470q0 63 41 107.5t98 44.5t97.5 -44.5t40.5 -107.5q0 -62 -41.5 -106t-96.5 -44q-56 0 -97.5 43.5t-41.5 106.5zM153 476q0 -55 32.5 -93.5t77.5 -38.5q44 0 76.5 38.5t32.5 93.5q0 53 -32.5 88t-76.5 35t-77 -35t-33 -88zM157 256q0 13 21 13h169q21 0 21 -13 q0 -11 -21 -11h-169q-21 0 -21 11z" />
<glyph unicode="&#xbb;" d="M49 106q0 14 12 24l203 176l-203 176q-12 10 -12 24q0 22 12 22q5 0 12 -7l222 -192q11 -9 11 -23q0 -15 -8 -21l-225 -194q-7 -7 -12 -7q-12 0 -12 22zM216 106q0 12 12 24l204 176l-204 176q-12 12 -12 24q0 22 13 22q4 0 12 -7l222 -192q11 -11 11 -23q0 -13 -8 -21 l-225 -194q-8 -7 -12 -7q-13 0 -13 22z" />
<glyph unicode="&#xbc;" d="M26 548q0 14 18 14q30 2 53 50q5 11 14 11q15 0 15 -20v-262h44q20 0 20 -15q0 -14 -20 -14h-121q-20 0 -20 14q0 15 20 15h44v214q-23 -22 -51 -22q-16 0 -16 15zM96 6q0 2 3.5 7.5t3.5 6.5l327 593q9 14 22 14q11 0 11 -18q0 -9 -7 -19l-326 -592q-9 -14 -19 -14 q-15 0 -15 22zM261 104q0 10 4 16l114 183q7 10 20 10h12q13 0 16.5 -4t3.5 -17v-179h38q20 0 20 -14q0 -15 -20 -15h-38v-55h30q20 0 20 -14q0 -15 -20 -15h-88q-20 0 -20 15q0 14 20 14h30v55h-122q-11 0 -15.5 3.5t-4.5 16.5zM294 113h109v175z" />
<glyph unicode="&#xbd;" d="M26 548q0 14 18 14q30 2 53 50q5 11 14 11q15 0 15 -20v-262h44q20 0 20 -15q0 -14 -20 -14h-121q-20 0 -20 14q0 15 20 15h44v214q-23 -22 -51 -22q-16 0 -16 15zM68 6q0 2 3.5 7.5t3.5 6.5l327 593q9 14 22 14q11 0 11 -18q0 -9 -7 -19l-326 -592q-9 -14 -19 -14 q-15 0 -15 22zM289 16q0 7 8 13l110 93q58 49 58 92q0 31 -23.5 49t-56.5 18q-20 0 -36.5 -11t-21.5 -28q7 -5 7 -16q0 -10 -7 -16t-15 -6q-23 0 -23 24q0 33 28 58t71 25q47 0 79 -26.5t32 -70.5q0 -51 -54 -100q-12 -11 -49.5 -42t-49.5 -41h119q0 13 2.5 18t14.5 5 q17 0 17 -20v-13q0 -12 -4 -16.5t-16 -4.5h-169q-21 0 -21 16z" />
<glyph unicode="&#xbe;" d="M22 381q0 22 20 22q9 0 14.5 -6t5.5 -14q0 -6 -4 -14q0 -4 7 -11.5t24.5 -15t40.5 -7.5q32 0 52.5 19t20.5 45q0 23 -19.5 43t-55.5 20h-23q-19 0 -19 15q0 13 13 14l28 2q35 3 48.5 22.5t13.5 37.5q0 17 -17 29t-42 12q-42 0 -58 -20q4 -5 4 -13q0 -9 -6.5 -14.5 t-13.5 -5.5q-20 0 -20 21q0 28 26 44.5t68 16.5q40 0 66 -20.5t26 -49.5q0 -47 -44 -75q58 -25 58 -80q0 -37 -30 -64.5t-76 -27.5t-77 21.5t-31 53.5zM96 6q0 2 3.5 7.5t3.5 6.5l327 593q9 14 22 14q11 0 11 -18q0 -9 -7 -19l-326 -592q-9 -14 -19 -14q-9 0 -12 5t-3 17z M261 104q0 10 4 16l114 183q5 7 8 8.5t12 1.5h12q13 0 16.5 -4t3.5 -17v-179h38q20 0 20 -14q0 -15 -20 -15h-38v-55h30q20 0 20 -14q0 -15 -20 -15h-88q-20 0 -20 15q0 14 20 14h30v55h-122q-11 0 -15.5 3.5t-4.5 16.5zM294 113h109v175z" />
<glyph unicode="&#xbf;" d="M66 -118q0 51 56 93q93 63 93 167v17q0 20 6.5 26t24.5 6q22 0 26.5 -8t4.5 -35q0 -23 -2.5 -39.5t-12.5 -46.5t-38 -61.5t-71 -60.5q-37 -22 -37 -58q0 -25 16.5 -42t42.5 -23t42.5 -8t31.5 -2q106 0 151 45q-13 14 -13 30t10.5 26t24.5 10t25 -10t11 -28 q0 -24 -10.5 -43t-25.5 -31t-37.5 -20.5t-40.5 -12.5t-41 -6t-33 -2.5t-22 -0.5q-49 0 -85 10.5t-54 24t-28.5 32.5t-12.5 30t-2 21zM205 340q0 17 12 29t29 12q18 0 30 -12t12 -29t-12 -29t-30 -12q-17 0 -29 12t-12 29z" />
<glyph unicode="&#xc0;" d="M29 21q0 6 1 9.5t4.5 6t6.5 4t9.5 1.5h11h13h14.5l127 550q4 15 11 22t13.5 8t21.5 1q16 0 22.5 -1t13 -8.5t10.5 -22.5l127 -549h14.5h13.5h10.5t9.5 -1.5t6.5 -4t4.5 -6.5t1 -9q0 -21 -35 -21h-105q-33 0 -33 21q0 15 12 18t48 3l-28 129h-184l-28 -129q36 0 48 -3 t12 -18q0 -21 -33 -21h-106q-34 0 -34 21zM163 765q0 11 7.5 18.5t18.5 7.5q6 0 15 -4l138 -62q19 -9 19 -21q0 -9 -5.5 -20t-18.5 -11q-5 1 -7 2l-144 64q-23 10 -23 26zM181 213h162l-77 368h-7z" />
<glyph unicode="&#xc1;" d="M29 21q0 6 1 9.5t4.5 6t6.5 4t9.5 1.5h11h13h14.5l127 550q4 15 11 22t13.5 8t21.5 1q16 0 22.5 -1t13 -8.5t10.5 -22.5l127 -549h14.5h13.5h10.5t9.5 -1.5t6.5 -4t4.5 -6.5t1 -9q0 -21 -35 -21h-105q-33 0 -33 21q0 15 12 18t48 3l-28 129h-184l-28 -129q36 0 48 -3 t12 -18q0 -21 -33 -21h-106q-34 0 -34 21zM164 704q0 12 19 21l138 62l15 4q11 0 18.5 -7.5t7.5 -18.5q0 -16 -23 -26l-144 -64l-7 -2q-13 0 -18.5 11t-5.5 20zM181 213h162l-77 368h-7z" />
<glyph unicode="&#xc2;" d="M29 21q0 6 1 9.5t4.5 6t6.5 4t9.5 1.5h11h13h14.5l127 550q4 15 11 22t13.5 8t21.5 1q16 0 22.5 -1t13 -8.5t10.5 -22.5l127 -549h14.5h13.5h10.5t9.5 -1.5t6.5 -4t4.5 -6.5t1 -9q0 -21 -35 -21h-105q-33 0 -33 21q0 15 12 18t48 3l-28 129h-184l-28 -129q36 0 48 -3 t12 -18q0 -21 -33 -21h-106q-34 0 -34 21zM119 685q0 14 22 22l109 40q13 4 26 0l107 -40q22 -8 22 -22q0 -22 -24 -22q-7 0 -30 7l-89 30l-89 -30q-23 -7 -30 -7q-24 0 -24 22zM181 213h162l-77 368h-7z" />
<glyph unicode="&#xc3;" d="M29 21q0 6 1 9.5t4.5 6t6.5 4t9.5 1.5h11h13h14.5l127 550q4 15 11 22t13.5 8t21.5 1q16 0 22.5 -1t13 -8.5t10.5 -22.5l127 -549h14.5h13.5h10.5t9.5 -1.5t6.5 -4t4.5 -6.5t1 -9q0 -21 -35 -21h-105q-33 0 -33 21q0 15 12 18t48 3l-28 129h-184l-28 -129q36 0 48 -3 t12 -18q0 -21 -33 -21h-106q-34 0 -34 21zM92 685q0 12 47 49q44 32 74 32q23 0 47 -18q2 -2 7 -6q37 -32 48 -33q26 0 79 48q9 9 18 9q8 0 15 -7t7 -16q0 -14 -47 -48q-41 -32 -74 -32q-25 0 -47 18q-26 24 -36 31t-19 7q-28 0 -79 -48q-10 -8 -18 -8t-15 7t-7 15zM181 213 h162l-77 368h-7z" />
<glyph unicode="&#xc4;" d="M29 21q0 6 1 9.5t4.5 6t6.5 4t9.5 1.5h11h13h14.5l127 550q4 15 11 22t13.5 8t21.5 1q16 0 22.5 -1t13 -8.5t10.5 -22.5l127 -549h14.5h13.5h10.5t9.5 -1.5t6.5 -4t4.5 -6.5t1 -9q0 -21 -35 -21h-105q-33 0 -33 21q0 15 12 18t48 3l-28 129h-184l-28 -129q36 0 48 -3 t12 -18q0 -21 -33 -21h-106q-34 0 -34 21zM126 699q0 16 10.5 26t25.5 10t25.5 -10t10.5 -26q0 -15 -10.5 -25.5t-25.5 -10.5t-25.5 10.5t-10.5 25.5zM181 213h162l-77 368h-7zM327 699q0 16 10.5 26t25.5 10t25.5 -10t10.5 -26q0 -15 -10.5 -25.5t-25.5 -10.5t-25.5 10.5 t-10.5 25.5z" />
<glyph unicode="&#xc5;" d="M29 21q0 6 1 9.5t4.5 6t6.5 4t9.5 1.5h11h13h14.5l127 550q4 15 11 22t13.5 8t21.5 1q16 0 22.5 -1t13 -8.5t10.5 -22.5l127 -549h14.5h13.5h10.5t9.5 -1.5t6.5 -4t4.5 -6.5t1 -9q0 -21 -35 -21h-105q-33 0 -33 21q0 15 12 18t48 3l-28 129h-184l-28 -129q36 0 48 -3 t12 -18q0 -21 -33 -21h-106q-34 0 -34 21zM161 694q0 30 29.5 51.5t72.5 21.5t72.5 -21.5t29.5 -51.5q0 -29 -29.5 -50t-72.5 -21t-72.5 21t-29.5 50zM181 213h162l-77 368h-7zM211 694q0 -16 15.5 -25t36.5 -9t36.5 9t15.5 25q0 17 -15.5 26.5t-36.5 9.5t-36.5 -9.5 t-15.5 -26.5z" />
<glyph unicode="&#xc6;" d="M25 21q0 10 7 15t15 5.5t26 0.5l107 527q-16 0 -23.5 0.5t-14 5.5t-6.5 15q0 21 31 21h290q19 0 25 -6.5t6 -25.5v-76q0 -32 -18 -32q-19 0 -19 32v66h-139v-231h129q31 0 31 -22q0 -20 -31 -20h-129v-254h147v82q0 32 19 32t19 -32v-92q0 -19 -6 -25.5t-25 -6.5h-201 q-32 0 -32 22q0 9 7 14t14 5.5t20 0.5v147h-133l-30 -147q19 0 27.5 -0.5t15.5 -5.5t7 -15q0 -21 -31 -21h-74q-31 0 -31 21zM149 232h125v337h-57z" />
<glyph unicode="&#xc7;" d="M43 306q0 135 70.5 225.5t168.5 90.5q73 0 137 -55q19 35 21 43q10 12 20 12q21 0 21 -32v-143q0 -11 -1 -16t-7 -10.5t-18 -5.5q-10 0 -15.5 4t-7 8t-3.5 13q-11 65 -51 102.5t-92 37.5q-75 0 -134 -78.5t-59 -195.5q0 -118 59 -196.5t135 -78.5q47 0 92.5 32t50.5 104 q2 20 25 20q26 0 26 -24q0 -67 -50.5 -114t-96.5 -54v-24q4 0 11 -1.5t25 -7.5t31.5 -15t24.5 -26.5t11 -40.5t-10 -40t-31 -27t-40 -16t-51 -8.5t-50.5 -3t-50.5 -0.5q-22 0 -22 22q0 10 7.5 15t16 5.5t28.5 0.5q52 0 102 11.5t50 40.5q0 19 -20.5 34.5t-58.5 17.5 q-11 0 -16 6t-6 11t-1 16v23q-103 5 -172 95t-69 223z" />
<glyph unicode="&#xc8;" d="M28 21q0 21 32 21h42v527h-42q-32 0 -32 21t32 21h386q19 0 25 -6.5t6 -25.5v-76q0 -10 -1 -15.5t-7 -11t-18 -5.5q-17 0 -21 8.5t-4 23.5v66h-274v-231h157q0 26 1 36t6.5 16.5t17.5 6.5t17.5 -6t6.5 -11t1 -15v-96q0 -10 -1 -15.5t-6.5 -11t-17.5 -5.5q-17 0 -21 11 t-4 48h-157v-254h297v82q0 10 1 15.5t7 11t18 5.5q17 0 21 -8t4 -24v-92q0 -19 -6 -25.5t-25 -6.5h-409q-32 0 -32 21zM163 765q0 11 7.5 18.5t18.5 7.5q6 0 15 -4l138 -62q19 -9 19 -21q0 -9 -5.5 -20t-18.5 -11q-5 1 -7 2l-144 64q-23 10 -23 26z" />
<glyph unicode="&#xc9;" d="M28 21q0 21 32 21h42v527h-42q-32 0 -32 21t32 21h386q19 0 25 -6.5t6 -25.5v-76q0 -10 -1 -15.5t-7 -11t-18 -5.5q-17 0 -21 8.5t-4 23.5v66h-274v-231h157q0 26 1 36t6.5 16.5t17.5 6.5t17.5 -6t6.5 -11t1 -15v-96q0 -10 -1 -15.5t-6.5 -11t-17.5 -5.5q-17 0 -21 11 t-4 48h-157v-254h297v82q0 10 1 15.5t7 11t18 5.5q17 0 21 -8t4 -24v-92q0 -19 -6 -25.5t-25 -6.5h-409q-32 0 -32 21zM164 704q0 12 19 21l138 62l15 4q11 0 18.5 -7.5t7.5 -18.5q0 -16 -23 -26l-144 -64l-7 -2q-13 0 -18.5 11t-5.5 20z" />
<glyph unicode="&#xca;" d="M28 21q0 21 32 21h42v527h-42q-32 0 -32 21t32 21h386q19 0 25 -6.5t6 -25.5v-76q0 -10 -1 -15.5t-7 -11t-18 -5.5q-17 0 -21 8.5t-4 23.5v66h-274v-231h157q0 26 1 36t6.5 16.5t17.5 6.5t17.5 -6t6.5 -11t1 -15v-96q0 -10 -1 -15.5t-6.5 -11t-17.5 -5.5q-17 0 -21 11 t-4 48h-157v-254h297v82q0 10 1 15.5t7 11t18 5.5q17 0 21 -8t4 -24v-92q0 -19 -6 -25.5t-25 -6.5h-409q-32 0 -32 21zM119 685q0 14 22 22l109 40q13 4 26 0l107 -40q22 -8 22 -22q0 -22 -24 -22q-7 0 -30 7l-89 30l-89 -30q-23 -7 -30 -7q-24 0 -24 22z" />
<glyph unicode="&#xcb;" d="M28 21q0 21 32 21h42v527h-42q-32 0 -32 21t32 21h386q19 0 25 -6.5t6 -25.5v-76q0 -10 -1 -15.5t-7 -11t-18 -5.5q-17 0 -21 8.5t-4 23.5v66h-274v-231h157q0 26 1 36t6.5 16.5t17.5 6.5t17.5 -6t6.5 -11t1 -15v-96q0 -10 -1 -15.5t-6.5 -11t-17.5 -5.5q-17 0 -21 11 t-4 48h-157v-254h297v82q0 10 1 15.5t7 11t18 5.5q17 0 21 -8t4 -24v-92q0 -19 -6 -25.5t-25 -6.5h-409q-32 0 -32 21zM126 699q0 16 10.5 26t25.5 10t25.5 -10t10.5 -26q0 -15 -10.5 -25.5t-25.5 -10.5t-25.5 10.5t-10.5 25.5zM327 699q0 16 10.5 26t25.5 10t25.5 -10 t10.5 -26q0 -15 -10.5 -25.5t-25.5 -10.5t-25.5 10.5t-10.5 25.5z" />
<glyph unicode="&#xcc;" d="M83 22q0 20 32 20h122v527h-122q-32 0 -32 21t32 21h295q32 0 32 -22q0 -20 -32 -20h-122v-527h122q32 0 32 -21t-32 -21h-295q-32 0 -32 22zM163 765q0 11 7.5 18.5t18.5 7.5q6 0 15 -4l138 -62q19 -9 19 -21q0 -9 -5.5 -20t-18.5 -11q-5 1 -7 2l-144 64q-23 10 -23 26z " />
<glyph unicode="&#xcd;" d="M83 22q0 20 32 20h122v527h-122q-32 0 -32 21t32 21h295q32 0 32 -22q0 -20 -32 -20h-122v-527h122q32 0 32 -21t-32 -21h-295q-32 0 -32 22zM164 704q0 12 19 21l138 62l15 4q11 0 18.5 -7.5t7.5 -18.5q0 -16 -23 -26l-144 -64l-7 -2q-13 0 -18.5 11t-5.5 20z" />
<glyph unicode="&#xce;" d="M83 22q0 20 32 20h122v527h-122q-32 0 -32 21t32 21h295q32 0 32 -22q0 -20 -32 -20h-122v-527h122q32 0 32 -21t-32 -21h-295q-32 0 -32 22zM119 685q0 14 22 22l109 40q13 4 26 0l107 -40q22 -8 22 -22q0 -22 -24 -22q-7 0 -30 7l-89 30l-89 -30q-23 -7 -30 -7 q-24 0 -24 22z" />
<glyph unicode="&#xcf;" d="M83 22q0 20 32 20h122v527h-122q-32 0 -32 21t32 21h295q32 0 32 -22q0 -20 -32 -20h-122v-527h122q32 0 32 -21t-32 -21h-295q-32 0 -32 22zM126 699q0 16 10.5 26t25.5 10t25.5 -10t10.5 -26q0 -15 -10.5 -25.5t-25.5 -10.5t-25.5 10.5t-10.5 25.5zM327 699 q0 16 10.5 26t25.5 10t25.5 -10t10.5 -26q0 -15 -10.5 -25.5t-25.5 -10.5t-25.5 10.5t-10.5 25.5z" />
<glyph unicode="&#xd0;" d="M21 21q0 21 32 21h33v242h-39q-9 0 -15.5 6t-6.5 16q0 9 6.5 15.5t15.5 6.5h39v241h-33q-32 0 -32 20q0 22 32 22h213q96 0 156 -92.5t60 -217.5q0 -124 -60.5 -212.5t-155.5 -88.5h-213q-32 0 -32 21zM137 42h109q86 0 136 78t50 181q0 104 -50 186t-136 82h-109v-241 h71q9 0 15.5 -6.5t6.5 -15.5q0 -10 -6.5 -16t-15.5 -6h-71v-242z" />
<glyph unicode="&#xd1;" d="M30 22q0 20 31 20h37v527h-37q-31 0 -31 21t31 21h71q13 0 20.5 -1.5t15 -8.5t12.5 -20l200 -539h9v527h-36q-31 0 -31 20q0 22 31 22h110q31 0 31 -22q0 -20 -31 -20h-37v-537q0 -21 -6.5 -26.5t-26.5 -5.5q-13 0 -20.5 1.5t-15.5 8t-13 20.5l-200 539h-9v-527h36 q31 0 31 -21t-31 -21h-110q-31 0 -31 22zM92 685q0 12 47 49q44 32 74 32q23 0 47 -18q2 -2 7 -6q37 -32 48 -33q26 0 79 48q9 9 18 9q8 0 15 -7t7 -16q0 -14 -47 -48q-41 -32 -74 -32q-25 0 -47 18q-26 24 -36 31t-19 7q-28 0 -79 -48q-10 -8 -18 -8t-15 7t-7 15z" />
<glyph unicode="&#xd2;" d="M59 305q0 59 1 97t5 74t9.5 56.5t17.5 39t25 27t36 14.5t47.5 7.5t61.5 1.5q50 0 79.5 -3t54.5 -16t36.5 -31t20 -57.5t10.5 -85.5t2 -124q0 -67 -2 -109t-6 -79.5t-14.5 -57.5t-23.5 -36t-37 -22t-50.5 -9t-69.5 -3q-37 0 -61.5 1.5t-47.5 7.5t-36 14.5t-25 27t-17.5 39 t-9.5 56t-5 74t-1 96.5zM110 314q0 -148 13 -202q10 -44 39 -62.5t100 -18.5q73 0 102 19.5t38 68.5q12 56 12 195q0 143 -13 192q-12 45 -42.5 59.5t-96.5 14.5q-71 0 -100.5 -16.5t-39.5 -64.5q-12 -49 -12 -185zM163 765q0 11 7.5 18.5t18.5 7.5q6 0 15 -4l138 -62 q19 -9 19 -21q0 -9 -5.5 -20t-18.5 -11q-5 1 -7 2l-144 64q-23 10 -23 26z" />
<glyph unicode="&#xd3;" d="M59 305q0 59 1 97t5 74t9.5 56.5t17.5 39t25 27t36 14.5t47.5 7.5t61.5 1.5q50 0 79.5 -3t54.5 -16t36.5 -31t20 -57.5t10.5 -85.5t2 -124q0 -67 -2 -109t-6 -79.5t-14.5 -57.5t-23.5 -36t-37 -22t-50.5 -9t-69.5 -3q-37 0 -61.5 1.5t-47.5 7.5t-36 14.5t-25 27t-17.5 39 t-9.5 56t-5 74t-1 96.5zM110 314q0 -148 13 -202q10 -44 39 -62.5t100 -18.5q73 0 102 19.5t38 68.5q12 56 12 195q0 143 -13 192q-12 45 -42.5 59.5t-96.5 14.5q-71 0 -100.5 -16.5t-39.5 -64.5q-12 -49 -12 -185zM164 704q0 12 19 21l138 62l15 4q11 0 18.5 -7.5 t7.5 -18.5q0 -16 -23 -26l-144 -64l-7 -2q-13 0 -18.5 11t-5.5 20z" />
<glyph unicode="&#xd4;" d="M59 305q0 59 1 97t5 74t9.5 56.5t17.5 39t25 27t36 14.5t47.5 7.5t61.5 1.5q50 0 79.5 -3t54.5 -16t36.5 -31t20 -57.5t10.5 -85.5t2 -124q0 -67 -2 -109t-6 -79.5t-14.5 -57.5t-23.5 -36t-37 -22t-50.5 -9t-69.5 -3q-37 0 -61.5 1.5t-47.5 7.5t-36 14.5t-25 27t-17.5 39 t-9.5 56t-5 74t-1 96.5zM110 314q0 -148 13 -202q10 -44 39 -62.5t100 -18.5q73 0 102 19.5t38 68.5q12 56 12 195q0 143 -13 192q-12 45 -42.5 59.5t-96.5 14.5q-71 0 -100.5 -16.5t-39.5 -64.5q-12 -49 -12 -185zM119 685q0 14 22 22l109 40q13 4 26 0l107 -40 q22 -8 22 -22q0 -22 -24 -22q-7 0 -30 7l-89 30l-89 -30q-23 -7 -30 -7q-24 0 -24 22z" />
<glyph unicode="&#xd5;" d="M59 305q0 59 1 97t5 74t9.5 56.5t17.5 39t25 27t36 14.5t47.5 7.5t61.5 1.5q50 0 79.5 -3t54.5 -16t36.5 -31t20 -57.5t10.5 -85.5t2 -124q0 -67 -2 -109t-6 -79.5t-14.5 -57.5t-23.5 -36t-37 -22t-50.5 -9t-69.5 -3q-37 0 -61.5 1.5t-47.5 7.5t-36 14.5t-25 27t-17.5 39 t-9.5 56t-5 74t-1 96.5zM92 685q0 12 47 49q44 32 74 32q23 0 47 -18q2 -2 7 -6q37 -32 48 -33q26 0 79 48q9 9 18 9q8 0 15 -7t7 -16q0 -14 -47 -48q-41 -32 -74 -32q-25 0 -47 18q-26 24 -36 31t-19 7q-28 0 -79 -48q-10 -8 -18 -8t-15 7t-7 15zM110 314q0 -148 13 -202 q10 -44 39 -62.5t100 -18.5q73 0 102 19.5t38 68.5q12 56 12 195q0 143 -13 192q-12 45 -42.5 59.5t-96.5 14.5q-71 0 -100.5 -16.5t-39.5 -64.5q-12 -49 -12 -185z" />
<glyph unicode="&#xd6;" d="M59 305q0 59 1 97t5 74t9.5 56.5t17.5 39t25 27t36 14.5t47.5 7.5t61.5 1.5q50 0 79.5 -3t54.5 -16t36.5 -31t20 -57.5t10.5 -85.5t2 -124q0 -67 -2 -109t-6 -79.5t-14.5 -57.5t-23.5 -36t-37 -22t-50.5 -9t-69.5 -3q-37 0 -61.5 1.5t-47.5 7.5t-36 14.5t-25 27t-17.5 39 t-9.5 56t-5 74t-1 96.5zM110 314q0 -148 13 -202q10 -44 39 -62.5t100 -18.5q73 0 102 19.5t38 68.5q12 56 12 195q0 143 -13 192q-12 45 -42.5 59.5t-96.5 14.5q-71 0 -100.5 -16.5t-39.5 -64.5q-12 -49 -12 -185zM126 699q0 16 10.5 26t25.5 10t25.5 -10t10.5 -26 q0 -15 -10.5 -25.5t-25.5 -10.5t-25.5 10.5t-10.5 25.5zM327 699q0 16 10.5 26t25.5 10t25.5 -10t10.5 -26q0 -15 -10.5 -25.5t-25.5 -10.5t-25.5 10.5t-10.5 25.5z" />
<glyph unicode="&#xd7;" d="M105 463q16 16 45 -8l112 -113l110 112q30 22 44 10q19 -18 -6 -47l-112 -111l113 -112q24 -29 8 -45t-45 8l-112 113l-111 -112q-27 -24 -43 -10q-18 17 6 48l112 110l-113 112q-24 29 -8 45z" />
<glyph unicode="&#xd8;" d="M59 305q0 59 1 97t5 74t9.5 56.5t17.5 39t25 27t36 14.5t47.5 7.5t61.5 1.5q45 0 80 -2l18 55q7 24 21 24q23 0 23 -21q-1 -8 -20 -67q52 -22 66.5 -82.5t14.5 -223.5q0 -67 -2 -109t-6 -79.5t-14.5 -57.5t-23.5 -36t-37 -22t-50.5 -9t-69.5 -3q-45 0 -80 2l-18 -55 q-7 -24 -21 -24q-23 0 -23 21q1 8 20 66q-40 18 -54.5 49.5t-21.5 94.5q-5 49 -5 162zM97 305q0 -101 9 -157t18.5 -70.5t31.5 -31.5l171 527q-20 6 -24 6q-11 1 -41 1q-72 0 -105.5 -15t-46.5 -62q-13 -50 -13 -198zM197 38q20 -6 24 -6q11 -1 41 -1q72 0 105.5 15t46.5 62 q13 50 13 198q0 101 -9 157t-18.5 70.5t-31.5 31.5z" />
<glyph unicode="&#xd9;" d="M6 590q0 21 32 21h133q32 0 32 -21t-32 -21h-41v-363q0 -83 41 -129t91 -46t91 46t41 129v363h-41q-32 0 -32 21t32 21h133q32 0 32 -21t-32 -21h-41v-368q0 -89 -54 -150.5t-129 -61.5t-129 61.5t-54 150.5v368h-41q-32 0 -32 21zM163 765q0 11 7.5 18.5t18.5 7.5 q6 0 15 -4l138 -62q19 -9 19 -21q0 -9 -5.5 -20t-18.5 -11q-5 1 -7 2l-144 64q-23 10 -23 26z" />
<glyph unicode="&#xda;" d="M6 590q0 21 32 21h133q32 0 32 -21t-32 -21h-41v-363q0 -83 41 -129t91 -46t91 46t41 129v363h-41q-32 0 -32 21t32 21h133q32 0 32 -21t-32 -21h-41v-368q0 -89 -54 -150.5t-129 -61.5t-129 61.5t-54 150.5v368h-41q-32 0 -32 21zM164 704q0 12 19 21l138 62l15 4 q11 0 18.5 -7.5t7.5 -18.5q0 -16 -23 -26l-144 -64l-7 -2q-13 0 -18.5 11t-5.5 20z" />
<glyph unicode="&#xdb;" d="M6 590q0 21 32 21h133q32 0 32 -21t-32 -21h-41v-363q0 -83 41 -129t91 -46t91 46t41 129v363h-41q-32 0 -32 21t32 21h133q32 0 32 -21t-32 -21h-41v-368q0 -89 -54 -150.5t-129 -61.5t-129 61.5t-54 150.5v368h-41q-32 0 -32 21zM119 685q0 14 22 22l109 40q13 4 26 0 l107 -40q22 -8 22 -22q0 -22 -24 -22q-7 0 -30 7l-89 30l-89 -30q-23 -7 -30 -7q-24 0 -24 22z" />
<glyph unicode="&#xdc;" d="M6 590q0 21 32 21h133q32 0 32 -21t-32 -21h-41v-363q0 -83 41 -129t91 -46t91 46t41 129v363h-41q-32 0 -32 21t32 21h133q32 0 32 -21t-32 -21h-41v-368q0 -89 -54 -150.5t-129 -61.5t-129 61.5t-54 150.5v368h-41q-32 0 -32 21zM126 699q0 16 10.5 26t25.5 10 t25.5 -10t10.5 -26q0 -15 -10.5 -25.5t-25.5 -10.5t-25.5 10.5t-10.5 25.5zM327 699q0 16 10.5 26t25.5 10t25.5 -10t10.5 -26q0 -15 -10.5 -25.5t-25.5 -10.5t-25.5 10.5t-10.5 25.5z" />
<glyph unicode="&#xdd;" d="M21 590q0 21 31 21h108q31 0 31 -21q0 -8 -3 -12.5t-11.5 -6t-15.5 -2t-24 -0.5l126 -280l123 280q-21 0 -30 1t-16 5.5t-7 14.5q0 21 31 21h108q31 0 31 -22q0 -20 -31 -20h-28l-156 -325v-202h36q31 0 31 -21t-31 -21h-123q-31 0 -31 22q0 20 31 20h36v202l-157 325 h-28q-31 0 -31 21zM164 704q0 12 19 21l138 62l15 4q11 0 18.5 -7.5t7.5 -18.5q0 -16 -23 -26l-144 -64l-7 -2q-13 0 -18.5 11t-5.5 20z" />
<glyph unicode="&#xde;" d="M24 21q0 21 31 21h36v527h-36q-31 0 -31 20q0 22 31 22h123q31 0 31 -22q0 -20 -31 -20h-36v-84h140q81 0 133 -54t52 -125q0 -72 -51.5 -125.5t-133.5 -53.5h-140v-85h36q31 0 31 -21t-31 -21h-123q-31 0 -31 21zM142 170h120q74 0 114 42.5t40 93.5t-40 93.5t-114 42.5 h-120v-272z" />
<glyph unicode="&#xdf;" d="M19 21q0 21 31 21h66v341h-66q-31 0 -31 20q0 22 31 22h66v83q0 32 18 55t46.5 34t55.5 15.5t54 4.5q72 0 122.5 -28t50.5 -74q0 -64 -96 -116q73 -51 99.5 -113t26.5 -115q0 -78 -54 -127.5t-125 -49.5q-45 0 -70 20t-25 47q0 15 9.5 24t22.5 9q15 0 24 -12q6 -8 6 -38 q17 -8 33 -8q49 0 88.5 37t39.5 98q0 26 -8 57t-26 66.5t-55.5 60t-88.5 27.5q-16 5 -16 21q0 20 19 22q75 2 110 32t35 57q0 22 -36 41.5t-87 19.5q-45 0 -81 -16q-28 -12 -34.5 -24t-6.5 -35v-468q0 -19 -6 -25.5t-25 -6.5h-86q-31 0 -31 21z" />
<glyph unicode="&#xe0;" d="M58 122q0 69 83 105.5t227 38.5q0 126 -142 126q-69 0 -69 -23q-1 -20 -12.5 -28.5t-23.5 -8.5q-15 0 -25.5 10t-10.5 27q0 65 140 65q97 0 145.5 -45t48.5 -105v-230q32 -12 72 -12q32 0 32 -20q0 -10 -7 -15.5t-14 -6t-21 -0.5q-25 0 -40 1t-36 10t-33 26 q-66 -43 -153 -43q-72 0 -116.5 38t-44.5 90zM109 122q0 -35 32.5 -60.5t84.5 -25.5q57 0 96 19q22 10 32.5 23t12 22.5t1.5 27.5v98q-122 -4 -190.5 -33t-68.5 -71zM163 597q0 11 7.5 18t18.5 7q6 0 15 -4l138 -62q19 -8 19 -20q0 -9 -5.5 -20t-18.5 -11q-5 0 -7 1l-144 64 q-23 10 -23 27z" />
<glyph unicode="&#xe1;" d="M58 122q0 69 83 105.5t227 38.5q0 126 -142 126q-69 0 -69 -23q-1 -20 -12.5 -28.5t-23.5 -8.5q-15 0 -25.5 10t-10.5 27q0 65 140 65q97 0 145.5 -45t48.5 -105v-230q32 -12 72 -12q32 0 32 -20q0 -10 -7 -15.5t-14 -6t-21 -0.5q-25 0 -40 1t-36 10t-33 26 q-66 -43 -153 -43q-72 0 -116.5 38t-44.5 90zM109 122q0 -35 32.5 -60.5t84.5 -25.5q57 0 96 19q22 10 32.5 23t12 22.5t1.5 27.5v98q-122 -4 -190.5 -33t-68.5 -71zM164 536q0 12 19 20l138 62l15 4q11 0 18.5 -7t7.5 -18q0 -17 -23 -27l-144 -64l-7 -1q-13 0 -18.5 11 t-5.5 20z" />
<glyph unicode="&#xe2;" d="M58 122q0 69 83 105.5t227 38.5q0 126 -142 126q-69 0 -69 -23q-1 -20 -12.5 -28.5t-23.5 -8.5q-15 0 -25.5 10t-10.5 27q0 65 140 65q97 0 145.5 -45t48.5 -105v-230q32 -12 72 -12q32 0 32 -20q0 -10 -7 -15.5t-14 -6t-21 -0.5q-25 0 -40 1t-36 10t-33 26 q-66 -43 -153 -43q-72 0 -116.5 38t-44.5 90zM109 122q0 -35 32.5 -60.5t84.5 -25.5q57 0 96 19q22 10 32.5 23t12 22.5t1.5 27.5v98q-122 -4 -190.5 -33t-68.5 -71zM120 528q0 8 22 22l103 66q17 11 34 0l105 -66q22 -14 22 -22q0 -22 -24 -22q-5 0 -30 15l-89 54l-89 -54 q-25 -15 -30 -15q-24 0 -24 22z" />
<glyph unicode="&#xe3;" d="M58 122q0 69 83 105.5t227 38.5q0 126 -142 126q-69 0 -69 -23q-1 -20 -12.5 -28.5t-23.5 -8.5q-15 0 -25.5 10t-10.5 27q0 65 140 65q97 0 145.5 -45t48.5 -105v-230q32 -12 72 -12q32 0 32 -20q0 -10 -7 -15.5t-14 -6t-21 -0.5q-25 0 -40 1t-36 10t-33 26 q-66 -43 -153 -43q-72 0 -116.5 38t-44.5 90zM92 534q0 12 47 49q44 32 74 32q23 0 47 -18q2 -2 7 -6q37 -32 48 -33q26 0 79 48q9 9 18 9q8 0 15 -7t7 -16q0 -14 -47 -48q-44 -32 -74 -32q-25 0 -47 18q-2 2 -7 6q-37 32 -48 33q-27 0 -79 -49q-10 -8 -18 -8t-15 7t-7 15z M109 122q0 -35 32.5 -60.5t84.5 -25.5q57 0 96 19q22 10 32.5 23t12 22.5t1.5 27.5v98q-122 -4 -190.5 -33t-68.5 -71z" />
<glyph unicode="&#xe4;" d="M58 122q0 69 83 105.5t227 38.5q0 126 -142 126q-69 0 -69 -23q-1 -20 -12.5 -28.5t-23.5 -8.5q-15 0 -25.5 10t-10.5 27q0 65 140 65q97 0 145.5 -45t48.5 -105v-230q32 -12 72 -12q32 0 32 -20q0 -10 -7 -15.5t-14 -6t-21 -0.5q-25 0 -40 1t-36 10t-33 26 q-66 -43 -153 -43q-72 0 -116.5 38t-44.5 90zM109 122q0 -35 32.5 -60.5t84.5 -25.5q57 0 96 19q22 10 32.5 23t12 22.5t1.5 27.5v98q-122 -4 -190.5 -33t-68.5 -71zM141 563q0 16 10.5 26.5t25.5 10.5t25.5 -10.5t10.5 -26.5q0 -15 -10.5 -25.5t-25.5 -10.5t-25.5 10.5 t-10.5 25.5zM312 563q0 16 10.5 26.5t25.5 10.5t25.5 -10.5t10.5 -26.5q0 -15 -10.5 -25.5t-25.5 -10.5t-25.5 10.5t-10.5 25.5z" />
<glyph unicode="&#xe5;" d="M58 122q0 69 83 105.5t227 38.5q0 126 -142 126q-69 0 -69 -23q-1 -20 -12.5 -28.5t-23.5 -8.5q-15 0 -25.5 10t-10.5 27q0 65 140 65q97 0 145.5 -45t48.5 -105v-230q32 -12 72 -12q32 0 32 -20q0 -10 -7 -15.5t-14 -6t-21 -0.5q-25 0 -40 1t-36 10t-33 26 q-66 -43 -153 -43q-72 0 -116.5 38t-44.5 90zM109 122q0 -35 32.5 -60.5t84.5 -25.5q57 0 96 19q22 10 32.5 23t12 22.5t1.5 27.5v98q-122 -4 -190.5 -33t-68.5 -71zM161 563q0 30 29.5 51.5t72.5 21.5t72.5 -21.5t29.5 -51.5q0 -29 -29.5 -50t-72.5 -21t-72.5 21t-29.5 50z M211 563q0 -16 15.5 -25t36.5 -9t36.5 9t15.5 25q0 17 -15.5 26.5t-36.5 9.5t-36.5 -9.5t-15.5 -26.5z" />
<glyph unicode="&#xe6;" d="M36 112q0 59 57 91t150 33v44q0 54 -25 83t-68 29q-13 0 -25 -5t-12 -10q0 -1 0.5 -4t0.5 -5q-1 -15 -9 -24t-14.5 -10.5t-11.5 -1.5q-15 0 -25.5 10t-10.5 27q0 27 26 46t84 19q71 0 119 -85q49 85 111 85q54 0 86.5 -54t32.5 -149q0 -20 -5.5 -27t-25.5 -7h-189 q7 -75 41.5 -118t74.5 -43q22 0 39.5 16.5t26.5 50.5q9 18 19 18q8 0 13.5 -5.5t5.5 -13.5q0 -26 -28.5 -67t-80.5 -41q-61 0 -117 80q-49 -80 -133 -80q-48 0 -77.5 36.5t-29.5 81.5zM73 113q0 -30 20.5 -53.5t55.5 -23.5q38 0 67 24q26 21 26 68q0 45 2 68 q-76 -3 -123.5 -25.5t-47.5 -57.5zM282 239h182q-4 81 -27.5 117t-53.5 36q-36 0 -66 -45.5t-35 -107.5z" />
<glyph unicode="&#xe7;" d="M77 213q0 35 12.5 71.5t37.5 71t72 56.5t107 22q144 0 144 -65q0 -17 -10.5 -27t-25.5 -10q-34 0 -35 40q0 8 -25.5 14t-47.5 6q-52 0 -89.5 -20t-55.5 -50.5t-25.5 -57.5t-7.5 -51q0 -74 51 -125.5t121 -51.5q28 0 50 8t35.5 23t18.5 23.5t12 22.5q6 8 21 8 q5 0 9.5 -0.5t11 -5t5.5 -13.5q-7 -45 -50 -73t-79 -32v-25q4 -1 11 -2t25 -7.5t31.5 -16t24.5 -27t11 -39.5q0 -23 -10 -40t-31 -27t-40 -16t-51 -8.5t-50.5 -3t-50.5 -0.5q-22 0 -22 22q0 10 7.5 15t16 5.5t28.5 0.5q52 0 102 11.5t50 40.5q0 19 -20.5 34.5t-58.5 17.5 q-11 0 -16 6t-6 11t-1 16v29q-92 8 -149.5 70.5t-57.5 148.5z" />
<glyph unicode="&#xe8;" d="M58 214q0 91 62 155.5t150 64.5q92 0 141 -60t49 -149q0 -13 -5 -19.5t-10 -7.5t-16 -1h-320q14 -76 66.5 -118.5t117.5 -42.5q87 0 120 74q4 11 22 11q25 0 25 -19q0 -11 -10 -27.5t-29 -35.5t-55 -32t-80 -13q-96 0 -162 64.5t-66 155.5zM110 239h299q-5 59 -28.5 95 t-50.5 47t-60 11q-58 0 -102.5 -42t-57.5 -111zM163 597q0 11 7.5 18t18.5 7q6 0 15 -4l138 -62q19 -8 19 -20q0 -9 -5.5 -20t-18.5 -11q-5 0 -7 1l-144 64q-23 10 -23 27z" />
<glyph unicode="&#xe9;" d="M58 214q0 91 62 155.5t150 64.5q92 0 141 -60t49 -149q0 -13 -5 -19.5t-10 -7.5t-16 -1h-320q14 -76 66.5 -118.5t117.5 -42.5q87 0 120 74q4 11 22 11q25 0 25 -19q0 -11 -10 -27.5t-29 -35.5t-55 -32t-80 -13q-96 0 -162 64.5t-66 155.5zM110 239h299q-5 59 -28.5 95 t-50.5 47t-60 11q-58 0 -102.5 -42t-57.5 -111zM164 536q0 12 19 20l138 62l15 4q11 0 18.5 -7t7.5 -18q0 -17 -23 -27l-144 -64l-7 -1q-13 0 -18.5 11t-5.5 20z" />
<glyph unicode="&#xea;" d="M58 214q0 91 62 155.5t150 64.5q92 0 141 -60t49 -149q0 -13 -5 -19.5t-10 -7.5t-16 -1h-320q14 -76 66.5 -118.5t117.5 -42.5q87 0 120 74q4 11 22 11q25 0 25 -19q0 -11 -10 -27.5t-29 -35.5t-55 -32t-80 -13q-96 0 -162 64.5t-66 155.5zM110 239h299q-5 59 -28.5 95 t-50.5 47t-60 11q-58 0 -102.5 -42t-57.5 -111zM120 528q0 8 22 22l103 66q17 11 34 0l105 -66q22 -14 22 -22q0 -22 -24 -22q-5 0 -30 15l-89 54l-89 -54q-25 -15 -30 -15q-24 0 -24 22z" />
<glyph unicode="&#xeb;" d="M58 214q0 91 62 155.5t150 64.5q92 0 141 -60t49 -149q0 -13 -5 -19.5t-10 -7.5t-16 -1h-320q14 -76 66.5 -118.5t117.5 -42.5q87 0 120 74q4 11 22 11q25 0 25 -19q0 -11 -10 -27.5t-29 -35.5t-55 -32t-80 -13q-96 0 -162 64.5t-66 155.5zM110 239h299q-5 59 -28.5 95 t-50.5 47t-60 11q-58 0 -102.5 -42t-57.5 -111zM141 563q0 16 10.5 26.5t25.5 10.5t25.5 -10.5t10.5 -26.5q0 -15 -10.5 -25.5t-25.5 -10.5t-25.5 10.5t-10.5 25.5zM312 563q0 16 10.5 26.5t25.5 10.5t25.5 -10.5t10.5 -26.5q0 -15 -10.5 -25.5t-25.5 -10.5t-25.5 10.5 t-10.5 25.5z" />
<glyph unicode="&#xec;" d="M82 21q0 21 32 21h136v341h-128q-32 0 -32 21t32 21h147q19 0 25 -6.5t6 -25.5v-351h119q32 0 32 -21t-32 -21h-305q-32 0 -32 21zM163 597q0 11 7.5 18t18.5 7q6 0 15 -4l138 -62q19 -8 19 -20q0 -9 -5.5 -20t-18.5 -11q-5 0 -7 1l-144 64q-23 10 -23 27z" />
<glyph unicode="&#xed;" d="M82 21q0 21 32 21h136v341h-128q-32 0 -32 21t32 21h147q19 0 25 -6.5t6 -25.5v-351h119q32 0 32 -21t-32 -21h-305q-32 0 -32 21zM164 536q0 12 19 20l138 62l15 4q11 0 18.5 -7t7.5 -18q0 -17 -23 -27l-144 -64l-7 -1q-13 0 -18.5 11t-5.5 20z" />
<glyph unicode="&#xee;" d="M82 21q0 21 32 21h136v341h-128q-32 0 -32 21t32 21h147q19 0 25 -6.5t6 -25.5v-351h119q32 0 32 -21t-32 -21h-305q-32 0 -32 21zM120 528q0 8 22 22l103 66q17 11 34 0l105 -66q22 -14 22 -22q0 -22 -24 -22q-5 0 -30 15l-89 54l-89 -54q-25 -15 -30 -15q-24 0 -24 22z " />
<glyph unicode="&#xef;" d="M82 21q0 21 32 21h136v341h-128q-32 0 -32 21t32 21h147q19 0 25 -6.5t6 -25.5v-351h119q32 0 32 -21t-32 -21h-305q-32 0 -32 21zM141 563q0 16 10.5 26.5t25.5 10.5t25.5 -10.5t10.5 -26.5q0 -15 -10.5 -25.5t-25.5 -10.5t-25.5 10.5t-10.5 25.5zM312 563 q0 16 10.5 26.5t25.5 10.5t25.5 -10.5t10.5 -26.5q0 -15 -10.5 -25.5t-25.5 -10.5t-25.5 10.5t-10.5 25.5z" />
<glyph unicode="&#xf0;" d="M60 213q0 92 59.5 156.5t142.5 64.5q63 0 140 -59q-19 94 -56 149l-27 -29q-9 -7 -17 -7q-9 0 -15 6.5t-6 15.5q0 7 6 15l27 28q-43 22 -79 22q-9 0 -15.5 6.5t-6.5 15.5q0 8 6.5 14.5t15.5 6.5q58 0 108 -35l28 29q6 6 15 6t15.5 -6t6.5 -15q0 -8 -5 -15l-30 -29 q91 -117 91 -340q0 -93 -61 -156q-58 -63 -141 -63q-82 0 -142 63.5t-60 155.5zM111 220q0 -76 44.5 -130t106.5 -54q61 0 106 54t45 130q0 74 -45 123t-106 49q-60 0 -105.5 -49t-45.5 -123z" />
<glyph unicode="&#xf1;" d="M14 21q0 21 32 21h56v341h-57q-31 0 -31 20q0 22 32 22h75q22 0 26.5 -11t4.5 -52q71 69 146 69q124 0 124 -138v-251h56q32 0 32 -21t-31 -21h-158q-32 0 -32 21t32 21h51v245q0 54 -17.5 78t-62.5 24q-51 0 -95.5 -38.5t-44.5 -114.5v-194h56q32 0 32 -21t-31 -21h-164 q-31 0 -31 21zM92 534q0 12 47 49q44 32 74 32q23 0 47 -18q2 -2 7 -6q37 -32 48 -33q26 0 79 48q9 9 18 9q8 0 15 -7t7 -16q0 -14 -47 -48q-44 -32 -74 -32q-25 0 -47 18q-2 2 -7 6q-37 32 -48 33q-27 0 -79 -49q-10 -8 -18 -8t-15 7t-7 15z" />
<glyph unicode="&#xf2;" d="M60 213q0 92 59.5 156.5t142.5 64.5t142.5 -64.5t59.5 -156.5t-60 -155.5t-142 -63.5t-142 63.5t-60 155.5zM111 220q0 -76 44.5 -130t106.5 -54q61 0 106 54t45 130q0 74 -45 123t-106 49q-60 0 -105.5 -49t-45.5 -123zM163 597q0 11 7.5 18t18.5 7q6 0 15 -4l138 -62 q19 -8 19 -20q0 -9 -5.5 -20t-18.5 -11q-5 0 -7 1l-144 64q-23 10 -23 27z" />
<glyph unicode="&#xf3;" d="M60 213q0 92 59.5 156.5t142.5 64.5t142.5 -64.5t59.5 -156.5t-60 -155.5t-142 -63.5t-142 63.5t-60 155.5zM111 220q0 -76 44.5 -130t106.5 -54q61 0 106 54t45 130q0 74 -45 123t-106 49q-60 0 -105.5 -49t-45.5 -123zM164 536q0 12 19 20l138 62l15 4q11 0 18.5 -7 t7.5 -18q0 -17 -23 -27l-144 -64l-7 -1q-13 0 -18.5 11t-5.5 20z" />
<glyph unicode="&#xf4;" d="M60 213q0 92 59.5 156.5t142.5 64.5t142.5 -64.5t59.5 -156.5t-60 -155.5t-142 -63.5t-142 63.5t-60 155.5zM111 220q0 -76 44.5 -130t106.5 -54q61 0 106 54t45 130q0 74 -45 123t-106 49q-60 0 -105.5 -49t-45.5 -123zM120 528q0 8 22 22l103 66q17 11 34 0l105 -66 q22 -14 22 -22q0 -22 -24 -22q-5 0 -30 15l-89 54l-89 -54q-25 -15 -30 -15q-24 0 -24 22z" />
<glyph unicode="&#xf5;" d="M60 213q0 92 59.5 156.5t142.5 64.5t142.5 -64.5t59.5 -156.5t-60 -155.5t-142 -63.5t-142 63.5t-60 155.5zM92 534q0 12 47 49q44 32 74 32q23 0 47 -18q2 -2 7 -6q37 -32 48 -33q26 0 79 48q9 9 18 9q8 0 15 -7t7 -16q0 -14 -47 -48q-44 -32 -74 -32q-25 0 -47 18 q-2 2 -7 6q-37 32 -48 33q-27 0 -79 -49q-10 -8 -18 -8t-15 7t-7 15zM111 220q0 -76 44.5 -130t106.5 -54q61 0 106 54t45 130q0 74 -45 123t-106 49q-60 0 -105.5 -49t-45.5 -123z" />
<glyph unicode="&#xf6;" d="M60 213q0 92 59.5 156.5t142.5 64.5t142.5 -64.5t59.5 -156.5t-60 -155.5t-142 -63.5t-142 63.5t-60 155.5zM111 220q0 -76 44.5 -130t106.5 -54q61 0 106 54t45 130q0 74 -45 123t-106 49q-60 0 -105.5 -49t-45.5 -123zM141 563q0 16 10.5 26.5t25.5 10.5t25.5 -10.5 t10.5 -26.5q0 -15 -10.5 -25.5t-25.5 -10.5t-25.5 10.5t-10.5 25.5zM312 563q0 16 10.5 26.5t25.5 10.5t25.5 -10.5t10.5 -26.5q0 -15 -10.5 -25.5t-25.5 -10.5t-25.5 10.5t-10.5 25.5z" />
<glyph unicode="&#xf7;" d="M41 306q0 26 42 26h358q42 0 42 -26t-36 -26h-370q-36 0 -36 26zM207 87q0 21 15.5 37.5t39.5 16.5q22 0 38 -16t16 -39q0 -21 -15.5 -37.5t-39.5 -16.5q-22 0 -38 16t-16 39zM207 525q0 21 15.5 37.5t39.5 16.5q22 0 38 -16t16 -39q0 -21 -15.5 -37.5t-39.5 -16.5 q-22 0 -38 16t-16 39z" />
<glyph unicode="&#xf8;" d="M46 -124q0 5 16 34l73 125q-87 75 -87 178q0 91 62.5 156t151.5 65q39 0 92 -21l82 142q9 15 19 15q8 0 15.5 -5.5t7.5 -15.5q0 -7 -6 -17l-81 -141q85 -79 85 -178q0 -91 -63 -155t-151 -64q-43 0 -90 20l-88 -151q-6 -8 -15 -8q-8 0 -15.5 5.5t-7.5 15.5zM85 213 q0 -78 70 -143l178 308q-40 14 -71 14q-73 0 -125 -52.5t-52 -126.5zM193 49q39 -13 69 -13q73 0 125 51.5t52 125.5q0 80 -70 142z" />
<glyph unicode="&#xf9;" d="M14 403q0 22 32 22h75q19 0 25 -6.5t6 -25.5v-279q0 -19 1.5 -29t9.5 -23.5t28 -19.5t53 -6q14 0 28 2t33 9.5t33 19.5t24 34t10 51v231h-57q-31 0 -31 20q0 22 32 22h75q19 0 25 -6.5t6 -25.5v-351h57q31 0 31 -20q0 -22 -32 -22h-75q-10 0 -15 1.5t-11 11.5t-6 30 q-65 -49 -133 -49q-136 0 -136 114v275h-57q-31 0 -31 20zM163 597q0 11 7.5 18t18.5 7q6 0 15 -4l138 -62q19 -8 19 -20q0 -9 -5.5 -20t-18.5 -11q-5 0 -7 1l-144 64q-23 10 -23 27z" />
<glyph unicode="&#xfa;" d="M14 403q0 22 32 22h75q19 0 25 -6.5t6 -25.5v-279q0 -19 1.5 -29t9.5 -23.5t28 -19.5t53 -6q14 0 28 2t33 9.5t33 19.5t24 34t10 51v231h-57q-31 0 -31 20q0 22 32 22h75q19 0 25 -6.5t6 -25.5v-351h57q31 0 31 -20q0 -22 -32 -22h-75q-10 0 -15 1.5t-11 11.5t-6 30 q-65 -49 -133 -49q-136 0 -136 114v275h-57q-31 0 -31 20zM164 536q0 12 19 20l138 62l15 4q11 0 18.5 -7t7.5 -18q0 -17 -23 -27l-144 -64l-7 -1q-13 0 -18.5 11t-5.5 20z" />
<glyph unicode="&#xfb;" d="M14 403q0 22 32 22h75q19 0 25 -6.5t6 -25.5v-279q0 -19 1.5 -29t9.5 -23.5t28 -19.5t53 -6q14 0 28 2t33 9.5t33 19.5t24 34t10 51v231h-57q-31 0 -31 20q0 22 32 22h75q19 0 25 -6.5t6 -25.5v-351h57q31 0 31 -20q0 -22 -32 -22h-75q-10 0 -15 1.5t-11 11.5t-6 30 q-65 -49 -133 -49q-136 0 -136 114v275h-57q-31 0 -31 20zM120 528q0 8 22 22l103 66q17 11 34 0l105 -66q22 -14 22 -22q0 -22 -24 -22q-5 0 -30 15l-89 54l-89 -54q-25 -15 -30 -15q-24 0 -24 22z" />
<glyph unicode="&#xfc;" d="M14 403q0 22 32 22h75q19 0 25 -6.5t6 -25.5v-279q0 -19 1.5 -29t9.5 -23.5t28 -19.5t53 -6q14 0 28 2t33 9.5t33 19.5t24 34t10 51v231h-57q-31 0 -31 20q0 22 32 22h75q19 0 25 -6.5t6 -25.5v-351h57q31 0 31 -20q0 -22 -32 -22h-75q-10 0 -15 1.5t-11 11.5t-6 30 q-65 -49 -133 -49q-136 0 -136 114v275h-57q-31 0 -31 20zM141 563q0 16 10.5 26.5t25.5 10.5t25.5 -10.5t10.5 -26.5q0 -15 -10.5 -25.5t-25.5 -10.5t-25.5 10.5t-10.5 25.5zM312 563q0 16 10.5 26.5t25.5 10.5t25.5 -10.5t10.5 -26.5q0 -15 -10.5 -25.5t-25.5 -10.5 t-25.5 10.5t-10.5 25.5z" />
<glyph unicode="&#xfd;" d="M28 403q0 22 31 22h121q31 0 31 -22q0 -20 -31 -20h-41l132 -348l115 348h-40q-31 0 -31 21t31 21h121q31 0 31 -22q0 -20 -31 -20h-38l-162 -478q-3 -8 -8 -19t-18.5 -34.5t-29 -41.5t-40 -32t-50.5 -14q-32 0 -53.5 22.5t-21.5 52.5q0 15 9.5 25t25.5 10 q15 0 24.5 -9.5t9.5 -24.5l-6 -20q6 -13 12 -13q27 0 45.5 11.5t40.5 53.5q6 12 16.5 40.5t18.5 51.5l7 23l-155 396h-35q-31 0 -31 20zM164 536q0 12 19 20l138 62l15 4q11 0 18.5 -7t7.5 -18q0 -17 -23 -27l-144 -64l-7 -1q-13 0 -18.5 11t-5.5 20z" />
<glyph unicode="&#xfe;" d="M14 -209q0 22 32 22h56v756h-57q-31 0 -31 20q0 22 32 22h75q19 0 25 -6.5t6 -25.5v-212q71 64 142 64q78 0 134.5 -64t56.5 -154q0 -92 -60 -155.5t-142 -63.5q-64 0 -131 68v-249h56q32 0 32 -22q0 -21 -31 -21h-164q-31 0 -31 21zM152 187q0 -49 34.5 -100t93.5 -51 q61 0 108 50.5t47 126.5q0 72 -43 124t-104 52q-53 0 -94.5 -38.5t-41.5 -87.5v-76z" />
<glyph unicode="&#xff;" d="M28 403q0 22 31 22h121q31 0 31 -22q0 -20 -31 -20h-41l132 -348l115 348h-40q-31 0 -31 21t31 21h121q31 0 31 -22q0 -20 -31 -20h-38l-162 -478q-3 -8 -8 -19t-18.5 -34.5t-29 -41.5t-40 -32t-50.5 -14q-32 0 -53.5 22.5t-21.5 52.5q0 15 9.5 25t25.5 10 q15 0 24.5 -9.5t9.5 -24.5l-6 -20q6 -13 12 -13q27 0 45.5 11.5t40.5 53.5q6 12 16.5 40.5t18.5 51.5l7 23l-155 396h-35q-31 0 -31 20zM141 563q0 16 10.5 26.5t25.5 10.5t25.5 -10.5t10.5 -26.5q0 -15 -10.5 -25.5t-25.5 -10.5t-25.5 10.5t-10.5 25.5zM312 563 q0 16 10.5 26.5t25.5 10.5t25.5 -10.5t10.5 -26.5q0 -15 -10.5 -25.5t-25.5 -10.5t-25.5 10.5t-10.5 25.5z" />
<glyph unicode="&#x100;" d="M29 21q0 6 1 9.5t4.5 6t6.5 4t9.5 1.5h11h13h14.5l127 550q4 15 11 22t13.5 8t21.5 1q16 0 22.5 -1t13 -8.5t10.5 -22.5l127 -549h14.5h13.5h10.5t9.5 -1.5t6.5 -4t4.5 -6.5t1 -9q0 -21 -35 -21h-105q-33 0 -33 21q0 15 12 18t48 3l-28 129h-184l-28 -129q36 0 48 -3 t12 -18q0 -21 -33 -21h-106q-34 0 -34 21zM78 705q0 22 31 22h308q31 0 31 -23q0 -21 -31 -21h-307q-32 0 -32 22zM181 213h162l-77 368h-7z" />
<glyph unicode="&#x101;" d="M58 122q0 69 83 105.5t227 38.5q0 126 -142 126q-69 0 -69 -23q-1 -20 -12.5 -28.5t-23.5 -8.5q-15 0 -25.5 10t-10.5 27q0 65 140 65q97 0 145.5 -45t48.5 -105v-230q32 -12 72 -12q32 0 32 -20q0 -10 -7 -15.5t-14 -6t-21 -0.5q-25 0 -40 1t-36 10t-33 26 q-66 -43 -153 -43q-72 0 -116.5 38t-44.5 90zM78 564q0 22 31 22h308q31 0 31 -23q0 -21 -31 -21h-307q-32 0 -32 22zM109 122q0 -35 32.5 -60.5t84.5 -25.5q57 0 96 19q22 10 32.5 23t12 22.5t1.5 27.5v98q-122 -4 -190.5 -33t-68.5 -71z" />
<glyph unicode="&#x102;" d="M29 21q0 6 1 9.5t4.5 6t6.5 4t9.5 1.5h11h13h14.5l127 550q4 15 11 22t13.5 8t21.5 1q16 0 22.5 -1t13 -8.5t10.5 -22.5l127 -549h14.5h13.5h10.5t9.5 -1.5t6.5 -4t4.5 -6.5t1 -9q0 -21 -35 -21h-105q-33 0 -33 21q0 15 12 18t48 3l-28 129h-184l-28 -129q36 0 48 -3 t12 -18q0 -21 -33 -21h-106q-34 0 -34 21zM91 747q0 22 22 22q14 0 18 -11q11 -40 132 -40t132 40q4 11 18 11q22 0 22 -22q0 -21 -12.5 -36t-28.5 -22t-44 -11t-44 -4.5t-43 -0.5t-43 0.5t-44 4.5t-44 11t-28.5 22t-12.5 36zM181 213h162l-77 368h-7z" />
<glyph unicode="&#x103;" d="M58 122q0 69 83 105.5t227 38.5q0 126 -142 126q-69 0 -69 -23q-1 -20 -12.5 -28.5t-23.5 -8.5q-15 0 -25.5 10t-10.5 27q0 65 140 65q97 0 145.5 -45t48.5 -105v-230q32 -12 72 -12q32 0 32 -20q0 -10 -7 -15.5t-14 -6t-21 -0.5q-25 0 -40 1t-36 10t-33 26 q-66 -43 -153 -43q-72 0 -116.5 38t-44.5 90zM91 590q0 22 22 22q14 0 18 -11q11 -40 132 -40t132 40q4 11 18 11q22 0 22 -22q0 -21 -12.5 -36t-28.5 -22t-44 -11t-44 -4.5t-43 -0.5t-43 0.5t-44 4.5t-44 11t-28.5 22t-12.5 36zM109 122q0 -35 32.5 -60.5t84.5 -25.5 q57 0 96 19q22 10 32.5 23t12 22.5t1.5 27.5v98q-122 -4 -190.5 -33t-68.5 -71z" />
<glyph unicode="&#x104;" d="M29 21q0 6 1 9.5t4.5 6t6.5 4t9.5 1.5h11h13h14.5l127 550q4 15 11 22t13.5 8t21.5 1q16 0 22.5 -1t13 -8.5t10.5 -22.5l127 -549h14.5h13.5h10.5t9.5 -1.5t6.5 -4t4.5 -6.5t1 -9q0 -21 -35 -21h-22q-100 -59 -100 -124q0 -22 18.5 -36.5t37.5 -14.5q17 0 35 13t29 29 q13 11 24 3q5 -4 6 -11.5t-3 -11.5q-41 -57 -95 -57q-41 0 -66.5 27.5t-25.5 60.5q0 35 20 62.5t69 59.5q-41 0 -53 3t-12 18t12 18t48 3l-28 129h-184l-28 -129q36 0 48 -3t12 -18q0 -21 -33 -21h-106q-34 0 -34 21zM181 213h162l-78 368h-7z" />
<glyph unicode="&#x105;" d="M58 122q0 69 83 105.5t227 38.5q0 126 -142 126q-69 0 -69 -23q-1 -20 -12.5 -28.5t-23.5 -8.5q-15 0 -25.5 10t-10.5 27q0 65 140 65q97 0 145.5 -45t48.5 -105v-230q32 -12 72 -12q32 0 32 -20q0 -10 -7 -15t-14.5 -6t-23.5 -1q-102 -60 -102 -124q0 -22 18 -36.5 t38 -14.5q16 0 34 13t29 29q15 12 25 3q12 -10 3 -23q-41 -57 -96 -57q-41 0 -66.5 27.5t-25.5 60.5q0 64 93 124q-24 7 -35 14t-21 21q-66 -43 -153 -43q-72 0 -116.5 38t-44.5 90zM109 122q0 -35 32.5 -60.5t84.5 -25.5q57 0 96 19q22 10 32.5 23t12 22.5t1.5 27.5v98 q-122 -4 -190.5 -33t-68.5 -71z" />
<glyph unicode="&#x106;" d="M43 306q0 135 70.5 225.5t168.5 90.5q73 0 137 -55q19 35 21 43q10 12 20 12q21 0 21 -32v-143q0 -11 -1 -16t-7 -10.5t-18 -5.5q-10 0 -15.5 4t-7 8t-3.5 13q-11 65 -51 102.5t-92 37.5q-75 0 -134 -78.5t-59 -195.5q0 -118 59 -196.5t135 -78.5q47 0 92.5 32t50.5 104 q2 20 25 20q26 0 26 -24q0 -68 -57.5 -121t-140.5 -53q-99 0 -169.5 91t-70.5 226zM191 704q0 12 19 21l138 62l15 4q11 0 18.5 -7.5t7.5 -18.5q0 -16 -23 -26l-144 -64l-7 -2q-13 0 -18.5 11t-5.5 20z" />
<glyph unicode="&#x107;" d="M77 213q0 35 12.5 71.5t37.5 71t72 56.5t107 22q144 0 144 -65q0 -17 -10.5 -27t-25.5 -10q-35 0 -35 40q0 8 -25.5 14t-47.5 6q-52 0 -89.5 -20t-55.5 -50.5t-25.5 -57.5t-7.5 -51q0 -74 51 -125.5t121 -51.5q28 0 50 8t35.5 23t18.5 23.5t12 22.5q6 8 21 8q26 0 26 -19 q0 -8 -8 -24t-25.5 -36t-53.5 -34t-82 -14q-92 0 -154.5 64.5t-62.5 154.5zM191 536q0 12 19 20l138 62l15 4q11 0 18.5 -7t7.5 -18q0 -17 -23 -27l-144 -64l-7 -1q-13 0 -18.5 11t-5.5 20z" />
<glyph unicode="&#x108;" d="M43 306q0 135 70.5 225.5t168.5 90.5q73 0 137 -55q19 35 21 43q10 12 20 12q21 0 21 -32v-143q0 -11 -1 -16t-7 -10.5t-18 -5.5q-10 0 -15.5 4t-7 8t-3.5 13q-11 65 -51 102.5t-92 37.5q-75 0 -134 -78.5t-59 -195.5q0 -118 59 -196.5t135 -78.5q47 0 92.5 32t50.5 104 q2 20 25 20q26 0 26 -24q0 -68 -57.5 -121t-140.5 -53q-99 0 -169.5 91t-70.5 226zM146 685q0 14 22 22l109 40q13 4 26 0l107 -40q22 -8 22 -22q0 -22 -24 -22q-7 0 -30 7l-89 30l-89 -30q-23 -7 -30 -7q-24 0 -24 22z" />
<glyph unicode="&#x109;" d="M77 213q0 35 12.5 71.5t37.5 71t72 56.5t107 22q144 0 144 -65q0 -17 -10.5 -27t-25.5 -10q-35 0 -35 40q0 8 -25.5 14t-47.5 6q-52 0 -89.5 -20t-55.5 -50.5t-25.5 -57.5t-7.5 -51q0 -74 51 -125.5t121 -51.5q28 0 50 8t35.5 23t18.5 23.5t12 22.5q6 8 21 8q26 0 26 -19 q0 -8 -8 -24t-25.5 -36t-53.5 -34t-82 -14q-92 0 -154.5 64.5t-62.5 154.5zM147 528q0 8 22 22l103 66q17 11 34 0l105 -66q22 -14 22 -22q0 -22 -24 -22q-5 0 -30 15l-89 54l-89 -54q-25 -15 -30 -15q-24 0 -24 22z" />
<glyph unicode="&#x10a;" d="M43 306q0 135 70.5 225.5t168.5 90.5q73 0 137 -55q19 35 21 43q10 12 20 12q21 0 21 -32v-143q0 -11 -1 -16t-7 -10.5t-18 -5.5q-10 0 -15.5 4t-7 8t-3.5 13q-11 65 -51 102.5t-92 37.5q-75 0 -134 -78.5t-59 -195.5q0 -118 59 -196.5t135 -78.5q47 0 92.5 32t50.5 104 q2 20 25 20q26 0 26 -24q0 -68 -57.5 -121t-140.5 -53q-99 0 -169.5 91t-70.5 226zM249 715q0 17 12 29.5t29 12.5t29 -12.5t12 -29.5t-12 -29t-29 -12t-29 12t-12 29z" />
<glyph unicode="&#x10b;" d="M77 213q0 35 12.5 71.5t37.5 71t72 56.5t107 22q144 0 144 -65q0 -17 -10.5 -27t-25.5 -10q-35 0 -35 40q0 8 -25.5 14t-47.5 6q-52 0 -89.5 -20t-55.5 -50.5t-25.5 -57.5t-7.5 -51q0 -74 51 -125.5t121 -51.5q28 0 50 8t35.5 23t18.5 23.5t12 22.5q6 8 21 8q26 0 26 -19 q0 -8 -8 -24t-25.5 -36t-53.5 -34t-82 -14q-92 0 -154.5 64.5t-62.5 154.5zM249 563q0 18 12 30t29 12t29 -12t12 -30q0 -17 -12 -29t-29 -12t-29 12t-12 29z" />
<glyph unicode="&#x10c;" d="M43 306q0 135 70.5 225.5t168.5 90.5q73 0 137 -55q19 35 21 43q10 12 20 12q21 0 21 -32v-143q0 -11 -1 -16t-7 -10.5t-18 -5.5q-10 0 -15.5 4t-7 8t-3.5 13q-11 65 -51 102.5t-92 37.5q-75 0 -134 -78.5t-59 -195.5q0 -118 59 -196.5t135 -78.5q47 0 92.5 32t50.5 104 q2 20 25 20q26 0 26 -24q0 -68 -57.5 -121t-140.5 -53q-99 0 -169.5 91t-70.5 226zM146 728q0 22 24 22q7 0 30 -7l89 -30l89 30q23 7 30 7q24 0 24 -22q0 -14 -22 -22l-109 -40q-13 -4 -26 0l-107 40q-22 8 -22 22z" />
<glyph unicode="&#x10d;" d="M77 213q0 35 12.5 71.5t37.5 71t72 56.5t107 22q144 0 144 -65q0 -17 -10.5 -27t-25.5 -10q-35 0 -35 40q0 8 -25.5 14t-47.5 6q-52 0 -89.5 -20t-55.5 -50.5t-25.5 -57.5t-7.5 -51q0 -74 51 -125.5t121 -51.5q28 0 50 8t35.5 23t18.5 23.5t12 22.5q6 8 21 8q26 0 26 -19 q0 -8 -8 -24t-25.5 -36t-53.5 -34t-82 -14q-92 0 -154.5 64.5t-62.5 154.5zM147 599q0 22 24 22q5 0 30 -15l89 -54l89 54q25 15 30 15q24 0 24 -22q0 -8 -22 -22l-103 -66q-17 -11 -34 0l-105 66q-22 14 -22 22z" />
<glyph unicode="&#x10e;" d="M21 21q0 21 32 21h33v527h-33q-32 0 -32 20q0 22 32 22h213q96 0 156 -92.5t60 -217.5q0 -124 -60.5 -212.5t-155.5 -88.5h-213q-32 0 -32 21zM56 728q0 22 24 22q7 0 30 -7l89 -30l89 30q23 7 30 7q24 0 24 -22q0 -14 -22 -22l-109 -40q-13 -4 -26 0l-107 40 q-22 8 -22 22zM137 42h109q86 0 136 78t50 181q0 104 -50 186t-136 82h-109v-527z" />
<glyph unicode="&#x10f;" d="M39 212q0 92 59.5 155.5t141.5 63.5q63 0 132 -59v197h-57q-31 0 -31 20q0 22 32 22h75q19 0 25 -6.5t6 -25.5v-537h57q31 0 31 -20q0 -22 -32 -22h-75q-22 0 -26.5 11.5t-4.5 55.5q-71 -73 -141 -73q-79 0 -135.5 63.5t-56.5 154.5zM89 212q0 -73 43.5 -124.5 t102.5 -51.5q60 0 98.5 50.5t38.5 103.5v74q0 48 -37.5 86.5t-90.5 38.5q-61 0 -108 -50.5t-47 -126.5zM461 442q0 8 9 10q72 24 72 89q-12 -6 -27 -6q-16 0 -27 11t-11 28q0 16 10.5 26.5t28.5 10.5q22 0 38 -18.5t16 -48.5q0 -51 -35 -84t-59 -33q-6 0 -10.5 5t-4.5 10z " />
<glyph unicode="&#x110;" d="M21 21q0 21 32 21h33v242h-39q-9 0 -15.5 6t-6.5 16q0 9 6.5 15.5t15.5 6.5h39v241h-33q-32 0 -32 20q0 22 32 22h213q96 0 156 -92.5t60 -217.5q0 -124 -60.5 -212.5t-155.5 -88.5h-213q-32 0 -32 21zM137 42h109q86 0 136 78t50 181q0 104 -50 186t-136 82h-109v-241 h71q9 0 15.5 -6.5t6.5 -15.5q0 -10 -6.5 -16t-15.5 -6h-71v-242z" />
<glyph unicode="&#x111;" d="M39 212q0 92 59.5 155.5t141.5 63.5q63 0 132 -59v103h-164q-9 0 -15 6t-6 15t6 15.5t15 6.5h164v51h-57q-31 0 -31 20q0 22 32 22h75q19 0 25 -6.5t6 -25.5v-61h62q9 0 15.5 -6.5t6.5 -15.5t-6.5 -15t-15.5 -6h-62v-433h57q31 0 31 -20q0 -22 -32 -22h-75 q-22 0 -26.5 11.5t-4.5 55.5q-71 -73 -141 -73q-79 0 -135.5 63.5t-56.5 154.5zM89 212q0 -73 43.5 -124.5t102.5 -51.5q60 0 98.5 50.5t38.5 103.5v74q0 48 -37.5 86.5t-90.5 38.5q-61 0 -108 -50.5t-47 -126.5z" />
<glyph unicode="&#x112;" d="M28 21q0 21 32 21h42v527h-42q-32 0 -32 21t32 21h386q19 0 25 -6.5t6 -25.5v-76q0 -10 -1 -15.5t-7 -11t-18 -5.5q-17 0 -21 8.5t-4 23.5v66h-274v-231h157q0 26 1 36t6.5 16.5t17.5 6.5t17.5 -6t6.5 -11t1 -15v-96q0 -10 -1 -15.5t-6.5 -11t-17.5 -5.5q-17 0 -21 11 t-4 48h-157v-254h297v82q0 10 1 15.5t7 11t18 5.5q17 0 21 -8t4 -24v-92q0 -19 -6 -25.5t-25 -6.5h-409q-32 0 -32 21zM78 705q0 22 31 22h308q31 0 31 -23q0 -21 -31 -21h-307q-32 0 -32 22z" />
<glyph unicode="&#x113;" d="M58 214q0 91 62 155.5t150 64.5q92 0 141 -60t49 -149q0 -13 -5 -19.5t-10 -7.5t-16 -1h-320q14 -76 66.5 -118.5t117.5 -42.5q87 0 120 74q4 11 22 11q25 0 25 -19q0 -11 -10 -27.5t-29 -35.5t-55 -32t-80 -13q-96 0 -162 64.5t-66 155.5zM78 564q0 22 31 22h308 q31 0 31 -23q0 -21 -31 -21h-307q-32 0 -32 22zM110 239h299q-5 59 -28.5 95t-50.5 47t-60 11q-58 0 -102.5 -42t-57.5 -111z" />
<glyph unicode="&#x114;" d="M28 21q0 21 32 21h42v527h-42q-32 0 -32 21t32 21h386q19 0 25 -6.5t6 -25.5v-76q0 -10 -1 -15.5t-7 -11t-18 -5.5q-17 0 -21 8.5t-4 23.5v66h-274v-231h157q0 26 1 36t6.5 16.5t17.5 6.5t17.5 -6t6.5 -11t1 -15v-96q0 -10 -1 -15.5t-6.5 -11t-17.5 -5.5q-17 0 -21 11 t-4 48h-157v-254h297v82q0 10 1 15.5t7 11t18 5.5q17 0 21 -8t4 -24v-92q0 -19 -6 -25.5t-25 -6.5h-409q-32 0 -32 21zM91 747q0 22 22 22q14 0 18 -11q11 -40 132 -40t132 40q4 11 18 11q22 0 22 -22q0 -21 -12.5 -36t-28.5 -22t-44 -11t-44 -4.5t-43 -0.5t-43 0.5t-44 4.5 t-44 11t-28.5 22t-12.5 36z" />
<glyph unicode="&#x115;" d="M58 214q0 91 62 155.5t150 64.5q92 0 141 -60t49 -149q0 -13 -5 -19.5t-10 -7.5t-16 -1h-320q14 -76 66.5 -118.5t117.5 -42.5q87 0 120 74q4 11 22 11q25 0 25 -19q0 -11 -10 -27.5t-29 -35.5t-55 -32t-80 -13q-96 0 -162 64.5t-66 155.5zM91 590q0 22 22 22 q14 0 18 -11q11 -40 132 -40t132 40q4 11 18 11q22 0 22 -22q0 -21 -12.5 -36t-28.5 -22t-44 -11t-44 -4.5t-43 -0.5t-43 0.5t-44 4.5t-44 11t-28.5 22t-12.5 36zM110 239h299q-5 59 -28.5 95t-50.5 47t-60 11q-58 0 -102.5 -42t-57.5 -111z" />
<glyph unicode="&#x116;" d="M28 21q0 21 32 21h42v527h-42q-32 0 -32 21t32 21h386q19 0 25 -6.5t6 -25.5v-76q0 -10 -1 -15.5t-7 -11t-18 -5.5q-17 0 -21 8.5t-4 23.5v66h-274v-231h157q0 26 1 36t6.5 16.5t17.5 6.5t17.5 -6t6.5 -11t1 -15v-96q0 -10 -1 -15.5t-6.5 -11t-17.5 -5.5q-17 0 -21 11 t-4 48h-157v-254h297v82q0 10 1 15.5t7 11t18 5.5q17 0 21 -8t4 -24v-92q0 -19 -6 -25.5t-25 -6.5h-409q-32 0 -32 21zM222 715q0 17 12 29.5t29 12.5t29 -12.5t12 -29.5t-12 -29t-29 -12t-29 12t-12 29z" />
<glyph unicode="&#x117;" d="M58 214q0 91 62 155.5t150 64.5q92 0 141 -60t49 -149q0 -13 -5 -19.5t-10 -7.5t-16 -1h-320q14 -76 66.5 -118.5t117.5 -42.5q87 0 120 74q4 11 22 11q25 0 25 -19q0 -11 -10 -27.5t-29 -35.5t-55 -32t-80 -13q-96 0 -162 64.5t-66 155.5zM110 239h299q-5 59 -28.5 95 t-50.5 47t-60 11q-58 0 -102.5 -42t-57.5 -111zM222 563q0 18 12 30t29 12t29 -12t12 -30q0 -17 -12 -29t-29 -12t-29 12t-12 29z" />
<glyph unicode="&#x118;" d="M28 21q0 21 32 21h42v527h-42q-32 0 -32 21t32 21h386q19 0 25 -6.5t6 -25.5v-76q0 -10 -1 -15.5t-7 -11t-18 -5.5q-17 0 -21 8.5t-4 23.5v66h-274v-231h157q0 26 1 36t6.5 16.5t17.5 6.5t17.5 -6t6.5 -11t1 -15v-96q0 -10 -1 -15.5t-6.5 -11t-17.5 -5.5q-17 0 -21 11 t-4 48h-157v-254h297v82q0 10 1 15.5t7 11t18 5.5q17 0 21 -8t4 -24v-92q0 -19 -6 -25.5t-25 -6.5h-30q-101 -60 -101 -124q0 -22 18.5 -36.5t37.5 -14.5q17 0 35 13t29 29q13 11 24 3q5 -4 6 -11.5t-3 -11.5q-41 -57 -95 -57q-41 0 -66.5 27.5t-25.5 60.5q0 34 20.5 62 t69.5 60h-328q-32 0 -32 21z" />
<glyph unicode="&#x119;" d="M58 214q0 91 62 155.5t150 64.5q92 0 141 -60t49 -149q0 -13 -5 -19.5t-10 -7.5t-16 -1h-320q14 -76 66.5 -118.5t117.5 -42.5q87 0 120 74q4 11 22 11q24 0 25 -19q1 -20 -28 -47.5t-52 -41.5q-65 -38 -94.5 -70.5t-29.5 -66.5q0 -22 18.5 -36.5t37.5 -14.5q16 0 34 13 t29 29q15 12 25 3q12 -10 3 -23q-41 -57 -96 -57q-41 0 -66.5 27.5t-25.5 60.5q0 36 15 62t59 54q-108 10 -169.5 71t-61.5 149zM110 239h299q-5 59 -28.5 95t-50.5 47t-60 11q-58 0 -102.5 -42t-57.5 -111z" />
<glyph unicode="&#x11a;" d="M28 21q0 21 32 21h42v527h-42q-32 0 -32 21t32 21h386q19 0 25 -6.5t6 -25.5v-76q0 -10 -1 -15.5t-7 -11t-18 -5.5q-17 0 -21 8.5t-4 23.5v66h-274v-231h157q0 26 1 36t6.5 16.5t17.5 6.5t17.5 -6t6.5 -11t1 -15v-96q0 -10 -1 -15.5t-6.5 -11t-17.5 -5.5q-17 0 -21 11 t-4 48h-157v-254h297v82q0 10 1 15.5t7 11t18 5.5q17 0 21 -8t4 -24v-92q0 -19 -6 -25.5t-25 -6.5h-409q-32 0 -32 21zM119 728q0 22 24 22q7 0 30 -7l89 -30l89 30q23 7 30 7q24 0 24 -22q0 -14 -22 -22l-109 -40q-13 -4 -26 0l-107 40q-22 8 -22 22z" />
<glyph unicode="&#x11b;" d="M58 214q0 91 62 155.5t150 64.5q92 0 141 -60t49 -149q0 -13 -5 -19.5t-10 -7.5t-16 -1h-320q14 -76 66.5 -118.5t117.5 -42.5q87 0 120 74q4 11 22 11q25 0 25 -19q0 -11 -10 -27.5t-29 -35.5t-55 -32t-80 -13q-96 0 -162 64.5t-66 155.5zM110 239h299q-5 59 -28.5 95 t-50.5 47t-60 11q-58 0 -102.5 -42t-57.5 -111zM120 599q0 22 24 22q5 0 30 -15l89 -54l89 54q25 15 30 15q24 0 24 -22q0 -8 -22 -22l-103 -66q-17 -11 -34 0l-105 66q-22 14 -22 22z" />
<glyph unicode="&#x11c;" d="M41 306q0 134 64.5 225t155.5 91q64 0 125 -53q15 34 21 43.5t17 9.5q21 0 21 -32v-143q0 -11 -1 -16t-7 -10.5t-18 -5.5q-21 0 -24 16q-7 44 -23 75.5t-35.5 46.5t-37 21t-34.5 6q-67 0 -120.5 -78.5t-53.5 -196.5q0 -116 52.5 -195t120.5 -79q48 0 83.5 45t45.5 140 h-55q-31 0 -31 22q0 20 31 20h124q32 0 32 -20q0 -10 -7 -15t-15.5 -6t-26.5 -1v-184q0 -10 -1 -15t-6.5 -11t-17.5 -6q-18 0 -22 11.5t-4 49.5q-62 -72 -133 -72q-91 0 -155.5 91t-64.5 226zM119 685q0 14 22 22l109 40q13 4 26 0l107 -40q22 -8 22 -22q0 -22 -24 -22 q-7 0 -30 7l-89 30l-89 -30q-23 -7 -30 -7q-24 0 -24 22z" />
<glyph unicode="&#x11d;" d="M31 -95q0 75 82 125q-29 38 -29 78q0 36 23 70q-35 46 -35 98q0 63 46.5 109t113.5 46q53 0 101 -33q51 38 109 38q32 0 48.5 -14t16.5 -31q0 -16 -9.5 -24t-21.5 -8q-9 0 -18.5 8t-13.5 28q-44 -4 -83 -25q31 -52 31 -94q0 -65 -46.5 -110.5t-113.5 -45.5q-50 0 -98 31 q-12 -31 -12 -45q2 -26 15 -43q11 -13 18.5 -16t22.5 -3q18 -2 31 -2h73q93 0 145 -28q33 -18 49.5 -48.5t16.5 -60.5q0 -62 -67.5 -102t-163.5 -40q-97 0 -164 40t-67 102zM71 -95q0 -38 55.5 -69t135.5 -31t135.5 31t55.5 69q0 33 -19 54.5t-55.5 30.5t-67.5 11.5t-77 2.5 q-60 0 -78 -2.5t-38 -15.5q-47 -29 -47 -81zM84 528q0 8 22 22l103 66q17 11 34 0l105 -66q22 -14 22 -22q0 -22 -24 -22q-5 0 -30 15l-89 54l-89 -54q-25 -15 -30 -15q-24 0 -24 22zM122 275q0 -46 32 -80t78 -34q45 0 77.5 33.5t32.5 81.5q0 46 -32 80t-78 34 q-45 0 -77.5 -33.5t-32.5 -81.5z" />
<glyph unicode="&#x11e;" d="M41 306q0 134 64.5 225t155.5 91q64 0 125 -53q15 34 21 43.5t17 9.5q21 0 21 -32v-143q0 -11 -1 -16t-7 -10.5t-18 -5.5q-21 0 -24 16q-7 44 -23 75.5t-35.5 46.5t-37 21t-34.5 6q-67 0 -120.5 -78.5t-53.5 -196.5q0 -116 52.5 -195t120.5 -79q48 0 83.5 45t45.5 140 h-55q-31 0 -31 22q0 20 31 20h124q32 0 32 -20q0 -10 -7 -15t-15.5 -6t-26.5 -1v-184q0 -10 -1 -15t-6.5 -11t-17.5 -6q-18 0 -22 11.5t-4 49.5q-62 -72 -133 -72q-91 0 -155.5 91t-64.5 226zM91 747q0 22 22 22q14 0 18 -11q11 -40 132 -40t132 40q4 11 18 11q22 0 22 -22 q0 -21 -12.5 -36t-28.5 -22t-44 -11t-44 -4.5t-43 -0.5t-43 0.5t-44 4.5t-44 11t-28.5 22t-12.5 36z" />
<glyph unicode="&#x11f;" d="M31 -95q0 75 82 125q-29 38 -29 78q0 36 23 70q-35 46 -35 98q0 63 46.5 109t113.5 46q53 0 101 -33q51 38 109 38q32 0 48.5 -14t16.5 -31q0 -16 -9.5 -24t-21.5 -8q-9 0 -18.5 8t-13.5 28q-44 -4 -83 -25q31 -52 31 -94q0 -65 -46.5 -110.5t-113.5 -45.5q-50 0 -98 31 q-12 -31 -12 -45q2 -26 15 -43q11 -13 18.5 -16t22.5 -3q18 -2 31 -2h73q93 0 145 -28q33 -18 49.5 -48.5t16.5 -60.5q0 -62 -67.5 -102t-163.5 -40q-97 0 -164 40t-67 102zM55 590q0 22 22 22q14 0 18 -11q11 -40 132 -40t132 40q4 11 18 11q22 0 22 -22q0 -21 -12.5 -36 t-28.5 -22t-44 -11t-44 -4.5t-43 -0.5t-43 0.5t-44 4.5t-44 11t-28.5 22t-12.5 36zM71 -95q0 -38 55.5 -69t135.5 -31t135.5 31t55.5 69q0 33 -19 54.5t-55.5 30.5t-67.5 11.5t-77 2.5q-60 0 -78 -2.5t-38 -15.5q-47 -29 -47 -81zM122 275q0 -46 32 -80t78 -34 q45 0 77.5 33.5t32.5 81.5q0 46 -32 80t-78 34q-45 0 -77.5 -33.5t-32.5 -81.5z" />
<glyph unicode="&#x120;" d="M41 306q0 134 64.5 225t155.5 91q64 0 125 -53q15 34 21 43.5t17 9.5q21 0 21 -32v-143q0 -11 -1 -16t-7 -10.5t-18 -5.5q-21 0 -24 16q-7 44 -23 75.5t-35.5 46.5t-37 21t-34.5 6q-67 0 -120.5 -78.5t-53.5 -196.5q0 -116 52.5 -195t120.5 -79q48 0 83.5 45t45.5 140 h-55q-31 0 -31 22q0 20 31 20h124q32 0 32 -20q0 -10 -7 -15t-15.5 -6t-26.5 -1v-184q0 -10 -1 -15t-6.5 -11t-17.5 -6q-18 0 -22 11.5t-4 49.5q-62 -72 -133 -72q-91 0 -155.5 91t-64.5 226zM222 715q0 17 12 29.5t29 12.5t29 -12.5t12 -29.5t-12 -29t-29 -12t-29 12 t-12 29z" />
<glyph unicode="&#x121;" d="M31 -95q0 75 82 125q-29 38 -29 78q0 36 23 70q-35 46 -35 98q0 63 46.5 109t113.5 46q53 0 101 -33q51 38 109 38q32 0 48.5 -14t16.5 -31q0 -16 -9.5 -24t-21.5 -8q-9 0 -18.5 8t-13.5 28q-44 -4 -83 -25q31 -52 31 -94q0 -65 -46.5 -110.5t-113.5 -45.5q-50 0 -98 31 q-12 -31 -12 -45q2 -26 15 -43q11 -13 18.5 -16t22.5 -3q18 -2 31 -2h73q93 0 145 -28q33 -18 49.5 -48.5t16.5 -60.5q0 -62 -67.5 -102t-163.5 -40q-97 0 -164 40t-67 102zM71 -95q0 -38 55.5 -69t135.5 -31t135.5 31t55.5 69q0 33 -19 54.5t-55.5 30.5t-67.5 11.5t-77 2.5 q-60 0 -78 -2.5t-38 -15.5q-47 -29 -47 -81zM122 275q0 -46 32 -80t78 -34q45 0 77.5 33.5t32.5 81.5q0 46 -32 80t-78 34q-45 0 -77.5 -33.5t-32.5 -81.5zM186 563q0 18 12 30t29 12t29 -12t12 -30q0 -17 -12 -29t-29 -12t-29 12t-12 29z" />
<glyph unicode="&#x122;" d="M41 306q0 134 64.5 225t155.5 91q64 0 125 -53q15 34 21 43.5t17 9.5q21 0 21 -32v-143q0 -11 -1 -16t-7 -10.5t-18 -5.5q-21 0 -24 16q-7 44 -23 75.5t-35.5 46.5t-37 21t-34.5 6q-67 0 -120.5 -78.5t-53.5 -196.5q0 -116 52.5 -195t120.5 -79q48 0 83.5 45t45.5 140 h-55q-31 0 -31 22q0 20 31 20h124q32 0 32 -20q0 -10 -7 -15t-15.5 -6t-26.5 -1v-184q0 -10 -1 -15t-6.5 -11t-17.5 -6q-18 0 -22 11.5t-4 49.5q-62 -72 -133 -72q-91 0 -155.5 91t-64.5 226zM208 -224q0 8 9 10q72 24 72 89q-12 -6 -27 -6q-16 0 -27 11t-11 28 q0 16 11 26.5t28 10.5q22 0 38 -18.5t16 -48.5q0 -51 -35 -84t-59 -33q-6 0 -10.5 5t-4.5 10z" />
<glyph unicode="&#x123;" d="M31 -95q0 75 82 125q-29 38 -29 78q0 36 23 70q-35 46 -35 98q0 63 46.5 109t113.5 46q53 0 101 -33q51 38 109 38q32 0 48.5 -14t16.5 -31q0 -16 -9.5 -24t-21.5 -8q-9 0 -18.5 8t-13.5 28q-44 -4 -83 -25q31 -52 31 -94q0 -65 -46.5 -110.5t-113.5 -45.5q-50 0 -98 31 q-12 -31 -12 -45q2 -26 15 -43q11 -13 18.5 -16t22.5 -3q18 -2 31 -2h73q93 0 145 -28q33 -18 49.5 -48.5t16.5 -60.5q0 -62 -67.5 -102t-163.5 -40q-97 0 -164 40t-67 102zM71 -95q0 -38 55.5 -69t135.5 -31t135.5 31t55.5 69q0 33 -19 54.5t-55.5 30.5t-67.5 11.5t-77 2.5 q-60 0 -78 -2.5t-38 -15.5q-47 -29 -47 -81zM122 275q0 -46 32 -80t78 -34q45 0 77.5 33.5t32.5 81.5q0 46 -32 80t-78 34q-45 0 -77.5 -33.5t-32.5 -81.5zM172 541q0 51 35 84t59 33q6 0 10.5 -5t4.5 -10q0 -8 -9 -10q-72 -24 -72 -89q12 6 27 6q16 0 27 -11t11 -28 q0 -15 -10.5 -26t-28.5 -11q-22 0 -38 18.5t-16 48.5z" />
<glyph unicode="&#x124;" d="M24 21q0 21 31 21h36v527h-36q-31 0 -31 20q0 22 31 22h123q31 0 31 -22q0 -20 -31 -20h-36v-230h240v230h-36q-31 0 -31 21t31 21h123q31 0 31 -22q0 -20 -31 -20h-36v-527h36q31 0 31 -21t-31 -21h-123q-31 0 -31 22q0 20 31 20h36v255h-240v-255h36q31 0 31 -21 t-31 -21h-123q-31 0 -31 21zM119 685q0 14 22 22l109 40q13 4 26 0l107 -40q22 -8 22 -22q0 -22 -24 -22q-7 0 -30 7l-89 30l-89 -30q-23 -7 -30 -7q-24 0 -24 22z" />
<glyph unicode="&#x125;" d="M14 21q0 21 32 21h56v527h-57q-31 0 -31 20q0 22 32 22h75q19 0 25 -6.5t6 -25.5v-217q71 69 146 69q124 0 124 -138v-251h56q32 0 32 -21t-31 -21h-158q-32 0 -32 21t32 21h51v245q0 54 -17.5 78t-62.5 24q-51 0 -95.5 -38.5t-44.5 -114.5v-194h56q32 0 32 -21t-31 -21 h-164q-31 0 -31 21zM119 685q0 14 22 22l109 40q13 4 26 0l107 -40q22 -8 22 -22q0 -22 -24 -22q-7 0 -30 7l-89 30l-89 -30q-23 -7 -30 -7q-24 0 -24 22z" />
<glyph unicode="&#x126;" d="M24 21q0 21 31 21h36v399h-41q-9 0 -15.5 6.5t-6.5 15.5t6.5 15.5t15.5 6.5h41v84h-36q-31 0 -31 20q0 22 31 22h123q31 0 31 -22q0 -20 -31 -20h-36v-84h240v84h-36q-31 0 -31 21t31 21h123q31 0 31 -22q0 -20 -31 -20h-36v-84h41q9 0 15.5 -6.5t6.5 -15.5t-6.5 -15.5 t-15.5 -6.5h-41v-399h36q31 0 31 -21t-31 -21h-123q-31 0 -31 22q0 20 31 20h36v255h-240v-255h36q31 0 31 -21t-31 -21h-123q-31 0 -31 21zM142 339h240v102h-240v-102z" />
<glyph unicode="&#x127;" d="M14 21q0 21 32 21h56v433h-62q-9 0 -15.5 6t-6.5 15t6.5 15.5t15.5 6.5h62v51h-57q-31 0 -31 20q0 22 32 22h75q19 0 25 -6.5t6 -25.5v-61h111q9 0 15.5 -6.5t6.5 -15.5t-6.5 -15t-15.5 -6h-111v-113q71 69 146 69q124 0 124 -138v-251h56q32 0 32 -21t-31 -21h-158 q-32 0 -32 21t32 21h51v245q0 54 -17.5 78t-62.5 24q-51 0 -95.5 -38.5t-44.5 -114.5v-194h56q32 0 32 -21t-31 -21h-164q-31 0 -31 21z" />
<glyph unicode="&#x128;" d="M83 22q0 20 32 20h122v527h-122q-32 0 -32 21t32 21h295q32 0 32 -22q0 -20 -32 -20h-122v-527h122q32 0 32 -21t-32 -21h-295q-32 0 -32 22zM92 685q0 12 47 49q44 32 74 32q23 0 47 -18q2 -2 7 -6q37 -32 48 -33q26 0 79 48q9 9 18 9q8 0 15 -7t7 -16q0 -14 -47 -48 q-41 -32 -74 -32q-25 0 -47 18q-26 24 -36 31t-19 7q-28 0 -79 -48q-10 -8 -18 -8t-15 7t-7 15z" />
<glyph unicode="&#x129;" d="M82 21q0 21 32 21h136v341h-128q-32 0 -32 21t32 21h147q19 0 25 -6.5t6 -25.5v-351h119q32 0 32 -21t-32 -21h-305q-32 0 -32 21zM92 534q0 12 47 49q44 32 74 32q23 0 47 -18q2 -2 7 -6q37 -32 48 -33q26 0 79 48q9 9 18 9q8 0 15 -7t7 -16q0 -14 -47 -48 q-44 -32 -74 -32q-25 0 -47 18q-2 2 -7 6q-37 32 -48 33q-27 0 -79 -49q-10 -8 -18 -8t-15 7t-7 15z" />
<glyph unicode="&#x12a;" d="M78 705q0 22 31 22h308q31 0 31 -23q0 -21 -31 -21h-307q-32 0 -32 22zM83 22q0 20 32 20h122v527h-122q-32 0 -32 21t32 21h295q32 0 32 -22q0 -20 -32 -20h-122v-527h122q32 0 32 -21t-32 -21h-295q-32 0 -32 22z" />
<glyph unicode="&#x12b;" d="M78 564q0 22 31 22h308q31 0 31 -23q0 -21 -31 -21h-307q-32 0 -32 22zM82 21q0 21 32 21h136v341h-128q-32 0 -32 21t32 21h147q19 0 25 -6.5t6 -25.5v-351h119q32 0 32 -21t-32 -21h-305q-32 0 -32 21z" />
<glyph unicode="&#x12c;" d="M83 22q0 20 32 20h122v527h-122q-32 0 -32 21t32 21h295q32 0 32 -22q0 -20 -32 -20h-122v-527h122q32 0 32 -21t-32 -21h-295q-32 0 -32 22zM91 747q0 22 22 22q14 0 18 -11q11 -40 132 -40t132 40q4 11 18 11q22 0 22 -22q0 -21 -12.5 -36t-28.5 -22t-44 -11t-44 -4.5 t-43 -0.5t-43 0.5t-44 4.5t-44 11t-28.5 22t-12.5 36z" />
<glyph unicode="&#x12d;" d="M82 21q0 21 32 21h136v341h-128q-32 0 -32 21t32 21h147q19 0 25 -6.5t6 -25.5v-351h119q32 0 32 -21t-32 -21h-305q-32 0 -32 21zM91 590q0 22 22 22q14 0 18 -11q11 -40 132 -40t132 40q4 11 18 11q22 0 22 -22q0 -21 -12.5 -36t-28.5 -22t-44 -11t-44 -4.5t-43 -0.5 t-43 0.5t-44 4.5t-44 11t-28.5 22t-12.5 36z" />
<glyph unicode="&#x12e;" d="M83 22q0 20 32 20h122v527h-122q-32 0 -32 21t32 21h295q32 0 32 -22q0 -20 -32 -20h-122v-527h122q32 0 32 -21t-32 -21h-104q-36 -21 -60.5 -54t-24.5 -70q0 -22 18 -36.5t37 -14.5q17 0 35 13t29 29q15 12 25 3q12 -11 2 -23q-41 -57 -95 -57q-41 0 -66.5 27.5 t-25.5 60.5q0 66 72 122h-137q-32 0 -32 22z" />
<glyph unicode="&#x12f;" d="M82 21q0 21 32 21h136v341h-128q-32 0 -32 21t32 21h147q19 0 25 -6.5t6 -25.5v-351h119q32 0 32 -21t-32 -21h-126q-37 -21 -61 -54t-24 -70q0 -22 18.5 -36.5t37.5 -14.5q33 0 64 42q3 3 10.5 4.5t13.5 -1.5q12 -9 3 -23q-41 -57 -95 -57q-41 0 -66.5 27.5t-25.5 60.5 q0 64 75 122h-129q-32 0 -32 21zM218 571q0 17 12 29t29 12t29 -12t12 -29t-12 -29.5t-29 -12.5t-29 12.5t-12 29.5z" />
<glyph unicode="&#x130;" d="M83 22q0 20 32 20h122v527h-122q-32 0 -32 21t32 21h295q32 0 32 -22q0 -20 -32 -20h-122v-527h122q32 0 32 -21t-32 -21h-295q-32 0 -32 22zM222 715q0 17 12 29.5t29 12.5t29 -12.5t12 -29.5t-12 -29t-29 -12t-29 12t-12 29z" />
<glyph unicode="&#x131;" d="M82 21q0 21 32 21h136v341h-128q-32 0 -32 21t32 21h147q19 0 25 -6.5t6 -25.5v-351h119q32 0 32 -21t-32 -21h-305q-32 0 -32 21z" />
<glyph unicode="&#x134;" d="M75 92q0 18 10.5 28t25.5 10t25 -10.5t10 -24.5q0 -12 -12 -28q40 -36 102 -36q13 0 28 3t37 12t36 31.5t14 56.5v435h-95q-32 0 -32 21t32 21h187q32 0 32 -21t-32 -21h-41v-441q0 -63 -49 -101t-117 -38q-72 0 -116.5 28.5t-44.5 74.5zM204 685q0 14 22 22l109 40 q13 4 26 0l107 -40q22 -8 22 -22q0 -22 -24 -22q-7 0 -30 7l-89 30l-89 -30q-23 -7 -30 -7q-24 0 -24 22z" />
<glyph unicode="&#x135;" d="M51 -167q0 17 11 27t25 10t24.5 -10t10.5 -26l-5 -17q24 -10 73 -10q18 0 29.5 1.5t30 11.5t32.5 30q29 40 29 99v434h-145q-31 0 -31 20q0 22 32 22h163q20 0 25.5 -6.5t5.5 -25.5v-449q0 -27 -8 -55t-26.5 -57.5t-55.5 -48.5t-87 -19q-133 0 -133 69zM176 528 q0 8 22 22l103 66q17 11 34 0l105 -66q22 -14 22 -22q0 -22 -24 -22q-5 0 -30 15l-89 54l-89 -54q-25 -15 -30 -15q-24 0 -24 22z" />
<glyph unicode="&#x136;" d="M28 22q0 20 32 20h31v527h-31q-32 0 -32 21t32 21h104q32 0 32 -22q0 -20 -32 -20h-33v-315l250 315q-15 0 -22.5 0.5t-16 2t-12 6t-3.5 11.5q0 22 32 22h91q32 0 32 -21q0 -10 -7 -14.5t-16 -5.5t-30 -1l-165 -208l179 -319q18 0 26.5 -0.5t16 -5.5t7.5 -15 q0 -21 -33 -21h-77q-32 0 -32 22q0 14 11 17t38 3l-161 288l-108 -136v-152h33q32 0 32 -21t-32 -21h-104q-32 0 -32 22zM208 -224q0 8 9 10q72 24 72 89q-12 -6 -27 -6q-16 0 -27 11t-11 28q0 16 11 26.5t28 10.5q22 0 38 -18.5t16 -48.5q0 -51 -35 -84t-59 -33 q-6 0 -10.5 5t-4.5 10z" />
<glyph unicode="&#x137;" d="M23 22q0 20 31 20h54v527h-54q-31 0 -31 21t31 21h67q19 0 25 -6.5t6 -25.5v-388l204 192h-64q-31 0 -31 20q0 22 31 22h159q32 0 32 -22q0 -20 -32 -20h-37l-137 -130l162 -211h35q32 0 32 -21t-32 -21h-122q-31 0 -31 21q0 13 10 16t44 3h12l-140 183l-95 -85v-96h61 q31 0 31 -21t-31 -21h-159q-31 0 -31 22zM208 -224q0 8 9 10q72 24 72 89q-12 -6 -27 -6q-16 0 -27 11t-11 28q0 16 11 26.5t28 10.5q22 0 38 -18.5t16 -48.5q0 -51 -35 -84t-59 -33q-6 0 -10.5 5t-4.5 10z" />
<glyph unicode="&#x139;" d="M35 21q0 21 31 21h48v527h-48q-31 0 -31 20q0 22 31 22h167q32 0 32 -22q0 -20 -32 -20h-68v-527h270v82q0 11 1 16t6.5 10.5t17.5 5.5q17 0 21 -8t4 -24v-92q0 -19 -6 -25.5t-25 -6.5h-388q-31 0 -31 21zM45 704q0 12 19 21l138 62l15 4q11 0 18.5 -7.5t7.5 -18.5 q0 -16 -23 -26l-144 -64l-7 -2q-13 0 -18.5 11t-5.5 20z" />
<glyph unicode="&#x13a;" d="M61 21q0 21 32 21h144v527h-145q-31 0 -31 20q0 22 32 22h164q19 0 25 -6.5t6 -25.5v-537h145q31 0 31 -21t-31 -21h-341q-31 0 -31 21zM164 704q0 12 19 21l138 62l15 4q11 0 18.5 -7.5t7.5 -18.5q0 -16 -23 -26l-144 -64l-7 -2q-13 0 -18.5 11t-5.5 20z" />
<glyph unicode="&#x13b;" d="M35 21q0 21 31 21h48v527h-48q-31 0 -31 20q0 22 31 22h167q32 0 32 -22q0 -20 -32 -20h-68v-527h270v82q0 11 1 16t6.5 10.5t17.5 5.5q17 0 21 -8t4 -24v-92q0 -19 -6 -25.5t-25 -6.5h-388q-31 0 -31 21zM208 -224q0 8 9 10q72 24 72 89q-12 -6 -27 -6q-16 0 -27 11 t-11 28q0 16 11 26.5t28 10.5q22 0 38 -18.5t16 -48.5q0 -51 -35 -84t-59 -33q-6 0 -10.5 5t-4.5 10z" />
<glyph unicode="&#x13c;" d="M61 21q0 21 32 21h144v527h-145q-31 0 -31 20q0 22 32 22h164q19 0 25 -6.5t6 -25.5v-537h145q31 0 31 -21t-31 -21h-341q-31 0 -31 21zM208 -224q0 8 9 10q72 24 72 89q-12 -6 -27 -6q-16 0 -27 11t-11 28q0 16 11 26.5t28 10.5q22 0 38 -18.5t16 -48.5q0 -51 -35 -84 t-59 -33q-6 0 -10.5 5t-4.5 10z" />
<glyph unicode="&#x13d;" d="M35 21q0 21 31 21h48v527h-48q-31 0 -31 20q0 22 31 22h167q32 0 32 -22q0 -20 -32 -20h-68v-527h270v82q0 11 1 16t6.5 10.5t17.5 5.5q17 0 21 -8t4 -24v-92q0 -19 -6 -25.5t-25 -6.5h-388q-31 0 -31 21zM323 442q0 8 9 10q72 24 72 89q-12 -6 -27 -6q-16 0 -27 11 t-11 28q0 16 10.5 26.5t28.5 10.5q22 0 38 -18.5t16 -48.5q0 -51 -35 -84t-59 -33q-6 0 -10.5 5t-4.5 10z" />
<glyph unicode="&#x13e;" d="M61 21q0 21 32 21h144v527h-145q-31 0 -31 20q0 22 32 22h164q19 0 25 -6.5t6 -25.5v-537h145q31 0 31 -21t-31 -21h-341q-31 0 -31 21zM327 442q0 8 9 10q72 24 72 89q-12 -6 -27 -6q-16 0 -27 11t-11 28q0 16 10.5 26.5t28.5 10.5q22 0 38 -18.5t16 -48.5 q0 -51 -35 -84t-59 -33q-6 0 -10.5 5t-4.5 10z" />
<glyph unicode="&#x13f;" d="M35 21q0 21 31 21h48v527h-48q-31 0 -31 20q0 22 31 22h167q32 0 32 -22q0 -20 -32 -20h-68v-527h270v82q0 11 1 16t6.5 10.5t17.5 5.5q17 0 21 -8t4 -24v-92q0 -19 -6 -25.5t-25 -6.5h-388q-31 0 -31 21zM361 316q0 18 12 30t29 12t29 -12t12 -30q0 -17 -12 -29t-29 -12 t-29 12t-12 29z" />
<glyph unicode="&#x140;" d="M61 21q0 21 32 21h144v527h-145q-31 0 -31 20q0 22 32 22h164q19 0 25 -6.5t6 -25.5v-537h145q31 0 31 -21t-31 -21h-341q-31 0 -31 21zM484 316q0 18 12 30t29 12t29 -12t12 -30q0 -17 -12 -29t-29 -12t-29 12t-12 29z" />
<glyph unicode="&#x141;" d="M35 21q0 21 31 21h48v238l-52 -36q-10 -7 -20 -1.5t-10.5 16t7.5 18.5l75 52v240h-48q-31 0 -31 20q0 22 31 22h167q32 0 32 -22q0 -20 -32 -20h-68v-206l191 130q9 6 19 0t11 -16.5t-8 -18.5l-213 -143v-273h270v82q0 11 1 16t6.5 10.5t17.5 5.5q17 0 21 -8t4 -24v-92 q0 -19 -6 -25.5t-25 -6.5h-388q-31 0 -31 21z" />
<glyph unicode="&#x142;" d="M61 21q0 21 32 21h144v285l-121 -83q-6 -4 -12.5 -4t-11 4.5t-7 10t-0.5 12t8 10.5l144 98v194h-145q-31 0 -31 20q0 22 32 22h164q19 0 25 -6.5t6 -25.5v-168l121 82q6 4 12 3t10.5 -5.5t7 -10t1 -12t-7.5 -10.5l-144 -97v-319h145q31 0 31 -21t-31 -21h-341 q-31 0 -31 21z" />
<glyph unicode="&#x143;" d="M30 22q0 20 31 20h37v527h-37q-31 0 -31 21t31 21h71q13 0 20.5 -1.5t15 -8.5t12.5 -20l200 -539h9v527h-36q-31 0 -31 20q0 22 31 22h110q31 0 31 -22q0 -20 -31 -20h-37v-537q0 -21 -6.5 -26.5t-26.5 -5.5q-13 0 -20.5 1.5t-15.5 8t-13 20.5l-200 539h-9v-527h36 q31 0 31 -21t-31 -21h-110q-31 0 -31 22zM164 704q0 12 19 21l138 62l15 4q11 0 18.5 -7.5t7.5 -18.5q0 -16 -23 -26l-144 -64l-7 -2q-13 0 -18.5 11t-5.5 20z" />
<glyph unicode="&#x144;" d="M14 21q0 21 32 21h56v341h-57q-31 0 -31 20q0 22 32 22h75q22 0 26.5 -11t4.5 -52q71 69 146 69q124 0 124 -138v-251h56q32 0 32 -21t-31 -21h-158q-32 0 -32 21t32 21h51v245q0 54 -17.5 78t-62.5 24q-51 0 -95.5 -38.5t-44.5 -114.5v-194h56q32 0 32 -21t-31 -21h-164 q-31 0 -31 21zM164 536q0 12 19 20l138 62l15 4q11 0 18.5 -7t7.5 -18q0 -17 -23 -27l-144 -64l-7 -1q-13 0 -18.5 11t-5.5 20z" />
<glyph unicode="&#x145;" d="M30 22q0 20 31 20h37v527h-37q-31 0 -31 21t31 21h71q13 0 20.5 -1.5t15 -8.5t12.5 -20l200 -539h9v527h-36q-31 0 -31 20q0 22 31 22h110q31 0 31 -22q0 -20 -31 -20h-37v-537q0 -21 -6.5 -26.5t-26.5 -5.5q-13 0 -20.5 1.5t-15.5 8t-13 20.5l-200 539h-9v-527h36 q31 0 31 -21t-31 -21h-110q-31 0 -31 22zM208 -224q0 8 9 10q72 24 72 89q-12 -6 -27 -6q-16 0 -27 11t-11 28q0 16 11 26.5t28 10.5q22 0 38 -18.5t16 -48.5q0 -51 -35 -84t-59 -33q-6 0 -10.5 5t-4.5 10z" />
<glyph unicode="&#x146;" d="M14 21q0 21 32 21h56v341h-57q-31 0 -31 20q0 22 32 22h75q22 0 26.5 -11t4.5 -52q71 69 146 69q124 0 124 -138v-251h56q32 0 32 -21t-31 -21h-158q-32 0 -32 21t32 21h51v245q0 54 -17.5 78t-62.5 24q-51 0 -95.5 -38.5t-44.5 -114.5v-194h56q32 0 32 -21t-31 -21h-164 q-31 0 -31 21zM208 -224q0 8 9 10q72 24 72 89q-12 -6 -27 -6q-16 0 -27 11t-11 28q0 16 11 26.5t28 10.5q22 0 38 -18.5t16 -48.5q0 -51 -35 -84t-59 -33q-6 0 -10.5 5t-4.5 10z" />
<glyph unicode="&#x147;" d="M30 22q0 20 31 20h37v527h-37q-31 0 -31 21t31 21h71q13 0 20.5 -1.5t15 -8.5t12.5 -20l200 -539h9v527h-36q-31 0 -31 20q0 22 31 22h110q31 0 31 -22q0 -20 -31 -20h-37v-537q0 -21 -6.5 -26.5t-26.5 -5.5q-13 0 -20.5 1.5t-15.5 8t-13 20.5l-200 539h-9v-527h36 q31 0 31 -21t-31 -21h-110q-31 0 -31 22zM119 728q0 22 24 22q7 0 30 -7l89 -30l89 30q23 7 30 7q24 0 24 -22q0 -14 -22 -22l-109 -40q-13 -4 -26 0l-107 40q-22 8 -22 22z" />
<glyph unicode="&#x148;" d="M14 21q0 21 32 21h56v341h-57q-31 0 -31 20q0 22 32 22h75q22 0 26.5 -11t4.5 -52q71 69 146 69q124 0 124 -138v-251h56q32 0 32 -21t-31 -21h-158q-32 0 -32 21t32 21h51v245q0 54 -17.5 78t-62.5 24q-51 0 -95.5 -38.5t-44.5 -114.5v-194h56q32 0 32 -21t-31 -21h-164 q-31 0 -31 21zM120 599q0 22 24 22q5 0 30 -15l89 -54l89 54q25 15 30 15q24 0 24 -22q0 -8 -22 -22l-103 -66q-17 -11 -34 0l-105 66q-22 14 -22 22z" />
<glyph unicode="&#x14a;" d="M14 21q0 21 32 21h56v527h-57q-31 0 -31 20q0 22 32 22h75q20 0 25.5 -10t5.5 -44q69 65 138 65q65 0 111 -47.5t66 -117t20 -151.5q0 -45 -1 -76t-5 -71.5t-13.5 -67.5t-23.5 -52t-37 -37.5t-54 -12.5q-14 0 -24.5 10.5t-10.5 24.5t10.5 24.5t24.5 10.5t27 -12 q35 25 45.5 91.5t10.5 167.5q0 51 -7.5 96t-24 84t-45.5 62t-69 23q-54 0 -92.5 -40t-45.5 -98v-391h56q32 0 32 -21t-31 -21h-164q-31 0 -31 21z" />
<glyph unicode="&#x14b;" d="M50 21q0 21 32 21h56v341h-57q-31 0 -31 20q0 22 32 22h76q22 0 26.5 -11t4.5 -52q69 69 145 69q124 0 124 -138v-240q0 -37 -1.5 -66t-6 -65.5t-13.5 -63t-23 -50.5t-36.5 -36.5t-51.5 -12.5q-11 0 -18.5 7.5t-7.5 18.5t7.5 18.5t18.5 7.5q27 0 44.5 21t25 60t10 75 t2.5 86v234q0 54 -17.5 78t-62.5 24q-51 0 -95 -38.5t-44 -114.5v-194h55q32 0 32 -21t-31 -21h-164q-31 0 -31 21z" />
<glyph unicode="&#x14c;" d="M59 305q0 59 1 97t5 74t9.5 56.5t17.5 39t25 27t36 14.5t47.5 7.5t61.5 1.5q50 0 79.5 -3t54.5 -16t36.5 -31t20 -57.5t10.5 -85.5t2 -124q0 -67 -2 -109t-6 -79.5t-14.5 -57.5t-23.5 -36t-37 -22t-50.5 -9t-69.5 -3q-37 0 -61.5 1.5t-47.5 7.5t-36 14.5t-25 27t-17.5 39 t-9.5 56t-5 74t-1 96.5zM78 705q0 22 31 22h308q31 0 31 -23q0 -21 -31 -21h-307q-32 0 -32 22zM110 314q0 -148 13 -202q10 -44 39 -62.5t100 -18.5q73 0 102 19.5t38 68.5q12 56 12 195q0 143 -13 192q-12 45 -42.5 59.5t-96.5 14.5q-71 0 -100.5 -16.5t-39.5 -64.5 q-12 -49 -12 -185z" />
<glyph unicode="&#x14d;" d="M60 213q0 92 59.5 156.5t142.5 64.5t142.5 -64.5t59.5 -156.5t-60 -155.5t-142 -63.5t-142 63.5t-60 155.5zM78 564q0 22 31 22h308q31 0 31 -23q0 -21 -31 -21h-307q-32 0 -32 22zM111 220q0 -76 44.5 -130t106.5 -54q61 0 106 54t45 130q0 74 -45 123t-106 49 q-60 0 -105.5 -49t-45.5 -123z" />
<glyph unicode="&#x14e;" d="M59 305q0 59 1 97t5 74t9.5 56.5t17.5 39t25 27t36 14.5t47.5 7.5t61.5 1.5q50 0 79.5 -3t54.5 -16t36.5 -31t20 -57.5t10.5 -85.5t2 -124q0 -67 -2 -109t-6 -79.5t-14.5 -57.5t-23.5 -36t-37 -22t-50.5 -9t-69.5 -3q-37 0 -61.5 1.5t-47.5 7.5t-36 14.5t-25 27t-17.5 39 t-9.5 56t-5 74t-1 96.5zM91 747q0 22 22 22q14 0 18 -11q11 -40 132 -40t132 40q4 11 18 11q22 0 22 -22q0 -21 -12.5 -36t-28.5 -22t-44 -11t-44 -4.5t-43 -0.5t-43 0.5t-44 4.5t-44 11t-28.5 22t-12.5 36zM110 314q0 -148 13 -202q10 -44 39 -62.5t100 -18.5 q73 0 102 19.5t38 68.5q12 56 12 195q0 143 -13 192q-12 45 -42.5 59.5t-96.5 14.5q-71 0 -100.5 -16.5t-39.5 -64.5q-12 -49 -12 -185z" />
<glyph unicode="&#x14f;" d="M60 213q0 92 59.5 156.5t142.5 64.5t142.5 -64.5t59.5 -156.5t-60 -155.5t-142 -63.5t-142 63.5t-60 155.5zM91 590q0 22 22 22q14 0 18 -11q11 -40 132 -40t132 40q4 11 18 11q22 0 22 -22q0 -21 -12.5 -36t-28.5 -22t-44 -11t-44 -4.5t-43 -0.5t-43 0.5t-44 4.5t-44 11 t-28.5 22t-12.5 36zM111 220q0 -76 44.5 -130t106.5 -54q61 0 106 54t45 130q0 74 -45 123t-106 49q-60 0 -105.5 -49t-45.5 -123z" />
<glyph unicode="&#x150;" d="M59 305q0 59 1 97t5 74t9.5 56.5t17.5 39t25 27t36 14.5t47.5 7.5t61.5 1.5q50 0 79.5 -3t54.5 -16t36.5 -31t20 -57.5t10.5 -85.5t2 -124q0 -67 -2 -109t-6 -79.5t-14.5 -57.5t-23.5 -36t-37 -22t-50.5 -9t-69.5 -3q-37 0 -61.5 1.5t-47.5 7.5t-36 14.5t-25 27t-17.5 39 t-9.5 56t-5 74t-1 96.5zM97 703q0 6 10 16l65 62q16 14 32 17q10 0 18 -8t8 -19q0 -8 -26 -32l-48 -45q-21 -21 -31 -21t-19 10t-9 20zM110 314q0 -148 13 -202q10 -44 39 -62.5t100 -18.5q73 0 102 19.5t38 68.5q12 56 12 195q0 143 -13 192q-12 45 -42.5 59.5t-96.5 14.5 q-71 0 -100.5 -16.5t-39.5 -64.5q-12 -49 -12 -185zM298 703q0 6 10 16l65 62q16 14 32 17q10 0 18 -8t8 -19q0 -8 -26 -32l-48 -45q-21 -21 -31 -21t-19 10t-9 20z" />
<glyph unicode="&#x151;" d="M60 213q0 92 59.5 156.5t142.5 64.5t142.5 -64.5t59.5 -156.5t-60 -155.5t-142 -63.5t-142 63.5t-60 155.5zM97 531q0 6 10 16l65 62q16 14 32 17q10 0 18 -8t8 -19q0 -8 -26 -32l-48 -45q-21 -21 -31 -21t-19 10t-9 20zM111 220q0 -76 44.5 -130t106.5 -54q61 0 106 54 t45 130q0 74 -45 123t-106 49q-60 0 -105.5 -49t-45.5 -123zM298 531q0 6 10 16l65 62q16 14 32 17q10 0 18 -8t8 -19q0 -8 -26 -32l-48 -45q-21 -21 -31 -21t-19 10t-9 20z" />
<glyph unicode="&#x152;" d="M31 306q0 170 16 236q10 46 42.5 63t101.5 17q28 0 56 -6q26 -5 51 -5h164q19 0 25 -6.5t6 -25.5v-76q0 -32 -19 -32t-19 32v66h-145v-231h136q31 0 31 -22q0 -20 -31 -20h-136v-254h153v82q0 32 18 32q19 0 19 -32v-92q0 -19 -6 -25.5t-25 -6.5h-171q-25 0 -46 -4 q-34 -7 -61 -7q-76 0 -105.5 20t-39.5 67q-15 64 -15 230zM69 314q0 -55 0.5 -85.5t3 -65.5t8 -52.5t14.5 -36t23 -26t33 -12.5t46 -5q42 0 58.5 26t16.5 110v277q0 86 -16.5 111t-60.5 25q-23 0 -40.5 -2.5t-31 -10t-22 -15.5t-15 -26.5t-10 -34.5t-5 -47.5t-2 -57.5 t-0.5 -72z" />
<glyph unicode="&#x153;" d="M21 214q0 94 40.5 157t99.5 63q67 0 120 -102q50 102 111 102q51 0 81 -53.5t30 -149.5q0 -20 -6 -27t-25 -7h-172q7 -71 38.5 -116t68.5 -45q20 0 36 18t23 51q3 16 18 16q8 0 13.5 -5.5t5.5 -14.5q0 -13 -8 -35.5t-33 -47t-59 -24.5q-71 0 -121 105q-53 -105 -121 -105 q-59 0 -99.5 63t-40.5 157zM58 220q0 -76 32 -130t71 -54q38 0 70 54t32 130q0 75 -31.5 123.5t-70.5 48.5t-71 -48.5t-32 -123.5zM301 239h164q-3 58 -16 94.5t-27.5 47.5t-29.5 11q-30 0 -57 -43.5t-34 -109.5z" />
<glyph unicode="&#x154;" d="M24 21q0 21 31 21h36v527h-36q-31 0 -31 20q0 22 31 22h183q83 0 136.5 -48.5t53.5 -114.5q0 -89 -96 -143q46 -35 60 -68q9 -22 9 -93q0 -113 39 -113q14 0 22 21.5t8 35.5q1 21 25 21q25 0 25 -23q0 -33 -20 -65t-59 -32q-47 0 -71 38q-14 24 -17 49t-3 81 q0 40 -4.5 59.5t-21.5 36.5q-36 31 -91 31h-91v-242h36q31 0 31 -21t-31 -21h-123q-31 0 -31 21zM142 327h85q71 0 111 37.5t40 83.5q0 45 -40 83t-111 38h-85v-242zM164 704q0 12 19 21l138 62l15 4q11 0 18.5 -7.5t7.5 -18.5q0 -16 -23 -26l-144 -64l-7 -2q-13 0 -18.5 11 t-5.5 20z" />
<glyph unicode="&#x155;" d="M35 22q0 20 31 20h94v341h-94q-31 0 -31 21t31 21h113q19 0 25 -6.5t6 -25.5v-63q89 101 186 101q50 0 69 -17t19 -37q0 -15 -9.5 -24.5t-23.5 -9.5q-15 0 -24.5 12.5t-9.5 33.5q-100 0 -153.5 -61.5t-53.5 -145.5v-140h125q32 0 32 -21t-32 -21h-269q-31 0 -31 22z M164 536q0 12 19 20l138 62l15 4q11 0 18.5 -7t7.5 -18q0 -17 -23 -27l-144 -64l-7 -1q-13 0 -18.5 11t-5.5 20z" />
<glyph unicode="&#x156;" d="M24 21q0 21 31 21h36v527h-36q-31 0 -31 20q0 22 31 22h183q83 0 136.5 -48.5t53.5 -114.5q0 -89 -96 -143q46 -35 60 -68q9 -22 9 -93q0 -113 39 -113q14 0 22 21.5t8 35.5q1 21 25 21q25 0 25 -23q0 -33 -20 -65t-59 -32q-47 0 -71 38q-14 24 -17 49t-3 81 q0 40 -4.5 59.5t-21.5 36.5q-36 31 -91 31h-91v-242h36q31 0 31 -21t-31 -21h-123q-31 0 -31 21zM142 327h85q71 0 111 37.5t40 83.5q0 45 -40 83t-111 38h-85v-242zM208 -224q0 8 9 10q72 24 72 89q-12 -6 -27 -6q-16 0 -27 11t-11 28q0 16 11 26.5t28 10.5q22 0 38 -18.5 t16 -48.5q0 -51 -35 -84t-59 -33q-6 0 -10.5 5t-4.5 10z" />
<glyph unicode="&#x157;" d="M35 22q0 20 31 20h94v341h-94q-31 0 -31 21t31 21h113q19 0 25 -6.5t6 -25.5v-63q89 101 186 101q50 0 69 -17t19 -37q0 -15 -9.5 -24.5t-23.5 -9.5q-15 0 -24.5 12.5t-9.5 33.5q-100 0 -153.5 -61.5t-53.5 -145.5v-140h125q32 0 32 -21t-32 -21h-269q-31 0 -31 22z M133 -224q0 8 9 10q72 24 72 89q-12 -6 -27 -6q-16 0 -27 11t-11 28q0 16 10.5 26.5t28.5 10.5q22 0 38 -18.5t16 -48.5q0 -51 -35 -84t-59 -33q-6 0 -10.5 5t-4.5 10z" />
<glyph unicode="&#x158;" d="M24 21q0 21 31 21h36v527h-36q-31 0 -31 20q0 22 31 22h183q83 0 136.5 -48.5t53.5 -114.5q0 -89 -96 -143q46 -35 60 -68q9 -22 9 -93q0 -113 39 -113q14 0 22 21.5t8 35.5q1 21 25 21q25 0 25 -23q0 -33 -20 -65t-59 -32q-47 0 -71 38q-14 24 -17 49t-3 81 q0 40 -4.5 59.5t-21.5 36.5q-36 31 -91 31h-91v-242h36q31 0 31 -21t-31 -21h-123q-31 0 -31 21zM119 728q0 22 24 22q7 0 30 -7l89 -30l89 30q23 7 30 7q24 0 24 -22q0 -14 -22 -22l-109 -40q-13 -4 -26 0l-107 40q-22 8 -22 22zM142 327h85q71 0 111 37.5t40 83.5 q0 45 -40 83t-111 38h-85v-242z" />
<glyph unicode="&#x159;" d="M35 22q0 20 31 20h94v341h-94q-31 0 -31 21t31 21h113q19 0 25 -6.5t6 -25.5v-63q89 101 186 101q50 0 69 -17t19 -37q0 -15 -9.5 -24.5t-23.5 -9.5q-15 0 -24.5 12.5t-9.5 33.5q-100 0 -153.5 -61.5t-53.5 -145.5v-140h125q32 0 32 -21t-32 -21h-269q-31 0 -31 22z M120 599q0 22 24 22q5 0 30 -15l89 -54l89 54q25 15 30 15q24 0 24 -22q0 -8 -22 -22l-103 -66q-17 -11 -34 0l-105 66q-22 14 -22 22z" />
<glyph unicode="&#x15a;" d="M55 21v136q0 10 1 15.5t7 11t18 5.5q11 0 16.5 -4.5t6.5 -9t2 -12.5q3 -66 53 -98q50 -34 127 -34q62 0 99 38.5t37 86.5q0 100 -123 127l-118 28q-59 17 -92.5 59t-33.5 93q0 64 51.5 111.5t130.5 47.5q85 0 151 -56q9 34 14.5 45t17.5 11q21 0 21 -32v-136 q0 -10 -1 -15.5t-7 -11t-18 -5.5q-20 0 -24 15q-4 19 -7 31t-14.5 36t-26.5 38t-43 26t-64 12q-58 0 -96 -34t-38 -79q0 -38 26 -67t64 -40l84 -19q66 -15 91.5 -25.5t54.5 -38.5q47 -51 47 -116q0 -69 -51.5 -120.5t-132.5 -51.5q-105 0 -177 54q-9 -34 -14.5 -44 t-17.5 -10q-21 0 -21 32zM164 704q0 12 19 21l138 62l15 4q11 0 18.5 -7.5t7.5 -18.5q0 -16 -23 -26l-144 -64l-7 -2q-13 0 -18.5 11t-5.5 20z" />
<glyph unicode="&#x15b;" d="M76 26v100q0 10 1 15.5t7 11t18 5.5q16 0 23 -12q21 -65 58.5 -87.5t86.5 -22.5q72 0 107.5 24t35.5 59q0 64 -142 87q-30 4 -46.5 7t-43 9.5t-42 14.5t-32 19.5t-24 28.5t-7.5 38q0 16 7 32.5t24.5 35.5t57.5 31t97 12q63 0 117 -26q4 15 8.5 20.5t16.5 5.5q20 0 20 -32 v-71q0 -10 -1 -15.5t-7 -11t-18 -5.5q-20 0 -23 15q-5 37 -27.5 57.5t-87.5 20.5q-73 0 -107.5 -21.5t-34.5 -47.5q0 -29 35 -45.5t74 -22.5l71 -12q157 -25 157 -124q0 -20 -8 -39.5t-26.5 -40t-58 -33t-93.5 -12.5q-77 0 -140 46q-15 -46 -32 -46q-21 0 -21 32zM164 536 q0 12 19 20l138 62l15 4q11 0 18.5 -7t7.5 -18q0 -17 -23 -27l-144 -64l-7 -1q-13 0 -18.5 11t-5.5 20z" />
<glyph unicode="&#x15c;" d="M55 21v136q0 10 1 15.5t7 11t18 5.5q11 0 16.5 -4.5t6.5 -9t2 -12.5q3 -66 53 -98q50 -34 127 -34q62 0 99 38.5t37 86.5q0 100 -123 127l-118 28q-59 17 -92.5 59t-33.5 93q0 64 51.5 111.5t130.5 47.5q85 0 151 -56q9 34 14.5 45t17.5 11q21 0 21 -32v-136 q0 -10 -1 -15.5t-7 -11t-18 -5.5q-20 0 -24 15q-4 19 -7 31t-14.5 36t-26.5 38t-43 26t-64 12q-58 0 -96 -34t-38 -79q0 -38 26 -67t64 -40l84 -19q66 -15 91.5 -25.5t54.5 -38.5q47 -51 47 -116q0 -69 -51.5 -120.5t-132.5 -51.5q-105 0 -177 54q-9 -34 -14.5 -44 t-17.5 -10q-21 0 -21 32zM119 685q0 14 22 22l109 40q13 4 26 0l107 -40q22 -8 22 -22q0 -22 -24 -22q-7 0 -30 7l-89 30l-89 -30q-23 -7 -30 -7q-24 0 -24 22z" />
<glyph unicode="&#x15d;" d="M76 26v100q0 10 1 15.5t7 11t18 5.5q16 0 23 -12q21 -65 58.5 -87.5t86.5 -22.5q72 0 107.5 24t35.5 59q0 64 -142 87q-30 4 -46.5 7t-43 9.5t-42 14.5t-32 19.5t-24 28.5t-7.5 38q0 16 7 32.5t24.5 35.5t57.5 31t97 12q63 0 117 -26q4 15 8.5 20.5t16.5 5.5q20 0 20 -32 v-71q0 -10 -1 -15.5t-7 -11t-18 -5.5q-20 0 -23 15q-5 37 -27.5 57.5t-87.5 20.5q-73 0 -107.5 -21.5t-34.5 -47.5q0 -29 35 -45.5t74 -22.5l71 -12q157 -25 157 -124q0 -20 -8 -39.5t-26.5 -40t-58 -33t-93.5 -12.5q-77 0 -140 46q-15 -46 -32 -46q-21 0 -21 32zM120 528 q0 8 22 22l103 66q17 11 34 0l105 -66q22 -14 22 -22q0 -22 -24 -22q-5 0 -30 15l-89 54l-89 -54q-25 -15 -30 -15q-24 0 -24 22z" />
<glyph unicode="&#x15e;" d="M55 21v136q0 10 1 15.5t7 11t18 5.5q11 0 16.5 -4.5t6.5 -9t2 -12.5q3 -66 53 -98q50 -34 127 -34q62 0 99 38.5t37 86.5q0 100 -123 127l-118 28q-59 17 -92.5 59t-33.5 93q0 64 51.5 111.5t130.5 47.5q85 0 151 -56q9 34 14.5 45t17.5 11q21 0 21 -32v-136 q0 -10 -1 -15.5t-7 -11t-18 -5.5q-20 0 -24 15q-4 19 -7 31t-14.5 36t-26.5 38t-43 26t-64 12q-58 0 -96 -34t-38 -79q0 -38 26 -67t64 -40l84 -19q66 -15 91.5 -25.5t54.5 -38.5q47 -51 47 -116q0 -62 -43.5 -111t-118.5 -61v-29q53 -10 78 -35.5t25 -55.5q0 -23 -10 -40 t-31 -27t-40 -16t-51 -8.5t-50.5 -3t-50.5 -0.5q-22 0 -22 21q0 8 3 12.5t11.5 6.5t15.5 2.5t22 0.5q52 0 102 11.5t50 40.5q0 20 -21 35t-58 16q-11 1 -16 6.5t-6 11t-1 15.5v37q-91 9 -149 53q-9 -34 -14.5 -44t-17.5 -10q-21 0 -21 32z" />
<glyph unicode="&#x15f;" d="M76 26v100q0 10 1 15.5t7 11t18 5.5q16 0 23 -12q21 -65 58.5 -87.5t86.5 -22.5q72 0 107.5 24t35.5 59q0 64 -142 87q-30 4 -46.5 7t-43 9.5t-42 14.5t-32 19.5t-24 28.5t-7.5 38q0 16 7 32.5t24.5 35.5t57.5 31t97 12q63 0 117 -26q4 15 8.5 20.5t16.5 5.5q20 0 20 -32 v-71q0 -10 -1 -15.5t-7 -11t-18 -5.5q-20 0 -23 15q-5 37 -27.5 57.5t-87.5 20.5q-73 0 -107.5 -21.5t-34.5 -47.5q0 -29 35 -45.5t74 -22.5l71 -12q157 -25 157 -124q0 -54 -42 -86t-106 -37v-25q17 -1 38 -8.5t43 -29.5t22 -53q0 -23 -10 -40t-31 -27t-40 -16t-51 -8.5 t-50.5 -3t-50.5 -0.5q-22 0 -22 22q0 10 7.5 15t16 5.5t28.5 0.5q52 0 102 11.5t50 40.5q0 19 -20.5 34.5t-58.5 17.5q-11 0 -16 6t-6 11t-1 16v29q-73 6 -128 46q-15 -46 -32 -46q-21 0 -21 32z" />
<glyph unicode="&#x160;" d="M55 21v136q0 10 1 15.5t7 11t18 5.5q11 0 16.5 -4.5t6.5 -9t2 -12.5q3 -66 53 -98q50 -34 127 -34q62 0 99 38.5t37 86.5q0 100 -123 127l-118 28q-59 17 -92.5 59t-33.5 93q0 64 51.5 111.5t130.5 47.5q85 0 151 -56q9 34 14.5 45t17.5 11q21 0 21 -32v-136 q0 -10 -1 -15.5t-7 -11t-18 -5.5q-20 0 -24 15q-4 19 -7 31t-14.5 36t-26.5 38t-43 26t-64 12q-58 0 -96 -34t-38 -79q0 -38 26 -67t64 -40l84 -19q66 -15 91.5 -25.5t54.5 -38.5q47 -51 47 -116q0 -69 -51.5 -120.5t-132.5 -51.5q-105 0 -177 54q-9 -34 -14.5 -44 t-17.5 -10q-21 0 -21 32zM119 728q0 22 24 22q7 0 30 -7l89 -30l89 30q23 7 30 7q24 0 24 -22q0 -14 -22 -22l-109 -40q-13 -4 -26 0l-107 40q-22 8 -22 22z" />
<glyph unicode="&#x161;" d="M76 26v100q0 10 1 15.5t7 11t18 5.5q16 0 23 -12q21 -65 58.5 -87.5t86.5 -22.5q72 0 107.5 24t35.5 59q0 64 -142 87q-30 4 -46.5 7t-43 9.5t-42 14.5t-32 19.5t-24 28.5t-7.5 38q0 16 7 32.5t24.5 35.5t57.5 31t97 12q63 0 117 -26q4 15 8.5 20.5t16.5 5.5q20 0 20 -32 v-71q0 -10 -1 -15.5t-7 -11t-18 -5.5q-20 0 -23 15q-5 37 -27.5 57.5t-87.5 20.5q-73 0 -107.5 -21.5t-34.5 -47.5q0 -29 35 -45.5t74 -22.5l71 -12q157 -25 157 -124q0 -20 -8 -39.5t-26.5 -40t-58 -33t-93.5 -12.5q-77 0 -140 46q-15 -46 -32 -46q-21 0 -21 32zM120 599 q0 22 24 22q5 0 30 -15l89 -54l89 54q25 15 30 15q24 0 24 -22q0 -8 -22 -22l-103 -66q-17 -11 -34 0l-105 66q-22 14 -22 22z" />
<glyph unicode="&#x162;" d="M28 503v76q0 19 6.5 25.5t25.5 6.5h405q19 0 25 -6.5t6 -25.5v-76q0 -10 -1 -15.5t-7 -11t-18 -5.5t-17.5 6t-6.5 11t-1 15v66h-157v-527h64q31 0 31 -21t-31 -21h-65q1 -8 1 -31q52 -10 77 -35.5t25 -56.5q0 -23 -10 -40t-30.5 -27t-39.5 -16t-51.5 -8.5t-50.5 -3 t-50 -0.5q-22 0 -22 22q0 10 7.5 15t16 5.5t28.5 0.5q51 0 101.5 11.5t50.5 40.5q0 19 -20.5 34.5t-58.5 17.5q-16 1 -20 9t-4 24v38h-64q-31 0 -31 22q0 20 31 20h64v527h-158v-66q0 -10 -1 -15.5t-7 -11t-18 -5.5q-17 0 -21 8.5t-4 23.5z" />
<glyph unicode="&#x163;" d="M27 403q0 22 32 22h101v95q0 10 1 15.5t6.5 11t17.5 5.5q17 0 21 -8.5t4 -23.5v-95h180q31 0 31 -22q0 -20 -31 -20h-180v-257q0 -13 0.5 -21t5.5 -22.5t13.5 -23.5t26.5 -16t44 -7q18 0 36.5 5t38 26t19.5 54q0 9 1 14t6.5 10t17.5 5t18 -5t7 -10t1 -15q0 -53 -35.5 -85 t-87.5 -39q1 -7 1 -27q52 -10 77 -35.5t25 -56.5q0 -23 -10 -40t-30.5 -27t-39.5 -16t-51.5 -8.5t-50.5 -3t-50 -0.5q-22 0 -22 22q0 10 7.5 15t16 5.5t28.5 0.5q51 0 101.5 11.5t50.5 40.5q0 19 -20.5 34.5t-58.5 17.5q-16 1 -20 9t-4 24v33q-50 6 -81 36.5t-31 88.5v263 h-102q-31 0 -31 20z" />
<glyph unicode="&#x164;" d="M28 503v76q0 19 6.5 25.5t25.5 6.5h405q19 0 25 -6.5t6 -25.5v-76q0 -10 -1 -15.5t-7 -11t-18 -5.5t-17.5 6t-6.5 11t-1 15v66h-157v-527h64q31 0 31 -21t-31 -21h-179q-31 0 -31 22q0 20 31 20h64v527h-158v-66q0 -10 -1 -15.5t-7 -11t-18 -5.5q-17 0 -21 8.5t-4 23.5z M119 728q0 22 24 22q7 0 30 -7l89 -30l89 30q23 7 30 7q24 0 24 -22q0 -14 -22 -22l-109 -40q-13 -4 -26 0l-107 40q-22 8 -22 22z" />
<glyph unicode="&#x165;" d="M27 403q0 22 32 22h101v95q0 10 1 15.5t6.5 11t17.5 5.5q17 0 21 -8.5t4 -23.5v-95h180q31 0 31 -22q0 -20 -31 -20h-180v-257q0 -13 0.5 -21t5.5 -22.5t13.5 -23.5t26.5 -16t44 -7q18 0 36.5 5t38 26t19.5 54q0 9 1 14t6.5 10t17.5 5t18 -5t7 -10t1 -15q0 -60 -45.5 -93 t-104.5 -33q-58 0 -96.5 31t-38.5 95v263h-102q-31 0 -31 20zM249 484q0 8 9 10q72 24 72 89q-12 -6 -27 -6q-16 0 -27 11t-11 28q0 16 10.5 26.5t28.5 10.5q22 0 38 -18.5t16 -48.5q0 -51 -35 -84t-59 -33q-6 0 -10.5 5t-4.5 10z" />
<glyph unicode="&#x168;" d="M6 590q0 21 32 21h133q32 0 32 -21t-32 -21h-41v-363q0 -83 41 -129t91 -46t91 46t41 129v363h-41q-32 0 -32 21t32 21h133q32 0 32 -21t-32 -21h-41v-368q0 -89 -54 -150.5t-129 -61.5t-129 61.5t-54 150.5v368h-41q-32 0 -32 21zM92 685q0 12 47 49q44 32 74 32 q23 0 47 -18q2 -2 7 -6q37 -32 48 -33q26 0 79 48q9 9 18 9q8 0 15 -7t7 -16q0 -14 -47 -48q-41 -32 -74 -32q-25 0 -47 18q-26 24 -36 31t-19 7q-28 0 -79 -48q-10 -8 -18 -8t-15 7t-7 15z" />
<glyph unicode="&#x169;" d="M14 403q0 22 32 22h75q19 0 25 -6.5t6 -25.5v-279q0 -19 1.5 -29t9.5 -23.5t28 -19.5t53 -6q14 0 28 2t33 9.5t33 19.5t24 34t10 51v231h-57q-31 0 -31 20q0 22 32 22h75q19 0 25 -6.5t6 -25.5v-351h57q31 0 31 -20q0 -22 -32 -22h-75q-10 0 -15 1.5t-11 11.5t-6 30 q-65 -49 -133 -49q-136 0 -136 114v275h-57q-31 0 -31 20zM92 534q0 12 47 49q44 32 74 32q23 0 47 -18q2 -2 7 -6q37 -32 48 -33q26 0 79 48q9 9 18 9q8 0 15 -7t7 -16q0 -14 -47 -48q-44 -32 -74 -32q-25 0 -47 18q-2 2 -7 6q-37 32 -48 33q-27 0 -79 -49q-10 -8 -18 -8 t-15 7t-7 15z" />
<glyph unicode="&#x16a;" d="M6 590q0 21 32 21h133q32 0 32 -21t-32 -21h-41v-363q0 -83 41 -129t91 -46t91 46t41 129v363h-41q-32 0 -32 21t32 21h133q32 0 32 -21t-32 -21h-41v-368q0 -89 -54 -150.5t-129 -61.5t-129 61.5t-54 150.5v368h-41q-32 0 -32 21zM78 705q0 22 31 22h308q31 0 31 -23 q0 -21 -31 -21h-307q-32 0 -32 22z" />
<glyph unicode="&#x16b;" d="M14 403q0 22 32 22h75q19 0 25 -6.5t6 -25.5v-279q0 -19 1.5 -29t9.5 -23.5t28 -19.5t53 -6q14 0 28 2t33 9.5t33 19.5t24 34t10 51v231h-57q-31 0 -31 20q0 22 32 22h75q19 0 25 -6.5t6 -25.5v-351h57q31 0 31 -20q0 -22 -32 -22h-75q-10 0 -15 1.5t-11 11.5t-6 30 q-65 -49 -133 -49q-136 0 -136 114v275h-57q-31 0 -31 20zM78 564q0 22 31 22h308q31 0 31 -23q0 -21 -31 -21h-307q-32 0 -32 22z" />
<glyph unicode="&#x16c;" d="M6 590q0 21 32 21h133q32 0 32 -21t-32 -21h-41v-363q0 -83 41 -129t91 -46t91 46t41 129v363h-41q-32 0 -32 21t32 21h133q32 0 32 -21t-32 -21h-41v-368q0 -89 -54 -150.5t-129 -61.5t-129 61.5t-54 150.5v368h-41q-32 0 -32 21zM91 747q0 22 22 22q14 0 18 -11 q11 -40 132 -40t132 40q4 11 18 11q22 0 22 -22q0 -21 -12.5 -36t-28.5 -22t-44 -11t-44 -4.5t-43 -0.5t-43 0.5t-44 4.5t-44 11t-28.5 22t-12.5 36z" />
<glyph unicode="&#x16d;" d="M14 403q0 22 32 22h75q19 0 25 -6.5t6 -25.5v-279q0 -19 1.5 -29t9.5 -23.5t28 -19.5t53 -6q14 0 28 2t33 9.5t33 19.5t24 34t10 51v231h-57q-31 0 -31 20q0 22 32 22h75q19 0 25 -6.5t6 -25.5v-351h57q31 0 31 -20q0 -22 -32 -22h-75q-10 0 -15 1.5t-11 11.5t-6 30 q-65 -49 -133 -49q-136 0 -136 114v275h-57q-31 0 -31 20zM91 590q0 22 22 22q14 0 18 -11q11 -40 132 -40t132 40q4 11 18 11q22 0 22 -22q0 -21 -12.5 -36t-28.5 -22t-44 -11t-44 -4.5t-43 -0.5t-43 0.5t-44 4.5t-44 11t-28.5 22t-12.5 36z" />
<glyph unicode="&#x16e;" d="M6 590q0 21 32 21h133q32 0 32 -21t-32 -21h-41v-363q0 -83 41 -129t91 -46t91 46t41 129v363h-41q-32 0 -32 21t32 21h133q32 0 32 -21t-32 -21h-41v-368q0 -89 -54 -150.5t-129 -61.5t-129 61.5t-54 150.5v368h-41q-32 0 -32 21zM161 694q0 30 29.5 51.5t72.5 21.5 t72.5 -21.5t29.5 -51.5q0 -29 -29.5 -50t-72.5 -21t-72.5 21t-29.5 50zM211 694q0 -16 15.5 -25t36.5 -9t36.5 9t15.5 25q0 17 -15.5 26.5t-36.5 9.5t-36.5 -9.5t-15.5 -26.5z" />
<glyph unicode="&#x16f;" d="M14 403q0 22 32 22h75q19 0 25 -6.5t6 -25.5v-279q0 -19 1.5 -29t9.5 -23.5t28 -19.5t53 -6q14 0 28 2t33 9.5t33 19.5t24 34t10 51v231h-57q-31 0 -31 20q0 22 32 22h75q19 0 25 -6.5t6 -25.5v-351h57q31 0 31 -20q0 -22 -32 -22h-75q-10 0 -15 1.5t-11 11.5t-6 30 q-65 -49 -133 -49q-136 0 -136 114v275h-57q-31 0 -31 20zM161 563q0 30 29.5 51.5t72.5 21.5t72.5 -21.5t29.5 -51.5q0 -29 -29.5 -50t-72.5 -21t-72.5 21t-29.5 50zM211 563q0 -16 15.5 -25t36.5 -9t36.5 9t15.5 25q0 17 -15.5 26.5t-36.5 9.5t-36.5 -9.5t-15.5 -26.5z " />
<glyph unicode="&#x170;" d="M6 590q0 21 32 21h133q32 0 32 -21t-32 -21h-41v-363q0 -83 41 -129t91 -46t91 46t41 129v363h-41q-32 0 -32 21t32 21h133q32 0 32 -21t-32 -21h-41v-368q0 -89 -54 -150.5t-129 -61.5t-129 61.5t-54 150.5v368h-41q-32 0 -32 21zM97 703q0 6 10 16l65 62q16 14 32 17 q10 0 18 -8t8 -19q0 -8 -26 -32l-48 -45q-21 -21 -31 -21t-19 10t-9 20zM298 703q0 6 10 16l65 62q16 14 32 17q10 0 18 -8t8 -19q0 -8 -26 -32l-48 -45q-21 -21 -31 -21t-19 10t-9 20z" />
<glyph unicode="&#x171;" d="M14 403q0 22 32 22h75q19 0 25 -6.5t6 -25.5v-279q0 -19 1.5 -29t9.5 -23.5t28 -19.5t53 -6q14 0 28 2t33 9.5t33 19.5t24 34t10 51v231h-57q-31 0 -31 20q0 22 32 22h75q19 0 25 -6.5t6 -25.5v-351h57q31 0 31 -20q0 -22 -32 -22h-75q-10 0 -15 1.5t-11 11.5t-6 30 q-65 -49 -133 -49q-136 0 -136 114v275h-57q-31 0 -31 20zM97 531q0 6 10 16l65 62q16 14 32 17q10 0 18 -8t8 -19q0 -8 -26 -32l-48 -45q-21 -21 -31 -21t-19 10t-9 20zM298 531q0 6 10 16l65 62q16 14 32 17q10 0 18 -8t8 -19q0 -8 -26 -32l-48 -45q-21 -21 -31 -21 t-19 10t-9 20z" />
<glyph unicode="&#x172;" d="M6 590q0 21 32 21h133q32 0 32 -21t-32 -21h-41v-363q0 -83 41 -129t91 -46t91 46t41 129v363h-41q-32 0 -32 21t32 21h133q32 0 32 -21t-32 -21h-41v-368q0 -79 -39 -133t-104 -70q-30 -21 -49.5 -54.5t-19.5 -67.5q0 -22 18.5 -36.5t37.5 -14.5q33 0 64 42 q3 3 10.5 4.5t13.5 -1.5q12 -9 3 -23q-41 -57 -95 -57q-41 0 -66.5 27.5t-25.5 60.5q0 60 60 113q-81 13 -127.5 69.5t-46.5 140.5v368h-41q-32 0 -32 21z" />
<glyph unicode="&#x173;" d="M14 403q0 22 32 22h75q19 0 25 -6.5t6 -25.5v-279q0 -19 1.5 -29t9.5 -23.5t28 -19.5t53 -6q14 0 28 2t33 9.5t33 19.5t24 34t10 51v231h-57q-31 0 -31 20q0 22 32 22h75q19 0 25 -6.5t6 -25.5v-351h57q31 0 31 -20q0 -22 -32 -22h-10q-37 -21 -61.5 -54t-24.5 -70 q0 -22 18.5 -36.5t37.5 -14.5q16 0 34 13t29 29q15 12 25 3q12 -10 3 -23q-41 -57 -95 -57q-41 0 -66.5 27.5t-25.5 60.5q0 62 78 122q-33 0 -40.5 6.5t-8.5 36.5q-65 -49 -133 -49q-136 0 -136 114v275h-57q-31 0 -31 20z" />
<glyph unicode="&#x174;" d="M13 589q0 22 32 22h82q31 0 31 -22q0 -20 -31 -20h-34l67 -535h4l65 309q4 16 33 16q30 0 34 -17l63 -308h4l68 535h-34q-31 0 -31 20q0 22 31 22h82q32 0 32 -22q0 -20 -38 -20l-75 -550q-4 -27 -37 -27q-29 0 -33 18l-65 302l-68 -306q-8 -14 -32 -14q-33 0 -37 27 l-75 550h-10q-28 0 -28 20zM119 685q0 14 22 22l109 40q13 4 26 0l107 -40q22 -8 22 -22q0 -22 -24 -22q-7 0 -30 7l-89 30l-89 -30q-23 -7 -30 -7q-24 0 -24 22z" />
<glyph unicode="&#x175;" d="M18 404q0 21 33 21h119q33 0 33 -22q0 -20 -33 -20h-59l60 -345h6l55 192q5 17 32 17q30 0 35 -18l49 -191h6l59 345h-59q-33 0 -33 21t33 21h119q33 0 33 -21q0 -10 -6.5 -14.5t-14.5 -5.5t-28 -1l-64 -356q-2 -11 -4.5 -16.5t-10.5 -10t-22 -4.5q-27 0 -37 12l-51 197 h-6l-48 -181q-4 -17 -13.5 -22.5t-29.5 -5.5q-23 0 -30 7t-10 24l-64 356q-15 0 -22 0.5t-14.5 2t-10 6t-2.5 12.5zM120 528q0 8 22 22l103 66q17 11 34 0l105 -66q22 -14 22 -22q0 -22 -24 -22q-5 0 -30 15l-89 54l-89 -54q-25 -15 -30 -15q-24 0 -24 22z" />
<glyph unicode="&#x176;" d="M21 590q0 21 31 21h108q31 0 31 -21q0 -8 -3 -12.5t-11.5 -6t-15.5 -2t-24 -0.5l126 -280l123 280q-21 0 -30 1t-16 5.5t-7 14.5q0 21 31 21h108q31 0 31 -22q0 -20 -31 -20h-28l-156 -325v-202h36q31 0 31 -21t-31 -21h-123q-31 0 -31 22q0 20 31 20h36v202l-157 325 h-28q-31 0 -31 21zM119 685q0 14 22 22l109 40q13 4 26 0l107 -40q22 -8 22 -22q0 -22 -24 -22q-7 0 -30 7l-89 30l-89 -30q-23 -7 -30 -7q-24 0 -24 22z" />
<glyph unicode="&#x177;" d="M28 403q0 22 31 22h121q31 0 31 -22q0 -20 -31 -20h-41l132 -348l115 348h-40q-31 0 -31 21t31 21h121q31 0 31 -22q0 -20 -31 -20h-38l-162 -478q-3 -8 -8 -19t-18.5 -34.5t-29 -41.5t-40 -32t-50.5 -14q-32 0 -53.5 22.5t-21.5 52.5q0 15 9.5 25t25.5 10 q15 0 24.5 -9.5t9.5 -24.5l-6 -20q6 -13 12 -13q27 0 45.5 11.5t40.5 53.5q6 12 16.5 40.5t18.5 51.5l7 23l-155 396h-35q-31 0 -31 20zM120 528q0 8 22 22l103 66q17 11 34 0l105 -66q22 -14 22 -22q0 -22 -24 -22q-5 0 -30 15l-89 54l-89 -54q-25 -15 -30 -15 q-24 0 -24 22z" />
<glyph unicode="&#x178;" d="M21 590q0 21 31 21h108q31 0 31 -21q0 -8 -3 -12.5t-11.5 -6t-15.5 -2t-24 -0.5l126 -280l123 280q-21 0 -30 1t-16 5.5t-7 14.5q0 21 31 21h108q31 0 31 -22q0 -20 -31 -20h-28l-156 -325v-202h36q31 0 31 -21t-31 -21h-123q-31 0 -31 22q0 20 31 20h36v202l-157 325 h-28q-31 0 -31 21zM126 699q0 16 10.5 26t25.5 10t25.5 -10t10.5 -26q0 -15 -10.5 -25.5t-25.5 -10.5t-25.5 10.5t-10.5 25.5zM327 699q0 16 10.5 26t25.5 10t25.5 -10t10.5 -26q0 -15 -10.5 -25.5t-25.5 -10.5t-25.5 10.5t-10.5 25.5z" />
<glyph unicode="&#x179;" d="M51 25q0 13 9 26l351 518h-297v-66q0 -10 -1 -15.5t-7 -11t-18 -5.5t-17.5 6t-6.5 11t-1 15v76q0 19 6.5 25.5t26.5 6.5h345q10 0 15 -1t11 -6.5t6 -17.5q0 -13 -9 -26l-351 -518h314v85q0 10 1 15.5t7 11t18 5.5q17 0 21 -8.5t4 -23.5v-95q0 -19 -6 -25.5t-25 -6.5h-364 q-10 0 -15 1t-11 6.5t-6 17.5zM164 704q0 12 19 21l138 62l15 4q11 0 18.5 -7.5t7.5 -18.5q0 -16 -23 -26l-144 -64l-7 -2q-13 0 -18.5 11t-5.5 20z" />
<glyph unicode="&#x17a;" d="M36 25q0 11 3 16.5t16 17.5l341 324h-293v-38q0 -10 -1 -15.5t-7 -11t-18 -5.5q-17 0 -21 8.5t-4 23.5v48q0 19 6 25.5t26 6.5h352q10 0 15 -1t11 -6.5t6 -17.5q0 -10 -3 -15.5t-17 -18.5l-341 -324h314v50q0 10 1 15.5t7 11t18 5.5q17 0 21 -8.5t4 -23.5v-60 q0 -27 -14 -32h-390q-10 0 -15.5 1t-11 6.5t-5.5 17.5zM164 536q0 12 19 20l138 62l15 4q11 0 18.5 -7t7.5 -18q0 -17 -23 -27l-144 -64l-7 -1q-13 0 -18.5 11t-5.5 20z" />
<glyph unicode="&#x17b;" d="M51 25q0 13 9 26l351 518h-297v-66q0 -10 -1 -15.5t-7 -11t-18 -5.5t-17.5 6t-6.5 11t-1 15v76q0 19 6.5 25.5t26.5 6.5h345q10 0 15 -1t11 -6.5t6 -17.5q0 -13 -9 -26l-351 -518h314v85q0 10 1 15.5t7 11t18 5.5q17 0 21 -8.5t4 -23.5v-95q0 -19 -6 -25.5t-25 -6.5h-364 q-10 0 -15 1t-11 6.5t-6 17.5zM222 715q0 17 12 29.5t29 12.5t29 -12.5t12 -29.5t-12 -29t-29 -12t-29 12t-12 29z" />
<glyph unicode="&#x17c;" d="M36 25q0 11 3 16.5t16 17.5l341 324h-293v-38q0 -10 -1 -15.5t-7 -11t-18 -5.5q-17 0 -21 8.5t-4 23.5v48q0 19 6 25.5t26 6.5h352q10 0 15 -1t11 -6.5t6 -17.5q0 -10 -3 -15.5t-17 -18.5l-341 -324h314v50q0 10 1 15.5t7 11t18 5.5q17 0 21 -8.5t4 -23.5v-60 q0 -27 -14 -32h-390q-10 0 -15.5 1t-11 6.5t-5.5 17.5zM222 563q0 18 12 30t29 12t29 -12t12 -30q0 -17 -12 -29t-29 -12t-29 12t-12 29z" />
<glyph unicode="&#x17d;" d="M51 25q0 13 9 26l351 518h-297v-66q0 -10 -1 -15.5t-7 -11t-18 -5.5t-17.5 6t-6.5 11t-1 15v76q0 19 6.5 25.5t26.5 6.5h345q10 0 15 -1t11 -6.5t6 -17.5q0 -13 -9 -26l-351 -518h314v85q0 10 1 15.5t7 11t18 5.5q17 0 21 -8.5t4 -23.5v-95q0 -19 -6 -25.5t-25 -6.5h-364 q-10 0 -15 1t-11 6.5t-6 17.5zM119 728q0 22 24 22q7 0 30 -7l89 -30l89 30q23 7 30 7q24 0 24 -22q0 -14 -22 -22l-109 -40q-13 -4 -26 0l-107 40q-22 8 -22 22z" />
<glyph unicode="&#x17e;" d="M36 25q0 11 3 16.5t16 17.5l341 324h-293v-38q0 -10 -1 -15.5t-7 -11t-18 -5.5q-17 0 -21 8.5t-4 23.5v48q0 19 6 25.5t26 6.5h352q10 0 15 -1t11 -6.5t6 -17.5q0 -10 -3 -15.5t-17 -18.5l-341 -324h314v50q0 10 1 15.5t7 11t18 5.5q17 0 21 -8.5t4 -23.5v-60 q0 -27 -14 -32h-390q-10 0 -15.5 1t-11 6.5t-5.5 17.5zM120 599q0 22 24 22q5 0 30 -15l89 -54l89 54q25 15 30 15q24 0 24 -22q0 -8 -22 -22l-103 -66q-17 -11 -34 0l-105 66q-22 14 -22 22z" />
<glyph unicode="&#x17f;" d="M45 22q0 20 32 20h115v341h-115q-31 0 -31 20q0 22 32 22h114v65q0 60 45 93.5t107 33.5q89 0 89 -51q0 -16 -11 -26t-24 -10q-35 0 -35 45q-19 0 -30.5 -0.5t-31 -5.5t-30.5 -14t-20 -27t-9 -44v-442h115q32 0 32 -21t-32 -21h-280q-32 0 -32 22z" />
<glyph unicode="&#x18e;" d="M28 32v92q0 10 1 15.5t6.5 11t17.5 5.5t18 -5.5t7 -11t1 -15.5v-82h297v254h-157q0 -26 -1 -36t-6.5 -16.5t-17.5 -6.5q-17 0 -21 8.5t-4 23.5v96q0 10 1 15t6.5 11t17.5 6q17 0 21 -11t4 -48h157v231h-274v-66q0 -10 -1 -15t-6.5 -11t-17.5 -6t-18 5.5t-7 11t-1 15.5v76 q0 19 6 25.5t25 6.5h386q32 0 32 -21t-32 -21h-42v-527h42q32 0 32 -21t-32 -21h-409q-19 0 -25 6.5t-6 25.5z" />
<glyph unicode="&#x192;" d="M45 22q0 20 32 20h115v341h-115q-31 0 -31 20q0 22 32 22h114v65q0 60 45 93.5t107 33.5q89 0 89 -51q0 -16 -11 -26t-24 -10q-18 0 -26.5 15t-8.5 30q-19 0 -30.5 -0.5t-31 -5.5t-30.5 -14t-20 -27t-9 -44v-59h137q31 0 31 -22q0 -20 -31 -20h-137v-341h115q32 0 32 -21 t-32 -21h-280q-32 0 -32 22z" />
<glyph unicode="&#x1a0;" d="M59 305q0 220 33 270q14 22 45.5 33t55.5 12.5t68 1.5q108 0 148 -24q21 3 40 32q-39 13 -39 43q0 16 11.5 28t29.5 13q42 -1 42 -60q0 -63 -55 -93q26 -68 26 -256q0 -219 -33 -269q-14 -22 -45.5 -33t-56 -12.5t-68.5 -1.5t-68 1.5t-55.5 12.5t-45.5 33q-33 50 -33 269 zM110 318q0 -191 24 -237q25 -50 127 -50q103 0 128 50q23 46 23 237q0 174 -23 216q-16 29 -48 37.5t-80 8.5q-47 0 -79 -8.5t-48 -37.5q-24 -42 -24 -216z" />
<glyph unicode="&#x1a1;" d="M60 212q0 93 60 156q57 65 141 65q50 0 99 -29q21 2 32.5 8.5t15 12.5t6.5 19q-38 13 -38 42q0 16 11.5 28t29.5 13q41 0 41 -59q0 -65 -58 -96q63 -73 63 -160t-59 -152.5t-143 -65.5t-142.5 66t-58.5 152zM111 221q0 -71 43 -127.5t107 -56.5q65 0 108 56.5t43 127.5 q0 67 -43.5 118.5t-107.5 51.5q-63 0 -106.5 -51.5t-43.5 -118.5z" />
<glyph unicode="&#x1af;" d="M6 589q0 22 18 22h159q19 0 19 -22q-2 -20 -19 -20h-53v-368q0 -72 39 -122q40 -48 92 -48q58 0 95 52t37 118v368h-53q-17 0 -19 20q0 22 19 22h86q27 0 51 17q-36 19 -36 45q0 16 11.5 28t29.5 13q42 -1 42 -59q0 -32 -22 -56.5t-57 -29.5v-368q0 -86 -53 -150 q-55 -62 -131 -62t-131 62q-52 64 -52 150v368h-54q-16 0 -18 20z" />
<glyph unicode="&#x1b0;" d="M13 401q0 23 18 23h102q8 0 13 -5.5t5 -13.5v-302q0 -35 21 -49q22 -17 76 -17q51 0 87 30.5t36 73.5v240h-69q-16 0 -18 20q0 23 18 23h102q30 0 55 18q-35 12 -35 44q0 16 12 28.5t30 12.5q22 0 31.5 -17.5t9.5 -40.5q0 -34 -23.5 -58t-61.5 -30v-339h68q20 0 20 -22 q-2 -20 -20 -20h-100q-8 0 -13.5 5.5t-5.5 13.5v28q-17 -16 -56 -34.5t-73 -18.5q-70 0 -104 26q-37 27 -37 83v278h-70q-16 0 -18 20z" />
<glyph unicode="&#x1dd;" d="M58 203q0 13 5 19.5t10 7.5t16 1h320q-14 76 -66.5 118.5t-117.5 42.5q-87 0 -120 -74q-4 -11 -22 -11q-25 0 -25 19q0 11 10 27.5t29 35.5t55 32t80 13q96 0 162 -64.5t66 -155.5t-62 -155.5t-150 -64.5q-92 0 -141 60t-49 149zM109 189q5 -59 28.5 -95t50.5 -47t60 -11 q58 0 102.5 42t57.5 111h-299z" />
<glyph unicode="&#x1e6;" d="M41 306q0 134 64.5 225t155.5 91q64 0 125 -53q15 34 21 43.5t17 9.5q21 0 21 -32v-143q0 -11 -1 -16t-7 -10.5t-18 -5.5q-21 0 -24 16q-7 44 -23 75.5t-35.5 46.5t-37 21t-34.5 6q-67 0 -120.5 -78.5t-53.5 -196.5q0 -116 52.5 -195t120.5 -79q48 0 83.5 45t45.5 140 h-55q-31 0 -31 22q0 20 31 20h124q32 0 32 -20q0 -10 -7 -15t-15.5 -6t-26.5 -1v-184q0 -10 -1 -15t-6.5 -11t-17.5 -6q-18 0 -22 11.5t-4 49.5q-62 -72 -133 -72q-91 0 -155.5 91t-64.5 226zM119 728q0 22 24 22q7 0 30 -7l89 -30l89 30q23 7 30 7q24 0 24 -22 q0 -14 -22 -22l-109 -40q-13 -4 -26 0l-107 40q-22 8 -22 22z" />
<glyph unicode="&#x1e7;" d="M31 -95q0 75 82 125q-29 38 -29 78q0 36 23 70q-35 46 -35 98q0 63 46.5 109t113.5 46q53 0 101 -33q51 38 109 38q32 0 48.5 -14t16.5 -31q0 -16 -9.5 -24t-21.5 -8q-9 0 -18.5 8t-13.5 28q-44 -4 -83 -25q31 -52 31 -94q0 -65 -46.5 -110.5t-113.5 -45.5q-50 0 -98 31 q-12 -31 -12 -45q2 -26 15 -43q11 -13 18.5 -16t22.5 -3q18 -2 31 -2h73q93 0 145 -28q33 -18 49.5 -48.5t16.5 -60.5q0 -62 -67.5 -102t-163.5 -40q-97 0 -164 40t-67 102zM71 -95q0 -38 55.5 -69t135.5 -31t135.5 31t55.5 69q0 33 -19 54.5t-55.5 30.5t-67.5 11.5t-77 2.5 q-60 0 -78 -2.5t-38 -15.5q-47 -29 -47 -81zM84 599q0 22 24 22q5 0 30 -15l89 -54l89 54q25 15 30 15q24 0 24 -22q0 -8 -22 -22l-103 -66q-17 -11 -34 0l-105 66q-22 14 -22 22zM122 275q0 -46 32 -80t78 -34q45 0 77.5 33.5t32.5 81.5q0 46 -32 80t-78 34 q-45 0 -77.5 -33.5t-32.5 -81.5z" />
<glyph unicode="&#x1ea;" d="M59 305q0 59 1 97t5 74t9.5 56.5t17.5 39t25 27t36 14.5t47.5 7.5t61.5 1.5q50 0 79.5 -3t54.5 -16t36.5 -31t20 -57.5t10.5 -85.5t2 -124q0 -88 -4 -139t-13 -89.5t-30.5 -55t-49.5 -24t-77 -8.5q-66 -53 -66 -113q0 -22 18.5 -36.5t37.5 -14.5q16 0 34 13t29 29 q11 9 25 3q10 -12 3 -23q-41 -57 -96 -57q-41 0 -66.5 27.5t-25.5 60.5q0 52 65 110q-35 1 -59.5 4t-45.5 11t-33.5 17t-23 28.5t-15.5 39t-8.5 55.5t-4 71t-0.5 91zM110 314q0 -148 13 -202q10 -44 39 -62.5t100 -18.5q73 0 102 19.5t38 68.5q12 56 12 195q0 143 -13 192 q-12 45 -42.5 59.5t-96.5 14.5q-71 0 -100.5 -16.5t-39.5 -64.5q-12 -49 -12 -185z" />
<glyph unicode="&#x1eb;" d="M60 213q0 92 59.5 156.5t142.5 64.5t142.5 -64.5t59.5 -156.5q0 -85 -51.5 -145.5t-116.5 -69.5q-33 -20 -54.5 -53.5t-21.5 -68.5q0 -22 18 -36.5t37 -14.5q17 0 35 13t29 29q13 11 24 3q5 -4 6 -11.5t-3 -11.5q-41 -57 -95 -57q-41 0 -66.5 27.5t-25.5 60.5 q0 60 70 117q-87 15 -138 74t-51 144zM111 220q0 -76 44.5 -130t106.5 -54q61 0 106 54t45 130q0 74 -45 123t-106 49q-60 0 -105.5 -49t-45.5 -123z" />
<glyph unicode="&#x1f4;" d="M41 306q0 134 64.5 225t155.5 91q64 0 125 -53q15 34 21 43.5t17 9.5q21 0 21 -32v-143q0 -11 -1 -16t-7 -10.5t-18 -5.5q-21 0 -24 16q-7 44 -23 75.5t-35.5 46.5t-37 21t-34.5 6q-67 0 -120.5 -78.5t-53.5 -196.5q0 -116 52.5 -195t120.5 -79q48 0 83.5 45t45.5 140 h-55q-31 0 -31 22q0 20 31 20h124q32 0 32 -20q0 -10 -7 -15t-15.5 -6t-26.5 -1v-184q0 -10 -1 -15t-6.5 -11t-17.5 -6q-18 0 -22 11.5t-4 49.5q-62 -72 -133 -72q-91 0 -155.5 91t-64.5 226zM164 704q0 12 19 21l138 62l15 4q11 0 18.5 -7.5t7.5 -18.5q0 -16 -23 -26 l-144 -64l-7 -2q-13 0 -18.5 11t-5.5 20z" />
<glyph unicode="&#x1f5;" d="M31 -95q0 75 82 125q-29 38 -29 78q0 36 23 70q-35 46 -35 98q0 63 46.5 109t113.5 46q53 0 101 -33q51 38 109 38q32 0 48.5 -14t16.5 -31q0 -16 -9.5 -24t-21.5 -8q-9 0 -18.5 8t-13.5 28q-44 -4 -83 -25q31 -52 31 -94q0 -65 -46.5 -110.5t-113.5 -45.5q-50 0 -98 31 q-12 -31 -12 -45q2 -26 15 -43q11 -13 18.5 -16t22.5 -3q18 -2 31 -2h73q93 0 145 -28q33 -18 49.5 -48.5t16.5 -60.5q0 -62 -67.5 -102t-163.5 -40q-97 0 -164 40t-67 102zM71 -95q0 -38 55.5 -69t135.5 -31t135.5 31t55.5 69q0 33 -19 54.5t-55.5 30.5t-67.5 11.5t-77 2.5 q-60 0 -78 -2.5t-38 -15.5q-47 -29 -47 -81zM122 275q0 -46 32 -80t78 -34q45 0 77.5 33.5t32.5 81.5q0 46 -32 80t-78 34q-45 0 -77.5 -33.5t-32.5 -81.5zM128 536q0 12 19 20l138 62l15 4q11 0 18.5 -7t7.5 -18q0 -17 -23 -27l-144 -64l-7 -1q-13 0 -18.5 11t-5.5 20z" />
<glyph unicode="&#x1fa;" d="M29 21q0 6 1 9.5t4.5 6t6.5 4t9.5 1.5h11h13h14.5l127 550q4 15 11 22t13.5 8t21.5 1q16 0 22.5 -1t13 -8.5t10.5 -22.5l127 -549h14.5h13.5h10.5t9.5 -1.5t6.5 -4t4.5 -6.5t1 -9q0 -21 -35 -21h-105q-33 0 -33 21q0 15 12 18t48 3l-28 129h-184l-28 -129q36 0 48 -3 t12 -18q0 -21 -33 -21h-106q-34 0 -34 21zM161 694q0 30 29.5 51.5t72.5 21.5t72.5 -21.5t29.5 -51.5q0 -29 -29.5 -50t-72.5 -21t-72.5 21t-29.5 50zM164 818q0 12 19 21l138 62l15 4q11 0 18.5 -7.5t7.5 -18.5q0 -16 -23 -26l-144 -64l-7 -2q-13 0 -18.5 11t-5.5 20z M181 213h162l-77 368h-7zM211 694q0 -16 15.5 -25t36.5 -9t36.5 9t15.5 25q0 17 -15.5 26.5t-36.5 9.5t-36.5 -9.5t-15.5 -26.5z" />
<glyph unicode="&#x1fb;" d="M58 122q0 69 83 105.5t227 38.5q0 126 -142 126q-69 0 -69 -23q-1 -20 -12.5 -28.5t-23.5 -8.5q-15 0 -25.5 10t-10.5 27q0 65 140 65q97 0 145.5 -45t48.5 -105v-230q32 -12 72 -12q32 0 32 -20q0 -10 -7 -15.5t-14 -6t-21 -0.5q-25 0 -40 1t-36 10t-33 26 q-66 -43 -153 -43q-72 0 -116.5 38t-44.5 90zM109 122q0 -35 32.5 -60.5t84.5 -25.5q57 0 96 19q22 10 32.5 23t12 22.5t1.5 27.5v98q-122 -4 -190.5 -33t-68.5 -71zM161 563q0 30 29.5 51.5t72.5 21.5t72.5 -21.5t29.5 -51.5q0 -29 -29.5 -50t-72.5 -21t-72.5 21t-29.5 50z M164 687q0 11 19 21l138 62l15 4q11 0 18.5 -7.5t7.5 -18.5q0 -16 -23 -26l-144 -64l-7 -2q-13 0 -18.5 11t-5.5 20zM211 563q0 -16 15.5 -25t36.5 -9t36.5 9t15.5 25q0 17 -15.5 26.5t-36.5 9.5t-36.5 -9.5t-15.5 -26.5z" />
<glyph unicode="&#x1fc;" d="M25 21q0 10 7 15t15 5.5t26 0.5l107 527q-16 0 -23.5 0.5t-14 5.5t-6.5 15q0 21 31 21h290q19 0 25 -6.5t6 -25.5v-76q0 -32 -18 -32q-19 0 -19 32v66h-139v-231h129q31 0 31 -22q0 -20 -31 -20h-129v-254h147v82q0 32 19 32t19 -32v-92q0 -19 -6 -25.5t-25 -6.5h-201 q-32 0 -32 22q0 9 7 14t14 5.5t20 0.5v147h-133l-30 -147q19 0 27.5 -0.5t15.5 -5.5t7 -15q0 -21 -31 -21h-74q-31 0 -31 21zM149 232h125v337h-57zM164 704q0 12 19 21l138 62l15 4q11 0 18.5 -7.5t7.5 -18.5q0 -16 -23 -26l-144 -64l-7 -2q-13 0 -18.5 11t-5.5 20z" />
<glyph unicode="&#x1fd;" d="M36 112q0 59 57 91t150 33v44q0 54 -25 83t-68 29q-13 0 -25 -5t-12 -10q0 -1 0.5 -4t0.5 -5q-1 -15 -9 -24t-14.5 -10.5t-11.5 -1.5q-15 0 -25.5 10t-10.5 27q0 27 26 46t84 19q71 0 119 -85q49 85 111 85q54 0 86.5 -54t32.5 -149q0 -20 -5.5 -27t-25.5 -7h-189 q7 -75 41.5 -118t74.5 -43q22 0 39.5 16.5t26.5 50.5q9 18 19 18q8 0 13.5 -5.5t5.5 -13.5q0 -26 -28.5 -67t-80.5 -41q-61 0 -117 80q-49 -80 -133 -80q-48 0 -77.5 36.5t-29.5 81.5zM73 113q0 -30 20.5 -53.5t55.5 -23.5q38 0 67 24q26 21 26 68q0 45 2 68 q-76 -3 -123.5 -25.5t-47.5 -57.5zM164 536q0 12 19 20l138 62l15 4q11 0 18.5 -7t7.5 -18q0 -17 -23 -27l-144 -64l-7 -1q-13 0 -18.5 11t-5.5 20zM282 239h182q-4 81 -27.5 117t-53.5 36q-36 0 -66 -45.5t-35 -107.5z" />
<glyph unicode="&#x1fe;" d="M59 305q0 59 1 97t5 74t9.5 56.5t17.5 39t25 27t36 14.5t47.5 7.5t61.5 1.5q45 0 80 -2l18 55q7 24 21 24q23 0 23 -21q-1 -8 -20 -67q52 -22 66.5 -82.5t14.5 -223.5q0 -67 -2 -109t-6 -79.5t-14.5 -57.5t-23.5 -36t-37 -22t-50.5 -9t-69.5 -3q-45 0 -80 2l-18 -55 q-7 -24 -21 -24q-23 0 -23 21q1 8 20 66q-40 18 -54.5 49.5t-21.5 94.5q-5 49 -5 162zM97 305q0 -101 9 -157t18.5 -70.5t31.5 -31.5l171 527q-20 6 -24 6q-11 1 -41 1q-72 0 -105.5 -15t-46.5 -62q-13 -50 -13 -198zM151 704q0 12 19 21l138 62l15 4q11 0 18.5 -7.5 t7.5 -18.5q0 -16 -23 -26l-144 -64l-7 -2q-13 0 -18.5 11t-5.5 20zM197 38q20 -6 24 -6q11 -1 41 -1q72 0 105.5 15t46.5 62q13 50 13 198q0 101 -9 157t-18.5 70.5t-31.5 31.5z" />
<glyph unicode="&#x1ff;" d="M46 -124q0 5 16 34l73 125q-87 75 -87 178q0 91 62.5 156t151.5 65q39 0 92 -21l82 142q9 15 19 15q8 0 15.5 -5.5t7.5 -15.5q0 -7 -6 -17l-81 -141q85 -79 85 -178q0 -91 -63 -155t-151 -64q-43 0 -90 20l-88 -151q-6 -8 -15 -8q-8 0 -15.5 5.5t-7.5 15.5zM85 213 q0 -78 70 -143l178 308q-40 14 -71 14q-73 0 -125 -52.5t-52 -126.5zM159 536q0 12 19 20l138 62l15 4q11 0 18.5 -7t7.5 -18q0 -17 -23 -27l-144 -64l-7 -1q-13 0 -18.5 11t-5.5 20zM193 49q39 -13 69 -13q73 0 125 51.5t52 125.5q0 80 -70 142z" />
<glyph unicode="&#x200;" d="M29 21q0 6 1 9.5t4.5 6t6.5 4t9.5 1.5h11h13h14.5l127 550q4 15 11 22t13.5 8t21.5 1q16 0 22.5 -1t13 -8.5t10.5 -22.5l127 -549h14.5h13.5h10.5t9.5 -1.5t6.5 -4t4.5 -6.5t1 -9q0 -21 -35 -21h-105q-33 0 -33 21q0 15 12 18t48 3l-28 129h-184l-28 -129q36 0 48 -3 t12 -18q0 -21 -33 -21h-106q-34 0 -34 21zM65 771q0 11 8 19t18 8q16 -3 32 -17l65 -62q10 -10 10 -16q0 -10 -9 -20t-19 -10t-31 21l-48 45q-26 24 -26 32zM181 213h162l-77 368h-7zM266 771q0 11 8 19t18 8q16 -3 32 -17l65 -62q10 -10 10 -16q0 -10 -9 -20t-19 -10 t-31 21l-48 45q-26 24 -26 32z" />
<glyph unicode="&#x201;" d="M58 122q0 69 83 105.5t227 38.5q0 126 -142 126q-69 0 -69 -23q-1 -20 -12.5 -28.5t-23.5 -8.5q-15 0 -25.5 10t-10.5 27q0 65 140 65q97 0 145.5 -45t48.5 -105v-230q32 -12 72 -12q32 0 32 -20q0 -10 -7 -15.5t-14 -6t-21 -0.5q-25 0 -40 1t-36 10t-33 26 q-66 -43 -153 -43q-72 0 -116.5 38t-44.5 90zM94 599q0 11 8 19t18 8q16 -3 32 -17l65 -62q10 -10 10 -16q0 -10 -9 -20t-19 -10t-31 21l-48 45q-26 24 -26 32zM109 122q0 -35 32.5 -60.5t84.5 -25.5q57 0 96 19q22 10 32.5 23t12 22.5t1.5 27.5v98q-122 -4 -190.5 -33 t-68.5 -71zM295 599q0 11 8 19t18 8q16 -3 32 -17l65 -62q10 -10 10 -16q0 -10 -9 -20t-19 -10t-31 21l-48 45q-26 24 -26 32z" />
<glyph unicode="&#x204;" d="M28 21q0 21 32 21h42v527h-42q-32 0 -32 21t32 21h386q19 0 25 -6.5t6 -25.5v-76q0 -10 -1 -15.5t-7 -11t-18 -5.5q-17 0 -21 8.5t-4 23.5v66h-274v-231h157q0 26 1 36t6.5 16.5t17.5 6.5t17.5 -6t6.5 -11t1 -15v-96q0 -10 -1 -15.5t-6.5 -11t-17.5 -5.5q-17 0 -21 11 t-4 48h-157v-254h297v82q0 10 1 15.5t7 11t18 5.5q17 0 21 -8t4 -24v-92q0 -19 -6 -25.5t-25 -6.5h-409q-32 0 -32 21zM94 771q0 11 8 19t18 8q16 -3 32 -17l65 -62q10 -10 10 -16q0 -10 -9 -20t-19 -10t-31 21l-48 45q-26 24 -26 32zM295 771q0 11 8 19t18 8q16 -3 32 -17 l65 -62q10 -10 10 -16q0 -10 -9 -20t-19 -10t-31 21l-48 45q-26 24 -26 32z" />
<glyph unicode="&#x205;" d="M58 214q0 91 62 155.5t150 64.5q92 0 141 -60t49 -149q0 -13 -5 -19.5t-10 -7.5t-16 -1h-320q14 -76 66.5 -118.5t117.5 -42.5q87 0 120 74q4 11 22 11q25 0 25 -19q0 -11 -10 -27.5t-29 -35.5t-55 -32t-80 -13q-96 0 -162 64.5t-66 155.5zM94 599q0 11 8 19t18 8 q16 -3 32 -17l65 -62q10 -10 10 -16q0 -10 -9 -20t-19 -10t-31 21l-48 45q-26 24 -26 32zM110 239h299q-5 59 -28.5 95t-50.5 47t-60 11q-58 0 -102.5 -42t-57.5 -111zM295 599q0 11 8 19t18 8q16 -3 32 -17l65 -62q10 -10 10 -16q0 -10 -9 -20t-19 -10t-31 21l-48 45 q-26 24 -26 32z" />
<glyph unicode="&#x208;" d="M83 22q0 20 32 20h122v527h-122q-32 0 -32 21t32 21h295q32 0 32 -22q0 -20 -32 -20h-122v-527h122q32 0 32 -21t-32 -21h-295q-32 0 -32 22zM94 771q0 11 8 19t18 8q16 -3 32 -17l65 -62q10 -10 10 -16q0 -10 -9 -20t-19 -10t-31 21l-48 45q-26 24 -26 32zM295 771 q0 11 8 19t18 8q16 -3 32 -17l65 -62q10 -10 10 -16q0 -10 -9 -20t-19 -10t-31 21l-48 45q-26 24 -26 32z" />
<glyph unicode="&#x209;" d="M82 21q0 21 32 21h136v341h-128q-32 0 -32 21t32 21h147q19 0 25 -6.5t6 -25.5v-351h119q32 0 32 -21t-32 -21h-305q-32 0 -32 21zM94 599q0 11 8 19t18 8q16 -3 32 -17l65 -62q10 -10 10 -16q0 -10 -9 -20t-19 -10t-31 21l-48 45q-26 24 -26 32zM295 599q0 11 8 19t18 8 q16 -3 32 -17l65 -62q10 -10 10 -16q0 -10 -9 -20t-19 -10t-31 21l-48 45q-26 24 -26 32z" />
<glyph unicode="&#x20c;" d="M59 305q0 59 1 97t5 74t9.5 56.5t17.5 39t25 27t36 14.5t47.5 7.5t61.5 1.5q50 0 79.5 -3t54.5 -16t36.5 -31t20 -57.5t10.5 -85.5t2 -124q0 -67 -2 -109t-6 -79.5t-14.5 -57.5t-23.5 -36t-37 -22t-50.5 -9t-69.5 -3q-37 0 -61.5 1.5t-47.5 7.5t-36 14.5t-25 27t-17.5 39 t-9.5 56t-5 74t-1 96.5zM94 771q0 11 8 19t18 8q16 -3 32 -17l65 -62q10 -10 10 -16q0 -10 -9 -20t-19 -10t-31 21l-48 45q-26 24 -26 32zM110 314q0 -148 13 -202q10 -44 39 -62.5t100 -18.5q73 0 102 19.5t38 68.5q12 56 12 195q0 143 -13 192q-12 45 -42.5 59.5 t-96.5 14.5q-71 0 -100.5 -16.5t-39.5 -64.5q-12 -49 -12 -185zM295 771q0 11 8 19t18 8q16 -3 32 -17l65 -62q10 -10 10 -16q0 -10 -9 -20t-19 -10t-31 21l-48 45q-26 24 -26 32z" />
<glyph unicode="&#x20d;" d="M60 213q0 92 59.5 156.5t142.5 64.5t142.5 -64.5t59.5 -156.5t-60 -155.5t-142 -63.5t-142 63.5t-60 155.5zM94 599q0 11 8 19t18 8q16 -3 32 -17l65 -62q10 -10 10 -16q0 -10 -9 -20t-19 -10t-31 21l-48 45q-26 24 -26 32zM111 220q0 -76 44.5 -130t106.5 -54 q61 0 106 54t45 130q0 74 -45 123t-106 49q-60 0 -105.5 -49t-45.5 -123zM295 599q0 11 8 19t18 8q16 -3 32 -17l65 -62q10 -10 10 -16q0 -10 -9 -20t-19 -10t-31 21l-48 45q-26 24 -26 32z" />
<glyph unicode="&#x210;" d="M24 21q0 21 31 21h36v527h-36q-31 0 -31 20q0 22 31 22h183q83 0 136.5 -48.5t53.5 -114.5q0 -89 -96 -143q46 -35 60 -68q9 -22 9 -93q0 -113 39 -113q14 0 22 21.5t8 35.5q1 21 25 21q25 0 25 -23q0 -33 -20 -65t-59 -32q-47 0 -71 38q-14 24 -17 49t-3 81 q0 40 -4.5 59.5t-21.5 36.5q-36 31 -91 31h-91v-242h36q31 0 31 -21t-31 -21h-123q-31 0 -31 21zM65 771q0 11 8 19t18 8q16 -3 32 -17l65 -62q10 -10 10 -16q0 -10 -9 -20t-19 -10t-31 21l-48 45q-26 24 -26 32zM142 327h85q71 0 111 37.5t40 83.5q0 45 -40 83t-111 38h-85 v-242zM266 771q0 11 8 19t18 8q16 -3 32 -17l65 -62q10 -10 10 -16q0 -10 -9 -20t-19 -10t-31 21l-48 45q-26 24 -26 32z" />
<glyph unicode="&#x211;" d="M35 22q0 20 31 20h94v341h-94q-31 0 -31 21t31 21h113q19 0 25 -6.5t6 -25.5v-63q89 101 186 101q50 0 69 -17t19 -37q0 -15 -9.5 -24.5t-23.5 -9.5q-15 0 -24.5 12.5t-9.5 33.5q-100 0 -153.5 -61.5t-53.5 -145.5v-140h125q32 0 32 -21t-32 -21h-269q-31 0 -31 22z M94 599q0 11 8 19t18 8q16 -3 32 -17l65 -62q10 -10 10 -16q0 -10 -9 -20t-19 -10t-31 21l-48 45q-26 24 -26 32zM295 599q0 11 8 19t18 8q16 -3 32 -17l65 -62q10 -10 10 -16q0 -10 -9 -20t-19 -10t-31 21l-48 45q-26 24 -26 32z" />
<glyph unicode="&#x214;" d="M6 590q0 21 32 21h133q32 0 32 -21t-32 -21h-41v-363q0 -83 41 -129t91 -46t91 46t41 129v363h-41q-32 0 -32 21t32 21h133q32 0 32 -21t-32 -21h-41v-368q0 -89 -54 -150.5t-129 -61.5t-129 61.5t-54 150.5v368h-41q-32 0 -32 21zM94 771q0 11 8 19t18 8q16 -3 32 -17 l65 -62q10 -10 10 -16q0 -10 -9 -20t-19 -10t-31 21l-48 45q-26 24 -26 32zM295 771q0 11 8 19t18 8q16 -3 32 -17l65 -62q10 -10 10 -16q0 -10 -9 -20t-19 -10t-31 21l-48 45q-26 24 -26 32z" />
<glyph unicode="&#x215;" d="M14 403q0 22 32 22h75q19 0 25 -6.5t6 -25.5v-279q0 -19 1.5 -29t9.5 -23.5t28 -19.5t53 -6q14 0 28 2t33 9.5t33 19.5t24 34t10 51v231h-57q-31 0 -31 20q0 22 32 22h75q19 0 25 -6.5t6 -25.5v-351h57q31 0 31 -20q0 -22 -32 -22h-75q-10 0 -15 1.5t-11 11.5t-6 30 q-65 -49 -133 -49q-136 0 -136 114v275h-57q-31 0 -31 20zM94 599q0 11 8 19t18 8q16 -3 32 -17l65 -62q10 -10 10 -16q0 -10 -9 -20t-19 -10t-31 21l-48 45q-26 24 -26 32zM295 599q0 11 8 19t18 8q16 -3 32 -17l65 -62q10 -10 10 -16q0 -10 -9 -20t-19 -10t-31 21l-48 45 q-26 24 -26 32z" />
<glyph unicode="&#x218;" d="M55 21v136q0 10 1 15.5t7 11t18 5.5q11 0 16.5 -4.5t6.5 -9t2 -12.5q3 -66 53 -98q50 -34 127 -34q62 0 99 38.5t37 86.5q0 100 -123 127l-118 28q-59 17 -92.5 59t-33.5 93q0 64 51.5 111.5t130.5 47.5q85 0 151 -56q9 34 14.5 45t17.5 11q21 0 21 -32v-136 q0 -10 -1 -15.5t-7 -11t-18 -5.5q-20 0 -24 15q-4 19 -7 31t-14.5 36t-26.5 38t-43 26t-64 12q-58 0 -96 -34t-38 -79q0 -38 26 -67t64 -40l84 -19q66 -15 91.5 -25.5t54.5 -38.5q47 -51 47 -116q0 -69 -51.5 -120.5t-132.5 -51.5q-105 0 -177 54q-9 -34 -14.5 -44 t-17.5 -10q-21 0 -21 32zM208 -224q0 8 9 10q72 24 72 89q-12 -6 -27 -6q-16 0 -27 11t-11 28q0 16 11 26.5t28 10.5q22 0 38 -18.5t16 -48.5q0 -51 -35 -84t-59 -33q-6 0 -10.5 5t-4.5 10z" />
<glyph unicode="&#x219;" d="M76 26v100q0 10 1 15.5t7 11t18 5.5q16 0 23 -12q21 -65 58.5 -87.5t86.5 -22.5q72 0 107.5 24t35.5 59q0 64 -142 87q-30 4 -46.5 7t-43 9.5t-42 14.5t-32 19.5t-24 28.5t-7.5 38q0 16 7 32.5t24.5 35.5t57.5 31t97 12q63 0 117 -26q4 15 8.5 20.5t16.5 5.5q20 0 20 -32 v-71q0 -10 -1 -15.5t-7 -11t-18 -5.5q-20 0 -23 15q-5 37 -27.5 57.5t-87.5 20.5q-73 0 -107.5 -21.5t-34.5 -47.5q0 -29 35 -45.5t74 -22.5l71 -12q157 -25 157 -124q0 -20 -8 -39.5t-26.5 -40t-58 -33t-93.5 -12.5q-77 0 -140 46q-15 -46 -32 -46q-21 0 -21 32zM208 -224 q0 8 9 10q72 24 72 89q-12 -6 -27 -6q-16 0 -27 11t-11 28q0 16 11 26.5t28 10.5q22 0 38 -18.5t16 -48.5q0 -51 -35 -84t-59 -33q-6 0 -10.5 5t-4.5 10z" />
<glyph unicode="&#x21a;" d="M28 503v76q0 19 6.5 25.5t25.5 6.5h405q19 0 25 -6.5t6 -25.5v-76q0 -10 -1 -15.5t-7 -11t-18 -5.5t-17.5 6t-6.5 11t-1 15v66h-157v-527h64q31 0 31 -21t-31 -21h-179q-31 0 -31 22q0 20 31 20h64v527h-158v-66q0 -10 -1 -15.5t-7 -11t-18 -5.5q-17 0 -21 8.5t-4 23.5z M208 -224q0 8 9 10q72 24 72 89q-12 -6 -27 -6q-16 0 -27 11t-11 28q0 16 11 26.5t28 10.5q22 0 38 -18.5t16 -48.5q0 -51 -35 -84t-59 -33q-6 0 -10.5 5t-4.5 10z" />
<glyph unicode="&#x21b;" d="M27 403q0 22 32 22h101v95q0 10 1 15.5t6.5 11t17.5 5.5q17 0 21 -8.5t4 -23.5v-95h180q31 0 31 -22q0 -20 -31 -20h-180v-257q0 -13 0.5 -21t5.5 -22.5t13.5 -23.5t26.5 -16t44 -7q18 0 36.5 5t38 26t19.5 54q0 9 1 14t6.5 10t17.5 5t18 -5t7 -10t1 -15q0 -60 -45.5 -93 t-104.5 -33q-58 0 -96.5 31t-38.5 95v263h-102q-31 0 -31 20zM208 -224q0 8 9 10q72 24 72 89q-12 -6 -27 -6q-16 0 -27 11t-11 28q0 16 11 26.5t28 10.5q22 0 38 -18.5t16 -48.5q0 -51 -35 -84t-59 -33q-6 0 -10.5 5t-4.5 10z" />
<glyph unicode="&#x258;" d="M58 102q0 19 25 19q18 0 22 -11q33 -74 120 -74q65 0 117.5 42.5t66.5 118.5h-320q-11 0 -16 1t-10 7.5t-5 19.5q0 89 49 149t141 60q88 0 150 -64.5t62 -155.5t-66 -155.5t-162 -64.5q-44 0 -80 13t-55 32t-29 35.5t-10 27.5zM109 239h299q-13 69 -57.5 111t-102.5 42 q-33 0 -60 -11t-50.5 -47t-28.5 -95z" />
<glyph unicode="&#x259;" d="M58 203q0 13 5 19.5t10 7.5t16 1h320q-14 76 -66.5 118.5t-117.5 42.5q-87 0 -120 -74q-4 -11 -22 -11q-25 0 -25 19q0 11 10 27.5t29 35.5t55 32t80 13q96 0 162 -64.5t66 -155.5t-62 -155.5t-150 -64.5q-92 0 -141 60t-49 149zM109 189q5 -59 28.5 -95t50.5 -47t60 -11 q58 0 102.5 42t57.5 111h-299z" />
<glyph unicode="&#x2be;" d="M118 491q0 7 6 19t19 27.5t40 26.5t62 11q69 0 115.5 -48t46.5 -115q0 -60 -42.5 -112.5t-127.5 -52.5q-22 0 -44 3t-44 16t-22 34q0 14 9.5 23t22.5 9q31 0 31 -35q0 -8 47 -8q35 0 61 13.5t38 34.5t17.5 39.5t5.5 35.5q0 51 -35 86t-83 35q-54 0 -78 -52q-6 -9 -21 -9 q-24 0 -24 19z" />
<glyph unicode="&#x2bf;" d="M118 410q0 60 42.5 112.5t127.5 52.5q22 0 44 -3t44 -16t22 -34q0 -14 -9.5 -23t-22.5 -9q-31 0 -31 35q0 8 -47 8q-35 0 -61 -13.5t-38 -34.5t-17.5 -39.5t-5.5 -35.5q0 -51 35 -86t83 -35q54 0 78 52q6 9 21 9q24 0 24 -19q0 -7 -6 -19t-19 -27.5t-40 -26.5t-62 -11 q-69 0 -115.5 48t-46.5 115z" />
<glyph unicode="&#x2c6;" d="M120 528q0 8 22 22l103 66q17 11 34 0l105 -66q22 -14 22 -22q0 -22 -24 -22q-5 0 -30 15l-89 54l-89 -54q-25 -15 -30 -15q-24 0 -24 22z" />
<glyph unicode="&#x2c7;" d="M120 599q0 22 24 22q5 0 30 -15l89 -54l89 54q25 15 30 15q24 0 24 -22q0 -8 -22 -22l-103 -66q-17 -11 -34 0l-105 66q-22 14 -22 22z" />
<glyph unicode="&#x2d8;" d="M91 590q0 22 22 22q14 0 18 -11q11 -40 132 -40t132 40q4 11 18 11q22 0 22 -22q0 -21 -12.5 -36t-28.5 -22t-44 -11t-44 -4.5t-43 -0.5t-43 0.5t-44 4.5t-44 11t-28.5 22t-12.5 36z" />
<glyph unicode="&#x2d9;" d="M222 563q0 18 12 30t29 12t29 -12t12 -30q0 -17 -12 -29t-29 -12t-29 12t-12 29z" />
<glyph unicode="&#x2da;" d="M161 563q0 30 29.5 51.5t72.5 21.5t72.5 -21.5t29.5 -51.5q0 -29 -29.5 -50t-72.5 -21t-72.5 21t-29.5 50zM211 563q0 -16 15.5 -25t36.5 -9t36.5 9t15.5 25q0 17 -15.5 26.5t-36.5 9.5t-36.5 -9.5t-15.5 -26.5z" />
<glyph unicode="&#x2db;" d="M168 -122q0 31 20.5 60.5t50.5 50.5h27q-58 -41 -58 -113q0 -22 18.5 -36.5t37.5 -14.5q33 0 64 42q3 3 10.5 4.5t13.5 -1.5q12 -9 3 -23q-41 -57 -95 -57q-41 0 -66.5 27.5t-25.5 60.5z" />
<glyph unicode="&#x2dc;" d="M92 534q0 12 47 49q44 32 74 32q23 0 47 -18q2 -2 7 -6q37 -32 48 -33q26 0 79 48q9 9 18 9q8 0 15 -7t7 -16q0 -14 -47 -48q-44 -32 -74 -32q-25 0 -47 18q-2 2 -7 6q-37 32 -48 33q-27 0 -79 -49q-10 -8 -18 -8t-15 7t-7 15z" />
<glyph unicode="&#x2dd;" d="M97 531q0 6 10 16l65 62q16 14 32 17q10 0 18 -8t8 -19q0 -8 -26 -32l-48 -45q-21 -21 -31 -21t-19 10t-9 20zM298 531q0 6 10 16l65 62q16 14 32 17q10 0 18 -8t8 -19q0 -8 -26 -32l-48 -45q-21 -21 -31 -21t-19 10t-9 20z" />
<glyph unicode="&#x300;" horiz-adv-x="0" d="M-362 597q0 11 7.5 18t18.5 7q6 0 15 -4l138 -62q19 -8 19 -20q0 -9 -5.5 -20t-18.5 -11q-5 0 -7 1l-144 64q-23 10 -23 27z" />
<glyph unicode="&#x301;" horiz-adv-x="0" d="M-361 536q0 12 19 20l138 62l15 4q11 0 18.5 -7t7.5 -18q0 -17 -23 -27l-144 -64l-7 -1q-13 0 -18.5 11t-5.5 20z" />
<glyph unicode="&#x302;" horiz-adv-x="0" d="M-405 528q0 8 22 22l103 66q17 11 34 0l105 -66q22 -14 22 -22q0 -22 -24 -22q-5 0 -30 15l-89 54l-89 -54q-25 -15 -30 -15q-24 0 -24 22z" />
<glyph unicode="&#x303;" horiz-adv-x="0" d="M-433 534q0 12 47 49q44 32 74 32q23 0 47 -18q2 -2 7 -6q37 -32 48 -33q26 0 79 48q9 9 18 9q8 0 15 -7t7 -16q0 -14 -47 -48q-44 -32 -74 -32q-25 0 -47 18q-2 2 -7 6q-37 32 -48 33q-27 0 -79 -49q-10 -8 -18 -8t-15 7t-7 15z" />
<glyph unicode="&#x304;" horiz-adv-x="0" d="M-447 564q0 22 31 22h308q31 0 31 -23q0 -21 -31 -21h-307q-32 0 -32 22z" />
<glyph unicode="&#x306;" horiz-adv-x="0" d="M-434 590q0 22 22 22q14 0 18 -11q11 -40 132 -40t132 40q4 11 18 11q22 0 22 -22q0 -21 -12.5 -36t-28.5 -22t-44 -11t-44 -4.5t-43 -0.5t-43 0.5t-44 4.5t-44 11t-28.5 22t-12.5 36z" />
<glyph unicode="&#x307;" horiz-adv-x="0" d="M-303 563q0 18 12 30t29 12t29 -12t12 -30q0 -17 -12 -29t-29 -12t-29 12t-12 29z" />
<glyph unicode="&#x308;" horiz-adv-x="0" d="M-384 563q0 16 10.5 26.5t25.5 10.5t25.5 -10.5t10.5 -26.5q0 -15 -10.5 -25.5t-25.5 -10.5t-25.5 10.5t-10.5 25.5zM-213 563q0 16 10.5 26.5t25.5 10.5t25.5 -10.5t10.5 -26.5q0 -15 -10.5 -25.5t-25.5 -10.5t-25.5 10.5t-10.5 25.5z" />
<glyph unicode="&#x309;" horiz-adv-x="0" d="M-354 599q0 32 25 52.5t59 20.5q42 0 70.5 -18.5t28.5 -53.5q0 -34 -31 -50q-50 -27 -50 -58v-19q0 -7 -5 -12.5t-13 -5.5t-13.5 5t-5.5 13v19q0 52 70 91l11 14q0 38 -62 38q-18 0 -31.5 -11t-13.5 -25q0 -6 -4.5 -12.5t-14.5 -6.5q-20 0 -20 19z" />
<glyph unicode="&#x30a;" horiz-adv-x="0" d="M-364 563q0 30 29.5 51.5t72.5 21.5t72.5 -21.5t29.5 -51.5q0 -29 -29.5 -50t-72.5 -21t-72.5 21t-29.5 50zM-314 563q0 -16 15.5 -25t36.5 -9t36.5 9t15.5 25q0 17 -15.5 26.5t-36.5 9.5t-36.5 -9.5t-15.5 -26.5z" />
<glyph unicode="&#x30b;" horiz-adv-x="0" d="M-428 531q0 6 10 16l65 62q16 14 32 17q10 0 18 -8t8 -19q0 -8 -26 -32l-48 -45q-21 -21 -31 -21t-19 10t-9 20zM-227 531q0 6 10 16l65 62q16 14 32 17q10 0 18 -8t8 -19q0 -8 -26 -32l-48 -45q-21 -21 -31 -21t-19 10t-9 20z" />
<glyph unicode="&#x30c;" horiz-adv-x="0" d="M-405 599q0 22 24 22q5 0 30 -15l89 -54l89 54q25 15 30 15q24 0 24 -22q0 -8 -22 -22l-103 -66q-17 -11 -34 0l-105 66q-22 14 -22 22z" />
<glyph unicode="&#x30f;" horiz-adv-x="0" d="M-431 599q0 11 8 19t18 8q16 -3 32 -17l65 -62q10 -10 10 -16q0 -10 -9 -20t-19 -10t-31 21l-48 45q-26 24 -26 32zM-230 599q0 11 8 19t18 8q16 -3 32 -17l65 -62q10 -10 10 -16q0 -10 -9 -20t-19 -10t-31 21l-48 45q-26 24 -26 32z" />
<glyph unicode="&#x311;" horiz-adv-x="0" d="M-434 538q0 21 12.5 36t28.5 22t44 11t44 4.5t43 0.5t43 -0.5t44 -4.5t44 -11t28.5 -22t12.5 -36q0 -22 -22 -22q-14 0 -18 11q-11 40 -132 40t-132 -40q-4 -11 -18 -11q-22 0 -22 22z" />
<glyph unicode="&#x323;" horiz-adv-x="0" d="M-303 -165q0 17 12 29t29 12t29 -12t12 -29q0 -18 -12 -30t-29 -12t-29 12t-12 30z" />
<glyph unicode="&#x326;" horiz-adv-x="0" d="M-317 -224q0 8 9 10q72 24 72 89q-12 -6 -27 -6q-16 0 -27 11t-11 28q0 16 10.5 26.5t28.5 10.5q22 0 38 -18.5t16 -48.5q0 -51 -35 -84t-59 -33q-6 0 -10.5 5t-4.5 10z" />
<glyph unicode="&#x32e;" horiz-adv-x="0" d="M-434 -124q0 22 22 22q14 0 18 -11q11 -40 132 -40t132 40q4 11 18 11q22 0 22 -22q0 -21 -12.5 -36t-28.5 -22t-44 -11t-44 -4.5t-43 -0.5t-43 0.5t-44 4.5t-44 11t-28.5 22t-12.5 36z" />
<glyph unicode="&#x32f;" horiz-adv-x="0" d="M-434 -176q0 21 12.5 36t28.5 22t44 11t44 4.5t43 0.5t43 -0.5t44 -4.5t44 -11t28.5 -22t12.5 -36q0 -22 -22 -22q-14 0 -18 11q-11 40 -132 40t-132 -40q-4 -11 -18 -11q-22 0 -22 22z" />
<glyph unicode="&#x330;" horiz-adv-x="0" d="M-433 -179q0 12 47 49q44 32 74 32q23 0 47 -18q40 -36 49 -38q3 -1 6 -1q26 0 79 48q9 9 18 9q8 0 15 -7t7 -16q0 -14 -47 -48q-41 -32 -74 -32q-25 0 -47 18q-26 24 -36 31t-19 7q-28 0 -79 -48q-10 -8 -18 -8t-15 7t-7 15z" />
<glyph unicode="&#x331;" horiz-adv-x="0" d="M-447 -150q0 22 31 22h308q31 0 31 -23q0 -21 -31 -21h-307q-32 0 -32 22z" />
<glyph unicode="&#x332;" horiz-adv-x="0" d="M-447 -150q0 22 31 22h308q31 0 31 -23q0 -21 -31 -21h-307q-32 0 -32 22z" />
<glyph unicode="&#x393;" d="M35 21q0 21 31 21h48v527h-48q-31 0 -31 20q0 22 31 22h388q20 0 25.5 -6.5t5.5 -25.5v-76q0 -10 -1 -15.5t-7 -11t-18 -5.5q-24 0 -24 32v66h-270v-527h68q32 0 32 -21t-32 -21h-167q-31 0 -31 21z" />
<glyph unicode="&#x394;" d="M37 12v1l178 584q4 12 12.5 18t15 7t19.5 1q23 0 32 -5t15 -25l178 -580v-1q0 -12 -25 -12h-400q-25 0 -25 12zM100 49h324l-160 532h-4z" />
<glyph unicode="&#x398;" d="M59 305q0 59 1 97t5 74t9.5 56.5t17.5 39t25 27t36 14.5t47.5 7.5t61.5 1.5q50 0 79.5 -3t54.5 -16t36.5 -31t20 -57.5t10.5 -85.5t2 -124q0 -67 -2 -109t-6 -79.5t-14.5 -57.5t-23.5 -36t-37 -22t-50.5 -9t-69.5 -3q-37 0 -61.5 1.5t-47.5 7.5t-36 14.5t-25 27t-17.5 39 t-9.5 56t-5 74t-1 96.5zM110 305q0 -127 9 -181q10 -54 39 -73.5t104 -19.5q74 0 102 18.5t39 67.5q11 50 11 189q0 127 -9 181q-10 54 -39 73.5t-104 19.5q-74 0 -102 -18.5t-39 -67.5q-11 -50 -11 -189zM171 281v49q0 10 1 15.5t7 11t18 5.5q23 0 25 -32h80q1 15 6 22.5 t9 8.5t10 1q12 0 18 -5.5t7 -11t1 -15.5v-49q0 -10 -1 -15.5t-7 -11t-18 -5.5q-23 0 -25 32h-80q-1 -15 -6 -22.5t-9 -8.5t-10 -1q-12 0 -18 5.5t-7 11t-1 15.5z" />
<glyph unicode="&#x39b;" d="M31 21q0 8 3 12.5t12 6t17 2t25 0.5l128 554q3 13 10.5 19t13.5 7t17 1h10q12 0 18 -1t13 -8t11 -21l127 -551q17 0 25 -0.5t17 -2t12 -6t3 -12.5q0 -21 -33 -21h-111q-32 0 -32 22q0 20 32 20h34l-119 539h-5l-119 -539h35q32 0 32 -21t-32 -21h-112q-32 0 -32 21z" />
<glyph unicode="&#x39e;" d="M36 32v25q0 32 24 32q18 0 22 -10t4 -39h352q0 20 1 28t6.5 14.5t18.5 6.5q24 0 24 -32v-25q0 -19 -6 -25.5t-25 -6.5h-389q-20 0 -26 6t-6 26zM40 559v20q0 19 6 25.5t26 6.5h381q19 0 25 -6.5t6 -25.5v-20q0 -10 -1 -15t-6.5 -11t-17.5 -6q-17 0 -21 9.5t-4 34.5h-344 q0 -17 -1 -24.5t-6.5 -13.5t-17.5 -6q-17 0 -21 8.5t-4 23.5zM114 293v50q0 10 1 15t7 10.5t18 5.5q14 0 19.5 -7.5t5.5 -28.5h194q0 21 5.5 28.5t19.5 7.5q12 0 18 -5.5t7 -10.5t1 -15v-50q0 -11 -1 -16t-7 -10t-18 -5q-14 0 -19.5 7.5t-5.5 28.5h-194q0 -21 -5.5 -28.5 t-19.5 -7.5q-12 0 -18 5t-7 10t-1 16z" />
<glyph unicode="&#x3a0;" d="M24 21q0 21 31 21h36v527h-36q-31 0 -31 20q0 22 31 22h414q31 0 31 -22q0 -20 -31 -20h-36v-527h36q31 0 31 -21t-31 -21h-123q-31 0 -31 22q0 20 31 20h36v527h-240v-527h36q31 0 31 -21t-31 -21h-123q-31 0 -31 21z" />
<glyph unicode="&#x3a3;" d="M43 19q0 3 1 5l163 281l-157 265q-7 10 -7 19q0 22 32 22h375q20 0 25.5 -6.5t5.5 -25.5v-76q0 -10 -1 -15.5t-7 -11t-18 -5.5q-17 0 -21 8.5t-4 23.5v66h-320l152 -260q0 -8 -8 -22l-140 -243h316v66q0 10 1 15.5t7 11t18 5.5t17.5 -6t6.5 -11t1 -15v-78q0 -19 -6 -25.5 t-25 -6.5h-375q-32 0 -32 19z" />
<glyph unicode="&#x3a5;" d="M41 499q0 45 30 84t78 39q43 0 72 -39t42 -134q15 98 41 135.5t71 37.5q48 0 78 -39t30 -84q0 -22 -25 -22t-25 24q0 35 -14.5 61.5t-44.5 26.5q-28 0 -47 -26.5t-26.5 -69t-10 -73.5t-2.5 -62v-316h46q32 0 32 -21t-32 -21h-143q-32 0 -32 21t32 21h46v316q0 31 -2.5 62 t-10 73.5t-27 69t-47.5 26.5q-29 0 -44 -26.5t-15 -63.5q0 -22 -25 -22t-25 22z" />
<glyph unicode="&#x3a6;" d="M43 306q0 54 53.5 95.5t140.5 50.5v117h-53q-32 0 -32 21t32 21h157q32 0 32 -22q0 -20 -32 -20h-53v-117q86 -9 139.5 -50.5t53.5 -96.5q0 -53 -53.5 -94.5t-139.5 -51.5v-117h53q32 0 32 -21t-32 -21h-157q-32 0 -32 22q0 20 32 20h53v117q-85 8 -139.5 49.5 t-54.5 97.5zM93 305q0 -36 38.5 -65.5t105.5 -38.5v209q-65 -9 -104.5 -38.5t-39.5 -66.5zM288 201q62 9 102 37.5t40 67.5q0 37 -39 66t-103 38v-209z" />
<glyph unicode="&#x3a8;" d="M41 457q0 22 27 22q28 0 43.5 -18.5t18.5 -38t3 -49.5q0 -29 3.5 -51.5t13.5 -47.5t32 -43.5t55 -28.5v367h-46q-32 0 -32 20q0 22 32 22h143q32 0 32 -22q0 -20 -32 -20h-46v-367q103 32 103 170q0 20 1.5 33t6.5 33t19.5 30.5t37.5 10.5q27 0 27 -22q0 -18 -19 -21 q-11 -3 -16.5 -25t-5.5 -41q-2 -184 -154 -210v-118h46q32 0 32 -21t-32 -21h-143q-32 0 -32 21t32 21h46v118q-45 8 -77 29.5t-48 51.5t-23 59t-7 60q0 70 -22 76q-19 3 -19 21z" />
<glyph unicode="&#x3a9;" d="M35 32v27q0 32 18 32q13 0 16 -11.5t3 -37.5h88q-10 66 -56 164q-21 46 -30.5 69t-20 62t-10.5 72q0 90 64.5 151.5t154.5 61.5t154.5 -61.5t64.5 -151.5q0 -72 -58 -196q-29 -61 -41 -94t-18 -77h88q0 13 0.5 19.5t2 14.5t5.5 11.5t11 3.5q18 0 18 -32v-27 q0 -19 -6 -25.5t-25 -6.5h-106q-10 0 -15.5 1t-11 7t-5.5 18q0 62 54 188q29 68 42.5 110.5t13.5 84.5q0 73 -50 122t-118 49t-118.5 -49t-50.5 -122q0 -41 17 -91t68 -170q26 -69 26 -122q0 -12 -5.5 -18t-10.5 -7t-15 -1h-106q-19 0 -25.5 6t-6.5 26z" />
<glyph unicode="&#xe3f;" d="M25 21q0 21 32 21h39v527h-39q-32 0 -32 21t31 21h176v74q0 9 6.5 15.5t16.5 6.5q9 0 15 -6.5t6 -15.5v-74h14q76 0 121.5 -46t45.5 -104q0 -99 -128 -142q150 -36 150 -157q0 -63 -45.5 -112.5t-122.5 -49.5h-36v-74q0 -9 -5.5 -15.5t-14.5 -6.5q-10 0 -16 6.5t-6 15.5 v74h-177q-31 0 -31 21zM146 42h87v255h-87v-255zM146 339h87v230h-87v-230zM275 42h13q67 0 103.5 37.5t36.5 84.5q0 45 -40 89t-106 44h-7v-255zM276 339q68 8 99.5 44.5t31.5 76.5q0 39 -30.5 74t-100.5 35v-230z" />
<glyph unicode="&#x1e0c;" d="M21 21q0 21 32 21h33v527h-33q-32 0 -32 20q0 22 32 22h213q96 0 156 -92.5t60 -217.5q0 -124 -60.5 -212.5t-155.5 -88.5h-213q-32 0 -32 21zM137 42h109q86 0 136 78t50 181q0 104 -50 186t-136 82h-109v-527zM159 -165q0 17 12 29t29 12t29 -12t12 -29q0 -18 -12 -30 t-29 -12t-29 12t-12 30z" />
<glyph unicode="&#x1e0d;" d="M39 212q0 92 59.5 155.5t141.5 63.5q63 0 132 -59v197h-57q-31 0 -31 20q0 22 32 22h75q19 0 25 -6.5t6 -25.5v-537h57q31 0 31 -20q0 -22 -32 -22h-75q-22 0 -26.5 11.5t-4.5 55.5q-71 -73 -141 -73q-79 0 -135.5 63.5t-56.5 154.5zM89 212q0 -73 43.5 -124.5 t102.5 -51.5q60 0 98.5 50.5t38.5 103.5v74q0 48 -37.5 86.5t-90.5 38.5q-61 0 -108 -50.5t-47 -126.5zM222 -165q0 17 12 29t29 12t29 -12t12 -29q0 -18 -12 -30t-29 -12t-29 12t-12 30z" />
<glyph unicode="&#x1e0e;" d="M15 -150q0 22 31 22h308q31 0 31 -23q0 -21 -31 -21h-307q-32 0 -32 22zM21 21q0 21 32 21h33v527h-33q-32 0 -32 20q0 22 32 22h213q96 0 156 -92.5t60 -217.5q0 -124 -60.5 -212.5t-155.5 -88.5h-213q-32 0 -32 21zM137 42h109q86 0 136 78t50 181q0 104 -50 186 t-136 82h-109v-527z" />
<glyph unicode="&#x1e0f;" d="M39 212q0 92 59.5 155.5t141.5 63.5q63 0 132 -59v197h-57q-31 0 -31 20q0 22 32 22h75q19 0 25 -6.5t6 -25.5v-537h57q31 0 31 -20q0 -22 -32 -22h-75q-22 0 -26.5 11.5t-4.5 55.5q-71 -73 -141 -73q-79 0 -135.5 63.5t-56.5 154.5zM78 -150q0 22 31 22h308q31 0 31 -23 q0 -21 -31 -21h-307q-32 0 -32 22zM89 212q0 -73 43.5 -124.5t102.5 -51.5q60 0 98.5 50.5t38.5 103.5v74q0 48 -37.5 86.5t-90.5 38.5q-61 0 -108 -50.5t-47 -126.5z" />
<glyph unicode="&#x1e24;" d="M24 21q0 21 31 21h36v527h-36q-31 0 -31 20q0 22 31 22h123q31 0 31 -22q0 -20 -31 -20h-36v-230h240v230h-36q-31 0 -31 21t31 21h123q31 0 31 -22q0 -20 -31 -20h-36v-527h36q31 0 31 -21t-31 -21h-123q-31 0 -31 22q0 20 31 20h36v255h-240v-255h36q31 0 31 -21 t-31 -21h-123q-31 0 -31 21zM222 -165q0 17 12 29t29 12t29 -12t12 -29q0 -18 -12 -30t-29 -12t-29 12t-12 30z" />
<glyph unicode="&#x1e25;" d="M14 21q0 21 32 21h56v527h-57q-31 0 -31 20q0 22 32 22h75q19 0 25 -6.5t6 -25.5v-217q71 69 146 69q124 0 124 -138v-251h56q32 0 32 -21t-31 -21h-158q-32 0 -32 21t32 21h51v245q0 54 -17.5 78t-62.5 24q-51 0 -95.5 -38.5t-44.5 -114.5v-194h56q32 0 32 -21t-31 -21 h-164q-31 0 -31 21zM222 -165q0 17 12 29t29 12t29 -12t12 -29q0 -18 -12 -30t-29 -12t-29 12t-12 30z" />
<glyph unicode="&#x1e26;" d="M24 21q0 21 31 21h36v527h-36q-31 0 -31 20q0 22 31 22h123q31 0 31 -22q0 -20 -31 -20h-36v-230h240v230h-36q-31 0 -31 21t31 21h123q31 0 31 -22q0 -20 -31 -20h-36v-527h36q31 0 31 -21t-31 -21h-123q-31 0 -31 22q0 20 31 20h36v255h-240v-255h36q31 0 31 -21 t-31 -21h-123q-31 0 -31 21zM126 699q0 16 10.5 26t25.5 10t25.5 -10t10.5 -26q0 -15 -10.5 -25.5t-25.5 -10.5t-25.5 10.5t-10.5 25.5zM327 699q0 16 10.5 26t25.5 10t25.5 -10t10.5 -26q0 -15 -10.5 -25.5t-25.5 -10.5t-25.5 10.5t-10.5 25.5z" />
<glyph unicode="&#x1e27;" d="M14 21q0 21 32 21h56v527h-57q-31 0 -31 20q0 22 32 22h75q19 0 25 -6.5t6 -25.5v-217q71 69 146 69q124 0 124 -138v-251h56q32 0 32 -21t-31 -21h-158q-32 0 -32 21t32 21h51v245q0 54 -17.5 78t-62.5 24q-51 0 -95.5 -38.5t-44.5 -114.5v-194h56q32 0 32 -21t-31 -21 h-164q-31 0 -31 21zM126 699q0 16 10.5 26t25.5 10t25.5 -10t10.5 -26q0 -15 -10.5 -25.5t-25.5 -10.5t-25.5 10.5t-10.5 25.5zM327 699q0 16 10.5 26t25.5 10t25.5 -10t10.5 -26q0 -15 -10.5 -25.5t-25.5 -10.5t-25.5 10.5t-10.5 25.5z" />
<glyph unicode="&#x1e2a;" d="M24 21q0 21 31 21h36v527h-36q-31 0 -31 20q0 22 31 22h123q31 0 31 -22q0 -20 -31 -20h-36v-230h240v230h-36q-31 0 -31 21t31 21h123q31 0 31 -22q0 -20 -31 -20h-36v-527h36q31 0 31 -21t-31 -21h-123q-31 0 -31 22q0 20 31 20h36v255h-240v-255h36q31 0 31 -21 t-31 -21h-123q-31 0 -31 21zM91 -124q0 22 22 22q14 0 18 -11q11 -40 132 -40t132 40q4 11 18 11q22 0 22 -22q0 -21 -12.5 -36t-28.5 -22t-44 -11t-44 -4.5t-43 -0.5t-43 0.5t-44 4.5t-44 11t-28.5 22t-12.5 36z" />
<glyph unicode="&#x1e2b;" d="M14 21q0 21 32 21h56v527h-57q-31 0 -31 20q0 22 32 22h75q19 0 25 -6.5t6 -25.5v-217q71 69 146 69q124 0 124 -138v-251h56q32 0 32 -21t-31 -21h-158q-32 0 -32 21t32 21h51v245q0 54 -17.5 78t-62.5 24q-51 0 -95.5 -38.5t-44.5 -114.5v-194h56q32 0 32 -21t-31 -21 h-164q-31 0 -31 21zM91 -124q0 22 22 22q14 0 18 -11q11 -40 132 -40t132 40q4 11 18 11q22 0 22 -22q0 -21 -12.5 -36t-28.5 -22t-44 -11t-44 -4.5t-43 -0.5t-43 0.5t-44 4.5t-44 11t-28.5 22t-12.5 36z" />
<glyph unicode="&#x1e36;" d="M35 21q0 21 31 21h48v527h-48q-31 0 -31 20q0 22 31 22h167q32 0 32 -22q0 -20 -32 -20h-68v-527h270v82q0 11 1 16t6.5 10.5t17.5 5.5q17 0 21 -8t4 -24v-92q0 -19 -6 -25.5t-25 -6.5h-388q-31 0 -31 21zM222 -165q0 17 12 29t29 12t29 -12t12 -29q0 -18 -12 -30 t-29 -12t-29 12t-12 30z" />
<glyph unicode="&#x1e37;" d="M61 21q0 21 32 21h144v527h-145q-31 0 -31 20q0 22 32 22h164q19 0 25 -6.5t6 -25.5v-537h145q31 0 31 -21t-31 -21h-341q-31 0 -31 21zM222 -165q0 17 12 29t29 12t29 -12t12 -29q0 -18 -12 -30t-29 -12t-29 12t-12 30z" />
<glyph unicode="&#x1e38;" d="M-34 705q0 22 31 22h308q31 0 31 -23q0 -21 -31 -21h-307q-32 0 -32 22zM35 21q0 21 31 21h48v527h-48q-31 0 -31 20q0 22 31 22h167q32 0 32 -22q0 -20 -32 -20h-68v-527h270v82q0 11 1 16t6.5 10.5t17.5 5.5q17 0 21 -8t4 -24v-92q0 -19 -6 -25.5t-25 -6.5h-388 q-31 0 -31 21zM222 -165q0 17 12 29t29 12t29 -12t12 -29q0 -18 -12 -30t-29 -12t-29 12t-12 30z" />
<glyph unicode="&#x1e39;" d="M28 705q0 22 31 22h308q31 0 31 -23q0 -21 -31 -21h-307q-32 0 -32 22zM61 21q0 21 32 21h144v527h-145q-31 0 -31 20q0 22 32 22h164q19 0 25 -6.5t6 -25.5v-537h145q31 0 31 -21t-31 -21h-341q-31 0 -31 21zM222 -165q0 17 12 29t29 12t29 -12t12 -29q0 -18 -12 -30 t-29 -12t-29 12t-12 30z" />
<glyph unicode="&#x1e42;" d="M19 21q0 8 3 12.5t11.5 6t16 2t24.5 0.5v527q-17 0 -24.5 0.5t-16 2t-11.5 6t-3 12.5q0 21 31 21h58q38 0 44 -18l109 -340h2l104 324q6 18 15.5 26t33.5 8h58q31 0 31 -21q0 -8 -3 -12.5t-11.5 -6t-16 -2t-24.5 -0.5v-527q17 0 24.5 -0.5t16 -2t11.5 -6t3 -12.5 q0 -21 -31 -21h-85q-31 0 -31 21q0 8 3 12.5t11.5 6t16 2t24.5 0.5v527h-7l-111 -341q-5 -17 -33 -17q-25 0 -30 13l-113 345h-7v-527q16 0 23.5 -0.5t16 -2t11.5 -6t3 -12.5q0 -21 -31 -21h-85q-31 0 -31 21zM222 -165q0 17 12 29t29 12t29 -12t12 -29q0 -18 -12 -30 t-29 -12t-29 12t-12 30z" />
<glyph unicode="&#x1e43;" d="M-1 21q0 15 11.5 18t45.5 3v341q-34 0 -45.5 3t-11.5 18q0 21 32 21h33q10 0 15 -1.5t11 -11.5t7 -30q53 49 96 49q47 0 76 -64q46 64 105 64q28 0 46.5 -16t25.5 -42t9 -41t2 -29v-261q34 0 45.5 -3t11.5 -18q0 -21 -32 -21h-77q-32 0 -32 21q0 10 6.5 15t13.5 5.5 t23 0.5v252q0 54 -12 74.5t-34 20.5q-38 0 -66 -40t-28 -111v-196q34 0 45.5 -3t11.5 -18q0 -21 -32 -21h-77q-32 0 -32 21q0 10 6.5 15t13.5 5.5t23 0.5v252q0 54 -12 74.5t-34 20.5q-37 0 -64.5 -40t-27.5 -111v-196q34 0 45.5 -3t11.5 -18q0 -21 -32 -21h-91 q-32 0 -32 21zM222 -165q0 17 12 29t29 12t29 -12t12 -29q0 -18 -12 -30t-29 -12t-29 12t-12 30z" />
<glyph unicode="&#x1e44;" d="M30 22q0 20 31 20h37v527h-37q-31 0 -31 21t31 21h71q13 0 20.5 -1.5t15 -8.5t12.5 -20l200 -539h9v527h-36q-31 0 -31 20q0 22 31 22h110q31 0 31 -22q0 -20 -31 -20h-37v-537q0 -21 -6.5 -26.5t-26.5 -5.5q-13 0 -20.5 1.5t-15.5 8t-13 20.5l-200 539h-9v-527h36 q31 0 31 -21t-31 -21h-110q-31 0 -31 22zM222 704q0 17 12 29.5t29 12.5t29 -12.5t12 -29.5t-12 -29t-29 -12t-29 12t-12 29z" />
<glyph unicode="&#x1e45;" d="M14 21q0 21 32 21h56v341h-57q-31 0 -31 20q0 22 32 22h75q22 0 26.5 -11t4.5 -52q71 69 146 69q124 0 124 -138v-251h56q32 0 32 -21t-31 -21h-158q-32 0 -32 21t32 21h51v245q0 54 -17.5 78t-62.5 24q-51 0 -95.5 -38.5t-44.5 -114.5v-194h56q32 0 32 -21t-31 -21h-164 q-31 0 -31 21zM222 563q0 18 12 30t29 12t29 -12t12 -30q0 -17 -12 -29t-29 -12t-29 12t-12 29z" />
<glyph unicode="&#x1e46;" d="M30 22q0 20 31 20h37v527h-37q-31 0 -31 21t31 21h71q13 0 20.5 -1.5t15 -8.5t12.5 -20l200 -539h9v527h-36q-31 0 -31 20q0 22 31 22h110q31 0 31 -22q0 -20 -31 -20h-37v-537q0 -21 -6.5 -26.5t-26.5 -5.5q-13 0 -20.5 1.5t-15.5 8t-13 20.5l-200 539h-9v-527h36 q31 0 31 -21t-31 -21h-110q-31 0 -31 22zM222 -165q0 17 12 29t29 12t29 -12t12 -29q0 -18 -12 -30t-29 -12t-29 12t-12 30z" />
<glyph unicode="&#x1e47;" d="M14 21q0 21 32 21h56v341h-57q-31 0 -31 20q0 22 32 22h75q22 0 26.5 -11t4.5 -52q71 69 146 69q124 0 124 -138v-251h56q32 0 32 -21t-31 -21h-158q-32 0 -32 21t32 21h51v245q0 54 -17.5 78t-62.5 24q-51 0 -95.5 -38.5t-44.5 -114.5v-194h56q32 0 32 -21t-31 -21h-164 q-31 0 -31 21zM222 -165q0 17 12 29t29 12t29 -12t12 -29q0 -18 -12 -30t-29 -12t-29 12t-12 30z" />
<glyph unicode="&#x1e58;" d="M24 21q0 21 31 21h36v527h-36q-31 0 -31 20q0 22 31 22h183q83 0 136.5 -48.5t53.5 -114.5q0 -89 -96 -143q46 -35 60 -68q9 -22 9 -93q0 -113 39 -113q14 0 22 21.5t8 35.5q1 21 25 21q25 0 25 -23q0 -33 -20 -65t-59 -32q-47 0 -71 38q-14 24 -17 49t-3 81 q0 40 -4.5 59.5t-21.5 36.5q-36 31 -91 31h-91v-242h36q31 0 31 -21t-31 -21h-123q-31 0 -31 21zM142 327h85q71 0 111 37.5t40 83.5q0 45 -40 83t-111 38h-85v-242zM222 715q0 17 12 29.5t29 12.5t29 -12.5t12 -29.5t-12 -29t-29 -12t-29 12t-12 29z" />
<glyph unicode="&#x1e59;" d="M35 22q0 20 31 20h94v341h-94q-31 0 -31 21t31 21h113q19 0 25 -6.5t6 -25.5v-63q89 101 186 101q50 0 69 -17t19 -37q0 -15 -9.5 -24.5t-23.5 -9.5q-15 0 -24.5 12.5t-9.5 33.5q-100 0 -153.5 -61.5t-53.5 -145.5v-140h125q32 0 32 -21t-32 -21h-269q-31 0 -31 22z M222 563q0 18 12 30t29 12t29 -12t12 -30q0 -17 -12 -29t-29 -12t-29 12t-12 29z" />
<glyph unicode="&#x1e5a;" d="M24 21q0 21 31 21h36v527h-36q-31 0 -31 20q0 22 31 22h183q83 0 136.5 -48.5t53.5 -114.5q0 -89 -96 -143q46 -35 60 -68q9 -22 9 -93q0 -113 39 -113q14 0 22 21.5t8 35.5q1 21 25 21q25 0 25 -23q0 -33 -20 -65t-59 -32q-47 0 -71 38q-14 24 -17 49t-3 81 q0 40 -4.5 59.5t-21.5 36.5q-36 31 -91 31h-91v-242h36q31 0 31 -21t-31 -21h-123q-31 0 -31 21zM142 327h85q71 0 111 37.5t40 83.5q0 45 -40 83t-111 38h-85v-242zM222 -165q0 17 12 29t29 12t29 -12t12 -29q0 -18 -12 -30t-29 -12t-29 12t-12 30z" />
<glyph unicode="&#x1e5b;" d="M35 22q0 20 31 20h94v341h-94q-31 0 -31 21t31 21h113q19 0 25 -6.5t6 -25.5v-63q89 101 186 101q50 0 69 -17t19 -37q0 -15 -9.5 -24.5t-23.5 -9.5q-15 0 -24.5 12.5t-9.5 33.5q-100 0 -153.5 -61.5t-53.5 -145.5v-140h125q32 0 32 -21t-32 -21h-269q-31 0 -31 22z M161 -165q0 17 12 29t29 12t29 -12t12 -29q0 -18 -12 -30t-29 -12t-29 12t-12 30z" />
<glyph unicode="&#x1e5c;" d="M24 21q0 21 31 21h36v527h-36q-31 0 -31 20q0 22 31 22h183q83 0 136.5 -48.5t53.5 -114.5q0 -89 -96 -143q46 -35 60 -68q9 -22 9 -93q0 -113 39 -113q14 0 22 21.5t8 35.5q1 21 25 21q25 0 25 -23q0 -33 -20 -65t-59 -32q-47 0 -71 38q-14 24 -17 49t-3 81 q0 40 -4.5 59.5t-21.5 36.5q-36 31 -91 31h-91v-242h36q31 0 31 -21t-31 -21h-123q-31 0 -31 21zM78 705q0 22 31 22h308q31 0 31 -23q0 -21 -31 -21h-307q-32 0 -32 22zM142 327h85q71 0 111 37.5t40 83.5q0 45 -40 83t-111 38h-85v-242zM222 -165q0 17 12 29t29 12t29 -12 t12 -29q0 -18 -12 -30t-29 -12t-29 12t-12 30z" />
<glyph unicode="&#x1e5d;" d="M35 22q0 20 31 20h94v341h-94q-31 0 -31 21t31 21h113q19 0 25 -6.5t6 -25.5v-63q89 101 186 101q50 0 69 -17t19 -37q0 -15 -9.5 -24.5t-23.5 -9.5q-15 0 -24.5 12.5t-9.5 33.5q-100 0 -153.5 -61.5t-53.5 -145.5v-140h125q32 0 32 -21t-32 -21h-269q-31 0 -31 22z M78 564q0 22 31 22h308q31 0 31 -23q0 -21 -31 -21h-307q-32 0 -32 22zM161 -165q0 17 12 29t29 12t29 -12t12 -29q0 -18 -12 -30t-29 -12t-29 12t-12 30z" />
<glyph unicode="&#x1e62;" d="M55 21v136q0 10 1 15.5t7 11t18 5.5q11 0 16.5 -4.5t6.5 -9t2 -12.5q3 -66 53 -98q50 -34 127 -34q62 0 99 38.5t37 86.5q0 100 -123 127l-118 28q-59 17 -92.5 59t-33.5 93q0 64 51.5 111.5t130.5 47.5q85 0 151 -56q9 34 14.5 45t17.5 11q21 0 21 -32v-136 q0 -10 -1 -15.5t-7 -11t-18 -5.5q-20 0 -24 15q-4 19 -7 31t-14.5 36t-26.5 38t-43 26t-64 12q-58 0 -96 -34t-38 -79q0 -38 26 -67t64 -40l84 -19q66 -15 91.5 -25.5t54.5 -38.5q47 -51 47 -116q0 -69 -51.5 -120.5t-132.5 -51.5q-105 0 -177 54q-9 -34 -14.5 -44 t-17.5 -10q-21 0 -21 32zM222 -165q0 17 12 29t29 12t29 -12t12 -29q0 -18 -12 -30t-29 -12t-29 12t-12 30z" />
<glyph unicode="&#x1e63;" d="M76 26v100q0 10 1 15.5t7 11t18 5.5q16 0 23 -12q21 -65 58.5 -87.5t86.5 -22.5q72 0 107.5 24t35.5 59q0 64 -142 87q-30 4 -46.5 7t-43 9.5t-42 14.5t-32 19.5t-24 28.5t-7.5 38q0 16 7 32.5t24.5 35.5t57.5 31t97 12q63 0 117 -26q4 15 8.5 20.5t16.5 5.5q20 0 20 -32 v-71q0 -10 -1 -15.5t-7 -11t-18 -5.5q-20 0 -23 15q-5 37 -27.5 57.5t-87.5 20.5q-73 0 -107.5 -21.5t-34.5 -47.5q0 -29 35 -45.5t74 -22.5l71 -12q157 -25 157 -124q0 -20 -8 -39.5t-26.5 -40t-58 -33t-93.5 -12.5q-77 0 -140 46q-15 -46 -32 -46q-21 0 -21 32zM222 -165 q0 17 12 29t29 12t29 -12t12 -29q0 -18 -12 -30t-29 -12t-29 12t-12 30z" />
<glyph unicode="&#x1e6c;" d="M28 503v76q0 19 6.5 25.5t25.5 6.5h405q19 0 25 -6.5t6 -25.5v-76q0 -10 -1 -15.5t-7 -11t-18 -5.5t-17.5 6t-6.5 11t-1 15v66h-157v-527h64q31 0 31 -21t-31 -21h-179q-31 0 -31 22q0 20 31 20h64v527h-158v-66q0 -10 -1 -15.5t-7 -11t-18 -5.5q-17 0 -21 8.5t-4 23.5z M222 -165q0 17 12 29t29 12t29 -12t12 -29q0 -18 -12 -30t-29 -12t-29 12t-12 30z" />
<glyph unicode="&#x1e6d;" d="M27 403q0 22 32 22h101v95q0 10 1 15.5t6.5 11t17.5 5.5q17 0 21 -8.5t4 -23.5v-95h180q31 0 31 -22q0 -20 -31 -20h-180v-257q0 -13 0.5 -21t5.5 -22.5t13.5 -23.5t26.5 -16t44 -7q18 0 36.5 5t38 26t19.5 54q0 9 1 14t6.5 10t17.5 5t18 -5t7 -10t1 -15q0 -60 -45.5 -93 t-104.5 -33q-58 0 -96.5 31t-38.5 95v263h-102q-31 0 -31 20zM222 -165q0 17 12 29t29 12t29 -12t12 -29q0 -18 -12 -30t-29 -12t-29 12t-12 30z" />
<glyph unicode="&#x1e6e;" d="M28 503v76q0 19 6.5 25.5t25.5 6.5h405q19 0 25 -6.5t6 -25.5v-76q0 -10 -1 -15.5t-7 -11t-18 -5.5t-17.5 6t-6.5 11t-1 15v66h-157v-527h64q31 0 31 -21t-31 -21h-179q-31 0 -31 22q0 20 31 20h64v527h-158v-66q0 -10 -1 -15.5t-7 -11t-18 -5.5q-17 0 -21 8.5t-4 23.5z M78 -150q0 22 31 22h308q31 0 31 -23q0 -21 -31 -21h-307q-32 0 -32 22z" />
<glyph unicode="&#x1e6f;" d="M27 403q0 22 32 22h101v95q0 10 1 15.5t6.5 11t17.5 5.5q17 0 21 -8.5t4 -23.5v-95h180q31 0 31 -22q0 -20 -31 -20h-180v-257q0 -13 0.5 -21t5.5 -22.5t13.5 -23.5t26.5 -16t44 -7q18 0 36.5 5t38 26t19.5 54q0 9 1 14t6.5 10t17.5 5t18 -5t7 -10t1 -15q0 -60 -45.5 -93 t-104.5 -33q-58 0 -96.5 31t-38.5 95v263h-102q-31 0 -31 20zM78 -150q0 22 31 22h308q31 0 31 -23q0 -21 -31 -21h-307q-32 0 -32 22z" />
<glyph unicode="&#x1e80;" d="M13 589q0 22 32 22h82q31 0 31 -22q0 -20 -31 -20h-34l67 -535h4l65 309q4 16 33 16q30 0 34 -17l63 -308h4l68 535h-34q-31 0 -31 20q0 22 31 22h82q32 0 32 -22q0 -20 -38 -20l-75 -550q-4 -27 -37 -27q-29 0 -33 18l-65 302l-68 -306q-8 -14 -32 -14q-33 0 -37 27 l-75 550h-10q-28 0 -28 20zM163 765q0 11 7.5 18.5t18.5 7.5q6 0 15 -4l138 -62q19 -9 19 -21q0 -9 -5.5 -20t-18.5 -11q-5 1 -7 2l-144 64q-23 10 -23 26z" />
<glyph unicode="&#x1e81;" d="M18 404q0 21 33 21h119q33 0 33 -22q0 -20 -33 -20h-59l60 -345h6l55 192q5 17 32 17q30 0 35 -18l49 -191h6l59 345h-59q-33 0 -33 21t33 21h119q33 0 33 -21q0 -10 -6.5 -14.5t-14.5 -5.5t-28 -1l-64 -356q-2 -11 -4.5 -16.5t-10.5 -10t-22 -4.5q-27 0 -37 12l-51 197 h-6l-48 -181q-4 -17 -13.5 -22.5t-29.5 -5.5q-23 0 -30 7t-10 24l-64 356q-15 0 -22 0.5t-14.5 2t-10 6t-2.5 12.5zM163 597q0 11 7.5 18t18.5 7q6 0 15 -4l138 -62q19 -8 19 -20q0 -9 -5.5 -20t-18.5 -11q-5 0 -7 1l-144 64q-23 10 -23 27z" />
<glyph unicode="&#x1e82;" d="M13 589q0 22 32 22h82q31 0 31 -22q0 -20 -31 -20h-34l67 -535h4l65 309q4 16 33 16q30 0 34 -17l63 -308h4l68 535h-34q-31 0 -31 20q0 22 31 22h82q32 0 32 -22q0 -20 -38 -20l-75 -550q-4 -27 -37 -27q-29 0 -33 18l-65 302l-68 -306q-8 -14 -32 -14q-33 0 -37 27 l-75 550h-10q-28 0 -28 20zM164 704q0 12 19 21l138 62l15 4q11 0 18.5 -7.5t7.5 -18.5q0 -16 -23 -26l-144 -64l-7 -2q-13 0 -18.5 11t-5.5 20z" />
<glyph unicode="&#x1e83;" d="M18 404q0 21 33 21h119q33 0 33 -22q0 -20 -33 -20h-59l60 -345h6l55 192q5 17 32 17q30 0 35 -18l49 -191h6l59 345h-59q-33 0 -33 21t33 21h119q33 0 33 -21q0 -10 -6.5 -14.5t-14.5 -5.5t-28 -1l-64 -356q-2 -11 -4.5 -16.5t-10.5 -10t-22 -4.5q-27 0 -37 12l-51 197 h-6l-48 -181q-4 -17 -13.5 -22.5t-29.5 -5.5q-23 0 -30 7t-10 24l-64 356q-15 0 -22 0.5t-14.5 2t-10 6t-2.5 12.5zM164 536q0 12 19 20l138 62l15 4q11 0 18.5 -7t7.5 -18q0 -17 -23 -27l-144 -64l-7 -1q-13 0 -18.5 11t-5.5 20z" />
<glyph unicode="&#x1e84;" d="M13 589q0 22 32 22h82q31 0 31 -22q0 -20 -31 -20h-34l67 -535h4l65 309q4 16 33 16q30 0 34 -17l63 -308h4l68 535h-34q-31 0 -31 20q0 22 31 22h82q32 0 32 -22q0 -20 -38 -20l-75 -550q-4 -27 -37 -27q-29 0 -33 18l-65 302l-68 -306q-8 -14 -32 -14q-33 0 -37 27 l-75 550h-10q-28 0 -28 20zM126 699q0 16 10.5 26t25.5 10t25.5 -10t10.5 -26q0 -15 -10.5 -25.5t-25.5 -10.5t-25.5 10.5t-10.5 25.5zM327 699q0 16 10.5 26t25.5 10t25.5 -10t10.5 -26q0 -15 -10.5 -25.5t-25.5 -10.5t-25.5 10.5t-10.5 25.5z" />
<glyph unicode="&#x1e85;" d="M18 404q0 21 33 21h119q33 0 33 -22q0 -20 -33 -20h-59l60 -345h6l55 192q5 17 32 17q30 0 35 -18l49 -191h6l59 345h-59q-33 0 -33 21t33 21h119q33 0 33 -21q0 -10 -6.5 -14.5t-14.5 -5.5t-28 -1l-64 -356q-2 -11 -4.5 -16.5t-10.5 -10t-22 -4.5q-27 0 -37 12l-51 197 h-6l-48 -181q-4 -17 -13.5 -22.5t-29.5 -5.5q-23 0 -30 7t-10 24l-64 356q-15 0 -22 0.5t-14.5 2t-10 6t-2.5 12.5zM141 563q0 16 10.5 26.5t25.5 10.5t25.5 -10.5t10.5 -26.5q0 -15 -10.5 -25.5t-25.5 -10.5t-25.5 10.5t-10.5 25.5zM312 563q0 16 10.5 26.5t25.5 10.5 t25.5 -10.5t10.5 -26.5q0 -15 -10.5 -25.5t-25.5 -10.5t-25.5 10.5t-10.5 25.5z" />
<glyph unicode="&#x1e92;" d="M51 25q0 13 9 26l351 518h-297v-66q0 -10 -1 -15.5t-7 -11t-18 -5.5t-17.5 6t-6.5 11t-1 15v76q0 19 6.5 25.5t26.5 6.5h345q10 0 15 -1t11 -6.5t6 -17.5q0 -13 -9 -26l-351 -518h314v85q0 10 1 15.5t7 11t18 5.5q17 0 21 -8.5t4 -23.5v-95q0 -19 -6 -25.5t-25 -6.5h-364 q-10 0 -15 1t-11 6.5t-6 17.5zM222 -165q0 17 12 29t29 12t29 -12t12 -29q0 -18 -12 -30t-29 -12t-29 12t-12 30z" />
<glyph unicode="&#x1e93;" d="M36 25q0 11 3 16.5t16 17.5l341 324h-293v-38q0 -10 -1 -15.5t-7 -11t-18 -5.5q-17 0 -21 8.5t-4 23.5v48q0 19 6 25.5t26 6.5h352q10 0 15 -1t11 -6.5t6 -17.5q0 -10 -3 -15.5t-17 -18.5l-341 -324h314v50q0 10 1 15.5t7 11t18 5.5q17 0 21 -8.5t4 -23.5v-60 q0 -27 -14 -32h-390q-10 0 -15.5 1t-11 6.5t-5.5 17.5zM222 -165q0 17 12 29t29 12t29 -12t12 -29q0 -18 -12 -30t-29 -12t-29 12t-12 30z" />
<glyph unicode="&#x1e97;" d="M27 403q0 22 32 22h101v95q0 10 1 15.5t6.5 11t17.5 5.5q17 0 21 -8.5t4 -23.5v-95h180q31 0 31 -22q0 -20 -31 -20h-180v-257q0 -13 0.5 -21t5.5 -22.5t13.5 -23.5t26.5 -16t44 -7q18 0 36.5 5t38 26t19.5 54q0 9 1 14t6.5 10t17.5 5t18 -5t7 -10t1 -15q0 -60 -45.5 -93 t-104.5 -33q-58 0 -96.5 31t-38.5 95v263h-102q-31 0 -31 20zM49 639q0 16 10.5 26t25.5 10t25.5 -10t10.5 -26q0 -15 -10.5 -25.5t-25.5 -10.5t-25.5 10.5t-10.5 25.5zM250 639q0 16 10.5 26t25.5 10t25.5 -10t10.5 -26q0 -15 -10.5 -25.5t-25.5 -10.5t-25.5 10.5 t-10.5 25.5z" />
<glyph unicode="&#x1ea0;" d="M29 21q0 6 1 9.5t4.5 6t6.5 4t9.5 1.5h11h13h14.5l127 550q4 15 11 22t13.5 8t21.5 1q16 0 22.5 -1t13 -8.5t10.5 -22.5l127 -549h14.5h13.5h10.5t9.5 -1.5t6.5 -4t4.5 -6.5t1 -9q0 -21 -35 -21h-105q-33 0 -33 21q0 15 12 18t48 3l-28 129h-184l-28 -129q36 0 48 -3 t12 -18q0 -21 -33 -21h-106q-34 0 -34 21zM181 213h162l-77 368h-7zM222 -165q0 17 12 29t29 12t29 -12t12 -29q0 -18 -12 -30t-29 -12t-29 12t-12 30z" />
<glyph unicode="&#x1ea1;" d="M58 122q0 69 83 105.5t227 38.5q0 126 -142 126q-69 0 -69 -23q-1 -20 -12.5 -28.5t-23.5 -8.5q-15 0 -25.5 10t-10.5 27q0 65 140 65q97 0 145.5 -45t48.5 -105v-230q32 -12 72 -12q32 0 32 -20q0 -10 -7 -15.5t-14 -6t-21 -0.5q-25 0 -40 1t-36 10t-33 26 q-66 -43 -153 -43q-72 0 -116.5 38t-44.5 90zM109 122q0 -35 32.5 -60.5t84.5 -25.5q57 0 96 19q22 10 32.5 23t12 22.5t1.5 27.5v98q-122 -4 -190.5 -33t-68.5 -71zM222 -165q0 17 12 29t29 12t29 -12t12 -29q0 -18 -12 -30t-29 -12t-29 12t-12 30z" />
<glyph unicode="&#x1ea2;" d="M29 21q0 6 1 9.5t4.5 6t6.5 4t9.5 1.5h11h13h14.5l127 550q4 15 11 22t13.5 8t21.5 1q16 0 22.5 -1t13 -8.5t10.5 -22.5l127 -549h14.5h13.5h10.5t9.5 -1.5t6.5 -4t4.5 -6.5t1 -9q0 -21 -35 -21h-105q-33 0 -33 21q0 15 12 18t48 3l-28 129h-184l-28 -129q36 0 48 -3 t12 -18q0 -21 -33 -21h-106q-34 0 -34 21zM171 818q0 32 25 52.5t59 20.5q42 0 70.5 -18.5t28.5 -53.5t-31 -50q-50 -27 -50 -58v-19q0 -8 -5.5 -13t-12.5 -5q-8 0 -13.5 5t-5.5 13v19q0 52 70 91l11 14q0 38 -62 38q-18 0 -31.5 -11t-13.5 -25q0 -6 -4.5 -12.5t-14.5 -6.5 q-20 0 -20 19zM181 213h162l-77 368h-7z" />
<glyph unicode="&#x1ea3;" d="M58 122q0 69 83 105.5t227 38.5q0 126 -142 126q-69 0 -69 -23q-1 -20 -12.5 -28.5t-23.5 -8.5q-15 0 -25.5 10t-10.5 27q0 65 140 65q97 0 145.5 -45t48.5 -105v-230q32 -12 72 -12q32 0 32 -20q0 -10 -7 -15.5t-14 -6t-21 -0.5q-25 0 -40 1t-36 10t-33 26 q-66 -43 -153 -43q-72 0 -116.5 38t-44.5 90zM109 122q0 -35 32.5 -60.5t84.5 -25.5q57 0 96 19q22 10 32.5 23t12 22.5t1.5 27.5v98q-122 -4 -190.5 -33t-68.5 -71zM171 599q0 32 25 52.5t59 20.5q42 0 70.5 -18.5t28.5 -53.5q0 -34 -31 -50q-50 -27 -50 -58v-19 q0 -7 -5.5 -12.5t-12.5 -5.5q-8 0 -13.5 5t-5.5 13v19q0 52 70 91l11 14q0 38 -62 38q-18 0 -31.5 -11t-13.5 -25q0 -6 -4.5 -12.5t-14.5 -6.5q-20 0 -20 19z" />
<glyph unicode="&#x1ea4;" d="M29 21q0 6 1 9.5t4.5 6t6.5 4t9.5 1.5h11h13h14.5l127 550q4 15 11 22t13.5 8t21.5 1q16 0 22.5 -1t13 -8.5t10.5 -22.5l127 -549h14.5h13.5h10.5t9.5 -1.5t6.5 -4t4.5 -6.5t1 -9q0 -21 -35 -21h-105q-33 0 -33 21q0 15 12 18t48 3l-28 129h-184l-28 -129q36 0 48 -3 t12 -18q0 -21 -33 -21h-106q-34 0 -34 21zM119 685q0 14 22 22l109 40q13 4 26 0l107 -40q22 -8 22 -22q0 -22 -24 -22q-7 0 -30 7l-89 30l-89 -30q-23 -7 -30 -7q-24 0 -24 22zM163 800q0 12 19 21l138 62l15 4q11 0 18.5 -7.5t7.5 -18.5q0 -16 -23 -26l-144 -64l-7 -2 q-13 0 -18.5 11t-5.5 20zM181 213h162l-77 368h-7z" />
<glyph unicode="&#x1ea5;" d="M58 122q0 69 83 105.5t227 38.5q0 126 -142 126q-69 0 -69 -23q-1 -20 -12.5 -28.5t-23.5 -8.5q-15 0 -25.5 10t-10.5 27q0 65 140 65q97 0 145.5 -45t48.5 -105v-230q32 -12 72 -12q32 0 32 -20q0 -10 -7 -15.5t-14 -6t-21 -0.5q-25 0 -40 1t-36 10t-33 26 q-66 -43 -153 -43q-72 0 -116.5 38t-44.5 90zM109 122q0 -35 32.5 -60.5t84.5 -25.5q57 0 96 19q22 10 32.5 23t12 22.5t1.5 27.5v98q-122 -4 -190.5 -33t-68.5 -71zM119 528q0 14 22 22l109 40q13 4 26 0l107 -40q22 -8 22 -22q0 -22 -24 -22q-7 0 -30 7l-89 30l-89 -30 q-23 -7 -30 -7q-24 0 -24 22zM163 643q0 11 19 21l138 62l15 4q11 0 18.5 -7.5t7.5 -18.5q0 -16 -23 -26l-144 -64l-7 -2q-13 0 -18.5 11t-5.5 20z" />
<glyph unicode="&#x1ea6;" d="M29 21q0 6 1 9.5t4.5 6t6.5 4t9.5 1.5h11h13h14.5l127 550q4 15 11 22t13.5 8t21.5 1q16 0 22.5 -1t13 -8.5t10.5 -22.5l127 -549h14.5h13.5h10.5t9.5 -1.5t6.5 -4t4.5 -6.5t1 -9q0 -21 -35 -21h-105q-33 0 -33 21q0 15 12 18t48 3l-28 129h-184l-28 -129q36 0 48 -3 t12 -18q0 -21 -33 -21h-106q-34 0 -34 21zM119 685q0 14 22 22l109 40q13 4 26 0l107 -40q22 -8 22 -22q0 -22 -24 -22q-7 0 -30 7l-89 30l-89 -30q-23 -7 -30 -7q-24 0 -24 22zM163 861q0 11 7.5 18.5t18.5 7.5q6 0 15 -4l138 -62q19 -9 19 -21q0 -9 -5.5 -20t-18.5 -11 q-5 1 -7 2l-144 64q-23 10 -23 26zM181 213h162l-77 368h-7z" />
<glyph unicode="&#x1ea7;" d="M58 122q0 69 83 105.5t227 38.5q0 126 -142 126q-69 0 -69 -23q-1 -20 -12.5 -28.5t-23.5 -8.5q-15 0 -25.5 10t-10.5 27q0 65 140 65q97 0 145.5 -45t48.5 -105v-230q32 -12 72 -12q32 0 32 -20q0 -10 -7 -15.5t-14 -6t-21 -0.5q-25 0 -40 1t-36 10t-33 26 q-66 -43 -153 -43q-72 0 -116.5 38t-44.5 90zM109 122q0 -35 32.5 -60.5t84.5 -25.5q57 0 96 19q22 10 32.5 23t12 22.5t1.5 27.5v98q-122 -4 -190.5 -33t-68.5 -71zM119 528q0 14 22 22l109 40q13 4 26 0l107 -40q22 -8 22 -22q0 -22 -24 -22q-7 0 -30 7l-89 30l-89 -30 q-23 -7 -30 -7q-24 0 -24 22zM163 704q0 11 7.5 18.5t18.5 7.5q6 0 15 -4l138 -62q19 -10 19 -21q0 -9 -5.5 -20t-18.5 -11q-5 1 -7 2l-144 64q-23 10 -23 26z" />
<glyph unicode="&#x1ea8;" d="M29 21q0 6 1 9.5t4.5 6t6.5 4t9.5 1.5h11h13h14.5l127 550q4 15 11 22t13.5 8t21.5 1q16 0 22.5 -1t13 -8.5t10.5 -22.5l127 -549h14.5h13.5h10.5t9.5 -1.5t6.5 -4t4.5 -6.5t1 -9q0 -21 -35 -21h-105q-33 0 -33 21q0 15 12 18t48 3l-28 129h-184l-28 -129q36 0 48 -3 t12 -18q0 -21 -33 -21h-106q-34 0 -34 21zM119 685q0 14 22 22l109 40q13 4 26 0l107 -40q22 -8 22 -22q0 -22 -24 -22q-7 0 -30 7l-89 30l-89 -30q-23 -7 -30 -7q-24 0 -24 22zM181 213h162l-77 368h-7zM262 893q0 32 25 52.5t59 20.5q42 0 70.5 -18.5t28.5 -53.5 q0 -34 -31 -50q-50 -27 -50 -58v-19q0 -7 -5 -12.5t-13 -5.5t-13.5 5t-5.5 13v19q0 52 70 91l11 14q0 38 -62 38q-18 0 -31.5 -11t-13.5 -25q0 -6 -4.5 -12.5t-14.5 -6.5q-20 0 -20 19z" />
<glyph unicode="&#x1ea9;" d="M58 122q0 69 83 105.5t227 38.5q0 126 -142 126q-69 0 -69 -23q-1 -20 -12.5 -28.5t-23.5 -8.5q-15 0 -25.5 10t-10.5 27q0 65 140 65q97 0 145.5 -45t48.5 -105v-230q32 -12 72 -12q32 0 32 -20q0 -10 -7 -15.5t-14 -6t-21 -0.5q-25 0 -40 1t-36 10t-33 26 q-66 -43 -153 -43q-72 0 -116.5 38t-44.5 90zM109 122q0 -35 32.5 -60.5t84.5 -25.5q57 0 96 19q22 10 32.5 23t12 22.5t1.5 27.5v98q-122 -4 -190.5 -33t-68.5 -71zM119 528q0 14 22 22l109 40q13 4 26 0l107 -40q22 -8 22 -22q0 -22 -24 -22q-7 0 -30 7l-89 30l-89 -30 q-23 -7 -30 -7q-24 0 -24 22zM262 736q0 32 25 52.5t59 20.5q42 0 70.5 -18.5t28.5 -53.5t-31 -50q-50 -27 -50 -58v-19q0 -8 -5 -13t-13 -5t-13.5 5t-5.5 13v19q0 52 70 91l11 14q0 38 -62 38q-18 0 -31.5 -11t-13.5 -25q0 -6 -4.5 -12.5t-14.5 -6.5q-20 0 -20 19z" />
<glyph unicode="&#x1eaa;" d="M29 21q0 6 1 9.5t4.5 6t6.5 4t9.5 1.5h11h13h14.5l127 550q4 15 11 22t13.5 8t21.5 1q16 0 22.5 -1t13 -8.5t10.5 -22.5l127 -549h14.5h13.5h10.5t9.5 -1.5t6.5 -4t4.5 -6.5t1 -9q0 -21 -35 -21h-105q-33 0 -33 21q0 15 12 18t48 3l-28 129h-184l-28 -129q36 0 48 -3 t12 -18q0 -21 -33 -21h-106q-34 0 -34 21zM91 811q0 12 47 49q44 32 74 32q23 0 47 -18q2 -2 7 -6q37 -32 48 -33q26 0 79 48q9 9 18 9q8 0 15 -7t7 -16q0 -14 -47 -48q-41 -32 -74 -32q-25 0 -47 18q-26 24 -36 31t-19 7q-28 0 -79 -48q-10 -8 -18 -8t-15 7t-7 15zM119 685 q0 14 22 22l109 40q13 4 26 0l107 -40q22 -8 22 -22q0 -22 -24 -22q-7 0 -30 7l-89 30l-89 -30q-23 -7 -30 -7q-24 0 -24 22zM181 213h162l-77 368h-7z" />
<glyph unicode="&#x1eab;" d="M58 122q0 69 83 105.5t227 38.5q0 126 -142 126q-69 0 -69 -23q-1 -20 -12.5 -28.5t-23.5 -8.5q-15 0 -25.5 10t-10.5 27q0 65 140 65q97 0 145.5 -45t48.5 -105v-230q32 -12 72 -12q32 0 32 -20q0 -10 -7 -15.5t-14 -6t-21 -0.5q-25 0 -40 1t-36 10t-33 26 q-66 -43 -153 -43q-72 0 -116.5 38t-44.5 90zM91 654q0 12 47 49q44 32 74 32q23 0 47 -18q2 -2 7 -6q37 -32 48 -33q26 0 79 48q9 9 18 9q8 0 15 -7t7 -16q0 -14 -47 -48q-41 -32 -74 -32q-25 0 -47 18q-26 24 -36 31t-19 7q-28 0 -79 -48q-10 -8 -18 -8t-15 7t-7 15z M109 122q0 -35 32.5 -60.5t84.5 -25.5q57 0 96 19q22 10 32.5 23t12 22.5t1.5 27.5v98q-122 -4 -190.5 -33t-68.5 -71zM119 528q0 14 22 22l109 40q13 4 26 0l107 -40q22 -8 22 -22q0 -22 -24 -22q-7 0 -30 7l-89 30l-89 -30q-23 -7 -30 -7q-24 0 -24 22z" />
<glyph unicode="&#x1eac;" d="M29 21q0 6 1 9.5t4.5 6t6.5 4t9.5 1.5h11h13h14.5l127 550q4 15 11 22t13.5 8t21.5 1q16 0 22.5 -1t13 -8.5t10.5 -22.5l127 -549h14.5h13.5h10.5t9.5 -1.5t6.5 -4t4.5 -6.5t1 -9q0 -21 -35 -21h-105q-33 0 -33 21q0 15 12 18t48 3l-28 129h-184l-28 -129q36 0 48 -3 t12 -18q0 -21 -33 -21h-106q-34 0 -34 21zM119 685q0 14 22 22l109 40q13 4 26 0l107 -40q22 -8 22 -22q0 -22 -24 -22q-7 0 -30 7l-89 30l-89 -30q-23 -7 -30 -7q-24 0 -24 22zM181 213h162l-77 368h-7zM222 -165q0 17 12 29t29 12t29 -12t12 -29q0 -18 -12 -30t-29 -12 t-29 12t-12 30z" />
<glyph unicode="&#x1ead;" d="M58 122q0 69 83 105.5t227 38.5q0 126 -142 126q-69 0 -69 -23q-1 -20 -12.5 -28.5t-23.5 -8.5q-15 0 -25.5 10t-10.5 27q0 65 140 65q97 0 145.5 -45t48.5 -105v-230q32 -12 72 -12q32 0 32 -20q0 -10 -7 -15.5t-14 -6t-21 -0.5q-25 0 -40 1t-36 10t-33 26 q-66 -43 -153 -43q-72 0 -116.5 38t-44.5 90zM109 122q0 -35 32.5 -60.5t84.5 -25.5q57 0 96 19q22 10 32.5 23t12 22.5t1.5 27.5v98q-122 -4 -190.5 -33t-68.5 -71zM120 528q0 8 22 22l103 66q17 11 34 0l105 -66q22 -14 22 -22q0 -22 -24 -22q-5 0 -30 15l-89 54l-89 -54 q-25 -15 -30 -15q-24 0 -24 22zM222 -165q0 17 12 29t29 12t29 -12t12 -29q0 -18 -12 -30t-29 -12t-29 12t-12 30z" />
<glyph unicode="&#x1eae;" d="M29 21q0 6 1 9.5t4.5 6t6.5 4t9.5 1.5h11h13h14.5l127 550q4 15 11 22t13.5 8t21.5 1q16 0 22.5 -1t13 -8.5t10.5 -22.5l127 -549h14.5h13.5h10.5t9.5 -1.5t6.5 -4t4.5 -6.5t1 -9q0 -21 -35 -21h-105q-33 0 -33 21q0 15 12 18t48 3l-28 129h-184l-28 -129q36 0 48 -3 t12 -18q0 -21 -33 -21h-106q-34 0 -34 21zM91 747q0 22 22 22q14 0 18 -11q11 -40 132 -40t132 40q4 11 18 11q22 0 22 -22q0 -21 -12.5 -36t-28.5 -22t-44 -11t-44 -4.5t-43 -0.5t-43 0.5t-44 4.5t-44 11t-28.5 22t-12.5 36zM164 820q0 12 19 21l138 62l15 4 q11 0 18.5 -7.5t7.5 -18.5q0 -16 -23 -26l-144 -64l-7 -2q-13 0 -18.5 11t-5.5 20zM181 213h162l-77 368h-7z" />
<glyph unicode="&#x1eaf;" d="M58 122q0 69 83 105.5t227 38.5q0 126 -142 126q-69 0 -69 -23q-1 -20 -12.5 -28.5t-23.5 -8.5q-15 0 -25.5 10t-10.5 27q0 65 140 65q97 0 145.5 -45t48.5 -105v-230q32 -12 72 -12q32 0 32 -20q0 -10 -7 -15.5t-14 -6t-21 -0.5q-25 0 -40 1t-36 10t-33 26 q-66 -43 -153 -43q-72 0 -116.5 38t-44.5 90zM91 590q0 22 22 22q14 0 18 -11q11 -40 132 -40t132 40q4 11 18 11q22 0 22 -22q0 -21 -12.5 -36t-28.5 -22t-44 -11t-44 -4.5t-43 -0.5t-43 0.5t-44 4.5t-44 11t-28.5 22t-12.5 36zM109 122q0 -35 32.5 -60.5t84.5 -25.5 q57 0 96 19q22 10 32.5 23t12 22.5t1.5 27.5v98q-122 -4 -190.5 -33t-68.5 -71zM164 663q0 11 19 21l138 62l15 4q11 0 18.5 -7.5t7.5 -18.5q0 -16 -23 -26l-144 -64l-7 -2q-13 0 -18.5 11t-5.5 20z" />
<glyph unicode="&#x1eb0;" d="M29 21q0 6 1 9.5t4.5 6t6.5 4t9.5 1.5h11h13h14.5l127 550q4 15 11 22t13.5 8t21.5 1q16 0 22.5 -1t13 -8.5t10.5 -22.5l127 -549h14.5h13.5h10.5t9.5 -1.5t6.5 -4t4.5 -6.5t1 -9q0 -21 -35 -21h-105q-33 0 -33 21q0 15 12 18t48 3l-28 129h-184l-28 -129q36 0 48 -3 t12 -18q0 -21 -33 -21h-106q-34 0 -34 21zM91 747q0 22 22 22q14 0 18 -11q11 -40 132 -40t132 40q4 11 18 11q22 0 22 -22q0 -21 -12.5 -36t-28.5 -22t-44 -11t-44 -4.5t-43 -0.5t-43 0.5t-44 4.5t-44 11t-28.5 22t-12.5 36zM164 881q0 11 7.5 18.5t18.5 7.5q6 0 15 -4 l138 -62q19 -9 19 -21q0 -9 -5.5 -20t-18.5 -11q-5 1 -7 2l-144 64q-23 10 -23 26zM181 213h162l-77 368h-7z" />
<glyph unicode="&#x1eb1;" d="M58 122q0 69 83 105.5t227 38.5q0 126 -142 126q-69 0 -69 -23q-1 -20 -12.5 -28.5t-23.5 -8.5q-15 0 -25.5 10t-10.5 27q0 65 140 65q97 0 145.5 -45t48.5 -105v-230q32 -12 72 -12q32 0 32 -20q0 -10 -7 -15.5t-14 -6t-21 -0.5q-25 0 -40 1t-36 10t-33 26 q-66 -43 -153 -43q-72 0 -116.5 38t-44.5 90zM91 590q0 22 22 22q14 0 18 -11q11 -40 132 -40t132 40q4 11 18 11q22 0 22 -22q0 -21 -12.5 -36t-28.5 -22t-44 -11t-44 -4.5t-43 -0.5t-43 0.5t-44 4.5t-44 11t-28.5 22t-12.5 36zM109 122q0 -35 32.5 -60.5t84.5 -25.5 q57 0 96 19q22 10 32.5 23t12 22.5t1.5 27.5v98q-122 -4 -190.5 -33t-68.5 -71zM164 724q0 11 7.5 18.5t18.5 7.5q6 0 15 -4l138 -62q19 -10 19 -21q0 -9 -5.5 -20t-18.5 -11q-5 1 -7 2l-144 64q-23 10 -23 26z" />
<glyph unicode="&#x1eb2;" d="M29 21q0 6 1 9.5t4.5 6t6.5 4t9.5 1.5h11h13h14.5l127 550q4 15 11 22t13.5 8t21.5 1q16 0 22.5 -1t13 -8.5t10.5 -22.5l127 -549h14.5h13.5h10.5t9.5 -1.5t6.5 -4t4.5 -6.5t1 -9q0 -21 -35 -21h-105q-33 0 -33 21q0 15 12 18t48 3l-28 129h-184l-28 -129q36 0 48 -3 t12 -18q0 -21 -33 -21h-106q-34 0 -34 21zM91 747q0 22 22 22q14 0 18 -11q11 -40 132 -40t132 40q4 11 18 11q22 0 22 -22q0 -21 -12.5 -36t-28.5 -22t-44 -11t-44 -4.5t-43 -0.5t-43 0.5t-44 4.5t-44 11t-28.5 22t-12.5 36zM172 913q0 32 25 52.5t59 20.5q42 0 70.5 -18.5 t28.5 -53.5q0 -34 -31 -50q-50 -27 -50 -58v-19q0 -7 -5 -12.5t-13 -5.5t-13.5 5t-5.5 13v19q0 52 70 91l11 14q0 38 -62 38q-18 0 -31.5 -11t-13.5 -25q0 -6 -4.5 -12.5t-14.5 -6.5q-20 0 -20 19zM181 213h162l-77 368h-7z" />
<glyph unicode="&#x1eb3;" d="M58 122q0 69 83 105.5t227 38.5q0 126 -142 126q-69 0 -69 -23q-1 -20 -12.5 -28.5t-23.5 -8.5q-15 0 -25.5 10t-10.5 27q0 65 140 65q97 0 145.5 -45t48.5 -105v-230q32 -12 72 -12q32 0 32 -20q0 -10 -7 -15.5t-14 -6t-21 -0.5q-25 0 -40 1t-36 10t-33 26 q-66 -43 -153 -43q-72 0 -116.5 38t-44.5 90zM91 590q0 22 22 22q14 0 18 -11q11 -40 132 -40t132 40q4 11 18 11q22 0 22 -22q0 -21 -12.5 -36t-28.5 -22t-44 -11t-44 -4.5t-43 -0.5t-43 0.5t-44 4.5t-44 11t-28.5 22t-12.5 36zM109 122q0 -35 32.5 -60.5t84.5 -25.5 q57 0 96 19q22 10 32.5 23t12 22.5t1.5 27.5v98q-122 -4 -190.5 -33t-68.5 -71zM172 756q0 32 25 52.5t59 20.5q42 0 70.5 -18.5t28.5 -53.5t-31 -50q-50 -27 -50 -58v-19q0 -8 -5 -13t-13 -5t-13.5 5t-5.5 13v19q0 52 70 91l11 14q0 38 -62 38q-18 0 -31.5 -11t-13.5 -25 q0 -6 -4.5 -12.5t-14.5 -6.5q-20 0 -20 19z" />
<glyph unicode="&#x1eb4;" d="M29 21q0 6 1 9.5t4.5 6t6.5 4t9.5 1.5h11h13h14.5l127 550q4 15 11 22t13.5 8t21.5 1q16 0 22.5 -1t13 -8.5t10.5 -22.5l127 -549h14.5h13.5h10.5t9.5 -1.5t6.5 -4t4.5 -6.5t1 -9q0 -21 -35 -21h-105q-33 0 -33 21q0 15 12 18t48 3l-28 129h-184l-28 -129q36 0 48 -3 t12 -18q0 -21 -33 -21h-106q-34 0 -34 21zM91 747q0 22 22 22q14 0 18 -11q11 -40 132 -40t132 40q4 11 18 11q22 0 22 -22q0 -21 -12.5 -36t-28.5 -22t-44 -11t-44 -4.5t-43 -0.5t-43 0.5t-44 4.5t-44 11t-28.5 22t-12.5 36zM92 831q0 12 47 49q44 32 74 32q23 0 47 -18 q2 -2 7 -6q37 -32 48 -33q26 0 79 48q9 9 18 9q8 0 15 -7t7 -16q0 -14 -47 -48q-41 -32 -74 -32q-25 0 -47 18q-26 24 -36 31t-19 7q-28 0 -79 -48q-10 -8 -18 -8t-15 7t-7 15zM181 213h162l-77 368h-7z" />
<glyph unicode="&#x1eb5;" d="M58 122q0 69 83 105.5t227 38.5q0 126 -142 126q-69 0 -69 -23q-1 -20 -12.5 -28.5t-23.5 -8.5q-15 0 -25.5 10t-10.5 27q0 65 140 65q97 0 145.5 -45t48.5 -105v-230q32 -12 72 -12q32 0 32 -20q0 -10 -7 -15.5t-14 -6t-21 -0.5q-25 0 -40 1t-36 10t-33 26 q-66 -43 -153 -43q-72 0 -116.5 38t-44.5 90zM91 590q0 22 22 22q14 0 18 -11q11 -40 132 -40t132 40q4 11 18 11q22 0 22 -22q0 -21 -12.5 -36t-28.5 -22t-44 -11t-44 -4.5t-43 -0.5t-43 0.5t-44 4.5t-44 11t-28.5 22t-12.5 36zM92 674q0 12 47 49q44 32 74 32q23 0 47 -18 q2 -2 7 -6q37 -32 48 -33q26 0 79 48q9 9 18 9q8 0 15 -7t7 -16q0 -14 -47 -48q-41 -32 -74 -32q-25 0 -47 18q-26 24 -36 31t-19 7q-28 0 -79 -48q-10 -8 -18 -8t-15 7t-7 15zM109 122q0 -35 32.5 -60.5t84.5 -25.5q57 0 96 19q22 10 32.5 23t12 22.5t1.5 27.5v98 q-122 -4 -190.5 -33t-68.5 -71z" />
<glyph unicode="&#x1eb6;" d="M29 21q0 6 1 9.5t4.5 6t6.5 4t9.5 1.5h11h13h14.5l127 550q4 15 11 22t13.5 8t21.5 1q16 0 22.5 -1t13 -8.5t10.5 -22.5l127 -549h14.5h13.5h10.5t9.5 -1.5t6.5 -4t4.5 -6.5t1 -9q0 -21 -35 -21h-105q-33 0 -33 21q0 15 12 18t48 3l-28 129h-184l-28 -129q36 0 48 -3 t12 -18q0 -21 -33 -21h-106q-34 0 -34 21zM91 747q0 22 22 22q14 0 18 -11q11 -40 132 -40t132 40q4 11 18 11q22 0 22 -22q0 -21 -12.5 -36t-28.5 -22t-44 -11t-44 -4.5t-43 -0.5t-43 0.5t-44 4.5t-44 11t-28.5 22t-12.5 36zM181 213h162l-77 368h-7zM222 -165q0 17 12 29 t29 12t29 -12t12 -29q0 -18 -12 -30t-29 -12t-29 12t-12 30z" />
<glyph unicode="&#x1eb7;" d="M58 122q0 69 83 105.5t227 38.5q0 126 -142 126q-69 0 -69 -23q-1 -20 -12.5 -28.5t-23.5 -8.5q-15 0 -25.5 10t-10.5 27q0 65 140 65q97 0 145.5 -45t48.5 -105v-230q32 -12 72 -12q32 0 32 -20q0 -10 -7 -15.5t-14 -6t-21 -0.5q-25 0 -40 1t-36 10t-33 26 q-66 -43 -153 -43q-72 0 -116.5 38t-44.5 90zM91 590q0 22 22 22q14 0 18 -11q11 -40 132 -40t132 40q4 11 18 11q22 0 22 -22q0 -21 -12.5 -36t-28.5 -22t-44 -11t-44 -4.5t-43 -0.5t-43 0.5t-44 4.5t-44 11t-28.5 22t-12.5 36zM109 122q0 -35 32.5 -60.5t84.5 -25.5 q57 0 96 19q22 10 32.5 23t12 22.5t1.5 27.5v98q-122 -4 -190.5 -33t-68.5 -71zM222 -165q0 17 12 29t29 12t29 -12t12 -29q0 -18 -12 -30t-29 -12t-29 12t-12 30z" />
<glyph unicode="&#x1eb8;" d="M28 21q0 21 32 21h42v527h-42q-32 0 -32 21t32 21h386q19 0 25 -6.5t6 -25.5v-76q0 -10 -1 -15.5t-7 -11t-18 -5.5q-17 0 -21 8.5t-4 23.5v66h-274v-231h157q0 26 1 36t6.5 16.5t17.5 6.5t17.5 -6t6.5 -11t1 -15v-96q0 -10 -1 -15.5t-6.5 -11t-17.5 -5.5q-17 0 -21 11 t-4 48h-157v-254h297v82q0 10 1 15.5t7 11t18 5.5q17 0 21 -8t4 -24v-92q0 -19 -6 -25.5t-25 -6.5h-409q-32 0 -32 21zM222 -165q0 17 12 29t29 12t29 -12t12 -29q0 -18 -12 -30t-29 -12t-29 12t-12 30z" />
<glyph unicode="&#x1eb9;" d="M58 214q0 91 62 155.5t150 64.5q92 0 141 -60t49 -149q0 -13 -5 -19.5t-10 -7.5t-16 -1h-320q14 -76 66.5 -118.5t117.5 -42.5q87 0 120 74q4 11 22 11q25 0 25 -19q0 -11 -10 -27.5t-29 -35.5t-55 -32t-80 -13q-96 0 -162 64.5t-66 155.5zM110 239h299q-5 59 -28.5 95 t-50.5 47t-60 11q-58 0 -102.5 -42t-57.5 -111zM222 -165q0 17 12 29t29 12t29 -12t12 -29q0 -18 -12 -30t-29 -12t-29 12t-12 30z" />
<glyph unicode="&#x1eba;" d="M28 21q0 21 32 21h42v527h-42q-32 0 -32 21t32 21h386q19 0 25 -6.5t6 -25.5v-76q0 -10 -1 -15.5t-7 -11t-18 -5.5q-17 0 -21 8.5t-4 23.5v66h-274v-231h157q0 26 1 36t6.5 16.5t17.5 6.5t17.5 -6t6.5 -11t1 -15v-96q0 -10 -1 -15.5t-6.5 -11t-17.5 -5.5q-17 0 -21 11 t-4 48h-157v-254h297v82q0 10 1 15.5t7 11t18 5.5q17 0 21 -8t4 -24v-92q0 -19 -6 -25.5t-25 -6.5h-409q-32 0 -32 21zM171 818q0 32 25 52.5t59 20.5q42 0 70.5 -18.5t28.5 -53.5t-31 -50q-50 -27 -50 -58v-19q0 -8 -5.5 -13t-12.5 -5q-8 0 -13.5 5t-5.5 13v19q0 52 70 91 l11 14q0 38 -62 38q-18 0 -31.5 -11t-13.5 -25q0 -6 -4.5 -12.5t-14.5 -6.5q-20 0 -20 19z" />
<glyph unicode="&#x1ebb;" d="M58 214q0 91 62 155.5t150 64.5q92 0 141 -60t49 -149q0 -13 -5 -19.5t-10 -7.5t-16 -1h-320q14 -76 66.5 -118.5t117.5 -42.5q87 0 120 74q4 11 22 11q25 0 25 -19q0 -11 -10 -27.5t-29 -35.5t-55 -32t-80 -13q-96 0 -162 64.5t-66 155.5zM110 239h299q-5 59 -28.5 95 t-50.5 47t-60 11q-58 0 -102.5 -42t-57.5 -111zM171 599q0 32 25 52.5t59 20.5q42 0 70.5 -18.5t28.5 -53.5q0 -34 -31 -50q-50 -27 -50 -58v-19q0 -7 -5.5 -12.5t-12.5 -5.5q-8 0 -13.5 5t-5.5 13v19q0 52 70 91l11 14q0 38 -62 38q-18 0 -31.5 -11t-13.5 -25 q0 -6 -4.5 -12.5t-14.5 -6.5q-20 0 -20 19z" />
<glyph unicode="&#x1ebc;" d="M28 21q0 21 32 21h42v527h-42q-32 0 -32 21t32 21h386q19 0 25 -6.5t6 -25.5v-76q0 -10 -1 -15.5t-7 -11t-18 -5.5q-17 0 -21 8.5t-4 23.5v66h-274v-231h157q0 26 1 36t6.5 16.5t17.5 6.5t17.5 -6t6.5 -11t1 -15v-96q0 -10 -1 -15.5t-6.5 -11t-17.5 -5.5q-17 0 -21 11 t-4 48h-157v-254h297v82q0 10 1 15.5t7 11t18 5.5q17 0 21 -8t4 -24v-92q0 -19 -6 -25.5t-25 -6.5h-409q-32 0 -32 21zM92 685q0 12 47 49q44 32 74 32q23 0 47 -18q2 -2 7 -6q37 -32 48 -33q26 0 79 48q9 9 18 9q8 0 15 -7t7 -16q0 -14 -47 -48q-41 -32 -74 -32 q-25 0 -47 18q-26 24 -36 31t-19 7q-28 0 -79 -48q-10 -8 -18 -8t-15 7t-7 15z" />
<glyph unicode="&#x1ebd;" d="M58 214q0 91 62 155.5t150 64.5q92 0 141 -60t49 -149q0 -13 -5 -19.5t-10 -7.5t-16 -1h-320q14 -76 66.5 -118.5t117.5 -42.5q87 0 120 74q4 11 22 11q25 0 25 -19q0 -11 -10 -27.5t-29 -35.5t-55 -32t-80 -13q-96 0 -162 64.5t-66 155.5zM92 534q0 12 47 49 q44 32 74 32q23 0 47 -18q2 -2 7 -6q37 -32 48 -33q26 0 79 48q9 9 18 9q8 0 15 -7t7 -16q0 -14 -47 -48q-44 -32 -74 -32q-25 0 -47 18q-2 2 -7 6q-37 32 -48 33q-27 0 -79 -49q-10 -8 -18 -8t-15 7t-7 15zM110 239h299q-5 59 -28.5 95t-50.5 47t-60 11q-58 0 -102.5 -42 t-57.5 -111z" />
<glyph unicode="&#x1ebe;" d="M28 21q0 21 32 21h42v527h-42q-32 0 -32 21t32 21h386q19 0 25 -6.5t6 -25.5v-76q0 -10 -1 -15.5t-7 -11t-18 -5.5q-17 0 -21 8.5t-4 23.5v66h-274v-231h157q0 26 1 36t6.5 16.5t17.5 6.5t17.5 -6t6.5 -11t1 -15v-96q0 -10 -1 -15.5t-6.5 -11t-17.5 -5.5q-17 0 -21 11 t-4 48h-157v-254h297v82q0 10 1 15.5t7 11t18 5.5q17 0 21 -8t4 -24v-92q0 -19 -6 -25.5t-25 -6.5h-409q-32 0 -32 21zM119 685q0 14 22 22l109 40q13 4 26 0l107 -40q22 -8 22 -22q0 -22 -24 -22q-7 0 -30 7l-89 30l-89 -30q-23 -7 -30 -7q-24 0 -24 22zM163 800 q0 12 19 21l138 62l15 4q11 0 18.5 -7.5t7.5 -18.5q0 -16 -23 -26l-144 -64l-7 -2q-13 0 -18.5 11t-5.5 20z" />
<glyph unicode="&#x1ebf;" d="M58 214q0 91 62 155.5t150 64.5q92 0 141 -60t49 -149q0 -13 -5 -19.5t-10 -7.5t-16 -1h-320q14 -76 66.5 -118.5t117.5 -42.5q87 0 120 74q4 11 22 11q25 0 25 -19q0 -11 -10 -27.5t-29 -35.5t-55 -32t-80 -13q-96 0 -162 64.5t-66 155.5zM110 239h299q-5 59 -28.5 95 t-50.5 47t-60 11q-58 0 -102.5 -42t-57.5 -111zM119 528q0 14 22 22l109 40q13 4 26 0l107 -40q22 -8 22 -22q0 -22 -24 -22q-7 0 -30 7l-89 30l-89 -30q-23 -7 -30 -7q-24 0 -24 22zM163 643q0 11 19 21l138 62l15 4q11 0 18.5 -7.5t7.5 -18.5q0 -16 -23 -26l-144 -64 l-7 -2q-13 0 -18.5 11t-5.5 20z" />
<glyph unicode="&#x1ec0;" d="M28 21q0 21 32 21h42v527h-42q-32 0 -32 21t32 21h386q19 0 25 -6.5t6 -25.5v-76q0 -10 -1 -15.5t-7 -11t-18 -5.5q-17 0 -21 8.5t-4 23.5v66h-274v-231h157q0 26 1 36t6.5 16.5t17.5 6.5t17.5 -6t6.5 -11t1 -15v-96q0 -10 -1 -15.5t-6.5 -11t-17.5 -5.5q-17 0 -21 11 t-4 48h-157v-254h297v82q0 10 1 15.5t7 11t18 5.5q17 0 21 -8t4 -24v-92q0 -19 -6 -25.5t-25 -6.5h-409q-32 0 -32 21zM119 685q0 14 22 22l109 40q13 4 26 0l107 -40q22 -8 22 -22q0 -22 -24 -22q-7 0 -30 7l-89 30l-89 -30q-23 -7 -30 -7q-24 0 -24 22zM163 861 q0 11 7.5 18.5t18.5 7.5q6 0 15 -4l138 -62q19 -9 19 -21q0 -9 -5.5 -20t-18.5 -11q-5 1 -7 2l-144 64q-23 10 -23 26z" />
<glyph unicode="&#x1ec1;" d="M58 214q0 91 62 155.5t150 64.5q92 0 141 -60t49 -149q0 -13 -5 -19.5t-10 -7.5t-16 -1h-320q14 -76 66.5 -118.5t117.5 -42.5q87 0 120 74q4 11 22 11q25 0 25 -19q0 -11 -10 -27.5t-29 -35.5t-55 -32t-80 -13q-96 0 -162 64.5t-66 155.5zM110 239h299q-5 59 -28.5 95 t-50.5 47t-60 11q-58 0 -102.5 -42t-57.5 -111zM119 528q0 14 22 22l109 40q13 4 26 0l107 -40q22 -8 22 -22q0 -22 -24 -22q-7 0 -30 7l-89 30l-89 -30q-23 -7 -30 -7q-24 0 -24 22zM163 704q0 11 7.5 18.5t18.5 7.5q6 0 15 -4l138 -62q19 -10 19 -21q0 -9 -5.5 -20 t-18.5 -11q-5 1 -7 2l-144 64q-23 10 -23 26z" />
<glyph unicode="&#x1ec2;" d="M28 21q0 21 32 21h42v527h-42q-32 0 -32 21t32 21h386q19 0 25 -6.5t6 -25.5v-76q0 -10 -1 -15.5t-7 -11t-18 -5.5q-17 0 -21 8.5t-4 23.5v66h-274v-231h157q0 26 1 36t6.5 16.5t17.5 6.5t17.5 -6t6.5 -11t1 -15v-96q0 -10 -1 -15.5t-6.5 -11t-17.5 -5.5q-17 0 -21 11 t-4 48h-157v-254h297v82q0 10 1 15.5t7 11t18 5.5q17 0 21 -8t4 -24v-92q0 -19 -6 -25.5t-25 -6.5h-409q-32 0 -32 21zM119 685q0 14 22 22l109 40q13 4 26 0l107 -40q22 -8 22 -22q0 -22 -24 -22q-7 0 -30 7l-89 30l-89 -30q-23 -7 -30 -7q-24 0 -24 22zM262 893 q0 32 25 52.5t59 20.5q42 0 70.5 -18.5t28.5 -53.5q0 -34 -31 -50q-50 -27 -50 -58v-19q0 -7 -5 -12.5t-13 -5.5t-13.5 5t-5.5 13v19q0 52 70 91l11 14q0 38 -62 38q-18 0 -31.5 -11t-13.5 -25q0 -6 -4.5 -12.5t-14.5 -6.5q-20 0 -20 19z" />
<glyph unicode="&#x1ec3;" d="M58 214q0 91 62 155.5t150 64.5q92 0 141 -60t49 -149q0 -13 -5 -19.5t-10 -7.5t-16 -1h-320q14 -76 66.5 -118.5t117.5 -42.5q87 0 120 74q4 11 22 11q25 0 25 -19q0 -11 -10 -27.5t-29 -35.5t-55 -32t-80 -13q-96 0 -162 64.5t-66 155.5zM110 239h299q-5 59 -28.5 95 t-50.5 47t-60 11q-58 0 -102.5 -42t-57.5 -111zM119 528q0 14 22 22l109 40q13 4 26 0l107 -40q22 -8 22 -22q0 -22 -24 -22q-7 0 -30 7l-89 30l-89 -30q-23 -7 -30 -7q-24 0 -24 22zM262 736q0 32 25 52.5t59 20.5q42 0 70.5 -18.5t28.5 -53.5t-31 -50q-50 -27 -50 -58v-19 q0 -8 -5 -13t-13 -5t-13.5 5t-5.5 13v19q0 52 70 91l11 14q0 38 -62 38q-18 0 -31.5 -11t-13.5 -25q0 -6 -4.5 -12.5t-14.5 -6.5q-20 0 -20 19z" />
<glyph unicode="&#x1ec4;" d="M28 21q0 21 32 21h42v527h-42q-32 0 -32 21t32 21h386q19 0 25 -6.5t6 -25.5v-76q0 -10 -1 -15.5t-7 -11t-18 -5.5q-17 0 -21 8.5t-4 23.5v66h-274v-231h157q0 26 1 36t6.5 16.5t17.5 6.5t17.5 -6t6.5 -11t1 -15v-96q0 -10 -1 -15.5t-6.5 -11t-17.5 -5.5q-17 0 -21 11 t-4 48h-157v-254h297v82q0 10 1 15.5t7 11t18 5.5q17 0 21 -8t4 -24v-92q0 -19 -6 -25.5t-25 -6.5h-409q-32 0 -32 21zM91 811q0 12 47 49q44 32 74 32q23 0 47 -18q2 -2 7 -6q37 -32 48 -33q26 0 79 48q9 9 18 9q8 0 15 -7t7 -16q0 -14 -47 -48q-41 -32 -74 -32 q-25 0 -47 18q-26 24 -36 31t-19 7q-28 0 -79 -48q-10 -8 -18 -8t-15 7t-7 15zM119 685q0 14 22 22l109 40q13 4 26 0l107 -40q22 -8 22 -22q0 -22 -24 -22q-7 0 -30 7l-89 30l-89 -30q-23 -7 -30 -7q-24 0 -24 22z" />
</font>
</defs>
</svg>
