<?xml version="1.0" standalone="no"?>
<!DOCTYPE svg PUBLIC "-//W3C//DTD SVG 1.1//EN" "http://www.w3.org/Graphics/SVG/1.1/DTD/svg11.dtd" >
<svg xmlns="http://www.w3.org/2000/svg">
<metadata></metadata>
<defs>
<font id="latin_modern_mono_prop_li10Ob" horiz-adv-x="525" >
<font-face units-per-em="1000" ascent="771" descent="-229" />
<missing-glyph horiz-adv-x="350" />
<glyph unicode="IJ" horiz-adv-x="840" d="M43 22q3 22 35 22h70l88 523h-70q-9 0 -14 0.5t-10.5 5.5t-4.5 15q4 23 36 23h192q9 0 14.5 -0.5t10.5 -6t3 -16.5q-3 -21 -35 -21h-70l-88 -523h70q9 0 14.5 -0.5t10.5 -6t4 -15.5q-4 -22 -36 -22h-192q-9 0 -14 0.5t-10.5 6t-3.5 15.5zM410 93q3 18 15.5 28.5 t27.5 10.5t23.5 -10.5t6.5 -25.5q-2 -13 -16 -28q33 -35 95 -35q13 0 28 3t38 11.5t40.5 31.5t23.5 56l72 432h-93q-9 0 -14.5 0.5t-11 6t-4.5 15.5q4 22 37 22h186q9 0 14.5 -0.5t11 -6t3.5 -15.5q-3 -22 -36 -22h-40l-73 -438q-11 -64 -66 -102t-124 -38q-72 0 -112 29 t-32 75z" />
<glyph unicode="ij" horiz-adv-x="583" d="M22 22q3 22 35 22h65l57 337h-60q-9 0 -14.5 0.5t-11 6t-4.5 16.5q4 22 37 22h80q20 0 25 -7t2 -26l-59 -349h55q9 0 14.5 -0.5t11 -6t4.5 -15.5q-4 -22 -36 -22h-173q-9 0 -14 0.5t-10.5 6t-3.5 15.5zM174 551q3 17 17 29.5t33 12.5q17 0 27.5 -12.5t7.5 -29.5 q-2 -16 -16.5 -29t-33.5 -13q-17 0 -27 12.5t-8 29.5zM195 -166q3 17 16 27.5t28 10.5q35 0 28 -47l1 -6q7 -10 37 -10q31 0 54.5 27.5t32.5 54.5t14 55l73 435h-75q-9 0 -14.5 0.5t-11 6t-4.5 16.5q4 22 37 22h95q20 0 25 -7t2 -26l-76 -451q-7 -41 -24 -78.5t-54 -68 t-84 -30.5q-51 0 -78 18.5t-22 50.5zM474 551q3 17 17 29.5t33 12.5q17 0 27.5 -12.5t7.5 -29.5q-2 -16 -16.5 -29t-33.5 -13q-17 0 -27 12.5t-8 29.5z" />
<glyph unicode="fk" horiz-adv-x="855" d="M18 22q3 22 35 22h65l57 337h-54q-8 0 -13.5 0.5t-11 6t-4.5 15.5q4 23 37 23h53l10 62q11 65 82 97t168 32l95 -8l8 2q20 0 13 -33l-64 -385l245 188h-66q-8 0 -13.5 0.5t-11 6t-4.5 15.5q4 23 36 23h169q9 0 14.5 -0.5t11 -6t3.5 -16.5q-3 -22 -36 -22h-43l-165 -126 l135 -211h40q9 0 14.5 -0.5t11 -6t4.5 -15.5q-4 -22 -37 -22h-130q-9 0 -14 0.5t-10.5 6t-3.5 16.5q3 21 35 21h39l-118 185l-114 -89l-16 -96h65q9 0 14 -0.5t10.5 -6t4.5 -15.5q-4 -22 -36 -22h-182q-9 0 -14.5 0.5t-10.5 6t-3 16.5q3 21 35 21h64l57 337h-247l-57 -337 h65q9 0 14.5 -0.5t10.5 -6t4 -15.5q-4 -22 -36 -22h-182q-9 0 -14 0.5t-10.5 6t-3.5 15.5zM234 426h247l18 109q-13 10 -11 35q-27 3 -61 3q-67 0 -110 -17q-30 -12 -47 -26t-20.5 -23t-6.5 -25z" />
<glyph unicode="ff" horiz-adv-x="613" d="M21 22q3 22 35 22h65l57 337h-53q-9 0 -14 0.5t-10.5 6t-4.5 15.5q4 23 37 23h52l10 62q6 34 30 60t59.5 40.5t76 21.5t83.5 7q90 0 113 -34q53 34 112 34q10 0 20 -1t27 -5t26 -16t6 -30q-3 -16 -15 -26t-26 -10q-19 0 -25 15t-3 29q-23 0 -37.5 -2t-37 -9.5t-37 -27.5 t-19.5 -51l-10 -57h92q9 0 14.5 -0.5t10.5 -6t3 -16.5q-3 -22 -35 -22h-92l-57 -337h89q9 0 14.5 -0.5t10.5 -6t4 -15.5q-4 -22 -36 -22h-207q-9 0 -14 0.5t-10.5 6t-3.5 16.5q3 21 35 21h65l75 445q2 15 8 33q-17 14 -11 47q-31 4 -63 4q-66 0 -110 -17q-30 -12 -46.5 -26 t-20 -23t-6.5 -25l-9 -56h93q9 0 14 -0.5t10.5 -6t3.5 -16.5q-3 -22 -35 -22h-93l-57 -337h65q9 0 14 -0.5t10.5 -6t4.5 -15.5q-4 -22 -36 -22h-183q-8 0 -13.5 0.5t-11 6t-3.5 15.5z" />
<glyph unicode="fi" horiz-adv-x="583" d="M22 22q3 22 35 22h65l57 337h-54q-8 0 -13.5 0.5t-11 6t-4.5 15.5q4 23 37 23h53l10 62q6 36 32.5 62.5t63.5 40t73.5 20t71.5 6.5q17 0 32 -1.5t41 -7.5t39 -22.5t9 -41.5q-3 -17 -15.5 -27.5t-28.5 -10.5q-15 0 -23.5 10t-5.5 27q0 3 0.5 5t1 3.5t0.5 2.5 q1 5 -14.5 9.5t-30.5 7t-19 2.5q-63 0 -110 -21q-27 -11 -42 -24.5t-18 -22t-6 -23.5l-9 -56h268q20 0 25 -7t2 -26l-59 -349h65q9 0 14 -0.5t10.5 -6t4.5 -15.5q-4 -22 -36 -22h-182q-9 0 -14.5 0.5t-10.5 6t-3 16.5q3 21 35 21h65l57 337h-248l-57 -337h65q9 0 14.5 -0.5 t10.5 -6t4 -15.5q-4 -22 -36 -22h-182q-9 0 -14 0.5t-10.5 6t-3.5 15.5z" />
<glyph unicode="fl" horiz-adv-x="583" d="M22 22q3 22 35 22h65l57 337h-54q-8 0 -13.5 0.5t-11 6t-4.5 15.5q4 23 37 23h53l10 62q11 65 82.5 97t168.5 32l94 -8q6 2 9 2q19 0 13 -33l-89 -534h65q9 0 14 -0.5t10.5 -6t4.5 -15.5q-4 -22 -36 -22h-182q-9 0 -14.5 0.5t-10.5 6t-3 16.5q3 21 35 21h65l57 337h-248 l-57 -337h65q9 0 14.5 -0.5t10.5 -6t4 -15.5q-4 -22 -36 -22h-182q-9 0 -14 0.5t-10.5 6t-3.5 15.5zM238 426h248l18 109q-14 10 -12 35q-27 3 -61 3q-67 0 -110 -17q-30 -12 -47 -26t-20.5 -23t-6.5 -25z" />
<glyph unicode="ffi" horiz-adv-x="875" d="M18 22q3 22 34 22h65l57 337h-53q-9 0 -14 0.5t-10.5 6t-4.5 15.5q4 23 37 23h52l10 62q6 36 33 63t64.5 40.5t73.5 19.5t71 6q94 0 119 -45q84 45 182 45q17 0 31.5 -1.5t40.5 -7.5t39.5 -22.5t9.5 -41.5q-3 -17 -16 -27.5t-28 -10.5t-24 10t-6 27q0 3 0.5 5t1 3.5 t0.5 2.5q1 5 -14.5 9.5t-30.5 7t-19 2.5q-63 0 -109 -21q-27 -11 -42 -24.5t-18 -22t-6 -23.5l-9 -56h268q20 0 25 -7t2 -26l-59 -349h65q9 0 14 -0.5t10 -6t4 -15.5q-4 -22 -35 -22h-183q-9 0 -14 0.5t-10.5 6t-3.5 16.5q3 21 35 21h65l57 337h-247l-57 -337h65 q9 0 14 -0.5t10.5 -6t4.5 -15.5q-4 -22 -36 -22h-183q-8 0 -13.5 0.5t-11 6t-3.5 15.5q3 22 35 22h65l57 337h-248l-57 -337h65q9 0 14 -0.5t10.5 -6t4.5 -15.5q-4 -22 -36 -22h-183q-8 0 -13 0.5t-10.5 6t-3.5 15.5zM234 426h248l14 83q-18 12 -14 34q0 3 0.5 5t1 3.5 t0.5 2.5q1 5 -14.5 9.5t-30.5 7t-19 2.5q-64 0 -111 -21q-27 -11 -41.5 -24t-18 -21t-6.5 -25z" />
<glyph unicode="ffl" horiz-adv-x="875" d="M18 22q3 22 34 22h65l57 337h-53q-9 0 -14 0.5t-10.5 6t-4.5 15.5q4 23 37 23h52l10 62q8 45 48 75t91.5 42t110.5 12q24 0 38 -1t31.5 -4.5t28.5 -12.5t18 -24q81 42 186 42l95 -8q6 2 8 2q20 0 14 -33l-89 -534h65q9 0 14 -0.5t10 -6t4 -15.5q-4 -22 -35 -22h-183 q-9 0 -14 0.5t-10.5 6t-3.5 16.5q3 21 35 21h65l57 337h-247l-57 -337h65q9 0 14 -0.5t10.5 -6t4.5 -15.5q-4 -22 -36 -22h-183q-8 0 -13.5 0.5t-11 6t-3.5 15.5q3 22 35 22h65l57 337h-248l-57 -337h65q9 0 14 -0.5t10.5 -6t4.5 -15.5q-4 -22 -36 -22h-183q-8 0 -13 0.5 t-10.5 6t-3.5 15.5zM234 426h248l10 62q7 27 10 34q-18 14 -12 47q-32 4 -64 4q-65 0 -110 -17q-30 -12 -46.5 -26t-20 -23t-6.5 -25zM535 426h247l18 109q-14 11 -11 35q-28 3 -61 3q-67 0 -111 -17q-30 -12 -46.5 -26t-20 -23t-6.5 -25z" />
<glyph unicode=" "  horiz-adv-x="350" />
<glyph unicode="&#x09;" horiz-adv-x="350" />
<glyph unicode="&#xa0;" horiz-adv-x="350" />
<glyph unicode="!" horiz-adv-x="292" d="M111 42q3 18 17 30t32 12t28 -12t7 -30q-3 -17 -17 -29.5t-32 -12.5t-28 12.5t-7 29.5zM149 207l51 366q3 20 14.5 32t20 14.5t15.5 2.5q9 0 15.5 -1t14.5 -13t4 -35l-67 -343q-5 -26 -11 -33t-28 -7q-8 0 -13 0.5t-11 4.5t-5 12z" />
<glyph unicode="&#x22;" horiz-adv-x="432" d="M184 400l34 207q4 16 18 16h24q7 0 10.5 -5t1.5 -11l-34 -207q-3 -12 -11.5 -34t-13.5 -22h-24q-6 0 -6.5 25t1.5 31zM328 400l34 207q4 16 18 16h24q7 0 10.5 -5t1.5 -11l-34 -207q-3 -12 -11.5 -34t-13.5 -22h-24q-6 0 -6.5 25t1.5 31z" />
<glyph unicode="#" horiz-adv-x="875" d="M94 228q4 26 41 26h177l61 104h-220q-9 0 -15 1t-13 7t-5 18q5 27 48 27h237l107 184q12 16 27 16q11 0 17.5 -8t4.5 -19q0 -6 -9 -19l-89 -154h176l107 184q12 16 27 16q11 0 17.5 -8t4.5 -19q0 -4 -9 -19l-89 -154h147q10 0 17 -1t15 -7.5t6 -18.5q-4 -26 -41 -26h-176 l-61 -104h219q9 0 15 -1t13 -7t5 -18q-4 -27 -47 -27h-236l-105 -177q-14 -24 -31 -24q-11 0 -17.5 8t-4.5 19q1 7 9 19l91 155h-176l-104 -177q-1 -1 -2.5 -4t-2.5 -4t-3 -3.5t-3.5 -4t-4 -3.5t-5 -3t-5.5 -1.5t-6 -0.5q-11 0 -17.5 8t-4.5 19q2 7 9 19l91 155h-148 q-43 0 -39 27zM370 254h176l61 104h-176z" />
<glyph unicode="$" d="M88 162q3 17 13 27.5t17.5 12.5t13.5 2q14 0 23.5 -10.5t6.5 -26.5q-3 -20 -23 -32q11 -83 108 -96l42 257q-47 9 -80 26.5t-46.5 37t-21.5 39.5t-5.5 34.5t1.5 22.5q10 58 65.5 104t140.5 56l8 48q5 33 28 33t17 -33l-8 -47q86 -8 124 -51.5t28 -103.5q-3 -21 -16 -31.5 t-28 -10.5q-16 0 -24 11t-6 25q3 18 22 31q-10 72 -108 85l-38 -232q51 -10 85.5 -32t46.5 -47t17.5 -51t-0.5 -43q-10 -59 -63.5 -109t-143.5 -63l-8 -48q-6 -33 -27 -33q-23 0 -18 33l8 47q-86 9 -124 56t-27 112zM185 461q-7 -41 25 -71t88 -40l37 222q-60 -9 -101.5 -40 t-48.5 -71zM292 39q61 11 102.5 46t48.5 78q8 43 -21.5 77t-88.5 46z" />
<glyph unicode="%" horiz-adv-x="875" d="M140 506q13 80 64 135.5t109 55.5t90.5 -55t18.5 -137q-13 -80 -64 -135.5t-109 -55.5t-90 55t-19 137zM160 -59q1 8 13 22l594 719q13 15 26 15q11 0 18 -8t5 -19q-1 -7 -9 -17l-596 -721q-16 -18 -28 -18q-11 0 -18 8t-5 19zM179 505q-10 -62 14 -104t64 -42t78 42 t48 105q10 61 -13.5 103.5t-63.5 42.5q-39 0 -77.5 -42t-49.5 -105zM554 106q13 80 64 135.5t109 55.5t90 -55t19 -137q-13 -80 -64 -135.5t-109 -55.5t-90.5 55t-18.5 137zM593 105q-10 -61 13.5 -103.5t63.5 -42.5q39 0 77.5 42t49.5 105q10 62 -14 104t-64 42t-78 -42 t-48 -105z" />
<glyph unicode="&#x26;" horiz-adv-x="817" d="M64 133q10 63 75 105l129 81q-22 86 -9 165q7 44 34 76.5t59 47t63 14.5q53 0 77.5 -40.5t16.5 -91.5q-7 -43 -51.5 -85t-139.5 -103q38 -101 122 -185q40 35 76.5 73t67 75.5t90.5 115.5h-95q-8 0 -13.5 0.5t-11 6t-4.5 15.5q4 23 36 23h219q9 0 14 -0.5t10.5 -6 t3.5 -16.5q-3 -22 -35 -22h-77q-9 -11 -57 -72.5t-75 -93.5q-81 -91 -121 -124q78 -58 154 -58q39 0 72.5 18.5t44.5 54.5q7 18 22 18q2 0 5 -1t7.5 -7t2.5 -16q-7 -43 -52.5 -77t-109.5 -34q-88 0 -183 73q-103 -73 -204 -73q-78 0 -125.5 40.5t-37.5 103.5zM118 135 q-8 -43 26.5 -72.5t91.5 -29.5q77 0 168 58q-37 37 -66 82q-39 60 -56 105q-95 -56 -126.5 -82t-37.5 -61zM298 484q-1 -6 -2.5 -21.5t0 -50.5t9.5 -69q62 38 110.5 78.5t53.5 68.5q3 13 0 28.5t-9.5 29t-20 22t-32 8.5t-40 -8t-42.5 -30.5t-27 -55.5z" />
<glyph unicode="'" horiz-adv-x="292" d="M186 400l34 207q4 16 18 16h24q7 0 10.5 -5t1.5 -11l-34 -207q-3 -12 -11.5 -34t-13.5 -22h-24q-6 0 -6.5 25t1.5 31z" />
<glyph unicode="(" horiz-adv-x="408" d="M142 306q12 72 44 138.5t70 110.5t77 77.5t66.5 49t37.5 15.5q23 0 20 -20q-2 -10 -24 -23q-107 -66 -165 -160.5t-74 -187.5q-16 -97 12 -190.5t109 -156.5q20 -13 18 -24q-3 -19 -26 -19q-19 0 -59 38.5t-69 89.5q-61 119 -37 262z" />
<glyph unicode=")" horiz-adv-x="408" d="M52 -65q2 10 23 23q46 28 84.5 63t64 70.5t45 74.5t30.5 73t16 67q3 21 4.5 42.5t1 53.5t-9 64t-23 66t-42 68t-65.5 62q-9 8 -3 21.5t24 13.5q19 0 59 -39t69 -90q61 -119 37 -262q-15 -89 -59.5 -168t-94 -124.5t-88.5 -71.5t-53 -26q-12 0 -16.5 6.5t-3.5 12.5z" />
<glyph unicode="*" d="M106 211q3 12 26 26l138 69l-116 69q-19 12 -16 25q2 9 10 17t19 8q3 0 7 -2l125 -80q6 65 19 141q5 34 30 34t20 -34q-16 -94 -29 -141l155 81q12 0 18.5 -5.5t7 -9.5t0.5 -8v-1q-3 -12 -26 -26l-138 -69l127 -75q7 -10 5 -19t-10 -17t-19 -8q-8 0 -30 16l-102 67 q-6 -66 -19 -142q-5 -34 -30 -34t-20 34q16 94 29 141l-155 -81q-12 0 -18.5 5.5t-7 9.5t-0.5 8v1z" />
<glyph unicode="+" horiz-adv-x="817" d="M108 306q5 27 44 27h285l47 285q8 39 34 39q28 0 20 -39l-47 -285h285q39 0 34 -27q-4 -27 -43 -27h-285l-48 -285q-8 -39 -34 -39q-28 0 -20 39l48 285h-285q-9 0 -15.5 1t-14 7.5t-5.5 18.5z" />
<glyph unicode="," horiz-adv-x="292" d="M74 -121q1 9 16 20q22 16 36.5 36.5t19 32t10.5 31.5q-22 2 -33.5 12.5t-12 17.5t0.5 13q3 18 17 30t32 12q24 0 36 -21t5 -62q-9 -57 -47.5 -100.5t-59.5 -43.5q-9 0 -15.5 7t-4.5 15z" />
<glyph unicode="-" horiz-adv-x="350" d="M52 213q3 22 35 22h205q9 0 14.5 -0.5t10.5 -6t3 -16.5q-3 -21 -35 -21h-205q-9 0 -14 0.5t-10.5 6t-3.5 15.5z" />
<glyph unicode="." horiz-adv-x="292" d="M111 42q3 18 17 30t32 12t28 -12t7 -30q-3 -17 -17 -29.5t-32 -12.5t-28 12.5t-7 29.5z" />
<glyph unicode="/" d="M51 -59q2 6 11 21l458 711q15 24 32 24q11 0 18 -8t5 -19q-2 -6 -11 -21l-459 -711q-13 -24 -31 -24q-11 0 -18 8t-5 19z" />
<glyph unicode="0" d="M104 306l7 38.5t13 52t22 62t33 59t45.5 54t61.5 36t80 14.5q208 0 156 -317l-7 -38.5t-13 -52t-22 -62t-33 -59t-45.5 -54t-61.5 -36t-80 -14.5q-208 0 -156 317zM158 315q-4 -21 -6 -41.5t-4 -56.5t4 -65t17.5 -57.5t37 -45t61.5 -16.5t67 16t52 45t36.5 57.5t25.5 66 t14.5 56t8.5 41.5q40 263 -114 263q-44 0 -79 -22.5t-55.5 -52t-35.5 -71.5t-20.5 -66.5t-9.5 -50.5z" />
<glyph unicode="1" d="M120 22q3 22 35 22h103l84 502q-65 -31 -120 -31q-6 0 -10 0.5t-9.5 6t-3.5 15.5q3 22 25 22q92 8 148 59q7 4 14 4q20 0 15 -33l-91 -545h103q9 0 14.5 -0.5t10.5 -6t4 -15.5q-4 -22 -36 -22h-258q-9 0 -14 0.5t-10.5 6t-3.5 15.5z" />
<glyph unicode="2" d="M59 23q2 10 15 20l260 192q139 102 155 196q11 69 -33.5 108t-116.5 39q-46 0 -85 -24.5t-61 -67.5q15 -12 11 -30q-3 -16 -15.5 -26.5t-26.5 -10.5q-13 0 -23 10t-7 31q11 65 74 113.5t147 48.5q93 0 148 -52.5t40 -138.5q-16 -93 -119 -181q-43 -35 -147 -110.5 t-131 -95.5h280q5 28 11 38.5t24 10.5q27 0 20 -33l-4 -27q-4 -20 -11 -26.5t-27 -6.5h-349q-9 0 -14.5 0.5t-11 6t-3.5 16.5z" />
<glyph unicode="3" d="M69 131q3 18 15.5 28.5t27.5 10.5t24 -10.5t6 -25.5q-2 -15 -20 -30q15 -39 59.5 -55t88.5 -16q71 0 122.5 41.5t60.5 95.5q9 53 -28 95.5t-113 42.5h-47q-9 0 -14.5 0.5t-10.5 6t-3 16.5q3 14 15.5 18t53.5 6q25 2 37.5 4t31.5 9t38 20q52 39 63 97q6 39 -27 66t-89 27 q-86 0 -133 -41q10 -15 8 -28q-3 -16 -15.5 -26.5t-26.5 -10.5t-24 10t-7 29q8 51 63 81t142 30q81 0 125.5 -40t35.5 -96q-16 -91 -121 -153q116 -57 98 -163q-12 -72 -81 -126.5t-162 -54.5t-148.5 39t-44.5 103z" />
<glyph unicode="4" d="M65 206q3 19 14 31l296 369q10 12 16 14.5t22 2.5h29q21 0 26 -6.5t1 -26.5l-62 -372h90q9 0 14 -0.5t10.5 -6t4.5 -15.5q-4 -22 -36 -22h-90l-22 -130h73q9 0 14.5 -0.5t10.5 -6t4 -15.5q-4 -22 -36 -22h-185q-9 0 -14 0.5t-10.5 6t-3.5 15.5q3 22 35 22h73l22 130h-269 q-19 0 -24.5 6.5t-2.5 25.5zM113 218h255l61 361h-25z" />
<glyph unicode="5" d="M78 137q3 21 17 30.5t27 9.5q14 0 23 -10t6 -27q-2 -15 -20 -31q10 -31 35.5 -49t46 -22.5t41.5 -4.5q69 0 126.5 44.5t67.5 108.5q10 59 -21 105.5t-95 46.5q-90 0 -151 -60q-6 -7 -20 -7q-25 0 -18 33l45 274q4 20 11 26.5t27 6.5h277q9 0 14 -0.5t10.5 -6t3.5 -16.5 q-3 -21 -35 -21h-256l-37 -221q73 36 138 36q84 0 128 -59t31 -137q-14 -82 -88 -139.5t-166 -57.5q-82 0 -130.5 43.5t-37.5 104.5z" />
<glyph unicode="6" d="M106 299q24 145 119.5 234t201.5 89q64 0 91 -28.5t21 -68.5q-3 -18 -16 -28.5t-29 -10.5q-15 0 -23.5 10.5t-6.5 25.5q3 17 20 30q-22 26 -66 26q-77 0 -150.5 -69t-106.5 -193q92 73 177 73q82 0 128.5 -57.5t33.5 -141.5q-15 -87 -85 -144t-153 -57q-40 0 -72 15.5 t-58 51.5t-32 95t6 148zM153 153q8 -54 37 -87t80 -33q62 0 114 44t64 113q10 63 -24 108.5t-99 45.5q-63 0 -112 -36.5t-57 -88.5q-8 -42 -3 -66z" />
<glyph unicode="7" d="M139 551l7 44q2 10 3.5 15t8.5 11t19 6q21 0 24 -16h346q9 0 14.5 -0.5t10.5 -6t3 -16.5q-2 -10 -6 -13q-284 -237 -337 -557q-7 -29 -31 -29q-27 0 -20 39q8 49 26.5 105t53 128.5t95.5 153t141 152.5h-303q-4 -20 -6.5 -28t-9.5 -14.5t-20 -6.5q-26 0 -19 33z" />
<glyph unicode="8" d="M75 170q21 118 172 159q-70 25 -92.5 58.5t-15.5 79.5q10 61 75.5 108t151.5 47q85 0 135 -46.5t40 -108.5q-7 -46 -41 -79.5t-113 -58.5q139 -42 118 -159q-12 -73 -83 -127t-162 -54t-144 54t-41 127zM128 171q-10 -57 31 -97.5t109 -40.5t122 40.5t64 97.5 q9 53 -30 94t-111 41t-124 -41t-61 -94zM192 466q-8 -46 30 -79t99 -33t110 32.5t57 79.5q7 44 -30 78t-100 34q-64 0 -111.5 -34t-54.5 -78z" />
<glyph unicode="9" d="M87 86q3 18 16 28.5t29 10.5q15 0 23.5 -10.5t6.5 -25.5q-2 -14 -19 -31q29 -25 78 -25q78 0 146.5 72.5t96.5 189.5q-91 -73 -176 -73q-82 0 -128.5 57.5t-33.5 141.5q15 87 86.5 144t156.5 57q84 0 131 -72.5t20 -237.5q-24 -143 -114 -233t-193 -90q-43 0 -72 10.5 t-39.5 27t-13.5 31t-1 28.5zM178 421q-10 -63 24 -108.5t99 -45.5t113.5 38.5t56.5 86.5q8 44 0.5 85t-36 71t-74.5 30q-62 0 -116.5 -44t-66.5 -113z" />
<glyph unicode=":" horiz-adv-x="292" d="M111 42q3 18 17 30t32 12t28 -12t7 -30q-3 -17 -17 -29.5t-32 -12.5t-28 12.5t-7 29.5zM168 383q3 18 17 30.5t32 12.5t28 -12.5t7 -30.5q-3 -17 -17 -29.5t-32 -12.5t-28 12.5t-7 29.5z" />
<glyph unicode=";" horiz-adv-x="292" d="M81 -109l5 5l7 7l7 7t7.5 8.5t7.5 10t8 11.5t7 12t7 14t6 15.5t5 17.5q-19 4 -29 14t-8.5 18t0.5 11q3 18 17 30t32 12q47 0 32 -77q-10 -62 -44 -106t-54 -44q-14 0 -19 13t6 21zM168 383q3 18 17 30.5t32 12.5t28 -12.5t7 -30.5q-3 -17 -17 -29.5t-32 -12.5t-28 12.5 t-7 29.5z" />
<glyph unicode="&#x3c;" d="M110 306q2 11 22 26l375 213q15 9 23 9q10 0 17.5 -7t5.5 -19q-2 -14 -25 -28l-341 -194l277 -194q18 -13 15 -28q-2 -12 -11.5 -19t-19.5 -7q-9 0 -21 9l-307 215q-13 11 -10 24z" />
<glyph unicode="=" horiz-adv-x="817" d="M95 228q4 26 41 26h628q9 0 15 -1t13 -7t5 -18q-4 -27 -47 -27h-616q-7 0 -12 0.5t-13 2.5t-11.5 8.5t-2.5 15.5zM121 384q5 27 48 27h616q7 0 12 -0.5t13 -2.5t11.5 -8.5t1.5 -15.5q-4 -26 -41 -26h-628q-9 0 -15 1t-13 7t-5 18z" />
<glyph unicode="&#x3e;" d="M73 84q3 15 25 28l341 194l-277 194q-17 13 -15 28q2 12 11.5 19t19.5 7q9 0 21 -9l307 -215q13 -11 10 -24q-2 -13 -22 -26l-375 -213q-15 -9 -23 -9q-10 0 -17.5 7t-5.5 19z" />
<glyph unicode="?" horiz-adv-x="496" d="M146 501q7 48 58.5 82t136.5 34q57 0 96 -12t55.5 -31t21.5 -37.5t2 -37.5q-8 -56 -72 -90q-57 -31 -93.5 -70t-46.5 -100l-3 -17q-4 -20 -10.5 -26t-25.5 -6q-22 0 -26 9.5t1 34.5q4 26 11 46t25 48.5t54 57.5t89 58q40 27 45 55q5 31 -27 52.5t-103 21.5 q-79 0 -124 -45q10 -16 8 -29q-3 -16 -15.5 -26.5t-26.5 -10.5q-15 0 -24.5 10t-5.5 29zM197 42q3 18 17.5 30t32.5 12q17 0 27.5 -12t7.5 -30q-3 -17 -17.5 -29.5t-31.5 -12.5q-18 0 -28.5 12.5t-7.5 29.5z" />
<glyph unicode="@" horiz-adv-x="700" d="M109 306q21 128 139 219.5t263 91.5q233 0 183 -301q-17 -100 -84 -153.5t-137 -53.5q-75 0 -120 57t-31 140q14 80 77.5 138t140.5 58q54 0 121 -52q-14 46 -27 66.5t-31 31.5q-39 25 -99 25q-128 0 -232 -78.5t-123 -189.5q-18 -108 59 -187.5t207 -79.5q90 0 194 53 q6 2 18 2q6 0 11 -0.5t11 -5.5t4 -14q-1 -10 -15 -17q-117 -62 -229 -62q-147 0 -234 91.5t-66 220.5zM361 305q-11 -61 24 -106t97 -45q59 0 109.5 44t60.5 108q11 62 -24 106.5t-97 44.5q-59 0 -109.5 -44t-60.5 -108z" />
<glyph unicode="A" horiz-adv-x="758" d="M44 23q3 21 35 21h54l289 551q15 28 51 28h19q12 0 18 -1t13.5 -7.5t9.5 -20.5l105 -550h54q9 0 14 -0.5t10.5 -6t4.5 -15.5q-4 -22 -36 -22h-164q-9 0 -14 0.5t-11 6t-4 16.5q3 21 36 21h55l-25 133h-299l-71 -133h55q9 0 14 -0.5t11 -6t5 -15.5q-4 -22 -37 -22h-164 q-9 0 -14 0.5t-10.5 6t-3.5 16.5zM282 222h267l-69 357h-11z" />
<glyph unicode="B" horiz-adv-x="729" d="M50 22q3 22 35 22h64l88 523h-64q-9 0 -14 0.5t-10.5 5.5t-4.5 15q4 23 36 23h332q97 0 156 -45t49 -105q-9 -54 -52 -87.5t-129 -53.5q104 -19 137.5 -59t23.5 -98q-11 -65 -85.5 -114t-172.5 -49h-361q-9 0 -14 0.5t-10.5 6t-3.5 15.5zM202 44h215q85 0 152 35t76 86 q8 52 -53 91.5t-156 39.5h-192zM252 340h180q93 0 159 36t74 84q7 42 -39 74.5t-123 32.5h-213z" />
<glyph unicode="C" horiz-adv-x="758" d="M109 306q21 128 138 222t266 94q134 0 210 -69q18 29 43 64q7 5 16 5q20 0 15 -33l-24 -143q-1 -10 -3 -16t-9 -11.5t-19 -5.5q-21 0 -23 15q-1 22 -4 36.5t-18 37t-42 40.5q-56 36 -143 36q-130 0 -231.5 -81t-119.5 -191q-18 -111 56.5 -192t206.5 -81q89 0 155 30 q36 16 58 37.5t28 35t10 31.5q5 22 30 22q26 0 21 -25q-12 -77 -98.5 -126t-218.5 -49q-152 0 -237 94t-63 223z" />
<glyph unicode="D" horiz-adv-x="788" d="M49 22q3 22 35 22h65l88 523h-65q-9 0 -14 0.5t-10.5 5.5t-4.5 15q4 23 36 23h331q133 0 212 -91.5t57 -219.5q-20 -124 -128.5 -212t-242.5 -88h-331q-9 0 -14 0.5t-10.5 6t-3.5 15.5zM201 44h196q120 0 216 75.5t113 181.5q18 107 -51 186.5t-191 79.5h-195z" />
<glyph unicode="E" horiz-adv-x="700" d="M50 22q3 22 35 22h65l88 523h-65q-9 0 -14 0.5t-10.5 5.5t-4.5 15q4 23 36 23h531q20 0 25 -7t1 -26l-12 -75q-2 -11 -4 -16.5t-9 -11t-20 -5.5q-27 0 -20 33l11 64h-393l-38 -228h224q4 27 6.5 36.5t9.5 16t20 6.5q12 0 17.5 -5t5 -12.5t-1.5 -15.5l-16 -96 q-2 -11 -4 -16t-9 -11t-19 -6q-19 0 -21.5 13t4.5 46h-224l-42 -251h423l14 81q4 33 32 33q17 0 20.5 -11t-0.5 -22l-15 -92q-4 -20 -11 -26.5t-27 -6.5h-560q-9 0 -14 0.5t-10.5 6t-3.5 15.5z" />
<glyph unicode="F" horiz-adv-x="671" d="M50 22q3 22 35 22h65l88 523h-65q-8 0 -13.5 0.5t-11 5.5t-4.5 15q4 23 36 23h516q20 0 25 -7t1 -26l-12 -75q-2 -11 -4 -16.5t-9 -11t-20 -5.5q-27 0 -20 33l11 64h-377l-40 -239h217q4 26 6.5 35.5t9.5 16t20 6.5q12 0 17.5 -5t5 -12.5t-1.5 -15.5l-16 -95 q-4 -33 -31 -33q-19 0 -22 13t4 45h-217l-40 -239h90q9 0 14 -0.5t10 -6t4 -15.5q-4 -22 -35 -22h-208q-8 0 -13.5 0.5t-11 6t-3.5 15.5z" />
<glyph unicode="G" horiz-adv-x="817" d="M108 306q21 128 138 222t266 94q136 0 210 -69q19 32 44 64q5 5 15 5q21 0 16 -33l-24 -143q-1 -10 -3 -16t-9 -11.5t-20 -5.5q-20 0 -23 15q-1 22 -4 36.5t-18 37t-42 40.5q-56 36 -143 36q-128 0 -230 -80.5t-121 -192.5q-19 -111 56.5 -191.5t200.5 -80.5 q87 0 160 49.5t104 132.5h-102q-9 0 -14 0.5t-10.5 6t-3.5 16.5q3 22 35 22h198q9 0 14.5 -0.5t11 -6t4.5 -16.5q-4 -22 -37 -22h-42l-30 -182q-2 -11 -4 -16t-9 -11t-19 -6q-18 0 -22 10.5t1 22.5l9 59q-121 -103 -257 -103q-145 0 -231.5 93t-64.5 224z" />
<glyph unicode="H" horiz-adv-x="758" d="M49 22q3 22 35 22h65l88 523h-65q-8 0 -13.5 0.5t-11 5.5t-4.5 15q4 23 36 23h182q9 0 14.5 -0.5t10.5 -6t3 -16.5q-3 -21 -35 -21h-64l-38 -227h367l38 227h-65q-8 0 -13 0.5t-10.5 5.5t-4.5 15q4 23 35 23h183q9 0 14 -0.5t10.5 -6t3.5 -16.5q-3 -21 -35 -21h-65 l-88 -523h65q9 0 14 -0.5t10.5 -6t4.5 -15.5q-4 -22 -36 -22h-183q-8 0 -13 0.5t-10.5 6t-3.5 15.5q3 22 34 22h65l42 252h-367l-42 -252h64q9 0 14.5 -0.5t10.5 -6t4 -15.5q-4 -22 -36 -22h-182q-8 0 -13.5 0.5t-11 6t-3.5 15.5z" />
<glyph unicode="I" horiz-adv-x="350" d="M50 22q3 22 35 22h70l88 523h-70q-8 0 -13.5 0.5t-11 5.5t-4.5 15q4 23 36 23h193q9 0 14 -0.5t10.5 -6t3.5 -16.5q-3 -21 -35 -21h-70l-88 -523h70q9 0 14 -0.5t10.5 -6t4.5 -15.5q-4 -22 -36 -22h-193q-8 0 -13.5 0.5t-11 6t-3.5 15.5z" />
<glyph unicode="J" d="M90 93q3 19 15.5 29t28.5 10q15 0 23.5 -11t6.5 -25q-2 -13 -17 -28q33 -35 95 -35q13 0 28.5 3t38.5 11.5t40.5 31.5t23.5 56l72 432h-94q-9 0 -14.5 0.5t-11 6t-4.5 15.5q4 22 37 22h186q9 0 14.5 -0.5t11 -6t3.5 -15.5q-3 -22 -36 -22h-40l-73 -438q-11 -64 -66 -102 t-124 -38q-72 0 -112 29t-32 75z" />
<glyph unicode="K" horiz-adv-x="788" d="M56 22q3 22 35 22h63l88 523h-63q-9 0 -14 0.5t-10.5 5.5t-4.5 15q4 23 36 23h169q9 0 14 -0.5t10.5 -6t3.5 -16.5q-3 -21 -35 -21h-63l-54 -324l452 324q-60 0 -67 8q-4 5 -3 14q4 22 35 22h150q9 0 14.5 -0.5t11 -6t3.5 -16.5q-3 -21 -36 -21h-42l-291 -207l222 -316 h38q9 0 14.5 -0.5t11 -6t4.5 -15.5q-4 -22 -37 -22h-129q-9 0 -14 0.5t-10.5 6t-3.5 15.5q1 8 4.5 12.5t14 6.5t20 2.5t32.5 0.5l-204 289l-199 -142l-25 -147h63q9 0 14 -0.5t10.5 -6t4.5 -15.5q-4 -22 -36 -22h-169q-9 0 -14 0.5t-10.5 6t-3.5 15.5z" />
<glyph unicode="L" horiz-adv-x="642" d="M51 22q3 22 35 22h65l88 523h-65q-9 0 -14 0.5t-10.5 5.5t-4.5 15q4 23 36 23h207q9 0 14 -0.5t10.5 -6t3.5 -16.5q-3 -21 -35 -21h-90l-88 -523h348l14 81q2 12 3.5 16.5t8.5 10.5t19 6t17.5 -5t5 -12.5t-1.5 -15.5l-15 -92q-4 -20 -11 -26.5t-27 -6.5h-485 q-9 0 -14 0.5t-10.5 6t-3.5 15.5z" />
<glyph unicode="M" horiz-adv-x="933" d="M54 22q3 22 35 22h65l88 523h-65q-9 0 -14 0.5t-10.5 5.5t-4.5 15q4 23 36 23h99q23 0 34 -7t16 -26l141 -533l318 536q18 30 61 30h99q9 0 14.5 -0.5t10.5 -6t3 -16.5q-3 -21 -35 -21h-65l-88 -523h65q9 0 14.5 -0.5t10.5 -6t4 -15.5q-4 -22 -36 -22h-169q-9 0 -14 0.5 t-10.5 6t-3.5 16.5q3 21 35 21h65l88 523h-13l-313 -525q-11 -17 -25.5 -26.5t-22.5 -9.5q-13 0 -22 10t-12 21l-139 530h-13l-88 -523h65q9 0 14 -0.5t10.5 -6t4.5 -15.5q-4 -22 -36 -22h-169q-9 0 -14 0.5t-10.5 6t-3.5 15.5z" />
<glyph unicode="N" horiz-adv-x="758" d="M56 22q3 22 35 22h65l88 523h-65q-8 0 -13.5 0.5t-11 5.5t-4.5 15q4 23 36 23h98q44 0 57 -30l217 -537h18l88 523h-65q-9 0 -14 0.5t-10.5 5.5t-4.5 15q4 23 36 23h169q9 0 14 -0.5t10.5 -6t3.5 -16.5q-3 -21 -35 -21h-65l-89 -534q-4 -20 -12 -26.5t-27 -6.5 q-44 0 -57 30l-217 537h-18l-88 -523h65q9 0 14.5 -0.5t10.5 -6t4 -15.5q-4 -22 -36 -22h-169q-8 0 -13.5 0.5t-11 6t-3.5 15.5z" />
<glyph unicode="O" horiz-adv-x="817" d="M108 306q21 128 139 222t265 94t233.5 -93t64.5 -224q-21 -128 -139 -222t-265 -94t-233.5 93t-64.5 224zM162 317q-20 -116 53.5 -200t198.5 -84q124 0 225 84t121 200q18 107 -56.5 184t-199.5 77q-124 0 -224 -77t-118 -184z" />
<glyph unicode="P" horiz-adv-x="700" d="M50 22q3 22 35 22h65l88 523h-65q-9 0 -14 0.5t-10.5 5.5t-4.5 15q4 23 36 23h317q104 0 166 -53t50 -126t-92 -126.5t-184 -53.5h-200l-35 -208h65q9 0 14.5 -0.5t10.5 -6t4 -15.5q-4 -22 -36 -22h-182q-9 0 -14 0.5t-10.5 6t-3.5 15.5zM245 297h183q88 0 155.5 40.5 t76.5 94.5t-45 94.5t-142 40.5h-183z" />
<glyph unicode="Q" horiz-adv-x="817" d="M108 306q21 128 139 222t265 94t233.5 -93t64.5 -224q-3 -21 -10 -42.5t-24 -54t-41.5 -62.5t-66.5 -63.5t-96 -60.5l98 -131q2 -3 6 -9.5t6.5 -11t2.5 -5.5q-1 -8 -24 -8q-27 0 -37 15l-84 113l-15 19q-8 0 -15 -2q-53 -13 -104 -13q-147 0 -233.5 93t-64.5 224z M160 305q-18 -111 55.5 -191.5t198.5 -80.5q35 0 83 9l-73 105q2 11 24 11q20 0 29 -9q3 -4 10.5 -14.5t22.5 -30.5t35 -45q85 35 142.5 101.5t70.5 145.5q18 111 -55.5 191.5t-198.5 80.5q-124 0 -224.5 -80t-119.5 -193z" />
<glyph unicode="R" horiz-adv-x="758" d="M49 22q3 22 35 22h65l88 523h-65q-8 0 -13.5 0.5t-11 5.5t-4.5 15q4 23 36 23h276q110 0 182.5 -47.5t61.5 -116.5q-14 -83 -155 -139q50 -28 63 -54q11 -20 11 -37t-8 -60q-5 -31 -6 -49.5t1.5 -37.5t15 -28t34.5 -9t40.5 14t23.5 41q3 22 28 22q7 0 11 -0.5t9 -6 t4 -15.5q-7 -37 -42 -68t-82 -31q-60 0 -85 42q-14 24 -14 51.5t8 69.5q10 50 6 69t-34 38q-46 24 -130 24h-156l-40 -239h64q9 0 14.5 -0.5t10.5 -6t4 -15.5q-4 -22 -36 -22h-182q-8 0 -13.5 0.5t-11 6t-3.5 15.5zM250 328h149q89 0 164 34.5t84 84.5q8 50 -55.5 85 t-152.5 35h-149z" />
<glyph unicode="S" horiz-adv-x="583" d="M64 22l22 136q2 11 4 16t9 11t20 6q10 0 15.5 -4t6 -8t0.5 -12v-2q-4 -37 6 -60t38 -42q48 -30 138 -30q71 0 119.5 38t56.5 87q4 21 -1.5 41t-13.5 29l-7 10q-21 21 -39 28t-70 19l-44 9q-54 12 -74.5 17.5t-42.5 17t-39 29.5q-41 45 -31 105q11 64 76 111.5t154 47.5 q102 0 161 -59q20 39 27.5 49t18.5 10q21 0 16 -33l-22 -136q-2 -11 -4 -16t-9 -11t-20 -6q-10 0 -15.5 4t-6 8t-1.5 14q-2 132 -154 132q-67 0 -115.5 -33.5t-55.5 -77.5q-8 -45 24.5 -72.5t66.5 -34.5l147 -32q64 -14 99 -60.5t25 -105.5q-11 -69 -76.5 -121t-158.5 -52 q-124 0 -189 55q-19 -36 -26.5 -45.5t-18.5 -9.5q-21 0 -16 33z" />
<glyph unicode="T" horiz-adv-x="758" d="M121 503l12 75q4 20 11.5 26.5t27.5 6.5h618q20 0 25 -7t1 -26l-12 -75q-2 -11 -4 -16.5t-9 -11t-20 -5.5q-27 0 -20 33l11 64h-262l-88 -523h105q9 0 14.5 -0.5t11 -6t4.5 -15.5q-4 -22 -37 -22h-263q-9 0 -14.5 0.5t-11 6t-3.5 16.5q3 21 36 21h105l88 523h-263 l-11 -64q-2 -11 -4 -16.5t-9 -11t-19 -5.5q-27 0 -20 33z" />
<glyph unicode="U" horiz-adv-x="758" d="M143 588q4 23 36 23h182q9 0 14.5 -0.5t10.5 -6t3 -16.5q-3 -21 -35 -21h-64l-60 -358q-14 -84 35 -130t120 -46q68 0 133 45.5t79 130.5l60 358h-65q-8 0 -13 0.5t-10.5 5.5t-4.5 15q4 23 35 23h183q9 0 14 -0.5t10.5 -6t3.5 -16.5q-3 -21 -35 -21h-65l-61 -364 q-16 -91 -95 -152.5t-178 -61.5q-97 0 -156 61t-44 153l61 364h-65q-8 0 -13.5 0.5t-11 5.5t-4.5 15z" />
<glyph unicode="V" horiz-adv-x="758" d="M125 589q4 22 36 22h158q9 0 14.5 -0.5t11 -6t3.5 -16.5q-3 -21 -36 -21h-54l120 -531h14l296 531h-53q-9 0 -14.5 0.5t-11 5.5t-4.5 15q4 23 37 23h158q9 0 14.5 -0.5t10.5 -6t3 -16.5q-3 -21 -35 -21h-48l-305 -545q-8 -14 -17 -21t-16 -8t-20 -1h-19q-23 0 -31.5 6.5 t-11.5 24.5l-123 544h-48q-9 0 -14.5 0.5t-10.5 6t-4 15.5z" />
<glyph unicode="W" horiz-adv-x="1050" d="M116 589q4 22 37 22h139q9 0 14.5 -0.5t11 -6t3.5 -16.5q-3 -21 -36 -21h-56l70 -531h20l256 547q7 13 15.5 19.5t15.5 7.5t21 1q13 0 19.5 -1t13.5 -7.5t9 -19.5l72 -547h20l249 531h-56q-9 0 -14 0.5t-11 5.5t-5 15q4 23 37 23h139q9 0 14.5 -0.5t11 -6t3.5 -16.5 q-3 -21 -36 -21h-42l-256 -547q-6 -13 -15 -19.5t-16 -7.5t-20 -1q-23 0 -30 6t-11 26l-74 543h-20l-255 -544q-7 -15 -15 -22t-15 -8t-22 -1q-33 0 -39 17l-75 558h-42q-9 0 -14.5 0.5t-11 6t-4.5 15.5z" />
<glyph unicode="X" horiz-adv-x="758" d="M45 22q3 22 36 22h55l260 281l-155 242h-54q-9 0 -14.5 0.5t-11 6t-4.5 15.5q4 22 37 22h160q9 0 14.5 -0.5t11 -6t3.5 -16.5q-3 -21 -36 -21h-39l125 -198l180 198h-41q-9 0 -14.5 0.5t-11 6t-4.5 15.5q4 22 37 22h161q9 0 14 -0.5t11 -6t4 -16.5q-3 -21 -36 -21h-55 l-225 -243l179 -280h56q9 0 14.5 -0.5t11 -6t4.5 -15.5q-4 -22 -37 -22h-162q-8 0 -13.5 0.5t-11 6t-3.5 15.5q3 22 35 22h40l-147 243l-219 -243h42q9 0 14.5 -0.5t11 -6t4.5 -15.5q-4 -22 -37 -22h-161q-9 0 -14 0.5t-11 6t-4 15.5z" />
<glyph unicode="Y" horiz-adv-x="758" d="M127 589q4 22 37 22h160q9 0 14.5 -0.5t11 -6t3.5 -16.5q-3 -21 -36 -21h-42l153 -268l244 268h-42q-9 0 -14.5 0.5t-11 6t-4.5 15.5q4 22 37 22h160q9 0 14.5 -0.5t11 -6t3.5 -16.5q-3 -21 -36 -21h-54l-290 -322l-34 -201h65q9 0 14 -0.5t10.5 -6t4.5 -15.5 q-4 -22 -36 -22h-183q-8 0 -13.5 0.5t-11 6t-3.5 15.5q3 22 35 22h65l34 201l-182 322h-54q-9 0 -14.5 0.5t-11 6t-4.5 15.5z" />
<glyph unicode="Z" horiz-adv-x="642" d="M63 26q3 12 9 19l534 522h-384l-11 -64q-2 -11 -4 -16.5t-9 -11t-19 -5.5q-27 0 -20 33l12 75q4 20 11.5 26.5t27.5 6.5h441q10 0 15.5 -1t10.5 -7t3 -18q-2 -13 -9 -19l-534 -522h405l14 84q2 11 4 16.5t9 11t20 5.5q27 0 20 -33l-15 -95q-4 -20 -11.5 -26.5t-26.5 -6.5 h-464q-10 0 -15.5 1t-10.5 7t-3 18z" />
<glyph unicode="[" horiz-adv-x="297" d="M109 -53l120 717q3 19 10.5 26t26.5 7h86q9 0 14 -0.5t10.5 -6t3.5 -16.5q-3 -22 -35 -22h-65l-116 -693h65q9 0 14 -0.5t10.5 -6t3.5 -16.5q-3 -22 -35 -22h-86q-20 0 -25 7t-2 26z" />
<glyph unicode="\" d="M173 670q2 11 11 19t20 8q18 0 24 -23l223 -712q3 -15 2 -21q-2 -11 -11 -19t-20 -8q-16 0 -25 23l-222 712q-3 15 -2 21z" />
<glyph unicode="]" horiz-adv-x="297" d="M17 -63q4 22 36 22h65l116 693h-65q-9 0 -14 0.5t-10.5 6t-3.5 16.5q3 22 35 22h86q20 0 25 -7t2 -26l-120 -717q-3 -19 -10.5 -26t-26.5 -7h-86q-9 0 -14 0.5t-10.5 6t-4.5 16.5z" />
<glyph unicode="^" d="M161 519q2 12 16 18l180 81q8 3 16 0l154 -81q14 -8 8 -24.5t-22 -16.5q-3 0 -9 2l-148 68l-170 -68q-6 -2 -9 -2q-9 0 -13.5 7t-2.5 16z" />
<glyph unicode="_" horiz-adv-x="758" d="M-30 -165l9 54h762l-9 -54h-762z" />
<glyph unicode="`" d="M278 557q-25 12 -17.5 33t30.5 21q6 0 15 -4l127 -62q18 -9 16 -22q-1 -9 -9 -20.5t-21 -11.5q-2 0 -8 2z" />
<glyph unicode="a" horiz-adv-x="510" d="M77 123q11 67 96 104.5t228 39.5q10 64 -21 94t-95 30q-65 0 -68 -22q-8 -38 -43 -38q-16 0 -25 10t-5 28q11 66 148 66q94 0 134 -45t30 -106l-38 -228q24 -12 64 -12q9 0 14 -0.5t10.5 -5.5t4.5 -15q-2 -11 -9.5 -16t-14.5 -6t-21 -1q-26 0 -41 1.5t-32.5 10 t-26.5 25.5q-66 -43 -155 -43q-69 0 -106 38t-28 91zM130 123q-6 -34 20.5 -59.5t75.5 -25.5q53 0 93 17q23 10 36.5 24t16.5 23t6 27l16 96q-126 -4 -192 -33.5t-72 -68.5z" />
<glyph unicode="b" horiz-adv-x="583" d="M116 588q4 23 36 23h85q20 0 25 -7t1 -26l-35 -213q89 67 170 67q88 0 138 -64.5t36 -154.5q-16 -92 -92.5 -155.5t-165.5 -63.5q-79 0 -135 75q-7 -44 -13 -56.5t-24 -12.5t-22 10.5t1 22.5l89 534h-65q-9 0 -14 0.5t-10.5 5.5t-4.5 15zM199 192q-9 -53 22.5 -103.5 t95.5 -50.5q69 0 130 50.5t73 124.5q12 71 -26.5 122.5t-108.5 51.5q-59 0 -112.5 -37.5t-61.5 -88.5z" />
<glyph unicode="c" horiz-adv-x="467" d="M84 213q6 35 24.5 71.5t49.5 71.5t81.5 57t110.5 22q16 0 26 -0.5t29.5 -2t32 -6t25.5 -11t18.5 -18.5t2.5 -28q-3 -17 -16 -27.5t-29 -10.5q-36 0 -29 41q1 5 -11 9.5t-27.5 7t-29.5 2.5q-51 0 -92 -20t-63.5 -50.5t-34.5 -57.5t-16 -50q-13 -73 29 -124t112 -51 q81 0 127 76q8 9 24 9q5 0 9.5 -0.5t10 -5.5t3.5 -14q-1 -8 -11.5 -24t-31 -36t-59 -34.5t-85.5 -14.5q-92 0 -143.5 64.5t-36.5 154.5z" />
<glyph unicode="d" horiz-adv-x="583" d="M81 212q16 92 91.5 156t166.5 64q76 0 137 -64l34 199h-65q-9 0 -14.5 0.5t-10.5 6t-4 15.5q4 22 36 22h85q20 0 25 -7t1 -26l-89 -534h65q9 0 14 -0.5t10.5 -6t4.5 -15.5q-4 -22 -36 -22h-85q-20 0 -25 7t-1 26l7 42q-75 -81 -173 -81q-87 0 -138 64t-36 154zM133 212 q-11 -72 28 -123t106 -51q65 0 118 50.5t62 105.5l12 68q8 49 -28 87t-94 38q-71 0 -131 -51t-73 -124z" />
<glyph unicode="e" horiz-adv-x="467" d="M77 215q15 90 86.5 155t157.5 65q88 0 127 -58.5t24 -150.5q-2 -14 -8.5 -20.5t-12 -7.5t-16.5 -1h-308q0 -73 43 -116t106 -43q84 0 127 73q7 12 25 12q5 0 9.5 -0.5t10 -5.5t3.5 -14q-5 -29 -56.5 -69t-131.5 -40q-93 0 -147 64.5t-39 156.5zM135 240h285 q13 151 -107 151q-55 0 -104.5 -41t-73.5 -110z" />
<glyph unicode="f" horiz-adv-x="321" d="M26 22q3 22 35 22h65l57 337h-54q-8 0 -13.5 0.5t-11 6t-4.5 15.5q4 23 37 23h53l11 63q10 60 60 94t112 34q11 0 20.5 -1t27 -5t26.5 -16t6 -30q-3 -16 -15.5 -26t-25.5 -10q-19 0 -25 15t-3 29q-23 0 -38 -2t-37.5 -9.5t-37 -27.5t-19.5 -51l-10 -57h93q9 0 14 -0.5 t10.5 -6t3.5 -16.5q-3 -22 -35 -22h-93l-57 -337h90q9 0 14 -0.5t10.5 -6t4.5 -15.5q-4 -22 -36 -22h-207q-9 0 -14 0.5t-10.5 6t-3.5 15.5z" />
<glyph unicode="g" d="M15 -94q14 78 102 125q-21 38 -15 77q7 40 35 71q-29 44 -20 97q11 63 65.5 109.5t121.5 46.5q50 0 95 -33q59 38 115 38q33 0 47 -14.5t11 -31.5q-3 -16 -14 -24.5t-23 -8.5q-5 0 -10 2.5t-10.5 11t-6.5 21.5q-45 -4 -84 -24q27 -67 8 -122t-70 -91t-110 -36 q-51 0 -92 30q-14 -24 -18 -43q-3 -26 7 -43q13 -18 37 -18q8 -2 30 -2h73q97 0 141 -29q30 -17 41 -47.5t6 -61.5q-10 -61 -84 -101.5t-170 -40.5t-157 40t-51 102zM56 -94q-6 -38 44.5 -68.5t129.5 -30.5t139.5 30.5t66.5 68.5q4 23 -2 40t-22 27.5t-33.5 17t-45.5 9 t-48 3.5t-50 1q-43 0 -60.5 -1t-29.5 -4.5t-28 -12.5q-28 -15 -42.5 -37.5t-18.5 -42.5zM170 275q-8 -46 18 -79t71 -33q29 0 56.5 15t46.5 41t24 57q8 46 -18 79t-71 33q-44 0 -81.5 -33t-45.5 -80z" />
<glyph unicode="h" horiz-adv-x="583" d="M22 22q3 22 35 22h65l88 523h-65q-9 0 -14 0.5t-10.5 5.5t-4.5 15q4 23 36 23h85q20 0 25 -7t1 -26l-36 -217q89 71 173 71q139 0 116 -141l-42 -247h65q9 0 14 -0.5t10.5 -6t4.5 -15.5q-4 -22 -36 -22h-182q-9 0 -14.5 0.5t-10.5 6t-3 16.5q3 21 35 21h65l40 240 q9 53 -5 78t-70 25q-25 0 -51.5 -8t-54 -24.5t-48 -47.5t-27.5 -72l-32 -191h65q9 0 14.5 -0.5t10.5 -6t4 -15.5q-4 -22 -36 -22h-182q-9 0 -14 0.5t-10.5 6t-3.5 15.5z" />
<glyph unicode="i" horiz-adv-x="292" d="M26 22q3 22 35 22h65l57 337h-60q-9 0 -14 0.5t-11 6t-5 16.5q4 22 37 22h81q20 0 25 -7t2 -26l-59 -349h54q9 0 14.5 -0.5t11 -6t4.5 -15.5q-4 -22 -36 -22h-173q-8 0 -13.5 0.5t-11 6t-3.5 15.5zM195 551q2 16 16.5 29t33.5 13q17 0 27.5 -12.5t7.5 -29.5t-17 -29.5 t-33 -12.5q-17 0 -27.5 12.5t-7.5 29.5z" />
<glyph unicode="j" horiz-adv-x="321" d="M-71 -166q3 17 16 27.5t28 10.5q35 0 28 -47l1 -6q7 -10 37 -10q31 0 54.5 27.5t32.5 54.5t14 55l73 435h-75q-9 0 -14.5 0.5t-11 6t-4.5 16.5q4 22 37 22h95q20 0 25 -7t2 -26l-76 -451q-7 -41 -24 -78.5t-54 -68t-84 -30.5q-51 0 -78 18.5t-22 50.5zM208 551 q2 16 16.5 29t33.5 13q17 0 27.5 -12.5t7.5 -29.5t-17 -29.5t-33 -12.5q-17 0 -27.5 12.5t-7.5 29.5z" />
<glyph unicode="k" horiz-adv-x="554" d="M30 22q3 22 35 22h62l88 523h-62q-9 0 -14 0.5t-10.5 5.5t-4.5 15q4 23 36 23h72q20 0 26.5 -7t2.5 -26l-64 -385l242 188h-66q-9 0 -14 0.5t-10.5 6t-4.5 15.5q4 23 36 23h169q9 0 14.5 -0.5t11 -6t3.5 -16.5q-3 -22 -36 -22h-41l-165 -126l134 -211h39q9 0 14 -0.5 t11 -6t5 -15.5q-4 -22 -37 -22h-130q-9 0 -14.5 0.5t-10.5 6t-3 16.5q3 21 35 21h37l-116 183l-112 -87l-16 -96h62q9 0 14 -0.5t10 -6t4 -15.5q-4 -22 -35 -22h-169q-9 0 -14 0.5t-10.5 6t-3.5 15.5z" />
<glyph unicode="l" horiz-adv-x="292" d="M26 22q3 22 35 22h65l88 523h-65q-8 0 -13.5 0.5t-11 5.5t-4.5 15q4 23 36 23h86q20 0 25 -7t1 -26l-89 -534h65q9 0 14 -0.5t10.5 -6t4.5 -15.5q-4 -22 -36 -22h-183q-8 0 -13.5 0.5t-11 6t-3.5 15.5z" />
<glyph unicode="m" horiz-adv-x="875" d="M18 22q3 22 34 22h65l57 337h-65q-8 0 -13 0.5t-10.5 6t-4.5 15.5q4 23 35 23h86q23 0 26 -13t-5 -52q90 71 173 71q96 0 119 -81q89 81 182 81q67 0 98 -35.5t19 -105.5l-42 -247h65q9 0 14 -0.5t10 -6t4 -15.5q-4 -22 -35 -22h-183q-8 0 -13.5 0.5t-11 6t-3.5 15.5 q3 22 35 22h65l40 240q9 54 -5.5 78.5t-70.5 24.5q-33 0 -68 -13t-69 -49t-43 -90l-32 -191h65q9 0 14 -0.5t10.5 -6t4.5 -15.5q-4 -22 -36 -22h-183q-8 0 -13.5 0.5t-11 6t-3.5 15.5q3 22 35 22h65l40 240q9 54 -5.5 78.5t-70.5 24.5q-33 0 -68 -13t-69 -49t-43 -90 l-32 -191h65q9 0 14 -0.5t10.5 -6t4.5 -15.5q-4 -22 -36 -22h-183q-8 0 -13 0.5t-10.5 6t-3.5 15.5z" />
<glyph unicode="n" horiz-adv-x="583" d="M22 22q3 22 35 22h65l57 337h-65q-9 0 -14 0.5t-10.5 6t-4.5 15.5q4 23 36 23h85q23 0 26 -13t-5 -52q89 71 173 71q139 0 116 -141l-42 -247h65q9 0 14 -0.5t10.5 -6t4.5 -15.5q-4 -22 -36 -22h-182q-9 0 -14.5 0.5t-10.5 6t-3 16.5q3 21 35 21h65l40 240q9 53 -5 78 t-70 25q-25 0 -51.5 -8t-54 -24.5t-48 -47.5t-27.5 -72l-32 -191h65q9 0 14.5 -0.5t10.5 -6t4 -15.5q-4 -22 -36 -22h-182q-9 0 -14 0.5t-10.5 6t-3.5 15.5z" />
<glyph unicode="o" d="M76 213q15 91 90.5 156.5t168.5 65.5q92 0 146 -65.5t39 -156.5q-16 -91 -91.5 -155t-167.5 -64t-146.5 64t-38.5 155zM130 220q-13 -74 27 -128t111 -54q70 0 128.5 54t71.5 128q12 73 -30 122t-111 49t-127 -49t-70 -122z" />
<glyph unicode="p" horiz-adv-x="583" d="M-17 -207q4 23 36 23h65l95 565h-65q-9 0 -14 0.5t-10.5 6t-4.5 15.5q4 23 36 23h85q23 0 26 -13t-4 -48q89 67 170 67q88 0 138 -64.5t36 -154.5q-16 -92 -92.5 -155.5t-165.5 -63.5q-79 0 -135 75l-43 -253h65q9 0 14.5 -0.5t10.5 -6t3 -16.5q-3 -22 -35 -22h-182 q-9 0 -14 0.5t-10.5 6t-4.5 15.5zM199 192q-9 -53 22.5 -103.5t95.5 -50.5q69 0 130 50.5t73 124.5q12 71 -26.5 122.5t-108.5 51.5q-59 0 -112.5 -37.5t-61.5 -88.5z" />
<glyph unicode="q" horiz-adv-x="554" d="M81 212q16 93 92.5 156.5t166.5 63.5t134 -78l8 45q1 10 3 16t9 11.5t20 5.5q12 0 17.5 -5t5 -12.5t-1.5 -15.5l-98 -583h65q9 0 14 -0.5t10 -6t3 -16.5q-3 -22 -34 -22h-183q-9 0 -14 0.5t-10.5 6t-3.5 16.5q3 22 35 22h65l43 255q-92 -77 -172 -77q-86 0 -137.5 64 t-36.5 154zM134 212q-11 -72 27.5 -123t106.5 -51q65 0 117.5 50t61.5 104l6 38q10 59 -21.5 108t-94.5 49q-69 0 -130 -50.5t-73 -124.5z" />
<glyph unicode="r" horiz-adv-x="408" d="M25 22q3 22 35 22h64l57 337h-64q-9 0 -14 0.5t-10.5 6t-4.5 15.5q4 23 36 23h85q23 0 26 -14t-6 -59q82 79 149 79q31 0 46.5 -17t12.5 -38q-3 -16 -14.5 -25.5t-25.5 -9.5q-13 0 -22.5 9.5t-4.5 35.5q-67 -7 -111.5 -65.5t-57.5 -137.5l-24 -140h90q9 0 14 -0.5 t10.5 -6t4.5 -15.5q-4 -22 -36 -22h-207q-9 0 -14 0.5t-10.5 6t-3.5 15.5z" />
<glyph unicode="s" horiz-adv-x="414" d="M44 27l16 99q2 11 4 16t9 11t20 6q18 0 22 -14q3 -24 7 -39.5t14 -33t30 -26t50 -8.5q12 0 27 2t40 8.5t44 25t23 46.5q5 31 -17.5 50.5t-56.5 28.5l-11 2q-34 6 -52.5 10.5t-47 14.5t-43 21.5t-24 31t-5.5 43.5q3 17 12.5 34t28.5 36t56 31t86 12q54 0 93 -25 q13 25 29 25q22 0 16 -33l-12 -71q-1 -10 -3 -16t-9 -11.5t-20 -5.5q-22 0 -22 18q3 11 0.5 24t-8.5 24.5t-25 19t-49 7.5q-59 0 -91.5 -19.5t-37.5 -49.5q-6 -31 26 -46.5t104 -29.5q14 -2 27 -5.5t35 -13t36.5 -22t24 -35t4.5 -50.5q-8 -49 -53.5 -87.5t-132.5 -38.5 q-67 0 -111 42q-16 -42 -37 -42q-24 0 -16 33z" />
<glyph unicode="t" horiz-adv-x="408" d="M90 403q4 23 37 23h61l16 93q1 10 3 16t9 11.5t20 5.5q12 0 17.5 -5t5 -12.5t-1.5 -15.5l-16 -93h124q9 0 14 -0.5t10.5 -6t3.5 -16.5q-3 -22 -35 -22h-124l-43 -257q-17 -86 45 -86q25 0 47.5 21.5t28.5 61.5q2 8 2.5 11t4 9t9 8t14.5 2q13 0 18.5 -5t5 -12t-1.5 -14 q-9 -54 -49.5 -90t-89.5 -36q-42 0 -70.5 29t-17.5 94l44 264h-62q-9 0 -14 0.5t-10.5 6t-4.5 15.5z" />
<glyph unicode="u" horiz-adv-x="583" d="M85 403q4 23 36 23h85q20 0 25 -7t2 -26l-47 -278q-4 -13 -3 -26.5t7 -25t27.5 -18.5t58.5 -7q20 0 40.5 3.5t48.5 14t48.5 35.5t26.5 61l39 229h-65q-9 0 -14.5 0.5t-10.5 6t-4 16.5q4 22 36 22h85q20 0 25 -7t2 -26l-59 -349h65q9 0 14 -0.5t10.5 -6t4.5 -15.5 q-4 -22 -36 -22h-85q-10 0 -14.5 1.5t-10 12t0.5 32.5q-76 -52 -160 -52q-26 0 -46 3t-44.5 13.5t-35 35.5t-4.5 63l46 272h-65q-9 0 -14 0.5t-10.5 6t-4.5 15.5z" />
<glyph unicode="v" horiz-adv-x="554" d="M95 403q4 23 36 23h144q9 0 14.5 -0.5t11 -6t3.5 -16.5q-3 -22 -36 -22h-55l59 -341h24l172 341h-55q-9 0 -14.5 0.5t-11 6t-4.5 16.5q4 22 37 22h144q9 0 14.5 -0.5t10.5 -6t3 -16.5q-3 -22 -35 -22h-47l-181 -357q-9 -19 -21.5 -23.5t-31.5 -4.5q-14 0 -20.5 1t-14 8 t-9.5 21l-61 355h-47q-9 0 -14 0.5t-10.5 6t-4.5 15.5z" />
<glyph unicode="w" horiz-adv-x="758" d="M88 404q4 22 37 22h140q9 0 14 -0.5t11 -6t4 -16.5q-3 -22 -36 -22h-56l37 -341h12l156 355q8 17 17.5 24t27.5 7q13 0 21 -5t10 -10.5t3 -14.5l39 -356h8l150 341h-56q-9 0 -14 0.5t-11 6t-5 16.5q4 22 37 22h140q8 0 13.5 -0.5t11 -6t3.5 -16.5q-3 -22 -35 -22h-42 l-157 -357q-6 -13 -15 -19.5t-15.5 -7.5t-19.5 -1q-26 0 -33 8t-9 35l-28 342h-5l-158 -371q-11 -14 -46 -14q-15 0 -21.5 1t-13 8t-8.5 21l-36 355h-42q-9 0 -14 0.5t-11 6t-5 16.5z" />
<glyph unicode="x" horiz-adv-x="554" d="M34 22q3 22 36 22h56l165 177l-101 160h-56q-9 0 -14.5 0.5t-11 6t-4.5 16.5q4 22 37 22h144q9 0 14.5 -0.5t10.5 -6t3 -16.5q-3 -22 -35 -22h-41l79 -127l119 127h-42q-9 0 -14.5 0.5t-11 6t-4.5 16.5q4 22 37 22h144q9 0 14 -0.5t10.5 -6t3.5 -16.5q-3 -22 -35 -22h-56 l-151 -161l110 -176h56q9 0 14.5 -0.5t11 -6t4.5 -15.5q-4 -22 -37 -22h-144q-9 0 -14 0.5t-10.5 6t-3.5 16.5q3 21 35 21h42l-89 149l-135 -149h44q9 0 14 -0.5t10.5 -6t4.5 -15.5q-4 -22 -36 -22h-144q-9 0 -14.5 0.5t-11 6t-3.5 15.5z" />
<glyph unicode="y" horiz-adv-x="554" d="M-6 -160q7 36 43 36q14 0 23 -10t6 -26q-1 -4 -2.5 -9.5t-1.5 -6.5q-1 -6 6.5 -10.5t14.5 -4.5q32 0 60 13.5t46.5 35t28 36.5t16.5 30l34 67l-93 390h-48q-9 0 -14.5 0.5t-11 6t-4.5 16.5q4 22 37 22h144q9 0 14 -0.5t10.5 -6t3.5 -16.5q-3 -22 -35 -22h-53l78 -347 l171 347h-55q-8 0 -13.5 0.5t-11 6t-4.5 15.5q4 23 36 23h145q9 0 14.5 -0.5t10.5 -6t3 -16.5q-3 -22 -35 -22h-47l-241 -473q-29 -55 -81 -99t-114 -44q-40 0 -62.5 22t-17.5 53z" />
<glyph unicode="z" horiz-adv-x="467" d="M37 27q0 6 4 16l368 338h-245l-6 -36q-2 -11 -4 -16.5t-9 -11t-20 -5.5q-26 0 -19 33l8 48q3 20 10.5 26.5t26.5 6.5h302q11 0 16.5 -1t10 -7t2.5 -19q-3 -13 -5 -16l-367 -339h263l9 49q4 33 32 33q16 0 20 -11t0 -22l-10 -60q-4 -20 -11 -26.5t-26 -6.5h-322 q-8 0 -12 0.5t-9.5 3t-7 8t0.5 15.5z" />
<glyph unicode="{" d="M111 306q2 11 9 16.5t13 5.5q74 0 119 17q31 13 40 28t14 49q28 172 30 178q35 97 210 97q10 0 15.5 -0.5t11 -6t3.5 -16.5q-1 -11 -8 -16.5t-13 -5.5q-134 0 -163 -47q-3 -4 -12.5 -57.5t-17.5 -105.5l-8 -51q-10 -47 -83 -86q62 -38 52 -99l-27 -166q-5 -13 0 -27 t15.5 -26t42.5 -20t81 -8q22 0 18 -22q-3 -23 -37 -23q-90 0 -140 30q-29 18 -34.5 49.5t1.5 49.5l29 171q8 61 -145 70q-20 0 -16 22z" />
<glyph unicode="|" d="M227 -46l118 703q4 40 33 40q25 0 21 -40l-118 -703q-4 -40 -33 -40q-25 0 -21 40z" />
<glyph unicode="}" d="M49 -63q2 11 9 16.5t13 5.5q53 0 89 7t52 20.5t22 24.5t8 26l31 183q0 5 5 15.5t25.5 32t53.5 38.5q-64 37 -54 98l28 166q5 14 1 28t-14.5 26t-42 20t-81.5 8q-25 0 -22 22q4 23 38 23q91 0 141 -30q29 -18 34.5 -49t-1.5 -48l-29 -172q-8 -62 144 -71q19 -2 16 -22 q-2 -11 -9 -16.5t-13 -5.5q-73 0 -118 -17q-31 -13 -40 -28t-14 -49q-29 -172 -31 -178q-34 -97 -210 -97q-10 0 -15.5 0.5t-11 6t-4.5 16.5z" />
<glyph unicode="~" d="M138 276q3 15 55 50q50 32 81 32q22 0 44 -18q2 -2 5 -6q32 -31 42 -33q27 0 86 48q13 9 20 9q9 0 15 -7.5t4 -16.5q-3 -14 -55 -49q-50 -32 -81 -32q-24 0 -44 18q-15 17 -21.5 23.5t-13 10.5t-12.5 4q-28 0 -86 -47q-11 -9 -20 -9t-15 7.5t-4 15.5z" />
<glyph unicode="&#xa0;" />
<glyph unicode="&#xa1;" horiz-adv-x="292" d="M72 -191l66 343q5 26 12 33.5t28 7.5q7 0 12.5 -0.5t11.5 -4.5t5 -12l-51 -367q-3 -20 -14.5 -32t-20 -14.5t-15.5 -2.5q-6 0 -14.5 3t-16 15t-3.5 31zM161 340q3 18 17 30t32 12t28 -12t7 -30t-17 -30t-32 -12t-28 12t-7 30z" />
<glyph unicode="&#xa2;" horiz-adv-x="467" d="M84 213q12 71 68.5 136.5t154.5 82.5l11 67q2 9 9.5 15.5t17.5 6.5q9 0 14.5 -6.5t3.5 -15.5l-10 -64q22 0 36.5 -0.5t36 -4t33.5 -10.5t20 -20t5 -31q-3 -17 -16 -27.5t-29 -10.5q-35 0 -29 41q1 5 -7.5 9.5t-24 7t-33.5 2.5l-59 -353q36 4 63 20t35 26t19 27 q7 12 25 12q5 0 9.5 -0.5t10 -5.5t3.5 -14q-1 -8 -10.5 -22.5t-28 -33.5t-54 -34.5t-79.5 -18.5l-11 -67q-1 -10 -9 -16.5t-17 -6.5q-10 0 -15.5 6.5t-3.5 16.5l11 68q-81 15 -122.5 76.5t-27.5 141.5zM136 213q-10 -61 18.5 -107t87.5 -64l58 345q-77 -20 -117 -73 t-47 -101z" />
<glyph unicode="&#xa3;" horiz-adv-x="758" d="M53 75q8 47 58.5 67.5t119.5 20.5q42 0 103 -24q-3 50 -32 140h-143q-11 0 -17.5 8t-5.5 19q2 11 11.5 19t20.5 8h117q-15 60 -7 102q12 76 85 126t161 50q89 0 147 -42.5t46 -113.5q-1 -10 -10.5 -18t-20.5 -8t-18 7.5t-5 18.5q8 50 -36 76t-112 26q-66 0 -120.5 -33.5 t-63.5 -88.5q-7 -42 6 -102h222q11 0 17 -8t4 -19t-10.5 -19t-19.5 -8h-197q14 -44 19.5 -61.5t10.5 -48.5t3 -57q46 -24 67.5 -34.5t59.5 -23t69 -12.5q37 0 67.5 28.5t37.5 68.5q2 11 11.5 19t20.5 8t17.5 -8t4.5 -19q-10 -62 -59 -106t-109 -44q-29 0 -67.5 13 t-63.5 25.5t-72 37.5q-58 -76 -215 -76q-47 0 -78 23.5t-24 62.5zM107 75q-3 -18 13.5 -25.5t43.5 -7.5q128 0 163 44q-61 23 -105 23q-110 0 -115 -34z" />
<glyph unicode="&#xa4;" horiz-adv-x="817" d="M171 56q-16 18 14 48l68 59q-12 22 -19 45t-8.5 45t1.5 43.5t9.5 42t16.5 40t22 37t26 33.5l-48 59q-20 27 -3 44q3 3 7 5t6.5 3t6 1t5.5 -0.5t5 -1.5t4.5 -2t4 -3t3.5 -3l3 -3l2 -2l49 -58q78 49 152 49q78 0 135 -50l68 59q30 25 46 10q16 -18 -14 -48l-69 -58 q30 -50 30.5 -104t-20.5 -99t-58 -85l49 -58q21 -26 3 -44q-21 -20 -47 6l-48 59q-75 -50 -152 -50q-75 0 -135 49l-69 -58q-31 -24 -46 -10zM282 306q-12 -74 31.5 -125.5t116.5 -51.5q36 0 71.5 14t63 37.5t47 56.5t25.5 69q12 74 -31 125.5t-117 51.5q-48 0 -93 -23.5 t-75.5 -64.5t-38.5 -89z" />
<glyph unicode="&#xa5;" horiz-adv-x="758" d="M127 589q4 22 37 22h160q9 0 14.5 -0.5t11 -6t3.5 -16.5q-3 -21 -36 -21h-42l88 -154h169l140 154h-42q-9 0 -14.5 0.5t-11 6t-4.5 15.5q4 22 37 22h160q9 0 14.5 -0.5t11 -6t3.5 -16.5q-3 -21 -36 -21h-54l-138 -154h85q11 0 17.5 -8t4.5 -19q-1 -11 -10.5 -18.5 t-20.5 -7.5h-125l-97 -108h204q11 0 17.5 -7.5t5.5 -18.5q-2 -11 -11.5 -19t-20.5 -8h-209l-26 -155h65q9 0 14 -0.5t10.5 -6t4.5 -15.5q-4 -22 -36 -22h-183q-8 0 -13.5 0.5t-11 6t-3.5 15.5q3 22 35 22h65l26 155h-207q-11 0 -17.5 8t-4.5 19q1 11 10.5 18.5t20.5 7.5h202 l-61 108h-123q-11 0 -17.5 7.5t-5.5 18.5q2 11 11.5 19t20.5 8h83l-86 154h-54q-9 0 -14.5 0.5t-11 6t-4.5 15.5zM393 360l35 -61l55 61h-90z" />
<glyph unicode="&#xa6;" d="M227 -46l42 247q1 10 10 16.5t20 6.5t18 -6.5t6 -16.5l-42 -247q-4 -40 -33 -40q-25 0 -21 40zM303 410l42 247q4 40 33 40q25 0 21 -40l-42 -247q-1 -10 -10 -16.5t-20 -6.5t-18 6.5t-6 16.5z" />
<glyph unicode="&#xa7;" horiz-adv-x="545" d="M98 306q7 38 34 68t63 42q-16 28 -10 63q10 62 67 102.5t126 40.5t113 -35t35 -92q-3 -15 -16 -26t-28 -11t-24 11t-6 26q1 16 17 28q-17 45 -100 45q-46 0 -85 -24.5t-45 -64.5q-5 -34 19 -54t69 -37l95 -36q56 -22 88 -63t23 -95q-6 -38 -33 -68t-64 -42q15 -29 11 -63 q-11 -62 -68 -102.5t-125 -40.5q-69 0 -113 35t-35 92q2 15 15 26t28 11t24 -11t7 -26q-3 -16 -18 -28q9 -22 37 -33.5t64 -11.5q46 0 84.5 24.5t45.5 64.5q5 34 -19 54t-69 37l-95 36q-56 22 -88.5 63t-23.5 95zM152 306q-12 -70 85 -107l95 -36q41 -16 67 -37 q28 -2 52 18.5t28 49.5q12 70 -85 107l-95 36q-40 17 -67 37q-27 1 -51 -19t-29 -49z" />
<glyph unicode="&#xa8;" d="M231 551q2 14 15 25.5t29 11.5t25 -11t7 -26t-15 -26t-30 -11q-14 0 -23.5 11t-7.5 26zM403 551q2 14 15 25.5t30 11.5q15 0 24 -11t7 -26t-14.5 -26t-29.5 -11q-15 0 -24.5 11t-7.5 26z" />
<glyph unicode="&#xa9;" horiz-adv-x="611" d="M51 306q21 126 125.5 215.5t231.5 89.5q126 0 200.5 -89.5t53.5 -215.5q-21 -127 -125.5 -216.5t-230.5 -89.5q-127 0 -201.5 89.5t-53.5 216.5zM91 306q-18 -110 47 -188t175 -78t200.5 78t108.5 188t-47 187.5t-174 77.5q-110 0 -201 -77.5t-109 -187.5zM139 306 q13 77 83.5 133t159.5 56q80 0 126 -41q2 4 25 38q5 3 10 3q14 0 9 -19l-14 -86q-1 -7 -2 -10t-5.5 -6.5t-11.5 -3.5q-12 0 -14 9q-2 15 -3 22t-10 21.5t-25 24.5q-31 22 -86 22q-78 0 -139 -48.5t-72 -114.5q-11 -67 34 -115.5t124 -48.5q54 0 93 18q47 21 58 62 q2 14 17 14q16 0 14 -15q-8 -46 -60 -75.5t-131 -29.5q-91 0 -142 56.5t-38 133.5z" />
<glyph unicode="&#xaa;" horiz-adv-x="472" d="M116 407q7 46 77.5 71t190.5 27q8 48 -18.5 70t-81.5 22h-32q-17 -3 -21.5 -6.5t-5.5 -11.5q-6 -24 -33 -24q-12 0 -19.5 6.5t-5.5 17.5q7 43 120 43q78 0 113 -30t28 -72l-27 -163q26 -8 56 -8q7 0 11 -0.5t9 -3.5t4 -8q-2 -13 -36 -13q-23 0 -34.5 1t-27 7t-23.5 18 q-57 -31 -130 -31q-57 0 -88.5 26t-25.5 62zM123 257q2 13 25 13h267q9 0 15.5 -3.5t5.5 -9.5q-3 -13 -25 -13h-267q-10 0 -16 3.5t-5 9.5zM157 407q-4 -25 19.5 -43.5t65.5 -18.5q45 0 78 12q43 15 49 54l11 70q-107 -3 -162.5 -24t-60.5 -50z" />
<glyph unicode="&#xab;" horiz-adv-x="583" d="M160 207q-7 10 3 20q92 86 146 197q6 10 15 10h16q8 0 11.5 -6t-0.5 -13q-47 -105 -137 -199q59 -91 71 -197q1 -7 -4 -13t-13 -6h-16q-10 0 -12 10q-17 110 -80 197zM340 207q-7 10 3 20q92 86 146 197q6 10 15 10h17q7 0 10.5 -6t-0.5 -13q-48 -107 -137 -199 q58 -88 71 -197q1 -7 -4 -13t-12 -6h-17q-10 0 -12 10q-17 110 -80 197z" />
<glyph unicode="&#xac;" horiz-adv-x="817" d="M121 384q2 11 11 19t20 8h650q11 0 17 -8t4 -19l-26 -156q-1 -11 -10 -19t-20 -8t-18 8t-5 19l22 130h-623q-10 0 -17 7.5t-5 18.5z" />
<glyph unicode="&#xad;" horiz-adv-x="350" d="M52 213q3 22 35 22h205q9 0 14.5 -0.5t10.5 -6t3 -16.5q-3 -21 -35 -21h-205q-9 0 -14 0.5t-10.5 6t-3.5 15.5z" />
<glyph unicode="&#xae;" horiz-adv-x="611" d="M51 306q21 126 125.5 215.5t231.5 89.5q126 0 200.5 -89.5t53.5 -215.5q-21 -127 -125.5 -216.5t-230.5 -89.5q-127 0 -201.5 89.5t-53.5 216.5zM91 306q-18 -110 47 -188t175 -78t200.5 78t108.5 188t-47 187.5t-174 77.5q-110 0 -201 -77.5t-109 -187.5zM148 153 q2 12 20 12h35l47 287h-35h-5.5t-5.5 1t-4.5 4t-0.5 7q3 13 21 13h151q61 0 100.5 -26.5t32.5 -64.5q-6 -45 -84 -76q28 -16 35.5 -30.5t0.5 -52.5q-7 -29 -2 -48.5t27 -19.5q30 0 35 30q2 12 16 12q4 0 6.5 -0.5t5 -3.5t1.5 -8q-4 -21 -23.5 -38t-45.5 -17q-32 0 -46 24 q-11 19 -4 66q6 27 3.5 38t-18.5 21q-26 13 -72 13h-86l-21 -131h36q5 0 8 -0.5t5.5 -3t1.5 -8.5q-3 -13 -20 -13h-100q-5 0 -7.5 0.5t-5.5 3.5t-2 9zM258 321h82q49 0 90.5 19t45.5 46q5 28 -30 47t-85 19h-82z" />
<glyph unicode="&#xaf;" d="M170 551q4 23 35 23h308q9 0 14 -1t10 -6.5t3 -16.5q-4 -22 -35 -22h-306q-10 0 -15.5 0.5t-10.5 6t-3 16.5z" />
<glyph unicode="&#xb0;" horiz-adv-x="394" d="M167 473q8 45 44.5 78t80.5 33q47 0 75.5 -32t21.5 -78q-8 -45 -44.5 -78t-80.5 -33q-50 0 -77.5 32.5t-19.5 77.5zM210 474q-5 -29 11 -49.5t44 -20.5t52.5 20.5t28.5 48.5q5 28 -11.5 48.5t-44.5 20.5q-27 0 -50.5 -20t-29.5 -48z" />
<glyph unicode="&#xb1;" horiz-adv-x="817" d="M62 27q4 27 43 27h285l37 224h-285q-39 0 -34 27q4 27 43 27h285l40 239q8 39 34 39q28 0 20 -39l-40 -239h285q9 0 15.5 -1t14 -7.5t5.5 -18.5q-5 -27 -44 -27h-285l-37 -224h285q9 0 15.5 -1t14 -7.5t5.5 -18.5q-5 -27 -44 -27h-624q-39 0 -34 27z" />
<glyph unicode="&#xb2;" horiz-adv-x="377" d="M87 267q6 12 9 15l183 112q32 20 53 36.5t36.5 37.5t18.5 43q5 29 -9.5 49.5t-41 29.5t-60.5 9q-76 0 -110 -57q17 -11 9 -22.5t-24 -11.5q-9 0 -16 5t-5 16q6 37 49.5 65t103.5 28q66 0 106 -30t31 -81q-9 -54 -79 -104q-75 -52 -201 -125h209q2 16 5.5 19.5t15.5 3.5 q11 0 12.5 -4t0.5 -13l-2 -15q-2 -10 -6.5 -13t-16.5 -3h-252q-6 0 -9.5 0.5t-7 2.5t-2.5 7z" />
<glyph unicode="&#xb3;" horiz-adv-x="377" d="M92 332q4 19 27 19q10 0 16 -5t5 -13q-3 -10 -16 -16q23 -43 112 -43q54 0 90.5 25t41.5 57q5 31 -27 56.5t-80 25.5h-34q-8 0 -14 3t-5 10q4 14 48 14h8t8.5 0.5t7.5 0.5t7.5 0.5t7 1t7.5 1.5l7.5 2.5t8 3t7.5 3.5t8 5q39 24 44 59q5 24 -20 40.5t-67 16.5 q-56 0 -91 -18l-3 -13l3 -10q-3 -18 -27 -18q-9 0 -15.5 4.5t-5.5 14.5q5 29 43 46t99 17q58 0 90.5 -22.5t27.5 -54.5q-8 -53 -92 -93q92 -37 82 -98q-7 -42 -55 -73.5t-114 -31.5t-106 22.5t-34 60.5z" />
<glyph unicode="&#xb4;" d="M250 523q2 13 24 22l147 62l17 4q11 0 17.5 -7.5t4.5 -19.5q-2 -17 -27 -27l-155 -64q-6 -2 -8 -2q-13 0 -17 12t-3 20z" />
<glyph unicode="&#xb5;" horiz-adv-x="583" d="M-17 -207q4 23 36 23h65l95 565h-65q-9 0 -14 0.5t-10.5 6t-4.5 15.5q4 23 36 23h85q20 0 25 -7t2 -26l-47 -278q-4 -13 -2.5 -26.5t7.5 -24.5t27.5 -18t58.5 -7q20 0 40 3.5t48 13.5t48.5 35t26.5 61l39 229h-65q-9 0 -14.5 0.5t-10.5 6t-4 16.5q4 22 36 22h85 q20 0 25 -7t2 -26l-58 -348h65q9 0 14 -0.5t10.5 -6t3.5 -16.5q-4 -22 -36 -22h-85q-10 0 -14.5 1.5t-10 12t0.5 32.5q-76 -52 -160 -52q-63 0 -94 18l-33 -196h65q9 0 14.5 -0.5t10.5 -6t3 -16.5q-3 -22 -35 -22h-182q-9 0 -14 0.5t-10.5 6t-4.5 15.5z" />
<glyph unicode="&#xb6;" horiz-adv-x="611" d="M136 468q16 94 99 161.5t187 67.5h250q7 0 11 -0.5t8.5 -3t3.5 -8.5q-2 -11 -27 -11h-55l-141 -849q-5 -25 -19 -25t-9 25l141 849h-91l-141 -849q-5 -25 -17 -25q-15 0 -10 25l69 412q-54 2 -102.5 16.5t-88 41.5t-58.5 72t-10 101z" />
<glyph unicode="&#xb7;" horiz-adv-x="817" d="M417 306q3 18 17 30t32 12t28 -12t7 -30t-17 -30t-32 -12t-28 12t-7 30z" />
<glyph unicode="&#xb8;" horiz-adv-x="467" d="M114 -192q2 11 10.5 16t17 6t25.5 1q132 0 140 51q4 20 -13 34.5t-46 15.5q-22 1 -17 31l5 34q2 10 4 15t9 10.5t19 5.5q19 0 21.5 -13t-4.5 -42q85 -24 74 -93q-5 -27 -23 -46t-38.5 -28t-55 -14t-54.5 -5.5t-55 -0.5q-8 0 -14.5 5.5t-4.5 16.5z" />
<glyph unicode="&#xb9;" horiz-adv-x="394" d="M131 269q3 13 22 13h77l50 299q-49 -19 -88 -19q-5 0 -10 2.5t-4 8.5q2 12 13 12q63 0 105 34q6 3 10 3q14 0 11 -15l-54 -325h76q8 0 13.5 -3t4.5 -10q-3 -12 -22 -12h-186q-7 0 -13 3t-5 9z" />
<glyph unicode="&#xba;" horiz-adv-x="440" d="M111 257q2 13 24 13h260q9 0 15 -3.5t5 -9.5q-3 -13 -24 -13h-260q-10 0 -15.5 3.5t-4.5 9.5zM114 470q11 63 72 107.5t138 44.5t123 -44.5t35 -107.5q-10 -63 -71.5 -107t-137.5 -44t-122.5 44t-36.5 107zM156 475q-8 -53 27 -91.5t95 -38.5t108 38.5t56 91.5 q9 52 -27 87t-95 35t-107 -35t-57 -87z" />
<glyph unicode="&#xbb;" horiz-adv-x="583" d="M124 19q52 109 136 197q-54 92 -70 199q-1 7 4 13t12 6h17q11 0 13 -10q17 -113 80 -197q7 -10 -3 -20q-89 -82 -146 -197q-5 -10 -16 -10h-17q-7 0 -10 6t0 13zM304 19q51 107 137 197q-56 94 -71 199q-1 7 4.5 13t12.5 6h16q11 0 13 -10q17 -113 80 -197q7 -10 -3 -20 q-89 -82 -146 -197q-5 -10 -16 -10h-16q-7 0 -10 6t-1 13z" />
<glyph unicode="&#xbc;" horiz-adv-x="840" d="M124 269q3 13 22 13h77l50 299q-49 -19 -88 -19q-5 0 -10 2.5t-4 8.5q2 12 13 12q62 0 105 34q6 3 10 3q13 0 11 -15l-54 -325h76q8 0 13.5 -3t4.5 -10q-3 -12 -22 -12h-186q-7 0 -13 3t-5 9zM215 9q0 3 14 19l531 588q10 10 20 10q18 0 15 -23q-3 -10 -13 -20l-531 -587 q-11 -11 -22 -11q-19 0 -14 24zM463 126q2 8 3 10l206 221q9 10 24 10h22q13 0 17.5 -3.5t2.5 -13.5l-36 -220h65q8 0 13 -3.5t4 -10.5q-1 -12 -22 -12h-65l-13 -78h53q7 0 13 -3.5t5 -10.5q-1 -12 -22 -12h-134q-19 0 -18 12q3 14 22 14h54l13 78h-195q-10 0 -12.5 6 t0.5 16zM492 130h183l35 210h-22z" />
<glyph unicode="&#xbd;" horiz-adv-x="933" d="M122 269q3 13 22 13h77l50 299q-49 -19 -88 -19q-5 0 -10 2.5t-4 8.5q2 12 13 12q63 0 105 34q6 3 10 3q13 0 11 -15l-54 -325h76q8 0 13.5 -3t4.5 -10q-3 -12 -22 -12h-186q-7 0 -13 3t-5 9zM226 9q0 3 14 19l531 588q10 10 20 10q18 0 15 -23q-3 -10 -13 -20l-531 -587 q-11 -11 -22 -11q-19 0 -14 24zM569 10q6 12 9 15l183 112q100 62 108 117q7 43 -25.5 65.5t-85.5 22.5q-77 0 -109 -57q17 -10 8.5 -22t-24.5 -12q-8 0 -15 5t-6 16q6 37 49.5 65t103.5 28q66 0 106 -30t31 -81q-8 -53 -79 -104q-75 -52 -201 -125h209q3 16 6 19.5t15 3.5 q17 0 13 -17l-2 -15q-2 -10 -6.5 -13t-16.5 -3h-252q-6 0 -9.5 0.5t-7 2.5t-2.5 7z" />
<glyph unicode="&#xbe;" horiz-adv-x="840" d="M117 332q4 19 27 19q10 0 16 -5t5 -13q-3 -10 -16 -16q23 -43 112 -43q54 0 90.5 25t41.5 57q5 31 -27 56.5t-80 25.5h-34q-8 0 -14 3t-5 10q3 14 48 14h8t8.5 0.5t7.5 0.5t7.5 0.5t7 1t7.5 1.5l7.5 2.5t8 3t7.5 3.5t8 5q39 24 44 59q5 24 -20 40.5t-67 16.5 q-56 0 -91 -18l-3 -13l3 -10q-3 -18 -27 -18q-9 0 -15.5 4.5t-5.5 14.5q5 29 43 46t99 17q58 0 90.5 -22.5t27.5 -54.5q-8 -53 -92 -93q92 -37 82 -98q-7 -42 -55 -73.5t-114 -31.5t-106 22.5t-34 60.5zM215 9q0 3 14 19l531 588q10 10 20 10q18 0 15 -23q-3 -10 -13 -20 l-531 -587q-11 -11 -22 -11q-19 0 -14 24zM463 126q2 8 3 10l206 221q9 10 24 10h22q13 0 17.5 -3.5t2.5 -13.5l-36 -220h65q8 0 13 -3.5t4 -10.5q-1 -12 -22 -12h-65l-13 -78h53q7 0 13 -3.5t5 -10.5q-1 -12 -22 -12h-134q-19 0 -18 12q3 14 22 14h54l13 78h-195 q-10 0 -12.5 6t0.5 16zM492 130h183l35 210h-22z" />
<glyph unicode="&#xbf;" horiz-adv-x="496" d="M43 -116q9 54 65 91q97 61 117 167l3 18q4 21 11 27t26 6q22 0 25.5 -10t-1.5 -35q-4 -24 -10 -43t-21.5 -48t-48 -59.5t-79.5 -60.5q-30 -21 -35 -53q-3 -20 5 -35t20.5 -22.5t31 -11.5t29.5 -5t21 -1q99 0 147 47q-15 22 -1.5 43.5t35.5 21.5q15 0 24.5 -10.5 t5.5 -28.5q-8 -50 -62.5 -83.5t-155.5 -33.5q-44 0 -76 9t-46.5 23t-23.5 30.5t-7.5 31.5t1.5 25zM247 340q3 18 17.5 30t32.5 12q17 0 27.5 -12t7.5 -30t-17.5 -30t-31.5 -12q-18 0 -28.5 12t-7.5 30z" />
<glyph unicode="&#xc0;" horiz-adv-x="758" d="M44 23q3 21 35 21h54l289 551q15 28 51 28h19q12 0 18 -1t13.5 -7.5t9.5 -20.5l105 -550h54q9 0 14 -0.5t10.5 -6t4.5 -15.5q-4 -22 -36 -22h-164q-9 0 -14 0.5t-11 6t-4 16.5q3 21 36 21h55l-25 133h-299l-71 -133h55q9 0 14 -0.5t11 -6t5 -15.5q-4 -22 -37 -22h-164 q-9 0 -14 0.5t-10.5 6t-3.5 16.5zM282 222h267l-69 357h-11zM422 719q-25 12 -17.5 33t30.5 21q6 0 15 -4l127 -62q18 -9 16 -22q-1 -9 -9 -20.5t-21 -11.5q-2 0 -8 2z" />
<glyph unicode="&#xc1;" horiz-adv-x="758" d="M44 23q3 21 35 21h54l289 551q15 28 51 28h19q12 0 18 -1t13.5 -7.5t9.5 -20.5l105 -550h54q9 0 14 -0.5t10.5 -6t4.5 -15.5q-4 -22 -36 -22h-164q-9 0 -14 0.5t-11 6t-4 16.5q3 21 36 21h55l-25 133h-299l-71 -133h55q9 0 14 -0.5t11 -6t5 -15.5q-4 -22 -37 -22h-164 q-9 0 -14 0.5t-10.5 6t-3.5 16.5zM282 222h267l-69 357h-11zM394 685q2 13 24 22l147 62l17 4q11 0 17.5 -7.5t4.5 -19.5q-2 -17 -27 -27l-155 -64q-6 -2 -8 -2q-13 0 -17 12t-3 20z" />
<glyph unicode="&#xc2;" horiz-adv-x="758" d="M44 23q3 21 35 21h54l289 551q15 28 51 28h19q12 0 18 -1t13.5 -7.5t9.5 -20.5l105 -550h54q9 0 14 -0.5t10.5 -6t4.5 -15.5q-4 -22 -36 -22h-164q-9 0 -14 0.5t-11 6t-4 16.5q3 21 36 21h55l-25 133h-299l-71 -133h55q9 0 14 -0.5t11 -6t5 -15.5q-4 -22 -37 -22h-164 q-9 0 -14 0.5t-10.5 6t-3.5 16.5zM282 222h267l-69 357h-11zM349 665q2 15 16 19l129 44q7 2 14 0l115 -44q16 -6 8.5 -23.5t-21.5 -17.5q-5 0 -8 1l-109 35l-121 -35q-3 -1 -8 -1q-8 0 -12.5 6.5t-2.5 15.5z" />
<glyph unicode="&#xc3;" horiz-adv-x="758" d="M44 23q3 21 35 21h54l289 551q15 28 51 28h19q12 0 18 -1t13.5 -7.5t9.5 -20.5l105 -550h54q9 0 14 -0.5t10.5 -6t4.5 -15.5q-4 -22 -36 -22h-164q-9 0 -14 0.5t-11 6t-4 16.5q3 21 36 21h55l-25 133h-299l-71 -133h55q9 0 14 -0.5t11 -6t5 -15.5q-4 -22 -37 -22h-164 q-9 0 -14 0.5t-10.5 6t-3.5 16.5zM282 222h267l-69 357h-11zM320 666q2 15 55 50q50 32 81 32q22 0 44 -18q2 -2 5 -6q32 -31 42 -33q27 0 86 48q13 9 20 9q9 0 15 -7.5t4 -16.5q-3 -15 -56 -49q-48 -32 -80 -32q-26 0 -44 18q-21 23 -30 30.5t-18 7.5q-27 0 -85 -47 q-11 -9 -20 -9t-15 7.5t-4 15.5z" />
<glyph unicode="&#xc4;" horiz-adv-x="758" d="M44 23q3 21 35 21h54l289 551q15 28 51 28h19q12 0 18 -1t13.5 -7.5t9.5 -20.5l105 -550h54q9 0 14 -0.5t10.5 -6t4.5 -15.5q-4 -22 -36 -22h-164q-9 0 -14 0.5t-11 6t-4 16.5q3 21 36 21h55l-25 133h-299l-71 -133h55q9 0 14 -0.5t11 -6t5 -15.5q-4 -22 -37 -22h-164 q-9 0 -14 0.5t-10.5 6t-3.5 16.5zM282 222h267l-69 357h-11zM354 680q2 14 15 25.5t29 11.5t25 -11t6 -26q-2 -15 -14.5 -26t-29.5 -11q-15 0 -24 11t-7 26zM557 680q2 14 15 25.5t29 11.5t25 -11t6 -26q-2 -15 -14.5 -26t-29.5 -11q-15 0 -24 11t-7 26z" />
<glyph unicode="&#xc5;" horiz-adv-x="758" d="M44 23q3 21 35 21h54l289 551q15 28 51 28h9q-43 0 -73 22t-26 46t40.5 46t82.5 22q43 0 73 -22t26 -46t-40.5 -46t-82.5 -22h10q12 0 18 -1t13.5 -7.5t9.5 -20.5l105 -550h54q9 0 14 -0.5t10.5 -6t4.5 -15.5q-4 -22 -36 -22h-164q-9 0 -14 0.5t-11 6t-4 16.5q3 21 36 21 h55l-25 133h-299l-71 -133h55q9 0 14 -0.5t11 -6t5 -15.5q-4 -22 -37 -22h-164q-9 0 -14 0.5t-10.5 6t-3.5 16.5zM282 222h267l-69 357h-11zM426 691q-2 -16 16 -27.5t46 -11.5q26 0 48.5 11.5t25.5 27.5t-15 27.5t-46 11.5q-26 0 -49 -11.5t-26 -27.5z" />
<glyph unicode="&#xc6;" horiz-adv-x="933" d="M44 23q3 21 36 21h55l317 523h-32q-9 0 -14 0.5t-11 5.5t-5 15q4 23 37 23h520q20 0 25 -7t1 -26l-12 -75q-2 -11 -4 -16.5t-9 -11t-20 -5.5q-26 0 -19 33l11 64h-294l-38 -228h170q4 27 6.5 36.5t9.5 16t20 6.5q16 0 20 -11t0 -22l-16 -96q-2 -11 -4 -16t-8.5 -11 t-18.5 -6q-19 0 -21.5 13t4.5 46h-170l-42 -251h323l14 81q4 33 32 33q12 0 17.5 -5t5 -12.5t-1.5 -15.5l-15 -92q-4 -20 -11.5 -26.5t-26.5 -6.5h-437q-9 0 -14 0.5t-11 6t-4 15.5q3 22 36 22h40l25 145h-230l-88 -145h52q9 0 14.5 -0.5t10.5 -6t4 -15.5q-4 -22 -36 -22 h-164q-9 0 -14.5 0.5t-11 6t-3.5 16.5zM306 233h211l56 334h-63z" />
<glyph unicode="&#xc7;" horiz-adv-x="758" d="M109 306q21 128 138 222t266 94q134 0 210 -69q18 29 43 64q7 5 16 5q20 0 15 -33l-24 -143q-1 -10 -3 -16t-9 -11.5t-19 -5.5q-21 0 -23 15q-1 22 -4 36.5t-18 37t-42 40.5q-56 36 -143 36q-130 0 -231.5 -81t-119.5 -191q-18 -111 56.5 -192t206.5 -81q89 0 155 30 q36 16 58 37.5t28 35t10 31.5q5 22 30 22q26 0 21 -25q-11 -67 -77.5 -113t-174.5 -59q-3 -19 -4 -20q36 -6 58 -30.5t16 -61.5q-5 -27 -23 -46t-38.5 -28t-55 -14t-54.5 -5.5t-55 -0.5q-8 0 -14 5.5t-4 16.5t10.5 16t16.5 6t25 1q132 0 140 51q4 20 -13 34.5t-45 15.5 q-23 1 -18 31l4 26h-11q-152 0 -237 94t-63 223z" />
<glyph unicode="&#xc8;" horiz-adv-x="700" d="M50 22q3 22 35 22h65l88 523h-65q-9 0 -14 0.5t-10.5 5.5t-4.5 15q4 23 36 23h531q20 0 25 -7t1 -26l-12 -75q-2 -11 -4 -16.5t-9 -11t-20 -5.5q-27 0 -20 33l11 64h-393l-38 -228h224q4 27 6.5 36.5t9.5 16t20 6.5q12 0 17.5 -5t5 -12.5t-1.5 -15.5l-16 -96 q-2 -11 -4 -16t-9 -11t-19 -6q-19 0 -21.5 13t4.5 46h-224l-42 -251h423l14 81q4 33 32 33q17 0 20.5 -11t-0.5 -22l-15 -92q-4 -20 -11 -26.5t-27 -6.5h-560q-9 0 -14 0.5t-10.5 6t-3.5 15.5zM393 719q-25 12 -17.5 33t30.5 21q6 0 15 -4l127 -62q18 -9 16 -22 q-1 -9 -9 -20.5t-21 -11.5q-2 0 -8 2z" />
<glyph unicode="&#xc9;" horiz-adv-x="700" d="M50 22q3 22 35 22h65l88 523h-65q-9 0 -14 0.5t-10.5 5.5t-4.5 15q4 23 36 23h531q20 0 25 -7t1 -26l-12 -75q-2 -11 -4 -16.5t-9 -11t-20 -5.5q-27 0 -20 33l11 64h-393l-38 -228h224q4 27 6.5 36.5t9.5 16t20 6.5q12 0 17.5 -5t5 -12.5t-1.5 -15.5l-16 -96 q-2 -11 -4 -16t-9 -11t-19 -6q-19 0 -21.5 13t4.5 46h-224l-42 -251h423l14 81q4 33 32 33q17 0 20.5 -11t-0.5 -22l-15 -92q-4 -20 -11 -26.5t-27 -6.5h-560q-9 0 -14 0.5t-10.5 6t-3.5 15.5zM365 685q2 13 24 22l147 62l17 4q11 0 17.5 -7.5t4.5 -19.5q-2 -17 -27 -27 l-155 -64q-6 -2 -8 -2q-13 0 -17 12t-3 20z" />
<glyph unicode="&#xca;" horiz-adv-x="700" d="M50 22q3 22 35 22h65l88 523h-65q-9 0 -14 0.5t-10.5 5.5t-4.5 15q4 23 36 23h531q20 0 25 -7t1 -26l-12 -75q-2 -11 -4 -16.5t-9 -11t-20 -5.5q-27 0 -20 33l11 64h-393l-38 -228h224q4 27 6.5 36.5t9.5 16t20 6.5q12 0 17.5 -5t5 -12.5t-1.5 -15.5l-16 -96 q-2 -11 -4 -16t-9 -11t-19 -6q-19 0 -21.5 13t4.5 46h-224l-42 -251h423l14 81q4 33 32 33q17 0 20.5 -11t-0.5 -22l-15 -92q-4 -20 -11 -26.5t-27 -6.5h-560q-9 0 -14 0.5t-10.5 6t-3.5 15.5zM320 665q2 15 16 19l129 44q7 2 14 0l115 -44q16 -6 8.5 -23.5t-21.5 -17.5 q-5 0 -8 1l-109 35l-121 -35q-3 -1 -8 -1q-8 0 -12.5 6.5t-2.5 15.5z" />
<glyph unicode="&#xcb;" horiz-adv-x="700" d="M50 22q3 22 35 22h65l88 523h-65q-9 0 -14 0.5t-10.5 5.5t-4.5 15q4 23 36 23h531q20 0 25 -7t1 -26l-12 -75q-2 -11 -4 -16.5t-9 -11t-20 -5.5q-27 0 -20 33l11 64h-393l-38 -228h224q4 27 6.5 36.5t9.5 16t20 6.5q12 0 17.5 -5t5 -12.5t-1.5 -15.5l-16 -96 q-2 -11 -4 -16t-9 -11t-19 -6q-19 0 -21.5 13t4.5 46h-224l-42 -251h423l14 81q4 33 32 33q17 0 20.5 -11t-0.5 -22l-15 -92q-4 -20 -11 -26.5t-27 -6.5h-560q-9 0 -14 0.5t-10.5 6t-3.5 15.5zM325 680q2 14 15 25.5t29 11.5t25 -11t6 -26q-2 -15 -14.5 -26t-29.5 -11 q-15 0 -24 11t-7 26zM528 680q2 14 15 25.5t29 11.5t25 -11t6 -26q-2 -15 -14.5 -26t-29.5 -11q-15 0 -24 11t-7 26z" />
<glyph unicode="&#xcc;" horiz-adv-x="350" d="M50 22q3 22 35 22h70l88 523h-70q-8 0 -13.5 0.5t-11 5.5t-4.5 15q4 23 36 23h193q9 0 14 -0.5t10.5 -6t3.5 -16.5q-3 -21 -35 -21h-70l-88 -523h70q9 0 14 -0.5t10.5 -6t4.5 -15.5q-4 -22 -36 -22h-193q-8 0 -13.5 0.5t-11 6t-3.5 15.5zM218 719q-25 12 -17.5 33 t30.5 21q6 0 15 -4l127 -62q18 -9 16 -22q-1 -9 -9 -20.5t-21 -11.5q-2 0 -8 2z" />
<glyph unicode="&#xcd;" horiz-adv-x="350" d="M50 22q3 22 35 22h70l88 523h-70q-8 0 -13.5 0.5t-11 5.5t-4.5 15q4 23 36 23h193q9 0 14 -0.5t10.5 -6t3.5 -16.5q-3 -21 -35 -21h-70l-88 -523h70q9 0 14 -0.5t10.5 -6t4.5 -15.5q-4 -22 -36 -22h-193q-8 0 -13.5 0.5t-11 6t-3.5 15.5zM190 685q2 13 24 22l147 62l17 4 q11 0 17.5 -7.5t4.5 -19.5q-2 -17 -27 -27l-155 -64q-6 -2 -8 -2q-13 0 -17 12t-3 20z" />
<glyph unicode="&#xce;" horiz-adv-x="350" d="M50 22q3 22 35 22h70l88 523h-70q-8 0 -13.5 0.5t-11 5.5t-4.5 15q4 23 36 23h193q9 0 14 -0.5t10.5 -6t3.5 -16.5q-3 -21 -35 -21h-70l-88 -523h70q9 0 14 -0.5t10.5 -6t4.5 -15.5q-4 -22 -36 -22h-193q-8 0 -13.5 0.5t-11 6t-3.5 15.5zM145 665q2 15 16 19l129 44 q7 2 14 0l115 -44q16 -6 8.5 -23.5t-21.5 -17.5q-5 0 -8 1l-109 35l-121 -35q-3 -1 -8 -1q-8 0 -12.5 6.5t-2.5 15.5z" />
<glyph unicode="&#xcf;" horiz-adv-x="350" d="M50 22q3 22 35 22h70l88 523h-70q-8 0 -13.5 0.5t-11 5.5t-4.5 15q4 23 36 23h193q9 0 14 -0.5t10.5 -6t3.5 -16.5q-3 -21 -35 -21h-70l-88 -523h70q9 0 14 -0.5t10.5 -6t4.5 -15.5q-4 -22 -36 -22h-193q-8 0 -13.5 0.5t-11 6t-3.5 15.5zM150 680q2 14 15 25.5t29 11.5 t25 -11t6 -26q-2 -15 -14.5 -26t-29.5 -11q-15 0 -24 11t-7 26zM353 680q2 14 15 25.5t29 11.5t25 -11t6 -26q-2 -15 -14.5 -26t-29.5 -11q-15 0 -24 11t-7 26z" />
<glyph unicode="&#xd0;" horiz-adv-x="788" d="M49 22q3 22 35 22h65l40 239h-70q-10 0 -15.5 6.5t-3.5 16.5q2 9 9.5 16t17.5 7h70l40 238h-65q-9 0 -14 0.5t-10.5 5.5t-4.5 15q4 23 36 23h331q133 0 212 -91.5t57 -219.5q-20 -124 -128.5 -212t-242.5 -88h-331q-9 0 -14 0.5t-10.5 6t-3.5 15.5zM201 44h196 q120 0 216 75.5t113 181.5q18 107 -51 186.5t-191 79.5h-195l-40 -238h200q9 0 15 -7t4 -16q-1 -10 -9.5 -16.5t-17.5 -6.5h-200z" />
<glyph unicode="&#xd1;" horiz-adv-x="758" d="M56 22q3 22 35 22h65l88 523h-65q-8 0 -13.5 0.5t-11 5.5t-4.5 15q4 23 36 23h98q44 0 57 -30l217 -537h18l88 523h-65q-9 0 -14 0.5t-10.5 5.5t-4.5 15q4 23 36 23h169q9 0 14 -0.5t10.5 -6t3.5 -16.5q-3 -21 -35 -21h-65l-89 -534q-4 -20 -12 -26.5t-27 -6.5 q-44 0 -57 30l-217 537h-18l-88 -523h65q9 0 14.5 -0.5t10.5 -6t4 -15.5q-4 -22 -36 -22h-169q-8 0 -13.5 0.5t-11 6t-3.5 15.5zM320 666q2 15 55 50q50 32 81 32q22 0 44 -18q2 -2 5 -6q32 -31 42 -33q27 0 86 48q13 9 20 9q9 0 15 -7.5t4 -16.5q-3 -15 -56 -49 q-48 -32 -80 -32q-26 0 -44 18q-21 23 -30 30.5t-18 7.5q-27 0 -85 -47q-11 -9 -20 -9t-15 7.5t-4 15.5z" />
<glyph unicode="&#xd2;" horiz-adv-x="817" d="M108 306q21 128 139 222t265 94t233.5 -93t64.5 -224q-21 -128 -139 -222t-265 -94t-233.5 93t-64.5 224zM162 317q-20 -116 53.5 -200t198.5 -84q124 0 225 84t121 200q18 107 -56.5 184t-199.5 77q-124 0 -224 -77t-118 -184zM451 719q-25 12 -17.5 33t30.5 21 q6 0 15 -4l127 -62q18 -9 16 -22q-1 -9 -9 -20.5t-21 -11.5q-2 0 -8 2z" />
<glyph unicode="&#xd3;" horiz-adv-x="817" d="M108 306q21 128 139 222t265 94t233.5 -93t64.5 -224q-21 -128 -139 -222t-265 -94t-233.5 93t-64.5 224zM162 317q-20 -116 53.5 -200t198.5 -84q124 0 225 84t121 200q18 107 -56.5 184t-199.5 77q-124 0 -224 -77t-118 -184zM423 685q2 13 24 22l147 62l17 4 q11 0 17.5 -7.5t4.5 -19.5q-2 -17 -27 -27l-155 -64q-6 -2 -8 -2q-13 0 -17 12t-3 20z" />
<glyph unicode="&#xd4;" horiz-adv-x="817" d="M108 306q21 128 139 222t265 94t233.5 -93t64.5 -224q-21 -128 -139 -222t-265 -94t-233.5 93t-64.5 224zM162 317q-20 -116 53.5 -200t198.5 -84q124 0 225 84t121 200q18 107 -56.5 184t-199.5 77q-124 0 -224 -77t-118 -184zM378 665q2 15 16 19l129 44q7 2 14 0 l115 -44q16 -6 8.5 -23.5t-21.5 -17.5q-5 0 -8 1l-109 35l-121 -35q-3 -1 -8 -1q-8 0 -12.5 6.5t-2.5 15.5z" />
<glyph unicode="&#xd5;" horiz-adv-x="817" d="M108 306q21 128 139 222t265 94t233.5 -93t64.5 -224q-21 -128 -139 -222t-265 -94t-233.5 93t-64.5 224zM162 317q-20 -116 53.5 -200t198.5 -84q124 0 225 84t121 200q18 107 -56.5 184t-199.5 77q-124 0 -224 -77t-118 -184zM349 666q2 15 55 50q50 32 81 32 q22 0 44 -18q2 -2 5 -6q32 -31 42 -33q27 0 86 48q14 9 20 9q9 0 15 -7.5t4 -16.5q-3 -15 -56 -49q-48 -32 -80 -32q-26 0 -44 18q-21 23 -30 30.5t-18 7.5q-27 0 -85 -47q-11 -9 -20 -9t-15 7.5t-4 15.5z" />
<glyph unicode="&#xd6;" horiz-adv-x="817" d="M108 306q21 128 139 222t265 94t233.5 -93t64.5 -224q-21 -128 -139 -222t-265 -94t-233.5 93t-64.5 224zM162 317q-20 -116 53.5 -200t198.5 -84q124 0 225 84t121 200q18 107 -56.5 184t-199.5 77q-124 0 -224 -77t-118 -184zM383 680q2 14 15 25.5t29 11.5t25 -11 t6 -26q-2 -15 -14.5 -26t-29.5 -11q-15 0 -24 11t-7 26zM586 680q2 14 15 25.5t29 11.5t25 -11t6 -26q-2 -15 -14.5 -26t-29.5 -11q-15 0 -24 11t-7 26z" />
<glyph unicode="&#xd7;" horiz-adv-x="817" d="M171 56q-16 18 14 48l237 202l-169 202q-20 27 -3 44q22 19 47 -6l168 -203l236 203q30 25 46 10q16 -18 -14 -48l-237 -202l169 -202q21 -26 3 -44q-21 -20 -47 6l-168 203l-236 -203q-31 -24 -46 -10z" />
<glyph unicode="&#xd8;" horiz-adv-x="817" d="M106 -65q1 7 18 26l82 90q-123 103 -98 255q21 128 139 222t265 94q33 0 73 -9.5t61.5 -17.5t31.5 -13l89 101q13 16 25 16q8 0 14.5 -6.5t5.5 -16.5q-3 -8 -14 -20l-86 -96q123 -103 98 -255q-21 -128 -139 -222t-265 -94q-93 0 -165 40l-92 -103q-13 -14 -23 -14 q-8 0 -14.5 6.5t-5.5 16.5zM147 305q-11 -66 14 -123t75 -96l409 461q-77 31 -141 31q-131 0 -234.5 -80.5t-122.5 -192.5zM272 64q78 -31 142 -31q131 0 234.5 80.5t122.5 192.5q11 68 -14.5 125t-75.5 94z" />
<glyph unicode="&#xd9;" horiz-adv-x="758" d="M143 588q4 23 36 23h182q9 0 14.5 -0.5t10.5 -6t3 -16.5q-3 -21 -35 -21h-64l-60 -358q-14 -84 35 -130t120 -46q68 0 133 45.5t79 130.5l60 358h-65q-8 0 -13 0.5t-10.5 5.5t-4.5 15q4 23 35 23h183q9 0 14 -0.5t10.5 -6t3.5 -16.5q-3 -21 -35 -21h-65l-61 -364 q-16 -91 -95 -152.5t-178 -61.5q-97 0 -156 61t-44 153l61 364h-65q-8 0 -13.5 0.5t-11 5.5t-4.5 15zM445 719q-25 12 -17.5 33t30.5 21q6 0 15 -4l127 -62q18 -9 16 -22q-1 -9 -9 -20.5t-21 -11.5q-2 0 -8 2z" />
<glyph unicode="&#xda;" horiz-adv-x="758" d="M143 588q4 23 36 23h182q9 0 14.5 -0.5t10.5 -6t3 -16.5q-3 -21 -35 -21h-64l-60 -358q-14 -84 35 -130t120 -46q68 0 133 45.5t79 130.5l60 358h-65q-8 0 -13 0.5t-10.5 5.5t-4.5 15q4 23 35 23h183q9 0 14 -0.5t10.5 -6t3.5 -16.5q-3 -21 -35 -21h-65l-61 -364 q-16 -91 -95 -152.5t-178 -61.5q-97 0 -156 61t-44 153l61 364h-65q-8 0 -13.5 0.5t-11 5.5t-4.5 15zM417 685q2 13 24 22l147 62l17 4q11 0 17.5 -7.5t4.5 -19.5q-2 -17 -27 -27l-155 -64q-6 -2 -8 -2q-13 0 -17 12t-3 20z" />
<glyph unicode="&#xdb;" horiz-adv-x="758" d="M143 588q4 23 36 23h182q9 0 14.5 -0.5t10.5 -6t3 -16.5q-3 -21 -35 -21h-64l-60 -358q-14 -84 35 -130t120 -46q68 0 133 45.5t79 130.5l60 358h-65q-8 0 -13 0.5t-10.5 5.5t-4.5 15q4 23 35 23h183q9 0 14 -0.5t10.5 -6t3.5 -16.5q-3 -21 -35 -21h-65l-61 -364 q-16 -91 -95 -152.5t-178 -61.5q-97 0 -156 61t-44 153l61 364h-65q-8 0 -13.5 0.5t-11 5.5t-4.5 15zM372 665q2 15 16 19l129 44q7 2 14 0l115 -44q16 -6 8.5 -23.5t-21.5 -17.5q-5 0 -8 1l-109 35l-121 -35q-3 -1 -8 -1q-8 0 -12.5 6.5t-2.5 15.5z" />
<glyph unicode="&#xdc;" horiz-adv-x="758" d="M143 588q4 23 36 23h182q9 0 14.5 -0.5t10.5 -6t3 -16.5q-3 -21 -35 -21h-64l-60 -358q-14 -84 35 -130t120 -46q68 0 133 45.5t79 130.5l60 358h-65q-8 0 -13 0.5t-10.5 5.5t-4.5 15q4 23 35 23h183q9 0 14 -0.5t10.5 -6t3.5 -16.5q-3 -21 -35 -21h-65l-61 -364 q-16 -91 -95 -152.5t-178 -61.5q-97 0 -156 61t-44 153l61 364h-65q-8 0 -13.5 0.5t-11 5.5t-4.5 15zM377 680q2 14 15 25.5t29 11.5t25 -11t6 -26q-2 -15 -14.5 -26t-29.5 -11q-15 0 -24 11t-7 26zM580 680q2 14 15 25.5t29 11.5t25 -11t6 -26q-2 -15 -14.5 -26t-29.5 -11 q-15 0 -24 11t-7 26z" />
<glyph unicode="&#xdd;" horiz-adv-x="758" d="M127 589q4 22 37 22h160q9 0 14.5 -0.5t11 -6t3.5 -16.5q-3 -21 -36 -21h-42l153 -268l244 268h-42q-9 0 -14.5 0.5t-11 6t-4.5 15.5q4 22 37 22h160q9 0 14.5 -0.5t11 -6t3.5 -16.5q-3 -21 -36 -21h-54l-290 -322l-34 -201h65q9 0 14 -0.5t10.5 -6t4.5 -15.5 q-4 -22 -36 -22h-183q-8 0 -13.5 0.5t-11 6t-3.5 15.5q3 22 35 22h65l34 201l-182 322h-54q-9 0 -14.5 0.5t-11 6t-4.5 15.5zM394 685q2 13 24 22l147 62l17 4q11 0 17.5 -7.5t4.5 -19.5q-2 -17 -27 -27l-155 -64q-6 -2 -8 -2q-13 0 -17 12t-3 20z" />
<glyph unicode="&#xde;" horiz-adv-x="700" d="M50 22q3 22 35 22h65l88 523h-65q-9 0 -14 0.5t-10.5 5.5t-4.5 15q4 23 36 23h182q9 0 14.5 -0.5t10.5 -6t3 -16.5q-3 -21 -35 -21h-65l-14 -82h200q104 0 166 -53t50 -126t-92 -126t-184 -53h-200l-14 -83h65q9 0 14.5 -0.5t10.5 -6t4 -15.5q-4 -22 -36 -22h-182 q-9 0 -14 0.5t-10.5 6t-3.5 15.5zM224 171h183q88 0 155.5 40.5t76.5 94.5t-45 94.5t-142 40.5h-183z" />
<glyph unicode="&#xdf;" d="M23 22q3 22 35 22h65l57 337h-65q-9 0 -14 0.5t-10.5 6t-4.5 15.5q4 23 36 23h65l14 81q5 32 27 55t52 34t58 16t55 5q72 0 117.5 -28.5t38.5 -74.5q-11 -65 -113 -115q63 -51 79 -113t7 -115q-13 -78 -75.5 -127.5t-133.5 -49.5q-45 0 -67 20t-18 48q3 16 14 25t25 9 q16 0 23 -13q5 -7 0 -37q15 -8 30 -8q48 0 93 36.5t56 96.5q1 19 2.5 44t-7.5 53t-23 52t-43.5 41t-70.5 20q-15 7 -13 22q4 21 24 23q75 2 114.5 31t43.5 56q3 22 -29 41t-82 19q-43 0 -83 -15q-21 -9 -32 -18.5t-14 -17t-5 -22.5l-77 -467q-4 -20 -11 -26.5t-27 -6.5h-85 q-9 0 -14 0.5t-10.5 6t-3.5 15.5z" />
<glyph unicode="&#xe0;" horiz-adv-x="510" d="M77 123q11 67 96 104.5t228 39.5q10 64 -21 94t-95 30q-65 0 -68 -22q-8 -38 -43 -38q-16 0 -25 10t-5 28q11 66 148 66q94 0 134 -45t30 -106l-38 -228q24 -12 64 -12q9 0 14 -0.5t10.5 -5.5t4.5 -15q-2 -11 -9.5 -16t-14.5 -6t-21 -1q-26 0 -41 1.5t-32.5 10 t-26.5 25.5q-66 -43 -155 -43q-69 0 -106 38t-28 91zM130 123q-6 -34 20.5 -59.5t75.5 -25.5q53 0 93 17q23 10 36.5 24t16.5 23t6 27l16 96q-126 -4 -192 -33.5t-72 -68.5zM271 557q-25 12 -17.5 33t30.5 21q6 0 15 -4l127 -62q18 -9 16 -22q-1 -9 -9 -20.5t-21 -11.5 q-2 0 -8 2z" />
<glyph unicode="&#xe1;" horiz-adv-x="510" d="M77 123q11 67 96 104.5t228 39.5q10 64 -21 94t-95 30q-65 0 -68 -22q-8 -38 -43 -38q-16 0 -25 10t-5 28q11 66 148 66q94 0 134 -45t30 -106l-38 -228q24 -12 64 -12q9 0 14 -0.5t10.5 -5.5t4.5 -15q-2 -11 -9.5 -16t-14.5 -6t-21 -1q-26 0 -41 1.5t-32.5 10 t-26.5 25.5q-66 -43 -155 -43q-69 0 -106 38t-28 91zM130 123q-6 -34 20.5 -59.5t75.5 -25.5q53 0 93 17q23 10 36.5 24t16.5 23t6 27l16 96q-126 -4 -192 -33.5t-72 -68.5zM243 523q2 13 24 22l147 62l17 4q11 0 17.5 -7.5t4.5 -19.5q-2 -17 -27 -27l-155 -64q-6 -2 -8 -2 q-13 0 -17 12t-3 20z" />
<glyph unicode="&#xe2;" horiz-adv-x="510" d="M77 123q11 67 96 104.5t228 39.5q10 64 -21 94t-95 30q-65 0 -68 -22q-8 -38 -43 -38q-16 0 -25 10t-5 28q11 66 148 66q94 0 134 -45t30 -106l-38 -228q24 -12 64 -12q9 0 14 -0.5t10.5 -5.5t4.5 -15q-2 -11 -9.5 -16t-14.5 -6t-21 -1q-26 0 -41 1.5t-32.5 10 t-26.5 25.5q-66 -43 -155 -43q-69 0 -106 38t-28 91zM130 123q-6 -34 20.5 -59.5t75.5 -25.5q53 0 93 17q23 10 36.5 24t16.5 23t6 27l16 96q-126 -4 -192 -33.5t-72 -68.5zM199 513q0 11 13 18l136 77q10 5 18 0l112 -77q13 -10 5 -24.5t-23 -14.5q-6 0 -10 3l-100 67 l-122 -67q-8 -3 -12 -3q-9 0 -14 6.5t-3 14.5z" />
<glyph unicode="&#xe3;" horiz-adv-x="510" d="M77 123q11 67 96 104.5t228 39.5q10 64 -21 94t-95 30q-65 0 -68 -22q-8 -38 -43 -38q-16 0 -25 10t-5 28q11 66 148 66q94 0 134 -45t30 -106l-38 -228q24 -12 64 -12q9 0 14 -0.5t10.5 -5.5t4.5 -15q-2 -11 -9.5 -16t-14.5 -6t-21 -1q-26 0 -41 1.5t-32.5 10 t-26.5 25.5q-66 -43 -155 -43q-69 0 -106 38t-28 91zM130 123q-6 -34 20.5 -59.5t75.5 -25.5q53 0 93 17q23 10 36.5 24t16.5 23t6 27l16 96q-126 -4 -192 -33.5t-72 -68.5zM172 522q3 15 55 50q50 32 81 32q22 0 44 -18q2 -2 5 -6q32 -31 42 -33q27 0 86 48q13 9 20 9 q9 0 15 -7.5t4 -16.5q-3 -14 -55 -49q-50 -32 -81 -32q-24 0 -44 18q-15 17 -21.5 23.5t-13 10.5t-12.5 4q-28 0 -86 -47q-11 -9 -20 -9t-15 7.5t-4 15.5z" />
<glyph unicode="&#xe4;" horiz-adv-x="510" d="M77 123q11 67 96 104.5t228 39.5q10 64 -21 94t-95 30q-65 0 -68 -22q-8 -38 -43 -38q-16 0 -25 10t-5 28q11 66 148 66q94 0 134 -45t30 -106l-38 -228q24 -12 64 -12q9 0 14 -0.5t10.5 -5.5t4.5 -15q-2 -11 -9.5 -16t-14.5 -6t-21 -1q-26 0 -41 1.5t-32.5 10 t-26.5 25.5q-66 -43 -155 -43q-69 0 -106 38t-28 91zM130 123q-6 -34 20.5 -59.5t75.5 -25.5q53 0 93 17q23 10 36.5 24t16.5 23t6 27l16 96q-126 -4 -192 -33.5t-72 -68.5zM224 551q2 14 15 25.5t29 11.5t25 -11t7 -26t-15 -26t-30 -11q-14 0 -23.5 11t-7.5 26zM396 551 q2 14 15 25.5t30 11.5q15 0 24 -11t7 -26t-14.5 -26t-29.5 -11q-15 0 -24.5 11t-7.5 26z" />
<glyph unicode="&#xe5;" horiz-adv-x="510" d="M77 123q11 67 96 104.5t228 39.5q10 64 -21 94t-95 30q-65 0 -68 -22q-8 -38 -43 -38q-16 0 -25 10t-5 28q11 66 148 66q94 0 134 -45t30 -106l-38 -228q24 -12 64 -12q9 0 14 -0.5t10.5 -5.5t4.5 -15q-2 -11 -9.5 -16t-14.5 -6t-21 -1q-26 0 -41 1.5t-32.5 10 t-26.5 25.5q-66 -43 -155 -43q-69 0 -106 38t-28 91zM130 123q-6 -34 20.5 -59.5t75.5 -25.5q53 0 93 17q23 10 36.5 24t16.5 23t6 27l16 96q-126 -4 -192 -33.5t-72 -68.5zM237 560q4 24 41 46t83 22q43 0 73 -22t25 -46q-4 -24 -40.5 -46t-82.5 -22q-43 0 -73 22t-26 46z M280 560q-2 -16 16 -27.5t46 -11.5q26 0 49 11.5t25 27.5q3 16 -15 27.5t-46 11.5q-26 0 -49 -11.5t-26 -27.5z" />
<glyph unicode="&#xe6;" horiz-adv-x="758" d="M71 112q19 118 321 126l6 40q10 55 -20.5 84t-96.5 29q-8 0 -40 -2q-13 -1 -18.5 -4t-7 -5.5t-2.5 -10.5q-8 -38 -43 -38q-16 0 -25 10t-5 28q11 66 148 66q121 0 161 -89q89 89 180 89q82 0 118 -58t20 -150q-2 -14 -8 -21t-11.5 -8t-17.5 -1h-292q-1 -73 41.5 -116 t104.5 -43q72 0 113 72q8 13 27 13q5 0 9 -0.5t9.5 -5.5t3.5 -14q-5 -29 -53.5 -69t-121.5 -40q-101 0 -163 89q-57 -89 -201 -89q-70 0 -107.5 35t-28.5 83zM124 113q-5 -31 22.5 -53t76.5 -22q52 0 93 16q53 20 61 68l9 73q-101 -3 -152 -15q-103 -29 -110 -67zM446 240 h270q7 68 -15.5 109.5t-79.5 41.5q-51 0 -100.5 -41t-74.5 -110z" />
<glyph unicode="&#xe7;" horiz-adv-x="467" d="M84 213q6 35 24.5 71.5t49.5 71.5t81.5 57t110.5 22q16 0 26 -0.5t29.5 -2t32 -6t25.5 -11t18.5 -18.5t2.5 -28q-3 -17 -16 -27.5t-29 -10.5q-35 0 -29 41q1 5 -11 9.5t-27.5 7t-29.5 2.5q-51 0 -92 -20t-63.5 -50.5t-34.5 -57.5t-16 -50q-13 -73 29 -124t112 -51 q81 0 127 76q8 9 24 9q5 0 9.5 -0.5t10 -5.5t3.5 -14q-2 -10 -13.5 -28t-45 -42.5t-79.5 -34.5l-5 -25q86 -24 75 -93q-5 -27 -23 -46t-38.5 -28t-55 -14t-54.5 -5.5t-55 -0.5q-8 0 -14.5 5.5t-4.5 16.5t10.5 16t17 6t25.5 1q131 0 139 51q4 20 -12.5 34.5t-45.5 15.5 q-22 1 -17 31l5 30q-93 6 -142 69.5t-34 150.5z" />
<glyph unicode="&#xe8;" horiz-adv-x="467" d="M77 215q15 90 86.5 155t157.5 65q88 0 127 -58.5t24 -150.5q-2 -14 -8.5 -20.5t-12 -7.5t-16.5 -1h-308q0 -73 43 -116t106 -43q84 0 127 73q7 12 25 12q5 0 9.5 -0.5t10 -5.5t3.5 -14q-5 -29 -56.5 -69t-131.5 -40q-93 0 -147 64.5t-39 156.5zM135 240h285 q13 151 -107 151q-55 0 -104.5 -41t-73.5 -110zM249 557q-25 12 -17.5 33t30.5 21q6 0 15 -4l127 -62q18 -9 16 -22q-1 -9 -9 -20.5t-21 -11.5q-2 0 -8 2z" />
<glyph unicode="&#xe9;" horiz-adv-x="467" d="M77 215q15 90 86.5 155t157.5 65q88 0 127 -58.5t24 -150.5q-2 -14 -8.5 -20.5t-12 -7.5t-16.5 -1h-308q0 -73 43 -116t106 -43q84 0 127 73q7 12 25 12q5 0 9.5 -0.5t10 -5.5t3.5 -14q-5 -29 -56.5 -69t-131.5 -40q-93 0 -147 64.5t-39 156.5zM135 240h285 q13 151 -107 151q-55 0 -104.5 -41t-73.5 -110zM221 523q2 13 24 22l147 62l17 4q11 0 17.5 -7.5t4.5 -19.5q-2 -17 -27 -27l-155 -64q-6 -2 -8 -2q-13 0 -17 12t-3 20z" />
<glyph unicode="&#xea;" horiz-adv-x="467" d="M77 215q15 90 86.5 155t157.5 65q88 0 127 -58.5t24 -150.5q-2 -14 -8.5 -20.5t-12 -7.5t-16.5 -1h-308q0 -73 43 -116t106 -43q84 0 127 73q7 12 25 12q5 0 9.5 -0.5t10 -5.5t3.5 -14q-5 -29 -56.5 -69t-131.5 -40q-93 0 -147 64.5t-39 156.5zM135 240h285 q13 151 -107 151q-55 0 -104.5 -41t-73.5 -110zM177 513q0 11 13 18l136 77q10 5 18 0l112 -77q13 -10 5 -24.5t-23 -14.5q-6 0 -10 3l-100 67l-122 -67q-8 -3 -12 -3q-9 0 -14 6.5t-3 14.5z" />
<glyph unicode="&#xeb;" horiz-adv-x="467" d="M77 215q15 90 86.5 155t157.5 65q88 0 127 -58.5t24 -150.5q-2 -14 -8.5 -20.5t-12 -7.5t-16.5 -1h-308q0 -73 43 -116t106 -43q84 0 127 73q7 12 25 12q5 0 9.5 -0.5t10 -5.5t3.5 -14q-5 -29 -56.5 -69t-131.5 -40q-93 0 -147 64.5t-39 156.5zM135 240h285 q13 151 -107 151q-55 0 -104.5 -41t-73.5 -110zM202 551q2 14 15 25.5t29 11.5t25 -11t7 -26t-15 -26t-30 -11q-14 0 -23.5 11t-7.5 26zM374 551q2 14 15 25.5t30 11.5q15 0 24 -11t7 -26t-14.5 -26t-29.5 -11q-15 0 -24.5 11t-7.5 26z" />
<glyph unicode="&#xec;" horiz-adv-x="292" d="M26 22q3 22 35 22h65l57 337h-60q-9 0 -14 0.5t-11 6t-5 16.5q4 22 37 22h81q20 0 25 -7t2 -26l-59 -349h54q9 0 14.5 -0.5t11 -6t4.5 -15.5q-4 -22 -36 -22h-173q-8 0 -13.5 0.5t-11 6t-3.5 15.5zM161 557q-25 12 -17.5 33t30.5 21q6 0 15 -4l127 -62q18 -9 16 -22 q-1 -9 -9 -20.5t-21 -11.5q-2 0 -8 2z" />
<glyph unicode="&#xed;" horiz-adv-x="292" d="M26 22q3 22 35 22h65l57 337h-60q-9 0 -14 0.5t-11 6t-5 16.5q4 22 37 22h81q20 0 25 -7t2 -26l-59 -349h54q9 0 14.5 -0.5t11 -6t4.5 -15.5q-4 -22 -36 -22h-173q-8 0 -13.5 0.5t-11 6t-3.5 15.5zM133 523q2 13 24 22l147 62l17 4q11 0 17.5 -7.5t4.5 -19.5 q-2 -17 -27 -27l-155 -64q-6 -2 -8 -2q-13 0 -17 12t-3 20z" />
<glyph unicode="&#xee;" horiz-adv-x="292" d="M26 22q3 22 35 22h65l57 337h-60q-9 0 -14 0.5t-11 6t-5 16.5q4 22 37 22h81q20 0 25 -7t2 -26l-59 -349h54q9 0 14.5 -0.5t11 -6t4.5 -15.5q-4 -22 -36 -22h-173q-8 0 -13.5 0.5t-11 6t-3.5 15.5zM89 513q0 11 13 18l136 77q10 5 18 0l112 -77q13 -10 5 -24.5t-23 -14.5 q-6 0 -10 3l-100 67l-122 -67q-8 -3 -12 -3q-9 0 -14 6.5t-3 14.5z" />
<glyph unicode="&#xef;" horiz-adv-x="292" d="M26 22q3 22 35 22h65l57 337h-60q-9 0 -14 0.5t-11 6t-5 16.5q4 22 37 22h81q20 0 25 -7t2 -26l-59 -349h54q9 0 14.5 -0.5t11 -6t4.5 -15.5q-4 -22 -36 -22h-173q-8 0 -13.5 0.5t-11 6t-3.5 15.5zM114 551q2 14 15 25.5t29 11.5t25 -11t7 -26t-15 -26t-30 -11 q-14 0 -23.5 11t-7.5 26zM286 551q2 14 15 25.5t30 11.5q15 0 24 -11t7 -26t-14.5 -26t-29.5 -11q-15 0 -24.5 11t-7.5 26z" />
<glyph unicode="&#xf0;" d="M76 213q15 91 90.5 156.5t168.5 65.5q83 0 154 -72q12 135 -18 203l-71 -53q-8 -5 -16 -5q-11 0 -16 7.5t-2.5 17t9.5 15.5l71 52q-37 25 -79 25q-11 0 -17.5 8t-4.5 19q1 11 10.5 19t20.5 8q67 0 111 -47l74 54q8 5 16 5q9 0 15 -6.5t5 -15.5q-3 -12 -11 -18l-75 -54 q52 -122 9 -384q-15 -86 -89.5 -152.5t-169.5 -66.5q-92 0 -146.5 64t-38.5 155zM130 220q-13 -74 27 -128t111 -54q70 0 128.5 54t71.5 128q12 73 -30 122t-111 49t-127 -49t-70 -122z" />
<glyph unicode="&#xf1;" horiz-adv-x="583" d="M22 22q3 22 35 22h65l57 337h-65q-9 0 -14 0.5t-10.5 6t-4.5 15.5q4 23 36 23h85q23 0 26 -13t-5 -52q89 71 173 71q139 0 116 -141l-42 -247h65q9 0 14 -0.5t10.5 -6t4.5 -15.5q-4 -22 -36 -22h-182q-9 0 -14.5 0.5t-10.5 6t-3 16.5q3 21 35 21h65l40 240q9 53 -5 78 t-70 25q-25 0 -51.5 -8t-54 -24.5t-48 -47.5t-27.5 -72l-32 -191h65q9 0 14.5 -0.5t10.5 -6t4 -15.5q-4 -22 -36 -22h-182q-9 0 -14 0.5t-10.5 6t-3.5 15.5zM208 522q3 15 55 50q50 32 81 32q22 0 44 -18q2 -2 5 -6q32 -31 42 -33q27 0 86 48q13 9 20 9q9 0 15 -7.5t4 -16.5 q-3 -14 -55 -49q-50 -32 -81 -32q-24 0 -44 18q-15 17 -21.5 23.5t-13 10.5t-12.5 4q-28 0 -86 -47q-11 -9 -20 -9t-15 7.5t-4 15.5z" />
<glyph unicode="&#xf2;" d="M76 213q15 91 90.5 156.5t168.5 65.5q92 0 146 -65.5t39 -156.5q-16 -91 -91.5 -155t-167.5 -64t-146.5 64t-38.5 155zM130 220q-13 -74 27 -128t111 -54q70 0 128.5 54t71.5 128q12 73 -30 122t-111 49t-127 -49t-70 -122zM278 557q-25 12 -17.5 33t30.5 21q6 0 15 -4 l127 -62q18 -9 16 -22q-1 -9 -9 -20.5t-21 -11.5q-2 0 -8 2z" />
<glyph unicode="&#xf3;" d="M76 213q15 91 90.5 156.5t168.5 65.5q92 0 146 -65.5t39 -156.5q-16 -91 -91.5 -155t-167.5 -64t-146.5 64t-38.5 155zM130 220q-13 -74 27 -128t111 -54q70 0 128.5 54t71.5 128q12 73 -30 122t-111 49t-127 -49t-70 -122zM250 523q2 13 24 22l147 62l17 4 q11 0 17.5 -7.5t4.5 -19.5q-2 -17 -27 -27l-155 -64q-6 -2 -8 -2q-13 0 -17 12t-3 20z" />
<glyph unicode="&#xf4;" d="M76 213q15 91 90.5 156.5t168.5 65.5q92 0 146 -65.5t39 -156.5q-16 -91 -91.5 -155t-167.5 -64t-146.5 64t-38.5 155zM130 220q-13 -74 27 -128t111 -54q70 0 128.5 54t71.5 128q12 73 -30 122t-111 49t-127 -49t-70 -122zM206 513q0 11 13 18l136 77q10 5 18 0l112 -77 q13 -10 5 -24.5t-23 -14.5q-6 0 -10 3l-100 67l-122 -67q-7 -3 -12 -3q-9 0 -14 6.5t-3 14.5z" />
<glyph unicode="&#xf5;" d="M76 213q15 91 90.5 156.5t168.5 65.5q92 0 146 -65.5t39 -156.5q-16 -91 -91.5 -155t-167.5 -64t-146.5 64t-38.5 155zM130 220q-13 -74 27 -128t111 -54q70 0 128.5 54t71.5 128q12 73 -30 122t-111 49t-127 -49t-70 -122zM179 522q3 15 55 50q50 32 81 32q22 0 44 -18 q2 -2 5 -6q32 -31 42 -33q27 0 86 48q14 9 20 9q9 0 15 -7.5t4 -16.5q-3 -14 -55 -49q-50 -32 -81 -32q-24 0 -44 18q-15 17 -21.5 23.5t-13 10.5t-12.5 4q-28 0 -86 -47q-11 -9 -20 -9t-15 7.5t-4 15.5z" />
<glyph unicode="&#xf6;" d="M76 213q15 91 90.5 156.5t168.5 65.5q92 0 146 -65.5t39 -156.5q-16 -91 -91.5 -155t-167.5 -64t-146.5 64t-38.5 155zM130 220q-13 -74 27 -128t111 -54q70 0 128.5 54t71.5 128q12 73 -30 122t-111 49t-127 -49t-70 -122zM231 551q2 14 15 25.5t29 11.5t25 -11t7 -26 t-15 -26t-30 -11q-14 0 -23.5 11t-7.5 26zM403 551q2 14 15 25.5t30 11.5q15 0 24 -11t7 -26t-14.5 -26t-29.5 -11q-15 0 -24.5 11t-7.5 26z" />
<glyph unicode="&#xf7;" horiz-adv-x="817" d="M108 306q5 27 48 27h616q7 0 12 -0.5t13 -2.5t11.5 -8.5t1.5 -15.5q-4 -27 -41 -27h-628q-9 0 -15 1t-13 7.5t-5 18.5zM387 127q3 17 17 29.5t32 12.5t28 -12.5t7 -29.5q-3 -18 -17 -30.5t-32 -12.5t-28 12.5t-7 30.5zM447 485q3 18 17 30.5t32 12.5t28 -12.5t7 -30.5 q-3 -17 -17 -29.5t-32 -12.5t-28 12.5t-7 29.5z" />
<glyph unicode="&#xf8;" d="M25 -123q4 12 22 35l93 124q-74 75 -56 177q15 91 88.5 156.5t162.5 65.5q40 0 88 -21l105 141q11 15 22 15q8 0 14.5 -6t4.5 -16q-1 -7 -8 -17l-105 -140q72 -79 56 -178q-16 -91 -89.5 -155t-161.5 -64q-44 0 -86 20l-113 -150q-6 -8 -17 -8q-7 0 -14 6t-6 15zM123 213 q-14 -76 44 -140l227 304q-38 14 -67 14q-72 0 -132 -52.5t-72 -125.5zM203 50q36 -12 65 -12q72 0 132 51t73 124q12 81 -45 140z" />
<glyph unicode="&#xf9;" horiz-adv-x="583" d="M85 403q4 23 36 23h85q20 0 25 -7t2 -26l-47 -278q-4 -13 -3 -26.5t7 -25t27.5 -18.5t58.5 -7q20 0 40.5 3.5t48.5 14t48.5 35.5t26.5 61l39 229h-65q-9 0 -14.5 0.5t-10.5 6t-4 16.5q4 22 36 22h85q20 0 25 -7t2 -26l-59 -349h65q9 0 14 -0.5t10.5 -6t4.5 -15.5 q-4 -22 -36 -22h-85q-10 0 -14.5 1.5t-10 12t0.5 32.5q-76 -52 -160 -52q-26 0 -46 3t-44.5 13.5t-35 35.5t-4.5 63l46 272h-65q-9 0 -14 0.5t-10.5 6t-4.5 15.5zM307 557q-25 12 -17.5 33t30.5 21q6 0 15 -4l127 -62q18 -9 16 -22q-1 -9 -9 -20.5t-21 -11.5q-2 0 -8 2z" />
<glyph unicode="&#xfa;" horiz-adv-x="583" d="M85 403q4 23 36 23h85q20 0 25 -7t2 -26l-47 -278q-4 -13 -3 -26.5t7 -25t27.5 -18.5t58.5 -7q20 0 40.5 3.5t48.5 14t48.5 35.5t26.5 61l39 229h-65q-9 0 -14.5 0.5t-10.5 6t-4 16.5q4 22 36 22h85q20 0 25 -7t2 -26l-59 -349h65q9 0 14 -0.5t10.5 -6t4.5 -15.5 q-4 -22 -36 -22h-85q-10 0 -14.5 1.5t-10 12t0.5 32.5q-76 -52 -160 -52q-26 0 -46 3t-44.5 13.5t-35 35.5t-4.5 63l46 272h-65q-9 0 -14 0.5t-10.5 6t-4.5 15.5zM279 523q2 13 24 22l147 62l17 4q11 0 17.5 -7.5t4.5 -19.5q-2 -17 -27 -27l-155 -64q-6 -2 -8 -2 q-13 0 -17 12t-3 20z" />
<glyph unicode="&#xfb;" horiz-adv-x="583" d="M85 403q4 23 36 23h85q20 0 25 -7t2 -26l-47 -278q-4 -13 -3 -26.5t7 -25t27.5 -18.5t58.5 -7q20 0 40.5 3.5t48.5 14t48.5 35.5t26.5 61l39 229h-65q-9 0 -14.5 0.5t-10.5 6t-4 16.5q4 22 36 22h85q20 0 25 -7t2 -26l-59 -349h65q9 0 14 -0.5t10.5 -6t4.5 -15.5 q-4 -22 -36 -22h-85q-10 0 -14.5 1.5t-10 12t0.5 32.5q-76 -52 -160 -52q-26 0 -46 3t-44.5 13.5t-35 35.5t-4.5 63l46 272h-65q-9 0 -14 0.5t-10.5 6t-4.5 15.5zM235 513q0 11 13 18l136 77q10 5 18 0l112 -77q13 -10 5 -24.5t-23 -14.5q-6 0 -10 3l-100 67l-122 -67 q-7 -3 -12 -3q-9 0 -14 6.5t-3 14.5z" />
<glyph unicode="&#xfc;" horiz-adv-x="583" d="M85 403q4 23 36 23h85q20 0 25 -7t2 -26l-47 -278q-4 -13 -3 -26.5t7 -25t27.5 -18.5t58.5 -7q20 0 40.5 3.5t48.5 14t48.5 35.5t26.5 61l39 229h-65q-9 0 -14.5 0.5t-10.5 6t-4 16.5q4 22 36 22h85q20 0 25 -7t2 -26l-59 -349h65q9 0 14 -0.5t10.5 -6t4.5 -15.5 q-4 -22 -36 -22h-85q-10 0 -14.5 1.5t-10 12t0.5 32.5q-76 -52 -160 -52q-26 0 -46 3t-44.5 13.5t-35 35.5t-4.5 63l46 272h-65q-9 0 -14 0.5t-10.5 6t-4.5 15.5zM260 551q2 14 15 25.5t29 11.5t25 -11t7 -26t-15 -26t-30 -11q-14 0 -23.5 11t-7.5 26zM432 551q2 14 15 25.5 t30 11.5q15 0 24 -11t7 -26t-14.5 -26t-29.5 -11q-15 0 -24.5 11t-7.5 26z" />
<glyph unicode="&#xfd;" horiz-adv-x="554" d="M-6 -160q7 36 43 36q14 0 23 -10t6 -26q-1 -4 -2.5 -9.5t-1.5 -6.5q-1 -6 6.5 -10.5t14.5 -4.5q32 0 60 13.5t46.5 35t28 36.5t16.5 30l34 67l-93 390h-48q-9 0 -14.5 0.5t-11 6t-4.5 16.5q4 22 37 22h144q9 0 14 -0.5t10.5 -6t3.5 -16.5q-3 -22 -35 -22h-53l78 -347 l171 347h-55q-8 0 -13.5 0.5t-11 6t-4.5 15.5q4 23 36 23h145q9 0 14.5 -0.5t10.5 -6t3 -16.5q-3 -22 -35 -22h-47l-241 -473q-29 -55 -81 -99t-114 -44q-40 0 -62.5 22t-17.5 53zM265 523q2 13 24 22l147 62l17 4q11 0 17.5 -7.5t4.5 -19.5q-2 -17 -27 -27l-155 -64 q-6 -2 -8 -2q-13 0 -17 12t-3 20z" />
<glyph unicode="&#xfe;" horiz-adv-x="583" d="M-17 -207q4 23 36 23h65l126 751h-65q-9 0 -14 0.5t-10.5 5.5t-4.5 15q4 23 36 23h85q20 0 25 -7t1 -26l-35 -213q89 67 170 67q88 0 138 -64.5t36 -154.5q-16 -92 -92.5 -155.5t-165.5 -63.5q-79 0 -135 75l-43 -253h65q9 0 14.5 -0.5t10.5 -6t3 -16.5q-3 -22 -35 -22 h-182q-9 0 -14 0.5t-10.5 6t-4.5 15.5zM199 192q-9 -53 22.5 -103.5t95.5 -50.5q69 0 130 50.5t73 124.5q12 71 -26.5 122.5t-108.5 51.5q-59 0 -112.5 -37.5t-61.5 -88.5z" />
<glyph unicode="&#xff;" horiz-adv-x="554" d="M-6 -160q7 36 43 36q14 0 23 -10t6 -26q-1 -4 -2.5 -9.5t-1.5 -6.5q-1 -6 6.5 -10.5t14.5 -4.5q32 0 60 13.5t46.5 35t28 36.5t16.5 30l34 67l-93 390h-48q-9 0 -14.5 0.5t-11 6t-4.5 16.5q4 22 37 22h144q9 0 14 -0.5t10.5 -6t3.5 -16.5q-3 -22 -35 -22h-53l78 -347 l171 347h-55q-8 0 -13.5 0.5t-11 6t-4.5 15.5q4 23 36 23h145q9 0 14.5 -0.5t10.5 -6t3 -16.5q-3 -22 -35 -22h-47l-241 -473q-29 -55 -81 -99t-114 -44q-40 0 -62.5 22t-17.5 53zM246 551q2 14 15 25.5t29 11.5t25 -11t7 -26t-15 -26t-30 -11q-14 0 -23.5 11t-7.5 26z M418 551q2 14 15 25.5t30 11.5q15 0 24 -11t7 -26t-14.5 -26t-29.5 -11q-15 0 -24.5 11t-7.5 26z" />
<glyph unicode="&#x100;" horiz-adv-x="758" d="M44 23q3 21 35 21h54l289 551q15 28 51 28h19q12 0 18 -1t13.5 -7.5t9.5 -20.5l105 -550h54q9 0 14 -0.5t10.5 -6t4.5 -15.5q-4 -22 -36 -22h-164q-9 0 -14 0.5t-11 6t-4 16.5q3 21 36 21h55l-25 133h-299l-71 -133h55q9 0 14 -0.5t11 -6t5 -15.5q-4 -22 -37 -22h-164 q-9 0 -14 0.5t-10.5 6t-3.5 16.5zM282 222h267l-69 357h-11zM309 686q4 23 35 23h308q9 0 14 -1t10 -6.5t3 -16.5q-4 -22 -35 -22h-306q-10 0 -15.5 0.5t-10.5 6t-3 16.5z" />
<glyph unicode="&#x101;" horiz-adv-x="510" d="M77 123q11 67 96 104.5t228 39.5q10 64 -21 94t-95 30q-65 0 -68 -22q-8 -38 -43 -38q-16 0 -25 10t-5 28q11 66 148 66q94 0 134 -45t30 -106l-38 -228q24 -12 64 -12q9 0 14 -0.5t10.5 -5.5t4.5 -15q-2 -11 -9.5 -16t-14.5 -6t-21 -1q-26 0 -41 1.5t-32.5 10 t-26.5 25.5q-66 -43 -155 -43q-69 0 -106 38t-28 91zM130 123q-6 -34 20.5 -59.5t75.5 -25.5q53 0 93 17q23 10 36.5 24t16.5 23t6 27l16 96q-126 -4 -192 -33.5t-72 -68.5zM163 551q4 23 35 23h308q9 0 14 -1t10 -6.5t3 -16.5q-4 -22 -35 -22h-306q-10 0 -15.5 0.5t-10.5 6 t-3 16.5z" />
<glyph unicode="&#x102;" horiz-adv-x="758" d="M44 23q3 21 35 21h54l289 551q15 28 51 28h19q12 0 18 -1t13.5 -7.5t9.5 -20.5l105 -550h54q9 0 14 -0.5t10.5 -6t4.5 -15.5q-4 -22 -36 -22h-164q-9 0 -14 0.5t-11 6t-4 16.5q3 21 36 21h55l-25 133h-299l-71 -133h55q9 0 14 -0.5t11 -6t5 -15.5q-4 -22 -37 -22h-164 q-9 0 -14 0.5t-10.5 6t-3.5 16.5zM282 222h267l-69 357h-11zM329 728q5 23 27 23q13 0 17 -12q2 -39 124 -39q120 0 136 39q8 12 21 12q24 0 19 -23q-4 -26 -23 -43t-51.5 -23t-53.5 -7.5t-56 -1.5t-55.5 1.5t-51 7.5t-44 23t-9.5 43z" />
<glyph unicode="&#x103;" horiz-adv-x="510" d="M77 123q11 67 96 104.5t228 39.5q10 64 -21 94t-95 30q-65 0 -68 -22q-8 -38 -43 -38q-16 0 -25 10t-5 28q11 66 148 66q94 0 134 -45t30 -106l-38 -228q24 -12 64 -12q9 0 14 -0.5t10.5 -5.5t4.5 -15q-2 -11 -9.5 -16t-14.5 -6t-21 -1q-26 0 -41 1.5t-32.5 10 t-26.5 25.5q-66 -43 -155 -43q-69 0 -106 38t-28 91zM130 123q-6 -34 20.5 -59.5t75.5 -25.5q53 0 93 17q23 10 36.5 24t16.5 23t6 27l16 96q-126 -4 -192 -33.5t-72 -68.5zM180 577q5 23 27 23q13 0 17 -12q2 -39 124 -39q120 0 136 39q8 12 21 12q24 0 19 -23 q-4 -26 -23 -43t-51.5 -23t-53.5 -7.5t-56 -1.5t-55.5 1.5t-51 7.5t-44 23t-9.5 43z" />
<glyph unicode="&#x104;" horiz-adv-x="758" d="M44 23q3 21 35 21h54l289 551q15 28 51 28h19q12 0 18 -1t13.5 -7.5t9.5 -20.5l105 -550h54q9 0 14 -0.5t10.5 -6t4.5 -15.5q-4 -22 -36 -22h-37q-106 -56 -117 -123q-3 -21 12.5 -35t34.5 -14q33 0 69 41q18 12 27 4q11 -11 0 -24q-53 -58 -106 -58q-42 0 -63 27.5 t-15 60.5q5 35 28.5 63t75.5 58h-73q-9 0 -14 0.5t-11 6t-4 16.5q3 21 36 21h55l-25 133h-299l-71 -133h55q9 0 14 -0.5t11 -6t5 -15.5q-4 -22 -37 -22h-164q-9 0 -14 0.5t-10.5 6t-3.5 16.5zM282 222h267l-69 357h-10z" />
<glyph unicode="&#x105;" horiz-adv-x="510" d="M77 123q11 67 96 104.5t228 39.5q10 64 -21 94t-95 30q-65 0 -68 -22q-8 -38 -43 -38q-16 0 -25 10t-5 28q11 66 148 66q94 0 134 -45t30 -106l-38 -228q24 -12 64 -12q9 0 14 -0.5t10.5 -5.5t4.5 -15q-2 -11 -9.5 -16t-15 -6t-22.5 -1q-114 -61 -125 -123 q-3 -21 12.5 -35t34.5 -14q33 0 69 41q18 12 27 4q11 -11 0 -24q-53 -58 -106 -58q-42 0 -63 27.5t-15 60.5q10 65 112 124q-21 9 -29 15t-14 19q-68 -43 -156 -43q-69 0 -106 38t-28 91zM130 123q-6 -34 20.5 -59.5t75.5 -25.5q53 0 93 17q23 10 36.5 24t16.5 23t6 27 l16 96q-126 -4 -192 -33.5t-72 -68.5z" />
<glyph unicode="&#x106;" horiz-adv-x="758" d="M109 306q21 128 138 222t266 94q134 0 210 -69q18 29 43 64q7 5 16 5q20 0 15 -33l-24 -143q-1 -10 -3 -16t-9 -11.5t-19 -5.5q-21 0 -23 15q-1 22 -4 36.5t-18 37t-42 40.5q-56 36 -143 36q-130 0 -231.5 -81t-119.5 -191q-18 -111 56.5 -192t206.5 -81q89 0 155 30 q36 16 58 37.5t28 35t10 31.5q5 22 30 22q26 0 21 -25q-12 -77 -98.5 -126t-218.5 -49q-152 0 -237 94t-63 223zM432 685q2 13 24 22l147 62l17 4q11 0 17.5 -7.5t4.5 -19.5q-2 -17 -27 -27l-155 -64q-6 -2 -8 -2q-13 0 -17 12t-3 20z" />
<glyph unicode="&#x107;" horiz-adv-x="467" d="M84 213q6 35 24.5 71.5t49.5 71.5t81.5 57t110.5 22q16 0 26 -0.5t29.5 -2t32 -6t25.5 -11t18.5 -18.5t2.5 -28q-3 -17 -16 -27.5t-29 -10.5q-36 0 -29 41q1 5 -11 9.5t-27.5 7t-29.5 2.5q-51 0 -92 -20t-63.5 -50.5t-34.5 -57.5t-16 -50q-13 -73 29 -124t112 -51 q81 0 127 76q8 9 24 9q5 0 9.5 -0.5t10 -5.5t3.5 -14q-1 -8 -11.5 -24t-31 -36t-59 -34.5t-85.5 -14.5q-92 0 -143.5 64.5t-36.5 154.5zM245 523q2 13 24 22l147 62l17 4q11 0 17.5 -7.5t4.5 -19.5q-2 -17 -27 -27l-155 -64q-6 -2 -8 -2q-13 0 -17 12t-3 20z" />
<glyph unicode="&#x108;" horiz-adv-x="758" d="M109 306q21 128 138 222t266 94q134 0 210 -69q18 29 43 64q7 5 16 5q20 0 15 -33l-24 -143q-1 -10 -3 -16t-9 -11.5t-19 -5.5q-21 0 -23 15q-1 22 -4 36.5t-18 37t-42 40.5q-56 36 -143 36q-130 0 -231.5 -81t-119.5 -191q-18 -111 56.5 -192t206.5 -81q89 0 155 30 q36 16 58 37.5t28 35t10 31.5q5 22 30 22q26 0 21 -25q-12 -77 -98.5 -126t-218.5 -49q-152 0 -237 94t-63 223zM387 665q2 15 16 19l129 44q7 2 14 0l115 -44q16 -6 8.5 -23.5t-21.5 -17.5q-5 0 -8 1l-109 35l-121 -35q-3 -1 -8 -1q-8 0 -12.5 6.5t-2.5 15.5z" />
<glyph unicode="&#x109;" horiz-adv-x="467" d="M84 213q6 35 24.5 71.5t49.5 71.5t81.5 57t110.5 22q16 0 26 -0.5t29.5 -2t32 -6t25.5 -11t18.5 -18.5t2.5 -28q-3 -17 -16 -27.5t-29 -10.5q-36 0 -29 41q1 5 -11 9.5t-27.5 7t-29.5 2.5q-51 0 -92 -20t-63.5 -50.5t-34.5 -57.5t-16 -50q-13 -73 29 -124t112 -51 q81 0 127 76q8 9 24 9q5 0 9.5 -0.5t10 -5.5t3.5 -14q-1 -8 -11.5 -24t-31 -36t-59 -34.5t-85.5 -14.5q-92 0 -143.5 64.5t-36.5 154.5zM201 513q0 11 13 18l136 77q10 5 18 0l112 -77q13 -10 5 -24.5t-23 -14.5q-6 0 -10 3l-100 67l-122 -67q-8 -3 -12 -3q-9 0 -14 6.5 t-3 14.5z" />
<glyph unicode="&#x10a;" horiz-adv-x="758" d="M109 306q21 128 138 222t266 94q134 0 210 -69q18 29 43 64q7 5 16 5q20 0 15 -33l-24 -143q-1 -10 -3 -16t-9 -11.5t-19 -5.5q-21 0 -23 15q-1 22 -4 36.5t-18 37t-42 40.5q-56 36 -143 36q-130 0 -231.5 -81t-119.5 -191q-18 -111 56.5 -192t206.5 -81q89 0 155 30 q36 16 58 37.5t28 35t10 31.5q5 22 30 22q26 0 21 -25q-12 -77 -98.5 -126t-218.5 -49q-152 0 -237 94t-63 223zM490 696q3 17 17 29.5t33 12.5q17 0 27.5 -12.5t7.5 -29.5q-2 -16 -16.5 -29t-33.5 -13q-17 0 -27.5 12.5t-7.5 29.5z" />
<glyph unicode="&#x10b;" horiz-adv-x="467" d="M84 213q6 35 24.5 71.5t49.5 71.5t81.5 57t110.5 22q16 0 26 -0.5t29.5 -2t32 -6t25.5 -11t18.5 -18.5t2.5 -28q-3 -17 -16 -27.5t-29 -10.5q-36 0 -29 41q1 5 -11 9.5t-27.5 7t-29.5 2.5q-51 0 -92 -20t-63.5 -50.5t-34.5 -57.5t-16 -50q-13 -73 29 -124t112 -51 q81 0 127 76q8 9 24 9q5 0 9.5 -0.5t10 -5.5t3.5 -14q-1 -8 -11.5 -24t-31 -36t-59 -34.5t-85.5 -14.5q-92 0 -143.5 64.5t-36.5 154.5zM306 551q2 16 16.5 29t33.5 13q17 0 27.5 -12.5t7.5 -29.5t-17 -29.5t-33 -12.5q-17 0 -27.5 12.5t-7.5 29.5z" />
<glyph unicode="&#x10c;" horiz-adv-x="758" d="M109 306q21 128 138 222t266 94q134 0 210 -69q18 29 43 64q7 5 16 5q20 0 15 -33l-24 -143q-1 -10 -3 -16t-9 -11.5t-19 -5.5q-21 0 -23 15q-1 22 -4 36.5t-18 37t-42 40.5q-56 36 -143 36q-130 0 -231.5 -81t-119.5 -191q-18 -111 56.5 -192t206.5 -81q89 0 155 30 q36 16 58 37.5t28 35t10 31.5q5 22 30 22q26 0 21 -25q-12 -77 -98.5 -126t-218.5 -49q-152 0 -237 94t-63 223zM404 688q-16 6 -9 23.5t21 17.5q5 0 8 -1l109 -35l121 35q3 1 8 1q17 0 15.5 -18t-15.5 -23l-130 -44q-7 -2 -14 0z" />
<glyph unicode="&#x10d;" horiz-adv-x="467" d="M84 213q6 35 24.5 71.5t49.5 71.5t81.5 57t110.5 22q16 0 26 -0.5t29.5 -2t32 -6t25.5 -11t18.5 -18.5t2.5 -28q-3 -17 -16 -27.5t-29 -10.5q-36 0 -29 41q1 5 -11 9.5t-27.5 7t-29.5 2.5q-51 0 -92 -20t-63.5 -50.5t-34.5 -57.5t-16 -50q-13 -73 29 -124t112 -51 q81 0 127 76q8 9 24 9q5 0 9.5 -0.5t10 -5.5t3.5 -14q-1 -8 -11.5 -24t-31 -36t-59 -34.5t-85.5 -14.5q-92 0 -143.5 64.5t-36.5 154.5zM220 572q-13 10 -5 24.5t23 14.5q5 0 10 -3l100 -67l122 67q8 3 12 3q9 0 14 -6.5t3 -14.5q0 -11 -13 -18l-136 -77q-10 -5 -18 0z" />
<glyph unicode="&#x10e;" horiz-adv-x="788" d="M49 22q3 22 35 22h65l88 523h-65q-9 0 -14 0.5t-10.5 5.5t-4.5 15q4 23 36 23h331q133 0 212 -91.5t57 -219.5q-20 -124 -128.5 -212t-242.5 -88h-331q-9 0 -14 0.5t-10.5 6t-3.5 15.5zM201 44h196q120 0 216 75.5t113 181.5q18 107 -51 186.5t-191 79.5h-195zM286 688 q-16 6 -9 23.5t21 17.5q5 0 8 -1l109 -35l121 35q3 1 8 1q17 0 15.5 -18t-15.5 -23l-130 -44q-7 -2 -14 0z" />
<glyph unicode="&#x10f;" horiz-adv-x="583" d="M81 212q16 92 91.5 156t166.5 64q76 0 137 -64l34 199h-65q-9 0 -14.5 0.5t-10.5 6t-4 15.5q4 22 36 22h85q20 0 25 -7t1 -26l-89 -534h65q9 0 14 -0.5t10.5 -6t4.5 -15.5q-4 -22 -36 -22h-85q-20 0 -25 7t-1 26l7 42q-75 -81 -173 -81q-87 0 -138 64t-36 154zM133 212 q-11 -72 28 -123t106 -51q65 0 118 50.5t62 105.5l12 68q8 49 -28 87t-94 38q-71 0 -131 -51t-73 -124zM583 460q1 5 10 14q18 13 29.5 28t14.5 24t7 26q-17 1 -25 9t-8.5 12t-0.5 10q2 12 12 20t22 8q39 0 29 -59q-7 -42 -34.5 -74t-43.5 -32q-6 0 -9.5 4.5t-2.5 9.5z" />
<glyph unicode="&#x110;" horiz-adv-x="788" d="M49 22q3 22 35 22h65l40 239h-70q-10 0 -15.5 6.5t-3.5 16.5q2 9 9.5 16t17.5 7h70l40 238h-65q-9 0 -14 0.5t-10.5 5.5t-4.5 15q4 23 36 23h331q133 0 212 -91.5t57 -219.5q-20 -124 -128.5 -212t-242.5 -88h-331q-9 0 -14 0.5t-10.5 6t-3.5 15.5zM201 44h196 q120 0 216 75.5t113 181.5q18 107 -51 186.5t-191 79.5h-195l-40 -238h200q9 0 15 -7t4 -16q-1 -10 -9.5 -16.5t-17.5 -6.5h-200z" />
<glyph unicode="&#x111;" horiz-adv-x="583" d="M81 212q16 92 91.5 156t166.5 64q76 0 137 -64l18 105h-184q-9 0 -14 6.5t-4 16.5q4 22 25 22h184l9 49h-65q-9 0 -14.5 0.5t-10.5 6t-4 15.5q4 22 36 22h85q20 0 25 -7t1 -26l-10 -60h70q10 0 16 -6.5t4 -15.5q-4 -23 -27 -23h-70l-72 -429h65q9 0 14 -0.5t10.5 -6 t4.5 -15.5q-4 -22 -36 -22h-85q-20 0 -25 7t-1 26l2 17l-14 7q-70 -63 -154 -63q-87 0 -138 64t-36 154zM133 212q-11 -72 28 -123t106 -51q65 0 118 50.5t62 105.5l12 68q8 49 -28 87t-94 38q-71 0 -131 -51t-73 -124z" />
<glyph unicode="&#x112;" horiz-adv-x="700" d="M50 22q3 22 35 22h65l88 523h-65q-9 0 -14 0.5t-10.5 5.5t-4.5 15q4 23 36 23h531q20 0 25 -7t1 -26l-12 -75q-2 -11 -4 -16.5t-9 -11t-20 -5.5q-27 0 -20 33l11 64h-393l-38 -228h224q4 27 6.5 36.5t9.5 16t20 6.5q12 0 17.5 -5t5 -12.5t-1.5 -15.5l-16 -96 q-2 -11 -4 -16t-9 -11t-19 -6q-19 0 -21.5 13t4.5 46h-224l-42 -251h423l14 81q4 33 32 33q17 0 20.5 -11t-0.5 -22l-15 -92q-4 -20 -11 -26.5t-27 -6.5h-560q-9 0 -14 0.5t-10.5 6t-3.5 15.5zM280 686q4 23 35 23h308q9 0 14 -1t10 -6.5t3 -16.5q-4 -22 -35 -22h-306 q-10 0 -15.5 0.5t-10.5 6t-3 16.5z" />
<glyph unicode="&#x113;" horiz-adv-x="467" d="M77 215q15 90 86.5 155t157.5 65q88 0 127 -58.5t24 -150.5q-2 -14 -8.5 -20.5t-12 -7.5t-16.5 -1h-308q0 -73 43 -116t106 -43q84 0 127 73q7 12 25 12q5 0 9.5 -0.5t10 -5.5t3.5 -14q-5 -29 -56.5 -69t-131.5 -40q-93 0 -147 64.5t-39 156.5zM135 240h285 q13 151 -107 151q-55 0 -104.5 -41t-73.5 -110zM141 551q4 23 35 23h308q9 0 14 -1t10 -6.5t3 -16.5q-4 -22 -35 -22h-306q-10 0 -15.5 0.5t-10.5 6t-3 16.5z" />
<glyph unicode="&#x114;" horiz-adv-x="700" d="M50 22q3 22 35 22h65l88 523h-65q-9 0 -14 0.5t-10.5 5.5t-4.5 15q4 23 36 23h531q20 0 25 -7t1 -26l-12 -75q-2 -11 -4 -16.5t-9 -11t-20 -5.5q-27 0 -20 33l11 64h-393l-38 -228h224q4 27 6.5 36.5t9.5 16t20 6.5q12 0 17.5 -5t5 -12.5t-1.5 -15.5l-16 -96 q-2 -11 -4 -16t-9 -11t-19 -6q-19 0 -21.5 13t4.5 46h-224l-42 -251h423l14 81q4 33 32 33q17 0 20.5 -11t-0.5 -22l-15 -92q-4 -20 -11 -26.5t-27 -6.5h-560q-9 0 -14 0.5t-10.5 6t-3.5 15.5zM300 728q5 23 27 23q13 0 17 -12q2 -39 124 -39q120 0 136 39q8 12 21 12 q24 0 19 -23q-4 -26 -23 -43t-51.5 -23t-53.5 -7.5t-56 -1.5t-55.5 1.5t-51 7.5t-44 23t-9.5 43z" />
<glyph unicode="&#x115;" horiz-adv-x="467" d="M77 215q15 90 86.5 155t157.5 65q88 0 127 -58.5t24 -150.5q-2 -14 -8.5 -20.5t-12 -7.5t-16.5 -1h-308q0 -73 43 -116t106 -43q84 0 127 73q7 12 25 12q5 0 9.5 -0.5t10 -5.5t3.5 -14q-5 -29 -56.5 -69t-131.5 -40q-93 0 -147 64.5t-39 156.5zM135 240h285 q13 151 -107 151q-55 0 -104.5 -41t-73.5 -110zM158 577q5 23 27 23q13 0 17 -12q2 -39 124 -39q120 0 136 39q8 12 21 12q24 0 19 -23q-4 -26 -23 -43t-51.5 -23t-53.5 -7.5t-56 -1.5t-55.5 1.5t-51 7.5t-44 23t-9.5 43z" />
<glyph unicode="&#x116;" horiz-adv-x="700" d="M50 22q3 22 35 22h65l88 523h-65q-9 0 -14 0.5t-10.5 5.5t-4.5 15q4 23 36 23h531q20 0 25 -7t1 -26l-12 -75q-2 -11 -4 -16.5t-9 -11t-20 -5.5q-27 0 -20 33l11 64h-393l-38 -228h224q4 27 6.5 36.5t9.5 16t20 6.5q12 0 17.5 -5t5 -12.5t-1.5 -15.5l-16 -96 q-2 -11 -4 -16t-9 -11t-19 -6q-19 0 -21.5 13t4.5 46h-224l-42 -251h423l14 81q4 33 32 33q17 0 20.5 -11t-0.5 -22l-15 -92q-4 -20 -11 -26.5t-27 -6.5h-560q-9 0 -14 0.5t-10.5 6t-3.5 15.5zM423 696q3 17 17 29.5t33 12.5q17 0 27.5 -12.5t7.5 -29.5q-2 -16 -16.5 -29 t-33.5 -13q-17 0 -27.5 12.5t-7.5 29.5z" />
<glyph unicode="&#x117;" horiz-adv-x="467" d="M77 215q15 90 86.5 155t157.5 65q88 0 127 -58.5t24 -150.5q-2 -14 -8.5 -20.5t-12 -7.5t-16.5 -1h-308q0 -73 43 -116t106 -43q84 0 127 73q7 12 25 12q5 0 9.5 -0.5t10 -5.5t3.5 -14q-5 -29 -56.5 -69t-131.5 -40q-93 0 -147 64.5t-39 156.5zM135 240h285 q13 151 -107 151q-55 0 -104.5 -41t-73.5 -110zM283 551q2 16 16.5 29t33.5 13q17 0 27.5 -12.5t7.5 -29.5t-17 -29.5t-33 -12.5q-17 0 -27.5 12.5t-7.5 29.5z" />
<glyph unicode="&#x118;" horiz-adv-x="700" d="M50 22q3 22 35 22h65l88 523h-65q-9 0 -14 0.5t-10.5 5.5t-4.5 15q4 23 36 23h531q20 0 25 -7t1 -26l-12 -75q-2 -11 -4 -16.5t-9 -11t-20 -5.5q-27 0 -20 33l11 64h-393l-38 -228h224q4 27 6.5 36.5t9.5 16t20 6.5q12 0 17.5 -5t5 -12.5t-1.5 -15.5l-16 -96 q-2 -11 -4 -16t-9 -11t-19 -6q-19 0 -21.5 13t4.5 46h-224l-42 -251h423l14 81q4 33 32 33q17 0 20.5 -11t-0.5 -22l-15 -92q-4 -20 -11 -26.5t-27 -6.5h-50q-107 -56 -118 -123q-3 -21 12.5 -35t34.5 -14q33 0 69 41q18 12 27 4q11 -11 0 -24q-53 -58 -106 -58 q-42 0 -63 27.5t-15 60.5q5 36 28 63.5t75 57.5h-454q-9 0 -14 0.5t-10.5 6t-3.5 15.5z" />
<glyph unicode="&#x119;" horiz-adv-x="467" d="M77 215q15 90 86.5 155t157.5 65q88 0 127 -58.5t24 -150.5q-2 -14 -8.5 -20.5t-12 -7.5t-16.5 -1h-308q0 -73 43 -116t106 -43q84 0 127 73q7 12 25 12q5 0 9.5 -0.5t10 -5.5t3.5 -14q-2 -10 -13.5 -28t-25.5 -28q-22 -15 -41.5 -26t-37 -19t-24.5 -12q-42 -25 -70 -56 t-33 -57q-3 -21 12 -35t34 -14q16 0 36 13t34 28q19 12 27 4q10 -10 -1 -24q-51 -58 -106 -58q-42 0 -62.5 27.5t-14.5 60.5q5 34 26.5 60t70.5 54q-100 12 -150 74t-35 148zM135 240h285q13 151 -107 151q-55 0 -104.5 -41t-73.5 -110z" />
<glyph unicode="&#x11a;" horiz-adv-x="700" d="M50 22q3 22 35 22h65l88 523h-65q-9 0 -14 0.5t-10.5 5.5t-4.5 15q4 23 36 23h531q20 0 25 -7t1 -26l-12 -75q-2 -11 -4 -16.5t-9 -11t-20 -5.5q-27 0 -20 33l11 64h-393l-38 -228h224q4 27 6.5 36.5t9.5 16t20 6.5q12 0 17.5 -5t5 -12.5t-1.5 -15.5l-16 -96 q-2 -11 -4 -16t-9 -11t-19 -6q-19 0 -21.5 13t4.5 46h-224l-42 -251h423l14 81q4 33 32 33q17 0 20.5 -11t-0.5 -22l-15 -92q-4 -20 -11 -26.5t-27 -6.5h-560q-9 0 -14 0.5t-10.5 6t-3.5 15.5zM337 688q-16 6 -9 23.5t21 17.5q5 0 8 -1l109 -35l121 35q3 1 8 1 q17 0 15.5 -18t-15.5 -23l-130 -44q-7 -2 -14 0z" />
<glyph unicode="&#x11b;" horiz-adv-x="467" d="M77 215q15 90 86.5 155t157.5 65q88 0 127 -58.5t24 -150.5q-2 -14 -8.5 -20.5t-12 -7.5t-16.5 -1h-308q0 -73 43 -116t106 -43q84 0 127 73q7 12 25 12q5 0 9.5 -0.5t10 -5.5t3.5 -14q-5 -29 -56.5 -69t-131.5 -40q-93 0 -147 64.5t-39 156.5zM135 240h285 q13 151 -107 151q-55 0 -104.5 -41t-73.5 -110zM196 572q-13 10 -5 24.5t23 14.5q5 0 10 -3l100 -67l122 67q7 3 12 3q9 0 14 -6.5t3 -14.5q0 -11 -13 -18l-136 -77q-10 -5 -18 0z" />
<glyph unicode="&#x11c;" horiz-adv-x="817" d="M108 306q21 128 138 222t266 94q136 0 210 -69q19 32 44 64q5 5 15 5q21 0 16 -33l-24 -143q-1 -10 -3 -16t-9 -11.5t-20 -5.5q-20 0 -23 15q-1 22 -4 36.5t-18 37t-42 40.5q-56 36 -143 36q-128 0 -230 -80.5t-121 -192.5q-19 -111 56.5 -191.5t200.5 -80.5 q87 0 160 49.5t104 132.5h-102q-9 0 -14 0.5t-10.5 6t-3.5 16.5q3 22 35 22h198q9 0 14.5 -0.5t11 -6t4.5 -16.5q-4 -22 -37 -22h-42l-30 -182q-2 -11 -4 -16t-9 -11t-19 -6q-18 0 -22 10.5t1 22.5l9 59q-121 -103 -257 -103q-145 0 -231.5 93t-64.5 224zM378 665 q2 15 16 19l129 44q7 2 14 0l115 -44q16 -6 8.5 -23.5t-21.5 -17.5q-5 0 -8 1l-109 35l-121 -35q-3 -1 -8 -1q-8 0 -12.5 6.5t-2.5 15.5z" />
<glyph unicode="&#x11d;" d="M15 -94q14 78 102 125q-21 38 -15 77q7 40 35 71q-29 44 -20 97q11 63 65.5 109.5t121.5 46.5q50 0 95 -33q59 38 115 38q33 0 47 -14.5t11 -31.5q-3 -16 -14 -24.5t-23 -8.5q-5 0 -10 2.5t-10.5 11t-6.5 21.5q-45 -4 -84 -24q27 -67 8 -122t-70 -91t-110 -36 q-51 0 -92 30q-14 -24 -18 -43q-3 -26 7 -43q13 -18 37 -18q8 -2 30 -2h73q97 0 141 -29q30 -17 41 -47.5t6 -61.5q-10 -61 -84 -101.5t-170 -40.5t-157 40t-51 102zM56 -94q-6 -38 44.5 -68.5t129.5 -30.5t139.5 30.5t66.5 68.5q4 23 -2 40t-22 27.5t-33.5 17t-45.5 9 t-48 3.5t-50 1q-43 0 -60.5 -1t-29.5 -4.5t-28 -12.5q-28 -15 -42.5 -37.5t-18.5 -42.5zM170 275q-8 -46 18 -79t71 -33q29 0 56.5 15t46.5 41t24 57q8 46 -18 79t-71 33q-44 0 -81.5 -33t-45.5 -80zM170 513q0 11 13 18l136 77q10 5 18 0l112 -77q13 -10 5 -24.5t-23 -14.5 q-6 0 -10 3l-100 67l-122 -67q-8 -3 -12 -3q-9 0 -14 6.5t-3 14.5z" />
<glyph unicode="&#x11e;" horiz-adv-x="817" d="M108 306q21 128 138 222t266 94q136 0 210 -69q19 32 44 64q5 5 15 5q21 0 16 -33l-24 -143q-1 -10 -3 -16t-9 -11.5t-20 -5.5q-20 0 -23 15q-1 22 -4 36.5t-18 37t-42 40.5q-56 36 -143 36q-128 0 -230 -80.5t-121 -192.5q-19 -111 56.5 -191.5t200.5 -80.5 q87 0 160 49.5t104 132.5h-102q-9 0 -14 0.5t-10.5 6t-3.5 16.5q3 22 35 22h198q9 0 14.5 -0.5t11 -6t4.5 -16.5q-4 -22 -37 -22h-42l-30 -182q-2 -11 -4 -16t-9 -11t-19 -6q-18 0 -22 10.5t1 22.5l9 59q-121 -103 -257 -103q-145 0 -231.5 93t-64.5 224zM358 728 q5 23 27 23q13 0 17 -12q2 -39 124 -39q120 0 136 39q8 12 21 12q24 0 19 -23q-4 -26 -23 -43t-51.5 -23t-53.5 -7.5t-56 -1.5t-55.5 1.5t-51 7.5t-44 23t-9.5 43z" />
<glyph unicode="&#x11f;" d="M15 -94q14 78 102 125q-21 38 -15 77q7 40 35 71q-29 44 -20 97q11 63 65.5 109.5t121.5 46.5q50 0 95 -33q59 38 115 38q33 0 47 -14.5t11 -31.5q-3 -16 -14 -24.5t-23 -8.5q-5 0 -10 2.5t-10.5 11t-6.5 21.5q-45 -4 -84 -24q27 -67 8 -122t-70 -91t-110 -36 q-51 0 -92 30q-14 -24 -18 -43q-3 -26 7 -43q13 -18 37 -18q8 -2 30 -2h73q97 0 141 -29q30 -17 41 -47.5t6 -61.5q-10 -61 -84 -101.5t-170 -40.5t-157 40t-51 102zM56 -94q-6 -38 44.5 -68.5t129.5 -30.5t139.5 30.5t66.5 68.5q4 23 -2 40t-22 27.5t-33.5 17t-45.5 9 t-48 3.5t-50 1q-43 0 -60.5 -1t-29.5 -4.5t-28 -12.5q-28 -15 -42.5 -37.5t-18.5 -42.5zM151 577q5 23 27 23q13 0 17 -12q2 -39 124 -39q120 0 136 39q8 12 21 12q11 0 16 -6t3 -17q-3 -18 -12.5 -31.5t-26.5 -21.5t-32.5 -12.5t-39.5 -6.5t-37 -2.5t-36 -0.5t-36 0.5 t-36 2.5t-37 6.5t-28.5 12.5t-20 21.5t-2.5 31.5zM170 275q-8 -46 18 -79t71 -33q29 0 56.5 15t46.5 41t24 57q8 46 -18 79t-71 33q-44 0 -81.5 -33t-45.5 -80z" />
<glyph unicode="&#x120;" horiz-adv-x="817" d="M108 306q21 128 138 222t266 94q136 0 210 -69q19 32 44 64q5 5 15 5q21 0 16 -33l-24 -143q-1 -10 -3 -16t-9 -11.5t-20 -5.5q-20 0 -23 15q-1 22 -4 36.5t-18 37t-42 40.5q-56 36 -143 36q-128 0 -230 -80.5t-121 -192.5q-19 -111 56.5 -191.5t200.5 -80.5 q87 0 160 49.5t104 132.5h-102q-9 0 -14 0.5t-10.5 6t-3.5 16.5q3 22 35 22h198q9 0 14.5 -0.5t11 -6t4.5 -16.5q-4 -22 -37 -22h-42l-30 -182q-2 -11 -4 -16t-9 -11t-19 -6q-18 0 -22 10.5t1 22.5l9 59q-121 -103 -257 -103q-145 0 -231.5 93t-64.5 224zM481 696 q3 17 17 29.5t33 12.5q17 0 27.5 -12.5t7.5 -29.5q-2 -16 -16.5 -29t-33.5 -13q-17 0 -27.5 12.5t-7.5 29.5z" />
<glyph unicode="&#x121;" d="M15 -94q14 78 102 125q-21 38 -15 77q7 40 35 71q-29 44 -20 97q11 63 65.5 109.5t121.5 46.5q50 0 95 -33q59 38 115 38q33 0 47 -14.5t11 -31.5q-3 -16 -14 -24.5t-23 -8.5q-5 0 -10 2.5t-10.5 11t-6.5 21.5q-45 -4 -84 -24q27 -67 8 -122t-70 -91t-110 -36 q-51 0 -92 30q-14 -24 -18 -43q-3 -26 7 -43q13 -18 37 -18q8 -2 30 -2h73q97 0 141 -29q30 -17 41 -47.5t6 -61.5q-10 -61 -84 -101.5t-170 -40.5t-157 40t-51 102zM56 -94q-6 -38 44.5 -68.5t129.5 -30.5t139.5 30.5t66.5 68.5q4 23 -2 40t-22 27.5t-33.5 17t-45.5 9 t-48 3.5t-50 1q-43 0 -60.5 -1t-29.5 -4.5t-28 -12.5q-28 -15 -42.5 -37.5t-18.5 -42.5zM170 275q-8 -46 18 -79t71 -33q29 0 56.5 15t46.5 41t24 57q8 46 -18 79t-71 33q-44 0 -81.5 -33t-45.5 -80zM275 551q2 16 16.5 29t33.5 13q17 0 27.5 -12.5t7.5 -29.5t-17 -29.5 t-33 -12.5q-17 0 -27.5 12.5t-7.5 29.5z" />
<glyph unicode="&#x122;" horiz-adv-x="817" d="M108 306q21 128 138 222t266 94q136 0 210 -69q19 32 44 64q5 5 15 5q21 0 16 -33l-24 -143q-1 -10 -3 -16t-9 -11.5t-20 -5.5q-20 0 -23 15q-1 22 -4 36.5t-18 37t-42 40.5q-56 36 -143 36q-128 0 -230 -80.5t-121 -192.5q-19 -111 56.5 -191.5t200.5 -80.5 q87 0 160 49.5t104 132.5h-102q-9 0 -14 0.5t-10.5 6t-3.5 16.5q3 22 35 22h198q9 0 14.5 -0.5t11 -6t4.5 -16.5q-4 -22 -37 -22h-42l-30 -182q-2 -11 -4 -16t-9 -11t-19 -6q-18 0 -22 10.5t1 22.5l9 59q-121 -103 -257 -103q-145 0 -231.5 93t-64.5 224zM337 -204 q0 1 10 14q18 13 29.5 28t14.5 24t7 26q-17 1 -25 9t-8.5 12t-0.5 10q2 12 12 20t22 8q39 0 29 -59q-7 -42 -34 -74t-43 -32q-6 0 -10 4.5t-3 9.5z" />
<glyph unicode="&#x123;" d="M15 -94q14 78 102 125q-21 38 -15 77q7 40 35 71q-29 44 -20 97q11 63 65.5 109.5t121.5 46.5q50 0 95 -33q59 38 115 38q33 0 47 -14.5t11 -31.5q-3 -16 -14 -24.5t-23 -8.5q-5 0 -10 2.5t-10.5 11t-6.5 21.5q-45 -4 -84 -24q27 -67 8 -122t-70 -91t-110 -36 q-51 0 -92 30q-14 -24 -18 -43q-3 -26 7 -43q13 -18 37 -18q8 -2 30 -2h73q97 0 141 -29q30 -17 41 -47.5t6 -61.5q-10 -61 -84 -101.5t-170 -40.5t-157 40t-51 102zM56 -94q-6 -38 44.5 -68.5t129.5 -30.5t139.5 30.5t66.5 68.5q4 23 -2 40t-22 27.5t-33.5 17t-45.5 9 t-48 3.5t-50 1q-43 0 -60.5 -1t-29.5 -4.5t-28 -12.5q-28 -15 -42.5 -37.5t-18.5 -42.5zM170 275q-8 -46 18 -79t71 -33q29 0 56.5 15t46.5 41t24 57q8 46 -18 79t-71 33q-44 0 -81.5 -33t-45.5 -80zM278 532q5 29 21 55t31.5 38.5t24.5 12.5q6 0 10 -4.5t3 -9.5 q0 -1 -10 -14q-14 -10 -23.5 -19.5t-15 -21t-7.5 -18t-5 -19.5q13 -1 21 -5t10 -11t2.5 -8.5t0.5 -6.5q-2 -12 -12 -20t-22 -8q-17 0 -25.5 14.5t-3.5 44.5z" />
<glyph unicode="&#x124;" horiz-adv-x="758" d="M49 22q3 22 35 22h65l88 523h-65q-8 0 -13.5 0.5t-11 5.5t-4.5 15q4 23 36 23h182q9 0 14.5 -0.5t10.5 -6t3 -16.5q-3 -21 -35 -21h-64l-38 -227h367l38 227h-65q-8 0 -13 0.5t-10.5 5.5t-4.5 15q4 23 35 23h183q9 0 14 -0.5t10.5 -6t3.5 -16.5q-3 -21 -35 -21h-65 l-88 -523h65q9 0 14 -0.5t10.5 -6t4.5 -15.5q-4 -22 -36 -22h-183q-8 0 -13 0.5t-10.5 6t-3.5 15.5q3 22 34 22h65l42 252h-367l-42 -252h64q9 0 14.5 -0.5t10.5 -6t4 -15.5q-4 -22 -36 -22h-182q-8 0 -13.5 0.5t-11 6t-3.5 15.5zM349 665q2 15 16 19l129 44q7 2 14 0 l115 -44q16 -6 8.5 -23.5t-21.5 -17.5q-5 0 -8 1l-109 35l-121 -35q-3 -1 -8 -1q-8 0 -12.5 6.5t-2.5 15.5z" />
<glyph unicode="&#x125;" horiz-adv-x="583" d="M22 22q3 22 35 22h65l88 523h-65q-9 0 -14 0.5t-10.5 5.5t-4.5 15q4 23 36 23h85q20 0 25 -7t1 -26l-36 -217q89 71 173 71q139 0 116 -141l-42 -247h65q9 0 14 -0.5t10.5 -6t4.5 -15.5q-4 -22 -36 -22h-182q-9 0 -14.5 0.5t-10.5 6t-3 16.5q3 21 35 21h65l40 240 q9 53 -5 78t-70 25q-25 0 -51.5 -8t-54 -24.5t-48 -47.5t-27.5 -72l-32 -191h65q9 0 14.5 -0.5t10.5 -6t4 -15.5q-4 -22 -36 -22h-182q-9 0 -14 0.5t-10.5 6t-3.5 15.5zM261 665q2 15 16 19l129 44q7 2 14 0l115 -44q16 -6 8.5 -23.5t-21.5 -17.5q-5 0 -8 1l-109 35 l-121 -35q-3 -1 -8 -1q-8 0 -12.5 6.5t-2.5 15.5z" />
<glyph unicode="&#x126;" horiz-adv-x="758" d="M49 22q3 22 35 22h65l66 396h-70q-9 0 -14.5 6.5t-4.5 16.5q1 9 9.5 15.5t17.5 6.5h70l14 82h-65q-8 0 -13.5 0.5t-11 5.5t-4.5 15q4 23 36 23h182q9 0 14.5 -0.5t10.5 -6t3 -16.5q-3 -21 -35 -21h-64l-14 -82h367l14 82h-65q-8 0 -13 0.5t-10.5 5.5t-4.5 15q4 23 35 23 h183q9 0 14 -0.5t10.5 -6t3.5 -16.5q-3 -21 -35 -21h-65l-14 -82h70q9 0 14.5 -6.5t4.5 -15.5q-1 -10 -9.5 -16.5t-17.5 -6.5h-70l-66 -396h65q9 0 14 -0.5t10.5 -6t4.5 -15.5q-4 -22 -36 -22h-183q-8 0 -13 0.5t-10.5 6t-3.5 15.5q3 22 34 22h65l42 252h-367l-42 -252h64 q9 0 14.5 -0.5t10.5 -6t4 -15.5q-4 -22 -36 -22h-182q-8 0 -13.5 0.5t-11 6t-3.5 15.5zM252 340h367l16 100h-367z" />
<glyph unicode="&#x127;" horiz-adv-x="583" d="M22 22q3 22 35 22h65l72 429h-70q-10 0 -15.5 6.5t-3.5 16.5q4 22 26 22h70l9 49h-65q-9 0 -14 0.5t-10.5 5.5t-4.5 15q4 23 36 23h85q20 0 25 -7t1 -26l-10 -60h125q9 0 15 -6.5t5 -15.5q-1 -10 -9.5 -16.5t-17.5 -6.5h-125l-19 -112q89 71 173 71q139 0 116 -141 l-42 -247h65q9 0 14 -0.5t10.5 -6t4.5 -15.5q-4 -22 -36 -22h-182q-9 0 -14.5 0.5t-10.5 6t-3 16.5q3 21 35 21h65l40 240q9 53 -5 78t-70 25q-25 0 -51.5 -8t-54 -24.5t-48 -47.5t-27.5 -72l-32 -191h65q9 0 14.5 -0.5t10.5 -6t4 -15.5q-4 -22 -36 -22h-182q-9 0 -14 0.5 t-10.5 6t-3.5 15.5z" />
<glyph unicode="&#x128;" horiz-adv-x="350" d="M50 22q3 22 35 22h70l88 523h-70q-8 0 -13.5 0.5t-11 5.5t-4.5 15q4 23 36 23h193q9 0 14 -0.5t10.5 -6t3.5 -16.5q-3 -21 -35 -21h-70l-88 -523h70q9 0 14 -0.5t10.5 -6t4.5 -15.5q-4 -22 -36 -22h-193q-8 0 -13.5 0.5t-11 6t-3.5 15.5zM116 666q2 15 55 50q50 32 81 32 q22 0 44 -18q2 -2 5 -6q32 -31 42 -33q27 0 86 48q13 9 20 9q9 0 15 -7.5t4 -16.5q-3 -15 -56 -49q-48 -32 -80 -32q-26 0 -44 18q-21 23 -30 30.5t-18 7.5q-27 0 -85 -47q-11 -9 -20 -9t-15 7.5t-4 15.5z" />
<glyph unicode="&#x129;" horiz-adv-x="292" d="M26 22q3 22 35 22h65l57 337h-60q-9 0 -14 0.5t-11 6t-5 16.5q4 22 37 22h81q20 0 25 -7t2 -26l-59 -349h54q9 0 14.5 -0.5t11 -6t4.5 -15.5q-4 -22 -36 -22h-173q-8 0 -13.5 0.5t-11 6t-3.5 15.5zM62 522q3 15 55 50q50 32 81 32q22 0 44 -18q2 -2 5 -6q32 -31 42 -33 q27 0 86 48q13 9 20 9q9 0 15 -7.5t4 -16.5q-3 -14 -55 -49q-50 -32 -81 -32q-24 0 -44 18q-15 17 -21.5 23.5t-13 10.5t-12.5 4q-28 0 -86 -47q-11 -9 -20 -9t-15 7.5t-4 15.5z" />
<glyph unicode="&#x12a;" horiz-adv-x="350" d="M50 22q3 22 35 22h70l88 523h-70q-8 0 -13.5 0.5t-11 5.5t-4.5 15q4 23 36 23h193q9 0 14 -0.5t10.5 -6t3.5 -16.5q-3 -21 -35 -21h-70l-88 -523h70q9 0 14 -0.5t10.5 -6t4.5 -15.5q-4 -22 -36 -22h-193q-8 0 -13.5 0.5t-11 6t-3.5 15.5zM105 686q4 23 35 23h308 q9 0 14 -1t10 -6.5t3 -16.5q-4 -22 -35 -22h-306q-10 0 -15.5 0.5t-10.5 6t-3 16.5z" />
<glyph unicode="&#x12b;" horiz-adv-x="292" d="M26 22q3 22 35 22h65l57 337h-60q-9 0 -14 0.5t-11 6t-5 16.5q4 22 37 22h81q20 0 25 -7t2 -26l-59 -349h54q9 0 14.5 -0.5t11 -6t4.5 -15.5q-4 -22 -36 -22h-173q-8 0 -13.5 0.5t-11 6t-3.5 15.5zM53 551q4 23 35 23h308q9 0 14 -1t10 -6.5t3 -16.5q-4 -22 -35 -22h-306 q-10 0 -15.5 0.5t-10.5 6t-3 16.5z" />
<glyph unicode="&#x12c;" horiz-adv-x="350" d="M50 22q3 22 35 22h70l88 523h-70q-8 0 -13.5 0.5t-11 5.5t-4.5 15q4 23 36 23h193q9 0 14 -0.5t10.5 -6t3.5 -16.5q-3 -21 -35 -21h-70l-88 -523h70q9 0 14 -0.5t10.5 -6t4.5 -15.5q-4 -22 -36 -22h-193q-8 0 -13.5 0.5t-11 6t-3.5 15.5zM125 728q5 23 27 23q13 0 17 -12 q2 -39 124 -39q120 0 136 39q8 12 21 12q24 0 19 -23q-4 -26 -23 -43t-51.5 -23t-53.5 -7.5t-56 -1.5t-55.5 1.5t-51 7.5t-44 23t-9.5 43z" />
<glyph unicode="&#x12d;" horiz-adv-x="292" d="M26 22q3 22 35 22h65l57 337h-60q-9 0 -14 0.5t-11 6t-5 16.5q4 22 37 22h81q20 0 25 -7t2 -26l-59 -349h54q9 0 14.5 -0.5t11 -6t4.5 -15.5q-4 -22 -36 -22h-173q-8 0 -13.5 0.5t-11 6t-3.5 15.5zM70 577q5 23 27 23q13 0 17 -12q2 -39 124 -39q120 0 136 39q8 12 21 12 q24 0 19 -23q-4 -26 -23 -43t-51.5 -23t-53.5 -7.5t-56 -1.5t-55.5 1.5t-51 7.5t-44 23t-9.5 43z" />
<glyph unicode="&#x12e;" horiz-adv-x="350" d="M50 22q3 22 35 22h70l88 523h-70q-8 0 -13.5 0.5t-11 5.5t-4.5 15q4 23 36 23h193q9 0 14 -0.5t10.5 -6t3.5 -16.5q-3 -21 -35 -21h-70l-88 -523h70q9 0 14 -0.5t10.5 -6t4.5 -15.5q-4 -22 -36 -22h-39q-38 -18 -65 -51.5t-34 -71.5q-3 -21 12.5 -35t34.5 -14q16 0 36 13 t34 28q13 10 26 4q3 -4 3.5 -11.5t-3.5 -12.5q-53 -58 -106 -58q-42 0 -63 27.5t-15 60.5q10 67 89 121h-103q-8 0 -13.5 0.5t-11 6t-3.5 15.5z" />
<glyph unicode="&#x12f;" horiz-adv-x="292" d="M26 22q3 22 35 22h65l57 337h-60q-9 0 -14 0.5t-11 6t-5 16.5q4 22 37 22h81q20 0 25 -7t2 -26l-59 -349h54q9 0 14.5 -0.5t11 -6t4.5 -15.5q-4 -22 -36 -22h-55q-38 -18 -65.5 -51.5t-34.5 -71.5q-3 -21 12.5 -35t34.5 -14q16 0 36 13t34 28q15 10 26 4q3 -4 3.5 -11.5 t-3.5 -12.5q-53 -58 -106 -58q-42 0 -63 27.5t-15 60.5q9 62 93 121h-70q-8 0 -13.5 0.5t-11 6t-3.5 15.5zM182 570q3 17 17.5 29.5t32.5 12.5q17 0 27.5 -12.5t7.5 -29.5q-3 -18 -17.5 -30t-31.5 -12q-18 0 -28.5 12t-7.5 30z" />
<glyph unicode="&#x130;" horiz-adv-x="350" d="M50 22q3 22 35 22h70l88 523h-70q-8 0 -13.5 0.5t-11 5.5t-4.5 15q4 23 36 23h193q9 0 14 -0.5t10.5 -6t3.5 -16.5q-3 -21 -35 -21h-70l-88 -523h70q9 0 14 -0.5t10.5 -6t4.5 -15.5q-4 -22 -36 -22h-193q-8 0 -13.5 0.5t-11 6t-3.5 15.5zM248 696q3 17 17 29.5t33 12.5 q17 0 27.5 -12.5t7.5 -29.5q-2 -16 -16.5 -29t-33.5 -13q-17 0 -27.5 12.5t-7.5 29.5z" />
<glyph unicode="&#x131;" horiz-adv-x="292" d="M26 22q3 22 35 22h65l57 337h-60q-9 0 -14 0.5t-11 6t-5 16.5q4 22 37 22h81q20 0 25 -7t2 -26l-59 -349h54q9 0 14.5 -0.5t11 -6t4.5 -15.5q-4 -22 -36 -22h-173q-8 0 -13.5 0.5t-11 6t-3.5 15.5z" />
<glyph unicode="&#x134;" d="M90 93q3 19 15.5 29t28.5 10q15 0 23.5 -11t6.5 -25q-2 -13 -17 -28q33 -35 95 -35q13 0 28.5 3t38.5 11.5t40.5 31.5t23.5 56l72 432h-94q-9 0 -14.5 0.5t-11 6t-4.5 15.5q4 22 37 22h186q9 0 14.5 -0.5t11 -6t3.5 -15.5q-3 -22 -36 -22h-40l-73 -438q-11 -64 -66 -102 t-124 -38q-72 0 -112 29t-32 75zM317 665q2 15 16 19l129 44q7 2 14 0l115 -44q16 -6 8.5 -23.5t-21.5 -17.5q-5 0 -8 1l-109 35l-121 -35q-3 -1 -8 -1q-8 0 -12.5 6.5t-2.5 15.5z" />
<glyph unicode="&#x135;" horiz-adv-x="321" d="M-71 -166q3 17 16 27.5t28 10.5q35 0 28 -47l1 -6q7 -10 37 -10q31 0 54.5 27.5t32.5 54.5t14 55l73 435h-75q-9 0 -14.5 0.5t-11 6t-4.5 16.5q4 22 37 22h95q20 0 25 -7t2 -26l-76 -451q-7 -41 -24 -78.5t-54 -68t-84 -30.5q-51 0 -78 18.5t-22 50.5zM103 513 q0 11 13 18l136 77q10 5 18 0l112 -77q13 -10 5 -24.5t-23 -14.5q-6 0 -10 3l-100 67l-122 -67q-7 -3 -12 -3q-9 0 -14 6.5t-3 14.5z" />
<glyph unicode="&#x136;" horiz-adv-x="788" d="M56 22q3 22 35 22h63l88 523h-63q-9 0 -14 0.5t-10.5 5.5t-4.5 15q4 23 36 23h169q9 0 14 -0.5t10.5 -6t3.5 -16.5q-3 -21 -35 -21h-63l-54 -324l452 324q-60 0 -67 8q-4 5 -3 14q4 22 35 22h150q9 0 14.5 -0.5t11 -6t3.5 -16.5q-3 -21 -36 -21h-42l-291 -207l222 -316 h38q9 0 14.5 -0.5t11 -6t4.5 -15.5q-4 -22 -37 -22h-129q-9 0 -14 0.5t-10.5 6t-3.5 15.5q1 8 4.5 12.5t14 6.5t20 2.5t32.5 0.5l-204 289l-199 -142l-25 -147h63q9 0 14 -0.5t10.5 -6t4.5 -15.5q-4 -22 -36 -22h-169q-9 0 -14 0.5t-10.5 6t-3.5 15.5zM322 -204q0 1 10 14 q18 13 29.5 28t14.5 24t7 26q-17 1 -25 9t-8.5 12t-0.5 10q2 12 12 20t22 8q39 0 29 -59q-7 -42 -34 -74t-43 -32q-6 0 -10 4.5t-3 9.5z" />
<glyph unicode="&#x137;" horiz-adv-x="554" d="M30 22q3 22 35 22h62l88 523h-62q-9 0 -14 0.5t-10.5 5.5t-4.5 15q4 23 36 23h72q20 0 26.5 -7t2.5 -26l-64 -385l242 188h-66q-9 0 -14 0.5t-10.5 6t-4.5 15.5q4 23 36 23h169q9 0 14.5 -0.5t11 -6t3.5 -16.5q-3 -22 -36 -22h-41l-165 -126l134 -211h39q9 0 14 -0.5 t11 -6t5 -15.5q-4 -22 -37 -22h-130q-9 0 -14.5 0.5t-10.5 6t-3 16.5q3 21 35 21h37l-116 183l-112 -87l-16 -96h62q9 0 14 -0.5t10 -6t4 -15.5q-4 -22 -35 -22h-169q-9 0 -14 0.5t-10.5 6t-3.5 15.5zM206 -204q0 1 10 14q18 13 29.5 28t14.5 24t7 26q-17 1 -25 9t-8.5 12 t-0.5 10q2 12 12 20t22 8q39 0 29 -59q-7 -42 -34 -74t-43 -32q-6 0 -10 4.5t-3 9.5z" />
<glyph unicode="&#x139;" horiz-adv-x="642" d="M51 22q3 22 35 22h65l88 523h-65q-9 0 -14 0.5t-10.5 5.5t-4.5 15q4 23 36 23h207q9 0 14 -0.5t10.5 -6t3.5 -16.5q-3 -21 -35 -21h-90l-88 -523h348l14 81q2 12 3.5 16.5t8.5 10.5t19 6t17.5 -5t5 -12.5t-1.5 -15.5l-15 -92q-4 -20 -11 -26.5t-27 -6.5h-485 q-9 0 -14 0.5t-10.5 6t-3.5 15.5zM335 685q2 13 24 22l147 62l17 4q11 0 17.5 -7.5t4.5 -19.5q-2 -17 -27 -27l-155 -64q-6 -2 -8 -2q-13 0 -17 12t-3 20z" />
<glyph unicode="&#x13a;" horiz-adv-x="292" d="M26 22q3 22 35 22h65l88 523h-65q-8 0 -13.5 0.5t-11 5.5t-4.5 15q4 23 36 23h86q20 0 25 -7t1 -26l-89 -534h65q9 0 14 -0.5t10.5 -6t4.5 -15.5q-4 -22 -36 -22h-183q-8 0 -13.5 0.5t-11 6t-3.5 15.5zM160 685q2 13 24 22l147 62l17 4q11 0 17.5 -7.5t4.5 -19.5 q-2 -17 -27 -27l-155 -64q-6 -2 -8 -2q-13 0 -17 12t-3 20z" />
<glyph unicode="&#x13b;" horiz-adv-x="642" d="M51 22q3 22 35 22h65l88 523h-65q-9 0 -14 0.5t-10.5 5.5t-4.5 15q4 23 36 23h207q9 0 14 -0.5t10.5 -6t3.5 -16.5q-3 -21 -35 -21h-90l-88 -523h348l14 81q2 12 3.5 16.5t8.5 10.5t19 6t17.5 -5t5 -12.5t-1.5 -15.5l-15 -92q-4 -20 -11 -26.5t-27 -6.5h-485 q-9 0 -14 0.5t-10.5 6t-3.5 15.5zM249 -204q0 1 10 14q18 13 29.5 28t14.5 24t7 26q-17 1 -25 9t-8.5 12t-0.5 10q2 12 12 20t22 8q39 0 29 -59q-7 -42 -34 -74t-43 -32q-6 0 -10 4.5t-3 9.5z" />
<glyph unicode="&#x13c;" horiz-adv-x="292" d="M26 22q3 22 35 22h65l88 523h-65q-8 0 -13.5 0.5t-11 5.5t-4.5 15q4 23 36 23h86q20 0 25 -7t1 -26l-89 -534h65q9 0 14 -0.5t10.5 -6t4.5 -15.5q-4 -22 -36 -22h-183q-8 0 -13.5 0.5t-11 6t-3.5 15.5zM74 -204q0 1 10 14q18 13 29.5 28t14.5 24t7 26q-17 1 -25 9 t-8.5 12t-0.5 10q2 12 12 20t22 8q39 0 29 -59q-7 -42 -34 -74t-43 -32q-6 0 -10 4.5t-3 9.5z" />
<glyph unicode="&#x13d;" horiz-adv-x="642" d="M51 22q3 22 35 22h65l88 523h-65q-9 0 -14 0.5t-10.5 5.5t-4.5 15q4 23 36 23h207q9 0 14 -0.5t10.5 -6t3.5 -16.5q-3 -21 -35 -21h-90l-88 -523h348l14 81q2 12 3.5 16.5t8.5 10.5t19 6t17.5 -5t5 -12.5t-1.5 -15.5l-15 -92q-4 -20 -11 -26.5t-27 -6.5h-485 q-9 0 -14 0.5t-10.5 6t-3.5 15.5zM453 460q1 5 10 14q18 13 29.5 28t14.5 24t7 26q-17 1 -25 9t-8.5 12t-0.5 10q2 12 12 20t22 8q39 0 29 -59q-7 -42 -34.5 -74t-43.5 -32q-6 0 -9.5 4.5t-2.5 9.5z" />
<glyph unicode="&#x13e;" horiz-adv-x="292" d="M26 22q3 22 35 22h65l88 523h-65q-8 0 -13.5 0.5t-11 5.5t-4.5 15q4 23 36 23h86q20 0 25 -7t1 -26l-89 -534h65q9 0 14 -0.5t10.5 -6t4.5 -15.5q-4 -22 -36 -22h-183q-8 0 -13.5 0.5t-11 6t-3.5 15.5zM288 460q1 5 10 14q18 13 29.5 28t14.5 24t7 26q-17 1 -25 9 t-8.5 12t-0.5 10q2 12 12 20t22 8q39 0 29 -59q-7 -42 -34.5 -74t-43.5 -32q-6 0 -9.5 4.5t-2.5 9.5z" />
<glyph unicode="&#x13f;" horiz-adv-x="642" d="M51 22q3 22 35 22h65l88 523h-65q-9 0 -14 0.5t-10.5 5.5t-4.5 15q4 23 36 23h207q9 0 14 -0.5t10.5 -6t3.5 -16.5q-3 -21 -35 -21h-90l-88 -523h348l14 81q2 12 3.5 16.5t8.5 10.5t19 6t17.5 -5t5 -12.5t-1.5 -15.5l-15 -92q-4 -20 -11 -26.5t-27 -6.5h-485 q-9 0 -14 0.5t-10.5 6t-3.5 15.5zM501 317q2 16 16.5 29t33.5 13q17 0 27.5 -12.5t7.5 -29.5t-17 -29.5t-33 -12.5q-17 0 -27.5 12.5t-7.5 29.5z" />
<glyph unicode="&#x140;" horiz-adv-x="292" d="M26 22q3 22 35 22h65l88 523h-65q-8 0 -13.5 0.5t-11 5.5t-4.5 15q4 23 36 23h86q20 0 25 -7t1 -26l-89 -534h65q9 0 14 -0.5t10.5 -6t4.5 -15.5q-4 -22 -36 -22h-183q-8 0 -13.5 0.5t-11 6t-3.5 15.5zM301 317q2 16 16.5 29t33.5 13q17 0 27.5 -12.5t7.5 -29.5 t-17 -29.5t-33 -12.5q-17 0 -27.5 12.5t-7.5 29.5z" />
<glyph unicode="&#x141;" horiz-adv-x="642" d="M51 22q3 22 35 22h65l40 238l-58 -39q-16 -11 -29 5q-11 16 11 30l84 54l40 235h-65q-9 0 -14 0.5t-10.5 5.5t-4.5 15q4 23 36 23h207q9 0 14 -0.5t10.5 -6t3.5 -16.5q-3 -21 -35 -21h-90l-35 -206l210 132q16 10 27 -7q10 -16 -10 -29l-235 -146l-45 -267h348l14 81 q2 12 3.5 16.5t8.5 10.5t19 6t17.5 -5t5 -12.5t-1.5 -15.5l-15 -92q-4 -20 -11 -26.5t-27 -6.5h-485q-9 0 -14 0.5t-10.5 6t-3.5 15.5z" />
<glyph unicode="&#x142;" horiz-adv-x="353" d="M58 278l160 100l32 189h-65q-8 0 -13 0.5t-10.5 5.5t-4.5 15q4 23 35 23h86q20 0 25 -7t1 -26l-28 -169l134 84q19 12 27 -6q3 -8 0 -16.5t-10 -13.5l-159 -100l-53 -313h65q9 0 14 -0.5t10.5 -6t4.5 -15.5q-4 -22 -36 -22h-183q-8 0 -13 0.5t-10.5 6t-3.5 15.5 q3 22 34 22h65l48 284l-133 -84q-15 -8 -23 -3t-7.5 17.5t11.5 19.5z" />
<glyph unicode="&#x143;" horiz-adv-x="758" d="M56 22q3 22 35 22h65l88 523h-65q-8 0 -13.5 0.5t-11 5.5t-4.5 15q4 23 36 23h98q44 0 57 -30l217 -537h18l88 523h-65q-9 0 -14 0.5t-10.5 5.5t-4.5 15q4 23 36 23h169q9 0 14 -0.5t10.5 -6t3.5 -16.5q-3 -21 -35 -21h-65l-89 -534q-4 -20 -12 -26.5t-27 -6.5 q-44 0 -57 30l-217 537h-18l-88 -523h65q9 0 14.5 -0.5t10.5 -6t4 -15.5q-4 -22 -36 -22h-169q-8 0 -13.5 0.5t-11 6t-3.5 15.5zM394 685q2 13 24 22l147 62l17 4q11 0 17.5 -7.5t4.5 -19.5q-2 -17 -27 -27l-155 -64q-6 -2 -8 -2q-13 0 -17 12t-3 20z" />
<glyph unicode="&#x144;" horiz-adv-x="583" d="M22 22q3 22 35 22h65l57 337h-65q-9 0 -14 0.5t-10.5 6t-4.5 15.5q4 23 36 23h85q23 0 26 -13t-5 -52q89 71 173 71q139 0 116 -141l-42 -247h65q9 0 14 -0.5t10.5 -6t4.5 -15.5q-4 -22 -36 -22h-182q-9 0 -14.5 0.5t-10.5 6t-3 16.5q3 21 35 21h65l40 240q9 53 -5 78 t-70 25q-25 0 -51.5 -8t-54 -24.5t-48 -47.5t-27.5 -72l-32 -191h65q9 0 14.5 -0.5t10.5 -6t4 -15.5q-4 -22 -36 -22h-182q-9 0 -14 0.5t-10.5 6t-3.5 15.5zM279 523q2 13 24 22l147 62l17 4q11 0 17.5 -7.5t4.5 -19.5q-2 -17 -27 -27l-155 -64q-6 -2 -8 -2q-13 0 -17 12 t-3 20z" />
<glyph unicode="&#x145;" horiz-adv-x="758" d="M56 22q3 22 35 22h65l88 523h-65q-8 0 -13.5 0.5t-11 5.5t-4.5 15q4 23 36 23h98q44 0 57 -30l217 -537h18l88 523h-65q-9 0 -14 0.5t-10.5 5.5t-4.5 15q4 23 36 23h169q9 0 14 -0.5t10.5 -6t3.5 -16.5q-3 -21 -35 -21h-65l-89 -534q-4 -20 -12 -26.5t-27 -6.5 q-44 0 -57 30l-217 537h-18l-88 -523h65q9 0 14.5 -0.5t10.5 -6t4 -15.5q-4 -22 -36 -22h-169q-8 0 -13.5 0.5t-11 6t-3.5 15.5zM308 -204q0 1 10 14q18 13 29.5 28t14.5 24t7 26q-17 1 -25 9t-8.5 12t-0.5 10q2 12 12 20t22 8q39 0 29 -59q-7 -42 -34 -74t-43 -32 q-6 0 -10 4.5t-3 9.5z" />
<glyph unicode="&#x146;" horiz-adv-x="583" d="M22 22q3 22 35 22h65l57 337h-65q-9 0 -14 0.5t-10.5 6t-4.5 15.5q4 23 36 23h85q23 0 26 -13t-5 -52q89 71 173 71q139 0 116 -141l-42 -247h65q9 0 14 -0.5t10.5 -6t4.5 -15.5q-4 -22 -36 -22h-182q-9 0 -14.5 0.5t-10.5 6t-3 16.5q3 21 35 21h65l40 240q9 53 -5 78 t-70 25q-25 0 -51.5 -8t-54 -24.5t-48 -47.5t-27.5 -72l-32 -191h65q9 0 14.5 -0.5t10.5 -6t4 -15.5q-4 -22 -36 -22h-182q-9 0 -14 0.5t-10.5 6t-3.5 15.5zM220 -204q0 1 10 14q18 13 29.5 28t14.5 24t7 26q-17 1 -25 9t-8.5 12t-0.5 10q2 12 12 20t22 8q39 0 29 -59 q-7 -42 -34 -74t-43 -32q-6 0 -10 4.5t-3 9.5z" />
<glyph unicode="&#x147;" horiz-adv-x="758" d="M56 22q3 22 35 22h65l88 523h-65q-8 0 -13.5 0.5t-11 5.5t-4.5 15q4 23 36 23h98q44 0 57 -30l217 -537h18l88 523h-65q-9 0 -14 0.5t-10.5 5.5t-4.5 15q4 23 36 23h169q9 0 14 -0.5t10.5 -6t3.5 -16.5q-3 -21 -35 -21h-65l-89 -534q-4 -20 -12 -26.5t-27 -6.5 q-44 0 -57 30l-217 537h-18l-88 -523h65q9 0 14.5 -0.5t10.5 -6t4 -15.5q-4 -22 -36 -22h-169q-8 0 -13.5 0.5t-11 6t-3.5 15.5zM366 688q-16 6 -9 23.5t21 17.5q5 0 8 -1l109 -35l121 35q3 1 8 1q17 0 15.5 -18t-15.5 -23l-130 -44q-7 -2 -14 0z" />
<glyph unicode="&#x148;" horiz-adv-x="583" d="M22 22q3 22 35 22h65l57 337h-65q-9 0 -14 0.5t-10.5 6t-4.5 15.5q4 23 36 23h85q23 0 26 -13t-5 -52q89 71 173 71q139 0 116 -141l-42 -247h65q9 0 14 -0.5t10.5 -6t4.5 -15.5q-4 -22 -36 -22h-182q-9 0 -14.5 0.5t-10.5 6t-3 16.5q3 21 35 21h65l40 240q9 53 -5 78 t-70 25q-25 0 -51.5 -8t-54 -24.5t-48 -47.5t-27.5 -72l-32 -191h65q9 0 14.5 -0.5t10.5 -6t4 -15.5q-4 -22 -36 -22h-182q-9 0 -14 0.5t-10.5 6t-3.5 15.5zM254 572q-13 10 -5 24.5t23 14.5q6 0 10 -3l100 -67l122 67q8 3 12 3q9 0 14 -6.5t3 -14.5q0 -11 -13 -18l-136 -77 q-10 -5 -18 0z" />
<glyph unicode="&#x14a;" horiz-adv-x="758" d="M19 22q3 22 35 22h65l88 523h-65q-8 0 -13.5 0.5t-11 5.5t-4.5 15q4 23 36 23h86q20 0 25 -7t1 -26l-7 -46q47 42 120 66t148 24q128 0 201.5 -93t51.5 -223q-21 -128 -94 -222.5t-173 -94.5q-16 0 -24 10.5t-6 25.5t14.5 25.5t27.5 10.5q16 0 28 -16q68 18 113 91.5 t61 169.5q18 108 -43 185.5t-166 77.5q-97 0 -176 -35.5t-100 -104.5l-65 -385h65q9 0 14 -0.5t10.5 -6t4.5 -15.5q-4 -22 -36 -22h-183q-8 0 -13.5 0.5t-11 6t-3.5 15.5z" />
<glyph unicode="&#x14b;" horiz-adv-x="583" d="M58 22q3 22 35 22h65l57 337h-65q-9 0 -14 0.5t-10.5 6t-4.5 15.5q4 23 36 23h85q23 0 26 -13t-5 -52q89 71 173 71q139 0 116 -141l-40 -237q-22 -130 -64 -203q-51 -91 -130 -91q-11 0 -17.5 7.5t-5.5 19.5q2 11 11.5 19t20.5 8q25 0 45.5 15t33.5 36.5t24 56.5t17 63 t13 69l38 230q9 53 -5 78t-70 25q-25 0 -51.5 -8t-54 -24.5t-48 -47.5t-27.5 -72l-32 -191h65q9 0 14.5 -0.5t10.5 -6t4 -15.5q-4 -22 -36 -22h-182q-9 0 -14 0.5t-10.5 6t-3.5 15.5z" />
<glyph unicode="&#x14c;" horiz-adv-x="817" d="M108 306q21 128 139 222t265 94t233.5 -93t64.5 -224q-21 -128 -139 -222t-265 -94t-233.5 93t-64.5 224zM162 317q-20 -116 53.5 -200t198.5 -84q124 0 225 84t121 200q18 107 -56.5 184t-199.5 77q-124 0 -224 -77t-118 -184zM338 686q4 23 35 23h308q9 0 14 -1 t10 -6.5t3 -16.5q-4 -22 -35 -22h-306q-10 0 -15.5 0.5t-10.5 6t-3 16.5z" />
<glyph unicode="&#x14d;" d="M76 213q15 91 90.5 156.5t168.5 65.5q92 0 146 -65.5t39 -156.5q-16 -91 -91.5 -155t-167.5 -64t-146.5 64t-38.5 155zM130 220q-13 -74 27 -128t111 -54q70 0 128.5 54t71.5 128q12 73 -30 122t-111 49t-127 -49t-70 -122zM170 551q4 23 35 23h308q9 0 14 -1t10 -6.5 t3 -16.5q-4 -22 -35 -22h-306q-10 0 -15.5 0.5t-10.5 6t-3 16.5z" />
<glyph unicode="&#x14e;" horiz-adv-x="817" d="M108 306q21 128 139 222t265 94t233.5 -93t64.5 -224q-21 -128 -139 -222t-265 -94t-233.5 93t-64.5 224zM162 317q-20 -116 53.5 -200t198.5 -84q124 0 225 84t121 200q18 107 -56.5 184t-199.5 77q-124 0 -224 -77t-118 -184zM358 728q5 23 27 23q13 0 17 -12 q2 -39 124 -39q120 0 136 39q8 12 21 12q24 0 19 -23q-4 -26 -23 -43t-51.5 -23t-53.5 -7.5t-56 -1.5t-55.5 1.5t-51 7.5t-44 23t-9.5 43z" />
<glyph unicode="&#x14f;" d="M76 213q15 91 90.5 156.5t168.5 65.5q92 0 146 -65.5t39 -156.5q-16 -91 -91.5 -155t-167.5 -64t-146.5 64t-38.5 155zM130 220q-13 -74 27 -128t111 -54q70 0 128.5 54t71.5 128q12 73 -30 122t-111 49t-127 -49t-70 -122zM187 577q5 23 27 23q13 0 17 -12 q2 -39 124 -39q120 0 136 39q8 12 21 12q24 0 19 -23q-4 -26 -23 -43t-51.5 -23t-53.5 -7.5t-56 -1.5t-55.5 1.5t-51 7.5t-44 23t-9.5 43z" />
<glyph unicode="&#x150;" horiz-adv-x="817" d="M108 306q21 128 139 222t265 94t233.5 -93t64.5 -224q-21 -128 -139 -222t-265 -94t-233.5 93t-64.5 224zM162 317q-20 -116 53.5 -200t198.5 -84q124 0 225 84t121 200q18 107 -56.5 184t-199.5 77q-124 0 -224 -77t-118 -184zM363 682q1 9 17 21l83 58q13 10 21 10 q12 0 18.5 -7.5t4.5 -19.5t-20 -24l-82 -58q-13 -9 -19 -9q-11 0 -18 10t-5 19zM575 682q1 10 17 21l82 58q14 10 22 10q11 0 17.5 -7.5t4.5 -19.5t-20 -24l-82 -58q-12 -9 -19 -9q-10 0 -17 10t-5 19z" />
<glyph unicode="&#x151;" d="M76 213q15 91 90.5 156.5t168.5 65.5q92 0 146 -65.5t39 -156.5q-16 -91 -91.5 -155t-167.5 -64t-146.5 64t-38.5 155zM130 220q-13 -74 27 -128t111 -54q70 0 128.5 54t71.5 128q12 73 -30 122t-111 49t-127 -49t-70 -122zM190 521q1 9 17 21l83 58q13 10 22 10 q12 0 18 -7.5t4 -19.5t-20 -24l-81 -58q-14 -9 -20 -9q-11 0 -18 10t-5 19zM402 521q1 10 17 21l82 58q14 10 23 10q11 0 17 -7.5t4 -19.5t-20 -24l-81 -58q-13 -9 -20 -9q-10 0 -17 10t-5 19z" />
<glyph unicode="&#x152;" horiz-adv-x="1050" d="M104 306q21 128 139 222t265 94q29 0 61 -4q61 -7 92 -7h405q20 0 25 -7t1 -26l-12 -75q-2 -11 -4 -16.5t-9 -11t-20 -5.5q-27 0 -20 33l11 64h-356l-38 -228h247q4 27 6.5 36.5t9.5 16t20 6.5q12 0 17.5 -5t5 -12.5t-1.5 -15.5l-16 -96q-2 -11 -4 -16t-9 -11t-19 -6 q-19 0 -21.5 13t4.5 46h-247l-42 -251h386l14 81q4 33 32 33q12 0 17.5 -5t5 -12.5t-1.5 -15.5l-15 -92q-4 -20 -11.5 -26.5t-26.5 -6.5h-435q-26 0 -78.5 -5.5t-78.5 -5.5q-146 0 -233 93.5t-65 223.5zM159 317q-19 -112 52 -198t205 -86q80 0 106 31t44 132q20 112 36 217 q19 98 1.5 131.5t-97.5 33.5q-135 0 -232.5 -78.5t-114.5 -182.5z" />
<glyph unicode="&#x153;" horiz-adv-x="817" d="M72 214q15 92 89 156.5t162 64.5q114 0 169 -112q86 112 197 112q82 0 118 -58t20 -150q-2 -14 -8 -21t-11.5 -8t-17.5 -1h-292q-1 -73 41.5 -116t104.5 -43q72 0 113 72q8 13 26 13q5 0 9.5 -0.5t10 -5.5t3.5 -14q-5 -29 -53.5 -69t-121.5 -40q-66 0 -109.5 33.5 t-64.5 79.5q-92 -113 -208 -113q-88 0 -140.5 64.5t-36.5 155.5zM126 220q-13 -75 25.5 -128.5t104.5 -53.5q67 0 123.5 53.5t69.5 128.5q12 73 -28 122t-106 49t-121.5 -49t-67.5 -122zM506 240h270q7 68 -15.5 109.5t-79.5 41.5q-51 0 -100.5 -41t-74.5 -110z" />
<glyph unicode="&#x154;" horiz-adv-x="758" d="M49 22q3 22 35 22h65l88 523h-65q-8 0 -13.5 0.5t-11 5.5t-4.5 15q4 23 36 23h276q110 0 182.5 -47.5t61.5 -116.5q-14 -83 -155 -139q50 -28 63 -54q11 -20 11 -37t-8 -60q-5 -31 -6 -49.5t1.5 -37.5t15 -28t34.5 -9t40.5 14t23.5 41q3 22 28 22q7 0 11 -0.5t9 -6 t4 -15.5q-7 -37 -42 -68t-82 -31q-60 0 -85 42q-14 24 -14 51.5t8 69.5q10 50 6 69t-34 38q-46 24 -130 24h-156l-40 -239h64q9 0 14.5 -0.5t10.5 -6t4 -15.5q-4 -22 -36 -22h-182q-8 0 -13.5 0.5t-11 6t-3.5 15.5zM250 328h149q89 0 164 34.5t84 84.5q8 50 -55.5 85 t-152.5 35h-149zM394 685q2 13 24 22l147 62l17 4q11 0 17.5 -7.5t4.5 -19.5q-2 -17 -27 -27l-155 -64q-6 -2 -8 -2q-13 0 -17 12t-3 20z" />
<glyph unicode="&#x155;" horiz-adv-x="408" d="M25 22q3 22 35 22h64l57 337h-64q-9 0 -14 0.5t-10.5 6t-4.5 15.5q4 23 36 23h85q23 0 26 -14t-6 -59q82 79 149 79q31 0 46.5 -17t12.5 -38q-3 -16 -14.5 -25.5t-25.5 -9.5q-13 0 -22.5 9.5t-4.5 35.5q-67 -7 -111.5 -65.5t-57.5 -137.5l-24 -140h90q9 0 14 -0.5 t10.5 -6t4.5 -15.5q-4 -22 -36 -22h-207q-9 0 -14 0.5t-10.5 6t-3.5 15.5zM192 523q2 13 24 22l147 62l17 4q11 0 17.5 -7.5t4.5 -19.5q-2 -17 -27 -27l-155 -64q-6 -2 -8 -2q-13 0 -17 12t-3 20z" />
<glyph unicode="&#x156;" horiz-adv-x="758" d="M49 22q3 22 35 22h65l88 523h-65q-8 0 -13.5 0.5t-11 5.5t-4.5 15q4 23 36 23h276q110 0 182.5 -47.5t61.5 -116.5q-14 -83 -155 -139q50 -28 63 -54q11 -20 11 -37t-8 -60q-5 -31 -6 -49.5t1.5 -37.5t15 -28t34.5 -9t40.5 14t23.5 41q3 22 28 22q7 0 11 -0.5t9 -6 t4 -15.5q-7 -37 -42 -68t-82 -31q-60 0 -85 42q-14 24 -14 51.5t8 69.5q10 50 6 69t-34 38q-46 24 -130 24h-156l-40 -239h64q9 0 14.5 -0.5t10.5 -6t4 -15.5q-4 -22 -36 -22h-182q-8 0 -13.5 0.5t-11 6t-3.5 15.5zM250 328h149q89 0 164 34.5t84 84.5q8 50 -55.5 85 t-152.5 35h-149zM308 -204q0 1 10 14q18 13 29.5 28t14.5 24t7 26q-17 1 -25 9t-8.5 12t-0.5 10q2 12 12 20t22 8q39 0 29 -59q-7 -42 -34 -74t-43 -32q-6 0 -10 4.5t-3 9.5z" />
<glyph unicode="&#x157;" horiz-adv-x="408" d="M25 22q3 22 35 22h64l57 337h-64q-9 0 -14 0.5t-10.5 6t-4.5 15.5q4 23 36 23h85q23 0 26 -14t-6 -59q82 79 149 79q31 0 46.5 -17t12.5 -38q-3 -16 -14.5 -25.5t-25.5 -9.5q-13 0 -22.5 9.5t-4.5 35.5q-67 -7 -111.5 -65.5t-57.5 -137.5l-24 -140h90q9 0 14 -0.5 t10.5 -6t4.5 -15.5q-4 -22 -36 -22h-207q-9 0 -14 0.5t-10.5 6t-3.5 15.5zM75 -204q0 1 10 14q18 13 29.5 28t14.5 24t7 26q-17 1 -25 9t-8.5 12t-0.5 10q2 12 12 20t22 8q39 0 29 -59q-7 -42 -34 -74t-43 -32q-6 0 -10 4.5t-3 9.5z" />
<glyph unicode="&#x158;" horiz-adv-x="758" d="M49 22q3 22 35 22h65l88 523h-65q-8 0 -13.5 0.5t-11 5.5t-4.5 15q4 23 36 23h276q110 0 182.5 -47.5t61.5 -116.5q-14 -83 -155 -139q50 -28 63 -54q11 -20 11 -37t-8 -60q-5 -31 -6 -49.5t1.5 -37.5t15 -28t34.5 -9t40.5 14t23.5 41q3 22 28 22q7 0 11 -0.5t9 -6 t4 -15.5q-7 -37 -42 -68t-82 -31q-60 0 -85 42q-14 24 -14 51.5t8 69.5q10 50 6 69t-34 38q-46 24 -130 24h-156l-40 -239h64q9 0 14.5 -0.5t10.5 -6t4 -15.5q-4 -22 -36 -22h-182q-8 0 -13.5 0.5t-11 6t-3.5 15.5zM250 328h149q89 0 164 34.5t84 84.5q8 50 -55.5 85 t-152.5 35h-149zM366 688q-16 6 -9 23.5t21 17.5q5 0 8 -1l109 -35l121 35q3 1 8 1q17 0 15.5 -18t-15.5 -23l-130 -44q-7 -2 -14 0z" />
<glyph unicode="&#x159;" horiz-adv-x="408" d="M25 22q3 22 35 22h64l57 337h-64q-9 0 -14 0.5t-10.5 6t-4.5 15.5q4 23 36 23h85q23 0 26 -14t-6 -59q82 79 149 79q31 0 46.5 -17t12.5 -38q-3 -16 -14.5 -25.5t-25.5 -9.5q-13 0 -22.5 9.5t-4.5 35.5q-67 -7 -111.5 -65.5t-57.5 -137.5l-24 -140h90q9 0 14 -0.5 t10.5 -6t4.5 -15.5q-4 -22 -36 -22h-207q-9 0 -14 0.5t-10.5 6t-3.5 15.5zM167 572q-13 10 -5 24.5t23 14.5q5 0 10 -3l100 -67l122 67q7 3 12 3q9 0 14 -6.5t3 -14.5q0 -11 -13 -18l-136 -77q-10 -5 -18 0z" />
<glyph unicode="&#x15a;" horiz-adv-x="583" d="M64 22l22 136q2 11 4 16t9 11t20 6q10 0 15.5 -4t6 -8t0.5 -12v-2q-4 -37 6 -60t38 -42q48 -30 138 -30q71 0 119.5 38t56.5 87q4 21 -1.5 41t-13.5 29l-7 10q-21 21 -39 28t-70 19l-44 9q-54 12 -74.5 17.5t-42.5 17t-39 29.5q-41 45 -31 105q11 64 76 111.5t154 47.5 q102 0 161 -59q20 39 27.5 49t18.5 10q21 0 16 -33l-22 -136q-2 -11 -4 -16t-9 -11t-20 -6q-10 0 -15.5 4t-6 8t-1.5 14q-2 132 -154 132q-67 0 -115.5 -33.5t-55.5 -77.5q-8 -45 24.5 -72.5t66.5 -34.5l147 -32q64 -14 99 -60.5t25 -105.5q-11 -69 -76.5 -121t-158.5 -52 q-124 0 -189 55q-19 -36 -26.5 -45.5t-18.5 -9.5q-21 0 -16 33zM306 685q2 13 24 22l147 62l17 4q11 0 17.5 -7.5t4.5 -19.5q-2 -17 -27 -27l-155 -64q-6 -2 -8 -2q-13 0 -17 12t-3 20z" />
<glyph unicode="&#x15b;" horiz-adv-x="414" d="M44 27l16 99q2 11 4 16t9 11t20 6q18 0 22 -14q3 -24 7 -39.5t14 -33t30 -26t50 -8.5q12 0 27 2t40 8.5t44 25t23 46.5q5 31 -17.5 50.5t-56.5 28.5l-11 2q-34 6 -52.5 10.5t-47 14.5t-43 21.5t-24 31t-5.5 43.5q3 17 12.5 34t28.5 36t56 31t86 12q54 0 93 -25 q13 25 29 25q22 0 16 -33l-12 -71q-1 -10 -3 -16t-9 -11.5t-20 -5.5q-22 0 -22 18q3 11 0.5 24t-8.5 24.5t-25 19t-49 7.5q-59 0 -91.5 -19.5t-37.5 -49.5q-6 -31 26 -46.5t104 -29.5q14 -2 27 -5.5t35 -13t36.5 -22t24 -35t4.5 -50.5q-8 -49 -53.5 -87.5t-132.5 -38.5 q-67 0 -111 42q-16 -42 -37 -42q-24 0 -16 33zM195 523q2 13 24 22l147 62l17 4q11 0 17.5 -7.5t4.5 -19.5q-2 -17 -27 -27l-155 -64q-6 -2 -8 -2q-13 0 -17 12t-3 20z" />
<glyph unicode="&#x15c;" horiz-adv-x="583" d="M64 22l22 136q2 11 4 16t9 11t20 6q10 0 15.5 -4t6 -8t0.5 -12v-2q-4 -37 6 -60t38 -42q48 -30 138 -30q71 0 119.5 38t56.5 87q4 21 -1.5 41t-13.5 29l-7 10q-21 21 -39 28t-70 19l-44 9q-54 12 -74.5 17.5t-42.5 17t-39 29.5q-41 45 -31 105q11 64 76 111.5t154 47.5 q102 0 161 -59q20 39 27.5 49t18.5 10q21 0 16 -33l-22 -136q-2 -11 -4 -16t-9 -11t-20 -6q-10 0 -15.5 4t-6 8t-1.5 14q-2 132 -154 132q-67 0 -115.5 -33.5t-55.5 -77.5q-8 -45 24.5 -72.5t66.5 -34.5l147 -32q64 -14 99 -60.5t25 -105.5q-11 -69 -76.5 -121t-158.5 -52 q-124 0 -189 55q-19 -36 -26.5 -45.5t-18.5 -9.5q-21 0 -16 33zM261 665q2 15 16 19l129 44q7 2 14 0l115 -44q16 -6 8.5 -23.5t-21.5 -17.5q-5 0 -8 1l-109 35l-121 -35q-3 -1 -8 -1q-8 0 -12.5 6.5t-2.5 15.5z" />
<glyph unicode="&#x15d;" horiz-adv-x="414" d="M44 27l16 99q2 11 4 16t9 11t20 6q18 0 22 -14q3 -24 7 -39.5t14 -33t30 -26t50 -8.5q12 0 27 2t40 8.5t44 25t23 46.5q5 31 -17.5 50.5t-56.5 28.5l-11 2q-34 6 -52.5 10.5t-47 14.5t-43 21.5t-24 31t-5.5 43.5q3 17 12.5 34t28.5 36t56 31t86 12q54 0 93 -25 q13 25 29 25q22 0 16 -33l-12 -71q-1 -10 -3 -16t-9 -11.5t-20 -5.5q-22 0 -22 18q3 11 0.5 24t-8.5 24.5t-25 19t-49 7.5q-59 0 -91.5 -19.5t-37.5 -49.5q-6 -31 26 -46.5t104 -29.5q14 -2 27 -5.5t35 -13t36.5 -22t24 -35t4.5 -50.5q-8 -49 -53.5 -87.5t-132.5 -38.5 q-67 0 -111 42q-16 -42 -37 -42q-24 0 -16 33zM151 513q0 11 13 18l136 77q10 5 18 0l112 -77q13 -10 5 -24.5t-23 -14.5q-6 0 -10 3l-100 67l-122 -67q-8 -3 -12 -3q-9 0 -14 6.5t-3 14.5z" />
<glyph unicode="&#x15e;" horiz-adv-x="583" d="M64 22l22 136q2 11 4 16t9 11t20 6q10 0 15.5 -4t6 -8t0.5 -12v-2q-4 -37 6 -60t38 -42q48 -30 138 -30q71 0 119.5 38t56.5 87q4 21 -1.5 41t-13.5 29l-7 10q-21 21 -39 28t-70 19l-44 9q-54 12 -74.5 17.5t-42.5 17t-39 29.5q-41 45 -31 105q11 64 76 111.5t154 47.5 q102 0 161 -59q20 39 27.5 49t18.5 10q21 0 16 -33l-22 -136q-2 -11 -4 -16t-9 -11t-20 -6q-10 0 -15.5 4t-6 8t-1.5 14q-2 132 -154 132q-67 0 -115.5 -33.5t-55.5 -77.5q-8 -45 24.5 -72.5t66.5 -34.5l147 -32q64 -14 99 -60.5t25 -105.5q-10 -62 -66 -112t-137 -59 l-3 -19q86 -22 74 -92q-5 -27 -23 -46t-38.5 -28t-55 -14t-54.5 -5.5t-55 -0.5q-8 0 -14.5 5.5t-4.5 16.5t10.5 16t17 6t25.5 1q132 0 140 51q4 20 -13 34.5t-46 15.5q-22 1 -17 31l4 26q-109 6 -169 54q-18 -35 -25.5 -44.5t-18.5 -9.5q-21 0 -16 33z" />
<glyph unicode="&#x15f;" horiz-adv-x="414" d="M44 27l16 99q2 11 4 16t9 11t20 6q18 0 22 -14q3 -24 7 -39.5t14 -33t30 -26t50 -8.5q12 0 27 2t40 8.5t44 25t23 46.5q5 31 -17.5 50.5t-56.5 28.5l-11 2q-34 6 -52.5 10.5t-47 14.5t-43 21.5t-24 31t-5.5 43.5q3 17 12.5 34t28.5 36t56 31t86 12q54 0 93 -25 q13 25 29 25q22 0 16 -33l-12 -71q-1 -10 -3 -16t-9 -11.5t-20 -5.5q-22 0 -22 18q3 11 0.5 24t-8.5 24.5t-25 19t-49 7.5q-59 0 -91.5 -19.5t-37.5 -49.5q-6 -31 26 -46.5t104 -29.5q14 -2 27 -5.5t35 -13t36.5 -22t24 -35t4.5 -50.5q-6 -39 -37.5 -73t-92.5 -48l-5 -26 q85 -24 74 -93q-5 -27 -23 -46t-38.5 -28t-55 -14t-54.5 -5.5t-55 -0.5q-8 0 -14.5 5.5t-4.5 16.5t10.5 16t17 6t25.5 1q132 0 140 51q4 20 -13 34.5t-46 15.5q-22 1 -17 31l5 31q-69 2 -113 42q-16 -42 -37 -42q-24 0 -16 33z" />
<glyph unicode="&#x160;" horiz-adv-x="583" d="M64 22l22 136q2 11 4 16t9 11t20 6q10 0 15.5 -4t6 -8t0.5 -12v-2q-4 -37 6 -60t38 -42q48 -30 138 -30q71 0 119.5 38t56.5 87q4 21 -1.5 41t-13.5 29l-7 10q-21 21 -39 28t-70 19l-44 9q-54 12 -74.5 17.5t-42.5 17t-39 29.5q-41 45 -31 105q11 64 76 111.5t154 47.5 q102 0 161 -59q20 39 27.5 49t18.5 10q21 0 16 -33l-22 -136q-2 -11 -4 -16t-9 -11t-20 -6q-10 0 -15.5 4t-6 8t-1.5 14q-2 132 -154 132q-67 0 -115.5 -33.5t-55.5 -77.5q-8 -45 24.5 -72.5t66.5 -34.5l147 -32q64 -14 99 -60.5t25 -105.5q-11 -69 -76.5 -121t-158.5 -52 q-124 0 -189 55q-19 -36 -26.5 -45.5t-18.5 -9.5q-21 0 -16 33zM278 688q-16 6 -9 23.5t21 17.5q5 0 8 -1l109 -35l121 35q3 1 8 1q17 0 15.5 -18t-15.5 -23l-130 -44q-7 -2 -14 0z" />
<glyph unicode="&#x161;" horiz-adv-x="414" d="M44 27l16 99q2 11 4 16t9 11t20 6q18 0 22 -14q3 -24 7 -39.5t14 -33t30 -26t50 -8.5q12 0 27 2t40 8.5t44 25t23 46.5q5 31 -17.5 50.5t-56.5 28.5l-11 2q-34 6 -52.5 10.5t-47 14.5t-43 21.5t-24 31t-5.5 43.5q3 17 12.5 34t28.5 36t56 31t86 12q54 0 93 -25 q13 25 29 25q22 0 16 -33l-12 -71q-1 -10 -3 -16t-9 -11.5t-20 -5.5q-22 0 -22 18q3 11 0.5 24t-8.5 24.5t-25 19t-49 7.5q-59 0 -91.5 -19.5t-37.5 -49.5q-6 -31 26 -46.5t104 -29.5q14 -2 27 -5.5t35 -13t36.5 -22t24 -35t4.5 -50.5q-8 -49 -53.5 -87.5t-132.5 -38.5 q-67 0 -111 42q-16 -42 -37 -42q-24 0 -16 33zM170 572q-13 10 -5 24.5t23 14.5q6 0 10 -3l100 -67l122 67q8 3 12 3q9 0 14 -6.5t3 -14.5q0 -11 -13 -18l-136 -77q-10 -5 -18 0z" />
<glyph unicode="&#x162;" horiz-adv-x="758" d="M121 503l12 75q4 20 11.5 26.5t27.5 6.5h618q20 0 25 -7t1 -26l-12 -75q-2 -11 -4 -16.5t-9 -11t-20 -5.5q-27 0 -20 33l11 64h-262l-88 -523h105q9 0 14.5 -0.5t11 -6t4.5 -15.5q-4 -22 -37 -22h-105q-3 -20 -5 -30q85 -24 74 -93q-5 -27 -23 -46t-38.5 -28t-55 -14 t-54.5 -5.5t-55 -0.5q-8 0 -14.5 5.5t-4.5 16.5t10.5 16t17 6t25.5 1q132 0 140 51q4 20 -13 34.5t-46 15.5q-22 1 -17 31l5 34l2 6h-106q-9 0 -14.5 0.5t-11 6t-3.5 16.5q3 21 36 21h105l88 523h-263l-11 -64q-2 -11 -4 -16.5t-9 -11t-19 -5.5q-27 0 -20 33z" />
<glyph unicode="&#x163;" horiz-adv-x="408" d="M76 -195q2 11 10.5 16t17 6t25.5 1q132 0 140 51q4 20 -13 34.5t-46 15.5q-22 1 -17 31l5 34l1 3q-34 8 -53 37t-9 83l44 264h-62q-9 0 -14 0.5t-10.5 6t-4.5 15.5q4 23 37 23h61l16 93q1 10 3 16t9 11.5t20 5.5q12 0 17.5 -5t5 -12.5t-1.5 -15.5l-16 -93h124 q9 0 14 -0.5t10.5 -6t3.5 -16.5q-3 -22 -35 -22h-124l-43 -257q-17 -86 45 -86q25 0 47.5 21.5t28.5 61.5q2 8 2.5 11t4 9t9 8t14.5 2q13 0 18.5 -5t5 -12t-1.5 -14q-8 -47 -39.5 -80.5t-73.5 -42.5q0 -5 -4 -27q85 -24 74 -93q-5 -27 -23 -46t-38.5 -28t-55 -14t-54.5 -5.5 t-55 -0.5q-8 0 -14.5 5.5t-4.5 16.5z" />
<glyph unicode="&#x164;" horiz-adv-x="758" d="M121 503l12 75q4 20 11.5 26.5t27.5 6.5h618q20 0 25 -7t1 -26l-12 -75q-2 -11 -4 -16.5t-9 -11t-20 -5.5q-27 0 -20 33l11 64h-262l-88 -523h105q9 0 14.5 -0.5t11 -6t4.5 -15.5q-4 -22 -37 -22h-263q-9 0 -14.5 0.5t-11 6t-3.5 16.5q3 21 36 21h105l88 523h-263 l-11 -64q-2 -11 -4 -16.5t-9 -11t-19 -5.5q-27 0 -20 33zM366 688q-16 6 -9 23.5t21 17.5q5 0 8 -1l109 -35l121 35q3 1 8 1q17 0 15.5 -18t-15.5 -23l-130 -44q-7 -2 -14 0z" />
<glyph unicode="&#x165;" horiz-adv-x="408" d="M90 403q4 23 37 23h61l16 93q1 10 3 16t9 11.5t20 5.5q12 0 17.5 -5t5 -12.5t-1.5 -15.5l-16 -93h124q9 0 14 -0.5t10.5 -6t3.5 -16.5q-3 -22 -35 -22h-124l-43 -257q-17 -86 45 -86q25 0 47.5 21.5t28.5 61.5q2 8 2.5 11t4 9t9 8t14.5 2q13 0 18.5 -5t5 -12t-1.5 -14 q-9 -54 -49.5 -90t-89.5 -36q-42 0 -70.5 29t-17.5 94l44 264h-62q-9 0 -14 0.5t-10.5 6t-4.5 15.5zM290 483q0 4 10 14q38 27 51 78q-17 1 -26 8.5t-8 13.5t0 9q2 12 12 20t22 8q39 0 29 -59q-7 -42 -35 -74t-43 -32q-6 0 -9.5 4.5t-2.5 9.5z" />
<glyph unicode="&#x168;" horiz-adv-x="758" d="M143 588q4 23 36 23h182q9 0 14.5 -0.5t10.5 -6t3 -16.5q-3 -21 -35 -21h-64l-60 -358q-14 -84 35 -130t120 -46q68 0 133 45.5t79 130.5l60 358h-65q-8 0 -13 0.5t-10.5 5.5t-4.5 15q4 23 35 23h183q9 0 14 -0.5t10.5 -6t3.5 -16.5q-3 -21 -35 -21h-65l-61 -364 q-16 -91 -95 -152.5t-178 -61.5q-97 0 -156 61t-44 153l61 364h-65q-8 0 -13.5 0.5t-11 5.5t-4.5 15zM343 666q2 15 55 50q50 32 81 32q22 0 44 -18q2 -2 5 -6q32 -31 42 -33q27 0 86 48q14 9 20 9q9 0 15 -7.5t4 -16.5q-3 -15 -56 -49q-48 -32 -80 -32q-26 0 -44 18 q-21 23 -30 30.5t-18 7.5q-27 0 -85 -47q-11 -9 -20 -9t-15 7.5t-4 15.5z" />
<glyph unicode="&#x169;" horiz-adv-x="583" d="M85 403q4 23 36 23h85q20 0 25 -7t2 -26l-47 -278q-4 -13 -3 -26.5t7 -25t27.5 -18.5t58.5 -7q20 0 40.5 3.5t48.5 14t48.5 35.5t26.5 61l39 229h-65q-9 0 -14.5 0.5t-10.5 6t-4 16.5q4 22 36 22h85q20 0 25 -7t2 -26l-59 -349h65q9 0 14 -0.5t10.5 -6t4.5 -15.5 q-4 -22 -36 -22h-85q-10 0 -14.5 1.5t-10 12t0.5 32.5q-76 -52 -160 -52q-26 0 -46 3t-44.5 13.5t-35 35.5t-4.5 63l46 272h-65q-9 0 -14 0.5t-10.5 6t-4.5 15.5zM208 522q3 15 55 50q50 32 81 32q22 0 44 -18q2 -2 5 -6q32 -31 42 -33q27 0 86 48q13 9 20 9q9 0 15 -7.5 t4 -16.5q-3 -14 -55 -49q-50 -32 -81 -32q-24 0 -44 18q-15 17 -21.5 23.5t-13 10.5t-12.5 4q-28 0 -86 -47q-11 -9 -20 -9t-15 7.5t-4 15.5z" />
<glyph unicode="&#x16a;" horiz-adv-x="758" d="M143 588q4 23 36 23h182q9 0 14.5 -0.5t10.5 -6t3 -16.5q-3 -21 -35 -21h-64l-60 -358q-14 -84 35 -130t120 -46q68 0 133 45.5t79 130.5l60 358h-65q-8 0 -13 0.5t-10.5 5.5t-4.5 15q4 23 35 23h183q9 0 14 -0.5t10.5 -6t3.5 -16.5q-3 -21 -35 -21h-65l-61 -364 q-16 -91 -95 -152.5t-178 -61.5q-97 0 -156 61t-44 153l61 364h-65q-8 0 -13.5 0.5t-11 5.5t-4.5 15zM332 686q4 23 35 23h308q9 0 14 -1t10 -6.5t3 -16.5q-4 -22 -35 -22h-306q-10 0 -15.5 0.5t-10.5 6t-3 16.5z" />
<glyph unicode="&#x16b;" horiz-adv-x="583" d="M85 403q4 23 36 23h85q20 0 25 -7t2 -26l-47 -278q-4 -13 -3 -26.5t7 -25t27.5 -18.5t58.5 -7q20 0 40.5 3.5t48.5 14t48.5 35.5t26.5 61l39 229h-65q-9 0 -14.5 0.5t-10.5 6t-4 16.5q4 22 36 22h85q20 0 25 -7t2 -26l-59 -349h65q9 0 14 -0.5t10.5 -6t4.5 -15.5 q-4 -22 -36 -22h-85q-10 0 -14.5 1.5t-10 12t0.5 32.5q-76 -52 -160 -52q-26 0 -46 3t-44.5 13.5t-35 35.5t-4.5 63l46 272h-65q-9 0 -14 0.5t-10.5 6t-4.5 15.5zM199 551q4 23 35 23h308q9 0 14 -1t10 -6.5t3 -16.5q-4 -22 -35 -22h-306q-10 0 -15.5 0.5t-10.5 6t-3 16.5z " />
<glyph unicode="&#x16c;" horiz-adv-x="758" d="M143 588q4 23 36 23h182q9 0 14.5 -0.5t10.5 -6t3 -16.5q-3 -21 -35 -21h-64l-60 -358q-14 -84 35 -130t120 -46q68 0 133 45.5t79 130.5l60 358h-65q-8 0 -13 0.5t-10.5 5.5t-4.5 15q4 23 35 23h183q9 0 14 -0.5t10.5 -6t3.5 -16.5q-3 -21 -35 -21h-65l-61 -364 q-16 -91 -95 -152.5t-178 -61.5q-97 0 -156 61t-44 153l61 364h-65q-8 0 -13.5 0.5t-11 5.5t-4.5 15zM352 728q5 23 27 23q13 0 17 -12q2 -39 124 -39q120 0 136 39q8 12 21 12q24 0 19 -23q-4 -26 -23 -43t-51.5 -23t-53.5 -7.5t-56 -1.5t-55.5 1.5t-51 7.5t-44 23t-9.5 43 z" />
<glyph unicode="&#x16d;" horiz-adv-x="583" d="M85 403q4 23 36 23h85q20 0 25 -7t2 -26l-47 -278q-4 -13 -3 -26.5t7 -25t27.5 -18.5t58.5 -7q20 0 40.5 3.5t48.5 14t48.5 35.5t26.5 61l39 229h-65q-9 0 -14.5 0.5t-10.5 6t-4 16.5q4 22 36 22h85q20 0 25 -7t2 -26l-59 -349h65q9 0 14 -0.5t10.5 -6t4.5 -15.5 q-4 -22 -36 -22h-85q-10 0 -14.5 1.5t-10 12t0.5 32.5q-76 -52 -160 -52q-26 0 -46 3t-44.5 13.5t-35 35.5t-4.5 63l46 272h-65q-9 0 -14 0.5t-10.5 6t-4.5 15.5zM216 577q5 23 27 23q13 0 17 -12q2 -39 124 -39q120 0 136 39q8 12 21 12q24 0 19 -23q-4 -26 -23 -43 t-51.5 -23t-53.5 -7.5t-56 -1.5t-55.5 1.5t-51 7.5t-44 23t-9.5 43z" />
<glyph unicode="&#x16e;" horiz-adv-x="758" d="M143 588q4 23 36 23h182q9 0 14.5 -0.5t10.5 -6t3 -16.5q-3 -21 -35 -21h-64l-60 -358q-14 -84 35 -130t120 -46q68 0 133 45.5t79 130.5l60 358h-65q-8 0 -13 0.5t-10.5 5.5t-4.5 15q4 23 35 23h183q9 0 14 -0.5t10.5 -6t3.5 -16.5q-3 -21 -35 -21h-65l-61 -364 q-16 -91 -95 -152.5t-178 -61.5q-97 0 -156 61t-44 153l61 364h-65q-8 0 -13.5 0.5t-11 5.5t-4.5 15zM406 691q4 24 40.5 46t82.5 22q43 0 73 -22t26 -46t-40.5 -46t-82.5 -22q-43 0 -73 22t-26 46zM449 691q-2 -16 16 -27.5t46 -11.5q26 0 48.5 11.5t25.5 27.5t-15 27.5 t-46 11.5q-26 0 -49 -11.5t-26 -27.5z" />
<glyph unicode="&#x16f;" horiz-adv-x="583" d="M85 403q4 23 36 23h85q20 0 25 -7t2 -26l-47 -278q-4 -13 -3 -26.5t7 -25t27.5 -18.5t58.5 -7q20 0 40.5 3.5t48.5 14t48.5 35.5t26.5 61l39 229h-65q-9 0 -14.5 0.5t-10.5 6t-4 16.5q4 22 36 22h85q20 0 25 -7t2 -26l-59 -349h65q9 0 14 -0.5t10.5 -6t4.5 -15.5 q-4 -22 -36 -22h-85q-10 0 -14.5 1.5t-10 12t0.5 32.5q-76 -52 -160 -52q-26 0 -46 3t-44.5 13.5t-35 35.5t-4.5 63l46 272h-65q-9 0 -14 0.5t-10.5 6t-4.5 15.5zM273 560q4 24 41 46t83 22q43 0 73 -22t25 -46q-4 -24 -40.5 -46t-82.5 -22q-43 0 -73 22t-26 46zM316 560 q-2 -16 16 -27.5t46 -11.5q26 0 49 11.5t25 27.5q3 16 -15 27.5t-46 11.5q-26 0 -49 -11.5t-26 -27.5z" />
<glyph unicode="&#x170;" horiz-adv-x="758" d="M143 588q4 23 36 23h182q9 0 14.5 -0.5t10.5 -6t3 -16.5q-3 -21 -35 -21h-64l-60 -358q-14 -84 35 -130t120 -46q68 0 133 45.5t79 130.5l60 358h-65q-8 0 -13 0.5t-10.5 5.5t-4.5 15q4 23 35 23h183q9 0 14 -0.5t10.5 -6t3.5 -16.5q-3 -21 -35 -21h-65l-61 -364 q-16 -91 -95 -152.5t-178 -61.5q-97 0 -156 61t-44 153l61 364h-65q-8 0 -13.5 0.5t-11 5.5t-4.5 15zM357 682q1 9 17 21l83 58q13 10 21 10q12 0 18.5 -7.5t4.5 -19.5t-20 -24l-82 -58q-13 -9 -19 -9q-11 0 -18 10t-5 19zM569 682q1 10 17 21l82 58q14 10 22 10 q11 0 17.5 -7.5t4.5 -19.5t-20 -24l-82 -58q-12 -9 -19 -9q-10 0 -17 10t-5 19z" />
<glyph unicode="&#x171;" horiz-adv-x="583" d="M85 403q4 23 36 23h85q20 0 25 -7t2 -26l-47 -278q-4 -13 -3 -26.5t7 -25t27.5 -18.5t58.5 -7q20 0 40.5 3.5t48.5 14t48.5 35.5t26.5 61l39 229h-65q-9 0 -14.5 0.5t-10.5 6t-4 16.5q4 22 36 22h85q20 0 25 -7t2 -26l-59 -349h65q9 0 14 -0.5t10.5 -6t4.5 -15.5 q-4 -22 -36 -22h-85q-10 0 -14.5 1.5t-10 12t0.5 32.5q-76 -52 -160 -52q-26 0 -46 3t-44.5 13.5t-35 35.5t-4.5 63l46 272h-65q-9 0 -14 0.5t-10.5 6t-4.5 15.5zM219 521q1 9 17 21l83 58q13 10 22 10q12 0 18 -7.5t4 -19.5t-20 -24l-81 -58q-14 -9 -20 -9q-11 0 -18 10 t-5 19zM431 521q1 10 17 21l82 58q14 10 23 10q11 0 17 -7.5t4 -19.5t-20 -24l-81 -58q-13 -9 -20 -9q-10 0 -17 10t-5 19z" />
<glyph unicode="&#x172;" horiz-adv-x="758" d="M143 588q4 23 36 23h182q9 0 14.5 -0.5t10.5 -6t3 -16.5q-3 -21 -35 -21h-64l-60 -358q-14 -84 35 -130t120 -46q68 0 133 45.5t79 130.5l60 358h-65q-8 0 -13 0.5t-10.5 5.5t-4.5 15q4 23 35 23h183q9 0 14 -0.5t10.5 -6t3.5 -16.5q-3 -21 -35 -21h-65l-61 -364 q-15 -88 -91.5 -149t-166.5 -64q-75 -53 -86 -113q-3 -21 12.5 -35t34.5 -14q16 0 36 13t34 28q16 13 26 4q4 -4 4 -11.5t-4 -12.5q-53 -58 -106 -58q-42 0 -63 27.5t-15 60.5q9 54 83 110q-92 18 -138 75t-33 139l61 364h-65q-8 0 -13.5 0.5t-11 5.5t-4.5 15z" />
<glyph unicode="&#x173;" horiz-adv-x="583" d="M85 403q4 23 36 23h85q20 0 25 -7t2 -26l-47 -278q-4 -13 -3 -26.5t7 -25t27.5 -18.5t58.5 -7q20 0 40.5 3.5t48.5 14t48.5 35.5t26.5 61l39 229h-65q-9 0 -14.5 0.5t-10.5 6t-4 16.5q4 22 36 22h85q20 0 25 -7t2 -26l-59 -349h65q9 0 14 -0.5t10.5 -6t4.5 -15.5 q-4 -22 -36 -22h-16q-90 -60 -101 -123q-3 -21 12.5 -35t34.5 -14q16 0 36 13t34 28q16 13 26 4q4 -4 4 -11.5t-4 -12.5q-53 -58 -106 -58q-42 0 -63 27.5t-15 60.5q4 28 28.5 58t46.5 47l22 16h-24q-10 0 -14.5 1.5t-10 12t0.5 32.5q-76 -52 -160 -52q-26 0 -46 3 t-44.5 13.5t-35 35.5t-4.5 63l46 272h-65q-9 0 -14 0.5t-10.5 6t-4.5 15.5z" />
<glyph unicode="&#x174;" horiz-adv-x="1050" d="M116 589q4 22 37 22h139q9 0 14.5 -0.5t11 -6t3.5 -16.5q-3 -21 -36 -21h-56l70 -531h20l256 547q7 13 15.5 19.5t15.5 7.5t21 1q13 0 19.5 -1t13.5 -7.5t9 -19.5l72 -547h20l249 531h-56q-9 0 -14 0.5t-11 5.5t-5 15q4 23 37 23h139q9 0 14.5 -0.5t11 -6t3.5 -16.5 q-3 -21 -36 -21h-42l-256 -547q-6 -13 -15 -19.5t-16 -7.5t-20 -1q-23 0 -30 6t-11 26l-74 543h-20l-255 -544q-7 -15 -15 -22t-15 -8t-22 -1q-33 0 -39 17l-75 558h-42q-9 0 -14.5 0.5t-11 6t-4.5 15.5zM495 665q2 15 16 19l129 44q7 2 14 0l115 -44q16 -6 8.5 -23.5 t-21.5 -17.5q-5 0 -8 1l-109 35l-121 -35q-3 -1 -8 -1q-8 0 -12.5 6.5t-2.5 15.5z" />
<glyph unicode="&#x175;" horiz-adv-x="758" d="M88 404q4 22 37 22h140q9 0 14 -0.5t11 -6t4 -16.5q-3 -22 -36 -22h-56l37 -341h12l156 355q8 17 17.5 24t27.5 7q13 0 21 -5t10 -10.5t3 -14.5l39 -356h8l150 341h-56q-9 0 -14 0.5t-11 6t-5 16.5q4 22 37 22h140q8 0 13.5 -0.5t11 -6t3.5 -16.5q-3 -22 -35 -22h-42 l-157 -357q-6 -13 -15 -19.5t-15.5 -7.5t-19.5 -1q-26 0 -33 8t-9 35l-28 342h-5l-158 -371q-11 -14 -46 -14q-15 0 -21.5 1t-13 8t-8.5 21l-36 355h-42q-9 0 -14 0.5t-11 6t-5 16.5zM323 513q0 11 13 18l136 77q10 5 18 0l112 -77q13 -10 5 -24.5t-23 -14.5q-6 0 -10 3 l-100 67l-122 -67q-8 -3 -12 -3q-9 0 -14 6.5t-3 14.5z" />
<glyph unicode="&#x176;" horiz-adv-x="758" d="M127 589q4 22 37 22h160q9 0 14.5 -0.5t11 -6t3.5 -16.5q-3 -21 -36 -21h-42l153 -268l244 268h-42q-9 0 -14.5 0.5t-11 6t-4.5 15.5q4 22 37 22h160q9 0 14.5 -0.5t11 -6t3.5 -16.5q-3 -21 -36 -21h-54l-290 -322l-34 -201h65q9 0 14 -0.5t10.5 -6t4.5 -15.5 q-4 -22 -36 -22h-183q-8 0 -13.5 0.5t-11 6t-3.5 15.5q3 22 35 22h65l34 201l-182 322h-54q-9 0 -14.5 0.5t-11 6t-4.5 15.5zM349 665q2 15 16 19l129 44q7 2 14 0l115 -44q16 -6 8.5 -23.5t-21.5 -17.5q-5 0 -8 1l-109 35l-121 -35q-3 -1 -8 -1q-8 0 -12.5 6.5t-2.5 15.5z " />
<glyph unicode="&#x177;" horiz-adv-x="554" d="M-6 -160q7 36 43 36q14 0 23 -10t6 -26q-1 -4 -2.5 -9.5t-1.5 -6.5q-1 -6 6.5 -10.5t14.5 -4.5q32 0 60 13.5t46.5 35t28 36.5t16.5 30l34 67l-93 390h-48q-9 0 -14.5 0.5t-11 6t-4.5 16.5q4 22 37 22h144q9 0 14 -0.5t10.5 -6t3.5 -16.5q-3 -22 -35 -22h-53l78 -347 l171 347h-55q-8 0 -13.5 0.5t-11 6t-4.5 15.5q4 23 36 23h145q9 0 14.5 -0.5t10.5 -6t3 -16.5q-3 -22 -35 -22h-47l-241 -473q-29 -55 -81 -99t-114 -44q-40 0 -62.5 22t-17.5 53zM221 513q0 11 13 18l136 77q10 5 18 0l112 -77q13 -10 5 -24.5t-23 -14.5q-6 0 -10 3 l-100 67l-122 -67q-8 -3 -12 -3q-9 0 -14 6.5t-3 14.5z" />
<glyph unicode="&#x178;" horiz-adv-x="758" d="M127 589q4 22 37 22h160q9 0 14.5 -0.5t11 -6t3.5 -16.5q-3 -21 -36 -21h-42l153 -268l244 268h-42q-9 0 -14.5 0.5t-11 6t-4.5 15.5q4 22 37 22h160q9 0 14.5 -0.5t11 -6t3.5 -16.5q-3 -21 -36 -21h-54l-290 -322l-34 -201h65q9 0 14 -0.5t10.5 -6t4.5 -15.5 q-4 -22 -36 -22h-183q-8 0 -13.5 0.5t-11 6t-3.5 15.5q3 22 35 22h65l34 201l-182 322h-54q-9 0 -14.5 0.5t-11 6t-4.5 15.5zM354 680q2 14 15 25.5t29 11.5t25 -11t6 -26q-2 -15 -14.5 -26t-29.5 -11q-15 0 -24 11t-7 26zM557 680q2 14 15 25.5t29 11.5t25 -11t6 -26 q-2 -15 -14.5 -26t-29.5 -11q-15 0 -24 11t-7 26z" />
<glyph unicode="&#x179;" horiz-adv-x="642" d="M63 26q3 12 9 19l534 522h-384l-11 -64q-2 -11 -4 -16.5t-9 -11t-19 -5.5q-27 0 -20 33l12 75q4 20 11.5 26.5t27.5 6.5h441q10 0 15.5 -1t10.5 -7t3 -18q-2 -13 -9 -19l-534 -522h405l14 84q2 11 4 16.5t9 11t20 5.5q27 0 20 -33l-15 -95q-4 -20 -11.5 -26.5t-26.5 -6.5 h-464q-10 0 -15.5 1t-10.5 7t-3 18zM335 685q2 13 24 22l147 62l17 4q11 0 17.5 -7.5t4.5 -19.5q-2 -17 -27 -27l-155 -64q-6 -2 -8 -2q-13 0 -17 12t-3 20z" />
<glyph unicode="&#x17a;" horiz-adv-x="467" d="M37 27q0 6 4 16l368 338h-245l-6 -36q-2 -11 -4 -16.5t-9 -11t-20 -5.5q-26 0 -19 33l8 48q3 20 10.5 26.5t26.5 6.5h302q11 0 16.5 -1t10 -7t2.5 -19q-3 -13 -5 -16l-367 -339h263l9 49q4 33 32 33q16 0 20 -11t0 -22l-10 -60q-4 -20 -11 -26.5t-26 -6.5h-322 q-8 0 -12 0.5t-9.5 3t-7 8t0.5 15.5zM221 523q2 13 24 22l147 62l17 4q11 0 17.5 -7.5t4.5 -19.5q-2 -17 -27 -27l-155 -64q-6 -2 -8 -2q-13 0 -17 12t-3 20z" />
<glyph unicode="&#x17b;" horiz-adv-x="642" d="M63 26q3 12 9 19l534 522h-384l-11 -64q-2 -11 -4 -16.5t-9 -11t-19 -5.5q-27 0 -20 33l12 75q4 20 11.5 26.5t27.5 6.5h441q10 0 15.5 -1t10.5 -7t3 -18q-2 -13 -9 -19l-534 -522h405l14 84q2 11 4 16.5t9 11t20 5.5q27 0 20 -33l-15 -95q-4 -20 -11.5 -26.5t-26.5 -6.5 h-464q-10 0 -15.5 1t-10.5 7t-3 18zM394 696q3 17 17 29.5t33 12.5q17 0 27.5 -12.5t7.5 -29.5q-2 -16 -16.5 -29t-33.5 -13q-17 0 -27.5 12.5t-7.5 29.5z" />
<glyph unicode="&#x17c;" horiz-adv-x="467" d="M37 27q0 6 4 16l368 338h-245l-6 -36q-2 -11 -4 -16.5t-9 -11t-20 -5.5q-26 0 -19 33l8 48q3 20 10.5 26.5t26.5 6.5h302q11 0 16.5 -1t10 -7t2.5 -19q-3 -13 -5 -16l-367 -339h263l9 49q4 33 32 33q16 0 20 -11t0 -22l-10 -60q-4 -20 -11 -26.5t-26 -6.5h-322 q-8 0 -12 0.5t-9.5 3t-7 8t0.5 15.5zM283 551q2 16 16.5 29t33.5 13q17 0 27.5 -12.5t7.5 -29.5t-17 -29.5t-33 -12.5q-17 0 -27.5 12.5t-7.5 29.5z" />
<glyph unicode="&#x17d;" horiz-adv-x="642" d="M63 26q3 12 9 19l534 522h-384l-11 -64q-2 -11 -4 -16.5t-9 -11t-19 -5.5q-27 0 -20 33l12 75q4 20 11.5 26.5t27.5 6.5h441q10 0 15.5 -1t10.5 -7t3 -18q-2 -13 -9 -19l-534 -522h405l14 84q2 11 4 16.5t9 11t20 5.5q27 0 20 -33l-15 -95q-4 -20 -11.5 -26.5t-26.5 -6.5 h-464q-10 0 -15.5 1t-10.5 7t-3 18zM307 688q-16 6 -9 23.5t21 17.5q5 0 8 -1l109 -35l121 35q3 1 8 1q17 0 15.5 -18t-15.5 -23l-130 -44q-7 -2 -14 0z" />
<glyph unicode="&#x17e;" horiz-adv-x="467" d="M37 27q0 6 4 16l368 338h-245l-6 -36q-2 -11 -4 -16.5t-9 -11t-20 -5.5q-26 0 -19 33l8 48q3 20 10.5 26.5t26.5 6.5h302q11 0 16.5 -1t10 -7t2.5 -19q-3 -13 -5 -16l-367 -339h263l9 49q4 33 32 33q16 0 20 -11t0 -22l-10 -60q-4 -20 -11 -26.5t-26 -6.5h-322 q-8 0 -12 0.5t-9.5 3t-7 8t0.5 15.5zM196 572q-13 10 -5 24.5t23 14.5q5 0 10 -3l100 -67l122 67q7 3 12 3q9 0 14 -6.5t3 -14.5q0 -11 -13 -18l-136 -77q-10 -5 -18 0z" />
<glyph unicode="&#x17f;" horiz-adv-x="321" d="M26 22q3 22 35 22h65l57 337h-54q-8 0 -13.5 0.5t-11 6t-4.5 15.5q4 23 37 23h53l11 63q10 60 60 94t112 34q11 0 20.5 -1t27 -5t26.5 -16t6 -30q-3 -16 -15.5 -26t-25.5 -10q-38 0 -28 44q-23 0 -38 -2t-37.5 -9.5t-37 -27.5t-19.5 -51l-74 -439h90q9 0 14 -0.5t10.5 -6 t4.5 -15.5q-4 -22 -36 -22h-207q-9 0 -14 0.5t-10.5 6t-3.5 15.5z" />
<glyph unicode="&#x18e;" horiz-adv-x="700" d="M51 33l16 92q4 33 30 33q13 0 18.5 -5t5 -12.5t-1.5 -15.5l-14 -81h423l42 251h-224q-6 -36 -12 -47.5t-25 -11.5q-27 0 -20 33l16 96q4 33 31 33q19 0 22 -13t-4 -46h224l38 228h-393l-11 -64q-2 -11 -4 -16t-9 -11t-19 -6q-18 0 -22 10.5t1 22.5l12 75q4 19 11 26t27 7 h531q9 0 14 -0.5t10.5 -6t3.5 -16.5q-3 -21 -35 -21h-65l-88 -523h65q9 0 14 -0.5t10.5 -6t4.5 -15.5q-4 -22 -36 -22h-560q-20 0 -25 6.5t-2 26.5z" />
<glyph unicode="&#x192;" horiz-adv-x="321" d="M26 22q3 22 35 22h65l57 337h-54q-8 0 -13.5 0.5t-11 6t-4.5 15.5q4 23 37 23h53l11 63q10 60 60 94t112 34q11 0 20.5 -1t27 -5t26.5 -16t6 -30q-3 -16 -15.5 -26t-25.5 -10q-19 0 -25 15t-3 29q-23 0 -38 -2t-37.5 -9.5t-37 -27.5t-19.5 -51l-10 -57h93q9 0 14 -0.5 t10.5 -6t3.5 -16.5q-3 -22 -35 -22h-93l-57 -337h90q9 0 14 -0.5t10.5 -6t4.5 -15.5q-4 -22 -36 -22h-207q-9 0 -14 0.5t-10.5 6t-3.5 15.5z" />
<glyph unicode="&#x1a0;" horiz-adv-x="816" d="M108 305q10 63 47 121.5t92 102.5q119 93 264 93q82 0 156 -34q2 1 6 2q28 6 40 18q6 7 17 20q-36 13 -31 44q3 16 17 28.5t33 13.5q41 -1 32 -61q-10 -61 -70 -94l20 -18q69 -71 78 -160.5t-30.5 -166.5t-109.5 -132q-117 -93 -264 -93q-144 0 -232 93q-41 43 -58 101.5 t-7 121.5zM163 318q-20 -118 54 -202q75 -83 196 -83q123 0 223 83q42 34 72.5 81t45 99.5t2 107.5t-54.5 99q-75 75 -198 75q-122 0 -221 -75q-100 -75 -119 -185z" />
<glyph unicode="&#x1a1;" d="M75 212q15 87 90 154.5t168 67.5q55 0 106 -29q11 2 16 3.5t13 5.5t14.5 11t15.5 18q-35 14 -30 42q2 11 9 20.5t17.5 16t22.5 6.5q41 -1 32 -60q-10 -65 -72 -96q40 -51 43 -112t-22.5 -113t-70.5 -89q-77 -64 -167 -64q-91 0 -145 64q-54 65 -40 154zM130 222 q-8 -48 7.5 -90.5t50.5 -67.5t80 -25q69 0 128 54q24 21 41.5 51t26.5 63.5t3 69t-30 63.5q-43 49 -111 49q-70 0 -128 -50.5t-68 -116.5z" />
<glyph unicode="&#x1af;" horiz-adv-x="758" d="M160 567q-18 0 -16 19q1 20 18 24l5 1h207q19 0 15 -21q-4 -18 -18 -22l-4 -1h-77l-61 -366q-13 -71 33 -118q44 -50 122 -50q76 0 138 50q60 46 73 118l61 366h-77q-8 0 -12.5 6.5t-3.5 14.5q5 23 23 23h110q30 0 50 17q-30 18 -25 44q3 16 17 28.5t32 13.5 q23 -1 29.5 -18.5t2.5 -41.5q-5 -33 -31 -58t-64 -36l-59 -359q-15 -84 -86 -144q-86 -68 -186 -68q-98 0 -156 61q-59 64 -44 151l61 366h-77z" />
<glyph unicode="&#x1b0;" horiz-adv-x="583" d="M84 401q4 24 25 24h110q7 0 12 -6t4 -14l-51 -301q-4 -32 14 -48q25 -17 85 -17q58 0 102.5 29.5t52.5 72.5l39 239h-78q-7 0 -11.5 6t-3.5 15q4 24 23 24h111q32 0 58 16q-33 20 -28 44q3 17 17 30t32 13q42 0 33 -59q-6 -34 -33 -59t-68 -36l-55 -330h77q21 0 17 -23 q-6 -21 -24 -21h-111q-7 0 -12 6t-4 14l5 26q-66 -52 -154 -52q-76 0 -109 25q-36 27 -27 85l46 276h-77q-19 0 -17 21z" />
<glyph unicode="&#x1dd;" horiz-adv-x="467" d="M75 203q2 14 8.5 20.5t12 7.5t16.5 1h308q-1 73 -44 116t-106 43q-83 0 -126 -73q-8 -12 -25 -12q-5 0 -9.5 0.5t-10 5.5t-4.5 14q6 30 57.5 69.5t131.5 39.5q93 0 147 -64.5t39 -156.5q-15 -90 -86.5 -155t-157.5 -65q-88 0 -127.5 59t-23.5 150zM127 189 q-13 -151 106 -151q55 0 105 41t74 110h-285z" />
<glyph unicode="&#x1e6;" horiz-adv-x="817" d="M108 306q21 128 138 222t266 94q136 0 210 -69q19 32 44 64q5 5 15 5q21 0 16 -33l-24 -143q-1 -10 -3 -16t-9 -11.5t-20 -5.5q-20 0 -23 15q-1 22 -4 36.5t-18 37t-42 40.5q-56 36 -143 36q-128 0 -230 -80.5t-121 -192.5q-19 -111 56.5 -191.5t200.5 -80.5 q87 0 160 49.5t104 132.5h-102q-9 0 -14 0.5t-10.5 6t-3.5 16.5q3 22 35 22h198q9 0 14.5 -0.5t11 -6t4.5 -16.5q-4 -22 -37 -22h-42l-30 -182q-2 -11 -4 -16t-9 -11t-19 -6q-18 0 -22 10.5t1 22.5l9 59q-121 -103 -257 -103q-145 0 -231.5 93t-64.5 224zM395 688 q-16 6 -9 23.5t21 17.5q5 0 8 -1l109 -35l121 35q3 1 8 1q17 0 15.5 -18t-15.5 -23l-130 -44q-7 -2 -14 0z" />
<glyph unicode="&#x1e7;" d="M15 -94q14 78 102 125q-21 38 -15 77q7 40 35 71q-29 44 -20 97q11 63 65.5 109.5t121.5 46.5q50 0 95 -33q59 38 115 38q33 0 47 -14.5t11 -31.5q-3 -16 -14 -24.5t-23 -8.5q-5 0 -10 2.5t-10.5 11t-6.5 21.5q-45 -4 -84 -24q27 -67 8 -122t-70 -91t-110 -36 q-51 0 -92 30q-14 -24 -18 -43q-3 -26 7 -43q13 -18 37 -18q8 -2 30 -2h73q97 0 141 -29q30 -17 41 -47.5t6 -61.5q-10 -61 -84 -101.5t-170 -40.5t-157 40t-51 102zM56 -94q-6 -38 44.5 -68.5t129.5 -30.5t139.5 30.5t66.5 68.5q4 23 -2 40t-22 27.5t-33.5 17t-45.5 9 t-48 3.5t-50 1q-43 0 -60.5 -1t-29.5 -4.5t-28 -12.5q-28 -15 -42.5 -37.5t-18.5 -42.5zM170 275q-8 -46 18 -79t71 -33q29 0 56.5 15t46.5 41t24 57q8 46 -18 79t-71 33q-44 0 -81.5 -33t-45.5 -80zM189 572q-13 10 -5 24.5t23 14.5q5 0 10 -3l100 -67l122 67q7 3 12 3 q9 0 14 -6.5t3 -14.5q0 -11 -13 -18l-136 -77q-10 -5 -18 0z" />
<glyph unicode="&#x1ea;" horiz-adv-x="817" d="M108 306q21 128 139 222t265 94t233.5 -93t64.5 -224q-21 -121 -125.5 -212t-243.5 -104q-69 -46 -81 -112q-3 -21 12.5 -35t34.5 -14q33 0 69 41q18 12 27 4q11 -11 0 -24q-53 -58 -106 -58q-42 0 -63 27.5t-15 60.5q9 55 77 109q-150 10 -229.5 100.5t-58.5 217.5z M162 317q-20 -116 53.5 -200t198.5 -84q124 0 225 84t121 200q18 107 -56.5 184t-199.5 77q-124 0 -224 -77t-118 -184z" />
<glyph unicode="&#x1eb;" d="M76 213q15 91 90.5 156.5t168.5 65.5q92 0 146 -65.5t39 -156.5q-14 -84 -79.5 -145.5t-150.5 -71.5q-76 -45 -90 -119q-3 -21 12 -35t34 -14q16 0 36 13t34 28q19 12 27 4q10 -10 -1 -24q-51 -58 -106 -58q-42 0 -62.5 27.5t-14.5 60.5q9 59 86 114q-92 13 -137.5 74 t-31.5 146zM130 220q-13 -74 27 -128t111 -54q70 0 128.5 54t71.5 128q12 73 -30 122t-111 49t-127 -49t-70 -122z" />
<glyph unicode="&#x1f4;" horiz-adv-x="817" d="M108 306q21 128 138 222t266 94q136 0 210 -69q19 32 44 64q5 5 15 5q21 0 16 -33l-24 -143q-1 -10 -3 -16t-9 -11.5t-20 -5.5q-20 0 -23 15q-1 22 -4 36.5t-18 37t-42 40.5q-56 36 -143 36q-128 0 -230 -80.5t-121 -192.5q-19 -111 56.5 -191.5t200.5 -80.5 q87 0 160 49.5t104 132.5h-102q-9 0 -14 0.5t-10.5 6t-3.5 16.5q3 22 35 22h198q9 0 14.5 -0.5t11 -6t4.5 -16.5q-4 -22 -37 -22h-42l-30 -182q-2 -11 -4 -16t-9 -11t-19 -6q-18 0 -22 10.5t1 22.5l9 59q-121 -103 -257 -103q-145 0 -231.5 93t-64.5 224zM423 685 q2 13 24 22l147 62l17 4q11 0 17.5 -7.5t4.5 -19.5q-2 -17 -27 -27l-155 -64q-6 -2 -8 -2q-13 0 -17 12t-3 20z" />
<glyph unicode="&#x1f5;" d="M15 -94q14 78 102 125q-21 38 -15 77q7 40 35 71q-29 44 -20 97q11 63 65.5 109.5t121.5 46.5q50 0 95 -33q59 38 115 38q33 0 47 -14.5t11 -31.5q-3 -16 -14 -24.5t-23 -8.5q-5 0 -10 2.5t-10.5 11t-6.5 21.5q-45 -4 -84 -24q27 -67 8 -122t-70 -91t-110 -36 q-51 0 -92 30q-14 -24 -18 -43q-3 -26 7 -43q13 -18 37 -18q8 -2 30 -2h73q97 0 141 -29q30 -17 41 -47.5t6 -61.5q-10 -61 -84 -101.5t-170 -40.5t-157 40t-51 102zM56 -94q-6 -38 44.5 -68.5t129.5 -30.5t139.5 30.5t66.5 68.5q4 23 -2 40t-22 27.5t-33.5 17t-45.5 9 t-48 3.5t-50 1q-43 0 -60.5 -1t-29.5 -4.5t-28 -12.5q-28 -15 -42.5 -37.5t-18.5 -42.5zM170 275q-8 -46 18 -79t71 -33q29 0 56.5 15t46.5 41t24 57q8 46 -18 79t-71 33q-44 0 -81.5 -33t-45.5 -80zM214 523q1 6 5 10.5t7.5 6.5t11.5 5l147 62l17 4q11 0 17.5 -7.5 t4.5 -19.5q-2 -17 -27 -27l-155 -64q-6 -2 -8 -2q-9 0 -14 7t-6 14t0 11z" />
<glyph unicode="&#x1fa;" horiz-adv-x="758" d="M44 23q3 21 35 21h54l289 551q15 28 51 28h9q-43 0 -73 22t-26 46t40.5 46t82.5 22q43 0 73 -22t26 -46t-40.5 -46t-82.5 -22h10q12 0 18 -1t13.5 -7.5t9.5 -20.5l105 -550h54q9 0 14 -0.5t10.5 -6t4.5 -15.5q-4 -22 -36 -22h-164q-9 0 -14 0.5t-11 6t-4 16.5q3 21 36 21 h55l-25 133h-299l-71 -133h55q9 0 14 -0.5t11 -6t5 -15.5q-4 -22 -37 -22h-164q-9 0 -14 0.5t-10.5 6t-3.5 16.5zM282 222h267l-69 357h-11zM414 811q2 13 24 22l147 62l17 4q11 0 17.5 -7.5t4.5 -19.5q-2 -17 -27 -27l-155 -64q-6 -2 -8 -2q-13 0 -17 12t-3 20zM426 691 q-2 -16 16 -27.5t46 -11.5q26 0 48.5 11.5t25.5 27.5t-15 27.5t-46 11.5q-26 0 -49 -11.5t-26 -27.5z" />
<glyph unicode="&#x1fb;" horiz-adv-x="510" d="M77 123q11 67 96 104.5t228 39.5q10 64 -21 94t-95 30q-65 0 -68 -22q-8 -38 -43 -38q-16 0 -25 10t-5 28q11 66 148 66q94 0 134 -45t30 -106l-38 -228q24 -12 64 -12q9 0 14 -0.5t10.5 -5.5t4.5 -15q-2 -11 -9.5 -16t-14.5 -6t-21 -1q-26 0 -41 1.5t-32.5 10 t-26.5 25.5q-66 -43 -155 -43q-69 0 -106 38t-28 91zM130 123q-6 -34 20.5 -59.5t75.5 -25.5q53 0 93 17q23 10 36.5 24t16.5 23t6 27l16 96q-126 -4 -192 -33.5t-72 -68.5zM237 560q4 24 41 46t83 22q43 0 73 -22t25 -46q-4 -24 -40.5 -46t-82.5 -22q-43 0 -73 22t-26 46z M268 680q3 13 24 22l147 62l17 4q11 0 17.5 -7.5t5.5 -19.5q-4 -17 -28 -27l-155 -64q-6 -2 -8 -2q-13 0 -17 12t-3 20zM280 560q-2 -16 16 -27.5t46 -11.5q26 0 49 11.5t25 27.5q3 16 -15 27.5t-46 11.5q-26 0 -49 -11.5t-26 -27.5z" />
<glyph unicode="&#x1fc;" horiz-adv-x="933" d="M44 23q3 21 36 21h55l317 523h-32q-9 0 -14 0.5t-11 5.5t-5 15q4 23 37 23h520q20 0 25 -7t1 -26l-12 -75q-2 -11 -4 -16.5t-9 -11t-20 -5.5q-26 0 -19 33l11 64h-294l-38 -228h170q4 27 6.5 36.5t9.5 16t20 6.5q16 0 20 -11t0 -22l-16 -96q-2 -11 -4 -16t-8.5 -11 t-18.5 -6q-19 0 -21.5 13t4.5 46h-170l-42 -251h323l14 81q4 33 32 33q12 0 17.5 -5t5 -12.5t-1.5 -15.5l-15 -92q-4 -20 -11.5 -26.5t-26.5 -6.5h-437q-9 0 -14 0.5t-11 6t-4 15.5q3 22 36 22h40l25 145h-230l-88 -145h52q9 0 14.5 -0.5t10.5 -6t4 -15.5q-4 -22 -36 -22 h-164q-9 0 -14.5 0.5t-11 6t-3.5 16.5zM306 233h211l56 334h-63zM481 685q2 13 24 22l147 62l17 4q11 0 17.5 -7.5t4.5 -19.5q-2 -17 -27 -27l-155 -64q-6 -2 -8 -2q-13 0 -17 12t-3 20z" />
<glyph unicode="&#x1fd;" horiz-adv-x="758" d="M71 112q19 118 321 126l6 40q10 55 -20.5 84t-96.5 29q-8 0 -40 -2q-13 -1 -18.5 -4t-7 -5.5t-2.5 -10.5q-8 -38 -43 -38q-16 0 -25 10t-5 28q11 66 148 66q121 0 161 -89q89 89 180 89q82 0 118 -58t20 -150q-2 -14 -8 -21t-11.5 -8t-17.5 -1h-292q-1 -73 41.5 -116 t104.5 -43q72 0 113 72q8 13 27 13q5 0 9 -0.5t9.5 -5.5t3.5 -14q-5 -29 -53.5 -69t-121.5 -40q-101 0 -163 89q-57 -89 -201 -89q-70 0 -107.5 35t-28.5 83zM124 113q-5 -31 22.5 -53t76.5 -22q52 0 93 16q53 20 61 68l9 73q-101 -3 -152 -15q-103 -29 -110 -67zM367 523 q2 13 24 22l147 62l17 4q11 0 17.5 -7.5t4.5 -19.5q-2 -17 -27 -27l-155 -64q-6 -2 -8 -2q-13 0 -17 12t-3 20zM446 240h270q7 68 -15.5 109.5t-79.5 41.5q-51 0 -100.5 -41t-74.5 -110z" />
<glyph unicode="&#x1fe;" horiz-adv-x="817" d="M106 -65q1 7 18 26l82 90q-123 103 -98 255q21 128 139 222t265 94q33 0 73 -9.5t61.5 -17.5t31.5 -13l89 101q13 16 25 16q8 0 14.5 -6.5t5.5 -16.5q-3 -8 -14 -20l-86 -96q123 -103 98 -255q-21 -128 -139 -222t-265 -94q-93 0 -165 40l-92 -103q-13 -14 -23 -14 q-8 0 -14.5 6.5t-5.5 16.5zM147 305q-11 -66 14 -123t75 -96l409 461q-77 31 -141 31q-131 0 -234.5 -80.5t-122.5 -192.5zM272 64q78 -31 142 -31q131 0 234.5 80.5t122.5 192.5q11 68 -14.5 125t-75.5 94zM423 685q2 13 24 22l147 62l17 4q11 0 17.5 -7.5t4.5 -19.5 q-2 -17 -27 -27l-155 -64q-6 -2 -8 -2q-13 0 -17 12t-3 20z" />
<glyph unicode="&#x1ff;" d="M25 -123q4 12 22 35l93 124q-74 75 -56 177q15 91 88.5 156.5t162.5 65.5q40 0 88 -21l105 141q11 15 22 15q8 0 14.5 -6t4.5 -16q-1 -7 -8 -17l-105 -140q72 -79 56 -178q-16 -91 -89.5 -155t-161.5 -64q-44 0 -86 20l-113 -150q-6 -8 -17 -8q-7 0 -14 6t-6 15zM123 213 q-14 -76 44 -140l227 304q-38 14 -67 14q-72 0 -132 -52.5t-72 -125.5zM203 50q36 -12 65 -12q72 0 132 51t73 124q12 81 -45 140zM245 523q2 13 24 22l147 62l17 4q11 0 17.5 -7.5t4.5 -19.5q-2 -17 -27 -27l-155 -64q-6 -2 -8 -2q-13 0 -17 12t-3 20z" />
<glyph unicode="&#x200;" horiz-adv-x="758" d="M44 23q3 21 35 21h54l289 551q15 28 51 28h19q12 0 18 -1t13.5 -7.5t9.5 -20.5l105 -550h54q9 0 14 -0.5t10.5 -6t4.5 -15.5q-4 -22 -36 -22h-164q-9 0 -14 0.5t-11 6t-4 16.5q3 21 36 21h55l-25 133h-299l-71 -133h55q9 0 14 -0.5t11 -6t5 -15.5q-4 -22 -37 -22h-164 q-9 0 -14 0.5t-10.5 6t-3.5 16.5zM282 222h267l-69 357h-11zM289 744q5 27 30 27q9 0 20 -10l62 -58q12 -11 11 -21q-2 -9 -12 -19t-20 -10q-8 0 -17 9l-62 58q-14 12 -12 24zM500 744q5 27 31 27q9 0 19 -10l63 -58q12 -12 11 -21q-2 -9 -12 -19t-21 -10q-7 0 -17 9l-62 58 q-14 12 -12 24z" />
<glyph unicode="&#x201;" horiz-adv-x="510" d="M77 123q11 67 96 104.5t228 39.5q10 64 -21 94t-95 30q-65 0 -68 -22q-8 -38 -43 -38q-16 0 -25 10t-5 28q11 66 148 66q94 0 134 -45t30 -106l-38 -228q24 -12 64 -12q9 0 14 -0.5t10.5 -5.5t4.5 -15q-2 -11 -9.5 -16t-14.5 -6t-21 -1q-26 0 -41 1.5t-32.5 10 t-26.5 25.5q-66 -43 -155 -43q-69 0 -106 38t-28 91zM130 123q-6 -34 20.5 -59.5t75.5 -25.5q53 0 93 17q23 10 36.5 24t16.5 23t6 27l16 96q-126 -4 -192 -33.5t-72 -68.5zM167 583q5 27 31 27q8 0 19 -10l62 -58q12 -11 11 -21q-2 -9 -12 -19t-20 -10q-8 0 -16 9l-63 58 q-14 12 -12 24zM378 583q5 27 32 27q8 0 18 -10l63 -58q12 -12 11 -21q-2 -9 -12 -19t-21 -10q-7 0 -16 9l-63 58q-14 12 -12 24z" />
<glyph unicode="&#x204;" horiz-adv-x="700" d="M50 22q3 22 35 22h65l88 523h-65q-9 0 -14 0.5t-10.5 5.5t-4.5 15q4 23 36 23h531q20 0 25 -7t1 -26l-12 -75q-2 -11 -4 -16.5t-9 -11t-20 -5.5q-27 0 -20 33l11 64h-393l-38 -228h224q4 27 6.5 36.5t9.5 16t20 6.5q12 0 17.5 -5t5 -12.5t-1.5 -15.5l-16 -96 q-2 -11 -4 -16t-9 -11t-19 -6q-19 0 -21.5 13t4.5 46h-224l-42 -251h423l14 81q4 33 32 33q17 0 20.5 -11t-0.5 -22l-15 -92q-4 -20 -11 -26.5t-27 -6.5h-560q-9 0 -14 0.5t-10.5 6t-3.5 15.5zM289 744q5 27 30 27q9 0 20 -10l62 -58q12 -11 11 -21q-2 -9 -12 -19t-20 -10 q-8 0 -17 9l-62 58q-14 12 -12 24zM500 744q5 27 31 27q9 0 19 -10l63 -58q12 -12 11 -21q-2 -9 -12 -19t-21 -10q-7 0 -17 9l-62 58q-14 12 -12 24z" />
<glyph unicode="&#x205;" horiz-adv-x="467" d="M77 215q15 90 86.5 155t157.5 65q88 0 127 -58.5t24 -150.5q-2 -14 -8.5 -20.5t-12 -7.5t-16.5 -1h-308q0 -73 43 -116t106 -43q84 0 127 73q7 12 25 12q5 0 9.5 -0.5t10 -5.5t3.5 -14q-5 -29 -56.5 -69t-131.5 -40q-93 0 -147 64.5t-39 156.5zM135 240h285 q13 151 -107 151q-55 0 -104.5 -41t-73.5 -110zM145 583q5 27 31 27q8 0 19 -10l62 -58q12 -11 11 -21q-2 -9 -12 -19t-20 -10q-8 0 -16 9l-63 58q-14 12 -12 24zM356 583q5 27 32 27q8 0 18 -10l63 -58q12 -12 11 -21q-2 -9 -12 -19t-21 -10q-7 0 -16 9l-63 58 q-14 12 -12 24z" />
<glyph unicode="&#x208;" horiz-adv-x="350" d="M50 22q3 22 35 22h70l88 523h-70q-8 0 -13.5 0.5t-11 5.5t-4.5 15q4 23 36 23h193q9 0 14 -0.5t10.5 -6t3.5 -16.5q-3 -21 -35 -21h-70l-88 -523h70q9 0 14 -0.5t10.5 -6t4.5 -15.5q-4 -22 -36 -22h-193q-8 0 -13.5 0.5t-11 6t-3.5 15.5zM114 744q5 27 30 27q9 0 20 -10 l62 -58q12 -11 11 -21q-2 -9 -12 -19t-20 -10q-8 0 -17 9l-62 58q-14 12 -12 24zM325 744q5 27 31 27q9 0 19 -10l63 -58q12 -12 11 -21q-2 -9 -12 -19t-21 -10q-7 0 -17 9l-62 58q-14 12 -12 24z" />
<glyph unicode="&#x209;" horiz-adv-x="292" d="M26 22q3 22 35 22h65l57 337h-60q-9 0 -14 0.5t-11 6t-5 16.5q4 22 37 22h81q20 0 25 -7t2 -26l-59 -349h54q9 0 14.5 -0.5t11 -6t4.5 -15.5q-4 -22 -36 -22h-173q-8 0 -13.5 0.5t-11 6t-3.5 15.5zM57 583q5 27 31 27q8 0 19 -10l62 -58q12 -11 11 -21q-2 -9 -12 -19 t-20 -10q-8 0 -16 9l-63 58q-14 12 -12 24zM268 583q5 27 32 27q8 0 18 -10l63 -58q12 -12 11 -21q-2 -9 -12 -19t-21 -10q-7 0 -16 9l-63 58q-14 12 -12 24z" />
<glyph unicode="&#x20c;" horiz-adv-x="817" d="M108 306q21 128 139 222t265 94t233.5 -93t64.5 -224q-21 -128 -139 -222t-265 -94t-233.5 93t-64.5 224zM162 317q-20 -116 53.5 -200t198.5 -84q124 0 225 84t121 200q18 107 -56.5 184t-199.5 77q-124 0 -224 -77t-118 -184zM347 744q5 27 30 27q9 0 20 -10l62 -58 q12 -11 11 -21q-2 -9 -12 -19t-20 -10q-8 0 -17 9l-62 58q-14 12 -12 24zM558 744q5 27 31 27q9 0 19 -10l63 -58q12 -12 11 -21q-2 -9 -12 -19t-21 -10q-7 0 -17 9l-62 58q-14 12 -12 24z" />
<glyph unicode="&#x20d;" d="M76 213q15 91 90.5 156.5t168.5 65.5q92 0 146 -65.5t39 -156.5q-16 -91 -91.5 -155t-167.5 -64t-146.5 64t-38.5 155zM130 220q-13 -74 27 -128t111 -54q70 0 128.5 54t71.5 128q12 73 -30 122t-111 49t-127 -49t-70 -122zM174 583q5 27 31 27q8 0 19 -10l62 -58 q12 -11 11 -21q-2 -9 -12 -19t-20 -10q-8 0 -16 9l-63 58q-14 12 -12 24zM385 583q5 27 32 27q8 0 18 -10l63 -58q12 -12 11 -21q-2 -9 -12 -19t-21 -10q-7 0 -16 9l-63 58q-14 12 -12 24z" />
<glyph unicode="&#x210;" horiz-adv-x="758" d="M49 22q3 22 35 22h65l88 523h-65q-8 0 -13.5 0.5t-11 5.5t-4.5 15q4 23 36 23h276q110 0 182.5 -47.5t61.5 -116.5q-14 -83 -155 -139q50 -28 63 -54q11 -20 11 -37t-8 -60q-5 -31 -6 -49.5t1.5 -37.5t15 -28t34.5 -9t40.5 14t23.5 41q3 22 28 22q7 0 11 -0.5t9 -6 t4 -15.5q-7 -37 -42 -68t-82 -31q-60 0 -85 42q-14 24 -14 51.5t8 69.5q10 50 6 69t-34 38q-46 24 -130 24h-156l-40 -239h64q9 0 14.5 -0.5t10.5 -6t4 -15.5q-4 -22 -36 -22h-182q-8 0 -13.5 0.5t-11 6t-3.5 15.5zM250 328h149q89 0 164 34.5t84 84.5q8 50 -55.5 85 t-152.5 35h-149zM289 744q5 27 30 27q9 0 20 -10l62 -58q12 -11 11 -21q-2 -9 -12 -19t-20 -10q-8 0 -17 9l-62 58q-14 12 -12 24zM500 744q5 27 31 27q9 0 19 -10l63 -58q12 -12 11 -21q-2 -9 -12 -19t-21 -10q-7 0 -17 9l-62 58q-14 12 -12 24z" />
<glyph unicode="&#x211;" horiz-adv-x="408" d="M25 22q3 22 35 22h64l57 337h-64q-9 0 -14 0.5t-10.5 6t-4.5 15.5q4 23 36 23h85q23 0 26 -14t-6 -59q82 79 149 79q31 0 46.5 -17t12.5 -38q-3 -16 -14.5 -25.5t-25.5 -9.5q-13 0 -22.5 9.5t-4.5 35.5q-67 -7 -111.5 -65.5t-57.5 -137.5l-24 -140h90q9 0 14 -0.5 t10.5 -6t4.5 -15.5q-4 -22 -36 -22h-207q-9 0 -14 0.5t-10.5 6t-3.5 15.5zM116 583q5 27 31 27q8 0 19 -10l62 -58q12 -11 11 -21q-2 -9 -12 -19t-20 -10q-8 0 -16 9l-63 58q-14 12 -12 24zM327 583q5 27 32 27q8 0 18 -10l63 -58q12 -12 11 -21q-2 -9 -12 -19t-21 -10 q-7 0 -16 9l-63 58q-14 12 -12 24z" />
<glyph unicode="&#x214;" horiz-adv-x="758" d="M143 588q4 23 36 23h182q9 0 14.5 -0.5t10.5 -6t3 -16.5q-3 -21 -35 -21h-64l-60 -358q-14 -84 35 -130t120 -46q68 0 133 45.5t79 130.5l60 358h-65q-8 0 -13 0.5t-10.5 5.5t-4.5 15q4 23 35 23h183q9 0 14 -0.5t10.5 -6t3.5 -16.5q-3 -21 -35 -21h-65l-61 -364 q-16 -91 -95 -152.5t-178 -61.5q-97 0 -156 61t-44 153l61 364h-65q-8 0 -13.5 0.5t-11 5.5t-4.5 15zM341 744q5 27 30 27q9 0 20 -10l62 -58q12 -11 11 -21q-2 -9 -12 -19t-20 -10q-8 0 -17 9l-62 58q-14 12 -12 24zM552 744q5 27 31 27q9 0 19 -10l63 -58q12 -12 11 -21 q-2 -9 -12 -19t-21 -10q-7 0 -17 9l-62 58q-14 12 -12 24z" />
<glyph unicode="&#x215;" horiz-adv-x="583" d="M85 403q4 23 36 23h85q20 0 25 -7t2 -26l-47 -278q-4 -13 -3 -26.5t7 -25t27.5 -18.5t58.5 -7q20 0 40.5 3.5t48.5 14t48.5 35.5t26.5 61l39 229h-65q-9 0 -14.5 0.5t-10.5 6t-4 16.5q4 22 36 22h85q20 0 25 -7t2 -26l-59 -349h65q9 0 14 -0.5t10.5 -6t4.5 -15.5 q-4 -22 -36 -22h-85q-10 0 -14.5 1.5t-10 12t0.5 32.5q-76 -52 -160 -52q-26 0 -46 3t-44.5 13.5t-35 35.5t-4.5 63l46 272h-65q-9 0 -14 0.5t-10.5 6t-4.5 15.5zM203 583q5 27 31 27q8 0 19 -10l62 -58q12 -11 11 -21q-2 -9 -12 -19t-20 -10q-8 0 -16 9l-63 58 q-14 12 -12 24zM414 583q5 27 32 27q8 0 18 -10l63 -58q12 -12 11 -21q-2 -9 -12 -19t-21 -10q-7 0 -16 9l-63 58q-14 12 -12 24z" />
<glyph unicode="&#x218;" horiz-adv-x="583" d="M64 22l22 136q2 11 4 16t9 11t20 6q10 0 15.5 -4t6 -8t0.5 -12v-2q-4 -37 6 -60t38 -42q48 -30 138 -30q71 0 119.5 38t56.5 87q4 21 -1.5 41t-13.5 29l-7 10q-21 21 -39 28t-70 19l-44 9q-54 12 -74.5 17.5t-42.5 17t-39 29.5q-41 45 -31 105q11 64 76 111.5t154 47.5 q102 0 161 -59q20 39 27.5 49t18.5 10q21 0 16 -33l-22 -136q-2 -11 -4 -16t-9 -11t-20 -6q-10 0 -15.5 4t-6 8t-1.5 14q-2 132 -154 132q-67 0 -115.5 -33.5t-55.5 -77.5q-8 -45 24.5 -72.5t66.5 -34.5l147 -32q64 -14 99 -60.5t25 -105.5q-11 -69 -76.5 -121t-158.5 -52 q-124 0 -189 55q-19 -36 -26.5 -45.5t-18.5 -9.5q-21 0 -16 33zM220 -204q0 1 10 14q18 13 29.5 28t14.5 24t7 26q-17 1 -25 9t-8.5 12t-0.5 10q2 12 12 20t22 8q39 0 29 -59q-7 -42 -34 -74t-43 -32q-6 0 -10 4.5t-3 9.5z" />
<glyph unicode="&#x219;" horiz-adv-x="414" d="M44 27l16 99q2 11 4 16t9 11t20 6q18 0 22 -14q3 -24 7 -39.5t14 -33t30 -26t50 -8.5q12 0 27 2t40 8.5t44 25t23 46.5q5 31 -17.5 50.5t-56.5 28.5l-11 2q-34 6 -52.5 10.5t-47 14.5t-43 21.5t-24 31t-5.5 43.5q3 17 12.5 34t28.5 36t56 31t86 12q54 0 93 -25 q13 25 29 25q22 0 16 -33l-12 -71q-1 -10 -3 -16t-9 -11.5t-20 -5.5q-22 0 -22 18q3 11 0.5 24t-8.5 24.5t-25 19t-49 7.5q-59 0 -91.5 -19.5t-37.5 -49.5q-6 -31 26 -46.5t104 -29.5q14 -2 27 -5.5t35 -13t36.5 -22t24 -35t4.5 -50.5q-8 -49 -53.5 -87.5t-132.5 -38.5 q-67 0 -111 42q-16 -42 -37 -42q-24 0 -16 33zM136 -204q0 1 10 14q18 13 29.5 28t14.5 24t7 26q-17 1 -25 9t-8.5 12t-0.5 10q2 12 12 20t22 8q39 0 29 -59q-7 -42 -34 -74t-43 -32q-6 0 -10 4.5t-3 9.5z" />
<glyph unicode="&#x21a;" horiz-adv-x="758" d="M121 503l12 75q4 20 11.5 26.5t27.5 6.5h618q20 0 25 -7t1 -26l-12 -75q-2 -11 -4 -16.5t-9 -11t-20 -5.5q-27 0 -20 33l11 64h-262l-88 -523h105q9 0 14.5 -0.5t11 -6t4.5 -15.5q-4 -22 -37 -22h-263q-9 0 -14.5 0.5t-11 6t-3.5 16.5q3 21 36 21h105l88 523h-263 l-11 -64q-2 -11 -4 -16.5t-9 -11t-19 -5.5q-27 0 -20 33zM308 -204q0 1 10 14q18 13 29.5 28t14.5 24t7 26q-17 1 -25 9t-8.5 12t-0.5 10q2 12 12 20t22 8q39 0 29 -59q-7 -42 -34 -74t-43 -32q-6 0 -10 4.5t-3 9.5z" />
<glyph unicode="&#x21b;" horiz-adv-x="408" d="M90 403q4 23 37 23h61l16 93q1 10 3 16t9 11.5t20 5.5q12 0 17.5 -5t5 -12.5t-1.5 -15.5l-16 -93h124q9 0 14 -0.5t10.5 -6t3.5 -16.5q-3 -22 -35 -22h-124l-43 -257q-17 -86 45 -86q25 0 47.5 21.5t28.5 61.5q2 8 2.5 11t4 9t9 8t14.5 2q13 0 18.5 -5t5 -12t-1.5 -14 q-9 -54 -49.5 -90t-89.5 -36q-42 0 -70.5 29t-17.5 94l44 264h-62q-9 0 -14 0.5t-10.5 6t-4.5 15.5zM133 -204q0 1 10 14q18 13 29.5 28t14.5 24t7 26q-17 1 -25 9t-8.5 12t-0.5 10q2 12 12 20t22 8q39 0 29 -59q-7 -42 -34 -74t-43 -32q-6 0 -10 4.5t-3 9.5z" />
<glyph unicode="&#x258;" horiz-adv-x="467" d="M58 103q4 20 31 20q17 0 21 -12q19 -73 101 -73q63 0 120.5 43t82.5 116h-308q-8 0 -12 0.5t-10 3t-5.5 8.5t0.5 17q15 91 74 150t147 59q86 0 135.5 -65t34.5 -155q-15 -92 -91 -156.5t-169 -64.5q-43 0 -75.5 13.5t-48.5 32t-23 35.5t-5 28zM135 240h285q-1 69 -37 110 t-91 41q-119 0 -157 -151z" />
<glyph unicode="&#x259;" horiz-adv-x="467" d="M75 203q2 14 8.5 20.5t12 7.5t16.5 1h308q-1 73 -44 116t-106 43q-83 0 -126 -73q-8 -12 -25 -12q-5 0 -9.5 0.5t-10 5.5t-4.5 14q6 30 57.5 69.5t131.5 39.5q93 0 147 -64.5t39 -156.5q-15 -90 -86.5 -155t-157.5 -65q-88 0 -127.5 59t-23.5 150zM127 189 q-13 -151 106 -151q55 0 105 41t74 110h-285z" />
<glyph unicode="&#x2be;" horiz-adv-x="405" d="M116 297q2 15 13.5 24.5t25.5 9.5q31 0 25 -36q0 -2 4 -4t12 -2.5t13.5 -0.5h14.5q35 0 63 13.5t43.5 34.5t24 39t11.5 34q9 50 -20 85t-77 35q-56 0 -85 -51q-9 -10 -23 -10q-5 0 -9 1t-9 5.5t-4 13.5q2 7 9.5 19t23 28t44.5 27t65 11q69 0 107 -48.5t27 -115.5 q-9 -59 -60.5 -112t-137.5 -53q-17 0 -31.5 1.5t-34 6t-29 16t-6.5 29.5z" />
<glyph unicode="&#x2bf;" horiz-adv-x="405" d="M126 408q4 26 18 53t37.5 53t61 42.5t82.5 16.5q17 0 31.5 -1.5t33.5 -6t29 -16t7 -29.5q-3 -15 -14.5 -24.5t-25.5 -9.5q-31 0 -25 36q0 2 -4 4t-12 2.5t-13.5 0.5h-14.5q-35 0 -63 -13.5t-43.5 -34.5t-24 -39t-11.5 -34q-8 -50 20.5 -85t76.5 -35q54 0 86 51 q8 10 22 10q5 0 9 -1t9 -5.5t4 -13.5q-1 -7 -9 -19t-23 -28t-44 -27t-65 -11q-69 0 -107.5 48.5t-27.5 115.5z" />
<glyph unicode="&#x2c6;" d="M206 513q0 11 13 18l136 77q10 5 18 0l112 -77q13 -10 5 -24.5t-23 -14.5q-6 0 -10 3l-100 67l-122 -67q-7 -3 -12 -3q-9 0 -14 6.5t-3 14.5z" />
<glyph unicode="&#x2c7;" d="M225 572q-13 10 -5 24.5t23 14.5q5 0 10 -3l100 -67l122 67q7 3 12 3q9 0 14 -6.5t3 -14.5q0 -11 -13 -18l-136 -77q-10 -5 -18 0z" />
<glyph unicode="&#x2d8;" d="M187 577q5 23 27 23q13 0 17 -12q2 -39 124 -39q120 0 136 39q8 12 21 12q24 0 19 -23q-4 -26 -23 -43t-51.5 -23t-53.5 -7.5t-56 -1.5t-55.5 1.5t-51 7.5t-44 23t-9.5 43z" />
<glyph unicode="&#x2d9;" horiz-adv-x="292" d="M195 551q2 16 16.5 29t33.5 13q17 0 27.5 -12.5t7.5 -29.5t-17 -29.5t-33 -12.5q-17 0 -27.5 12.5t-7.5 29.5z" />
<glyph unicode="&#x2da;" horiz-adv-x="798" d="M381 560q4 24 41 46t83 22q43 0 73 -22t25 -46q-4 -24 -40.5 -46t-82.5 -22q-43 0 -73 22t-26 46zM424 560q-2 -16 16 -27.5t46 -11.5q26 0 49 11.5t25 27.5q3 16 -15 27.5t-46 11.5q-26 0 -49 -11.5t-26 -27.5z" />
<glyph unicode="&#x2db;" d="M147 -121q5 32 31.5 62t61.5 51h30q-69 -40 -82 -115q-3 -21 12.5 -35t34.5 -14q16 0 36 13t34 28q13 10 26 4q3 -4 3.5 -11.5t-3.5 -12.5q-53 -58 -106 -58q-42 0 -63 27.5t-15 60.5z" />
<glyph unicode="&#x2dc;" d="M179 522q3 15 55 50q50 32 81 32q22 0 44 -18q2 -2 5 -6q32 -31 42 -33q27 0 86 48q14 9 20 9q9 0 15 -7.5t4 -16.5q-3 -14 -55 -49q-50 -32 -81 -32q-24 0 -44 18q-15 17 -21.5 23.5t-13 10.5t-12.5 4q-28 0 -86 -47q-11 -9 -20 -9t-15 7.5t-4 15.5z" />
<glyph unicode="&#x2dd;" d="M190 521q1 9 17 21l83 58q13 10 22 10q12 0 18 -7.5t4 -19.5t-20 -24l-81 -58q-14 -9 -20 -9q-11 0 -18 10t-5 19zM402 521q1 10 17 21l82 58q14 10 23 10q11 0 17 -7.5t4 -19.5t-20 -24l-81 -58q-13 -9 -20 -9q-10 0 -17 10t-5 19z" />
<glyph unicode="&#x300;" horiz-adv-x="0" d="M-240 557q-25 12 -17.5 33t30.5 21q6 0 15 -4l127 -62q18 -9 16 -22q-1 -9 -9 -20.5t-21 -11.5q-2 0 -8 2z" />
<glyph unicode="&#x301;" horiz-adv-x="0" d="M-268 523q2 13 24 22l147 62l17 4q11 0 17.5 -7.5t4.5 -19.5q-2 -17 -27 -27l-155 -64q-6 -2 -8 -2q-13 0 -17 12t-3 20z" />
<glyph unicode="&#x302;" horiz-adv-x="0" d="M-312 513q0 11 13 18l136 77q10 5 18 0l112 -77q13 -10 5 -24.5t-23 -14.5q-5 0 -10 3l-100 67l-122 -67q-8 -3 -12 -3q-9 0 -14 6.5t-3 14.5z" />
<glyph unicode="&#x303;" horiz-adv-x="0" d="M-339 522q3 15 55 50q50 32 81 32q22 0 44 -18q2 -2 5 -6q32 -31 42 -33q27 0 86 48q13 9 20 9q9 0 15 -7.5t4 -16.5q-3 -14 -55 -49q-50 -32 -81 -32q-24 0 -44 18q-15 17 -21.5 23.5t-13 10.5t-12.5 4q-28 0 -86 -47q-11 -9 -20 -9t-15 7.5t-4 15.5z" />
<glyph unicode="&#x304;" horiz-adv-x="0" d="M-348 551q4 23 35 23h308q9 0 14 -1t10 -6.5t3 -16.5q-4 -22 -35 -22h-306q-10 0 -15.5 0.5t-10.5 6t-3 16.5z" />
<glyph unicode="&#x306;" horiz-adv-x="0" d="M-331 577q5 23 27 23q13 0 17 -12q2 -39 124 -39q120 0 136 39q8 12 21 12q24 0 19 -23q-4 -26 -23 -43t-51.5 -23t-53.5 -7.5t-56 -1.5t-55.5 1.5t-51 7.5t-44 23t-9.5 43z" />
<glyph unicode="&#x307;" horiz-adv-x="0" d="M-206 551q2 16 16.5 29t33.5 13q17 0 27.5 -12.5t7.5 -29.5t-17 -29.5t-33 -12.5q-17 0 -27.5 12.5t-7.5 29.5z" />
<glyph unicode="&#x308;" horiz-adv-x="0" d="M-287 551q2 14 15 25.5t29 11.5t25 -11t7 -26t-15 -26t-30 -11q-14 0 -23.5 11t-7.5 26zM-115 551q2 14 15 25.5t30 11.5q15 0 24 -11t7 -26t-14.5 -26t-29.5 -11q-15 0 -24.5 11t-7.5 26z" />
<glyph unicode="&#x309;" horiz-adv-x="0" d="M-249 587q5 32 33.5 52.5t62.5 20.5q42 0 66 -17q28 -24 20 -57.5t-38 -47.5q-55 -27 -60 -58l-3 -19q-4 -18 -21 -18q-8 0 -13 5t-3 13l3 19q8 51 85 91l14 14q4 21 -12 29.5t-44 8.5q-18 0 -33.5 -11t-17.5 -25q-4 -19 -22 -19q-20 0 -17 19z" />
<glyph unicode="&#x30a;" horiz-adv-x="0" d="M-273 560q4 24 41 46t83 22q43 0 73 -22t25 -46q-4 -24 -40.5 -46t-82.5 -22q-43 0 -73 22t-26 46zM-230 560q-2 -16 16 -27.5t46 -11.5q26 0 49 11.5t25 27.5q3 16 -15 27.5t-46 11.5q-26 0 -49 -11.5t-26 -27.5z" />
<glyph unicode="&#x30b;" horiz-adv-x="0" d="M-328 521q1 9 17 21l83 58q13 10 22 10q12 0 18 -7.5t4 -19.5t-20 -24l-81 -58q-14 -9 -20 -9q-11 0 -18 10t-5 19zM-116 521q1 10 17 21l82 58q14 10 23 10q11 0 17 -7.5t4 -19.5t-20 -24l-81 -58q-13 -9 -20 -9q-10 0 -17 10t-5 19z" />
<glyph unicode="&#x30c;" horiz-adv-x="0" d="M-293 572q-13 10 -5 24.5t23 14.5q5 0 10 -3l100 -67l122 67q7 3 12 3q9 0 14 -6.5t3 -14.5q0 -11 -13 -18l-136 -77q-10 -5 -18 0z" />
<glyph unicode="&#x30f;" horiz-adv-x="0" d="M-344 583q5 27 31 27q8 0 19 -10l62 -58q12 -11 11 -21q-2 -9 -12 -19t-20 -10q-8 0 -16 9l-63 58q-14 12 -12 24zM-133 583q5 27 32 27q8 0 18 -10l63 -58q12 -12 11 -21q-2 -9 -12 -19t-21 -10q-7 0 -16 9l-63 58q-14 12 -12 24z" />
<glyph unicode="&#x311;" horiz-adv-x="0" d="M-339 525q4 26 23 43t51.5 23t53.5 7.5t56 1.5t55.5 -1.5t51 -7.5t44 -23t9.5 -43q-5 -23 -27 -23q-13 0 -17 12q-3 39 -124 39t-136 -39q-8 -12 -21 -12q-24 0 -19 23z" />
<glyph unicode="&#x323;" horiz-adv-x="0" d="M-325 -164q2 16 16.5 29t33.5 13q17 0 27 -12.5t8 -29.5q-3 -17 -17 -29.5t-33 -12.5q-17 0 -27.5 12.5t-7.5 29.5z" />
<glyph unicode="&#x326;" horiz-adv-x="0" d="M-327 -204q0 1 10 14q18 13 29.5 28t14.5 24t7 26q-17 1 -25 9t-8.5 12t-0.5 10q2 12 12 20t22 8q39 0 29 -59q-7 -42 -34 -74t-43 -32q-6 0 -10 4.5t-3 9.5z" />
<glyph unicode="&#x32e;" horiz-adv-x="0" d="M-448 -124q5 23 27 23q13 0 17 -12q2 -39 124 -39q120 0 136 39q8 12 21 12q24 0 19 -23q-4 -26 -23 -43t-51.5 -23t-53.5 -7.5t-56 -1.5t-55.5 1.5t-51 7.5t-44 23t-9.5 43z" />
<glyph unicode="&#x32f;" horiz-adv-x="0" d="M-456 -176q4 26 23 43t51.5 23t53.5 7.5t56 1.5t55.5 -1.5t51 -7.5t44 -23t9.5 -43q-5 -23 -27 -23q-13 0 -17 12q-3 39 -124 39t-136 -39q-8 -12 -21 -12q-24 0 -19 23z" />
<glyph unicode="&#x330;" horiz-adv-x="0" d="M-456 -179q3 15 55 50q50 32 81 32q22 0 44 -18q2 -2 5 -6q32 -31 42 -33q27 0 86 48q13 9 20 9q9 0 15 -7.5t4 -16.5q-3 -14 -55 -49q-50 -32 -81 -32q-24 0 -44 18q-15 17 -21.5 23.5t-13 10.5t-12.5 4q-28 0 -86 -47q-11 -9 -20 -9t-15 7.5t-4 15.5z" />
<glyph unicode="&#x331;" horiz-adv-x="0" d="M-465 -150q4 23 35 23h308q9 0 14 -1t10 -6.5t3 -16.5q-4 -22 -35 -22h-306q-10 0 -15.5 0.5t-10.5 6t-3 16.5z" />
<glyph unicode="&#x332;" horiz-adv-x="0" d="M-465 -150q4 23 35 23h308q9 0 14 -1t10 -6.5t3 -16.5q-4 -22 -35 -22h-306q-10 0 -15.5 0.5t-10.5 6t-3 16.5z" />
<glyph unicode="&#x393;" horiz-adv-x="642" d="M51 22q3 22 35 22h65l88 523h-65q-9 0 -14 0.5t-10.5 5.5t-4.5 15q4 23 36 23h485q20 0 25 -7t1 -26l-12 -75q-2 -11 -4 -16.5t-9 -11t-20 -5.5q-26 0 -19 33l11 64h-348l-88 -523h90q9 0 14 -0.5t10.5 -6t4.5 -15.5q-4 -22 -36 -22h-207q-9 0 -14 0.5t-10.5 6t-3.5 15.5 z" />
<glyph unicode="&#x394;" horiz-adv-x="875" d="M57 10q0 4 3 9l412 576q14 18 26 23t32 5h22q24 0 33.5 -6.5t16.5 -24.5l218 -574l1 -8q-2 -10 -25 -10h-718h-8t-7 1t-5.5 3t-0.5 6zM143 50h604l-198 522h-34z" />
<glyph unicode="&#x398;" horiz-adv-x="817" d="M108 306q21 128 139 222t265 94t233.5 -93t64.5 -224q-21 -128 -139 -222t-265 -94t-233.5 93t-64.5 224zM160 305q-18 -111 55.5 -191.5t198.5 -80.5q124 0 224.5 80t119.5 193q18 111 -55.5 191.5t-198.5 80.5q-124 0 -224.5 -80t-119.5 -193zM236 281l8 49q2 11 4 16 t9 11t19 6q24 0 21 -32h332q8 32 33 32q27 0 20 -33l-8 -49q-2 -11 -4 -16t-9 -11t-19 -6q-24 0 -21 32h-332q-8 -32 -33 -32q-27 0 -20 33z" />
<glyph unicode="&#x39b;" horiz-adv-x="700" d="M44 22q3 22 35 22h43l272 552q14 27 50 27h19q36 0 40 -27l88 -552h43q9 0 14.5 -0.5t10.5 -6t4 -15.5q-4 -22 -36 -22h-154q-9 0 -14 0.5t-10.5 6t-3.5 15.5q3 22 35 22h56l-85 529h-12l-262 -529h56q9 0 14.5 -0.5t10.5 -6t4 -15.5q-4 -22 -36 -22h-154q-9 0 -14 0.5 t-10.5 6t-3.5 15.5z" />
<glyph unicode="&#x39e;" horiz-adv-x="700" d="M50 33l4 25q4 33 31 33q18 0 21.5 -12.5t-2.5 -36.5h505q4 28 10 38.5t25 10.5q12 0 17.5 -5t5 -12.5t-1.5 -15.5l-4 -25q-4 -20 -11.5 -26.5t-26.5 -6.5h-546q-20 0 -25.5 6.5t-1.5 26.5zM143 558l3 20q4 20 11.5 26.5t27.5 6.5h534q20 0 25 -7t1 -26l-3 -20 q-5 -33 -31 -33q-18 0 -22 12t2 32h-493q-3 -18 -5 -24.5t-9 -13t-20 -6.5q-26 0 -21 33zM196 281l12 73q2 11 4 16.5t9 11t19 5.5q13 0 18 -6.5t4.5 -14t-3.5 -27.5h295q4 28 10 38t25 10q17 0 20.5 -10.5t-0.5 -22.5l-12 -73q-2 -11 -4 -16t-9 -11t-19 -6 q-19 0 -21.5 12.5t3.5 36.5h-295q-4 -20 -6.5 -28t-9.5 -14.5t-20 -6.5q-27 0 -20 33z" />
<glyph unicode="&#x3a0;" horiz-adv-x="758" d="M49 22q3 22 35 22h65l88 523h-65q-8 0 -13.5 0.5t-11 5.5t-4.5 15q4 23 36 23h603q9 0 14 -0.5t10.5 -6t3.5 -16.5q-3 -21 -35 -21h-65l-88 -523h65q9 0 14 -0.5t10.5 -6t4.5 -15.5q-4 -22 -36 -22h-183q-8 0 -13 0.5t-10.5 6t-3.5 15.5q3 22 34 22h65l88 523h-367 l-88 -523h64q9 0 14.5 -0.5t10.5 -6t4 -15.5q-4 -22 -36 -22h-182q-8 0 -13.5 0.5t-11 6t-3.5 15.5z" />
<glyph unicode="&#x3a3;" horiz-adv-x="758" d="M61 20q1 2 5 11l276 274l-180 263q-7 11 -6 20q4 23 36 23h577q20 0 25 -7t1 -26l-12 -75q-2 -11 -4 -16.5t-9 -11t-19 -5.5q-27 0 -20 33l11 64h-510l166 -242q8 -11 7 -20q-2 -9 -13 -20l-241 -239h504l10 64q2 11 4 16.5t9 11t20 5.5q26 0 19 -33l-12 -77 q-4 -20 -11 -26.5t-27 -6.5h-577q-8 0 -13 0.5t-11 5.5t-5 14z" />
<glyph unicode="&#x3a5;" horiz-adv-x="817" d="M140 498q8 51 60.5 87.5t117.5 36.5q83 0 117.5 -57t37.5 -172q44 115 98 172t135 57q64 0 104 -36.5t32 -87.5q-4 -23 -30 -23q-13 0 -18.5 4.5t-3.5 11.5q7 44 -20 70t-73 26q-45 0 -83 -26.5t-63 -69.5t-40.5 -88t-23.5 -91l-45 -268h89q9 0 14.5 -0.5t10.5 -6 t4 -15.5q-4 -22 -36 -22h-231q-9 0 -14.5 0.5t-10.5 6t-3 16.5q3 21 35 21h89l45 268q9 39 7 87t-11.5 90t-39 70t-75.5 28q-47 0 -82.5 -26.5t-42.5 -68.5q-2 -17 -28 -17t-22 23z" />
<glyph unicode="&#x3a6;" horiz-adv-x="758" d="M109 306q10 61 105 101.5t214 45.5l19 114h-89q-9 0 -14 0.5t-10.5 5.5t-4.5 15q4 23 36 23h231q9 0 14.5 -0.5t10.5 -6t3 -16.5q-3 -21 -35 -21h-89l-19 -114q74 -3 136.5 -20.5t101 -51.5t31.5 -76q-10 -61 -105 -101.5t-214 -45.5l-19 -114h89q9 0 14.5 -0.5t10.5 -6 t4 -15.5q-4 -22 -36 -22h-231q-9 0 -14 0.5t-10.5 6t-3.5 15.5q3 22 35 22h89l19 114q-74 3 -136.5 20.5t-101 51.5t-31.5 76zM161 306q-4 -25 18.5 -45t59.5 -32t75.5 -18.5t71.5 -7.5l34 205q-49 -1 -104.5 -12t-102.5 -35t-52 -55zM439 203q33 1 73.5 7.5t81.5 18.5 t70.5 32t33.5 45q5 31 -34 55t-90.5 35t-100.5 12z" />
<glyph unicode="&#x3a8;" horiz-adv-x="817" d="M133 456q4 23 32 23q40 0 68.5 -26.5t20.5 -91.5q-9 -73 33.5 -112t128.5 -47l61 365h-89q-9 0 -14.5 0.5t-10.5 6t-4 15.5q4 22 36 22h231q9 0 14.5 -0.5t10.5 -6t3 -16.5q-3 -21 -35 -21h-89l-61 -365q83 7 140.5 45t72.5 111q10 54 37 80q45 41 91 41q8 0 12.5 -0.5 t9.5 -6t3 -16.5q-3 -19 -23 -21q-22 -2 -37 -10t-23 -21.5t-11.5 -23t-6.5 -24.5q-18 -90 -91 -139.5t-182 -58.5l-19 -114h89q9 0 14.5 -0.5t10.5 -6t4 -15.5q-4 -22 -36 -22h-231q-9 0 -14.5 0.5t-10.5 6t-3 16.5q3 21 35 21h89l19 114q-57 5 -94.5 17t-70.5 42 q-25 24 -36 63.5t-7 73.5q2 18 2.5 35t-13 30t-42.5 16q-17 4 -14 21z" />
<glyph unicode="&#x3a9;" horiz-adv-x="758" d="M52 33l4 27q6 33 26 33q13 0 14 -14.5t-4 -34.5h154q-2 39 -13.5 71t-43.5 85q-25 42 -37 65.5t-22 64.5t-4 79q15 90 118 151.5t239 61.5q134 0 216.5 -61.5t67.5 -151.5q-6 -37 -29 -77.5t-44 -66t-58 -64.5q-52 -56 -74 -87t-37 -70h154q3 18 5 25.5t8 15.5t15 8 q20 0 14 -33l-4 -27q-4 -20 -11.5 -26.5t-26.5 -6.5h-174q-10 0 -15.5 1t-10.5 7t-3 18q14 79 124 199q35 39 52.5 61t37.5 57t25 66q12 68 -57.5 118.5t-183.5 50.5q-112 0 -198.5 -50.5t-97.5 -118.5q-5 -31 3 -65.5t19 -57.5t32 -61q21 -37 31.5 -59t21 -63.5t4.5 -76.5 q-4 -26 -36 -26h-174q-20 0 -25.5 6.5t-1.5 26.5z" />
<glyph unicode="&#xe3f;" horiz-adv-x="729" d="M50 22q3 22 35 22h64l88 523h-64q-9 0 -14 0.5t-10.5 5.5t-4.5 15q4 23 36 23h256l12 73q4 23 27 23q9 0 14 -6.5t4 -16.5l-12 -73h31q97 0 156 -45t49 -105q-9 -53 -55.5 -86.5t-134.5 -54.5q105 -19 142 -60t28 -97q-11 -65 -85.5 -114t-172.5 -49h-60l-12 -73 q-1 -10 -9 -16.5t-17 -6.5q-10 0 -15.5 6.5t-3.5 16.5l12 73h-256q-9 0 -14 0.5t-10.5 6t-3.5 15.5zM202 44h139l42 252h-139zM252 340h139l38 227h-139zM386 44h31q85 0 152 35t76 86q8 51 -50 91t-139 40h-28zM436 340q95 3 158 38.5t71 81.5q7 42 -39 74.5t-123 32.5h-29 z" />
<glyph unicode="&#x1e0c;" horiz-adv-x="788" d="M49 22q3 22 35 22h65l88 523h-65q-9 0 -14 0.5t-10.5 5.5t-4.5 15q4 23 36 23h331q133 0 212 -91.5t57 -219.5q-20 -124 -128.5 -212t-242.5 -88h-331q-9 0 -14 0.5t-10.5 6t-3.5 15.5zM201 44h196q120 0 216 75.5t113 181.5q18 107 -51 186.5t-191 79.5h-195zM229 -164 q2 16 16.5 29t33.5 13q17 0 27 -12.5t8 -29.5q-3 -17 -17 -29.5t-33 -12.5q-17 0 -27.5 12.5t-7.5 29.5z" />
<glyph unicode="&#x1e0d;" horiz-adv-x="583" d="M81 212q16 92 91.5 156t166.5 64q76 0 137 -64l34 199h-65q-9 0 -14.5 0.5t-10.5 6t-4 15.5q4 22 36 22h85q20 0 25 -7t1 -26l-89 -534h65q9 0 14 -0.5t10.5 -6t4.5 -15.5q-4 -22 -36 -22h-85q-20 0 -25 7t-1 26l7 42q-75 -81 -173 -81q-87 0 -138 64t-36 154zM133 212 q-11 -72 28 -123t106 -51q65 0 118 50.5t62 105.5l12 68q8 49 -28 87t-94 38q-71 0 -131 -51t-73 -124zM222 -164q2 16 16.5 29t33.5 13q17 0 27 -12.5t8 -29.5q-3 -17 -17 -29.5t-33 -12.5q-17 0 -27.5 12.5t-7.5 29.5z" />
<glyph unicode="&#x1e0e;" horiz-adv-x="788" d="M49 22q3 22 35 22h65l88 523h-65q-9 0 -14 0.5t-10.5 5.5t-4.5 15q4 23 36 23h331q133 0 212 -91.5t57 -219.5q-20 -124 -128.5 -212t-242.5 -88h-331q-9 0 -14 0.5t-10.5 6t-3.5 15.5zM90 -150q4 23 35 23h308q9 0 14 -1t10 -6.5t3 -16.5q-4 -22 -35 -22h-306 q-10 0 -15.5 0.5t-10.5 6t-3 16.5zM201 44h196q120 0 216 75.5t113 181.5q18 107 -51 186.5t-191 79.5h-195z" />
<glyph unicode="&#x1e0f;" horiz-adv-x="583" d="M81 212q16 92 91.5 156t166.5 64q76 0 137 -64l34 199h-65q-9 0 -14.5 0.5t-10.5 6t-4 15.5q4 22 36 22h85q20 0 25 -7t1 -26l-89 -534h65q9 0 14 -0.5t10.5 -6t4.5 -15.5q-4 -22 -36 -22h-85q-20 0 -25 7t-1 26l7 42q-75 -81 -173 -81q-87 0 -138 64t-36 154zM82 -150 q4 23 35 23h308q9 0 14 -1t10 -6.5t3 -16.5q-4 -22 -35 -22h-306q-10 0 -15.5 0.5t-10.5 6t-3 16.5zM133 212q-11 -72 28 -123t106 -51q65 0 118 50.5t62 105.5l12 68q8 49 -28 87t-94 38q-71 0 -131 -51t-73 -124z" />
<glyph unicode="&#x1e24;" horiz-adv-x="758" d="M49 22q3 22 35 22h65l88 523h-65q-8 0 -13.5 0.5t-11 5.5t-4.5 15q4 23 36 23h182q9 0 14.5 -0.5t10.5 -6t3 -16.5q-3 -21 -35 -21h-64l-38 -227h367l38 227h-65q-8 0 -13 0.5t-10.5 5.5t-4.5 15q4 23 35 23h183q9 0 14 -0.5t10.5 -6t3.5 -16.5q-3 -21 -35 -21h-65 l-88 -523h65q9 0 14 -0.5t10.5 -6t4.5 -15.5q-4 -22 -36 -22h-183q-8 0 -13 0.5t-10.5 6t-3.5 15.5q3 22 34 22h65l42 252h-367l-42 -252h64q9 0 14.5 -0.5t10.5 -6t4 -15.5q-4 -22 -36 -22h-182q-8 0 -13.5 0.5t-11 6t-3.5 15.5zM309 -164q2 16 16.5 29t33.5 13 q17 0 27 -12.5t8 -29.5q-3 -17 -17 -29.5t-33 -12.5q-17 0 -27.5 12.5t-7.5 29.5z" />
<glyph unicode="&#x1e25;" horiz-adv-x="583" d="M22 22q3 22 35 22h65l88 523h-65q-9 0 -14 0.5t-10.5 5.5t-4.5 15q4 23 36 23h85q20 0 25 -7t1 -26l-36 -217q89 71 173 71q139 0 116 -141l-42 -247h65q9 0 14 -0.5t10.5 -6t4.5 -15.5q-4 -22 -36 -22h-182q-9 0 -14.5 0.5t-10.5 6t-3 16.5q3 21 35 21h65l40 240 q9 53 -5 78t-70 25q-25 0 -51.5 -8t-54 -24.5t-48 -47.5t-27.5 -72l-32 -191h65q9 0 14.5 -0.5t10.5 -6t4 -15.5q-4 -22 -36 -22h-182q-9 0 -14 0.5t-10.5 6t-3.5 15.5zM221 -164q2 16 16.5 29t33.5 13q17 0 27 -12.5t8 -29.5q-3 -17 -17 -29.5t-33 -12.5q-17 0 -27.5 12.5 t-7.5 29.5z" />
<glyph unicode="&#x1e26;" horiz-adv-x="758" d="M49 22q3 22 35 22h65l88 523h-65q-8 0 -13.5 0.5t-11 5.5t-4.5 15q4 23 36 23h182q9 0 14.5 -0.5t10.5 -6t3 -16.5q-3 -21 -35 -21h-64l-38 -227h367l38 227h-65q-8 0 -13 0.5t-10.5 5.5t-4.5 15q4 23 35 23h183q9 0 14 -0.5t10.5 -6t3.5 -16.5q-3 -21 -35 -21h-65 l-88 -523h65q9 0 14 -0.5t10.5 -6t4.5 -15.5q-4 -22 -36 -22h-183q-8 0 -13 0.5t-10.5 6t-3.5 15.5q3 22 34 22h65l42 252h-367l-42 -252h64q9 0 14.5 -0.5t10.5 -6t4 -15.5q-4 -22 -36 -22h-182q-8 0 -13.5 0.5t-11 6t-3.5 15.5zM354 680q2 14 15 25.5t29 11.5t25 -11 t6 -26q-2 -15 -14.5 -26t-29.5 -11q-15 0 -24 11t-7 26zM557 680q2 14 15 25.5t29 11.5t25 -11t6 -26q-2 -15 -14.5 -26t-29.5 -11q-15 0 -24 11t-7 26z" />
<glyph unicode="&#x1e27;" horiz-adv-x="583" d="M22 22q3 22 35 22h65l88 523h-65q-9 0 -14 0.5t-10.5 5.5t-4.5 15q4 23 36 23h85q20 0 25 -7t1 -26l-36 -217q89 71 173 71q139 0 116 -141l-42 -247h65q9 0 14 -0.5t10.5 -6t4.5 -15.5q-4 -22 -36 -22h-182q-9 0 -14.5 0.5t-10.5 6t-3 16.5q3 21 35 21h65l40 240 q9 53 -5 78t-70 25q-25 0 -51.5 -8t-54 -24.5t-48 -47.5t-27.5 -72l-32 -191h65q9 0 14.5 -0.5t10.5 -6t4 -15.5q-4 -22 -36 -22h-182q-9 0 -14 0.5t-10.5 6t-3.5 15.5zM266 680q2 14 15 25.5t29 11.5t25 -11t6 -26q-2 -15 -14.5 -26t-29.5 -11q-15 0 -24 11t-7 26zM469 680 q2 14 15 25.5t29 11.5t25 -11t6 -26q-2 -15 -14.5 -26t-29.5 -11q-15 0 -24 11t-7 26z" />
<glyph unicode="&#x1e2a;" horiz-adv-x="758" d="M49 22q3 22 35 22h65l88 523h-65q-8 0 -13.5 0.5t-11 5.5t-4.5 15q4 23 36 23h182q9 0 14.5 -0.5t10.5 -6t3 -16.5q-3 -21 -35 -21h-64l-38 -227h367l38 227h-65q-8 0 -13 0.5t-10.5 5.5t-4.5 15q4 23 35 23h183q9 0 14 -0.5t10.5 -6t3.5 -16.5q-3 -21 -35 -21h-65 l-88 -523h65q9 0 14 -0.5t10.5 -6t4.5 -15.5q-4 -22 -36 -22h-183q-8 0 -13 0.5t-10.5 6t-3.5 15.5q3 22 34 22h65l42 252h-367l-42 -252h64q9 0 14.5 -0.5t10.5 -6t4 -15.5q-4 -22 -36 -22h-182q-8 0 -13.5 0.5t-11 6t-3.5 15.5zM187 -124q5 23 27 23q13 0 17 -12 q2 -39 124 -39q120 0 136 39q8 12 21 12q24 0 19 -23q-4 -26 -23 -43t-51.5 -23t-53.5 -7.5t-56 -1.5t-55.5 1.5t-51 7.5t-44 23t-9.5 43z" />
<glyph unicode="&#x1e2b;" horiz-adv-x="583" d="M22 22q3 22 35 22h65l88 523h-65q-9 0 -14 0.5t-10.5 5.5t-4.5 15q4 23 36 23h85q20 0 25 -7t1 -26l-36 -217q89 71 173 71q139 0 116 -141l-42 -247h65q9 0 14 -0.5t10.5 -6t4.5 -15.5q-4 -22 -36 -22h-182q-9 0 -14.5 0.5t-10.5 6t-3 16.5q3 21 35 21h65l40 240 q9 53 -5 78t-70 25q-25 0 -51.5 -8t-54 -24.5t-48 -47.5t-27.5 -72l-32 -191h65q9 0 14.5 -0.5t10.5 -6t4 -15.5q-4 -22 -36 -22h-182q-9 0 -14 0.5t-10.5 6t-3.5 15.5zM99 -124q5 23 27 23q13 0 17 -12q2 -39 124 -39q120 0 136 39q8 12 21 12q24 0 19 -23q-4 -26 -23 -43 t-51.5 -23t-53.5 -7.5t-56 -1.5t-55.5 1.5t-51 7.5t-44 23t-9.5 43z" />
<glyph unicode="&#x1e36;" horiz-adv-x="642" d="M51 22q3 22 35 22h65l88 523h-65q-9 0 -14 0.5t-10.5 5.5t-4.5 15q4 23 36 23h207q9 0 14 -0.5t10.5 -6t3.5 -16.5q-3 -21 -35 -21h-90l-88 -523h348l14 81q2 12 3.5 16.5t8.5 10.5t19 6t17.5 -5t5 -12.5t-1.5 -15.5l-15 -92q-4 -20 -11 -26.5t-27 -6.5h-485 q-9 0 -14 0.5t-10.5 6t-3.5 15.5zM251 -164q2 16 16.5 29t33.5 13q17 0 27 -12.5t8 -29.5q-3 -17 -17 -29.5t-33 -12.5q-17 0 -27.5 12.5t-7.5 29.5z" />
<glyph unicode="&#x1e37;" horiz-adv-x="292" d="M26 22q3 22 35 22h65l88 523h-65q-8 0 -13.5 0.5t-11 5.5t-4.5 15q4 23 36 23h86q20 0 25 -7t1 -26l-89 -534h65q9 0 14 -0.5t10.5 -6t4.5 -15.5q-4 -22 -36 -22h-183q-8 0 -13.5 0.5t-11 6t-3.5 15.5zM76 -164q2 16 16.5 29t33.5 13q17 0 27 -12.5t8 -29.5 q-3 -17 -17 -29.5t-33 -12.5q-17 0 -27.5 12.5t-7.5 29.5z" />
<glyph unicode="&#x1e38;" horiz-adv-x="642" d="M51 22q3 22 35 22h65l88 523h-65q-9 0 -14 0.5t-10.5 5.5t-4.5 15q4 23 36 23h207q9 0 14 -0.5t10.5 -6t3.5 -16.5q-3 -21 -35 -21h-90l-88 -523h348l14 81q2 12 3.5 16.5t8.5 10.5t19 6t17.5 -5t5 -12.5t-1.5 -15.5l-15 -92q-4 -20 -11 -26.5t-27 -6.5h-485 q-9 0 -14 0.5t-10.5 6t-3.5 15.5zM112 686q4 23 35 23h308q9 0 14 -1t10 -6.5t3 -16.5q-4 -22 -35 -22h-306q-10 0 -15.5 0.5t-10.5 6t-3 16.5zM251 -164q2 16 16.5 29t33.5 13q17 0 27 -12.5t8 -29.5q-3 -17 -17 -29.5t-33 -12.5q-17 0 -27.5 12.5t-7.5 29.5z" />
<glyph unicode="&#x1e39;" horiz-adv-x="292" d="M26 22q3 22 35 22h65l88 523h-65q-8 0 -13.5 0.5t-11 5.5t-4.5 15q4 23 36 23h86q20 0 25 -7t1 -26l-89 -534h65q9 0 14 -0.5t10.5 -6t4.5 -15.5q-4 -22 -36 -22h-183q-8 0 -13.5 0.5t-11 6t-3.5 15.5zM52 686q4 23 35 23h308q9 0 14 -1t10 -6.5t3 -16.5q-4 -22 -35 -22 h-306q-10 0 -15.5 0.5t-10.5 6t-3 16.5zM76 -164q2 16 16.5 29t33.5 13q17 0 27 -12.5t8 -29.5q-3 -17 -17 -29.5t-33 -12.5q-17 0 -27.5 12.5t-7.5 29.5z" />
<glyph unicode="&#x1e42;" horiz-adv-x="933" d="M54 22q3 22 35 22h65l88 523h-65q-9 0 -14 0.5t-10.5 5.5t-4.5 15q4 23 36 23h99q23 0 34 -7t16 -26l141 -533l318 536q18 30 61 30h99q9 0 14.5 -0.5t10.5 -6t3 -16.5q-3 -21 -35 -21h-65l-88 -523h65q9 0 14.5 -0.5t10.5 -6t4 -15.5q-4 -22 -36 -22h-169q-9 0 -14 0.5 t-10.5 6t-3.5 16.5q3 21 35 21h65l88 523h-13l-313 -525q-11 -17 -25.5 -26.5t-22.5 -9.5q-13 0 -22 10t-12 21l-139 530h-13l-88 -523h65q9 0 14 -0.5t10.5 -6t4.5 -15.5q-4 -22 -36 -22h-169q-9 0 -14 0.5t-10.5 6t-3.5 15.5zM397 -164q2 16 16.5 29t33.5 13 q17 0 27 -12.5t8 -29.5q-3 -17 -17 -29.5t-33 -12.5q-17 0 -27.5 12.5t-7.5 29.5z" />
<glyph unicode="&#x1e43;" horiz-adv-x="875" d="M18 22q3 22 34 22h65l57 337h-65q-8 0 -13 0.5t-10.5 6t-4.5 15.5q4 23 35 23h86q23 0 26 -13t-5 -52q90 71 173 71q96 0 119 -81q89 81 182 81q67 0 98 -35.5t19 -105.5l-42 -247h65q9 0 14 -0.5t10 -6t4 -15.5q-4 -22 -35 -22h-183q-8 0 -13.5 0.5t-11 6t-3.5 15.5 q3 22 35 22h65l40 240q9 54 -5.5 78.5t-70.5 24.5q-33 0 -68 -13t-69 -49t-43 -90l-32 -191h65q9 0 14 -0.5t10.5 -6t4.5 -15.5q-4 -22 -36 -22h-183q-8 0 -13.5 0.5t-11 6t-3.5 15.5q3 22 35 22h65l40 240q9 54 -5.5 78.5t-70.5 24.5q-33 0 -68 -13t-69 -49t-43 -90 l-32 -191h65q9 0 14 -0.5t10.5 -6t4.5 -15.5q-4 -22 -36 -22h-183q-8 0 -13 0.5t-10.5 6t-3.5 15.5zM368 -164q2 16 16.5 29t33.5 13q17 0 27 -12.5t8 -29.5q-3 -17 -17 -29.5t-33 -12.5q-17 0 -27.5 12.5t-7.5 29.5z" />
<glyph unicode="&#x1e44;" horiz-adv-x="758" d="M56 22q3 22 35 22h65l88 523h-65q-8 0 -13.5 0.5t-11 5.5t-4.5 15q4 23 36 23h98q44 0 57 -30l217 -537h18l88 523h-65q-9 0 -14 0.5t-10.5 5.5t-4.5 15q4 23 36 23h169q9 0 14 -0.5t10.5 -6t3.5 -16.5q-3 -21 -35 -21h-65l-89 -534q-4 -20 -12 -26.5t-27 -6.5 q-44 0 -57 30l-217 537h-18l-88 -523h65q9 0 14.5 -0.5t10.5 -6t4 -15.5q-4 -22 -36 -22h-169q-8 0 -13.5 0.5t-11 6t-3.5 15.5zM450 685q3 17 17 29.5t33 12.5q17 0 27.5 -12.5t7.5 -29.5q-2 -16 -16.5 -29t-33.5 -13q-17 0 -27.5 12.5t-7.5 29.5z" />
<glyph unicode="&#x1e45;" horiz-adv-x="583" d="M22 22q3 22 35 22h65l57 337h-65q-9 0 -14 0.5t-10.5 6t-4.5 15.5q4 23 36 23h85q23 0 26 -13t-5 -52q89 71 173 71q139 0 116 -141l-42 -247h65q9 0 14 -0.5t10.5 -6t4.5 -15.5q-4 -22 -36 -22h-182q-9 0 -14.5 0.5t-10.5 6t-3 16.5q3 21 35 21h65l40 240q9 53 -5 78 t-70 25q-25 0 -51.5 -8t-54 -24.5t-48 -47.5t-27.5 -72l-32 -191h65q9 0 14.5 -0.5t10.5 -6t4 -15.5q-4 -22 -36 -22h-182q-9 0 -14 0.5t-10.5 6t-3.5 15.5zM341 551q2 16 16.5 29t33.5 13q17 0 27.5 -12.5t7.5 -29.5t-17 -29.5t-33 -12.5q-17 0 -27.5 12.5t-7.5 29.5z" />
<glyph unicode="&#x1e46;" horiz-adv-x="758" d="M56 22q3 22 35 22h65l88 523h-65q-8 0 -13.5 0.5t-11 5.5t-4.5 15q4 23 36 23h98q44 0 57 -30l217 -537h18l88 523h-65q-9 0 -14 0.5t-10.5 5.5t-4.5 15q4 23 36 23h169q9 0 14 -0.5t10.5 -6t3.5 -16.5q-3 -21 -35 -21h-65l-89 -534q-4 -20 -12 -26.5t-27 -6.5 q-44 0 -57 30l-217 537h-18l-88 -523h65q9 0 14.5 -0.5t10.5 -6t4 -15.5q-4 -22 -36 -22h-169q-8 0 -13.5 0.5t-11 6t-3.5 15.5zM309 -164q2 16 16.5 29t33.5 13q17 0 27 -12.5t8 -29.5q-3 -17 -17 -29.5t-33 -12.5q-17 0 -27.5 12.5t-7.5 29.5z" />
<glyph unicode="&#x1e47;" horiz-adv-x="583" d="M22 22q3 22 35 22h65l57 337h-65q-9 0 -14 0.5t-10.5 6t-4.5 15.5q4 23 36 23h85q23 0 26 -13t-5 -52q89 71 173 71q139 0 116 -141l-42 -247h65q9 0 14 -0.5t10.5 -6t4.5 -15.5q-4 -22 -36 -22h-182q-9 0 -14.5 0.5t-10.5 6t-3 16.5q3 21 35 21h65l40 240q9 53 -5 78 t-70 25q-25 0 -51.5 -8t-54 -24.5t-48 -47.5t-27.5 -72l-32 -191h65q9 0 14.5 -0.5t10.5 -6t4 -15.5q-4 -22 -36 -22h-182q-9 0 -14 0.5t-10.5 6t-3.5 15.5zM222 -164q2 16 16.5 29t33.5 13q17 0 27 -12.5t8 -29.5q-3 -17 -17 -29.5t-33 -12.5q-17 0 -27.5 12.5t-7.5 29.5z " />
<glyph unicode="&#x1e58;" horiz-adv-x="758" d="M49 22q3 22 35 22h65l88 523h-65q-8 0 -13.5 0.5t-11 5.5t-4.5 15q4 23 36 23h276q110 0 182.5 -47.5t61.5 -116.5q-14 -83 -155 -139q50 -28 63 -54q11 -20 11 -37t-8 -60q-5 -31 -6 -49.5t1.5 -37.5t15 -28t34.5 -9t40.5 14t23.5 41q3 22 28 22q7 0 11 -0.5t9 -6 t4 -15.5q-7 -37 -42 -68t-82 -31q-60 0 -85 42q-14 24 -14 51.5t8 69.5q10 50 6 69t-34 38q-46 24 -130 24h-156l-40 -239h64q9 0 14.5 -0.5t10.5 -6t4 -15.5q-4 -22 -36 -22h-182q-8 0 -13.5 0.5t-11 6t-3.5 15.5zM250 328h149q89 0 164 34.5t84 84.5q8 50 -55.5 85 t-152.5 35h-149zM452 696q3 17 17 29.5t33 12.5q17 0 27.5 -12.5t7.5 -29.5q-2 -16 -16.5 -29t-33.5 -13q-17 0 -27.5 12.5t-7.5 29.5z" />
<glyph unicode="&#x1e59;" horiz-adv-x="408" d="M25 22q3 22 35 22h64l57 337h-64q-9 0 -14 0.5t-10.5 6t-4.5 15.5q4 23 36 23h85q23 0 26 -14t-6 -59q82 79 149 79q31 0 46.5 -17t12.5 -38q-3 -16 -14.5 -25.5t-25.5 -9.5q-13 0 -22.5 9.5t-4.5 35.5q-67 -7 -111.5 -65.5t-57.5 -137.5l-24 -140h90q9 0 14 -0.5 t10.5 -6t4.5 -15.5q-4 -22 -36 -22h-207q-9 0 -14 0.5t-10.5 6t-3.5 15.5zM253 551q2 16 16.5 29t33.5 13q17 0 27.5 -12.5t7.5 -29.5t-17 -29.5t-33 -12.5q-17 0 -27.5 12.5t-7.5 29.5z" />
<glyph unicode="&#x1e5a;" horiz-adv-x="758" d="M49 22q3 22 35 22h65l88 523h-65q-8 0 -13.5 0.5t-11 5.5t-4.5 15q4 23 36 23h276q110 0 182.5 -47.5t61.5 -116.5q-14 -83 -155 -139q50 -28 63 -54q11 -20 11 -37t-8 -60q-5 -31 -6 -49.5t1.5 -37.5t15 -28t34.5 -9t40.5 14t23.5 41q3 22 28 22q7 0 11 -0.5t9 -6 t4 -15.5q-7 -37 -42 -68t-82 -31q-60 0 -85 42q-14 24 -14 51.5t8 69.5q10 50 6 69t-34 38q-46 24 -130 24h-156l-40 -239h64q9 0 14.5 -0.5t10.5 -6t4 -15.5q-4 -22 -36 -22h-182q-8 0 -13.5 0.5t-11 6t-3.5 15.5zM250 328h149q89 0 164 34.5t84 84.5q8 50 -55.5 85 t-152.5 35h-149zM309 -164q2 16 16.5 29t33.5 13q17 0 27 -12.5t8 -29.5q-3 -17 -17 -29.5t-33 -12.5q-17 0 -27.5 12.5t-7.5 29.5z" />
<glyph unicode="&#x1e5b;" horiz-adv-x="408" d="M25 22q3 22 35 22h64l57 337h-64q-9 0 -14 0.5t-10.5 6t-4.5 15.5q4 23 36 23h85q23 0 26 -14t-6 -59q82 79 149 79q31 0 46.5 -17t12.5 -38q-3 -16 -14.5 -25.5t-25.5 -9.5q-13 0 -22.5 9.5t-4.5 35.5q-67 -7 -111.5 -65.5t-57.5 -137.5l-24 -140h90q9 0 14 -0.5 t10.5 -6t4.5 -15.5q-4 -22 -36 -22h-207q-9 0 -14 0.5t-10.5 6t-3.5 15.5zM87 -164q2 16 16.5 29t33.5 13q17 0 27 -12.5t8 -29.5q-3 -17 -17 -29.5t-33 -12.5q-17 0 -27.5 12.5t-7.5 29.5z" />
<glyph unicode="&#x1e5c;" horiz-adv-x="758" d="M49 22q3 22 35 22h65l88 523h-65q-8 0 -13.5 0.5t-11 5.5t-4.5 15q4 23 36 23h276q110 0 182.5 -47.5t61.5 -116.5q-14 -83 -155 -139q50 -28 63 -54q11 -20 11 -37t-8 -60q-5 -31 -6 -49.5t1.5 -37.5t15 -28t34.5 -9t40.5 14t23.5 41q3 22 28 22q7 0 11 -0.5t9 -6 t4 -15.5q-7 -37 -42 -68t-82 -31q-60 0 -85 42q-14 24 -14 51.5t8 69.5q10 50 6 69t-34 38q-46 24 -130 24h-156l-40 -239h64q9 0 14.5 -0.5t10.5 -6t4 -15.5q-4 -22 -36 -22h-182q-8 0 -13.5 0.5t-11 6t-3.5 15.5zM250 328h149q89 0 164 34.5t84 84.5q8 50 -55.5 85 t-152.5 35h-149zM309 -164q2 16 16.5 29t33.5 13q17 0 27 -12.5t8 -29.5q-3 -17 -17 -29.5t-33 -12.5q-17 0 -27.5 12.5t-7.5 29.5zM309 686q4 23 35 23h308q9 0 14 -1t10 -6.5t3 -16.5q-4 -22 -35 -22h-306q-10 0 -15.5 0.5t-10.5 6t-3 16.5z" />
<glyph unicode="&#x1e5d;" horiz-adv-x="408" d="M25 22q3 22 35 22h64l57 337h-64q-9 0 -14 0.5t-10.5 6t-4.5 15.5q4 23 36 23h85q23 0 26 -14t-6 -59q82 79 149 79q31 0 46.5 -17t12.5 -38q-3 -16 -14.5 -25.5t-25.5 -9.5q-13 0 -22.5 9.5t-4.5 35.5q-67 -7 -111.5 -65.5t-57.5 -137.5l-24 -140h90q9 0 14 -0.5 t10.5 -6t4.5 -15.5q-4 -22 -36 -22h-207q-9 0 -14 0.5t-10.5 6t-3.5 15.5zM87 -164q2 16 16.5 29t33.5 13q17 0 27 -12.5t8 -29.5q-3 -17 -17 -29.5t-33 -12.5q-17 0 -27.5 12.5t-7.5 29.5zM112 551q4 23 35 23h308q9 0 14 -1t10 -6.5t3 -16.5q-4 -22 -35 -22h-306 q-10 0 -15.5 0.5t-10.5 6t-3 16.5z" />
<glyph unicode="&#x1e62;" horiz-adv-x="583" d="M64 22l22 136q2 11 4 16t9 11t20 6q10 0 15.5 -4t6 -8t0.5 -12v-2q-4 -37 6 -60t38 -42q48 -30 138 -30q71 0 119.5 38t56.5 87q4 21 -1.5 41t-13.5 29l-7 10q-21 21 -39 28t-70 19l-44 9q-54 12 -74.5 17.5t-42.5 17t-39 29.5q-41 45 -31 105q11 64 76 111.5t154 47.5 q102 0 161 -59q20 39 27.5 49t18.5 10q21 0 16 -33l-22 -136q-2 -11 -4 -16t-9 -11t-20 -6q-10 0 -15.5 4t-6 8t-1.5 14q-2 132 -154 132q-67 0 -115.5 -33.5t-55.5 -77.5q-8 -45 24.5 -72.5t66.5 -34.5l147 -32q64 -14 99 -60.5t25 -105.5q-11 -69 -76.5 -121t-158.5 -52 q-124 0 -189 55q-19 -36 -26.5 -45.5t-18.5 -9.5q-21 0 -16 33zM222 -164q2 16 16.5 29t33.5 13q17 0 27 -12.5t8 -29.5q-3 -17 -17 -29.5t-33 -12.5q-17 0 -27.5 12.5t-7.5 29.5z" />
<glyph unicode="&#x1e63;" horiz-adv-x="414" d="M44 27l16 99q2 11 4 16t9 11t20 6q18 0 22 -14q3 -24 7 -39.5t14 -33t30 -26t50 -8.5q12 0 27 2t40 8.5t44 25t23 46.5q5 31 -17.5 50.5t-56.5 28.5l-11 2q-34 6 -52.5 10.5t-47 14.5t-43 21.5t-24 31t-5.5 43.5q3 17 12.5 34t28.5 36t56 31t86 12q54 0 93 -25 q13 25 29 25q22 0 16 -33l-12 -71q-1 -10 -3 -16t-9 -11.5t-20 -5.5q-22 0 -22 18q3 11 0.5 24t-8.5 24.5t-25 19t-49 7.5q-59 0 -91.5 -19.5t-37.5 -49.5q-6 -31 26 -46.5t104 -29.5q14 -2 27 -5.5t35 -13t36.5 -22t24 -35t4.5 -50.5q-8 -49 -53.5 -87.5t-132.5 -38.5 q-67 0 -111 42q-16 -42 -37 -42q-24 0 -16 33zM137 -164q2 16 16.5 29t33.5 13q17 0 27 -12.5t8 -29.5q-3 -17 -17 -29.5t-33 -12.5q-17 0 -27.5 12.5t-7.5 29.5z" />
</font>
</defs>
</svg>
