<?xml version="1.0" standalone="no"?>
<!DOCTYPE svg PUBLIC "-//W3C//DTD SVG 1.1//EN" "http://www.w3.org/Graphics/SVG/1.1/DTD/svg11.dtd" >
<svg xmlns="http://www.w3.org/2000/svg">
<metadata></metadata>
<defs>
<font id="latin_modern_mono_light10Ob" horiz-adv-x="525" >
<font-face units-per-em="1000" ascent="770" descent="-230" />
<missing-glyph horiz-adv-x="500" />
<glyph unicode=" " />
<glyph unicode="!" d="M228 41q3 18 17 30t31 12t27 -12t7 -30q-3 -17 -17 -29t-31 -12t-27 12t-7 29zM266 207l51 367q3 20 14.5 31.5t19.5 14t15 2.5q5 0 10 -1.5t12 -6t10 -15t1 -25.5l-67 -344q-6 -26 -11.5 -33t-26.5 -7q-8 0 -13 0.5t-10.5 4.5t-4.5 12z" />
<glyph unicode="&#x22;" d="M209 367l22 210q2 23 17 34t27 11t23 -10t4 -35l-48 -211q-6 -27 -26 -27q-22 0 -19 28zM392 367l22 210q2 23 17 34t27 11t23 -10t4 -35l-48 -211q-6 -27 -26 -27q-22 0 -19 28z" />
<glyph unicode="#" d="M70 194q5 26 43 26h60l49 172h-81q-9 0 -15 1t-13 7t-5 18q4 26 42 26h89l38 134q11 33 33 33q11 0 18 -8.5t1 -28.5l-38 -130h128l38 134q11 33 33 33q11 0 18 -8.5t1 -28.5l-38 -130h51q9 0 15 -1t13.5 -7t5.5 -18q-5 -26 -43 -26h-59l-49 -172h80q9 0 15 -1t13 -7 t5 -18q-4 -25 -42 -25h-88l-39 -135q-14 -34 -33 -34q-12 0 -18 8t-4 18l42 143h-127l-40 -135q-14 -34 -33 -34q-12 0 -18 8t-4 18l42 143h-52q-9 0 -15 1t-13.5 7t-5.5 17zM225 220h128l49 172h-128z" />
<glyph unicode="$" d="M88 161q7 42 44 42q13 0 22.5 -10.5t6.5 -26.5q-3 -20 -24 -31q10 -85 110 -98l44 260q-47 9 -80.5 26.5t-47 36.5t-22 39.5t-6 35t1.5 22.5q10 57 66 103.5t141 55.5l8 49q5 32 27 32q21 0 16 -32l-8 -48q87 -8 125 -51.5t28 -103.5q-7 -40 -44 -40q-15 0 -23 10.5 t-6 24.5q3 17 22 30q-10 74 -109 87l-39 -235q41 -8 72 -24t46 -35t24.5 -40.5t9 -40t-1.5 -33.5q-10 -58 -63.5 -108t-144.5 -64l-8 -48q-5 -32 -26 -32q-22 0 -17 32l8 48q-86 9 -124.5 56t-27.5 111zM184 461q-7 -42 25.5 -72t89.5 -41l38 227q-62 -10 -104 -41.5 t-49 -72.5zM290 37q63 11 105 46t49 79q8 44 -21.5 79t-90.5 47z" />
<glyph unicode="%" d="M81 -60q1 4 9 19l401 712q16 26 32 26q10 0 17 -8t5 -18q-1 -4 -9 -19l-407 -721q-11 -17 -26 -17q-10 0 -17 7.5t-5 18.5zM133 570q9 53 37.5 90t62.5 37t51 -36.5t8 -91.5q-9 -54 -37.5 -91t-63.5 -37q-34 0 -50.5 37t-7.5 92zM170 570q-4 -25 0.5 -45.5t12 -30 t15.5 -9.5q13 0 32 24t25 61q6 34 -4.5 58.5t-24.5 24.5t-32 -24.5t-24 -58.5zM334 41q9 54 37.5 91t63.5 37t51 -37.5t7 -90.5q-9 -54 -37 -90.5t-63 -36.5t-51.5 37t-7.5 90zM371 41q-6 -36 4.5 -59.5t24.5 -23.5q13 0 31.5 23.5t24.5 59.5q4 25 -0.5 45t-12 29.5 t-15.5 9.5q-14 0 -32.5 -23.5t-24.5 -60.5z" />
<glyph unicode="&#x26;" d="M52 131q9 58 54 105l84 77q-15 94 -1 170q11 67 45.5 103t74.5 36q31 0 48 -21t18 -50t-3 -60q-14 -80 -138 -191q8 -41 61 -166q49 70 146 249h-13.5t-11 0.5t-9.5 2t-6 3.5t-4 6t0 9q4 21 35 21h95q9 0 14 -0.5t10 -6t3 -15.5q-3 -20 -34 -20h-39l-92 -168 q-40 -69 -75 -114q41 -70 87 -70q45 0 65 75q5 16 20 16q2 0 5 -1t7 -7t2 -16q-6 -40 -34.5 -74.5t-71.5 -34.5q-25 0 -49 16t-33 27.5t-26 34.5q-76 -78 -141 -78q-53 0 -77.5 42t-15.5 100zM103 134q-1 -18 -1 -40.5t13.5 -42.5t37.5 -20q54 0 115 70q-16 30 -36 80 q-20 44 -33 88q-58 -54 -74 -75.5t-22 -59.5zM225 345q102 97 110 146q4 22 -1.5 55.5t-31.5 33.5q-23 0 -45.5 -25t-30.5 -72q-12 -52 -1 -138z" />
<glyph unicode="'" d="M301 367l22 210q2 23 17 34t27 11t23 -10t4 -35l-48 -211q-6 -27 -26 -27q-22 0 -19 28z" />
<glyph unicode="(" d="M231 306q12 72 44.5 138.5t70 110.5t77 77.5t67 49t37.5 15.5q22 0 19 -19q-1 -10 -24 -22q-57 -35 -101.5 -80t-71.5 -92.5t-43.5 -91t-23.5 -86.5q-16 -98 12 -192t110 -157q19 -13 18 -23q-3 -19 -25 -19q-19 0 -59.5 39t-68.5 90q-62 121 -38 262z" />
<glyph unicode=")" d="M81 -66q1 9 24 22q75 46 128.5 111t77.5 122.5t34 116.5q6 34 6 70t-9 88.5t-42.5 105t-88.5 94.5q-11 7 -4.5 20t23.5 13q19 0 59.5 -39t68.5 -90q62 -121 38 -262q-12 -72 -44.5 -138.5t-70 -110.5t-77 -77.5t-67 -49t-37.5 -15.5q-11 0 -15.5 6.5t-3.5 12.5z" />
<glyph unicode="*" d="M107 211q2 13 24 25l141 70l-118 70q-17 11 -15 24q2 9 9.5 16.5t18.5 7.5q4 0 6 -1l123 -80l23 142q5 33 29 33t19 -33l-25 -141l153 80q24 -1 24 -24q-2 -13 -24 -25l-141 -70l129 -76q8 -12 0.5 -27t-24.5 -15q-6 0 -30 15l-99 64l-23 -140q-5 -33 -29 -33t-19 33 l24 141l-152 -80q-24 1 -24 24z" />
<glyph unicode="+" d="M92 306q4 26 42 26h157l27 158q4 38 32 38q24 0 20 -38l-27 -158h157q38 0 34 -26t-42 -26h-157l-27 -158q-4 -38 -32 -38q-24 0 -20 38l27 158h-157q-38 0 -34 26z" />
<glyph unicode="," d="M168 -121q1 11 17 17q83 26 106 94l5 20q-14 -10 -34 -10q-22 0 -35.5 15.5t-9.5 39.5q4 22 21.5 38t42.5 16q31 0 49 -26t11 -67q-8 -49 -41 -88t-64 -55.5t-50 -16.5q-9 0 -14.5 7.5t-3.5 15.5z" />
<glyph unicode="-" d="M110 306q4 26 43 26h328q9 0 15.5 -1t14 -7t5.5 -18q-4 -26 -43 -26h-328q-9 0 -15.5 1t-14 7t-5.5 18z" />
<glyph unicode="." d="M217 55q4 21 22 37.5t42 16.5q22 0 35.5 -16t9.5 -39q-3 -21 -21.5 -37.5t-42.5 -16.5q-22 0 -35.5 16t-9.5 39z" />
<glyph unicode="/" d="M51 -60q1 4 11 20l460 714q16 23 31 23q10 0 17 -8t5 -18q-1 -4 -12 -21l-460 -713q-14 -23 -30 -23q-11 0 -17.5 8t-4.5 18z" />
<glyph unicode="0" d="M104 306q22 134 99.5 225t162.5 91t132 -90.5t24 -226.5q-22 -134 -99.5 -225t-162.5 -91t-132 90.5t-24 226.5zM157 316q-20 -119 13 -202t97 -83t125 83t81 202q19 115 -16.5 189.5t-97.5 74.5q-63 0 -123 -74.5t-79 -189.5z" />
<glyph unicode="1" d="M120 21q3 21 34 21h105l78 470q-76 -58 -127 -58q-24 0 -21 21q4 17 22 20q90 11 154 115q7 12 21 12q19 0 14 -32l-91 -548h105q9 0 14 -0.5t10 -5.5t4 -15q-4 -21 -35 -21h-260q-8 0 -13 0.5t-10.5 5.5t-3.5 15z" />
<glyph unicode="2" d="M59 22q1 10 15 20l260 192q139 102 156 197q11 69 -33.5 109t-116.5 40q-46 0 -87 -25t-62 -69q20 -20 7 -42.5t-37 -22.5q-13 0 -22.5 9.5t-6.5 29.5q11 65 74 113.5t147 48.5q93 0 148 -52.5t40 -138.5q-16 -92 -120 -181q-42 -33 -144 -107.5t-136 -100.5h284 q4 21 6 28.5t8.5 14t19.5 6.5q25 0 20 -32l-5 -27q-3 -19 -10 -25.5t-26 -6.5h-351q-9 0 -14 0.5t-10.5 6t-3.5 15.5z" />
<glyph unicode="3" d="M69 130q3 18 15 28.5t27 10.5t23.5 -10.5t5.5 -25.5q-2 -15 -20 -30q16 -39 60.5 -55.5t88.5 -16.5q72 0 124 42.5t61 96.5q9 53 -27.5 96t-113.5 43h-48q-9 0 -14 0.5t-10 6t-4 15.5q2 13 15 17t54 7q25 1 38.5 3t32 9t37.5 21q52 37 63 98q7 39 -26 66.5t-90 27.5 q-87 0 -136 -42q11 -15 8 -28q-3 -16 -15 -26.5t-26 -10.5t-23.5 10t-6.5 29q9 51 64 80.5t141 29.5q82 0 126 -39.5t35 -95.5q-15 -91 -123 -154q118 -58 100 -163q-12 -72 -81 -126.5t-162 -54.5t-148.5 38.5t-44.5 102.5z" />
<glyph unicode="4" d="M65 206q4 19 8 24l303 376q10 12 16 14.5t22 2.5h28q20 0 25.5 -6t2.5 -26l-63 -374h91q8 0 13 -0.5t10.5 -6t4.5 -15.5q-4 -20 -35 -20h-91l-22 -133h74q9 0 14 -0.5t10 -5.5t4 -15q-4 -21 -35 -21h-186q-8 0 -13 0.5t-10.5 5.5t-3.5 15q3 21 34 21h74l22 133h-271 q-18 0 -23.5 6t-2.5 25zM111 217h258l61 364h-27z" />
<glyph unicode="5" d="M78 136q3 21 16.5 30.5t25.5 9.5q14 0 23.5 -10t6.5 -26q-2 -15 -21 -32q11 -31 36 -49.5t46 -23t42 -4.5q70 0 127.5 45t68.5 110q10 59 -20.5 106t-95.5 47q-92 0 -153 -61q-6 -6 -20 -6q-24 0 -17 32l46 275q3 19 10 25.5t26 6.5h279q9 0 14 -0.5t10 -6t3 -15.5 q-3 -20 -34 -20h-259l-37 -224q73 36 140 36q84 0 128 -58.5t31 -136.5q-14 -82 -88 -139.5t-166 -57.5q-82 0 -130.5 43t-37.5 104z" />
<glyph unicode="6" d="M106 299q24 145 119.5 234t201.5 89q64 0 91 -28t20 -68q-3 -17 -15 -27.5t-28 -10.5q-15 0 -23 10t-6 25q4 17 19 30q-23 27 -66 27q-77 0 -152 -70t-109 -197q97 76 180 76q81 0 128 -58t34 -142q-15 -86 -85 -143t-153 -57q-40 0 -72 15.5t-58 51.5t-32 95t6 148z M151 152q20 -121 118 -121q62 0 115 44.5t65 113.5q10 64 -24 110t-99 46q-63 0 -113.5 -37t-58.5 -89q-7 -38 -3 -67z" />
<glyph unicode="7" d="M139 552l7 43q2 11 4 16t8.5 11t18.5 6q19 0 23 -17h348q9 0 14 -0.5t10 -6t3 -15.5q-1 -7 -6 -12q-284 -238 -338 -560q-7 -28 -30 -28q-26 0 -19 38q8 49 26.5 105t53 129t96.5 154t142 154h-307q-4 -21 -6 -28.5t-8.5 -14t-19.5 -6.5q-25 0 -20 32z" />
<glyph unicode="8" d="M75 170q21 117 176 159q-72 25 -95.5 58.5t-16.5 79.5q10 61 76 108t151 47t135 -46.5t40 -108.5q-7 -45 -41.5 -78.5t-115.5 -59.5q142 -43 121 -159q-12 -73 -83 -127t-162 -54t-144 54t-41 127zM127 171q-10 -58 30.5 -99t109.5 -41t123.5 41t64.5 99q9 53 -30 93.5 t-112 40.5t-125 -40.5t-61 -93.5zM190 466q-8 -46 30.5 -78t100.5 -32t111.5 31.5t57.5 78.5q7 45 -30.5 79.5t-100.5 34.5q-64 0 -113 -34.5t-56 -79.5z" />
<glyph unicode="9" d="M88 85q3 17 15 27.5t28 10.5q15 0 23 -10t6 -25q-3 -15 -18 -31q30 -26 77 -26q79 0 148.5 73.5t99.5 192.5q-96 -75 -179 -75q-81 0 -128 58t-34 142q15 87 86.5 143.5t156.5 56.5q84 0 131 -72.5t20 -237.5q-24 -143 -114.5 -233t-193.5 -90q-43 0 -71 10t-39 26.5 t-13.5 31t-0.5 28.5zM177 422q-10 -64 24 -110t99 -46q66 0 115.5 38.5t57.5 87.5l4 39q1 12 -4.5 44.5t-20.5 56.5q-33 48 -90 48q-63 0 -118 -44.5t-67 -113.5z" />
<glyph unicode=":" d="M217 55q4 21 22 37.5t42 16.5q22 0 35.5 -16t9.5 -39q-3 -21 -21.5 -37.5t-42.5 -16.5q-22 0 -35.5 16t-9.5 39zM270 371q3 21 21.5 37.5t42.5 16.5q22 0 35.5 -16t9.5 -39q-4 -21 -22 -37.5t-42 -16.5q-22 0 -35.5 16t-9.5 39z" />
<glyph unicode=";" d="M168 -121q1 9 13 16q18 9 30 16.5t33.5 31.5t34.5 57q-48 0 -60 27t9 54.5t52 27.5q27 0 39.5 -23.5t5.5 -67.5q-12 -70 -62.5 -116t-76.5 -46q-9 0 -14.5 7.5t-3.5 15.5zM270 371q3 21 21.5 37.5t42.5 16.5q22 0 35.5 -16t9.5 -39q-4 -21 -22 -37.5t-42 -16.5 q-22 0 -35.5 16t-9.5 39z" />
<glyph unicode="&#x3c;" d="M110 306q2 14 22 25l376 214q15 9 23 9q10 0 17 -7t5 -19q-2 -14 -24 -26l-344 -196l278 -196q18 -11 16 -26q-5 -26 -30 -26q-9 0 -21 9l-308 216q-13 10 -10 23z" />
<glyph unicode="=" d="M79 227q4 26 40 26h370q36 0 32 -26q-4 -25 -46 -25h-358q-7 0 -11.5 0.5t-12.5 2.5t-11.5 7.5t-2.5 14.5zM105 385q4 25 46 25h358q7 0 11.5 -0.5t12.5 -2.5t11.5 -7.5t2.5 -14.5q-4 -26 -40 -26h-370q-36 0 -32 26z" />
<glyph unicode="&#x3e;" d="M73 84q2 12 24 26l344 196l-278 196q-18 13 -16 26q5 26 30 26q9 0 21 -9l308 -216q13 -10 10 -23q-2 -15 -22 -25l-377 -214q-13 -9 -22 -9q-10 0 -17 7t-5 19z" />
<glyph unicode="?" d="M150 501q8 47 59 81.5t146 34.5q51 0 89 -9t56 -22.5t30 -29.5t11.5 -31t-0.5 -26q-9 -57 -77 -91q-131 -65 -147 -169l-3 -18q-3 -19 -10.5 -25t-25.5 -6q-22 0 -25.5 10t1.5 34q4 23 9.5 39.5t23 47t55 61.5t92.5 59q52 25 57 58q5 30 -29.5 53t-113.5 23 q-87 0 -137 -46q12 -17 9 -30q-2 -16 -14.5 -26t-26.5 -10t-23.5 10t-5.5 28zM212 41q3 18 17 30t31 12q18 0 28 -12t7 -30q-3 -17 -17 -29t-32 -12q-17 0 -27 12t-7 29z" />
<glyph unicode="@" d="M98 306q22 132 114 221.5t196 89.5q169 0 123 -295q-10 -60 -32.5 -104t-49 -66t-50 -32t-44.5 -10q-56 0 -87.5 55.5t-17.5 140.5q13 82 63 138.5t109 56.5q31 0 82 -36q-24 110 -103 110q-87 0 -166.5 -76.5t-99.5 -193.5q-19 -113 34.5 -191t142.5 -78q67 0 131 51 q5 4 20 4q29 0 26 -19q-4 -23 -63 -50.5t-120 -27.5q-106 0 -168 90t-40 222zM287 305q-11 -64 12.5 -108.5t63.5 -44.5q39 0 78 44t50 109q11 66 -13 110t-64 44q-38 0 -77 -43.5t-50 -110.5z" />
<glyph unicode="A" d="M33 21q2 14 15 20q6 1 48 1l219 550q6 15 14.5 22t15 8t21.5 1q16 0 22.5 -1t12 -8.5t6.5 -22.5l35 -549q41 0 47 -1q12 -5 10 -20q-4 -21 -39 -21h-105q-10 0 -15.5 0.5t-10.5 5.5t-3 15q2 15 14.5 18t48.5 3l-6 129h-184l-50 -129q36 0 47.5 -3t9.5 -18q-4 -21 -37 -21 h-106q-9 0 -14.5 0.5t-11.5 5.5t-4 15zM217 213h162l-16 368h-7z" />
<glyph unicode="B" d="M29 21q3 21 35 21h39l88 527h-39q-9 0 -14 0.5t-10.5 5.5t-4.5 15q4 21 35 21h234q76 0 114 -46t28 -104q-17 -99 -152 -142q144 -36 124 -157q-11 -63 -64.5 -112.5t-130.5 -49.5h-255q-8 0 -13 0.5t-10.5 5.5t-3.5 15zM153 42h142q67 0 109.5 37.5t50.5 84.5 q9 52 -29 92.5t-107 40.5h-123zM203 339h117q73 0 114.5 38.5t49.5 82.5q3 16 0 33.5t-13 35t-33 29t-57 11.5h-140z" />
<glyph unicode="C" d="M94 306q22 134 108 225t184 91q73 0 128 -55q24 35 28 43q12 12 22 12q20 0 15 -32l-23 -143q-2 -11 -4 -16t-9 -10.5t-19 -5.5q-10 0 -15 4t-5.5 8t-1.5 13q0 65 -34 102.5t-85 37.5q-75 0 -147 -78.5t-92 -195.5q-20 -118 26 -196.5t122 -78.5q47 0 98 32t68 104 q5 20 28 20q26 0 22 -24q-11 -68 -77.5 -121t-149.5 -53q-99 0 -154 91t-33 226z" />
<glyph unicode="D" d="M25 21q3 21 35 21h33l88 527h-33q-8 0 -13.5 0.5t-11 5.5t-4.5 14q4 22 36 22h213q96 0 140.5 -92.5t23.5 -217.5q-20 -124 -95.5 -212.5t-170.5 -88.5h-213q-8 0 -13.5 0.5t-11 5.5t-3.5 15zM144 42h109q86 0 149 78t80 181t-19 185.5t-122 82.5h-109z" />
<glyph unicode="E" d="M32 21q3 21 35 21h42l88 527h-42q-8 0 -13.5 0.5t-11 5.5t-4.5 15q4 21 36 21h386q19 0 24 -6.5t2 -25.5l-13 -76q-2 -11 -3.5 -15.5t-8.5 -10.5t-19 -6q-25 0 -20 32l11 66h-274l-39 -231h157q5 27 7.5 36t9 16t18.5 7q25 0 20 -32l-16 -96q-2 -11 -3.5 -15.5t-8 -10.5 t-18.5 -6q-18 0 -20 13t4 46h-157l-42 -254h297l14 82q4 32 31 32q17 0 20.5 -10.5t-0.5 -21.5l-16 -92q-3 -19 -10 -25.5t-26 -6.5h-409q-8 0 -13.5 0.5t-11 5.5t-3.5 15z" />
<glyph unicode="F" d="M34 21q3 21 35 21h45l88 527h-45q-8 0 -13.5 0.5t-11 5.5t-4.5 14q4 22 36 22h394q20 0 24.5 -6.5t1.5 -25.5l-13 -76q-2 -11 -3.5 -15.5t-8 -10.5t-18.5 -6q-25 0 -20 32l11 66h-279l-40 -242h161q4 27 6.5 36.5t9 16t19.5 6.5q25 0 20 -32l-16 -97q-1 -10 -3 -15.5 t-8.5 -11t-18.5 -5.5q-18 0 -21 13t4 46h-161l-40 -242h64q9 0 14 -0.5t10 -5.5t4 -15q-4 -21 -35 -21h-160q-8 0 -13.5 0.5t-11 5.5t-3.5 15z" />
<glyph unicode="G" d="M92 306q22 134 102 225t171 91q63 0 116 -53q20 34 28 43.5t19 9.5q20 0 15 -32l-23 -143q-2 -11 -4 -16t-9 -10.5t-19 -5.5q-21 0 -21 16q0 44 -10.5 75.5t-27.5 46.5t-33.5 21t-33.5 6q-67 0 -134 -78.5t-86 -196.5q-20 -116 19.5 -195t107.5 -79q49 0 92 45t68 140 h-55q-8 0 -13 0.5t-10.5 6t-3.5 15.5q3 20 34 20h124q8 0 13.5 -0.5t11 -5.5t4.5 -14q-1 -8 -5 -12.5t-12.5 -6.5t-15 -2.5t-20.5 -0.5l-31 -184q-1 -10 -3 -15.5t-8.5 -11t-18.5 -5.5q-18 0 -20.5 13.5t4.5 47.5q-74 -72 -145 -72q-91 0 -140 91t-27 226z" />
<glyph unicode="H" d="M28 21q3 21 34 21h36l88 527h-36q-8 0 -13 0.5t-10.5 5.5t-4.5 14q4 22 35 22h123q9 0 14 -0.5t10 -6t3 -15.5q-3 -20 -34 -20h-36l-38 -230h240l38 230h-36q-9 0 -14 0.5t-10 5.5t-4 15q4 21 35 21h123q9 0 14 -0.5t10 -6t3 -15.5q-3 -20 -34 -20h-36l-88 -527h36 q9 0 14 -0.5t10 -5.5t4 -15q-4 -21 -35 -21h-123q-9 0 -14 0.5t-10 6t-3 15.5q3 20 34 20h36l43 255h-240l-43 -255h36q9 0 14 -0.5t10 -5.5t4 -15q-4 -21 -35 -21h-123q-8 0 -13 0.5t-10.5 5.5t-3.5 15z" />
<glyph unicode="I" d="M87 22q3 20 35 20h122l88 527h-122q-8 0 -13.5 0.5t-11 5.5t-4.5 15q4 21 36 21h295q8 0 13.5 -0.5t11 -6t3.5 -15.5q-3 -20 -35 -20h-122l-88 -527h122q8 0 13.5 -0.5t11 -5.5t4.5 -15q-4 -21 -36 -21h-295q-8 0 -13.5 0.5t-11 6t-3.5 15.5z" />
<glyph unicode="J" d="M90 92q4 19 16 28.5t27 9.5t23 -10.5t6 -24.5q-2 -12 -17 -28q34 -36 96 -36q13 0 28.5 3t39 12t41 31.5t23.5 56.5l73 435h-95q-9 0 -14 0.5t-10.5 5.5t-4.5 15q4 21 36 21h187q8 0 13.5 -0.5t11 -5.5t3.5 -15q-3 -21 -35 -21h-41l-74 -441q-10 -63 -65.5 -101 t-123.5 -38q-72 0 -112 28.5t-32 74.5z" />
<glyph unicode="K" d="M32 22q3 20 35 20h31l88 527h-31q-9 0 -14 0.5t-10.5 5.5t-4.5 15q4 21 36 21h104q9 0 14 -0.5t10.5 -6t3.5 -15.5q-3 -20 -35 -20h-33l-53 -315l303 315q-15 0 -22.5 0.5t-16 2t-11 6t-1.5 11.5q4 22 36 22h91q8 0 13.5 -0.5t11 -5.5t3.5 -15q-1 -10 -9 -14.5t-17 -5.5 t-30 -1l-200 -208l126 -319q14 0 20.5 -0.5t14.5 -2t10.5 -6t1.5 -12.5q-4 -21 -37 -21h-77q-9 0 -14 0.5t-10.5 6t-3.5 15.5q2 14 13.5 17t38.5 3l-113 288l-131 -136l-25 -152h33q9 0 14 -0.5t10.5 -5.5t4.5 -15q-4 -21 -36 -21h-104q-9 0 -14 0.5t-10.5 6t-3.5 15.5z" />
<glyph unicode="L" d="M39 21q3 21 34 21h48l88 527h-48q-9 0 -14 0.5t-10 5.5t-4 14q4 22 35 22h167q8 0 13.5 -0.5t11 -6t3.5 -15.5q-3 -20 -35 -20h-68l-88 -527h270l14 82q1 10 3 16t8.5 11t18.5 5q17 0 20.5 -10.5t-0.5 -21.5l-16 -92q-3 -19 -10 -25.5t-26 -6.5h-388q-9 0 -14 0.5 t-10 5.5t-3 15z" />
<glyph unicode="M" d="M23 21q1 10 9 14.5t17.5 5.5t31.5 1l88 527q-17 0 -24.5 0.5t-15.5 2t-10.5 6t-1.5 12.5q4 21 35 21h58q38 0 41 -18l52 -340h2l158 324q9 18 20 26t35 8h58q8 0 13 -0.5t10.5 -5.5t3.5 -15q-1 -10 -9 -14.5t-17.5 -5.5t-31.5 -1l-88 -527q17 0 24.5 -0.5t15.5 -2 t10.5 -6t1.5 -12.5q-4 -21 -35 -21h-85q-8 0 -13 0.5t-10.5 5.5t-3.5 15q1 10 9 14.5t17.5 5.5t31.5 1l88 527h-7l-168 -341q-8 -17 -36 -17q-24 0 -28 13l-55 345h-7l-88 -527q17 0 24 -0.5t15 -2t10.5 -6t1.5 -12.5q-4 -21 -35 -21h-85q-8 0 -13 0.5t-10.5 5.5t-3.5 15z " />
<glyph unicode="N" d="M34 22q3 20 34 20h37l88 527h-37q-9 0 -14 0.5t-10 5.5t-4 15q4 21 35 21h71q13 0 20.5 -1.5t13.5 -8.5t9 -20l110 -539h9l88 527h-36q-8 0 -13 0.5t-10.5 5.5t-4.5 14q4 22 35 22h110q9 0 14 -0.5t10 -6t3 -15.5q-3 -20 -34 -20h-37l-90 -537q-4 -21 -11 -26.5t-27 -5.5 q-13 0 -20 1.5t-14 8t-10 20.5l-110 539h-9l-88 -527h36q9 0 14 -0.5t10 -5.5t4 -15q-4 -21 -35 -21h-110q-9 0 -14 0.5t-10 6t-3 15.5z" />
<glyph unicode="O" d="M110 305q13 78 22.5 124t24.5 86t29.5 57.5t42.5 30.5t57.5 16t79.5 3q37 0 61.5 -1.5t46 -8t33.5 -14.5t20.5 -26.5t10.5 -39t0.5 -56.5t-7 -74.5t-15.5 -96.5q-13 -78 -22.5 -124t-24.5 -85.5t-30 -57.5t-42.5 -30.5t-57 -15.5t-79.5 -3q-37 0 -61.5 1.5t-46.5 7.5 t-33.5 14.5t-20.5 27t-10.5 39t0 56t7 74t15.5 96.5zM142 112q2 -44 28 -62.5t97 -18.5q73 0 105 19.5t50 68.5q24 63 44 195q24 141 19 192q-4 45 -32 59.5t-94 14.5q-71 0 -103.5 -16.5t-50.5 -64.5q-20 -49 -43 -185q-24 -151 -20 -202z" />
<glyph unicode="P" d="M32 21q3 21 35 21h42l88 527h-42q-8 0 -13.5 0.5t-11 5.5t-4.5 15q4 21 36 21h232q81 0 124 -54t31 -125t-72.5 -125t-142.5 -54h-140l-35 -211h42q8 0 13.5 -0.5t11 -5.5t4.5 -15q-4 -21 -36 -21h-134q-8 0 -13.5 0.5t-11 5.5t-3.5 15zM201 296h120q74 0 121 42.5 t56 93.5t-24 94t-107 43h-120z" />
<glyph unicode="Q" d="M110 305q13 78 22.5 124t24.5 86t29.5 57.5t42.5 30.5t57.5 16t79.5 3q37 0 61.5 -1.5t46 -8t33.5 -14.5t20.5 -26.5t10.5 -39t0.5 -56.5t-7 -74.5t-15.5 -96.5q-21 -122 -36 -172q-16 -60 -36.5 -89t-62.5 -45l27 -72q3 -8 8.5 -23t9 -25.5t3.5 -12.5q-2 -10 -25 -10h-9 q-22 0 -26 8l-45 126q-18 -1 -64 -1q-37 0 -61.5 1.5t-46.5 7.5t-33.5 14.5t-20.5 27t-10.5 39t0 56t7 74t15.5 96.5zM140 124q2 -50 25 -71.5t94 -21.5h50l-39 112v4q1 9 24 9h12q11 0 13.5 -1.5t6.5 -9.5l39 -100q23 14 35 28.5t30 71t35 161.5q21 131 21 181 q-1 54 -27 73.5t-100 19.5t-105 -18.5t-51 -67.5q-18 -47 -42 -189q-21 -131 -21 -181z" />
<glyph unicode="R" d="M28 21q3 21 34 21h36l88 527h-36q-8 0 -13 0.5t-10.5 5.5t-4.5 14q4 22 35 22h183q83 0 128.5 -48.5t34.5 -114.5q-16 -89 -120 -143q39 -34 49 -68q5 -21 -7 -93q-10 -46 -6.5 -79.5t26.5 -33.5q14 0 25.5 21.5t14.5 35.5q4 21 28 21q25 0 21 -23q-5 -33 -30.5 -65 t-64.5 -32q-47 0 -64 38q-7 17 -8 37.5t0.5 35.5t8.5 57q7 34 6 56.5t-16 39.5q-31 31 -86 31h-91l-40 -242h36q9 0 14 -0.5t10 -5.5t4 -15q-4 -21 -35 -21h-123q-8 0 -13 0.5t-10.5 5.5t-3.5 15zM197 327h85q71 0 117 37.5t54 83.5q8 45 -26 83t-105 38h-85z" />
<glyph unicode="S" d="M59 21l22 136q2 10 4 15.5t9 11t19 5.5q11 0 16 -4t4.5 -10t-0.5 -12q-6 -67 37 -98q45 -34 121 -34q62 0 105.5 38.5t51.5 86.5q17 100 -102 127l-113 28q-56 17 -83 59.5t-18 92.5q11 64 70.5 111.5t138.5 47.5q85 0 141 -56q15 34 22.5 45t19.5 11q20 0 15 -32 l-22 -136q-2 -10 -4 -15.5t-9 -11t-19 -5.5q-20 0 -21 15q-1 24 -4 41t-14 44t-40 42.5t-73 15.5q-58 0 -101.5 -34t-51.5 -79q-6 -38 15 -67t57 -40l81 -19q63 -15 87 -25.5t48 -38.5q39 -50 28 -116q-12 -69 -72 -120.5t-141 -51.5q-104 0 -168 54q-15 -34 -22 -44 t-19 -10q-20 0 -15 32z" />
<glyph unicode="T" d="M112 503l13 76q3 19 10.5 25.5t26.5 6.5h405q19 0 24 -6.5t2 -25.5l-13 -76q-2 -11 -3.5 -15.5t-8.5 -10.5t-19 -6q-25 0 -20 32l11 66h-157l-88 -527h64q9 0 14 -0.5t10 -5.5t4 -15q-4 -21 -35 -21h-179q-9 0 -14 0.5t-10 6t-3 15.5q3 20 34 20h64l88 527h-158l-11 -66 q-2 -11 -3.5 -15.5t-8.5 -10.5t-19 -6q-25 0 -20 32z" />
<glyph unicode="U" d="M104 590q4 21 36 21h133q8 0 13.5 -0.5t11 -5.5t3.5 -15q-3 -21 -35 -21h-41l-61 -363q-13 -83 20 -129t83 -46t99 46.5t62 128.5l61 363h-41q-8 0 -13.5 0.5t-11 5.5t-4.5 15q4 21 36 21h133q9 0 14 -0.5t10.5 -5.5t3.5 -15q-3 -21 -35 -21h-41l-61 -368 q-16 -90 -80 -151t-139 -61t-119 61.5t-28 150.5l61 368h-41q-9 0 -14 0.5t-10.5 5.5t-4.5 15z" />
<glyph unicode="V" d="M118 590q4 21 36 21h106q8 0 13.5 -0.5t11 -5.5t3.5 -15q-2 -15 -15 -18t-49 -3l41 -536l7 1l218 535q-36 0 -48 3t-10 18q4 21 36 21h106q8 0 13.5 -0.5t11 -5.5t3.5 -15q-1 -10 -9.5 -14.5t-18 -5.5t-32.5 -1l-229 -547q-6 -14 -15 -21t-15.5 -8t-21.5 -1t-22 1t-13 8 t-7 22l-47 546q-18 0 -25.5 0.5t-16 2t-11 6t-1.5 12.5z" />
<glyph unicode="W" d="M111 589q4 22 36 22h82q9 0 14 -0.5t10 -6t3 -15.5q-3 -20 -34 -20h-34l-22 -535h4l116 309q7 16 36 16q30 0 31 -17l12 -308h4l157 535h-34q-8 0 -13 0.5t-10.5 5.5t-4.5 14q4 22 35 22h82q8 0 13.5 -0.5t11 -6t3.5 -15.5q-3 -20 -41 -20l-167 -550q-8 -27 -41 -27 q-29 0 -30 18l-15 302l-119 -306q-10 -14 -34 -14q-33 0 -33 27l17 550h-10q-28 0 -25 20z" />
<glyph unicode="X" d="M33 21q3 21 34 21h29l190 284l-88 243h-30q-9 0 -14 0.5t-10.5 5.5t-4.5 15q4 21 36 21h107q8 0 13 -0.5t10.5 -5.5t3.5 -15q-1 -10 -9 -14.5t-16.5 -5.5t-28.5 -1l66 -185l121 185q-16 0 -23.5 0.5t-15.5 2t-10.5 6t-1.5 12.5q4 21 35 21h108q8 0 13.5 -0.5t11 -6 t3.5 -15.5q-3 -20 -35 -20h-30l-162 -242l104 -285h30q8 0 13.5 -0.5t11 -5.5t4.5 -15q-4 -21 -36 -21h-108q-8 0 -13 0.5t-10.5 5.5t-3.5 15q1 10 9 14.5t17 5.5t30 1l-81 235l-150 -235q17 0 24 -0.5t15.5 -2t11 -6t1.5 -12.5q-4 -21 -36 -21h-108q-8 0 -13 0.5t-10.5 5.5 t-3.5 15z" />
<glyph unicode="Y" d="M119 590q4 21 35 21h108q8 0 13 -0.5t10.5 -5.5t3.5 -15q-1 -10 -9 -14.5t-17 -5.5t-31 -1l79 -280l170 280q-16 0 -23 0.5t-15 2t-10.5 6t-1.5 12.5q4 21 35 21h108q9 0 14 -0.5t10 -6t3 -15.5q-3 -20 -34 -20h-28l-210 -325l-34 -202h36q9 0 14 -0.5t10 -5.5t4 -15 q-4 -21 -35 -21h-123q-9 0 -14 0.5t-10 6t-3 15.5q3 20 34 20h36l34 202l-103 325h-28q-9 0 -14 0.5t-10 5.5t-4 15z" />
<glyph unicode="Z" d="M55 25q4 15 14 26l437 518h-297l-11 -66q-2 -11 -3.5 -15.5t-8.5 -10.5t-19 -6q-25 0 -20 32l13 76q3 19 10.5 25.5t27.5 6.5h345q10 0 15 -1t10 -6.5t3 -17.5q-4 -15 -14 -26l-437 -518h314l14 85q2 10 4 15.5t9 11t19 5.5q17 0 20 -10.5t-1 -21.5l-16 -95 q-3 -19 -10 -25.5t-26 -6.5h-364q-10 0 -15 1t-10 6.5t-3 17.5z" />
<glyph unicode="[" d="M222 -54l120 719q3 19 10 25.5t26 6.5h187q9 0 14 -0.5t10 -6t4 -15.5q-4 -21 -35 -21h-167l-116 -697h167q9 0 14 -0.5t10 -6t3 -15.5q-3 -21 -34 -21h-187q-19 0 -24 6.5t-2 25.5z" />
<glyph unicode="\" d="M177 651q-9 15 0 30.5t26 15.5q16 0 24 -22l222 -715q5 -13 4 -20q-2 -10 -11 -18t-19 -8q-16 0 -24 22z" />
<glyph unicode="]" d="M33 -64q4 21 35 21h167l116 697h-167q-9 0 -14 0.5t-10 6t-3 15.5q3 21 34 21h187q19 0 24 -6.5t2 -25.5l-120 -719q-3 -19 -10 -25.5t-26 -6.5h-187q-9 0 -14 0.5t-10 6t-4 15.5z" />
<glyph unicode="^" d="M157 525q1 11 25 22l159 70q23 10 44 0l135 -70q20 -11 19 -22q-3 -21 -28 -21q-8 0 -28 10l-127 60l-147 -60q-24 -10 -32 -10q-23 0 -20 21z" />
<glyph unicode="_" d="M33 -153q5 26 44 26h328q39 0 34 -26q-4 -26 -43 -26h-328q-9 0 -15.5 1t-14 7t-5.5 18z" />
<glyph unicode="`" d="M281 570q-24 11 -17.5 31.5t29.5 20.5q6 0 14 -4l128 -62q17 -8 15 -20q-1 -9 -8.5 -20t-20.5 -11q-5 0 -7 1z" />
<glyph unicode="a" d="M78 122q12 69 101 105.5t233 38.5q21 126 -121 126q-68 0 -72 -23q-4 -20 -17 -28.5t-26 -8.5q-15 0 -23.5 10t-5.5 27q10 65 150 65q97 0 138 -45t31 -105l-38 -230q30 -12 70 -12q9 0 14 -0.5t10.5 -5.5t4.5 -14q-2 -10 -9.5 -15.5t-15 -6t-21.5 -0.5q-25 0 -39.5 1 t-34.5 10t-29 26q-73 -43 -160 -43q-72 0 -110.5 38t-29.5 90zM129 122q-5 -35 23 -60.5t80 -25.5q57 0 99 19q23 10 36 23t16 22.5t6 27.5l17 98q-122 -4 -196 -33.5t-81 -70.5z" />
<glyph unicode="b" d="M107 32l90 537h-57q-8 0 -13 0.5t-10.5 5.5t-4.5 14q4 22 36 22h75q20 0 24.5 -6.5t1.5 -25.5l-36 -212q82 64 153 64q78 0 124 -64t31 -154q-15 -92 -86 -155.5t-153 -63.5q-64 0 -120 68q-6 -38 -11.5 -50t-22.5 -12q-12 0 -17.5 5t-5 12t1.5 15zM183 187 q-5 -29 2.5 -62.5t33.5 -61t67 -27.5q61 0 116.5 50.5t68.5 126.5q12 72 -22.5 124t-95.5 52q-53 0 -101 -38.5t-56 -87.5z" />
<glyph unicode="c" d="M113 213q6 35 24 71.5t49 71t81.5 56.5t110.5 22q21 0 41 -2t44.5 -8t38 -20t10.5 -35q-3 -17 -15.5 -27t-27.5 -10q-35 0 -28 40q1 5 -11.5 10t-29 7.5t-29.5 2.5q-52 0 -93 -20t-63.5 -50.5t-34.5 -57.5t-16 -51q-13 -74 29.5 -125.5t112.5 -51.5q28 0 51 8t39 23 t23 23t16 23q7 8 22 8q5 0 9 -0.5t9.5 -5t4.5 -13.5q-2 -8 -12.5 -24t-31 -36t-59 -34t-84.5 -14q-92 0 -143.5 64.5t-36.5 154.5z" />
<glyph unicode="d" d="M74 212q16 92 86 155.5t152 63.5q63 0 122 -59l33 197h-57q-8 0 -13 0.5t-10.5 5.5t-4.5 14q4 22 36 22h75q20 0 24.5 -6.5t1.5 -25.5l-90 -537h57q8 0 13 -0.5t10.5 -5.5t4.5 -14q-4 -22 -36 -22h-75q-22 0 -25 13t5 54q-84 -73 -153 -73q-79 0 -125 63.5t-31 154.5z M124 212q-12 -73 23 -124.5t94 -51.5q60 0 107 50.5t56 103.5l12 74q8 48 -23 86.5t-84 38.5q-61 0 -116.5 -50.5t-68.5 -126.5z" />
<glyph unicode="e" d="M94 214q15 91 87.5 155.5t160.5 64.5q91 0 130.5 -60t25.5 -149q-2 -13 -8 -19.5t-11.5 -7.5t-16.5 -1h-320q1 -76 46.5 -118.5t110.5 -42.5q87 0 132 74q7 11 24 11q3 0 6 -0.5t7.5 -2t7 -5.5t1.5 -11q-5 -29 -57 -68.5t-135 -39.5q-95 0 -150.5 64.5t-40.5 155.5z M150 239h299q7 85 -27 119t-87 34q-58 0 -109 -42t-76 -111z" />
<glyph unicode="f" d="M49 22q3 20 35 20h115l57 341h-115q-8 0 -13 0.5t-10.5 5.5t-4.5 14q4 22 36 22h114l11 65q10 60 60.5 93.5t112.5 33.5q11 0 20.5 -1t27 -5t26.5 -15.5t6 -29.5q-2 -16 -15 -26t-26 -10q-18 0 -23.5 15t-3.5 30q-24 0 -39.5 -2t-38.5 -9.5t-38 -27.5t-20 -52l-10 -59 h137q9 0 14 -0.5t10 -6t3 -15.5q-3 -20 -34 -20h-137l-57 -341h115q8 0 13.5 -0.5t11 -5.5t4.5 -15q-4 -21 -36 -21h-280q-8 0 -13.5 0.5t-11 6t-3.5 15.5z" />
<glyph unicode="g" d="M15 -95q15 77 103 125q-23 40 -16 78q7 37 35 70q-32 62 -15 118t70 95.5t112 39.5q53 0 95 -33q59 38 116 38q32 0 46 -14t11 -31q-3 -16 -14 -24t-22 -8q-9 0 -17 8t-9 28q-44 -4 -87 -25q22 -52 15 -94q-11 -65 -65 -110.5t-121 -45.5q-48 0 -93 31q-15 -27 -19 -45 q-3 -26 8 -43q8 -13 15 -16t22 -3q18 -2 31 -2h73q96 0 140 -28q31 -18 42 -48.5t6 -60.5q-10 -62 -84.5 -102t-170.5 -40q-97 0 -157 40t-50 102zM55 -95q-6 -38 44 -69t130 -31t141 31t67 69q6 33 -9.5 54.5t-50.5 30.5t-65.5 11.5t-76.5 2.5q-60 0 -78.5 -2.5 t-40.5 -15.5q-51 -29 -61 -81zM168 275q-8 -46 18.5 -80t72.5 -34q45 0 83 33.5t46 81.5q8 46 -18.5 80t-72.5 34q-45 0 -83 -33.5t-46 -81.5z" />
<glyph unicode="h" d="M18 21q3 21 35 21h56l88 527h-57q-8 0 -13 0.5t-10.5 5.5t-4.5 14q4 22 36 22h75q20 0 24.5 -6.5t1.5 -25.5l-37 -217q82 69 158 69q124 0 101 -138l-42 -251h56q9 0 14 -0.5t10.5 -5.5t4.5 -15q-4 -21 -35 -21h-158q-8 0 -13.5 0.5t-11 5.5t-3.5 15q3 21 35 21h51 l41 245q9 54 -4.5 78t-58.5 24q-51 0 -102 -38.5t-64 -114.5l-32 -194h56q9 0 14 -0.5t10.5 -5.5t4.5 -15q-4 -21 -35 -21h-164q-8 0 -13 0.5t-10.5 5.5t-3.5 15z" />
<glyph unicode="i" d="M86 21q3 21 35 21h136l57 341h-128q-8 0 -13.5 0.5t-11 5.5t-4.5 15q4 21 36 21h147q20 0 24.5 -6.5t1.5 -25.5l-59 -351h119q8 0 13.5 -0.5t11 -5.5t4.5 -15q-4 -21 -36 -21h-305q-8 0 -13.5 0.5t-11 5.5t-3.5 15zM316 563q3 18 17 30t31 12t27 -12t7 -30 q-3 -17 -17 -29t-31 -12t-27 12t-7 29z" />
<glyph unicode="j" d="M23 -167q3 17 15.5 27t26.5 10t23 -10t6 -26l-8 -17q23 -10 72 -10q61 0 99 43q35 40 45 99l73 434h-145q-8 0 -13 0.5t-10.5 5.5t-4.5 14q4 22 36 22h163q20 0 24.5 -6.5t1.5 -25.5l-75 -449q-5 -27 -18 -55t-36 -57.5t-63 -48.5t-90 -19q-17 0 -29 0.5t-33 4t-33.5 10 t-21 20.5t-5.5 34zM372 563q3 18 17 30t31 12t27 -12t7 -30q-3 -17 -17 -29t-31 -12t-27 12t-7 29z" />
<glyph unicode="k" d="M27 22q3 20 34 20h54l88 527h-54q-9 0 -14 0.5t-10 5.5t-4 15q4 21 35 21h67q20 0 24.5 -6.5t1.5 -25.5l-65 -388l236 192h-64q-8 0 -13 0.5t-10.5 5.5t-4.5 14q4 22 35 22h159q8 0 13.5 -0.5t11 -6t3.5 -15.5q-3 -20 -35 -20h-37l-159 -130l127 -211h35q8 0 13.5 -0.5 t11 -5.5t4.5 -15q-4 -21 -36 -21h-122q-8 0 -13 0.5t-10.5 5.5t-3.5 15q2 13 12.5 16t44.5 3h12l-110 183l-109 -85l-16 -96h61q9 0 14 -0.5t10 -5.5t4 -15q-4 -21 -35 -21h-159q-9 0 -14 0.5t-10 6t-3 15.5z" />
<glyph unicode="l" d="M65 21q3 21 35 21h144l88 527h-145q-8 0 -13 0.5t-10.5 5.5t-4.5 14q4 22 36 22h164q19 0 24 -6.5t2 -25.5l-90 -537h145q9 0 14 -0.5t10 -5.5t4 -15q-4 -21 -35 -21h-341q-8 0 -13 0.5t-10.5 5.5t-3.5 15z" />
<glyph unicode="m" d="M3 21q2 15 14 18t46 3l57 341q-34 0 -45 3t-9 18q4 21 36 21h33q10 0 14.5 -1.5t9 -11.5t2.5 -30q61 49 104 49q47 0 65 -64q57 64 116 64q28 0 44 -16t18.5 -42t2 -41t-2.5 -29l-44 -261q34 0 45 -3t9 -18q-4 -21 -36 -21h-77q-8 0 -13.5 0.5t-11 5.5t-3.5 15 q1 10 8.5 15t14.5 5.5t23 0.5l42 252q9 54 0.5 74.5t-30.5 20.5q-38 0 -73 -40t-46 -111l-33 -196q34 0 45 -3t9 -18q-4 -21 -36 -21h-77q-8 0 -13.5 0.5t-11 5.5t-3.5 15q1 10 8.5 15t14.5 5.5t23 0.5l42 252q9 54 0.5 74.5t-30.5 20.5q-37 0 -71.5 -40t-45.5 -111 l-33 -196q34 0 45 -3t9 -18q-4 -21 -36 -21h-91q-8 0 -13 0.5t-11 5.5t-4 15z" />
<glyph unicode="n" d="M18 21q3 21 35 21h56l57 341h-57q-8 0 -13 0.5t-10.5 5.5t-4.5 14q4 22 36 22h75q22 0 25 -12.5t-5 -50.5q82 69 158 69q124 0 101 -138l-42 -251h56q9 0 14 -0.5t10.5 -5.5t4.5 -15q-4 -21 -35 -21h-158q-8 0 -13.5 0.5t-11 5.5t-3.5 15q3 21 35 21h51l41 245 q9 54 -4.5 78t-58.5 24q-51 0 -102 -38.5t-64 -114.5l-32 -194h56q9 0 14 -0.5t10.5 -5.5t4.5 -15q-4 -21 -35 -21h-164q-8 0 -13 0.5t-10.5 5.5t-3.5 15z" />
<glyph unicode="o" d="M96 213q15 92 85 156.5t153 64.5t132 -64.5t34 -156.5q-16 -92 -86.5 -155.5t-152.5 -63.5t-131.5 63.5t-33.5 155.5zM148 220q-13 -76 22.5 -130t97.5 -54q61 0 115 54t67 130q12 74 -25 123t-98 49q-60 0 -113.5 -49t-65.5 -123z" />
<glyph unicode="p" d="M-21 -209q4 22 36 22h56l95 570h-57q-8 0 -13 0.5t-10.5 5.5t-4.5 14q4 22 36 22h75q21 0 24.5 -11.5t-3.5 -46.5q82 64 153 64q78 0 124 -64t31 -154q-15 -92 -86 -155.5t-153 -63.5q-64 0 -120 68l-41 -249h56q9 0 14 -0.5t10.5 -6t3.5 -15.5q-3 -21 -34 -21h-164 q-8 0 -13 0.5t-10.5 5.5t-4.5 15zM183 187q-5 -29 2.5 -62.5t33.5 -61t67 -27.5q61 0 116.5 50.5t68.5 126.5q12 72 -22.5 124t-95.5 52q-53 0 -101 -38.5t-56 -87.5z" />
<glyph unicode="q" d="M78 212q15 92 89 155.5t159 63.5q72 0 127 -73q7 47 13 60t25 13q17 0 20.5 -10.5t-0.5 -21.5l-98 -586h61q9 0 14 -0.5t10 -6t3 -15.5q-3 -21 -34 -21h-173q-9 0 -14 0.5t-10 6t-4 15.5q4 21 35 21h61l43 259q-84 -78 -163 -78q-82 0 -130.5 63.5t-33.5 154.5zM128 212 q-12 -73 26 -124.5t100 -51.5q63 0 112.5 50t58.5 104l7 41q10 59 -19.5 108.5t-88.5 49.5q-67 0 -125 -51t-71 -126z" />
<glyph unicode="r" d="M39 22q3 20 34 20h94l57 341h-94q-9 0 -14 0.5t-10 5.5t-4 15q4 21 35 21h113q20 0 24.5 -6.5t1.5 -25.5l-11 -63q106 101 203 101q27 0 44.5 -5.5t24.5 -14.5t9 -17t1 -17q-3 -15 -14 -24.5t-25 -9.5q-15 0 -22.5 12.5t-3.5 33.5q-100 0 -164 -61.5t-78 -145.5l-23 -140 h125q9 0 14 -0.5t10.5 -5.5t4.5 -15q-4 -21 -36 -21h-269q-9 0 -14 0.5t-10 6t-3 15.5z" />
<glyph unicode="s" d="M80 26l17 100q2 11 3.5 15.5t8.5 10.5t19 6q18 0 21 -12q10 -65 44 -87.5t83 -22.5q72 0 111.5 24t45.5 59q4 21 -7 37t-33.5 25.5t-42.5 15t-45 9.5q-29 4 -45 7t-41.5 9.5t-40 14.5t-28.5 19.5t-19 28.5t-1 38q3 16 12.5 32t30.5 35.5t62.5 31.5t98.5 12q63 0 113 -26 q7 15 12 20.5t17 5.5q20 0 15 -32l-12 -71q-4 -32 -31 -32q-19 0 -21 15q2 37 -17.5 57.5t-84.5 20.5q-73 0 -110.5 -21t-42.5 -48q-5 -29 27.5 -45.5t70.5 -22.5l69 -12q16 -3 28 -5.5t36.5 -12t40 -21.5t26 -34.5t5.5 -50.5q-3 -20 -14.5 -39.5t-33.5 -40t-63.5 -33 t-95.5 -12.5q-78 0 -132 46q-23 -46 -40 -46q-21 0 -16 32z" />
<glyph unicode="t" d="M94 403q4 22 36 22h101l16 95q4 32 30 32q25 0 20 -32l-16 -95h180q9 0 14 -0.5t10 -6t3 -15.5q-3 -20 -34 -20h-180l-43 -257q-1 -16 -3 -36t17.5 -37t60.5 -17q18 0 37.5 5t42 26t28.5 54q4 29 30 29q12 0 17.5 -4.5t5 -11.5t-1.5 -14q-10 -60 -61 -93t-110 -33 q-58 0 -91.5 30.5t-22.5 95.5l44 263h-102q-8 0 -13 0.5t-10.5 5.5t-4.5 14z" />
<glyph unicode="u" d="M81 403q4 22 36 22h75q20 0 24.5 -6.5t1.5 -25.5l-47 -279q-2 -20 -3 -37t19 -29t63 -12q18 0 37 4t43.5 15t42.5 36t24 61l39 231h-57q-8 0 -13 0.5t-10.5 5.5t-4.5 14q4 22 36 22h75q20 0 24.5 -6.5t1.5 -25.5l-59 -351h57q8 0 13 -0.5t10.5 -5.5t4.5 -14 q-4 -22 -36 -22h-75q-10 0 -15 1.5t-9 11.5t-1 30q-73 -49 -141 -49q-61 0 -94 25.5t-23 88.5l46 275h-57q-8 0 -13 0.5t-10.5 5.5t-4.5 14z" />
<glyph unicode="v" d="M93 403q4 22 35 22h121q9 0 14 -0.5t10 -6t3 -15.5q-3 -20 -34 -20h-43l59 -345h20l175 345h-43q-9 0 -14 0.5t-10 5.5t-4 15q4 21 35 21h121q9 0 14 -0.5t10 -6t3 -15.5q-3 -20 -34 -20h-37l-181 -360q-14 -27 -52 -27q-12 0 -18.5 1t-14 7.5t-9.5 19.5l-61 359h-37 q-8 0 -13 0.5t-10.5 5.5t-4.5 14z" />
<glyph unicode="w" d="M85 404q4 21 37 21h119q10 0 15.5 -0.5t10.5 -6t3 -15.5q-3 -20 -36 -20h-59l2 -345h6l87 192q8 17 35 17q32 0 32 -18l17 -191h6l117 345h-59q-10 0 -15.5 0.5t-10.5 5.5t-4 15q4 21 37 21h119q9 0 14.5 -0.5t11 -5.5t3.5 -15q-1 -10 -8 -14.5t-15.5 -5.5t-28.5 -1 l-123 -356q-5 -16 -13.5 -23.5t-29.5 -7.5q-27 0 -35 12l-18 197h-6l-78 -181q-7 -17 -17.5 -22.5t-30.5 -5.5q-23 0 -29 7t-5 24l-5 356q-15 0 -22 0.5t-14 2t-9 6t-1 12.5z" />
<glyph unicode="x" d="M33 21q3 21 35 21h47l161 177l-98 164h-46q-8 0 -13.5 0.5t-11 5.5t-4.5 14q4 22 36 22h121q8 0 13 -0.5t10.5 -5.5t3.5 -15q-1 -10 -9.5 -14.5t-18.5 -5.5t-35 -1l77 -134l119 134q-36 0 -48 3t-10 18q4 21 35 21h121q8 0 13.5 -0.5t11 -6t3.5 -15.5q-3 -20 -35 -20h-46 l-148 -164l105 -177h47q8 0 13.5 -0.5t11 -5.5t4.5 -15q-4 -21 -36 -21h-121q-9 0 -14 0.5t-10 5.5t-3 15q2 15 15 18t49 3l-87 152l-134 -152q38 0 50 -3t10 -18q-4 -21 -35 -21h-121q-8 0 -13 0.5t-11 5.5t-4 15z" />
<glyph unicode="y" d="M19 -161q2 15 13.5 25t27.5 10q15 0 23 -9.5t5 -24.5l-9 -20q4 -13 10 -13q27 0 47.5 11.5t49.5 53.5q8 12 23.5 40.5t26.5 51.5l11 23l-89 396h-35q-8 0 -13 0.5t-10.5 5.5t-4.5 14q4 22 35 22h121q9 0 14 -0.5t10 -6t3 -15.5q-3 -20 -34 -20h-41l74 -348l173 348h-40 q-9 0 -14 0.5t-10 5.5t-4 15q4 21 35 21h121q9 0 14 -0.5t10 -6t3 -15.5q-3 -20 -34 -20h-38l-242 -478q-7 -14 -17 -28.5t-33.5 -44.5t-55 -49t-63.5 -19t-50 22.5t-13 52.5z" />
<glyph unicode="z" d="M40 25q2 11 6 16.5t19 17.5l395 324h-293l-6 -38q-2 -10 -4 -15.5t-9 -11t-19 -5.5q-26 0 -19 32l8 48q3 19 10 25.5t27 6.5h352q10 0 15 -1t10 -6.5t3 -17.5q-3 -16 -26 -34l-395 -324h314l8 50q2 10 4 15.5t9 11t19 5.5q26 0 19 -32l-10 -60q-2 -26 -19 -32h-390 q-10 0 -15.5 1t-10 6.5t-2.5 17.5z" />
<glyph unicode="{" d="M111 306q2 10 9 15.5t12 5.5q75 0 119 17q32 13 41 27.5t16 51.5q28 172 30 178q36 96 208 96q10 0 15.5 -0.5t11 -6t4.5 -15.5q-2 -10 -9 -15.5t-12 -5.5q-133 0 -163 -47l-40 -216q-10 -46 -85 -86q65 -39 54 -99l-27 -167q-5 -13 -2 -27t12 -26t42.5 -20.5t88.5 -9.5 q21 0 17 -20q-3 -22 -37 -22q-89 0 -139 30q-46 27 -33 98l29 172q8 62 -145 71q-21 0 -17 21z" />
<glyph unicode="|" d="M228 -48l118 707q4 38 32 38q24 0 20 -38l-118 -707q-8 -38 -32 -38q-28 0 -20 38z" />
<glyph unicode="}" d="M49 -64q2 10 9 15.5t12 5.5q57 1 93.5 8t52 21t20 23.5t7.5 26.5l31 184q0 5 5 15.5t26 32t54 38.5q-37 22 -48.5 45t-6.5 53l28 167q5 14 2 28.5t-12 26t-42 19.5t-87 9q-23 0 -20 21q3 22 36 22q91 0 141 -30q46 -28 33 -96l-29 -173q-8 -63 145 -72q20 0 16 -21 q-2 -10 -9 -15.5t-12 -5.5q-74 0 -118 -17q-32 -13 -41 -27.5t-16 -51.5q-28 -172 -30 -178q-35 -96 -210 -96q-9 0 -14.5 0.5t-11 6t-4.5 15.5z" />
<glyph unicode="~" d="M138 276q2 12 55 49q50 32 80 32q22 0 44 -18q33 -35 41 -38q3 -1 7 -1q27 0 87 48q11 9 20 9q8 0 13.5 -7t4.5 -16q-2 -14 -55 -48q-50 -32 -80 -32q-24 0 -44 18q-33 35 -41 38q-3 1 -7 1q-27 0 -87 -49q-12 -8 -20 -8t-14 7t-4 15z" />
<glyph unicode="&#xa0;" />
<glyph unicode="&#xa1;" d="M189 -192l66 344q6 25 12.5 32t26.5 7q7 0 12 -0.5t11 -4.5t5 -11l-51 -367q-4 -20 -15 -32t-19 -14.5t-15 -2.5t-14.5 2.5t-15 14.5t-3.5 32zM278 340q3 17 17 29t31 12t27 -12t7 -29t-17 -29t-31 -12t-27 12t-7 29z" />
<glyph unicode="&#xa2;" d="M113 213q7 44 31 86.5t75.5 82t120.5 50.5l11 67q1 9 9 15.5t17 6.5t14.5 -6.5t3.5 -15.5l-11 -65q19 0 30 -1t29.5 -2.5t29.5 -6t22 -11.5t15 -18t2 -26q-3 -17 -15.5 -27t-27.5 -10q-34 0 -28 40q1 4 -7.5 9t-24 8t-32.5 3l-59 -356q77 10 114 74q9 11 25 11 q5 0 9 -0.5t9.5 -5t4.5 -13.5q-1 -7 -10.5 -21.5t-28 -33t-53.5 -34t-77 -19.5l-11 -68q-1 -9 -9 -15.5t-17 -6.5t-14.5 6.5t-3.5 15.5l11 69q-83 14 -125.5 75t-28.5 143zM164 213q-10 -63 20 -109.5t91 -64.5l58 351q-43 -11 -76.5 -33.5t-52 -49.5t-28 -50.5t-12.5 -43.5 z" />
<glyph unicode="&#xa3;" d="M32 74q7 40 47 63.5t88 23.5q21 0 63 -17q-5 48 -32 136h-74q-11 0 -17 7.5t-5 18.5q1 10 10 18t20 8h48q-14 63 -6 103q12 73 71.5 124.5t132.5 51.5q71 0 115.5 -44.5t33.5 -110.5q-2 -14 -14.5 -24.5t-26.5 -10.5t-22.5 10.5t-6.5 24.5q3 14 19 29q-8 35 -37.5 54.5 t-69.5 19.5q-51 0 -93.5 -36.5t-50.5 -87.5q-7 -40 5 -103h174q10 0 17 -7.5t5 -18.5q-1 -11 -10 -18.5t-20 -7.5h-149q7 -22 9 -28t7.5 -24.5t7 -26.5t5 -23.5t4 -25.5t0.5 -23t-2 -25q26 -22 40.5 -32.5t38.5 -21t48 -10.5q55 0 71 99q2 11 11 18t19 7q11 0 17.5 -7.5 t4.5 -17.5q-10 -61 -46.5 -105.5t-85.5 -44.5q-21 0 -45 12t-41 25t-45 37q-58 -74 -158 -74q-37 0 -59 24.5t-16 60.5zM84 74q-2 -14 7.5 -24t24.5 -10q79 0 109 51q-38 19 -67 19q-68 0 -74 -36z" />
<glyph unicode="&#xa4;" d="M133 148q-16 18 14 48l35 29q-37 80 27 162l-26 31q-20 29 -1 45q19 17 44 -8l26 -31q45 26 86 26q39 0 77 -26l34 30q31 24 44 10q16 -18 -13 -47l-35 -29q37 -82 -28 -164l26 -30q20 -29 1 -45q-19 -17 -44 8l-25 31q-46 -26 -85 -26q-42 0 -78 26l-34 -30 q-34 -22 -45 -10zM222 306q-6 -38 16.5 -65t60.5 -27q37 0 68.5 27t37.5 65t-16.5 65t-59.5 27q-38 0 -69.5 -27t-37.5 -65z" />
<glyph unicode="&#xa5;" d="M112 225q1 11 10 18.5t20 7.5h134l-35 110h-81q-11 0 -17 7.5t-4 18.5q1 10 10 17.5t20 7.5h55l-49 157h-28q-9 0 -14 0.5t-10 5.5t-4 15q4 21 35 21h108q8 0 13 -0.5t10.5 -5.5t3.5 -15q-1 -10 -9 -14.5t-17 -5.5t-31 -1l48 -157h106l95 157q-16 0 -23 0.5t-15 2 t-10.5 6t-1.5 12.5q4 21 35 21h108q9 0 14 -0.5t10 -6t3 -15.5q-3 -20 -34 -20h-28l-101 -157h56q11 0 17 -7.5t5 -17.5q-2 -11 -11 -18.5t-20 -7.5h-82l-70 -110h134q11 0 17 -7.5t5 -18.5q-2 -10 -11 -17.5t-20 -7.5h-137l-26 -158h36q9 0 14 -0.5t10 -5.5t4 -15 q-4 -21 -35 -21h-123q-9 0 -14 0.5t-10 6t-3 15.5q3 20 34 20h36l26 158h-137q-11 0 -17 7.5t-4 17.5zM295 361l15 -79l45 79h-60z" />
<glyph unicode="&#xa6;" d="M228 -48l42 249q3 21 29 21q11 0 17.5 -6t5.5 -15l-42 -249q-8 -38 -32 -38q-28 0 -20 38zM304 410l42 249q4 38 32 38q24 0 20 -38l-42 -249q-3 -21 -29 -21q-11 0 -17.5 6t-5.5 15z" />
<glyph unicode="&#xa7;" d="M78 306q6 36 32 65t61 41q-18 30 -12 67q10 63 72 103t136 40q75 0 123.5 -34t39.5 -93q-3 -15 -15 -25.5t-27 -10.5t-24 10.5t-6 25.5q1 16 17 28q-17 47 -117 47q-54 0 -97 -24.5t-50 -66.5q-6 -36 21 -57t74 -36l104 -33q60 -20 95.5 -61.5t25.5 -97.5 q-6 -37 -31.5 -65.5t-60.5 -40.5q18 -31 12 -67q-11 -63 -72.5 -103t-135.5 -40q-75 0 -124 34t-39 93q2 15 14.5 25.5t27.5 10.5t23.5 -10.5t6.5 -25.5q-3 -16 -18 -28q17 -47 117 -47q54 0 97.5 24.5t50.5 66.5q5 36 -22 57t-74 36l-103 33q-60 19 -95.5 61t-26.5 98z M130 306q-6 -39 21 -67t72 -42l103 -33q44 -15 74 -36q27 -2 51 18t28 48q7 39 -20 67t-72 42l-104 33q-43 15 -74 36q-27 2 -51 -18t-28 -48z" />
<glyph unicode="&#xa8;" d="M235 563q2 16 14.5 26.5t27.5 10.5t23.5 -10.5t6.5 -26.5q-2 -15 -14.5 -25.5t-27.5 -10.5t-23.5 10.5t-6.5 25.5zM406 563q2 16 14.5 26.5t27.5 10.5t23.5 -10.5t6.5 -26.5q-2 -15 -14.5 -25.5t-27.5 -10.5t-23.5 10.5t-6.5 25.5z" />
<glyph unicode="&#xa9;" d="M45 262q18 107 107.5 183.5t197.5 76.5q107 0 171.5 -76.5t46.5 -183.5q-18 -108 -107.5 -185t-197.5 -77t-172 76.5t-46 185.5zM64 262q-17 -100 42 -171.5t160 -71.5q100 0 183 71.5t100 171.5q17 99 -42.5 170t-159.5 71t-183 -71t-100 -170zM160 261 q13 81 64.5 135.5t110.5 54.5q44 0 77 -33q16 24 16 26q9 7 13 7q13 0 10 -19l-14 -86q-1 -4 -1 -5t-1 -4.5t-2 -4t-3 -2.5t-5 -2.5t-7 -0.5q-11 0 -13 15q0 39 -20.5 61.5t-51.5 22.5q-45 0 -88 -47.5t-55 -117.5t15.5 -117.5t73.5 -47.5q28 0 58.5 19t40.5 63q4 12 17 12 q16 0 13 -15q-6 -40 -46 -72t-90 -32q-60 0 -93 54.5t-19 135.5z" />
<glyph unicode="&#xaa;" d="M171 407q16 95 233 98q17 94 -86 94h-27q-13 -2 -18.5 -4.5t-7 -5t-2.5 -9.5q-5 -23 -26 -23q-10 0 -15 6t-3 17q7 42 101 42q67 0 95.5 -30.5t21.5 -70.5l-27 -164q20 -9 52 -9h5.5t5.5 -1t4.5 -3.5t0.5 -6.5q-2 -12 -28 -12q-57 0 -70 27q-55 -32 -115 -32 q-49 0 -74.5 25.5t-19.5 61.5zM178 256q2 13 24 13h211q9 0 15 -3.5t5 -9.5q-2 -11 -24 -11h-211q-9 0 -15 3t-5 8zM201 407q-5 -26 15.5 -44.5t58.5 -18.5q40 0 71 14q17 7 26.5 16.5t11.5 16.5t5 20l12 72q-89 -3 -142 -24.5t-58 -51.5z" />
<glyph unicode="&#xab;" d="M101 306q2 15 15 23l254 192q9 7 13 7q13 0 8 -22q-2 -13 -15 -24l-233 -176l175 -176q9 -11 7 -24q-5 -22 -16 -22q-4 0 -11 7l-192 194q-7 7 -5 21zM269 306q2 15 15 23l254 192q8 7 13 7q13 0 8 -22q-2 -12 -16 -24l-232 -176l174 -176q10 -12 8 -24q-5 -22 -16 -22 q-5 0 -11 7l-192 194q-7 5 -5 21z" />
<glyph unicode="&#xac;" d="M105 385q2 11 11 18t19 7h390q11 0 17.5 -7.5t4.5 -17.5l-26 -158q-1 -10 -10 -17.5t-20 -7.5q-10 0 -16.5 7t-4.5 18l22 132h-365q-10 0 -17 7.5t-5 18.5z" />
<glyph unicode="&#xad;" d="M110 306q4 26 43 26h328q9 0 15.5 -1t14 -7t5.5 -18q-4 -26 -43 -26h-328q-9 0 -15.5 1t-14 7t-5.5 18z" />
<glyph unicode="&#xae;" d="M45 262q18 107 107.5 183.5t197.5 76.5q107 0 171.5 -76.5t46.5 -183.5q-18 -108 -107.5 -185t-197.5 -77t-172 76.5t-46 185.5zM64 262q-17 -100 42 -171.5t160 -71.5q100 0 183 71.5t100 171.5q17 99 -42.5 170t-159.5 71t-183 -71t-100 -170zM145 94q2 12 20 12h22 l52 316h-22h-5.5t-5.5 1t-4.5 4t-0.5 7q3 14 21 14h110q50 0 77 -29.5t20 -68.5q-9 -54 -71 -86q23 -21 29 -41q3 -12 -4 -56q-11 -67 12 -67q9 0 15.5 12.5t7.5 21.5q3 12 17 12q15 0 13 -13q-3 -20 -18 -39.5t-39 -19.5q-27 0 -39 23q-8 21 1 78q8 42 -5 58q-19 18 -52 18 h-55l-24 -145h22q5 0 8 -0.5t6.5 -3t2.5 -8.5q-2 -13 -21 -13h-74q-3 0 -5.5 0.5t-5.5 1.5t-4.5 3.5t-0.5 7.5zM245 277h51q43 0 71 22.5t32 50.5q5 27 -15.5 49.5t-63.5 22.5h-51z" />
<glyph unicode="&#xaf;" d="M172 564q4 22 35 22h308q9 0 14 -0.5t10 -6t3 -16.5q-4 -21 -35 -21h-307q-9 0 -14.5 0.5t-10.5 6t-3 15.5z" />
<glyph unicode="&#xb0;" d="M281 545q5 29 29.5 52.5t57.5 23.5q29 0 46.5 -24.5t12.5 -50.5q-5 -29 -28.5 -51.5t-59.5 -22.5q-32 0 -47 23.5t-11 49.5zM319 545q-3 -15 6.5 -24t22.5 -9q15 0 27 9.5t14 24.5q2 14 -6 24.5t-22 10.5q-15 0 -27.5 -10.5t-14.5 -25.5z" />
<glyph unicode="&#xb1;" d="M45 26q5 26 43 26h157l24 144h-157q-38 0 -34 26t42 26h157l27 158q4 39 32 39q24 0 20 -39l-27 -158h157q38 0 34 -26t-42 -26h-157l-24 -144h157q8 0 14.5 -1t13.5 -7t5 -18q-4 -26 -42 -26h-366q-38 0 -34 26z" />
<glyph unicode="&#xb2;" d="M208 326q1 6 9 12l126 96q65 48 73 92q5 32 -15.5 50t-53.5 18q-48 0 -66 -44q4 -8 3 -14q-3 -21 -23 -21q-3 0 -7 1t-8 7t-2 15q6 33 37.5 59t73.5 26q47 0 73.5 -27.5t19.5 -69.5q-9 -54 -75 -104l-109 -81h121q1 8 2.5 11.5t5.5 7t12 3.5q16 0 12 -20l-2 -11 q-2 -17 -14 -20h-174q-5 0 -8.5 0.5t-7.5 4t-3 9.5z" />
<glyph unicode="&#xb3;" d="M214 381q3 22 24 22q14 0 16.5 -11.5t-5.5 -20.5q-3 -5 3 -13t22.5 -15.5t40.5 -7.5q32 0 55.5 19t28.5 45q3 24 -13 43.5t-52 19.5h-23q-6 0 -9 0.5t-5.5 4t-1.5 10.5q2 13 14 14l29 2q35 3 52.5 22.5t19.5 37.5q3 17 -12 29t-40 12q-42 0 -61 -20q7 -11 -2.5 -22 t-19.5 -11q-8 0 -13.5 5t-3.5 16q4 28 33.5 44.5t71.5 16.5q40 0 62 -20.5t17 -49.5q-7 -48 -56 -75q28 -13 38 -35t6 -45q-5 -37 -39.5 -64.5t-80.5 -27.5t-74 21.5t-22 53.5z" />
<glyph unicode="&#xb4;" d="M253 536q2 12 23 20l148 62l16 4q11 0 17.5 -7t4.5 -18q-4 -17 -28 -27l-155 -64l-7 -1q-23 0 -19 31z" />
<glyph unicode="&#xb5;" d="M-21 -209q4 21 36 21h56l95 571h-57q-8 0 -13 0.5t-10.5 5.5t-4.5 14q4 22 36 22h75q20 0 24.5 -6.5t1.5 -25.5l-47 -279q-2 -20 -3 -37t19 -29t63 -12q18 0 37 4t43.5 15t42.5 36t24 61l39 231h-57q-8 0 -13 0.5t-10.5 5.5t-4.5 14q4 22 36 22h75q20 0 24.5 -6.5 t1.5 -25.5l-59 -351h57q8 0 13 -0.5t10.5 -5.5t4.5 -14q-4 -22 -36 -22h-75q-10 0 -15 1.5t-9 11.5t-1 30q-73 -49 -141 -49q-55 0 -83 18l-33 -200h56q9 0 14 -0.5t10.5 -5.5t3.5 -15q-3 -21 -34 -21h-164q-8 0 -13 0.5t-10.5 5.5t-4.5 15z" />
<glyph unicode="&#xb6;" d="M129 468q16 94 89 161.5t161 67.5h216q6 0 9 -0.5t6 -3t2 -7.5q-1 -10 -20 -10h-54l-143 -853q-1 -7 -6.5 -15.5t-10.5 -8.5q-6 0 -8.5 8t-1.5 16l143 853h-71l-143 -853q-1 -7 -6.5 -15.5t-10.5 -8.5t-7.5 8t-1.5 16l70 414q-46 2 -86.5 17t-73 42t-47 71.5t-5.5 100.5z " />
<glyph unicode="&#xb7;" d="M259 306q4 21 22 37.5t42 16.5q22 0 35.5 -16t9.5 -39q-4 -21 -22 -37.5t-42 -16.5q-22 0 -35.5 16t-9.5 39z" />
<glyph unicode="&#xb8;" d="M137 -193q1 10 9 14.5t17 5.5t29 1q51 0 103.5 11.5t57.5 40.5q3 19 -15 34.5t-55 17.5q-16 1 -19.5 11t0.5 22l5 28q4 33 31 33q17 0 20 -13t-4 -41q51 -10 71.5 -35.5t15.5 -56.5q-4 -23 -16.5 -40t-35 -27t-42.5 -16t-52.5 -8.5t-51 -3t-50.5 -0.5q-22 0 -18 22z" />
<glyph unicode="&#xb9;" d="M232 326q3 15 23 15h44l36 214q-27 -22 -55 -22q-16 0 -14 15q3 14 21 14q31 2 61 50q6 11 16 11q15 0 12 -20l-44 -262h44q5 0 8.5 -0.5t6.5 -4t2 -10.5q-2 -14 -22 -14h-121q-5 0 -8.5 0.5t-7 4t-2.5 9.5z" />
<glyph unicode="&#xba;" d="M200 256q2 13 23 13h169q9 0 14.5 -3.5t4.5 -9.5q-2 -11 -23 -11h-169q-9 0 -14.5 3t-4.5 8zM202 470q11 64 59.5 108t105.5 44t90 -44.5t22 -107.5q-10 -62 -59 -106t-104 -44q-56 0 -90 43.5t-24 106.5zM232 476q-9 -55 17 -93.5t71 -38.5q44 0 83 38.5t48 93.5 q9 53 -17.5 88t-70.5 35t-83 -35t-48 -88z" />
<glyph unicode="&#xbb;" d="M67 106q2 14 16 24l232 176l-174 176q-10 10 -8 24q5 22 16 22q5 0 11 -7l190 -192q8 -8 6.5 -22.5t-10.5 -21.5l-258 -194q-8 -7 -13 -7q-13 0 -8 22zM234 106q2 12 16 24l233 176l-175 176q-10 12 -8 24q5 22 17 22q4 0 11 -7l190 -192q9 -12 7 -23q-1 -11 -11 -21 l-258 -194q-9 -7 -13 -7q-14 0 -9 22z" />
<glyph unicode="&#xbc;" d="M83 326q3 15 23 15h44l36 214q-27 -22 -55 -22q-16 0 -14 15q3 14 21 14q31 2 61 50q6 11 16 11q15 0 12 -20l-44 -262h44q5 0 8.5 -0.5t6.5 -4t2 -10.5q-2 -14 -22 -14h-121q-5 0 -8.5 0.5t-7 4t-2.5 9.5zM97 6q1 2 5 7.5t4 6.5l426 593q12 14 25 14q11 0 8 -18 q-3 -11 -11 -19l-424 -592q-12 -14 -22 -14q-15 0 -11 22zM278 104q2 10 7 16l145 183q8 10 21 10h12q13 0 16 -4t1 -17l-30 -179h38q5 0 8.5 -0.5t7 -4t2.5 -9.5q-3 -15 -23 -15h-38l-9 -55h30q5 0 8.5 -0.5t7 -4t2.5 -9.5q-3 -15 -23 -15h-88q-5 0 -8.5 0.5t-6.5 4 t-2 10.5q2 14 22 14h30l9 55h-122q-11 0 -15 3.5t-2 16.5zM313 113h109l29 175z" />
<glyph unicode="&#xbd;" d="M69 6q1 2 5 7.5t4 6.5l426 593q12 14 25 14q11 0 8 -18q-3 -11 -11 -19l-424 -592q-12 -14 -22 -14q-15 0 -11 22zM83 326q3 15 23 15h44l36 214q-27 -22 -55 -22q-16 0 -14 15q3 14 21 14q31 2 61 50q6 11 16 11q15 0 12 -20l-44 -262h44q5 0 8.5 -0.5t6.5 -4t2 -10.5 q-2 -14 -22 -14h-121q-5 0 -8.5 0.5t-7 4t-2.5 9.5zM292 16q1 7 10 13l125 93q67 49 74 92q5 31 -15.5 49t-53.5 18q-20 0 -38.5 -11t-26.5 -28q7 -5 5 -16q-5 -22 -26 -22q-23 0 -19 24q5 33 37.5 58t75.5 25q47 0 74.5 -26.5t20.5 -70.5q-9 -52 -71 -100 q-14 -11 -56.5 -41.5t-56.5 -41.5h119q2 9 3 12.5t5.5 7t12.5 3.5t11.5 -3t3 -7.5t-0.5 -9.5l-2 -13q-2 -12 -7 -16.5t-17 -4.5h-169q-6 0 -9.5 0.5t-6.5 4.5t-2 11z" />
<glyph unicode="&#xbe;" d="M86 381q3 22 23 22q13 0 16.5 -11.5t-4.5 -20.5q-3 -5 2.5 -13t22 -15.5t40.5 -7.5q32 0 55.5 19t28.5 45q3 24 -13 43.5t-52 19.5h-23q-4 0 -6.5 0.5t-5.5 1.5t-4 4.5t0 8.5q2 13 15 14l28 2q35 3 52.5 22.5t19.5 37.5q3 17 -12 29t-40 12q-42 0 -61 -20q7 -11 -2.5 -22 t-19.5 -11q-20 0 -16 21q4 28 33 44.5t71 16.5q40 0 62.5 -20.5t17.5 -49.5q-7 -47 -56 -75q28 -13 38 -35t6 -45q-5 -36 -40 -64t-81 -28t-73.5 21.5t-21.5 53.5zM97 6q1 2 5 7.5t4 6.5l426 593q12 14 25 14q11 0 8 -18q-3 -11 -11 -19l-424 -592q-12 -14 -22 -14 q-15 0 -11 22zM278 104q2 10 7 16l145 183q8 10 21 10h12q13 0 16 -4t1 -17l-30 -179h38q5 0 8.5 -0.5t7 -4t2.5 -9.5q-3 -15 -23 -15h-38l-9 -55h30q5 0 8.5 -0.5t7 -4t2.5 -9.5q-3 -15 -23 -15h-88q-5 0 -8.5 0.5t-6.5 4t-2 10.5q2 14 22 14h30l9 55h-122q-11 0 -15 3.5 t-2 16.5zM313 113h109l29 175z" />
<glyph unicode="&#xbf;" d="M46 -118q9 51 72 93q103 62 121 167l3 17q3 20 10.5 26t25.5 6q22 0 25.5 -9.5t-1.5 -33.5q-4 -23 -9 -39t-20.5 -46.5t-48.5 -62t-81 -60.5q-40 -21 -47 -58q-3 -17 3 -30.5t18.5 -21t25.5 -13t30 -7.5t26 -2.5t18 -0.5q106 0 158 45q-16 23 -2.5 44.5t35.5 21.5 q14 0 23.5 -10t6.5 -28q-5 -33 -29 -56.5t-50 -34.5t-62.5 -17.5t-53 -7t-34.5 -0.5q-41 0 -72.5 7t-47.5 18.5t-27.5 25t-13.5 26.5t-3.5 24t1.5 17zM262 340q3 17 17 29t31 12q18 0 28 -12t7 -29t-17 -29t-32 -12q-17 0 -27 12t-7 29z" />
<glyph unicode="&#xc0;" d="M33 21q2 14 15 20q6 1 48 1l219 550q6 15 14.5 22t15 8t21.5 1q16 0 22.5 -1t12 -8.5t6.5 -22.5l35 -549q41 0 47 -1q12 -5 10 -20q-4 -21 -39 -21h-105q-10 0 -15.5 0.5t-10.5 5.5t-3 15q2 15 14.5 18t48.5 3l-6 129h-184l-50 -129q36 0 47.5 -3t9.5 -18q-4 -21 -37 -21 h-106q-9 0 -14.5 0.5t-11.5 5.5t-4 15zM217 213h162l-16 368h-7zM309 739q-25 12 -18 32t30 20q6 0 14 -4l128 -62q17 -9 15 -21q-1 -9 -8.5 -20t-20.5 -11q-5 1 -7 2z" />
<glyph unicode="&#xc1;" d="M33 21q2 14 15 20q6 1 48 1l219 550q6 15 14.5 22t15 8t21.5 1q16 0 22.5 -1t12 -8.5t6.5 -22.5l35 -549q41 0 47 -1q12 -5 10 -20q-4 -21 -39 -21h-105q-10 0 -15.5 0.5t-10.5 5.5t-3 15q2 15 14.5 18t48.5 3l-6 129h-184l-50 -129q36 0 47.5 -3t9.5 -18q-4 -21 -37 -21 h-106q-9 0 -14.5 0.5t-11.5 5.5t-4 15zM217 213h162l-16 368h-7zM281 704q2 11 23 21l148 62l16 4q11 0 17 -7.5t4 -18.5q-2 -16 -27 -26l-155 -64l-7 -2q-9 0 -14 7t-5.5 13t0.5 11z" />
<glyph unicode="&#xc2;" d="M33 21q2 14 15 20q6 1 48 1l219 550q6 15 14.5 22t15 8t21.5 1q16 0 22.5 -1t12 -8.5t6.5 -22.5l35 -549q41 0 47 -1q12 -5 10 -20q-4 -21 -39 -21h-105q-10 0 -15.5 0.5t-10.5 5.5t-3 15q2 15 14.5 18t48.5 3l-6 129h-184l-50 -129q36 0 47.5 -3t9.5 -18q-4 -21 -37 -21 h-106q-9 0 -14.5 0.5t-11.5 5.5t-4 15zM217 213h162l-16 368h-7zM233 685q2 13 26 22l115 40q14 4 26 0l101 -40q21 -8 17 -26t-27 -18q-7 0 -28 7l-84 30l-94 -30q-26 -7 -32 -7q-24 0 -20 22z" />
<glyph unicode="&#xc3;" d="M33 21q2 14 15 20q6 1 48 1l219 550q6 15 14.5 22t15 8t21.5 1q16 0 22.5 -1t12 -8.5t6.5 -22.5l35 -549q41 0 47 -1q12 -5 10 -20q-4 -21 -39 -21h-105q-10 0 -15.5 0.5t-10.5 5.5t-3 15q2 15 14.5 18t48.5 3l-6 129h-184l-50 -129q36 0 47.5 -3t9.5 -18q-4 -21 -37 -21 h-106q-9 0 -14.5 0.5t-11.5 5.5t-4 15zM206 685q2 12 55 49q50 32 80 32q22 0 44 -18q33 -35 41 -38q3 -1 7 -1q27 0 87 48q11 9 20 9q8 0 13.5 -7t4.5 -16q-2 -14 -55 -48q-47 -32 -80 -32q-24 0 -44 18q-16 18 -22 23.5t-13 10t-13 4.5q-29 0 -87 -48q-12 -8 -20 -8t-14 7 t-4 15zM217 213h162l-16 368h-7z" />
<glyph unicode="&#xc4;" d="M33 21q2 14 15 20q6 1 48 1l219 550q6 15 14.5 22t15 8t21.5 1q16 0 22.5 -1t12 -8.5t6.5 -22.5l35 -549q41 0 47 -1q12 -5 10 -20q-4 -21 -39 -21h-105q-10 0 -15.5 0.5t-10.5 5.5t-3 15q2 15 14.5 18t48.5 3l-6 129h-184l-50 -129q36 0 47.5 -3t9.5 -18q-4 -21 -37 -21 h-106q-9 0 -14.5 0.5t-11.5 5.5t-4 15zM217 213h162l-16 368h-7zM242 699q3 16 15 26t27 10t24 -10.5t6 -25.5q-2 -15 -14.5 -25.5t-27.5 -10.5t-23.5 10.5t-6.5 25.5zM443 699q3 16 15 26t27 10t24 -10.5t6 -25.5q-2 -15 -14.5 -25.5t-27.5 -10.5t-23.5 10.5t-6.5 25.5z " />
<glyph unicode="&#xc5;" d="M33 21q2 14 15 20q6 1 48 1l219 550q6 15 14.5 22t15 8t21.5 1q16 0 22.5 -1t12 -8.5t6.5 -22.5l35 -549q41 0 47 -1q12 -5 10 -20q-4 -21 -39 -21h-105q-10 0 -15.5 0.5t-10.5 5.5t-3 15q2 15 14.5 18t48.5 3l-6 129h-184l-50 -129q36 0 47.5 -3t9.5 -18q-4 -21 -37 -21 h-106q-9 0 -14.5 0.5t-11.5 5.5t-4 15zM217 213h162l-16 368h-7zM277 694q5 30 37.5 51.5t76.5 21.5q43 0 69 -21.5t21 -51.5q-5 -29 -38 -50t-76 -21q-44 0 -69.5 21t-20.5 50zM327 694q-3 -16 11 -25t35 -9t38 9t20 25q2 17 -11.5 26.5t-34.5 9.5q-22 0 -39 -10t-19 -26z " />
<glyph unicode="&#xc6;" d="M29 21q1 10 9 15t16 5.5t26 0.5l195 527q-16 0 -23 0.5t-13 5.5t-5 15q4 21 35 21h290q20 0 24.5 -6.5t1.5 -25.5l-13 -76q-6 -32 -23 -32q-20 0 -14 32l11 66h-139l-39 -231h129q9 0 14 -0.5t10 -6t4 -15.5q-4 -20 -35 -20h-129l-42 -254h147l14 82q6 32 24 32 q20 0 14 -32l-16 -92q-3 -19 -10 -25.5t-26 -6.5h-201q-9 0 -14 0.5t-10.5 6t-3.5 15.5q3 20 44 20l25 147h-133l-55 -147q14 0 20.5 -0.5t14.5 -2t10.5 -6t1.5 -12.5q-4 -21 -35 -21h-74q-8 0 -13 0.5t-10.5 5.5t-3.5 15zM188 232h125l56 337h-57z" />
<glyph unicode="&#xc7;" d="M94 306q22 134 108 225t184 91q73 0 128 -55q24 35 28 43q12 12 22 12q20 0 15 -32l-23 -143q-2 -11 -4 -16t-9 -10.5t-19 -5.5q-10 0 -15 4t-5.5 8t-1.5 13q0 65 -34 102.5t-85 37.5q-75 0 -147 -78.5t-92 -195.5q-20 -118 26 -196.5t122 -78.5q47 0 98 32t68 104 q5 20 28 20q26 0 22 -24q-11 -67 -69 -114t-106 -54l-4 -24q4 0 11 -1.5t23.5 -7.5t28.5 -15t20.5 -26.5t4.5 -40.5t-16.5 -40t-35 -27t-43 -16t-53 -8.5t-51 -3t-50.5 -0.5q-22 0 -18 22q1 10 9.5 15t17 5.5t28.5 0.5q52 0 104 11.5t57 40.5q3 19 -15 34.5t-55 17.5 q-24 1 -18 33l4 23q-102 5 -156 95t-32 223z" />
<glyph unicode="&#xc8;" d="M32 21q3 21 35 21h42l88 527h-42q-8 0 -13.5 0.5t-11 5.5t-4.5 15q4 21 36 21h386q19 0 24 -6.5t2 -25.5l-13 -76q-2 -11 -3.5 -15.5t-8.5 -10.5t-19 -6q-25 0 -20 32l11 66h-274l-39 -231h157q5 27 7.5 36t9 16t18.5 7q25 0 20 -32l-16 -96q-2 -11 -3.5 -15.5t-8 -10.5 t-18.5 -6q-18 0 -20 13t4 46h-157l-42 -254h297l14 82q4 32 31 32q17 0 20.5 -10.5t-0.5 -21.5l-16 -92q-3 -19 -10 -25.5t-26 -6.5h-409q-8 0 -13.5 0.5t-11 5.5t-3.5 15zM309 739q-25 12 -18 32t30 20q6 0 14 -4l128 -62q17 -9 15 -21q-1 -9 -8.5 -20t-20.5 -11q-5 1 -7 2 z" />
<glyph unicode="&#xc9;" d="M32 21q3 21 35 21h42l88 527h-42q-8 0 -13.5 0.5t-11 5.5t-4.5 15q4 21 36 21h386q19 0 24 -6.5t2 -25.5l-13 -76q-2 -11 -3.5 -15.5t-8.5 -10.5t-19 -6q-25 0 -20 32l11 66h-274l-39 -231h157q5 27 7.5 36t9 16t18.5 7q25 0 20 -32l-16 -96q-2 -11 -3.5 -15.5t-8 -10.5 t-18.5 -6q-18 0 -20 13t4 46h-157l-42 -254h297l14 82q4 32 31 32q17 0 20.5 -10.5t-0.5 -21.5l-16 -92q-3 -19 -10 -25.5t-26 -6.5h-409q-8 0 -13.5 0.5t-11 5.5t-3.5 15zM281 704q2 11 23 21l148 62l16 4q11 0 17 -7.5t4 -18.5q-2 -16 -27 -26l-155 -64l-7 -2q-9 0 -14 7 t-5.5 13t0.5 11z" />
<glyph unicode="&#xca;" d="M32 21q3 21 35 21h42l88 527h-42q-8 0 -13.5 0.5t-11 5.5t-4.5 15q4 21 36 21h386q19 0 24 -6.5t2 -25.5l-13 -76q-2 -11 -3.5 -15.5t-8.5 -10.5t-19 -6q-25 0 -20 32l11 66h-274l-39 -231h157q5 27 7.5 36t9 16t18.5 7q25 0 20 -32l-16 -96q-2 -11 -3.5 -15.5t-8 -10.5 t-18.5 -6q-18 0 -20 13t4 46h-157l-42 -254h297l14 82q4 32 31 32q17 0 20.5 -10.5t-0.5 -21.5l-16 -92q-3 -19 -10 -25.5t-26 -6.5h-409q-8 0 -13.5 0.5t-11 5.5t-3.5 15zM233 685q2 13 26 22l115 40q14 4 26 0l101 -40q21 -8 17 -26t-27 -18q-7 0 -28 7l-84 30l-94 -30 q-26 -7 -32 -7q-24 0 -20 22z" />
<glyph unicode="&#xcb;" d="M32 21q3 21 35 21h42l88 527h-42q-8 0 -13.5 0.5t-11 5.5t-4.5 15q4 21 36 21h386q19 0 24 -6.5t2 -25.5l-13 -76q-2 -11 -3.5 -15.5t-8.5 -10.5t-19 -6q-25 0 -20 32l11 66h-274l-39 -231h157q5 27 7.5 36t9 16t18.5 7q25 0 20 -32l-16 -96q-2 -11 -3.5 -15.5t-8 -10.5 t-18.5 -6q-18 0 -20 13t4 46h-157l-42 -254h297l14 82q4 32 31 32q17 0 20.5 -10.5t-0.5 -21.5l-16 -92q-3 -19 -10 -25.5t-26 -6.5h-409q-8 0 -13.5 0.5t-11 5.5t-3.5 15zM242 699q3 16 15 26t27 10t24 -10.5t6 -25.5q-2 -15 -14.5 -25.5t-27.5 -10.5t-23.5 10.5t-6.5 25.5 zM443 699q3 16 15 26t27 10t24 -10.5t6 -25.5q-2 -15 -14.5 -25.5t-27.5 -10.5t-23.5 10.5t-6.5 25.5z" />
<glyph unicode="&#xcc;" d="M87 22q3 20 35 20h122l88 527h-122q-8 0 -13.5 0.5t-11 5.5t-4.5 15q4 21 36 21h295q8 0 13.5 -0.5t11 -6t3.5 -15.5q-3 -20 -35 -20h-122l-88 -527h122q8 0 13.5 -0.5t11 -5.5t4.5 -15q-4 -21 -36 -21h-295q-8 0 -13.5 0.5t-11 6t-3.5 15.5zM309 739q-25 12 -18 32 t30 20q6 0 14 -4l128 -62q17 -9 15 -21q-1 -9 -8.5 -20t-20.5 -11q-5 1 -7 2z" />
<glyph unicode="&#xcd;" d="M87 22q3 20 35 20h122l88 527h-122q-8 0 -13.5 0.5t-11 5.5t-4.5 15q4 21 36 21h295q8 0 13.5 -0.5t11 -6t3.5 -15.5q-3 -20 -35 -20h-122l-88 -527h122q8 0 13.5 -0.5t11 -5.5t4.5 -15q-4 -21 -36 -21h-295q-8 0 -13.5 0.5t-11 6t-3.5 15.5zM281 704q2 11 23 21l148 62 l16 4q11 0 17 -7.5t4 -18.5q-2 -16 -27 -26l-155 -64l-7 -2q-9 0 -14 7t-5.5 13t0.5 11z" />
<glyph unicode="&#xce;" d="M87 22q3 20 35 20h122l88 527h-122q-8 0 -13.5 0.5t-11 5.5t-4.5 15q4 21 36 21h295q8 0 13.5 -0.5t11 -6t3.5 -15.5q-3 -20 -35 -20h-122l-88 -527h122q8 0 13.5 -0.5t11 -5.5t4.5 -15q-4 -21 -36 -21h-295q-8 0 -13.5 0.5t-11 6t-3.5 15.5zM233 685q2 13 26 22l115 40 q14 4 26 0l101 -40q21 -8 17 -26t-27 -18q-7 0 -28 7l-84 30l-94 -30q-26 -7 -32 -7q-24 0 -20 22z" />
<glyph unicode="&#xcf;" d="M87 22q3 20 35 20h122l88 527h-122q-8 0 -13.5 0.5t-11 5.5t-4.5 15q4 21 36 21h295q8 0 13.5 -0.5t11 -6t3.5 -15.5q-3 -20 -35 -20h-122l-88 -527h122q8 0 13.5 -0.5t11 -5.5t4.5 -15q-4 -21 -36 -21h-295q-8 0 -13.5 0.5t-11 6t-3.5 15.5zM242 699q3 16 15 26t27 10 t24 -10.5t6 -25.5q-2 -15 -14.5 -25.5t-27.5 -10.5t-23.5 10.5t-6.5 25.5zM443 699q3 16 15 26t27 10t24 -10.5t6 -25.5q-2 -15 -14.5 -25.5t-27.5 -10.5t-23.5 10.5t-6.5 25.5z" />
<glyph unicode="&#xd0;" d="M25 21q3 21 35 21h33l40 242h-39q-9 0 -14 6t-4 16q1 9 9 15.5t17 6.5h39l40 241h-33q-8 0 -13.5 0.5t-11 5.5t-4.5 14q4 22 36 22h213q96 0 140.5 -92.5t23.5 -217.5q-20 -124 -95.5 -212.5t-170.5 -88.5h-213q-8 0 -13.5 0.5t-11 5.5t-3.5 15zM144 42h109q86 0 149 78 t80 181t-19 185.5t-122 82.5h-109l-40 -241h71q9 0 14.5 -6.5t3.5 -15.5q-1 -10 -9 -16t-17 -6h-71z" />
<glyph unicode="&#xd1;" d="M34 22q3 20 34 20h37l88 527h-37q-9 0 -14 0.5t-10 5.5t-4 15q4 21 35 21h71q13 0 20.5 -1.5t13.5 -8.5t9 -20l110 -539h9l88 527h-36q-8 0 -13 0.5t-10.5 5.5t-4.5 14q4 22 35 22h110q9 0 14 -0.5t10 -6t3 -15.5q-3 -20 -34 -20h-37l-90 -537q-4 -21 -11 -26.5t-27 -5.5 q-13 0 -20 1.5t-14 8t-10 20.5l-110 539h-9l-88 -527h36q9 0 14 -0.5t10 -5.5t4 -15q-4 -21 -35 -21h-110q-9 0 -14 0.5t-10 6t-3 15.5zM206 685q2 12 55 49q50 32 80 32q22 0 44 -18q33 -35 41 -38q3 -1 7 -1q27 0 87 48q11 9 20 9q8 0 13.5 -7t4.5 -16q-2 -14 -55 -48 q-47 -32 -80 -32q-24 0 -44 18q-16 18 -22 23.5t-13 10t-13 4.5q-29 0 -87 -48q-12 -8 -20 -8t-14 7t-4 15z" />
<glyph unicode="&#xd2;" d="M110 305q13 78 22.5 124t24.5 86t29.5 57.5t42.5 30.5t57.5 16t79.5 3q37 0 61.5 -1.5t46 -8t33.5 -14.5t20.5 -26.5t10.5 -39t0.5 -56.5t-7 -74.5t-15.5 -96.5q-13 -78 -22.5 -124t-24.5 -85.5t-30 -57.5t-42.5 -30.5t-57 -15.5t-79.5 -3q-37 0 -61.5 1.5t-46.5 7.5 t-33.5 14.5t-20.5 27t-10.5 39t0 56t7 74t15.5 96.5zM142 112q2 -44 28 -62.5t97 -18.5q73 0 105 19.5t50 68.5q24 63 44 195q24 141 19 192q-4 45 -32 59.5t-94 14.5q-71 0 -103.5 -16.5t-50.5 -64.5q-20 -49 -43 -185q-24 -151 -20 -202zM309 739q-25 12 -18 32t30 20 q6 0 14 -4l128 -62q17 -9 15 -21q-1 -9 -8.5 -20t-20.5 -11q-5 1 -7 2z" />
<glyph unicode="&#xd3;" d="M110 305q13 78 22.5 124t24.5 86t29.5 57.5t42.5 30.5t57.5 16t79.5 3q37 0 61.5 -1.5t46 -8t33.5 -14.5t20.5 -26.5t10.5 -39t0.5 -56.5t-7 -74.5t-15.5 -96.5q-13 -78 -22.5 -124t-24.5 -85.5t-30 -57.5t-42.5 -30.5t-57 -15.5t-79.5 -3q-37 0 -61.5 1.5t-46.5 7.5 t-33.5 14.5t-20.5 27t-10.5 39t0 56t7 74t15.5 96.5zM142 112q2 -44 28 -62.5t97 -18.5q73 0 105 19.5t50 68.5q24 63 44 195q24 141 19 192q-4 45 -32 59.5t-94 14.5q-71 0 -103.5 -16.5t-50.5 -64.5q-20 -49 -43 -185q-24 -151 -20 -202zM281 704q2 11 23 21l148 62l16 4 q11 0 17 -7.5t4 -18.5q-2 -16 -27 -26l-155 -64l-7 -2q-9 0 -14 7t-5.5 13t0.5 11z" />
<glyph unicode="&#xd4;" d="M110 305q13 78 22.5 124t24.5 86t29.5 57.5t42.5 30.5t57.5 16t79.5 3q37 0 61.5 -1.5t46 -8t33.5 -14.5t20.5 -26.5t10.5 -39t0.5 -56.5t-7 -74.5t-15.5 -96.5q-13 -78 -22.5 -124t-24.5 -85.5t-30 -57.5t-42.5 -30.5t-57 -15.5t-79.5 -3q-37 0 -61.5 1.5t-46.5 7.5 t-33.5 14.5t-20.5 27t-10.5 39t0 56t7 74t15.5 96.5zM142 112q2 -44 28 -62.5t97 -18.5q73 0 105 19.5t50 68.5q24 63 44 195q24 141 19 192q-4 45 -32 59.5t-94 14.5q-71 0 -103.5 -16.5t-50.5 -64.5q-20 -49 -43 -185q-24 -151 -20 -202zM233 685q2 13 26 22l115 40 q14 4 26 0l101 -40q21 -8 17 -26t-27 -18q-7 0 -28 7l-84 30l-94 -30q-26 -7 -32 -7q-24 0 -20 22z" />
<glyph unicode="&#xd5;" d="M110 305q13 78 22.5 124t24.5 86t29.5 57.5t42.5 30.5t57.5 16t79.5 3q37 0 61.5 -1.5t46 -8t33.5 -14.5t20.5 -26.5t10.5 -39t0.5 -56.5t-7 -74.5t-15.5 -96.5q-13 -78 -22.5 -124t-24.5 -85.5t-30 -57.5t-42.5 -30.5t-57 -15.5t-79.5 -3q-37 0 -61.5 1.5t-46.5 7.5 t-33.5 14.5t-20.5 27t-10.5 39t0 56t7 74t15.5 96.5zM142 112q2 -44 28 -62.5t97 -18.5q73 0 105 19.5t50 68.5q24 63 44 195q24 141 19 192q-4 45 -32 59.5t-94 14.5q-71 0 -103.5 -16.5t-50.5 -64.5q-20 -49 -43 -185q-24 -151 -20 -202zM206 685q2 12 55 49q50 32 80 32 q22 0 44 -18q33 -35 41 -38q3 -1 7 -1q27 0 87 48q11 9 20 9q8 0 13.5 -7t4.5 -16q-2 -14 -55 -48q-47 -32 -80 -32q-24 0 -44 18q-16 18 -22 23.5t-13 10t-13 4.5q-29 0 -87 -48q-12 -8 -20 -8t-14 7t-4 15z" />
<glyph unicode="&#xd6;" d="M110 305q13 78 22.5 124t24.5 86t29.5 57.5t42.5 30.5t57.5 16t79.5 3q37 0 61.5 -1.5t46 -8t33.5 -14.5t20.5 -26.5t10.5 -39t0.5 -56.5t-7 -74.5t-15.5 -96.5q-13 -78 -22.5 -124t-24.5 -85.5t-30 -57.5t-42.5 -30.5t-57 -15.5t-79.5 -3q-37 0 -61.5 1.5t-46.5 7.5 t-33.5 14.5t-20.5 27t-10.5 39t0 56t7 74t15.5 96.5zM142 112q2 -44 28 -62.5t97 -18.5q73 0 105 19.5t50 68.5q24 63 44 195q24 141 19 192q-4 45 -32 59.5t-94 14.5q-71 0 -103.5 -16.5t-50.5 -64.5q-20 -49 -43 -185q-24 -151 -20 -202zM242 699q3 16 15 26t27 10 t24 -10.5t6 -25.5q-2 -15 -14.5 -25.5t-27.5 -10.5t-23.5 10.5t-6.5 25.5zM443 699q3 16 15 26t27 10t24 -10.5t6 -25.5q-2 -15 -14.5 -25.5t-27.5 -10.5t-23.5 10.5t-6.5 25.5z" />
<glyph unicode="&#xd7;" d="M133 148q-16 18 14 48l130 110l-94 112q-20 29 -1 45q19 17 44 -8l93 -113l129 112q34 22 45 10q16 -18 -13 -47l-131 -111l94 -112q20 -29 1 -45q-19 -17 -44 8l-93 113l-130 -112q-31 -24 -44 -10z" />
<glyph unicode="&#xd8;" d="M88 143q3 55 22 162q13 78 22.5 124t24.5 86t29.5 57.5t42.5 30.5t57.5 16t79.5 3q45 0 79 -2l28 55q10 24 25 24q3 0 7 -1t8.5 -6t3.5 -14q-2 -8 -31 -67q49 -22 53.5 -87.5t-23.5 -218.5q-13 -78 -22.5 -124t-24.5 -85.5t-30 -57.5t-42.5 -30.5t-57 -15.5t-79.5 -3 q-45 0 -80 2l-27 -55q-10 -24 -25 -24q-3 0 -7 1t-8.5 6t-3.5 14q2 8 31 66q-37 18 -46.5 49.5t-5.5 94.5zM148 305q-17 -101 -17.5 -157t7 -70.5t26.5 -31.5l259 527q-20 6 -23 6q-11 1 -41 1q-72 0 -108 -15t-57 -62q-20 -48 -46 -198zM203 38q20 -6 23 -6q11 -1 41 -1 q72 0 108 15t57 62q20 48 46 198q17 101 17.5 157t-7 70.5t-26.5 31.5z" />
<glyph unicode="&#xd9;" d="M104 590q4 21 36 21h133q8 0 13.5 -0.5t11 -5.5t3.5 -15q-3 -21 -35 -21h-41l-61 -363q-13 -83 20 -129t83 -46t99 46.5t62 128.5l61 363h-41q-8 0 -13.5 0.5t-11 5.5t-4.5 15q4 21 36 21h133q9 0 14 -0.5t10.5 -5.5t3.5 -15q-3 -21 -35 -21h-41l-61 -368 q-16 -90 -80 -151t-139 -61t-119 61.5t-28 150.5l61 368h-41q-9 0 -14 0.5t-10.5 5.5t-4.5 15zM309 739q-25 12 -18 32t30 20q6 0 14 -4l128 -62q17 -9 15 -21q-1 -9 -8.5 -20t-20.5 -11q-5 1 -7 2z" />
<glyph unicode="&#xda;" d="M104 590q4 21 36 21h133q8 0 13.5 -0.5t11 -5.5t3.5 -15q-3 -21 -35 -21h-41l-61 -363q-13 -83 20 -129t83 -46t99 46.5t62 128.5l61 363h-41q-8 0 -13.5 0.5t-11 5.5t-4.5 15q4 21 36 21h133q9 0 14 -0.5t10.5 -5.5t3.5 -15q-3 -21 -35 -21h-41l-61 -368 q-16 -90 -80 -151t-139 -61t-119 61.5t-28 150.5l61 368h-41q-9 0 -14 0.5t-10.5 5.5t-4.5 15zM281 704q2 11 23 21l148 62l16 4q11 0 17 -7.5t4 -18.5q-2 -16 -27 -26l-155 -64l-7 -2q-9 0 -14 7t-5.5 13t0.5 11z" />
<glyph unicode="&#xdb;" d="M104 590q4 21 36 21h133q8 0 13.5 -0.5t11 -5.5t3.5 -15q-3 -21 -35 -21h-41l-61 -363q-13 -83 20 -129t83 -46t99 46.5t62 128.5l61 363h-41q-8 0 -13.5 0.5t-11 5.5t-4.5 15q4 21 36 21h133q9 0 14 -0.5t10.5 -5.5t3.5 -15q-3 -21 -35 -21h-41l-61 -368 q-16 -90 -80 -151t-139 -61t-119 61.5t-28 150.5l61 368h-41q-9 0 -14 0.5t-10.5 5.5t-4.5 15zM233 685q2 13 26 22l115 40q14 4 26 0l101 -40q21 -8 17 -26t-27 -18q-7 0 -28 7l-84 30l-94 -30q-26 -7 -32 -7q-24 0 -20 22z" />
<glyph unicode="&#xdc;" d="M104 590q4 21 36 21h133q8 0 13.5 -0.5t11 -5.5t3.5 -15q-3 -21 -35 -21h-41l-61 -363q-13 -83 20 -129t83 -46t99 46.5t62 128.5l61 363h-41q-8 0 -13.5 0.5t-11 5.5t-4.5 15q4 21 36 21h133q9 0 14 -0.5t10.5 -5.5t3.5 -15q-3 -21 -35 -21h-41l-61 -368 q-16 -90 -80 -151t-139 -61t-119 61.5t-28 150.5l61 368h-41q-9 0 -14 0.5t-10.5 5.5t-4.5 15zM242 699q3 16 15 26t27 10t24 -10.5t6 -25.5q-2 -15 -14.5 -25.5t-27.5 -10.5t-23.5 10.5t-6.5 25.5zM443 699q3 16 15 26t27 10t24 -10.5t6 -25.5q-2 -15 -14.5 -25.5 t-27.5 -10.5t-23.5 10.5t-6.5 25.5z" />
<glyph unicode="&#xdd;" d="M119 590q4 21 35 21h108q8 0 13 -0.5t10.5 -5.5t3.5 -15q-1 -10 -9 -14.5t-17 -5.5t-31 -1l79 -280l170 280q-16 0 -23 0.5t-15 2t-10.5 6t-1.5 12.5q4 21 35 21h108q9 0 14 -0.5t10 -6t3 -15.5q-3 -20 -34 -20h-28l-210 -325l-34 -202h36q9 0 14 -0.5t10 -5.5t4 -15 q-4 -21 -35 -21h-123q-9 0 -14 0.5t-10 6t-3 15.5q3 20 34 20h36l34 202l-103 325h-28q-9 0 -14 0.5t-10 5.5t-4 15zM281 704q2 11 23 21l148 62l16 4q11 0 17 -7.5t4 -18.5q-2 -16 -27 -26l-155 -64l-7 -2q-9 0 -14 7t-5.5 13t0.5 11z" />
<glyph unicode="&#xde;" d="M28 21q3 21 34 21h36l88 527h-36q-8 0 -13 0.5t-10.5 5.5t-4.5 14q4 22 35 22h123q9 0 14 -0.5t10 -6t3 -15.5q-3 -20 -34 -20h-36l-14 -84h140q81 0 124 -54t31 -125t-72.5 -125t-142.5 -54h-140l-14 -85h36q9 0 14 -0.5t10 -5.5t4 -15q-4 -21 -35 -21h-123 q-8 0 -13 0.5t-10.5 5.5t-3.5 15zM170 170h120q74 0 121 42.5t56 93.5t-24 93.5t-107 42.5h-120z" />
<glyph unicode="&#xdf;" d="M23 21q3 21 34 21h66l57 341h-66q-8 0 -13 0.5t-10.5 5.5t-4.5 14q4 22 35 22h66l14 83q5 32 27 55t52.5 34t58 15.5t54.5 4.5q72 0 117.5 -28t38.5 -74q-11 -64 -115 -116q111 -88 88 -228q-13 -78 -75.5 -127.5t-133.5 -49.5q-45 0 -66.5 19.5t-17.5 47.5q3 15 14 24 t24 9q15 0 22 -12q4 -9 -1 -38q16 -8 32 -8q49 0 94.5 37t56.5 98q1 19 2.5 44t-7.5 53.5t-23 52.5t-44 41t-71 20q-15 5 -13 21q4 20 23 22q75 2 115.5 32t44.5 57q3 22 -29.5 41.5t-83.5 19.5q-45 0 -84 -16q-21 -9 -32 -19t-13.5 -17t-5.5 -23l-78 -468q-3 -19 -10 -25.5 t-26 -6.5h-86q-8 0 -13 0.5t-10.5 5.5t-3.5 15z" />
<glyph unicode="&#xe0;" d="M78 122q12 69 101 105.5t233 38.5q21 126 -121 126q-68 0 -72 -23q-4 -20 -17 -28.5t-26 -8.5q-15 0 -23.5 10t-5.5 27q10 65 150 65q97 0 138 -45t31 -105l-38 -230q30 -12 70 -12q9 0 14 -0.5t10.5 -5.5t4.5 -14q-2 -10 -9.5 -15.5t-15 -6t-21.5 -0.5q-25 0 -39.5 1 t-34.5 10t-29 26q-73 -43 -160 -43q-72 0 -110.5 38t-29.5 90zM129 122q-5 -35 23 -60.5t80 -25.5q57 0 99 19q23 10 36 23t16 22.5t6 27.5l17 98q-122 -4 -196 -33.5t-81 -70.5zM281 570q-24 11 -17.5 31.5t29.5 20.5q6 0 14 -4l128 -62q17 -8 15 -20q-1 -9 -8.5 -20 t-20.5 -11q-5 0 -7 1z" />
<glyph unicode="&#xe1;" d="M78 122q12 69 101 105.5t233 38.5q21 126 -121 126q-68 0 -72 -23q-4 -20 -17 -28.5t-26 -8.5q-15 0 -23.5 10t-5.5 27q10 65 150 65q97 0 138 -45t31 -105l-38 -230q30 -12 70 -12q9 0 14 -0.5t10.5 -5.5t4.5 -14q-2 -10 -9.5 -15.5t-15 -6t-21.5 -0.5q-25 0 -39.5 1 t-34.5 10t-29 26q-73 -43 -160 -43q-72 0 -110.5 38t-29.5 90zM129 122q-5 -35 23 -60.5t80 -25.5q57 0 99 19q23 10 36 23t16 22.5t6 27.5l17 98q-122 -4 -196 -33.5t-81 -70.5zM253 536q2 12 23 20l148 62l16 4q11 0 17.5 -7t4.5 -18q-4 -17 -28 -27l-155 -64l-7 -1 q-23 0 -19 31z" />
<glyph unicode="&#xe2;" d="M78 122q12 69 101 105.5t233 38.5q21 126 -121 126q-68 0 -72 -23q-4 -20 -17 -28.5t-26 -8.5q-15 0 -23.5 10t-5.5 27q10 65 150 65q97 0 138 -45t31 -105l-38 -230q30 -12 70 -12q9 0 14 -0.5t10.5 -5.5t4.5 -14q-2 -10 -9.5 -15.5t-15 -6t-21.5 -0.5q-25 0 -39.5 1 t-34.5 10t-29 26q-73 -43 -160 -43q-72 0 -110.5 38t-29.5 90zM129 122q-5 -35 23 -60.5t80 -25.5q57 0 99 19q23 10 36 23t16 22.5t6 27.5l17 98q-122 -4 -196 -33.5t-81 -70.5zM208 528q1 7 26 22l114 66q19 11 34 0l94 -66q19 -13 18 -22q-4 -22 -28 -22q-5 0 -27 15 l-80 54l-98 -54q-27 -15 -33 -15q-24 0 -20 22z" />
<glyph unicode="&#xe3;" d="M78 122q12 69 101 105.5t233 38.5q21 126 -121 126q-68 0 -72 -23q-4 -20 -17 -28.5t-26 -8.5q-15 0 -23.5 10t-5.5 27q10 65 150 65q97 0 138 -45t31 -105l-38 -230q30 -12 70 -12q9 0 14 -0.5t10.5 -5.5t4.5 -14q-2 -10 -9.5 -15.5t-15 -6t-21.5 -0.5q-25 0 -39.5 1 t-34.5 10t-29 26q-73 -43 -160 -43q-72 0 -110.5 38t-29.5 90zM129 122q-5 -35 23 -60.5t80 -25.5q57 0 99 19q23 10 36 23t16 22.5t6 27.5l17 98q-122 -4 -196 -33.5t-81 -70.5zM181 534q2 12 55 49q50 32 80 32q22 0 44 -18q33 -35 41 -38q3 -1 7 -1q27 0 87 48q11 9 20 9 q8 0 13.5 -7t4.5 -16q-2 -14 -55 -48q-50 -32 -80 -32q-24 0 -44 18q-33 35 -41 38q-3 1 -7 1q-27 0 -87 -49q-12 -8 -20 -8t-13.5 7t-4.5 15z" />
<glyph unicode="&#xe4;" d="M78 122q12 69 101 105.5t233 38.5q21 126 -121 126q-68 0 -72 -23q-4 -20 -17 -28.5t-26 -8.5q-15 0 -23.5 10t-5.5 27q10 65 150 65q97 0 138 -45t31 -105l-38 -230q30 -12 70 -12q9 0 14 -0.5t10.5 -5.5t4.5 -14q-2 -10 -9.5 -15.5t-15 -6t-21.5 -0.5q-25 0 -39.5 1 t-34.5 10t-29 26q-73 -43 -160 -43q-72 0 -110.5 38t-29.5 90zM129 122q-5 -35 23 -60.5t80 -25.5q57 0 99 19q23 10 36 23t16 22.5t6 27.5l17 98q-122 -4 -196 -33.5t-81 -70.5zM235 563q2 16 14.5 26.5t27.5 10.5t23.5 -10.5t6.5 -26.5q-2 -15 -14.5 -25.5t-27.5 -10.5 t-23.5 10.5t-6.5 25.5zM406 563q2 16 14.5 26.5t27.5 10.5t23.5 -10.5t6.5 -26.5q-2 -15 -14.5 -25.5t-27.5 -10.5t-23.5 10.5t-6.5 25.5z" />
<glyph unicode="&#xe5;" d="M78 122q12 69 101 105.5t233 38.5q21 126 -121 126q-68 0 -72 -23q-4 -20 -17 -28.5t-26 -8.5q-15 0 -23.5 10t-5.5 27q10 65 150 65q97 0 138 -45t31 -105l-38 -230q30 -12 70 -12q9 0 14 -0.5t10.5 -5.5t4.5 -14q-2 -10 -9.5 -15.5t-15 -6t-21.5 -0.5q-25 0 -39.5 1 t-34.5 10t-29 26q-73 -43 -160 -43q-72 0 -110.5 38t-29.5 90zM129 122q-5 -35 23 -60.5t80 -25.5q57 0 99 19q23 10 36 23t16 22.5t6 27.5l17 98q-122 -4 -196 -33.5t-81 -70.5zM255 563q5 30 37.5 51.5t76.5 21.5q43 0 69 -21.5t21 -51.5q-5 -29 -37.5 -50t-76.5 -21 q-43 0 -69 21t-21 50zM305 563q-3 -16 11 -25t35 -9t38 9t20 25q3 17 -11 26.5t-35 9.5t-38 -9.5t-20 -26.5z" />
<glyph unicode="&#xe6;" d="M55 112q9 59 71.5 91t155.5 33l8 44q9 54 -11.5 83t-63.5 29q-13 0 -25.5 -5t-13.5 -10v-4t-1 -5q-8 -36 -41 -36q-15 0 -23.5 10t-5.5 27q4 27 33 46t87 19q72 0 105 -85q63 85 125 85q54 0 77.5 -54t8.5 -149q-4 -20 -10.5 -27t-26.5 -7h-189q-6 -75 21.5 -118 t67.5 -43q48 0 77 67q13 18 22 18q8 0 13 -5.5t3 -13.5q-4 -26 -39.5 -67t-87.5 -41q-28 0 -52 17.5t-32 29.5t-20 33q-61 -80 -146 -80q-48 0 -71.5 36.5t-15.5 81.5zM92 113q-5 -30 11.5 -53.5t51.5 -23.5q37 0 71 24q31 21 37 68q7 40 14 68q-77 -3 -128 -25.5t-57 -57.5 zM322 239h182q10 81 -8 117t-48 36q-36 0 -73 -45.5t-53 -107.5z" />
<glyph unicode="&#xe7;" d="M113 213q6 35 24 71.5t49 71t81.5 56.5t110.5 22q25 0 42 -1.5t43.5 -6.5t39 -19.5t9.5 -37.5q-3 -17 -15.5 -27t-27.5 -10q-34 0 -28 40q1 5 -11.5 10t-29 7.5t-29.5 2.5q-52 0 -93 -20t-63.5 -50.5t-34.5 -57.5t-16 -51q-13 -74 29.5 -125.5t112.5 -51.5q28 0 51 8 t39 23t23 23t16 23q7 8 22 8q5 0 9.5 -0.5t10.5 -5t3 -13.5q-15 -45 -62.5 -73t-84.5 -32l-4 -25q4 -1 11 -2t23.5 -7.5t28.5 -16t20.5 -27t4.5 -39.5q-4 -23 -16.5 -40t-35 -27t-43 -16t-53 -8.5t-51 -3t-50.5 -0.5q-22 0 -18 22q1 10 9.5 15t17 5.5t28.5 0.5 q52 0 104 11.5t57 40.5q3 19 -15 34.5t-55 17.5q-24 1 -18 33l5 29q-90 8 -137 70.5t-33 148.5z" />
<glyph unicode="&#xe8;" d="M94 214q15 91 87.5 155.5t160.5 64.5q91 0 130.5 -60t25.5 -149q-2 -13 -8 -19.5t-11.5 -7.5t-16.5 -1h-320q1 -76 46.5 -118.5t110.5 -42.5q87 0 132 74q7 11 24 11q3 0 6 -0.5t7.5 -2t7 -5.5t1.5 -11q-5 -29 -57 -68.5t-135 -39.5q-95 0 -150.5 64.5t-40.5 155.5z M150 239h299q7 85 -27 119t-87 34q-58 0 -109 -42t-76 -111zM281 570q-24 11 -17.5 31.5t29.5 20.5q6 0 14 -4l128 -62q17 -8 15 -20q-1 -9 -8.5 -20t-20.5 -11q-5 0 -7 1z" />
<glyph unicode="&#xe9;" d="M94 214q15 91 87.5 155.5t160.5 64.5q91 0 130.5 -60t25.5 -149q-2 -13 -8 -19.5t-11.5 -7.5t-16.5 -1h-320q1 -76 46.5 -118.5t110.5 -42.5q87 0 132 74q7 11 24 11q3 0 6 -0.5t7.5 -2t7 -5.5t1.5 -11q-5 -29 -57 -68.5t-135 -39.5q-95 0 -150.5 64.5t-40.5 155.5z M150 239h299q7 85 -27 119t-87 34q-58 0 -109 -42t-76 -111zM253 536q2 12 23 20l148 62l16 4q11 0 17.5 -7t4.5 -18q-4 -17 -28 -27l-155 -64l-7 -1q-23 0 -19 31z" />
<glyph unicode="&#xea;" d="M94 214q15 91 87.5 155.5t160.5 64.5q91 0 130.5 -60t25.5 -149q-2 -13 -8 -19.5t-11.5 -7.5t-16.5 -1h-320q1 -76 46.5 -118.5t110.5 -42.5q87 0 132 74q7 11 24 11q3 0 6 -0.5t7.5 -2t7 -5.5t1.5 -11q-5 -29 -57 -68.5t-135 -39.5q-95 0 -150.5 64.5t-40.5 155.5z M150 239h299q7 85 -27 119t-87 34q-58 0 -109 -42t-76 -111zM208 528q1 7 26 22l114 66q19 11 34 0l94 -66q19 -13 18 -22q-4 -22 -28 -22q-5 0 -27 15l-80 54l-98 -54q-27 -15 -33 -15q-24 0 -20 22z" />
<glyph unicode="&#xeb;" d="M94 214q15 91 87.5 155.5t160.5 64.5q91 0 130.5 -60t25.5 -149q-2 -13 -8 -19.5t-11.5 -7.5t-16.5 -1h-320q1 -76 46.5 -118.5t110.5 -42.5q87 0 132 74q7 11 24 11q3 0 6 -0.5t7.5 -2t7 -5.5t1.5 -11q-5 -29 -57 -68.5t-135 -39.5q-95 0 -150.5 64.5t-40.5 155.5z M150 239h299q7 85 -27 119t-87 34q-58 0 -109 -42t-76 -111zM235 563q2 16 14.5 26.5t27.5 10.5t23.5 -10.5t6.5 -26.5q-2 -15 -14.5 -25.5t-27.5 -10.5t-23.5 10.5t-6.5 25.5zM406 563q2 16 14.5 26.5t27.5 10.5t23.5 -10.5t6.5 -26.5q-2 -15 -14.5 -25.5t-27.5 -10.5 t-23.5 10.5t-6.5 25.5z" />
<glyph unicode="&#xec;" d="M86 21q3 21 35 21h136l57 341h-128q-8 0 -13.5 0.5t-11 5.5t-4.5 15q4 21 36 21h147q20 0 24.5 -6.5t1.5 -25.5l-59 -351h119q8 0 13.5 -0.5t11 -5.5t4.5 -15q-4 -21 -36 -21h-305q-8 0 -13.5 0.5t-11 5.5t-3.5 15zM281 570q-24 11 -17.5 31.5t29.5 20.5q6 0 14 -4 l128 -62q17 -8 15 -20q-1 -9 -8.5 -20t-20.5 -11q-5 0 -7 1z" />
<glyph unicode="&#xed;" d="M86 21q3 21 35 21h136l57 341h-128q-8 0 -13.5 0.5t-11 5.5t-4.5 15q4 21 36 21h147q20 0 24.5 -6.5t1.5 -25.5l-59 -351h119q8 0 13.5 -0.5t11 -5.5t4.5 -15q-4 -21 -36 -21h-305q-8 0 -13.5 0.5t-11 5.5t-3.5 15zM253 536q2 12 23 20l148 62l16 4q11 0 17.5 -7t4.5 -18 q-4 -17 -28 -27l-155 -64l-7 -1q-23 0 -19 31z" />
<glyph unicode="&#xee;" d="M86 21q3 21 35 21h136l57 341h-128q-8 0 -13.5 0.5t-11 5.5t-4.5 15q4 21 36 21h147q20 0 24.5 -6.5t1.5 -25.5l-59 -351h119q8 0 13.5 -0.5t11 -5.5t4.5 -15q-4 -21 -36 -21h-305q-8 0 -13.5 0.5t-11 5.5t-3.5 15zM208 528q1 7 26 22l114 66q19 11 34 0l94 -66 q19 -13 18 -22q-4 -22 -28 -22q-5 0 -27 15l-80 54l-98 -54q-27 -15 -33 -15q-24 0 -20 22z" />
<glyph unicode="&#xef;" d="M86 21q3 21 35 21h136l57 341h-128q-8 0 -13.5 0.5t-11 5.5t-4.5 15q4 21 36 21h147q20 0 24.5 -6.5t1.5 -25.5l-59 -351h119q8 0 13.5 -0.5t11 -5.5t4.5 -15q-4 -21 -36 -21h-305q-8 0 -13.5 0.5t-11 5.5t-3.5 15zM235 563q2 16 14.5 26.5t27.5 10.5t23.5 -10.5 t6.5 -26.5q-2 -15 -14.5 -25.5t-27.5 -10.5t-23.5 10.5t-6.5 25.5zM406 563q2 16 14.5 26.5t27.5 10.5t23.5 -10.5t6.5 -26.5q-2 -15 -14.5 -25.5t-27.5 -10.5t-23.5 10.5t-6.5 25.5z" />
<glyph unicode="&#xf0;" d="M96 213q15 92 85 156.5t153 64.5q64 0 131 -59q-4 97 -32 149l-31 -29q-10 -7 -19 -7t-14 6.5t-3 15.5q1 7 9 15l31 28q-38 22 -75 22q-9 0 -14.5 6.5t-3.5 15.5q1 8 8.5 14.5t16.5 6.5q57 0 102 -35l33 29q7 6 16 6q15 0 18 -13.5t-7 -22.5l-35 -29q71 -115 35 -340 q-16 -93 -87 -156q-69 -63 -152 -63q-82 0 -131.5 63.5t-33.5 155.5zM148 220q-13 -76 22.5 -130t97.5 -54q61 0 115 54t67 130q12 74 -25 123t-98 49q-60 0 -113.5 -49t-65.5 -123z" />
<glyph unicode="&#xf1;" d="M18 21q3 21 35 21h56l57 341h-57q-8 0 -13 0.5t-10.5 5.5t-4.5 14q4 22 36 22h75q22 0 25 -12.5t-5 -50.5q82 69 158 69q124 0 101 -138l-42 -251h56q9 0 14 -0.5t10.5 -5.5t4.5 -15q-4 -21 -35 -21h-158q-8 0 -13.5 0.5t-11 5.5t-3.5 15q3 21 35 21h51l41 245 q9 54 -4.5 78t-58.5 24q-51 0 -102 -38.5t-64 -114.5l-32 -194h56q9 0 14 -0.5t10.5 -5.5t4.5 -15q-4 -21 -35 -21h-164q-8 0 -13 0.5t-10.5 5.5t-3.5 15zM181 534q2 12 55 49q50 32 80 32q22 0 44 -18q33 -35 41 -38q3 -1 7 -1q27 0 87 48q11 9 20 9q8 0 13.5 -7t4.5 -16 q-2 -14 -55 -48q-50 -32 -80 -32q-24 0 -44 18q-33 35 -41 38q-3 1 -7 1q-27 0 -87 -49q-12 -8 -20 -8t-13.5 7t-4.5 15z" />
<glyph unicode="&#xf2;" d="M96 213q15 92 85 156.5t153 64.5t132 -64.5t34 -156.5q-16 -92 -86.5 -155.5t-152.5 -63.5t-131.5 63.5t-33.5 155.5zM148 220q-13 -76 22.5 -130t97.5 -54q61 0 115 54t67 130q12 74 -25 123t-98 49q-60 0 -113.5 -49t-65.5 -123zM281 570q-24 11 -17.5 31.5t29.5 20.5 q6 0 14 -4l128 -62q17 -8 15 -20q-1 -9 -8.5 -20t-20.5 -11q-5 0 -7 1z" />
<glyph unicode="&#xf3;" d="M96 213q15 92 85 156.5t153 64.5t132 -64.5t34 -156.5q-16 -92 -86.5 -155.5t-152.5 -63.5t-131.5 63.5t-33.5 155.5zM148 220q-13 -76 22.5 -130t97.5 -54q61 0 115 54t67 130q12 74 -25 123t-98 49q-60 0 -113.5 -49t-65.5 -123zM253 536q2 12 23 20l148 62l16 4 q11 0 17.5 -7t4.5 -18q-4 -17 -28 -27l-155 -64l-7 -1q-23 0 -19 31z" />
<glyph unicode="&#xf4;" d="M96 213q15 92 85 156.5t153 64.5t132 -64.5t34 -156.5q-16 -92 -86.5 -155.5t-152.5 -63.5t-131.5 63.5t-33.5 155.5zM148 220q-13 -76 22.5 -130t97.5 -54q61 0 115 54t67 130q12 74 -25 123t-98 49q-60 0 -113.5 -49t-65.5 -123zM208 528q1 7 26 22l114 66q19 11 34 0 l94 -66q19 -13 18 -22q-4 -22 -28 -22q-5 0 -27 15l-80 54l-98 -54q-27 -15 -33 -15q-24 0 -20 22z" />
<glyph unicode="&#xf5;" d="M96 213q15 92 85 156.5t153 64.5t132 -64.5t34 -156.5q-16 -92 -86.5 -155.5t-152.5 -63.5t-131.5 63.5t-33.5 155.5zM148 220q-13 -76 22.5 -130t97.5 -54q61 0 115 54t67 130q12 74 -25 123t-98 49q-60 0 -113.5 -49t-65.5 -123zM181 534q2 12 55 49q50 32 80 32 q22 0 44 -18q33 -35 41 -38q3 -1 7 -1q27 0 87 48q11 9 20 9q8 0 13.5 -7t4.5 -16q-2 -14 -55 -48q-50 -32 -80 -32q-24 0 -44 18q-33 35 -41 38q-3 1 -7 1q-27 0 -87 -49q-12 -8 -20 -8t-13.5 7t-4.5 15z" />
<glyph unicode="&#xf6;" d="M96 213q15 92 85 156.5t153 64.5t132 -64.5t34 -156.5q-16 -92 -86.5 -155.5t-152.5 -63.5t-131.5 63.5t-33.5 155.5zM148 220q-13 -76 22.5 -130t97.5 -54q61 0 115 54t67 130q12 74 -25 123t-98 49q-60 0 -113.5 -49t-65.5 -123zM235 563q2 16 14.5 26.5t27.5 10.5 t23.5 -10.5t6.5 -26.5q-2 -15 -14.5 -25.5t-27.5 -10.5t-23.5 10.5t-6.5 25.5zM406 563q2 16 14.5 26.5t27.5 10.5t23.5 -10.5t6.5 -26.5q-2 -15 -14.5 -25.5t-27.5 -10.5t-23.5 10.5t-6.5 25.5z" />
<glyph unicode="&#xf7;" d="M92 306q4 26 46 26h358q10 0 16.5 -1t15 -7t6.5 -18q-4 -26 -40 -26h-370q-36 0 -32 26zM222 87q3 21 21.5 37.5t42.5 16.5q22 0 35 -16t9 -39q-3 -21 -21.5 -37.5t-42.5 -16.5q-22 0 -35 16t-9 39zM295 525q3 21 21.5 37.5t42.5 16.5q22 0 35 -16t9 -39 q-3 -21 -21.5 -37.5t-42.5 -16.5q-22 0 -35 16t-9 39z" />
<glyph unicode="&#xf8;" d="M25 -124q1 5 22 34l94 125q-75 75 -57 178q15 91 88 156t162 65q41 0 89 -21l106 142q11 15 21 15q8 0 14.5 -5.5t5.5 -15.5q-2 -7 -9 -17l-105 -141q73 -79 56 -178q-16 -91 -90 -155t-161 -64q-44 0 -87 20l-113 -151q-8 -8 -16 -8t-14.5 5.5t-5.5 15.5zM121 213 q-14 -77 46 -143l229 308q-37 14 -69 14q-73 0 -133.5 -52.5t-72.5 -126.5zM201 49q37 -13 67 -13q73 0 133.5 51.5t73.5 125.5q12 80 -47 142z" />
<glyph unicode="&#xf9;" d="M81 403q4 22 36 22h75q20 0 24.5 -6.5t1.5 -25.5l-47 -279q-2 -20 -3 -37t19 -29t63 -12q18 0 37 4t43.5 15t42.5 36t24 61l39 231h-57q-8 0 -13 0.5t-10.5 5.5t-4.5 14q4 22 36 22h75q20 0 24.5 -6.5t1.5 -25.5l-59 -351h57q8 0 13 -0.5t10.5 -5.5t4.5 -14 q-4 -22 -36 -22h-75q-10 0 -15 1.5t-9 11.5t-1 30q-73 -49 -141 -49q-61 0 -94 25.5t-23 88.5l46 275h-57q-8 0 -13 0.5t-10.5 5.5t-4.5 14zM281 570q-24 11 -17.5 31.5t29.5 20.5q6 0 14 -4l128 -62q17 -8 15 -20q-1 -9 -8.5 -20t-20.5 -11q-5 0 -7 1z" />
<glyph unicode="&#xfa;" d="M81 403q4 22 36 22h75q20 0 24.5 -6.5t1.5 -25.5l-47 -279q-2 -20 -3 -37t19 -29t63 -12q18 0 37 4t43.5 15t42.5 36t24 61l39 231h-57q-8 0 -13 0.5t-10.5 5.5t-4.5 14q4 22 36 22h75q20 0 24.5 -6.5t1.5 -25.5l-59 -351h57q8 0 13 -0.5t10.5 -5.5t4.5 -14 q-4 -22 -36 -22h-75q-10 0 -15 1.5t-9 11.5t-1 30q-73 -49 -141 -49q-61 0 -94 25.5t-23 88.5l46 275h-57q-8 0 -13 0.5t-10.5 5.5t-4.5 14zM253 536q2 12 23 20l148 62l16 4q11 0 17.5 -7t4.5 -18q-4 -17 -28 -27l-155 -64l-7 -1q-23 0 -19 31z" />
<glyph unicode="&#xfb;" d="M81 403q4 22 36 22h75q20 0 24.5 -6.5t1.5 -25.5l-47 -279q-2 -20 -3 -37t19 -29t63 -12q18 0 37 4t43.5 15t42.5 36t24 61l39 231h-57q-8 0 -13 0.5t-10.5 5.5t-4.5 14q4 22 36 22h75q20 0 24.5 -6.5t1.5 -25.5l-59 -351h57q8 0 13 -0.5t10.5 -5.5t4.5 -14 q-4 -22 -36 -22h-75q-10 0 -15 1.5t-9 11.5t-1 30q-73 -49 -141 -49q-61 0 -94 25.5t-23 88.5l46 275h-57q-8 0 -13 0.5t-10.5 5.5t-4.5 14zM208 528q1 7 26 22l114 66q19 11 34 0l94 -66q19 -13 18 -22q-4 -22 -28 -22q-5 0 -27 15l-80 54l-98 -54q-27 -15 -33 -15 q-24 0 -20 22z" />
<glyph unicode="&#xfc;" d="M81 403q4 22 36 22h75q20 0 24.5 -6.5t1.5 -25.5l-47 -279q-2 -20 -3 -37t19 -29t63 -12q18 0 37 4t43.5 15t42.5 36t24 61l39 231h-57q-8 0 -13 0.5t-10.5 5.5t-4.5 14q4 22 36 22h75q20 0 24.5 -6.5t1.5 -25.5l-59 -351h57q8 0 13 -0.5t10.5 -5.5t4.5 -14 q-4 -22 -36 -22h-75q-10 0 -15 1.5t-9 11.5t-1 30q-73 -49 -141 -49q-61 0 -94 25.5t-23 88.5l46 275h-57q-8 0 -13 0.5t-10.5 5.5t-4.5 14zM235 563q2 16 14.5 26.5t27.5 10.5t23.5 -10.5t6.5 -26.5q-2 -15 -14.5 -25.5t-27.5 -10.5t-23.5 10.5t-6.5 25.5zM406 563 q2 16 14.5 26.5t27.5 10.5t23.5 -10.5t6.5 -26.5q-2 -15 -14.5 -25.5t-27.5 -10.5t-23.5 10.5t-6.5 25.5z" />
<glyph unicode="&#xfd;" d="M19 -161q2 15 13.5 25t27.5 10q15 0 23 -9.5t5 -24.5l-9 -20q4 -13 10 -13q27 0 47.5 11.5t49.5 53.5q8 12 23.5 40.5t26.5 51.5l11 23l-89 396h-35q-8 0 -13 0.5t-10.5 5.5t-4.5 14q4 22 35 22h121q9 0 14 -0.5t10 -6t3 -15.5q-3 -20 -34 -20h-41l74 -348l173 348h-40 q-9 0 -14 0.5t-10 5.5t-4 15q4 21 35 21h121q9 0 14 -0.5t10 -6t3 -15.5q-3 -20 -34 -20h-38l-242 -478q-7 -14 -17 -28.5t-33.5 -44.5t-55 -49t-63.5 -19t-50 22.5t-13 52.5zM253 536q2 12 23 20l148 62l16 4q11 0 17.5 -7t4.5 -18q-4 -17 -28 -27l-155 -64l-7 -1 q-23 0 -19 31z" />
<glyph unicode="&#xfe;" d="M-21 -209q4 22 36 22h56l126 756h-57q-8 0 -13 0.5t-10.5 5.5t-4.5 14q4 22 36 22h75q20 0 24.5 -6.5t1.5 -25.5l-36 -212q82 64 153 64q78 0 124 -64t31 -154q-15 -92 -86 -155.5t-153 -63.5q-64 0 -120 68l-41 -249h56q9 0 14 -0.5t10.5 -6t3.5 -15.5q-3 -21 -34 -21 h-164q-8 0 -13 0.5t-10.5 5.5t-4.5 15zM183 187q-5 -29 2.5 -62.5t33.5 -61t67 -27.5q61 0 116.5 50.5t68.5 126.5q12 72 -22.5 124t-95.5 52q-53 0 -101 -38.5t-56 -87.5z" />
<glyph unicode="&#xff;" d="M19 -161q2 15 13.5 25t27.5 10q15 0 23 -9.5t5 -24.5l-9 -20q4 -13 10 -13q27 0 47.5 11.5t49.5 53.5q8 12 23.5 40.5t26.5 51.5l11 23l-89 396h-35q-8 0 -13 0.5t-10.5 5.5t-4.5 14q4 22 35 22h121q9 0 14 -0.5t10 -6t3 -15.5q-3 -20 -34 -20h-41l74 -348l173 348h-40 q-9 0 -14 0.5t-10 5.5t-4 15q4 21 35 21h121q9 0 14 -0.5t10 -6t3 -15.5q-3 -20 -34 -20h-38l-242 -478q-7 -14 -17 -28.5t-33.5 -44.5t-55 -49t-63.5 -19t-50 22.5t-13 52.5zM235 563q2 16 14.5 26.5t27.5 10.5t23.5 -10.5t6.5 -26.5q-2 -15 -14.5 -25.5t-27.5 -10.5 t-23.5 10.5t-6.5 25.5zM406 563q2 16 14.5 26.5t27.5 10.5t23.5 -10.5t6.5 -26.5q-2 -15 -14.5 -25.5t-27.5 -10.5t-23.5 10.5t-6.5 25.5z" />
<glyph unicode="&#x100;" d="M33 21q2 14 15 20q6 1 48 1l219 550q6 15 14.5 22t15 8t21.5 1q16 0 22.5 -1t12 -8.5t6.5 -22.5l35 -549q41 0 47 -1q12 -5 10 -20q-4 -21 -39 -21h-105q-10 0 -15.5 0.5t-10.5 5.5t-3 15q2 15 14.5 18t48.5 3l-6 129h-184l-50 -129q36 0 47.5 -3t9.5 -18q-4 -21 -37 -21 h-106q-9 0 -14.5 0.5t-11.5 5.5t-4 15zM195 705q4 22 35 22h308q9 0 14 -0.5t10 -6t3 -16.5q-3 -21 -34 -21h-307q-9 0 -14.5 0.5t-10.5 6t-4 15.5zM217 213h162l-16 368h-7z" />
<glyph unicode="&#x101;" d="M78 122q12 69 101 105.5t233 38.5q21 126 -121 126q-68 0 -72 -23q-4 -20 -17 -28.5t-26 -8.5q-15 0 -23.5 10t-5.5 27q10 65 150 65q97 0 138 -45t31 -105l-38 -230q30 -12 70 -12q9 0 14 -0.5t10.5 -5.5t4.5 -14q-2 -10 -9.5 -15.5t-15 -6t-21.5 -0.5q-25 0 -39.5 1 t-34.5 10t-29 26q-73 -43 -160 -43q-72 0 -110.5 38t-29.5 90zM129 122q-5 -35 23 -60.5t80 -25.5q57 0 99 19q23 10 36 23t16 22.5t6 27.5l17 98q-122 -4 -196 -33.5t-81 -70.5zM172 564q4 22 35 22h308q9 0 14 -0.5t10 -6t3 -16.5q-4 -21 -35 -21h-307q-9 0 -14.5 0.5 t-10.5 6t-3 15.5z" />
<glyph unicode="&#x102;" d="M33 21q2 14 15 20q6 1 48 1l219 550q6 15 14.5 22t15 8t21.5 1q16 0 22.5 -1t12 -8.5t6.5 -22.5l35 -549q41 0 47 -1q12 -5 10 -20q-4 -21 -39 -21h-105q-10 0 -15.5 0.5t-10.5 5.5t-3 15q2 15 14.5 18t48.5 3l-6 129h-184l-50 -129q36 0 47.5 -3t9.5 -18q-4 -21 -37 -21 h-106q-9 0 -14.5 0.5t-11.5 5.5t-4 15zM215 747q5 22 26 22q14 0 16 -11q5 -40 126 -40q122 0 138 40q5 11 20 11q23 0 18 -22q-4 -26 -23 -42.5t-51.5 -22.5t-53.5 -7.5t-56 -1.5t-55.5 1.5t-51 7.5t-44 22.5t-9.5 42.5zM217 213h162l-16 368h-7z" />
<glyph unicode="&#x103;" d="M78 122q12 69 101 105.5t233 38.5q21 126 -121 126q-68 0 -72 -23q-4 -20 -17 -28.5t-26 -8.5q-15 0 -23.5 10t-5.5 27q10 65 150 65q97 0 138 -45t31 -105l-38 -230q30 -12 70 -12q9 0 14 -0.5t10.5 -5.5t4.5 -14q-2 -10 -9.5 -15.5t-15 -6t-21.5 -0.5q-25 0 -39.5 1 t-34.5 10t-29 26q-73 -43 -160 -43q-72 0 -110.5 38t-29.5 90zM129 122q-5 -35 23 -60.5t80 -25.5q57 0 99 19q23 10 36 23t16 22.5t6 27.5l17 98q-122 -4 -196 -33.5t-81 -70.5zM189 590q5 22 26 22q14 0 16 -11q5 -40 126 -40q122 0 138 40q5 11 20 11q23 0 18 -22 q-4 -26 -23 -42.5t-51.5 -22.5t-53.5 -7.5t-56 -1.5t-55.5 1.5t-51 7.5t-44 22.5t-9.5 42.5z" />
<glyph unicode="&#x104;" d="M33 21q2 14 15 20q6 1 48 1l219 550q6 15 14.5 22t15 8t21.5 1q16 0 22.5 -1t12 -8.5t6.5 -22.5l35 -549q41 0 47 -1q12 -5 10 -20q-4 -21 -39 -21h-22q-110 -59 -121 -124q-3 -22 13 -36.5t35 -14.5q17 0 37.5 13t33.5 29q14 11 24 3q4 -4 4 -11t-5 -12 q-50 -57 -104 -57q-41 0 -62 27.5t-15 60.5q5 34 29.5 62t79.5 60q-41 0 -52.5 3t-8.5 18q2 15 14.5 18t48.5 3l-6 129h-184l-50 -129q36 0 47.5 -3t9.5 -18q-4 -21 -37 -21h-106q-9 0 -14.5 0.5t-11.5 5.5t-4 15zM217 213h162l-17 368h-7z" />
<glyph unicode="&#x105;" d="M78 122q12 69 101 105.5t233 38.5q21 126 -121 126q-68 0 -72 -23q-4 -20 -17 -28.5t-26 -8.5q-15 0 -23.5 10t-5.5 27q10 65 150 65q97 0 138 -45t31 -105l-38 -230q30 -12 70 -12q9 0 14 -0.5t10.5 -5.5t4.5 -14q-1 -8 -5 -12.5t-12 -6.5t-14 -2.5t-18 -0.5 q-112 -60 -123 -124q-4 -22 12 -36.5t36 -14.5q16 0 36.5 13t33.5 29q16 12 25 3q10 -10 -1 -23q-50 -57 -105 -57q-41 0 -62 27.5t-15 60.5q10 64 113 124q-23 7 -32.5 14t-17.5 21q-73 -43 -160 -43q-72 0 -110.5 38t-29.5 90zM129 122q-5 -35 23 -60.5t80 -25.5 q57 0 99 19q23 10 36 23t16 22.5t6 27.5l17 98q-122 -4 -196 -33.5t-81 -70.5z" />
<glyph unicode="&#x106;" d="M94 306q22 134 108 225t184 91q73 0 128 -55q24 35 28 43q12 12 22 12q20 0 15 -32l-23 -143q-2 -11 -4 -16t-9 -10.5t-19 -5.5q-10 0 -15 4t-5.5 8t-1.5 13q0 65 -34 102.5t-85 37.5q-75 0 -147 -78.5t-92 -195.5q-20 -118 26 -196.5t122 -78.5q47 0 98 32t68 104 q5 20 28 20q26 0 22 -24q-11 -68 -77.5 -121t-149.5 -53q-99 0 -154 91t-33 226zM308 704q2 11 23 21l148 62l16 4q11 0 17 -7.5t4 -18.5q-2 -16 -27 -26l-155 -64l-7 -2q-9 0 -14 7t-5.5 13t0.5 11z" />
<glyph unicode="&#x107;" d="M113 213q6 35 24 71.5t49 71t81.5 56.5t110.5 22q21 0 41 -2t44.5 -8t38 -20t10.5 -35q-3 -17 -15.5 -27t-27.5 -10q-35 0 -28 40q1 5 -11.5 10t-29 7.5t-29.5 2.5q-52 0 -93 -20t-63.5 -50.5t-34.5 -57.5t-16 -51q-13 -74 29.5 -125.5t112.5 -51.5q28 0 51 8t39 23 t23 23t16 23q7 8 22 8q5 0 9 -0.5t9.5 -5t4.5 -13.5q-2 -8 -12.5 -24t-31 -36t-59 -34t-84.5 -14q-92 0 -143.5 64.5t-36.5 154.5zM280 536q2 12 23 20l148 62l16 4q11 0 17.5 -7t4.5 -18q-4 -17 -28 -27l-155 -64l-7 -1q-23 0 -19 31z" />
<glyph unicode="&#x108;" d="M94 306q22 134 108 225t184 91q73 0 128 -55q24 35 28 43q12 12 22 12q20 0 15 -32l-23 -143q-2 -11 -4 -16t-9 -10.5t-19 -5.5q-10 0 -15 4t-5.5 8t-1.5 13q0 65 -34 102.5t-85 37.5q-75 0 -147 -78.5t-92 -195.5q-20 -118 26 -196.5t122 -78.5q47 0 98 32t68 104 q5 20 28 20q26 0 22 -24q-11 -68 -77.5 -121t-149.5 -53q-99 0 -154 91t-33 226zM260 685q2 13 26 22l115 40q14 4 26 0l101 -40q21 -8 17 -26t-27 -18q-7 0 -28 7l-84 30l-94 -30q-26 -7 -32 -7q-24 0 -20 22z" />
<glyph unicode="&#x109;" d="M113 213q6 35 24 71.5t49 71t81.5 56.5t110.5 22q21 0 41 -2t44.5 -8t38 -20t10.5 -35q-3 -17 -15.5 -27t-27.5 -10q-35 0 -28 40q1 5 -11.5 10t-29 7.5t-29.5 2.5q-52 0 -93 -20t-63.5 -50.5t-34.5 -57.5t-16 -51q-13 -74 29.5 -125.5t112.5 -51.5q28 0 51 8t39 23 t23 23t16 23q7 8 22 8q5 0 9 -0.5t9.5 -5t4.5 -13.5q-2 -8 -12.5 -24t-31 -36t-59 -34t-84.5 -14q-92 0 -143.5 64.5t-36.5 154.5zM235 528q1 7 26 22l114 66q19 11 34 0l94 -66q19 -13 18 -22q-4 -22 -28 -22q-5 0 -27 15l-80 54l-98 -54q-28 -15 -33 -15q-24 0 -20 22z " />
<glyph unicode="&#x10a;" d="M94 306q22 134 108 225t184 91q73 0 128 -55q24 35 28 43q12 12 22 12q20 0 15 -32l-23 -143q-2 -11 -4 -16t-9 -10.5t-19 -5.5q-10 0 -15 4t-5.5 8t-1.5 13q0 65 -34 102.5t-85 37.5q-75 0 -147 -78.5t-92 -195.5q-20 -118 26 -196.5t122 -78.5q47 0 98 32t68 104 q5 20 28 20q26 0 22 -24q-11 -68 -77.5 -121t-149.5 -53q-99 0 -154 91t-33 226zM367 715q3 17 17 29.5t31 12.5t27 -12.5t7 -29.5t-17 -29t-31 -12t-27 12t-7 29z" />
<glyph unicode="&#x10b;" d="M113 213q6 35 24 71.5t49 71t81.5 56.5t110.5 22q21 0 41 -2t44.5 -8t38 -20t10.5 -35q-3 -17 -15.5 -27t-27.5 -10q-35 0 -28 40q1 5 -11.5 10t-29 7.5t-29.5 2.5q-52 0 -93 -20t-63.5 -50.5t-34.5 -57.5t-16 -51q-13 -74 29.5 -125.5t112.5 -51.5q28 0 51 8t39 23 t23 23t16 23q7 8 22 8q5 0 9 -0.5t9.5 -5t4.5 -13.5q-2 -8 -12.5 -24t-31 -36t-59 -34t-84.5 -14q-92 0 -143.5 64.5t-36.5 154.5zM343 563q3 18 17 30t31 12t27 -12t7 -30q-3 -17 -17 -29t-31 -12t-27 12t-7 29z" />
<glyph unicode="&#x10c;" d="M94 306q22 134 108 225t184 91q73 0 128 -55q24 35 28 43q12 12 22 12q20 0 15 -32l-23 -143q-2 -11 -4 -16t-9 -10.5t-19 -5.5q-10 0 -15 4t-5.5 8t-1.5 13q0 65 -34 102.5t-85 37.5q-75 0 -147 -78.5t-92 -195.5q-20 -118 26 -196.5t122 -78.5q47 0 98 32t68 104 q5 20 28 20q26 0 22 -24q-11 -68 -77.5 -121t-149.5 -53q-99 0 -154 91t-33 226zM286 706q-22 8 -18.5 26t27.5 18q6 0 29 -7l84 -30l94 30q23 7 31 7q24 0 20 -22q-2 -13 -25 -22l-116 -40q-14 -4 -26 0z" />
<glyph unicode="&#x10d;" d="M113 213q6 35 24 71.5t49 71t81.5 56.5t110.5 22q21 0 41 -2t44.5 -8t38 -20t10.5 -35q-3 -17 -15.5 -27t-27.5 -10q-35 0 -28 40q1 5 -11.5 10t-29 7.5t-29.5 2.5q-52 0 -93 -20t-63.5 -50.5t-34.5 -57.5t-16 -51q-13 -74 29.5 -125.5t112.5 -51.5q28 0 51 8t39 23 t23 23t16 23q7 8 22 8q5 0 9 -0.5t9.5 -5t4.5 -13.5q-2 -8 -12.5 -24t-31 -36t-59 -34t-84.5 -14q-92 0 -143.5 64.5t-36.5 154.5zM247 599q4 22 28 22q5 0 27 -15l80 -54l98 54q28 15 33 15q24 0 20 -22q-1 -7 -26 -22l-114 -66q-19 -11 -34 0l-94 66q-19 13 -18 22z" />
<glyph unicode="&#x10e;" d="M25 21q3 21 35 21h33l88 527h-33q-8 0 -13.5 0.5t-11 5.5t-4.5 14q4 22 36 22h213q96 0 140.5 -92.5t23.5 -217.5q-20 -124 -95.5 -212.5t-170.5 -88.5h-213q-8 0 -13.5 0.5t-11 5.5t-3.5 15zM144 42h109q86 0 149 78t80 181t-19 185.5t-122 82.5h-109zM196 706 q-22 8 -18.5 26t27.5 18q6 0 29 -7l84 -30l94 30q23 7 31 7q24 0 20 -22q-2 -13 -25 -22l-116 -40q-14 -4 -26 0z" />
<glyph unicode="&#x10f;" d="M74 212q16 92 86 155.5t152 63.5q63 0 122 -59l33 197h-57q-8 0 -13 0.5t-10.5 5.5t-4.5 14q4 22 36 22h75q20 0 24.5 -6.5t1.5 -25.5l-90 -537h57q8 0 13 -0.5t10.5 -5.5t4.5 -14q-4 -22 -36 -22h-75q-22 0 -25 13t5 54q-84 -73 -153 -73q-79 0 -125 63.5t-31 154.5z M124 212q-12 -73 23 -124.5t94 -51.5q60 0 107 50.5t56 103.5l12 74q8 48 -23 86.5t-84 38.5q-61 0 -116.5 -50.5t-68.5 -126.5zM545 452q76 24 87 89q-12 -6 -28 -6t-25 11t-6 28q2 15 14.5 26t30.5 11q23 0 35.5 -18.5t7.5 -48.5q-9 -51 -49.5 -84t-64.5 -33q-7 0 -10 5.5 t-0.5 11.5t8.5 8z" />
<glyph unicode="&#x110;" d="M25 21q3 21 35 21h33l40 242h-39q-9 0 -14 6t-4 16q1 9 9 15.5t17 6.5h39l40 241h-33q-8 0 -13.5 0.5t-11 5.5t-4.5 14q4 22 36 22h213q96 0 140.5 -92.5t23.5 -217.5q-20 -124 -95.5 -212.5t-170.5 -88.5h-213q-8 0 -13.5 0.5t-11 5.5t-3.5 15zM144 42h109q86 0 149 78 t80 181t-19 185.5t-122 82.5h-109l-40 -241h71q9 0 14.5 -6.5t3.5 -15.5q-1 -10 -9 -16t-17 -6h-71z" />
<glyph unicode="&#x111;" d="M74 212q16 92 86 155.5t152 63.5q63 0 122 -59l17 103h-164q-19 0 -16.5 19t18.5 23l5 1h164l9 51h-57q-8 0 -13 0.5t-10.5 5.5t-4.5 14q4 22 36 22h75q20 0 24.5 -6.5t1.5 -25.5l-11 -61h62q9 0 14.5 -6.5t4.5 -15.5t-9 -15t-17 -6h-62l-72 -433h57q8 0 13 -0.5 t10.5 -5.5t4.5 -14q-4 -22 -36 -22h-75q-22 0 -25 13t5 54q-84 -73 -153 -73q-79 0 -125 63.5t-31 154.5zM124 212q-12 -73 23 -124.5t94 -51.5q60 0 107 50.5t56 103.5l12 74q8 48 -23 86.5t-84 38.5q-61 0 -116.5 -50.5t-68.5 -126.5z" />
<glyph unicode="&#x112;" d="M32 21q3 21 35 21h42l88 527h-42q-8 0 -13.5 0.5t-11 5.5t-4.5 15q4 21 36 21h386q19 0 24 -6.5t2 -25.5l-13 -76q-2 -11 -3.5 -15.5t-8.5 -10.5t-19 -6q-25 0 -20 32l11 66h-274l-39 -231h157q5 27 7.5 36t9 16t18.5 7q25 0 20 -32l-16 -96q-2 -11 -3.5 -15.5t-8 -10.5 t-18.5 -6q-18 0 -20 13t4 46h-157l-42 -254h297l14 82q4 32 31 32q17 0 20.5 -10.5t-0.5 -21.5l-16 -92q-3 -19 -10 -25.5t-26 -6.5h-409q-8 0 -13.5 0.5t-11 5.5t-3.5 15zM195 705q4 22 35 22h308q9 0 14 -0.5t10 -6t3 -16.5q-3 -21 -34 -21h-307q-9 0 -14.5 0.5t-10.5 6 t-4 15.5z" />
<glyph unicode="&#x113;" d="M94 214q15 91 87.5 155.5t160.5 64.5q91 0 130.5 -60t25.5 -149q-2 -13 -8 -19.5t-11.5 -7.5t-16.5 -1h-320q1 -76 46.5 -118.5t110.5 -42.5q87 0 132 74q7 11 24 11q3 0 6 -0.5t7.5 -2t7 -5.5t1.5 -11q-5 -29 -57 -68.5t-135 -39.5q-95 0 -150.5 64.5t-40.5 155.5z M150 239h299q7 85 -27 119t-87 34q-58 0 -109 -42t-76 -111zM172 564q4 22 35 22h308q9 0 14 -0.5t10 -6t3 -16.5q-4 -21 -35 -21h-307q-9 0 -14.5 0.5t-10.5 6t-3 15.5z" />
<glyph unicode="&#x114;" d="M32 21q3 21 35 21h42l88 527h-42q-8 0 -13.5 0.5t-11 5.5t-4.5 15q4 21 36 21h386q19 0 24 -6.5t2 -25.5l-13 -76q-2 -11 -3.5 -15.5t-8.5 -10.5t-19 -6q-25 0 -20 32l11 66h-274l-39 -231h157q5 27 7.5 36t9 16t18.5 7q25 0 20 -32l-16 -96q-2 -11 -3.5 -15.5t-8 -10.5 t-18.5 -6q-18 0 -20 13t4 46h-157l-42 -254h297l14 82q4 32 31 32q17 0 20.5 -10.5t-0.5 -21.5l-16 -92q-3 -19 -10 -25.5t-26 -6.5h-409q-8 0 -13.5 0.5t-11 5.5t-3.5 15zM215 747q5 22 26 22q14 0 16 -11q5 -40 126 -40q122 0 138 40q5 11 20 11q23 0 18 -22 q-4 -26 -23 -42.5t-51.5 -22.5t-53.5 -7.5t-56 -1.5t-55.5 1.5t-51 7.5t-44 22.5t-9.5 42.5z" />
<glyph unicode="&#x115;" d="M94 214q15 91 87.5 155.5t160.5 64.5q91 0 130.5 -60t25.5 -149q-2 -13 -8 -19.5t-11.5 -7.5t-16.5 -1h-320q1 -76 46.5 -118.5t110.5 -42.5q87 0 132 74q7 11 24 11q3 0 6 -0.5t7.5 -2t7 -5.5t1.5 -11q-5 -29 -57 -68.5t-135 -39.5q-95 0 -150.5 64.5t-40.5 155.5z M150 239h299q7 85 -27 119t-87 34q-58 0 -109 -42t-76 -111zM189 590q5 22 26 22q14 0 16 -11q5 -40 126 -40q122 0 138 40q5 11 20 11q23 0 18 -22q-4 -26 -23 -42.5t-51.5 -22.5t-53.5 -7.5t-56 -1.5t-55.5 1.5t-51 7.5t-44 22.5t-9.5 42.5z" />
<glyph unicode="&#x116;" d="M32 21q3 21 35 21h42l88 527h-42q-8 0 -13.5 0.5t-11 5.5t-4.5 15q4 21 36 21h386q19 0 24 -6.5t2 -25.5l-13 -76q-2 -11 -3.5 -15.5t-8.5 -10.5t-19 -6q-25 0 -20 32l11 66h-274l-39 -231h157q5 27 7.5 36t9 16t18.5 7q25 0 20 -32l-16 -96q-2 -11 -3.5 -15.5t-8 -10.5 t-18.5 -6q-18 0 -20 13t4 46h-157l-42 -254h297l14 82q4 32 31 32q17 0 20.5 -10.5t-0.5 -21.5l-16 -92q-3 -19 -10 -25.5t-26 -6.5h-409q-8 0 -13.5 0.5t-11 5.5t-3.5 15zM341 715q3 17 17 29.5t31 12.5t27 -12.5t7 -29.5t-17 -29t-31 -12t-27 12t-7 29z" />
<glyph unicode="&#x117;" d="M94 214q15 91 87.5 155.5t160.5 64.5q91 0 130.5 -60t25.5 -149q-2 -13 -8 -19.5t-11.5 -7.5t-16.5 -1h-320q1 -76 46.5 -118.5t110.5 -42.5q87 0 132 74q7 11 24 11q3 0 6 -0.5t7.5 -2t7 -5.5t1.5 -11q-5 -29 -57 -68.5t-135 -39.5q-95 0 -150.5 64.5t-40.5 155.5z M150 239h299q7 85 -27 119t-87 34q-58 0 -109 -42t-76 -111zM316 563q3 18 17 30t31 12t27 -12t7 -30q-3 -17 -17 -29t-31 -12t-27 12t-7 29z" />
<glyph unicode="&#x118;" d="M32 21q3 21 35 21h42l88 527h-42q-8 0 -13.5 0.5t-11 5.5t-4.5 15q4 21 36 21h386q19 0 24 -6.5t2 -25.5l-13 -76q-2 -11 -3.5 -15.5t-8.5 -10.5t-19 -6q-25 0 -20 32l11 66h-274l-39 -231h157q5 27 7.5 36t9 16t18.5 7q25 0 20 -32l-16 -96q-2 -11 -3.5 -15.5t-8 -10.5 t-18.5 -6q-18 0 -20 13t4 46h-157l-42 -254h297l14 82q4 32 31 32q17 0 20.5 -10.5t-0.5 -21.5l-16 -92q-3 -19 -10 -25.5t-26 -6.5h-30q-111 -60 -122 -124q-3 -22 13 -36.5t35 -14.5q17 0 37.5 13t33.5 29q14 11 24 3q4 -4 4 -11t-5 -12q-50 -57 -104 -57q-41 0 -62 27.5 t-15 60.5q5 34 30 62t80 60h-328q-8 0 -13.5 0.5t-11 5.5t-3.5 15z" />
<glyph unicode="&#x119;" d="M94 214q15 91 87.5 155.5t160.5 64.5q91 0 130.5 -60t25.5 -149q-2 -13 -8 -19.5t-11.5 -7.5t-16.5 -1h-320q1 -76 46.5 -118.5t110.5 -42.5q87 0 132 74q7 11 24 11q24 0 22 -19q-3 -20 -36 -47.5t-59 -41.5q-71 -39 -106 -71t-41 -66q-3 -22 13 -36.5t35 -14.5 q16 0 36.5 13t33.5 29q16 12 25 3q10 -10 -1 -23q-50 -57 -105 -57q-41 0 -62 27.5t-15 60.5q6 36 25 62t68 54q-107 9 -158 70.5t-36 149.5zM150 239h299q7 85 -27 119t-87 34q-58 0 -109 -42t-76 -111z" />
<glyph unicode="&#x11a;" d="M32 21q3 21 35 21h42l88 527h-42q-8 0 -13.5 0.5t-11 5.5t-4.5 15q4 21 36 21h386q19 0 24 -6.5t2 -25.5l-13 -76q-2 -11 -3.5 -15.5t-8.5 -10.5t-19 -6q-25 0 -20 32l11 66h-274l-39 -231h157q5 27 7.5 36t9 16t18.5 7q25 0 20 -32l-16 -96q-2 -11 -3.5 -15.5t-8 -10.5 t-18.5 -6q-18 0 -20 13t4 46h-157l-42 -254h297l14 82q4 32 31 32q17 0 20.5 -10.5t-0.5 -21.5l-16 -92q-3 -19 -10 -25.5t-26 -6.5h-409q-8 0 -13.5 0.5t-11 5.5t-3.5 15zM259 706q-22 8 -18.5 26t27.5 18q6 0 29 -7l84 -30l94 30q23 7 31 7q24 0 20 -22q-2 -13 -25 -22 l-116 -40q-14 -4 -26 0z" />
<glyph unicode="&#x11b;" d="M94 214q15 91 87.5 155.5t160.5 64.5q91 0 130.5 -60t25.5 -149q-2 -13 -8 -19.5t-11.5 -7.5t-16.5 -1h-320q1 -76 46.5 -118.5t110.5 -42.5q87 0 132 74q7 11 24 11q3 0 6 -0.5t7.5 -2t7 -5.5t1.5 -11q-5 -29 -57 -68.5t-135 -39.5q-95 0 -150.5 64.5t-40.5 155.5z M150 239h299q7 85 -27 119t-87 34q-58 0 -109 -42t-76 -111zM220 599q4 22 28 22q4 0 27 -15l80 -54l98 54q27 15 33 15q24 0 20 -22q-1 -7 -26 -22l-114 -66q-19 -11 -34 0l-94 66q-19 13 -18 22z" />
<glyph unicode="&#x11c;" d="M92 306q22 134 102 225t171 91q63 0 116 -53q20 34 28 43.5t19 9.5q20 0 15 -32l-23 -143q-2 -11 -4 -16t-9 -10.5t-19 -5.5q-21 0 -21 16q0 44 -10.5 75.5t-27.5 46.5t-33.5 21t-33.5 6q-67 0 -134 -78.5t-86 -196.5q-20 -116 19.5 -195t107.5 -79q49 0 92 45t68 140 h-55q-8 0 -13 0.5t-10.5 6t-3.5 15.5q3 20 34 20h124q8 0 13.5 -0.5t11 -5.5t4.5 -14q-1 -8 -5 -12.5t-12.5 -6.5t-15 -2.5t-20.5 -0.5l-31 -184q-1 -10 -3 -15.5t-8.5 -11t-18.5 -5.5q-18 0 -20.5 13.5t4.5 47.5q-74 -72 -145 -72q-91 0 -140 91t-27 226zM233 685 q2 13 26 22l115 40q14 4 26 0l101 -40q21 -8 17 -26t-27 -18q-7 0 -28 7l-84 30l-94 -30q-26 -7 -32 -7q-24 0 -20 22z" />
<glyph unicode="&#x11d;" d="M15 -95q15 77 103 125q-23 40 -16 78q7 37 35 70q-32 62 -15 118t70 95.5t112 39.5q53 0 95 -33q59 38 116 38q32 0 46 -14t11 -31q-3 -16 -14 -24t-22 -8q-9 0 -17 8t-9 28q-44 -4 -87 -25q22 -52 15 -94q-11 -65 -65 -110.5t-121 -45.5q-48 0 -93 31q-15 -27 -19 -45 q-3 -26 8 -43q8 -13 15 -16t22 -3q18 -2 31 -2h73q96 0 140 -28q31 -18 42 -48.5t6 -60.5q-10 -62 -84.5 -102t-170.5 -40q-97 0 -157 40t-50 102zM55 -95q-6 -38 44 -69t130 -31t141 31t67 69q6 33 -9.5 54.5t-50.5 30.5t-65.5 11.5t-76.5 2.5q-60 0 -78.5 -2.5 t-40.5 -15.5q-51 -29 -61 -81zM168 275q-8 -46 18.5 -80t72.5 -34q45 0 83 33.5t46 81.5q8 46 -18.5 80t-72.5 34q-45 0 -83 -33.5t-46 -81.5zM172 528q1 7 26 22l114 66q19 11 34 0l94 -66q19 -13 18 -22q-4 -22 -28 -22q-5 0 -27 15l-80 54l-98 -54q-27 -15 -33 -15 q-24 0 -20 22z" />
<glyph unicode="&#x11e;" d="M92 306q22 134 102 225t171 91q63 0 116 -53q20 34 28 43.5t19 9.5q20 0 15 -32l-23 -143q-2 -11 -4 -16t-9 -10.5t-19 -5.5q-21 0 -21 16q0 44 -10.5 75.5t-27.5 46.5t-33.5 21t-33.5 6q-67 0 -134 -78.5t-86 -196.5q-20 -116 19.5 -195t107.5 -79q49 0 92 45t68 140 h-55q-8 0 -13 0.5t-10.5 6t-3.5 15.5q3 20 34 20h124q8 0 13.5 -0.5t11 -5.5t4.5 -14q-1 -8 -5 -12.5t-12.5 -6.5t-15 -2.5t-20.5 -0.5l-31 -184q-1 -10 -3 -15.5t-8.5 -11t-18.5 -5.5q-18 0 -20.5 13.5t4.5 47.5q-74 -72 -145 -72q-91 0 -140 91t-27 226zM215 747 q5 22 26 22q14 0 16 -11q5 -40 126 -40q122 0 138 40q5 11 20 11q23 0 18 -22q-4 -26 -23 -42.5t-51.5 -22.5t-53.5 -7.5t-56 -1.5t-55.5 1.5t-51 7.5t-44 22.5t-9.5 42.5z" />
<glyph unicode="&#x11f;" d="M15 -95q15 77 103 125q-23 40 -16 78q7 37 35 70q-32 62 -15 118t70 95.5t112 39.5q53 0 95 -33q59 38 116 38q32 0 46 -14t11 -31q-3 -16 -14 -24t-22 -8q-9 0 -17 8t-9 28q-44 -4 -87 -25q22 -52 15 -94q-11 -65 -65 -110.5t-121 -45.5q-48 0 -93 31q-15 -27 -19 -45 q-3 -26 8 -43q8 -13 15 -16t22 -3q18 -2 31 -2h73q96 0 140 -28q31 -18 42 -48.5t6 -60.5q-10 -62 -84.5 -102t-170.5 -40q-97 0 -157 40t-50 102zM55 -95q-6 -38 44 -69t130 -31t141 31t67 69q6 33 -9.5 54.5t-50.5 30.5t-65.5 11.5t-76.5 2.5q-60 0 -78.5 -2.5 t-40.5 -15.5q-51 -29 -61 -81zM153 590q5 22 26 22q14 0 16 -11q5 -40 126 -40q122 0 138 40q5 11 20 11q23 0 18 -22q-4 -26 -23 -42.5t-51.5 -22.5t-53.5 -7.5t-56 -1.5t-55.5 1.5t-51 7.5t-44 22.5t-9.5 42.5zM168 275q-8 -46 18.5 -80t72.5 -34q45 0 83 33.5t46 81.5 q8 46 -18.5 80t-72.5 34q-45 0 -83 -33.5t-46 -81.5z" />
<glyph unicode="&#x120;" d="M92 306q22 134 102 225t171 91q63 0 116 -53q20 34 28 43.5t19 9.5q20 0 15 -32l-23 -143q-2 -11 -4 -16t-9 -10.5t-19 -5.5q-21 0 -21 16q0 44 -10.5 75.5t-27.5 46.5t-33.5 21t-33.5 6q-67 0 -134 -78.5t-86 -196.5q-20 -116 19.5 -195t107.5 -79q49 0 92 45t68 140 h-55q-8 0 -13 0.5t-10.5 6t-3.5 15.5q3 20 34 20h124q8 0 13.5 -0.5t11 -5.5t4.5 -14q-1 -8 -5 -12.5t-12.5 -6.5t-15 -2.5t-20.5 -0.5l-31 -184q-1 -10 -3 -15.5t-8.5 -11t-18.5 -5.5q-18 0 -20.5 13.5t4.5 47.5q-74 -72 -145 -72q-91 0 -140 91t-27 226zM341 715 q3 17 17 29.5t31 12.5t27 -12.5t7 -29.5t-17 -29t-31 -12t-27 12t-7 29z" />
<glyph unicode="&#x121;" d="M15 -95q15 77 103 125q-23 40 -16 78q7 37 35 70q-32 62 -15 118t70 95.5t112 39.5q53 0 95 -33q59 38 116 38q32 0 46 -14t11 -31q-3 -16 -14 -24t-22 -8q-9 0 -17 8t-9 28q-44 -4 -87 -25q22 -52 15 -94q-11 -65 -65 -110.5t-121 -45.5q-48 0 -93 31q-15 -27 -19 -45 q-3 -26 8 -43q8 -13 15 -16t22 -3q18 -2 31 -2h73q96 0 140 -28q31 -18 42 -48.5t6 -60.5q-10 -62 -84.5 -102t-170.5 -40q-97 0 -157 40t-50 102zM55 -95q-6 -38 44 -69t130 -31t141 31t67 69q6 33 -9.5 54.5t-50.5 30.5t-65.5 11.5t-76.5 2.5q-60 0 -78.5 -2.5 t-40.5 -15.5q-51 -29 -61 -81zM168 275q-8 -46 18.5 -80t72.5 -34q45 0 83 33.5t46 81.5q8 46 -18.5 80t-72.5 34q-45 0 -83 -33.5t-46 -81.5zM280 563q3 18 17 30t31 12t27 -12t7 -30q-3 -17 -17 -29t-31 -12t-27 12t-7 29z" />
<glyph unicode="&#x122;" d="M92 306q22 134 102 225t171 91q63 0 116 -53q20 34 28 43.5t19 9.5q20 0 15 -32l-23 -143q-2 -11 -4 -16t-9 -10.5t-19 -5.5q-21 0 -21 16q0 44 -10.5 75.5t-27.5 46.5t-33.5 21t-33.5 6q-67 0 -134 -78.5t-86 -196.5q-20 -116 19.5 -195t107.5 -79q49 0 92 45t68 140 h-55q-8 0 -13 0.5t-10.5 6t-3.5 15.5q3 20 34 20h124q8 0 13.5 -0.5t11 -5.5t4.5 -14q-1 -8 -5 -12.5t-12.5 -6.5t-15 -2.5t-20.5 -0.5l-31 -184q-1 -10 -3 -15.5t-8.5 -11t-18.5 -5.5q-18 0 -20.5 13.5t4.5 47.5q-74 -72 -145 -72q-91 0 -140 91t-27 226zM171 -224 q0 8 10 10q76 24 87 89q-14 -6 -28 -6q-16 0 -25 11t-6 28q2 15 14.5 26t30.5 11q22 0 34.5 -18.5t8.5 -48.5q-9 -51 -49.5 -84t-64.5 -33q-6 0 -10 5t-2 10z" />
<glyph unicode="&#x123;" d="M15 -95q15 77 103 125q-23 40 -16 78q7 37 35 70q-32 62 -15 118t70 95.5t112 39.5q53 0 95 -33q59 38 116 38q32 0 46 -14t11 -31q-3 -16 -14 -24t-22 -8q-9 0 -17 8t-9 28q-44 -4 -87 -25q22 -52 15 -94q-11 -65 -65 -110.5t-121 -45.5q-48 0 -93 31q-15 -27 -19 -45 q-3 -26 8 -43q8 -13 15 -16t22 -3q18 -2 31 -2h73q96 0 140 -28q31 -18 42 -48.5t6 -60.5q-10 -62 -84.5 -102t-170.5 -40q-97 0 -157 40t-50 102zM55 -95q-6 -38 44 -69t130 -31t141 31t67 69q6 33 -9.5 54.5t-50.5 30.5t-65.5 11.5t-76.5 2.5q-60 0 -78.5 -2.5 t-40.5 -15.5q-51 -29 -61 -81zM168 275q-8 -46 18.5 -80t72.5 -34q45 0 83 33.5t46 81.5q8 46 -18.5 80t-72.5 34q-45 0 -83 -33.5t-46 -81.5zM262 541q9 51 49.5 84t64.5 33q7 0 10 -5.5t0.5 -11.5t-8.5 -8q-76 -24 -87 -89q12 6 28 6t25 -11t6 -28q-2 -15 -14.5 -26 t-30.5 -11q-23 0 -35.5 18.5t-7.5 48.5z" />
<glyph unicode="&#x124;" d="M28 21q3 21 34 21h36l88 527h-36q-8 0 -13 0.5t-10.5 5.5t-4.5 14q4 22 35 22h123q9 0 14 -0.5t10 -6t3 -15.5q-3 -20 -34 -20h-36l-38 -230h240l38 230h-36q-9 0 -14 0.5t-10 5.5t-4 15q4 21 35 21h123q9 0 14 -0.5t10 -6t3 -15.5q-3 -20 -34 -20h-36l-88 -527h36 q9 0 14 -0.5t10 -5.5t4 -15q-4 -21 -35 -21h-123q-9 0 -14 0.5t-10 6t-3 15.5q3 20 34 20h36l43 255h-240l-43 -255h36q9 0 14 -0.5t10 -5.5t4 -15q-4 -21 -35 -21h-123q-8 0 -13 0.5t-10.5 5.5t-3.5 15zM233 685q2 13 26 22l115 40q14 4 26 0l101 -40q21 -8 17 -26t-27 -18 q-7 0 -28 7l-84 30l-94 -30q-26 -7 -32 -7q-24 0 -20 22z" />
<glyph unicode="&#x125;" d="M18 21q3 21 35 21h56l88 527h-57q-8 0 -13 0.5t-10.5 5.5t-4.5 14q4 22 36 22h75q20 0 24.5 -6.5t1.5 -25.5l-37 -217q82 69 158 69q124 0 101 -138l-42 -251h56q9 0 14 -0.5t10.5 -5.5t4.5 -15q-4 -21 -35 -21h-158q-8 0 -13.5 0.5t-11 5.5t-3.5 15q3 21 35 21h51 l41 245q9 54 -4.5 78t-58.5 24q-51 0 -102 -38.5t-64 -114.5l-32 -194h56q9 0 14 -0.5t10.5 -5.5t4.5 -15q-4 -21 -35 -21h-164q-8 0 -13 0.5t-10.5 5.5t-3.5 15zM233 685q2 13 26 22l115 40q14 4 26 0l101 -40q21 -8 17 -26t-27 -18q-7 0 -28 7l-84 30l-94 -30 q-26 -7 -32 -7q-24 0 -20 22z" />
<glyph unicode="&#x126;" d="M28 21q3 21 34 21h36l67 399h-41q-9 0 -14.5 6.5t-4.5 15.5t9 15.5t17 6.5h41l14 84h-36q-8 0 -13 0.5t-10.5 5.5t-4.5 14q4 22 35 22h123q9 0 14 -0.5t10 -6t3 -15.5q-3 -20 -34 -20h-36l-14 -84h240l14 84h-36q-9 0 -14 0.5t-10 5.5t-4 15q4 21 35 21h123q9 0 14 -0.5 t10 -6t3 -15.5q-3 -20 -34 -20h-36l-14 -84h41q9 0 14.5 -6.5t3.5 -15.5q-4 -22 -25 -22h-41l-67 -399h36q9 0 14 -0.5t10 -5.5t4 -15q-4 -21 -35 -21h-123q-9 0 -14 0.5t-10 6t-3 15.5q3 20 34 20h36l43 255h-240l-43 -255h36q9 0 14 -0.5t10 -5.5t4 -15q-4 -21 -35 -21 h-123q-8 0 -13 0.5t-10.5 5.5t-3.5 15zM199 339h240l17 102h-240z" />
<glyph unicode="&#x127;" d="M18 21q3 21 35 21h56l72 433h-62q-9 0 -14 6t-4 15q4 22 25 22h62l9 51h-57q-8 0 -13 0.5t-10.5 5.5t-4.5 14q4 22 36 22h75q20 0 24.5 -6.5t1.5 -25.5l-11 -61h111q9 0 14.5 -6.5t4.5 -15.5q-4 -21 -26 -21h-111l-19 -113q82 69 158 69q124 0 101 -138l-42 -251h56 q9 0 14 -0.5t10.5 -5.5t4.5 -15q-4 -21 -35 -21h-158q-8 0 -13.5 0.5t-11 5.5t-3.5 15q3 21 35 21h51l41 245q9 54 -4.5 78t-58.5 24q-51 0 -102 -38.5t-64 -114.5l-32 -194h56q9 0 14 -0.5t10.5 -5.5t4.5 -15q-4 -21 -35 -21h-164q-8 0 -13 0.5t-10.5 5.5t-3.5 15z" />
<glyph unicode="&#x128;" d="M87 22q3 20 35 20h122l88 527h-122q-8 0 -13.5 0.5t-11 5.5t-4.5 15q4 21 36 21h295q8 0 13.5 -0.5t11 -6t3.5 -15.5q-3 -20 -35 -20h-122l-88 -527h122q8 0 13.5 -0.5t11 -5.5t4.5 -15q-4 -21 -36 -21h-295q-8 0 -13.5 0.5t-11 6t-3.5 15.5zM206 685q2 12 55 49 q50 32 80 32q22 0 44 -18q33 -35 41 -38q3 -1 7 -1q27 0 87 48q11 9 20 9q8 0 13.5 -7t4.5 -16q-2 -14 -55 -48q-47 -32 -80 -32q-24 0 -44 18q-16 18 -22 23.5t-13 10t-13 4.5q-29 0 -87 -48q-12 -8 -20 -8t-14 7t-4 15z" />
<glyph unicode="&#x129;" d="M86 21q3 21 35 21h136l57 341h-128q-8 0 -13.5 0.5t-11 5.5t-4.5 15q4 21 36 21h147q20 0 24.5 -6.5t1.5 -25.5l-59 -351h119q8 0 13.5 -0.5t11 -5.5t4.5 -15q-4 -21 -36 -21h-305q-8 0 -13.5 0.5t-11 5.5t-3.5 15zM181 534q2 12 55 49q50 32 80 32q22 0 44 -18 q33 -35 41 -38q3 -1 7 -1q27 0 87 48q11 9 20 9q8 0 13.5 -7t4.5 -16q-2 -14 -55 -48q-50 -32 -80 -32q-24 0 -44 18q-33 35 -41 38q-3 1 -7 1q-27 0 -87 -49q-12 -8 -20 -8t-13.5 7t-4.5 15z" />
<glyph unicode="&#x12a;" d="M87 22q3 20 35 20h122l88 527h-122q-8 0 -13.5 0.5t-11 5.5t-4.5 15q4 21 36 21h295q8 0 13.5 -0.5t11 -6t3.5 -15.5q-3 -20 -35 -20h-122l-88 -527h122q8 0 13.5 -0.5t11 -5.5t4.5 -15q-4 -21 -36 -21h-295q-8 0 -13.5 0.5t-11 6t-3.5 15.5zM195 705q4 22 35 22h308 q9 0 14 -0.5t10 -6t3 -16.5q-3 -21 -34 -21h-307q-9 0 -14.5 0.5t-10.5 6t-4 15.5z" />
<glyph unicode="&#x12b;" d="M86 21q3 21 35 21h136l57 341h-128q-8 0 -13.5 0.5t-11 5.5t-4.5 15q4 21 36 21h147q20 0 24.5 -6.5t1.5 -25.5l-59 -351h119q8 0 13.5 -0.5t11 -5.5t4.5 -15q-4 -21 -36 -21h-305q-8 0 -13.5 0.5t-11 5.5t-3.5 15zM172 564q4 22 35 22h308q9 0 14 -0.5t10 -6t3 -16.5 q-4 -21 -35 -21h-307q-9 0 -14.5 0.5t-10.5 6t-3 15.5z" />
<glyph unicode="&#x12c;" d="M87 22q3 20 35 20h122l88 527h-122q-8 0 -13.5 0.5t-11 5.5t-4.5 15q4 21 36 21h295q8 0 13.5 -0.5t11 -6t3.5 -15.5q-3 -20 -35 -20h-122l-88 -527h122q8 0 13.5 -0.5t11 -5.5t4.5 -15q-4 -21 -36 -21h-295q-8 0 -13.5 0.5t-11 6t-3.5 15.5zM215 747q5 22 26 22 q14 0 16 -11q5 -40 126 -40q122 0 138 40q5 11 20 11q23 0 18 -22q-4 -26 -23 -42.5t-51.5 -22.5t-53.5 -7.5t-56 -1.5t-55.5 1.5t-51 7.5t-44 22.5t-9.5 42.5z" />
<glyph unicode="&#x12d;" d="M86 21q3 21 35 21h136l57 341h-128q-8 0 -13.5 0.5t-11 5.5t-4.5 15q4 21 36 21h147q20 0 24.5 -6.5t1.5 -25.5l-59 -351h119q8 0 13.5 -0.5t11 -5.5t4.5 -15q-4 -21 -36 -21h-305q-8 0 -13.5 0.5t-11 5.5t-3.5 15zM189 590q5 22 26 22q14 0 16 -11q5 -40 126 -40 q122 0 138 40q5 11 20 11q23 0 18 -22q-4 -26 -23 -42.5t-51.5 -22.5t-53.5 -7.5t-56 -1.5t-55.5 1.5t-51 7.5t-44 22.5t-9.5 42.5z" />
<glyph unicode="&#x12e;" d="M87 22q3 20 35 20h122l88 527h-122q-8 0 -13.5 0.5t-11 5.5t-4.5 15q4 21 36 21h295q8 0 13.5 -0.5t11 -6t3.5 -15.5q-3 -20 -35 -20h-122l-88 -527h122q8 0 13.5 -0.5t11 -5.5t4.5 -15q-4 -21 -36 -21h-104q-40 -21 -70 -54t-36 -70q-4 -22 12 -36.5t35 -14.5 q17 0 37.5 13t33.5 29q16 12 25 3q11 -10 -2 -23q-50 -57 -104 -57q-41 0 -62 27.5t-15 60.5q10 66 92 122h-137q-8 0 -13.5 0.5t-11 6t-3.5 15.5z" />
<glyph unicode="&#x12f;" d="M86 21q3 21 35 21h136l57 341h-128q-8 0 -13.5 0.5t-11 5.5t-4.5 15q4 21 36 21h147q20 0 24.5 -6.5t1.5 -25.5l-59 -351h119q8 0 13.5 -0.5t11 -5.5t4.5 -15q-4 -21 -36 -21h-126q-40 -21 -70 -54t-36 -70q-3 -22 13 -36.5t35 -14.5q33 0 71 42q3 3 11 4.5t13 -1.5 q4 -4 3.5 -11t-4.5 -12q-50 -57 -104 -57q-41 0 -62 27.5t-15 60.5q9 63 95 122h-129q-8 0 -13.5 0.5t-11 5.5t-3.5 15zM313 571q3 17 17 29t31 12t27 -12t7 -29t-17 -29.5t-31 -12.5t-27 12.5t-7 29.5z" />
<glyph unicode="&#x130;" d="M87 22q3 20 35 20h122l88 527h-122q-8 0 -13.5 0.5t-11 5.5t-4.5 15q4 21 36 21h295q8 0 13.5 -0.5t11 -6t3.5 -15.5q-3 -20 -35 -20h-122l-88 -527h122q8 0 13.5 -0.5t11 -5.5t4.5 -15q-4 -21 -36 -21h-295q-8 0 -13.5 0.5t-11 6t-3.5 15.5zM341 715q3 17 17 29.5 t31 12.5t27 -12.5t7 -29.5t-17 -29t-31 -12t-27 12t-7 29z" />
<glyph unicode="&#x131;" d="M86 21q3 21 35 21h136l57 341h-128q-8 0 -13.5 0.5t-11 5.5t-4.5 15q4 21 36 21h147q20 0 24.5 -6.5t1.5 -25.5l-59 -351h119q8 0 13.5 -0.5t11 -5.5t4.5 -15q-4 -21 -36 -21h-305q-8 0 -13.5 0.5t-11 5.5t-3.5 15z" />
<glyph unicode="&#x134;" d="M90 92q4 19 16 28.5t27 9.5t23 -10.5t6 -24.5q-2 -12 -17 -28q34 -36 96 -36q13 0 28.5 3t39 12t41 31.5t23.5 56.5l73 435h-95q-9 0 -14 0.5t-10.5 5.5t-4.5 15q4 21 36 21h187q8 0 13.5 -0.5t11 -5.5t3.5 -15q-3 -21 -35 -21h-41l-74 -441q-10 -63 -65.5 -101 t-123.5 -38q-72 0 -112 28.5t-32 74.5zM318 685q2 13 26 22l115 40q14 4 26 0l101 -40q21 -8 17 -26t-27 -18q-7 0 -28 7l-84 30l-94 -30q-26 -7 -32 -7q-24 0 -20 22z" />
<glyph unicode="&#x135;" d="M23 -167q3 17 15.5 27t26.5 10t23 -10t6 -26l-8 -17q23 -10 72 -10q61 0 99 43q35 40 45 99l73 434h-145q-8 0 -13 0.5t-10.5 5.5t-4.5 14q4 22 36 22h163q20 0 24.5 -6.5t1.5 -25.5l-75 -449q-5 -27 -18 -55t-36 -57.5t-63 -48.5t-90 -19q-17 0 -29 0.5t-33 4t-33.5 10 t-21 20.5t-5.5 34zM264 528q1 7 26 22l114 66q19 11 34 0l94 -66q19 -13 18 -22q-4 -22 -28 -22q-4 0 -27 15l-80 54l-98 -54q-28 -15 -33 -15q-24 0 -20 22z" />
<glyph unicode="&#x136;" d="M32 22q3 20 35 20h31l88 527h-31q-9 0 -14 0.5t-10.5 5.5t-4.5 15q4 21 36 21h104q9 0 14 -0.5t10.5 -6t3.5 -15.5q-3 -20 -35 -20h-33l-53 -315l303 315q-15 0 -22.5 0.5t-16 2t-11 6t-1.5 11.5q4 22 36 22h91q8 0 13.5 -0.5t11 -5.5t3.5 -15q-1 -10 -9 -14.5t-17 -5.5 t-30 -1l-200 -208l126 -319q14 0 20.5 -0.5t14.5 -2t10.5 -6t1.5 -12.5q-4 -21 -37 -21h-77q-9 0 -14 0.5t-10.5 6t-3.5 15.5q2 14 13.5 17t38.5 3l-113 288l-131 -136l-25 -152h33q9 0 14 -0.5t10.5 -5.5t4.5 -15q-4 -21 -36 -21h-104q-9 0 -14 0.5t-10.5 6t-3.5 15.5z M171 -224q0 8 10 10q76 24 87 89q-14 -6 -28 -6q-16 0 -25 11t-6 28q2 15 14.5 26t30.5 11q22 0 34.5 -18.5t8.5 -48.5q-9 -51 -49.5 -84t-64.5 -33q-6 0 -10 5t-2 10z" />
<glyph unicode="&#x137;" d="M27 22q3 20 34 20h54l88 527h-54q-9 0 -14 0.5t-10 5.5t-4 15q4 21 35 21h67q20 0 24.5 -6.5t1.5 -25.5l-65 -388l236 192h-64q-8 0 -13 0.5t-10.5 5.5t-4.5 14q4 22 35 22h159q8 0 13.5 -0.5t11 -6t3.5 -15.5q-3 -20 -35 -20h-37l-159 -130l127 -211h35q8 0 13.5 -0.5 t11 -5.5t4.5 -15q-4 -21 -36 -21h-122q-8 0 -13 0.5t-10.5 5.5t-3.5 15q2 13 12.5 16t44.5 3h12l-110 183l-109 -85l-16 -96h61q9 0 14 -0.5t10 -5.5t4 -15q-4 -21 -35 -21h-159q-9 0 -14 0.5t-10 6t-3 15.5zM171 -224q0 8 10 10q76 24 87 89q-14 -6 -28 -6q-16 0 -25 11 t-6 28q2 15 14.5 26t30.5 11q22 0 34.5 -18.5t8.5 -48.5q-9 -51 -49.5 -84t-64.5 -33q-6 0 -10 5t-2 10z" />
<glyph unicode="&#x139;" d="M39 21q3 21 34 21h48l88 527h-48q-9 0 -14 0.5t-10 5.5t-4 14q4 22 35 22h167q8 0 13.5 -0.5t11 -6t3.5 -15.5q-3 -20 -35 -20h-68l-88 -527h270l14 82q1 10 3 16t8.5 11t18.5 5q17 0 20.5 -10.5t-0.5 -21.5l-16 -92q-3 -19 -10 -25.5t-26 -6.5h-388q-9 0 -14 0.5 t-10 5.5t-3 15zM162 704q2 11 23 21l148 62l16 4q11 0 17 -7.5t4 -18.5q-2 -16 -27 -26l-155 -64l-7 -2q-9 0 -14 7t-5.5 13t0.5 11z" />
<glyph unicode="&#x13a;" d="M65 21q3 21 35 21h144l88 527h-145q-8 0 -13 0.5t-10.5 5.5t-4.5 14q4 22 36 22h164q19 0 24 -6.5t2 -25.5l-90 -537h145q9 0 14 -0.5t10 -5.5t4 -15q-4 -21 -35 -21h-341q-8 0 -13 0.5t-10.5 5.5t-3.5 15zM281 704q2 11 23 21l148 62l16 4q11 0 17 -7.5t4 -18.5 q-2 -16 -27 -26l-155 -64l-7 -2q-9 0 -14 7t-5.5 13t0.5 11z" />
<glyph unicode="&#x13b;" d="M39 21q3 21 34 21h48l88 527h-48q-9 0 -14 0.5t-10 5.5t-4 14q4 22 35 22h167q8 0 13.5 -0.5t11 -6t3.5 -15.5q-3 -20 -35 -20h-68l-88 -527h270l14 82q1 10 3 16t8.5 11t18.5 5q17 0 20.5 -10.5t-0.5 -21.5l-16 -92q-3 -19 -10 -25.5t-26 -6.5h-388q-9 0 -14 0.5 t-10 5.5t-3 15zM171 -224q0 8 10 10q76 24 87 89q-14 -6 -28 -6q-16 0 -25 11t-6 28q2 15 14.5 26t30.5 11q22 0 34.5 -18.5t8.5 -48.5q-9 -51 -49.5 -84t-64.5 -33q-6 0 -10 5t-2 10z" />
<glyph unicode="&#x13c;" d="M65 21q3 21 35 21h144l88 527h-145q-8 0 -13 0.5t-10.5 5.5t-4.5 14q4 22 36 22h164q19 0 24 -6.5t2 -25.5l-90 -537h145q9 0 14 -0.5t10 -5.5t4 -15q-4 -21 -35 -21h-341q-8 0 -13 0.5t-10.5 5.5t-3.5 15zM171 -224q0 8 10 10q76 24 87 89q-14 -6 -28 -6q-16 0 -25 11 t-6 28q2 15 14.5 26t30.5 11q22 0 34.5 -18.5t8.5 -48.5q-9 -51 -49.5 -84t-64.5 -33q-6 0 -10 5t-2 10z" />
<glyph unicode="&#x13d;" d="M39 21q3 21 34 21h48l88 527h-48q-9 0 -14 0.5t-10 5.5t-4 14q4 22 35 22h167q8 0 13.5 -0.5t11 -6t3.5 -15.5q-3 -20 -35 -20h-68l-88 -527h270l14 82q1 10 3 16t8.5 11t18.5 5q17 0 20.5 -10.5t-0.5 -21.5l-16 -92q-3 -19 -10 -25.5t-26 -6.5h-388q-9 0 -14 0.5 t-10 5.5t-3 15zM407 452q76 24 87 89q-12 -6 -28 -6t-25 11t-6 28q2 15 14.5 26t30.5 11q23 0 35.5 -18.5t7.5 -48.5q-9 -51 -49.5 -84t-64.5 -33q-7 0 -10 5.5t-0.5 11.5t8.5 8z" />
<glyph unicode="&#x13e;" d="M65 21q3 21 35 21h144l88 527h-145q-8 0 -13 0.5t-10.5 5.5t-4.5 14q4 22 36 22h164q19 0 24 -6.5t2 -25.5l-90 -537h145q9 0 14 -0.5t10 -5.5t4 -15q-4 -21 -35 -21h-341q-8 0 -13 0.5t-10.5 5.5t-3.5 15zM411 452q76 24 87 89q-12 -6 -28 -6t-25 11t-6 28q2 15 14.5 26 t30.5 11q23 0 35.5 -18.5t7.5 -48.5q-9 -51 -49.5 -84t-64.5 -33q-7 0 -10 5.5t-0.5 11.5t8.5 8z" />
<glyph unicode="&#x13f;" d="M39 21q3 21 34 21h48l88 527h-48q-9 0 -14 0.5t-10 5.5t-4 14q4 22 35 22h167q8 0 13.5 -0.5t11 -6t3.5 -15.5q-3 -20 -35 -20h-68l-88 -527h270l14 82q1 10 3 16t8.5 11t18.5 5q17 0 20.5 -10.5t-0.5 -21.5l-16 -92q-3 -19 -10 -25.5t-26 -6.5h-388q-9 0 -14 0.5 t-10 5.5t-3 15zM414 316q3 18 17 30t31 12t27 -12t7 -30q-3 -17 -17 -29t-31 -12t-27 12t-7 29z" />
<glyph unicode="&#x140;" d="M65 21q3 21 35 21h144l88 527h-145q-8 0 -13 0.5t-10.5 5.5t-4.5 14q4 22 36 22h164q19 0 24 -6.5t2 -25.5l-90 -537h145q9 0 14 -0.5t10 -5.5t4 -15q-4 -21 -35 -21h-341q-8 0 -13 0.5t-10.5 5.5t-3.5 15zM537 316q3 18 17 30t31 12t27 -12t7 -30q-3 -17 -17 -29 t-31 -12t-27 12t-7 29z" />
<glyph unicode="&#x141;" d="M39 21q3 21 34 21h48l40 238l-58 -36q-13 -7 -21 -2t-7.5 17t10.5 18l84 52l40 240h-48q-9 0 -14 0.5t-10 5.5t-4 14q4 22 35 22h167q8 0 13.5 -0.5t11 -6t3.5 -15.5q-3 -20 -35 -20h-68l-34 -206l212 130q17 10 25 -6q8 -19 -9 -29l-236 -143l-46 -273h270l14 82 q1 10 3 16t8.5 11t18.5 5q17 0 20.5 -10.5t-0.5 -21.5l-16 -92q-3 -19 -10 -25.5t-26 -6.5h-388q-9 0 -14 0.5t-10 5.5t-3 15z" />
<glyph unicode="&#x142;" d="M65 21q3 21 35 21h144l48 285l-135 -83q-13 -7 -21 -2t-7.5 17t10.5 18l161 98l32 194h-145q-8 0 -13 0.5t-10.5 5.5t-4.5 14q4 22 36 22h164q19 0 24 -6.5t2 -25.5l-28 -168l134 82q12 6 20 0.5t7.5 -17.5t-10.5 -18l-160 -97l-53 -319h145q9 0 14 -0.5t10 -5.5t4 -15 q-4 -21 -35 -21h-341q-8 0 -13 0.5t-10.5 5.5t-3.5 15z" />
<glyph unicode="&#x143;" d="M34 22q3 20 34 20h37l88 527h-37q-9 0 -14 0.5t-10 5.5t-4 15q4 21 35 21h71q13 0 20.5 -1.5t13.5 -8.5t9 -20l110 -539h9l88 527h-36q-8 0 -13 0.5t-10.5 5.5t-4.5 14q4 22 35 22h110q9 0 14 -0.5t10 -6t3 -15.5q-3 -20 -34 -20h-37l-90 -537q-4 -21 -11 -26.5t-27 -5.5 q-13 0 -20 1.5t-14 8t-10 20.5l-110 539h-9l-88 -527h36q9 0 14 -0.5t10 -5.5t4 -15q-4 -21 -35 -21h-110q-9 0 -14 0.5t-10 6t-3 15.5zM281 704q2 11 23 21l148 62l16 4q11 0 17 -7.5t4 -18.5q-2 -16 -27 -26l-155 -64l-7 -2q-9 0 -14 7t-5.5 13t0.5 11z" />
<glyph unicode="&#x144;" d="M18 21q3 21 35 21h56l57 341h-57q-8 0 -13 0.5t-10.5 5.5t-4.5 14q4 22 36 22h75q22 0 25 -12.5t-5 -50.5q82 69 158 69q124 0 101 -138l-42 -251h56q9 0 14 -0.5t10.5 -5.5t4.5 -15q-4 -21 -35 -21h-158q-8 0 -13.5 0.5t-11 5.5t-3.5 15q3 21 35 21h51l41 245 q9 54 -4.5 78t-58.5 24q-51 0 -102 -38.5t-64 -114.5l-32 -194h56q9 0 14 -0.5t10.5 -5.5t4.5 -15q-4 -21 -35 -21h-164q-8 0 -13 0.5t-10.5 5.5t-3.5 15zM253 536q2 12 23 20l148 62l16 4q11 0 17.5 -7t4.5 -18q-4 -17 -28 -27l-155 -64l-7 -1q-23 0 -19 31z" />
<glyph unicode="&#x145;" d="M34 22q3 20 34 20h37l88 527h-37q-9 0 -14 0.5t-10 5.5t-4 15q4 21 35 21h71q13 0 20.5 -1.5t13.5 -8.5t9 -20l110 -539h9l88 527h-36q-8 0 -13 0.5t-10.5 5.5t-4.5 14q4 22 35 22h110q9 0 14 -0.5t10 -6t3 -15.5q-3 -20 -34 -20h-37l-90 -537q-4 -21 -11 -26.5t-27 -5.5 q-13 0 -20 1.5t-14 8t-10 20.5l-110 539h-9l-88 -527h36q9 0 14 -0.5t10 -5.5t4 -15q-4 -21 -35 -21h-110q-9 0 -14 0.5t-10 6t-3 15.5zM171 -224q0 8 10 10q76 24 87 89q-14 -6 -28 -6q-16 0 -25 11t-6 28q2 15 14.5 26t30.5 11q22 0 34.5 -18.5t8.5 -48.5 q-9 -51 -49.5 -84t-64.5 -33q-6 0 -10 5t-2 10z" />
<glyph unicode="&#x146;" d="M18 21q3 21 35 21h56l57 341h-57q-8 0 -13 0.5t-10.5 5.5t-4.5 14q4 22 36 22h75q22 0 25 -12.5t-5 -50.5q82 69 158 69q124 0 101 -138l-42 -251h56q9 0 14 -0.5t10.5 -5.5t4.5 -15q-4 -21 -35 -21h-158q-8 0 -13.5 0.5t-11 5.5t-3.5 15q3 21 35 21h51l41 245 q9 54 -4.5 78t-58.5 24q-51 0 -102 -38.5t-64 -114.5l-32 -194h56q9 0 14 -0.5t10.5 -5.5t4.5 -15q-4 -21 -35 -21h-164q-8 0 -13 0.5t-10.5 5.5t-3.5 15zM171 -224q0 8 10 10q76 24 87 89q-14 -6 -28 -6q-16 0 -25 11t-6 28q2 15 14.5 26t30.5 11q22 0 34.5 -18.5 t8.5 -48.5q-9 -51 -49.5 -84t-64.5 -33q-6 0 -10 5t-2 10z" />
<glyph unicode="&#x147;" d="M34 22q3 20 34 20h37l88 527h-37q-9 0 -14 0.5t-10 5.5t-4 15q4 21 35 21h71q13 0 20.5 -1.5t13.5 -8.5t9 -20l110 -539h9l88 527h-36q-8 0 -13 0.5t-10.5 5.5t-4.5 14q4 22 35 22h110q9 0 14 -0.5t10 -6t3 -15.5q-3 -20 -34 -20h-37l-90 -537q-4 -21 -11 -26.5t-27 -5.5 q-13 0 -20 1.5t-14 8t-10 20.5l-110 539h-9l-88 -527h36q9 0 14 -0.5t10 -5.5t4 -15q-4 -21 -35 -21h-110q-9 0 -14 0.5t-10 6t-3 15.5zM259 706q-22 8 -18.5 26t27.5 18q6 0 29 -7l84 -30l94 30q23 7 31 7q24 0 20 -22q-2 -13 -25 -22l-116 -40q-14 -4 -26 0z" />
<glyph unicode="&#x148;" d="M18 21q3 21 35 21h56l57 341h-57q-8 0 -13 0.5t-10.5 5.5t-4.5 14q4 22 36 22h75q22 0 25 -12.5t-5 -50.5q82 69 158 69q124 0 101 -138l-42 -251h56q9 0 14 -0.5t10.5 -5.5t4.5 -15q-4 -21 -35 -21h-158q-8 0 -13.5 0.5t-11 5.5t-3.5 15q3 21 35 21h51l41 245 q9 54 -4.5 78t-58.5 24q-51 0 -102 -38.5t-64 -114.5l-32 -194h56q9 0 14 -0.5t10.5 -5.5t4.5 -15q-4 -21 -35 -21h-164q-8 0 -13 0.5t-10.5 5.5t-3.5 15zM220 599q4 22 28 22q4 0 27 -15l80 -54l98 54q27 15 33 15q24 0 20 -22q-1 -7 -26 -22l-114 -66q-19 -11 -34 0 l-94 66q-19 13 -18 22z" />
<glyph unicode="&#x14a;" d="M18 21q3 21 35 21h56l88 527h-57q-8 0 -13 0.5t-10.5 5.5t-4.5 14q4 22 36 22h75q20 0 24 -9.5t-2 -44.5q80 65 149 65q65 0 104 -47.5t45 -117.5t-5 -151q-8 -45 -14 -76t-17 -71.5t-24.5 -67.5t-32 -52t-43.5 -37.5t-56 -12.5q-14 0 -22.5 10.5t-6.5 24.5t14.5 24.5 t26.5 10.5t25 -12q39 25 60.5 91.5t38.5 167.5q9 67 7.5 126t-29.5 99t-80 40q-54 0 -99 -39.5t-62 -98.5l-65 -391h56q9 0 14 -0.5t10.5 -5.5t4.5 -15q-4 -21 -35 -21h-164q-8 0 -13 0.5t-10.5 5.5t-3.5 15z" />
<glyph unicode="&#x14b;" d="M54 21q3 21 35 21h56l57 341h-57q-8 0 -13 0.5t-10.5 5.5t-4.5 14q4 22 36 22h76q22 0 25 -12.5t-5 -50.5q81 69 157 69q124 0 101 -138l-40 -240q-22 -129 -58 -203q-47 -91 -123 -91q-11 0 -17.5 7.5t-4.5 18.5t10.5 18.5t19.5 7.5q27 0 48 21t35 60.5t22.5 75 t17.5 85.5l39 234q9 54 -4.5 78t-58.5 24q-51 0 -101.5 -38.5t-63.5 -114.5l-32 -194h55q9 0 14 -0.5t10.5 -5.5t4.5 -15q-4 -21 -35 -21h-164q-8 0 -13 0.5t-10.5 5.5t-3.5 15z" />
<glyph unicode="&#x14c;" d="M110 305q13 78 22.5 124t24.5 86t29.5 57.5t42.5 30.5t57.5 16t79.5 3q37 0 61.5 -1.5t46 -8t33.5 -14.5t20.5 -26.5t10.5 -39t0.5 -56.5t-7 -74.5t-15.5 -96.5q-13 -78 -22.5 -124t-24.5 -85.5t-30 -57.5t-42.5 -30.5t-57 -15.5t-79.5 -3q-37 0 -61.5 1.5t-46.5 7.5 t-33.5 14.5t-20.5 27t-10.5 39t0 56t7 74t15.5 96.5zM142 112q2 -44 28 -62.5t97 -18.5q73 0 105 19.5t50 68.5q24 63 44 195q24 141 19 192q-4 45 -32 59.5t-94 14.5q-71 0 -103.5 -16.5t-50.5 -64.5q-20 -49 -43 -185q-24 -151 -20 -202zM195 705q4 22 35 22h308 q9 0 14 -0.5t10 -6t3 -16.5q-3 -21 -34 -21h-307q-9 0 -14.5 0.5t-10.5 6t-4 15.5z" />
<glyph unicode="&#x14d;" d="M96 213q15 92 85 156.5t153 64.5t132 -64.5t34 -156.5q-16 -92 -86.5 -155.5t-152.5 -63.5t-131.5 63.5t-33.5 155.5zM148 220q-13 -76 22.5 -130t97.5 -54q61 0 115 54t67 130q12 74 -25 123t-98 49q-60 0 -113.5 -49t-65.5 -123zM172 564q4 22 35 22h308q9 0 14 -0.5 t10 -6t3 -16.5q-4 -21 -35 -21h-307q-9 0 -14.5 0.5t-10.5 6t-3 15.5z" />
<glyph unicode="&#x14e;" d="M110 305q13 78 22.5 124t24.5 86t29.5 57.5t42.5 30.5t57.5 16t79.5 3q37 0 61.5 -1.5t46 -8t33.5 -14.5t20.5 -26.5t10.5 -39t0.5 -56.5t-7 -74.5t-15.5 -96.5q-13 -78 -22.5 -124t-24.5 -85.5t-30 -57.5t-42.5 -30.5t-57 -15.5t-79.5 -3q-37 0 -61.5 1.5t-46.5 7.5 t-33.5 14.5t-20.5 27t-10.5 39t0 56t7 74t15.5 96.5zM142 112q2 -44 28 -62.5t97 -18.5q73 0 105 19.5t50 68.5q24 63 44 195q24 141 19 192q-4 45 -32 59.5t-94 14.5q-71 0 -103.5 -16.5t-50.5 -64.5q-20 -49 -43 -185q-24 -151 -20 -202zM215 747q5 22 26 22q14 0 16 -11 q5 -40 126 -40q122 0 138 40q5 11 20 11q23 0 18 -22q-4 -26 -23 -42.5t-51.5 -22.5t-53.5 -7.5t-56 -1.5t-55.5 1.5t-51 7.5t-44 22.5t-9.5 42.5z" />
<glyph unicode="&#x14f;" d="M96 213q15 92 85 156.5t153 64.5t132 -64.5t34 -156.5q-16 -92 -86.5 -155.5t-152.5 -63.5t-131.5 63.5t-33.5 155.5zM148 220q-13 -76 22.5 -130t97.5 -54q61 0 115 54t67 130q12 74 -25 123t-98 49q-60 0 -113.5 -49t-65.5 -123zM189 590q5 22 26 22q14 0 16 -11 q5 -40 126 -40q122 0 138 40q5 11 20 11q23 0 18 -22q-4 -26 -23 -42.5t-51.5 -22.5t-53.5 -7.5t-56 -1.5t-55.5 1.5t-51 7.5t-44 22.5t-9.5 42.5z" />
<glyph unicode="&#x150;" d="M110 305q13 78 22.5 124t24.5 86t29.5 57.5t42.5 30.5t57.5 16t79.5 3q37 0 61.5 -1.5t46 -8t33.5 -14.5t20.5 -26.5t10.5 -39t0.5 -56.5t-7 -74.5t-15.5 -96.5q-13 -78 -22.5 -124t-24.5 -85.5t-30 -57.5t-42.5 -30.5t-57 -15.5t-79.5 -3q-37 0 -61.5 1.5t-46.5 7.5 t-33.5 14.5t-20.5 27t-10.5 39t0 56t7 74t15.5 96.5zM142 112q2 -44 28 -62.5t97 -18.5q73 0 105 19.5t50 68.5q24 63 44 195q24 141 19 192q-4 45 -32 59.5t-94 14.5q-71 0 -103.5 -16.5t-50.5 -64.5q-20 -49 -43 -185q-24 -151 -20 -202zM214 703q1 7 13 16l75 62 q19 14 35 17q10 0 16.5 -8t4.5 -19q-1 -9 -31 -32l-55 -45q-27 -21 -35 -21q-10 0 -17.5 10t-5.5 20zM415 703q1 7 13 16l75 62q19 14 35 17q10 0 16.5 -8t4.5 -19q-1 -9 -31 -32l-55 -45q-27 -21 -35 -21q-10 0 -17.5 10t-5.5 20z" />
<glyph unicode="&#x151;" d="M96 213q15 92 85 156.5t153 64.5t132 -64.5t34 -156.5q-16 -92 -86.5 -155.5t-152.5 -63.5t-131.5 63.5t-33.5 155.5zM148 220q-13 -76 22.5 -130t97.5 -54q61 0 115 54t67 130q12 74 -25 123t-98 49q-60 0 -113.5 -49t-65.5 -123zM186 531q0 4 12 16l76 62q17 14 34 17 q10 0 17 -8t5 -19q-2 -8 -31 -32l-56 -45q-24 -21 -34 -21t-17.5 10t-5.5 20zM387 531q0 4 12 16l76 62q17 14 34 17q10 0 17 -8t5 -19q-2 -8 -31 -32l-56 -45q-24 -21 -34 -21t-17.5 10t-5.5 20z" />
<glyph unicode="&#x152;" d="M59 76q-5 64 23 230q30 174 55 236q18 46 53.5 63t104.5 17q28 0 55 -6q25 -5 50 -5h164q19 0 24 -6.5t2 -25.5l-13 -76q-6 -32 -24 -32q-20 0 -14 32l11 66h-145l-39 -231h136q9 0 14 -0.5t10 -6t4 -15.5q-4 -20 -35 -20h-136l-42 -254h153l14 82q6 32 23 32 q20 0 14 -32l-16 -92q-3 -19 -10 -25.5t-26 -6.5h-171q-25 0 -47 -4q-35 -7 -62 -7q-76 0 -102 20t-28 67zM121 314q-8 -48 -12 -75.5t-7.5 -60.5t-3 -50t3.5 -37t10.5 -29t20 -17.5t29.5 -11t40 -2.5q42 0 63 26t35 110l46 277q12 91 1 113.5t-55 22.5q-31 0 -52.5 -4 t-38.5 -19t-27 -30.5t-20 -51t-16.5 -68t-16.5 -93.5z" />
<glyph unicode="&#x153;" d="M57 214q16 94 66.5 157t109.5 63q68 0 103 -102q67 102 128 102q51 0 72.5 -53.5t5.5 -149.5q-4 -20 -11 -27t-26 -7h-172q-5 -71 19 -116t61 -45q43 0 71 69q3 16 20 16q8 0 12.5 -5.5t3.5 -14.5q-5 -26 -37 -66.5t-81 -40.5q-72 0 -103 105q-73 -105 -139 -105 q-59 0 -89 63t-14 157zM95 220q-13 -76 10 -130t62 -54q38 0 79 54t54 130q12 75 -11.5 123.5t-62.5 48.5t-79 -48.5t-52 -123.5zM341 239h164q7 58 -0.5 94.5t-20 47.5t-27.5 11q-30 0 -64.5 -43.5t-51.5 -109.5z" />
<glyph unicode="&#x154;" d="M28 21q3 21 34 21h36l88 527h-36q-8 0 -13 0.5t-10.5 5.5t-4.5 14q4 22 35 22h183q83 0 128.5 -48.5t34.5 -114.5q-16 -89 -120 -143q39 -34 49 -68q5 -21 -7 -93q-10 -46 -6.5 -79.5t26.5 -33.5q14 0 25.5 21.5t14.5 35.5q4 21 28 21q25 0 21 -23q-5 -33 -30.5 -65 t-64.5 -32q-47 0 -64 38q-7 17 -8 37.5t0.5 35.5t8.5 57q7 34 6 56.5t-16 39.5q-31 31 -86 31h-91l-40 -242h36q9 0 14 -0.5t10 -5.5t4 -15q-4 -21 -35 -21h-123q-8 0 -13 0.5t-10.5 5.5t-3.5 15zM197 327h85q71 0 117 37.5t54 83.5q8 45 -26 83t-105 38h-85zM281 704 q2 11 23 21l148 62l16 4q11 0 17 -7.5t4 -18.5q-2 -16 -27 -26l-155 -64l-7 -2q-9 0 -14 7t-5.5 13t0.5 11z" />
<glyph unicode="&#x155;" d="M39 22q3 20 34 20h94l57 341h-94q-9 0 -14 0.5t-10 5.5t-4 15q4 21 35 21h113q20 0 24.5 -6.5t1.5 -25.5l-11 -63q106 101 203 101q27 0 44.5 -5.5t24.5 -14.5t9 -17t1 -17q-3 -15 -14 -24.5t-25 -9.5q-15 0 -22.5 12.5t-3.5 33.5q-100 0 -164 -61.5t-78 -145.5l-23 -140 h125q9 0 14 -0.5t10.5 -5.5t4.5 -15q-4 -21 -36 -21h-269q-9 0 -14 0.5t-10 6t-3 15.5zM253 536q2 12 23 20l148 62l16 4q11 0 17.5 -7t4.5 -18q-4 -17 -28 -27l-155 -64l-7 -1q-23 0 -19 31z" />
<glyph unicode="&#x156;" d="M28 21q3 21 34 21h36l88 527h-36q-8 0 -13 0.5t-10.5 5.5t-4.5 14q4 22 35 22h183q83 0 128.5 -48.5t34.5 -114.5q-16 -89 -120 -143q39 -34 49 -68q5 -21 -7 -93q-10 -46 -6.5 -79.5t26.5 -33.5q14 0 25.5 21.5t14.5 35.5q4 21 28 21q25 0 21 -23q-5 -33 -30.5 -65 t-64.5 -32q-47 0 -64 38q-7 17 -8 37.5t0.5 35.5t8.5 57q7 34 6 56.5t-16 39.5q-31 31 -86 31h-91l-40 -242h36q9 0 14 -0.5t10 -5.5t4 -15q-4 -21 -35 -21h-123q-8 0 -13 0.5t-10.5 5.5t-3.5 15zM171 -224q0 8 10 10q76 24 87 89q-14 -6 -28 -6q-16 0 -25 11t-6 28 q2 15 14.5 26t30.5 11q22 0 34.5 -18.5t8.5 -48.5q-9 -51 -49.5 -84t-64.5 -33q-6 0 -10 5t-2 10zM197 327h85q71 0 117 37.5t54 83.5q8 45 -26 83t-105 38h-85z" />
<glyph unicode="&#x157;" d="M39 22q3 20 34 20h94l57 341h-94q-9 0 -14 0.5t-10 5.5t-4 15q4 21 35 21h113q20 0 24.5 -6.5t1.5 -25.5l-11 -63q106 101 203 101q27 0 44.5 -5.5t24.5 -14.5t9 -17t1 -17q-3 -15 -14 -24.5t-25 -9.5q-15 0 -22.5 12.5t-3.5 33.5q-100 0 -164 -61.5t-78 -145.5l-23 -140 h125q9 0 14 -0.5t10.5 -5.5t4.5 -15q-4 -21 -36 -21h-269q-9 0 -14 0.5t-10 6t-3 15.5zM96 -224q0 8 10 10q76 24 87 89q-13 -6 -28 -6q-16 0 -25 11t-6 28q2 15 14.5 26t30.5 11q22 0 34.5 -18.5t8.5 -48.5q-9 -51 -49.5 -84t-64.5 -33q-6 0 -10 5t-2 10z" />
<glyph unicode="&#x158;" d="M28 21q3 21 34 21h36l88 527h-36q-8 0 -13 0.5t-10.5 5.5t-4.5 14q4 22 35 22h183q83 0 128.5 -48.5t34.5 -114.5q-16 -89 -120 -143q39 -34 49 -68q5 -21 -7 -93q-10 -46 -6.5 -79.5t26.5 -33.5q14 0 25.5 21.5t14.5 35.5q4 21 28 21q25 0 21 -23q-5 -33 -30.5 -65 t-64.5 -32q-47 0 -64 38q-7 17 -8 37.5t0.5 35.5t8.5 57q7 34 6 56.5t-16 39.5q-31 31 -86 31h-91l-40 -242h36q9 0 14 -0.5t10 -5.5t4 -15q-4 -21 -35 -21h-123q-8 0 -13 0.5t-10.5 5.5t-3.5 15zM197 327h85q71 0 117 37.5t54 83.5q8 45 -26 83t-105 38h-85zM259 706 q-22 8 -18.5 26t27.5 18q6 0 29 -7l84 -30l94 30q23 7 31 7q24 0 20 -22q-2 -13 -25 -22l-116 -40q-14 -4 -26 0z" />
<glyph unicode="&#x159;" d="M39 22q3 20 34 20h94l57 341h-94q-9 0 -14 0.5t-10 5.5t-4 15q4 21 35 21h113q20 0 24.5 -6.5t1.5 -25.5l-11 -63q106 101 203 101q27 0 44.5 -5.5t24.5 -14.5t9 -17t1 -17q-3 -15 -14 -24.5t-25 -9.5q-15 0 -22.5 12.5t-3.5 33.5q-100 0 -164 -61.5t-78 -145.5l-23 -140 h125q9 0 14 -0.5t10.5 -5.5t4.5 -15q-4 -21 -36 -21h-269q-9 0 -14 0.5t-10 6t-3 15.5zM220 599q4 22 28 22q4 0 27 -15l80 -54l98 54q27 15 33 15q24 0 20 -22q-1 -7 -26 -22l-114 -66q-19 -11 -34 0l-94 66q-19 13 -18 22z" />
<glyph unicode="&#x15a;" d="M59 21l22 136q2 10 4 15.5t9 11t19 5.5q11 0 16 -4t4.5 -10t-0.5 -12q-6 -67 37 -98q45 -34 121 -34q62 0 105.5 38.5t51.5 86.5q17 100 -102 127l-113 28q-56 17 -83 59.5t-18 92.5q11 64 70.5 111.5t138.5 47.5q85 0 141 -56q15 34 22.5 45t19.5 11q20 0 15 -32 l-22 -136q-2 -10 -4 -15.5t-9 -11t-19 -5.5q-20 0 -21 15q-1 24 -4 41t-14 44t-40 42.5t-73 15.5q-58 0 -101.5 -34t-51.5 -79q-6 -38 15 -67t57 -40l81 -19q63 -15 87 -25.5t48 -38.5q39 -50 28 -116q-12 -69 -72 -120.5t-141 -51.5q-104 0 -168 54q-15 -34 -22 -44 t-19 -10q-20 0 -15 32zM281 704q2 11 23 21l148 62l16 4q11 0 17 -7.5t4 -18.5q-2 -16 -27 -26l-155 -64l-7 -2q-9 0 -14 7t-5.5 13t0.5 11z" />
<glyph unicode="&#x15b;" d="M80 26l17 100q2 11 3.5 15.5t8.5 10.5t19 6q18 0 21 -12q10 -65 44 -87.5t83 -22.5q72 0 111.5 24t45.5 59q4 21 -7 37t-33.5 25.5t-42.5 15t-45 9.5q-29 4 -45 7t-41.5 9.5t-40 14.5t-28.5 19.5t-19 28.5t-1 38q3 16 12.5 32t30.5 35.5t62.5 31.5t98.5 12q63 0 113 -26 q7 15 12 20.5t17 5.5q20 0 15 -32l-12 -71q-4 -32 -31 -32q-19 0 -21 15q2 37 -17.5 57.5t-84.5 20.5q-73 0 -110.5 -21t-42.5 -48q-5 -29 27.5 -45.5t70.5 -22.5l69 -12q16 -3 28 -5.5t36.5 -12t40 -21.5t26 -34.5t5.5 -50.5q-3 -20 -14.5 -39.5t-33.5 -40t-63.5 -33 t-95.5 -12.5q-78 0 -132 46q-23 -46 -40 -46q-21 0 -16 32zM253 536q2 12 23 20l148 62l16 4q11 0 17.5 -7t4.5 -18q-4 -17 -28 -27l-155 -64l-7 -1q-23 0 -19 31z" />
<glyph unicode="&#x15c;" d="M59 21l22 136q2 10 4 15.5t9 11t19 5.5q11 0 16 -4t4.5 -10t-0.5 -12q-6 -67 37 -98q45 -34 121 -34q62 0 105.5 38.5t51.5 86.5q17 100 -102 127l-113 28q-56 17 -83 59.5t-18 92.5q11 64 70.5 111.5t138.5 47.5q85 0 141 -56q15 34 22.5 45t19.5 11q20 0 15 -32 l-22 -136q-2 -10 -4 -15.5t-9 -11t-19 -5.5q-20 0 -21 15q-1 24 -4 41t-14 44t-40 42.5t-73 15.5q-58 0 -101.5 -34t-51.5 -79q-6 -38 15 -67t57 -40l81 -19q63 -15 87 -25.5t48 -38.5q39 -50 28 -116q-12 -69 -72 -120.5t-141 -51.5q-104 0 -168 54q-15 -34 -22 -44 t-19 -10q-20 0 -15 32zM233 685q2 13 26 22l115 40q14 4 26 0l101 -40q21 -8 17 -26t-27 -18q-7 0 -28 7l-84 30l-94 -30q-26 -7 -32 -7q-24 0 -20 22z" />
<glyph unicode="&#x15d;" d="M80 26l17 100q2 11 3.5 15.5t8.5 10.5t19 6q18 0 21 -12q10 -65 44 -87.5t83 -22.5q72 0 111.5 24t45.5 59q4 21 -7 37t-33.5 25.5t-42.5 15t-45 9.5q-29 4 -45 7t-41.5 9.5t-40 14.5t-28.5 19.5t-19 28.5t-1 38q3 16 12.5 32t30.5 35.5t62.5 31.5t98.5 12q63 0 113 -26 q7 15 12 20.5t17 5.5q20 0 15 -32l-12 -71q-4 -32 -31 -32q-19 0 -21 15q2 37 -17.5 57.5t-84.5 20.5q-73 0 -110.5 -21t-42.5 -48q-5 -29 27.5 -45.5t70.5 -22.5l69 -12q16 -3 28 -5.5t36.5 -12t40 -21.5t26 -34.5t5.5 -50.5q-3 -20 -14.5 -39.5t-33.5 -40t-63.5 -33 t-95.5 -12.5q-78 0 -132 46q-23 -46 -40 -46q-21 0 -16 32zM208 528q1 7 26 22l114 66q19 11 34 0l94 -66q19 -13 18 -22q-4 -22 -28 -22q-5 0 -27 15l-80 54l-98 -54q-27 -15 -33 -15q-24 0 -20 22z" />
<glyph unicode="&#x15e;" d="M59 21l22 136q2 10 4 15.5t9 11t19 5.5q11 0 16 -4t4.5 -10t-0.5 -12q-6 -67 37 -98q45 -34 121 -34q62 0 105.5 38.5t51.5 86.5q17 100 -102 127l-113 28q-56 17 -83 59.5t-18 92.5q11 64 70.5 111.5t138.5 47.5q85 0 141 -56q15 34 22.5 45t19.5 11q20 0 15 -32 l-22 -136q-2 -10 -4 -15.5t-9 -11t-19 -5.5q-20 0 -21 15q-1 24 -4 41t-14 44t-40 42.5t-73 15.5q-58 0 -101.5 -34t-51.5 -79q-6 -38 15 -67t57 -40l81 -19q63 -15 87 -25.5t48 -38.5q39 -50 28 -116q-10 -62 -62 -111t-129 -61l-5 -29q51 -10 72 -35.5t16 -55.5 q-4 -23 -16.5 -40t-35 -27t-43 -16t-53 -8.5t-51 -3t-50.5 -0.5q-22 0 -18 21q1 8 5 12.5t12.5 6.5t15.5 2.5t22 0.5q52 0 104 11.5t57 40.5q3 20 -15 35t-55 16q-15 1 -18.5 11.5t0.5 21.5l6 37q-88 9 -140 53q-15 -34 -22 -44t-19 -10q-20 0 -15 32z" />
<glyph unicode="&#x15f;" d="M80 26l17 100q2 11 3.5 15.5t8.5 10.5t19 6q18 0 21 -12q10 -65 44 -87.5t83 -22.5q72 0 111.5 24t45.5 59q4 21 -7 37t-33.5 25.5t-42.5 15t-45 9.5q-29 4 -45 7t-41.5 9.5t-40 14.5t-28.5 19.5t-19 28.5t-1 38q3 16 12.5 32t30.5 35.5t62.5 31.5t98.5 12q63 0 113 -26 q7 15 12 20.5t17 5.5q20 0 15 -32l-12 -71q-4 -32 -31 -32q-19 0 -21 15q2 37 -17.5 57.5t-84.5 20.5q-73 0 -110.5 -21t-42.5 -48q-5 -29 27.5 -45.5t70.5 -22.5l69 -12q16 -3 28 -5.5t36.5 -12t40 -21.5t26 -34.5t5.5 -50.5q-9 -54 -57 -86t-112 -37l-4 -25 q11 -1 25.5 -5.5t31 -14.5t26 -28.5t5.5 -42.5q-4 -23 -16.5 -40t-35 -27t-43 -16t-53 -8.5t-51 -3t-50.5 -0.5q-22 0 -18 22q1 10 9.5 15t17 5.5t28.5 0.5q52 0 104 11.5t57 40.5q3 19 -15 34.5t-55 17.5q-24 1 -18 33l5 29q-72 6 -120 46q-23 -46 -40 -46q-21 0 -16 32z " />
<glyph unicode="&#x160;" d="M59 21l22 136q2 10 4 15.5t9 11t19 5.5q11 0 16 -4t4.5 -10t-0.5 -12q-6 -67 37 -98q45 -34 121 -34q62 0 105.5 38.5t51.5 86.5q17 100 -102 127l-113 28q-56 17 -83 59.5t-18 92.5q11 64 70.5 111.5t138.5 47.5q85 0 141 -56q15 34 22.5 45t19.5 11q20 0 15 -32 l-22 -136q-2 -10 -4 -15.5t-9 -11t-19 -5.5q-20 0 -21 15q-1 24 -4 41t-14 44t-40 42.5t-73 15.5q-58 0 -101.5 -34t-51.5 -79q-6 -38 15 -67t57 -40l81 -19q63 -15 87 -25.5t48 -38.5q39 -50 28 -116q-12 -69 -72 -120.5t-141 -51.5q-104 0 -168 54q-15 -34 -22 -44 t-19 -10q-20 0 -15 32zM259 706q-22 8 -18.5 26t27.5 18q6 0 29 -7l84 -30l94 30q23 7 31 7q24 0 20 -22q-2 -13 -25 -22l-116 -40q-14 -4 -26 0z" />
<glyph unicode="&#x161;" d="M80 26l17 100q2 11 3.5 15.5t8.5 10.5t19 6q18 0 21 -12q10 -65 44 -87.5t83 -22.5q72 0 111.5 24t45.5 59q4 21 -7 37t-33.5 25.5t-42.5 15t-45 9.5q-29 4 -45 7t-41.5 9.5t-40 14.5t-28.5 19.5t-19 28.5t-1 38q3 16 12.5 32t30.5 35.5t62.5 31.5t98.5 12q63 0 113 -26 q7 15 12 20.5t17 5.5q20 0 15 -32l-12 -71q-4 -32 -31 -32q-19 0 -21 15q2 37 -17.5 57.5t-84.5 20.5q-73 0 -110.5 -21t-42.5 -48q-5 -29 27.5 -45.5t70.5 -22.5l69 -12q16 -3 28 -5.5t36.5 -12t40 -21.5t26 -34.5t5.5 -50.5q-3 -20 -14.5 -39.5t-33.5 -40t-63.5 -33 t-95.5 -12.5q-78 0 -132 46q-23 -46 -40 -46q-21 0 -16 32zM220 599q4 22 28 22q4 0 27 -15l80 -54l98 54q27 15 33 15q24 0 20 -22q-1 -7 -26 -22l-114 -66q-19 -11 -34 0l-94 66q-19 13 -18 22z" />
<glyph unicode="&#x162;" d="M103 -196q1 10 9 15t17 5.5t29 0.5q51 0 103.5 11.5t57.5 40.5q3 19 -15 34.5t-55 17.5q-16 1 -19.5 11t0.5 22l5 28q0 4 2 10h-64q-9 0 -14 0.5t-10 6t-3 15.5q3 20 34 20h64l88 527h-158l-11 -66q-2 -11 -3.5 -15.5t-8.5 -10.5t-19 -6q-25 0 -20 32l13 76 q3 19 10.5 25.5t26.5 6.5h405q19 0 24 -6.5t2 -25.5l-13 -76q-2 -11 -3.5 -15.5t-8.5 -10.5t-19 -6q-25 0 -20 32l11 66h-157l-88 -527h64q9 0 14 -0.5t10 -5.5t4 -15q-4 -21 -35 -21h-65q-1 -4 -2.5 -15t-2.5 -16q51 -10 71.5 -35.5t15.5 -56.5q-4 -23 -16.5 -40t-35 -27 t-42.5 -16t-52.5 -8.5t-51 -3t-50.5 -0.5q-22 0 -18 22z" />
<glyph unicode="&#x163;" d="M94 403q4 22 36 22h101l16 95q4 32 30 32q25 0 20 -32l-16 -95h180q9 0 14 -0.5t10 -6t3 -15.5q-3 -20 -34 -20h-180l-43 -257q-1 -16 -3 -36t17.5 -37t60.5 -17q18 0 37.5 5t42 26t28.5 54q4 29 30 29q12 0 17.5 -4.5t5 -11.5t-1.5 -14q-9 -53 -50 -85t-94 -39 q0 -5 -4 -27q51 -10 71.5 -35.5t15.5 -56.5q-4 -23 -16.5 -40t-35 -27t-42.5 -16t-52.5 -8.5t-51 -3t-50.5 -0.5q-22 0 -18 22q1 10 9 15t17 5.5t29 0.5q51 0 103.5 11.5t57.5 40.5q3 19 -15 34.5t-55 17.5q-16 1 -19.5 11t0.5 22l5 28l1 5q-49 6 -75 36.5t-16 88.5l44 263 h-102q-8 0 -13 0.5t-10.5 5.5t-4.5 14z" />
<glyph unicode="&#x164;" d="M112 503l13 76q3 19 10.5 25.5t26.5 6.5h405q19 0 24 -6.5t2 -25.5l-13 -76q-2 -11 -3.5 -15.5t-8.5 -10.5t-19 -6q-25 0 -20 32l11 66h-157l-88 -527h64q9 0 14 -0.5t10 -5.5t4 -15q-4 -21 -35 -21h-179q-9 0 -14 0.5t-10 6t-3 15.5q3 20 34 20h64l88 527h-158l-11 -66 q-2 -11 -3.5 -15.5t-8.5 -10.5t-19 -6q-25 0 -20 32zM259 706q-22 8 -18.5 26t27.5 18q6 0 29 -7l84 -30l94 30q23 7 31 7q24 0 20 -22q-2 -13 -25 -22l-116 -40q-14 -4 -26 0z" />
<glyph unicode="&#x165;" d="M94 403q4 22 36 22h101l16 95q4 32 30 32q25 0 20 -32l-16 -95h180q9 0 14 -0.5t10 -6t3 -15.5q-3 -20 -34 -20h-180l-43 -257q-1 -16 -3 -36t17.5 -37t60.5 -17q18 0 37.5 5t42 26t28.5 54q4 29 30 29q12 0 17.5 -4.5t5 -11.5t-1.5 -14q-10 -60 -61 -93t-110 -33 q-58 0 -91.5 30.5t-22.5 95.5l44 263h-102q-8 0 -13 0.5t-10.5 5.5t-4.5 14zM340 494q76 24 87 89q-12 -6 -28 -6t-25 11t-6 28q2 15 14.5 26t30.5 11q23 0 35.5 -18.5t7.5 -48.5q-9 -51 -49.5 -84t-64.5 -33q-7 0 -10 5.5t-0.5 11.5t8.5 8z" />
<glyph unicode="&#x168;" d="M104 590q4 21 36 21h133q8 0 13.5 -0.5t11 -5.5t3.5 -15q-3 -21 -35 -21h-41l-61 -363q-13 -83 20 -129t83 -46t99 46.5t62 128.5l61 363h-41q-8 0 -13.5 0.5t-11 5.5t-4.5 15q4 21 36 21h133q9 0 14 -0.5t10.5 -5.5t3.5 -15q-3 -21 -35 -21h-41l-61 -368 q-16 -90 -80 -151t-139 -61t-119 61.5t-28 150.5l61 368h-41q-9 0 -14 0.5t-10.5 5.5t-4.5 15zM206 685q2 12 55 49q50 32 80 32q22 0 44 -18q33 -35 41 -38q3 -1 7 -1q27 0 87 48q11 9 20 9q8 0 13.5 -7t4.5 -16q-2 -14 -55 -48q-47 -32 -80 -32q-24 0 -44 18 q-16 18 -22 23.5t-13 10t-13 4.5q-29 0 -87 -48q-12 -8 -20 -8t-14 7t-4 15z" />
<glyph unicode="&#x169;" d="M81 403q4 22 36 22h75q20 0 24.5 -6.5t1.5 -25.5l-47 -279q-2 -20 -3 -37t19 -29t63 -12q18 0 37 4t43.5 15t42.5 36t24 61l39 231h-57q-8 0 -13 0.5t-10.5 5.5t-4.5 14q4 22 36 22h75q20 0 24.5 -6.5t1.5 -25.5l-59 -351h57q8 0 13 -0.5t10.5 -5.5t4.5 -14 q-4 -22 -36 -22h-75q-10 0 -15 1.5t-9 11.5t-1 30q-73 -49 -141 -49q-61 0 -94 25.5t-23 88.5l46 275h-57q-8 0 -13 0.5t-10.5 5.5t-4.5 14zM181 534q2 12 55 49q50 32 80 32q22 0 44 -18q33 -35 41 -38q3 -1 7 -1q27 0 87 48q11 9 20 9q8 0 13.5 -7t4.5 -16q-2 -14 -55 -48 q-50 -32 -80 -32q-24 0 -44 18q-33 35 -41 38q-3 1 -7 1q-27 0 -87 -49q-12 -8 -20 -8t-13.5 7t-4.5 15z" />
<glyph unicode="&#x16a;" d="M104 590q4 21 36 21h133q8 0 13.5 -0.5t11 -5.5t3.5 -15q-3 -21 -35 -21h-41l-61 -363q-13 -83 20 -129t83 -46t99 46.5t62 128.5l61 363h-41q-8 0 -13.5 0.5t-11 5.5t-4.5 15q4 21 36 21h133q9 0 14 -0.5t10.5 -5.5t3.5 -15q-3 -21 -35 -21h-41l-61 -368 q-16 -90 -80 -151t-139 -61t-119 61.5t-28 150.5l61 368h-41q-9 0 -14 0.5t-10.5 5.5t-4.5 15zM195 705q4 22 35 22h308q9 0 14 -0.5t10 -6t3 -16.5q-3 -21 -34 -21h-307q-9 0 -14.5 0.5t-10.5 6t-4 15.5z" />
<glyph unicode="&#x16b;" d="M81 403q4 22 36 22h75q20 0 24.5 -6.5t1.5 -25.5l-47 -279q-2 -20 -3 -37t19 -29t63 -12q18 0 37 4t43.5 15t42.5 36t24 61l39 231h-57q-8 0 -13 0.5t-10.5 5.5t-4.5 14q4 22 36 22h75q20 0 24.5 -6.5t1.5 -25.5l-59 -351h57q8 0 13 -0.5t10.5 -5.5t4.5 -14 q-4 -22 -36 -22h-75q-10 0 -15 1.5t-9 11.5t-1 30q-73 -49 -141 -49q-61 0 -94 25.5t-23 88.5l46 275h-57q-8 0 -13 0.5t-10.5 5.5t-4.5 14zM172 564q4 22 35 22h308q9 0 14 -0.5t10 -6t3 -16.5q-4 -21 -35 -21h-307q-9 0 -14.5 0.5t-10.5 6t-3 15.5z" />
<glyph unicode="&#x16c;" d="M104 590q4 21 36 21h133q8 0 13.5 -0.5t11 -5.5t3.5 -15q-3 -21 -35 -21h-41l-61 -363q-13 -83 20 -129t83 -46t99 46.5t62 128.5l61 363h-41q-8 0 -13.5 0.5t-11 5.5t-4.5 15q4 21 36 21h133q9 0 14 -0.5t10.5 -5.5t3.5 -15q-3 -21 -35 -21h-41l-61 -368 q-16 -90 -80 -151t-139 -61t-119 61.5t-28 150.5l61 368h-41q-9 0 -14 0.5t-10.5 5.5t-4.5 15zM215 747q5 22 26 22q14 0 16 -11q5 -40 126 -40q122 0 138 40q5 11 20 11q23 0 18 -22q-4 -26 -23 -42.5t-51.5 -22.5t-53.5 -7.5t-56 -1.5t-55.5 1.5t-51 7.5t-44 22.5 t-9.5 42.5z" />
<glyph unicode="&#x16d;" d="M81 403q4 22 36 22h75q20 0 24.5 -6.5t1.5 -25.5l-47 -279q-2 -20 -3 -37t19 -29t63 -12q18 0 37 4t43.5 15t42.5 36t24 61l39 231h-57q-8 0 -13 0.5t-10.5 5.5t-4.5 14q4 22 36 22h75q20 0 24.5 -6.5t1.5 -25.5l-59 -351h57q8 0 13 -0.5t10.5 -5.5t4.5 -14 q-4 -22 -36 -22h-75q-10 0 -15 1.5t-9 11.5t-1 30q-73 -49 -141 -49q-61 0 -94 25.5t-23 88.5l46 275h-57q-8 0 -13 0.5t-10.5 5.5t-4.5 14zM189 590q5 22 26 22q14 0 16 -11q5 -40 126 -40q122 0 138 40q5 11 20 11q23 0 18 -22q-4 -26 -23 -42.5t-51.5 -22.5t-53.5 -7.5 t-56 -1.5t-55.5 1.5t-51 7.5t-44 22.5t-9.5 42.5z" />
<glyph unicode="&#x16e;" d="M104 590q4 21 36 21h133q8 0 13.5 -0.5t11 -5.5t3.5 -15q-3 -21 -35 -21h-41l-61 -363q-13 -83 20 -129t83 -46t99 46.5t62 128.5l61 363h-41q-8 0 -13.5 0.5t-11 5.5t-4.5 15q4 21 36 21h133q9 0 14 -0.5t10.5 -5.5t3.5 -15q-3 -21 -35 -21h-41l-61 -368 q-16 -90 -80 -151t-139 -61t-119 61.5t-28 150.5l61 368h-41q-9 0 -14 0.5t-10.5 5.5t-4.5 15zM277 694q5 30 37.5 51.5t76.5 21.5q43 0 69 -21.5t21 -51.5q-5 -29 -38 -50t-76 -21q-44 0 -69.5 21t-20.5 50zM327 694q-3 -16 11 -25t35 -9t38 9t20 25q2 17 -11.5 26.5 t-34.5 9.5q-22 0 -39 -10t-19 -26z" />
<glyph unicode="&#x16f;" d="M81 403q4 22 36 22h75q20 0 24.5 -6.5t1.5 -25.5l-47 -279q-2 -20 -3 -37t19 -29t63 -12q18 0 37 4t43.5 15t42.5 36t24 61l39 231h-57q-8 0 -13 0.5t-10.5 5.5t-4.5 14q4 22 36 22h75q20 0 24.5 -6.5t1.5 -25.5l-59 -351h57q8 0 13 -0.5t10.5 -5.5t4.5 -14 q-4 -22 -36 -22h-75q-10 0 -15 1.5t-9 11.5t-1 30q-73 -49 -141 -49q-61 0 -94 25.5t-23 88.5l46 275h-57q-8 0 -13 0.5t-10.5 5.5t-4.5 14zM255 563q5 30 37.5 51.5t76.5 21.5q43 0 69 -21.5t21 -51.5q-5 -29 -37.5 -50t-76.5 -21q-43 0 -69 21t-21 50zM305 563 q-3 -16 11 -25t35 -9t38 9t20 25q3 17 -11 26.5t-35 9.5t-38 -9.5t-20 -26.5z" />
<glyph unicode="&#x170;" d="M104 590q4 21 36 21h133q8 0 13.5 -0.5t11 -5.5t3.5 -15q-3 -21 -35 -21h-41l-61 -363q-13 -83 20 -129t83 -46t99 46.5t62 128.5l61 363h-41q-8 0 -13.5 0.5t-11 5.5t-4.5 15q4 21 36 21h133q9 0 14 -0.5t10.5 -5.5t3.5 -15q-3 -21 -35 -21h-41l-61 -368 q-16 -90 -80 -151t-139 -61t-119 61.5t-28 150.5l61 368h-41q-9 0 -14 0.5t-10.5 5.5t-4.5 15zM214 703q1 7 13 16l75 62q19 14 35 17q10 0 16.5 -8t4.5 -19q-1 -9 -31 -32l-55 -45q-27 -21 -35 -21q-10 0 -17.5 10t-5.5 20zM415 703q1 7 13 16l75 62q19 14 35 17 q10 0 16.5 -8t4.5 -19q-1 -9 -31 -32l-55 -45q-27 -21 -35 -21q-10 0 -17.5 10t-5.5 20z" />
<glyph unicode="&#x171;" d="M81 403q4 22 36 22h75q20 0 24.5 -6.5t1.5 -25.5l-47 -279q-2 -20 -3 -37t19 -29t63 -12q18 0 37 4t43.5 15t42.5 36t24 61l39 231h-57q-8 0 -13 0.5t-10.5 5.5t-4.5 14q4 22 36 22h75q20 0 24.5 -6.5t1.5 -25.5l-59 -351h57q8 0 13 -0.5t10.5 -5.5t4.5 -14 q-4 -22 -36 -22h-75q-10 0 -15 1.5t-9 11.5t-1 30q-73 -49 -141 -49q-61 0 -94 25.5t-23 88.5l46 275h-57q-8 0 -13 0.5t-10.5 5.5t-4.5 14zM186 531q0 4 12 16l76 62q17 14 34 17q10 0 17 -8t5 -19q-2 -8 -31 -32l-56 -45q-24 -21 -34 -21t-17.5 10t-5.5 20zM387 531 q0 4 12 16l76 62q17 14 34 17q10 0 17 -8t5 -19q-2 -8 -31 -32l-56 -45q-24 -21 -34 -21t-17.5 10t-5.5 20z" />
<glyph unicode="&#x172;" d="M104 590q4 21 36 21h133q8 0 13.5 -0.5t11 -5.5t3.5 -15q-3 -21 -35 -21h-41l-61 -363q-13 -83 20 -129t83 -46t99 46.5t62 128.5l61 363h-41q-8 0 -13.5 0.5t-11 5.5t-4.5 15q4 21 36 21h133q9 0 14 -0.5t10.5 -5.5t3.5 -15q-3 -21 -35 -21h-41l-61 -368 q-13 -79 -61.5 -133t-115.5 -70q-34 -21 -59 -54.5t-31 -67.5q-3 -22 13 -36.5t35 -14.5q33 0 71 42q3 3 11 4.5t13 -1.5q4 -4 3.5 -11t-4.5 -12q-50 -57 -104 -57q-42 0 -62.5 27.5t-14.5 60.5q8 59 78 113q-79 13 -115.5 69.5t-22.5 140.5l61 368h-41q-9 0 -14 0.5 t-10.5 5.5t-4.5 15z" />
<glyph unicode="&#x173;" d="M81 403q4 22 36 22h75q20 0 24.5 -6.5t1.5 -25.5l-47 -279q-2 -20 -3 -37t19 -29t63 -12q18 0 37 4t43.5 15t42.5 36t24 61l39 231h-57q-8 0 -13 0.5t-10.5 5.5t-4.5 14q4 22 36 22h75q20 0 24.5 -6.5t1.5 -25.5l-59 -351h57q8 0 13 -0.5t10.5 -5.5t4.5 -14 q-4 -22 -36 -22h-10q-40 -21 -70.5 -54t-36.5 -70q-3 -22 13 -36.5t35 -14.5q16 0 36.5 13t33.5 29q16 12 25 3q10 -10 -1 -23q-50 -57 -104 -57q-41 0 -62 27.5t-15 60.5q9 61 98 122q-33 0 -39.5 6.5t-2.5 36.5q-73 -49 -141 -49q-61 0 -94 25.5t-23 88.5l46 275h-57 q-8 0 -13 0.5t-10.5 5.5t-4.5 14z" />
<glyph unicode="&#x174;" d="M111 589q4 22 36 22h82q9 0 14 -0.5t10 -6t3 -15.5q-3 -20 -34 -20h-34l-22 -535h4l116 309q7 16 36 16q30 0 31 -17l12 -308h4l157 535h-34q-8 0 -13 0.5t-10.5 5.5t-4.5 14q4 22 35 22h82q8 0 13.5 -0.5t11 -6t3.5 -15.5q-3 -20 -41 -20l-167 -550q-8 -27 -41 -27 q-29 0 -30 18l-15 302l-119 -306q-10 -14 -34 -14q-33 0 -33 27l17 550h-10q-28 0 -25 20zM233 685q2 13 26 22l115 40q14 4 26 0l101 -40q21 -8 17 -26t-27 -18q-7 0 -28 7l-84 30l-94 -30q-26 -7 -32 -7q-24 0 -20 22z" />
<glyph unicode="&#x175;" d="M85 404q4 21 37 21h119q10 0 15.5 -0.5t10.5 -6t3 -15.5q-3 -20 -36 -20h-59l2 -345h6l87 192q8 17 35 17q32 0 32 -18l17 -191h6l117 345h-59q-10 0 -15.5 0.5t-10.5 5.5t-4 15q4 21 37 21h119q9 0 14.5 -0.5t11 -5.5t3.5 -15q-1 -10 -8 -14.5t-15.5 -5.5t-28.5 -1 l-123 -356q-5 -16 -13.5 -23.5t-29.5 -7.5q-27 0 -35 12l-18 197h-6l-78 -181q-7 -17 -17.5 -22.5t-30.5 -5.5q-23 0 -29 7t-5 24l-5 356q-15 0 -22 0.5t-14 2t-9 6t-1 12.5zM208 528q1 7 26 22l114 66q19 11 34 0l94 -66q19 -13 18 -22q-4 -22 -28 -22q-5 0 -27 15l-80 54 l-98 -54q-27 -15 -33 -15q-24 0 -20 22z" />
<glyph unicode="&#x176;" d="M119 590q4 21 35 21h108q8 0 13 -0.5t10.5 -5.5t3.5 -15q-1 -10 -9 -14.5t-17 -5.5t-31 -1l79 -280l170 280q-16 0 -23 0.5t-15 2t-10.5 6t-1.5 12.5q4 21 35 21h108q9 0 14 -0.5t10 -6t3 -15.5q-3 -20 -34 -20h-28l-210 -325l-34 -202h36q9 0 14 -0.5t10 -5.5t4 -15 q-4 -21 -35 -21h-123q-9 0 -14 0.5t-10 6t-3 15.5q3 20 34 20h36l34 202l-103 325h-28q-9 0 -14 0.5t-10 5.5t-4 15zM233 685q2 13 26 22l115 40q14 4 26 0l101 -40q21 -8 17 -26t-27 -18q-7 0 -28 7l-84 30l-94 -30q-26 -7 -32 -7q-24 0 -20 22z" />
<glyph unicode="&#x177;" d="M19 -161q2 15 13.5 25t27.5 10q15 0 23 -9.5t5 -24.5l-9 -20q4 -13 10 -13q27 0 47.5 11.5t49.5 53.5q8 12 23.5 40.5t26.5 51.5l11 23l-89 396h-35q-8 0 -13 0.5t-10.5 5.5t-4.5 14q4 22 35 22h121q9 0 14 -0.5t10 -6t3 -15.5q-3 -20 -34 -20h-41l74 -348l173 348h-40 q-9 0 -14 0.5t-10 5.5t-4 15q4 21 35 21h121q9 0 14 -0.5t10 -6t3 -15.5q-3 -20 -34 -20h-38l-242 -478q-7 -14 -17 -28.5t-33.5 -44.5t-55 -49t-63.5 -19t-50 22.5t-13 52.5zM208 528q1 7 26 22l114 66q19 11 34 0l94 -66q19 -13 18 -22q-4 -22 -28 -22q-5 0 -27 15l-80 54 l-98 -54q-27 -15 -33 -15q-24 0 -20 22z" />
<glyph unicode="&#x178;" d="M119 590q4 21 35 21h108q8 0 13 -0.5t10.5 -5.5t3.5 -15q-1 -10 -9 -14.5t-17 -5.5t-31 -1l79 -280l170 280q-16 0 -23 0.5t-15 2t-10.5 6t-1.5 12.5q4 21 35 21h108q9 0 14 -0.5t10 -6t3 -15.5q-3 -20 -34 -20h-28l-210 -325l-34 -202h36q9 0 14 -0.5t10 -5.5t4 -15 q-4 -21 -35 -21h-123q-9 0 -14 0.5t-10 6t-3 15.5q3 20 34 20h36l34 202l-103 325h-28q-9 0 -14 0.5t-10 5.5t-4 15zM242 699q3 16 15 26t27 10t24 -10.5t6 -25.5q-2 -15 -14.5 -25.5t-27.5 -10.5t-23.5 10.5t-6.5 25.5zM443 699q3 16 15 26t27 10t24 -10.5t6 -25.5 q-2 -15 -14.5 -25.5t-27.5 -10.5t-23.5 10.5t-6.5 25.5z" />
<glyph unicode="&#x179;" d="M55 25q4 15 14 26l437 518h-297l-11 -66q-2 -11 -3.5 -15.5t-8.5 -10.5t-19 -6q-25 0 -20 32l13 76q3 19 10.5 25.5t27.5 6.5h345q10 0 15 -1t10 -6.5t3 -17.5q-4 -15 -14 -26l-437 -518h314l14 85q2 10 4 15.5t9 11t19 5.5q17 0 20 -10.5t-1 -21.5l-16 -95 q-3 -19 -10 -25.5t-26 -6.5h-364q-10 0 -15 1t-10 6.5t-3 17.5zM281 704q2 11 23 21l148 62l16 4q11 0 17 -7.5t4 -18.5q-2 -16 -27 -26l-155 -64l-7 -2q-9 0 -14 7t-5.5 13t0.5 11z" />
<glyph unicode="&#x17a;" d="M40 25q2 11 6 16.5t19 17.5l395 324h-293l-6 -38q-2 -10 -4 -15.5t-9 -11t-19 -5.5q-26 0 -19 32l8 48q3 19 10 25.5t27 6.5h352q10 0 15 -1t10 -6.5t3 -17.5q-3 -16 -26 -34l-395 -324h314l8 50q2 10 4 15.5t9 11t19 5.5q26 0 19 -32l-10 -60q-2 -26 -19 -32h-390 q-10 0 -15.5 1t-10 6.5t-2.5 17.5zM253 536q2 12 23 20l148 62l16 4q11 0 17.5 -7t4.5 -18q-4 -17 -28 -27l-155 -64l-7 -1q-23 0 -19 31z" />
<glyph unicode="&#x17b;" d="M55 25q4 15 14 26l437 518h-297l-11 -66q-2 -11 -3.5 -15.5t-8.5 -10.5t-19 -6q-25 0 -20 32l13 76q3 19 10.5 25.5t27.5 6.5h345q10 0 15 -1t10 -6.5t3 -17.5q-4 -15 -14 -26l-437 -518h314l14 85q2 10 4 15.5t9 11t19 5.5q17 0 20 -10.5t-1 -21.5l-16 -95 q-3 -19 -10 -25.5t-26 -6.5h-364q-10 0 -15 1t-10 6.5t-3 17.5zM341 715q3 17 17 29.5t31 12.5t27 -12.5t7 -29.5t-17 -29t-31 -12t-27 12t-7 29z" />
<glyph unicode="&#x17c;" d="M40 25q2 11 6 16.5t19 17.5l395 324h-293l-6 -38q-2 -10 -4 -15.5t-9 -11t-19 -5.5q-26 0 -19 32l8 48q3 19 10 25.5t27 6.5h352q10 0 15 -1t10 -6.5t3 -17.5q-3 -16 -26 -34l-395 -324h314l8 50q2 10 4 15.5t9 11t19 5.5q26 0 19 -32l-10 -60q-2 -26 -19 -32h-390 q-10 0 -15.5 1t-10 6.5t-2.5 17.5zM316 563q3 18 17 30t31 12t27 -12t7 -30q-3 -17 -17 -29t-31 -12t-27 12t-7 29z" />
<glyph unicode="&#x17d;" d="M55 25q4 15 14 26l437 518h-297l-11 -66q-2 -11 -3.5 -15.5t-8.5 -10.5t-19 -6q-25 0 -20 32l13 76q3 19 10.5 25.5t27.5 6.5h345q10 0 15 -1t10 -6.5t3 -17.5q-4 -15 -14 -26l-437 -518h314l14 85q2 10 4 15.5t9 11t19 5.5q17 0 20 -10.5t-1 -21.5l-16 -95 q-3 -19 -10 -25.5t-26 -6.5h-364q-10 0 -15 1t-10 6.5t-3 17.5zM259 706q-22 8 -18.5 26t27.5 18q6 0 29 -7l84 -30l94 30q23 7 31 7q24 0 20 -22q-2 -13 -25 -22l-116 -40q-14 -4 -26 0z" />
<glyph unicode="&#x17e;" d="M40 25q2 11 6 16.5t19 17.5l395 324h-293l-6 -38q-2 -10 -4 -15.5t-9 -11t-19 -5.5q-26 0 -19 32l8 48q3 19 10 25.5t27 6.5h352q10 0 15 -1t10 -6.5t3 -17.5q-3 -16 -26 -34l-395 -324h314l8 50q2 10 4 15.5t9 11t19 5.5q26 0 19 -32l-10 -60q-2 -26 -19 -32h-390 q-10 0 -15.5 1t-10 6.5t-2.5 17.5zM220 599q4 22 28 22q4 0 27 -15l80 -54l98 54q27 15 33 15q24 0 20 -22q-1 -7 -26 -22l-114 -66q-19 -11 -34 0l-94 66q-19 13 -18 22z" />
<glyph unicode="&#x17f;" d="M49 22q3 20 35 20h115l57 341h-115q-8 0 -13 0.5t-10.5 5.5t-4.5 14q4 22 36 22h114l11 65q10 60 60.5 93.5t112.5 33.5q11 0 20.5 -1t27 -5t26.5 -15.5t6 -29.5q-2 -16 -15 -26t-26 -10q-23 0 -27.5 17t0.5 28q-24 0 -39.5 -2t-38.5 -9.5t-38 -27.5t-20 -52l-74 -442 h115q8 0 13.5 -0.5t11 -5.5t4.5 -15q-4 -21 -36 -21h-280q-8 0 -13.5 0.5t-11 6t-3.5 15.5z" />
<glyph unicode="&#x18e;" d="M33 32l16 92q4 32 30 32q12 0 17.5 -5t5 -12t-1.5 -15l-14 -82h297l42 254h-157q-4 -27 -6.5 -36.5t-9 -16t-18.5 -6.5q-26 0 -20 32l16 96q1 10 3 15.5t8.5 11t18.5 5.5q18 0 20 -13t-5 -46h157l39 231h-274l-11 -66q-1 -10 -3 -15.5t-8.5 -11t-18.5 -5.5 q-17 0 -21 10.5t0 21.5l13 76q3 19 10 25.5t26 6.5h386q8 0 13.5 -0.5t11 -5.5t3.5 -15q-3 -21 -35 -21h-42l-88 -527h42q9 0 14 -0.5t10.5 -5.5t4.5 -15q-4 -21 -36 -21h-409q-19 0 -24 6.5t-2 25.5z" />
<glyph unicode="&#x192;" d="M49 22q3 20 35 20h115l57 341h-115q-8 0 -13 0.5t-10.5 5.5t-4.5 14q4 22 36 22h114l11 65q10 60 60.5 93.5t112.5 33.5q11 0 20.5 -1t27 -5t26.5 -15.5t6 -29.5q-2 -16 -15 -26t-26 -10q-18 0 -23.5 15t-3.5 30q-24 0 -39.5 -2t-38.5 -9.5t-38 -27.5t-20 -52l-10 -59 h137q9 0 14 -0.5t10 -6t3 -15.5q-3 -20 -34 -20h-137l-57 -341h115q8 0 13.5 -0.5t11 -5.5t4.5 -15q-4 -21 -36 -21h-280q-8 0 -13.5 0.5t-11 6t-3.5 15.5z" />
<glyph unicode="&#x1a0;" d="M98 36q-9 18 -11.5 47t2.5 75t8.5 70t12.5 77q35 218 78 270q18 22 51 33t57.5 12.5t68.5 1.5q108 0 144 -24q21 3 45 32q-37 14 -32 43q3 16 16.5 28t31.5 13q41 -1 32 -60q-10 -62 -70 -93q14 -66 -17 -256q-35 -217 -78 -269q-18 -22 -51.5 -33t-58 -12.5t-68.5 -1.5 t-68 1.5t-53.5 12.5t-39.5 33zM148 81q16 -50 118 -50q103 0 137 50q32 48 62 237q30 171 13 216q-11 29 -41.5 37.5t-78.5 8.5q-102 0 -135 -46q-29 -39 -60 -216q-31 -193 -15 -237z" />
<glyph unicode="&#x1a1;" d="M130 58q-37 47 -38 108.5t24 113.5t65 88q68 65 152 65q50 0 94 -29q30 3 42 12t19 28q-36 13 -31 42q3 16 16.5 28t31.5 13q40 0 31 -59q-11 -65 -74 -96q52 -73 36 -160q-14 -91 -85 -154q-69 -64 -153 -64t-130 64zM148 221q-13 -76 22 -129q34 -55 97 -55 q67 0 118.5 57.5t63.5 126.5q11 68 -24.5 119t-98.5 51q-44 0 -83.5 -26t-64 -64.5t-30.5 -79.5z" />
<glyph unicode="&#x1af;" d="M104 589q4 22 22 22h159q19 0 15 -20q-6 -19 -22 -22h-53l-61 -368q-12 -72 18 -122q32 -48 84 -48q53 0 101 48q47 49 60 122l61 368h-53q-16 0 -16 20q4 22 23 22h86q28 0 54 17q-32 19 -29 45q3 16 16.5 28t31.5 13q23 -1 29.5 -18.5t2.5 -40.5q-5 -32 -31 -56.5 t-62 -29.5l-61 -368q-16 -88 -78 -150q-67 -62 -142 -62q-76 0 -120 62q-42 65 -27 150l61 368h-54q-15 0 -15 20z" />
<glyph unicode="&#x1b0;" d="M95 381q-18 0 -14 21q6 19 21 22h102q7 0 11.5 -5.5t3.5 -13.5l-51 -302q-6 -35 13 -49q20 -17 73 -17q51 0 92 30.5t49 73.5l40 240h-69q-18 0 -14 21q6 19 21 22h102q31 0 58 18q-20 7 -26.5 21.5t-1 28.5t19 24.5t29.5 10.5q40 0 31 -58q-5 -34 -32.5 -58t-66.5 -30 l-57 -339h68q20 0 16 -22q-4 -20 -23 -20h-100q-18 0 -16 19l5 28q-20 -16 -62 -34.5t-76 -18.5q-69 0 -100 26q-32 27 -23 83l47 278h-70z" />
<glyph unicode="&#x1dd;" d="M92 203q2 13 8 19.5t11.5 7.5t16.5 1h320q-2 76 -47.5 118.5t-110.5 42.5q-86 0 -132 -74q-7 -11 -24 -11q-3 0 -6 0.5t-7.5 2t-7 5.5t-1.5 11q5 29 57 68.5t135 39.5q96 0 151.5 -64.5t40.5 -155.5t-88 -155.5t-161 -64.5q-92 0 -131 60t-24 149zM141 189 q-12 -153 113 -153q58 0 109.5 42t76.5 111h-299z" />
<glyph unicode="&#x1e6;" d="M92 306q22 134 102 225t171 91q63 0 116 -53q20 34 28 43.5t19 9.5q20 0 15 -32l-23 -143q-2 -11 -4 -16t-9 -10.5t-19 -5.5q-21 0 -21 16q0 44 -10.5 75.5t-27.5 46.5t-33.5 21t-33.5 6q-67 0 -134 -78.5t-86 -196.5q-20 -116 19.5 -195t107.5 -79q49 0 92 45t68 140 h-55q-8 0 -13 0.5t-10.5 6t-3.5 15.5q3 20 34 20h124q8 0 13.5 -0.5t11 -5.5t4.5 -14q-1 -8 -5 -12.5t-12.5 -6.5t-15 -2.5t-20.5 -0.5l-31 -184q-1 -10 -3 -15.5t-8.5 -11t-18.5 -5.5q-18 0 -20.5 13.5t4.5 47.5q-74 -72 -145 -72q-91 0 -140 91t-27 226zM259 706 q-22 8 -18.5 26t27.5 18q6 0 29 -7l84 -30l94 30q23 7 31 7q24 0 20 -22q-2 -13 -25 -22l-116 -40q-14 -4 -26 0z" />
<glyph unicode="&#x1e7;" d="M15 -95q15 77 103 125q-23 40 -16 78q7 37 35 70q-32 62 -15 118t70 95.5t112 39.5q53 0 95 -33q59 38 116 38q32 0 46 -14t11 -31q-3 -16 -14 -24t-22 -8q-9 0 -17 8t-9 28q-44 -4 -87 -25q22 -52 15 -94q-11 -65 -65 -110.5t-121 -45.5q-48 0 -93 31q-15 -27 -19 -45 q-3 -26 8 -43q8 -13 15 -16t22 -3q18 -2 31 -2h73q96 0 140 -28q31 -18 42 -48.5t6 -60.5q-10 -62 -84.5 -102t-170.5 -40q-97 0 -157 40t-50 102zM55 -95q-6 -38 44 -69t130 -31t141 31t67 69q6 33 -9.5 54.5t-50.5 30.5t-65.5 11.5t-76.5 2.5q-60 0 -78.5 -2.5 t-40.5 -15.5q-51 -29 -61 -81zM168 275q-8 -46 18.5 -80t72.5 -34q45 0 83 33.5t46 81.5q8 46 -18.5 80t-72.5 34q-45 0 -83 -33.5t-46 -81.5zM184 599q4 22 28 22q4 0 27 -15l80 -54l98 54q27 15 33 15q24 0 20 -22q-1 -7 -26 -22l-114 -66q-19 -11 -34 0l-94 66 q-19 13 -18 22z" />
<glyph unicode="&#x1ea;" d="M110 305q13 78 22.5 124t24.5 86t29.5 57.5t42.5 30.5t57.5 16t79.5 3q37 0 61.5 -1.5t46 -8t33.5 -14.5t20.5 -26.5t10.5 -39t0.5 -56.5t-7 -74.5t-15.5 -96.5q-12 -74 -22 -119.5t-23.5 -83.5t-27.5 -57.5t-37.5 -33t-49.5 -17.5t-67 -5q-74 -52 -85 -113 q-3 -22 13 -36.5t35 -14.5q16 0 36.5 13t33.5 29q4 3 12 4t13 -1q8 -13 -1 -23q-50 -57 -105 -57q-41 0 -62 27.5t-15 60.5q8 52 83 110q-35 1 -59 4t-43.5 11t-31 17t-18.5 28.5t-8.5 39t1 55.5t8 71t14.5 91zM142 112q2 -44 28 -62.5t97 -18.5q73 0 105 19.5t50 68.5 q24 63 44 195q24 141 19 192q-4 45 -32 59.5t-94 14.5q-71 0 -103.5 -16.5t-50.5 -64.5q-20 -49 -43 -185q-24 -151 -20 -202z" />
<glyph unicode="&#x1eb;" d="M96 213q15 92 85 156.5t153 64.5t132 -64.5t34 -156.5q-14 -85 -75.5 -145.5t-128.5 -69.5q-37 -20 -64 -53.5t-33 -68.5q-4 -22 12 -36.5t35 -14.5q17 0 37.5 13t33.5 29q14 11 24 3q4 -4 4 -11t-5 -12q-50 -57 -104 -57q-41 0 -62 27.5t-15 60.5q9 60 89 117 q-84 15 -125 74t-27 144zM148 220q-13 -76 22.5 -130t97.5 -54q61 0 115 54t67 130q12 74 -25 123t-98 49q-60 0 -113.5 -49t-65.5 -123z" />
<glyph unicode="&#x1f4;" d="M92 306q22 134 102 225t171 91q63 0 116 -53q20 34 28 43.5t19 9.5q20 0 15 -32l-23 -143q-2 -11 -4 -16t-9 -10.5t-19 -5.5q-21 0 -21 16q0 44 -10.5 75.5t-27.5 46.5t-33.5 21t-33.5 6q-67 0 -134 -78.5t-86 -196.5q-20 -116 19.5 -195t107.5 -79q49 0 92 45t68 140 h-55q-8 0 -13 0.5t-10.5 6t-3.5 15.5q3 20 34 20h124q8 0 13.5 -0.5t11 -5.5t4.5 -14q-1 -8 -5 -12.5t-12.5 -6.5t-15 -2.5t-20.5 -0.5l-31 -184q-1 -10 -3 -15.5t-8.5 -11t-18.5 -5.5q-18 0 -20.5 13.5t4.5 47.5q-74 -72 -145 -72q-91 0 -140 91t-27 226zM281 704 q2 11 23 21l148 62l16 4q11 0 17 -7.5t4 -18.5q-2 -16 -27 -26l-155 -64l-7 -2q-9 0 -14 7t-5.5 13t0.5 11z" />
<glyph unicode="&#x1f5;" d="M15 -95q15 77 103 125q-23 40 -16 78q7 37 35 70q-32 62 -15 118t70 95.5t112 39.5q53 0 95 -33q59 38 116 38q32 0 46 -14t11 -31q-3 -16 -14 -24t-22 -8q-9 0 -17 8t-9 28q-44 -4 -87 -25q22 -52 15 -94q-11 -65 -65 -110.5t-121 -45.5q-48 0 -93 31q-15 -27 -19 -45 q-3 -26 8 -43q8 -13 15 -16t22 -3q18 -2 31 -2h73q96 0 140 -28q31 -18 42 -48.5t6 -60.5q-10 -62 -84.5 -102t-170.5 -40q-97 0 -157 40t-50 102zM55 -95q-6 -38 44 -69t130 -31t141 31t67 69q6 33 -9.5 54.5t-50.5 30.5t-65.5 11.5t-76.5 2.5q-60 0 -78.5 -2.5 t-40.5 -15.5q-51 -29 -61 -81zM168 275q-8 -46 18.5 -80t72.5 -34q45 0 83 33.5t46 81.5q8 46 -18.5 80t-72.5 34q-45 0 -83 -33.5t-46 -81.5zM217 536q2 12 23 20l148 62l16 4q11 0 17.5 -7t4.5 -18q-4 -17 -28 -27l-155 -64l-7 -1q-23 0 -19 31z" />
<glyph unicode="&#x1fa;" d="M33 21q2 14 15 20q6 1 48 1l219 550q6 15 14.5 22t15 8t21.5 1q16 0 22.5 -1t12 -8.5t6.5 -22.5l35 -549q41 0 47 -1q12 -5 10 -20q-4 -21 -39 -21h-105q-10 0 -15.5 0.5t-10.5 5.5t-3 15q2 15 14.5 18t48.5 3l-6 129h-184l-50 -129q36 0 47.5 -3t9.5 -18q-4 -21 -37 -21 h-106q-9 0 -14.5 0.5t-11.5 5.5t-4 15zM217 213h162l-16 368h-7zM277 694q5 30 37.5 51.5t76.5 21.5q43 0 69 -21.5t21 -51.5q-5 -29 -38 -50t-76 -21q-44 0 -69.5 21t-20.5 50zM300 818q2 11 23 21l148 62l16 4q11 0 17 -7.5t4 -18.5q-2 -16 -27 -26l-155 -64l-7 -2 q-9 0 -14 7t-5.5 13t0.5 11zM327 694q-3 -16 11 -25t35 -9t38 9t20 25q2 17 -11.5 26.5t-34.5 9.5q-22 0 -39 -10t-19 -26z" />
<glyph unicode="&#x1fb;" d="M78 122q12 69 101 105.5t233 38.5q21 126 -121 126q-68 0 -72 -23q-4 -20 -17 -28.5t-26 -8.5q-15 0 -23.5 10t-5.5 27q10 65 150 65q97 0 138 -45t31 -105l-38 -230q30 -12 70 -12q9 0 14 -0.5t10.5 -5.5t4.5 -14q-2 -10 -9.5 -15.5t-15 -6t-21.5 -0.5q-25 0 -39.5 1 t-34.5 10t-29 26q-73 -43 -160 -43q-72 0 -110.5 38t-29.5 90zM129 122q-5 -35 23 -60.5t80 -25.5q57 0 99 19q23 10 36 23t16 22.5t6 27.5l17 98q-122 -4 -196 -33.5t-81 -70.5zM255 563q5 30 37.5 51.5t76.5 21.5q43 0 69 -21.5t21 -51.5q-5 -29 -37.5 -50t-76.5 -21 q-43 0 -69 21t-21 50zM279 687q2 12 22 21l148 62l16 4q11 0 17.5 -7.5t4.5 -18.5q-4 -17 -28 -26l-154 -64l-8 -2q-13 0 -16.5 11t-1.5 20zM305 563q-3 -16 11 -25t35 -9t38 9t20 25q3 17 -11 26.5t-35 9.5t-38 -9.5t-20 -26.5z" />
<glyph unicode="&#x1fc;" d="M29 21q1 10 9 15t16 5.5t26 0.5l195 527q-16 0 -23 0.5t-13 5.5t-5 15q4 21 35 21h290q20 0 24.5 -6.5t1.5 -25.5l-13 -76q-6 -32 -23 -32q-20 0 -14 32l11 66h-139l-39 -231h129q9 0 14 -0.5t10 -6t4 -15.5q-4 -20 -35 -20h-129l-42 -254h147l14 82q6 32 24 32 q20 0 14 -32l-16 -92q-3 -19 -10 -25.5t-26 -6.5h-201q-9 0 -14 0.5t-10.5 6t-3.5 15.5q3 20 44 20l25 147h-133l-55 -147q14 0 20.5 -0.5t14.5 -2t10.5 -6t1.5 -12.5q-4 -21 -35 -21h-74q-8 0 -13 0.5t-10.5 5.5t-3.5 15zM188 232h125l56 337h-57zM281 704q2 11 23 21 l148 62l16 4q11 0 17 -7.5t4 -18.5q-2 -16 -27 -26l-155 -64l-7 -2q-9 0 -14 7t-5.5 13t0.5 11z" />
<glyph unicode="&#x1fd;" d="M55 112q9 59 71.5 91t155.5 33l8 44q9 54 -11.5 83t-63.5 29q-13 0 -25.5 -5t-13.5 -10v-4t-1 -5q-8 -36 -41 -36q-15 0 -23.5 10t-5.5 27q4 27 33 46t87 19q72 0 105 -85q63 85 125 85q54 0 77.5 -54t8.5 -149q-4 -20 -10.5 -27t-26.5 -7h-189q-6 -75 21.5 -118 t67.5 -43q48 0 77 67q13 18 22 18q8 0 13 -5.5t3 -13.5q-4 -26 -39.5 -67t-87.5 -41q-28 0 -52 17.5t-32 29.5t-20 33q-61 -80 -146 -80q-48 0 -71.5 36.5t-15.5 81.5zM92 113q-5 -30 11.5 -53.5t51.5 -23.5q37 0 71 24q31 21 37 68q7 40 14 68q-77 -3 -128 -25.5t-57 -57.5 zM253 536q2 12 23 20l148 62l16 4q11 0 17.5 -7t4.5 -18q-4 -17 -28 -27l-155 -64l-7 -1q-23 0 -19 31zM322 239h182q10 81 -8 117t-48 36q-36 0 -73 -45.5t-53 -107.5z" />
<glyph unicode="&#x1fe;" d="M88 143q3 55 22 162q13 78 22.5 124t24.5 86t29.5 57.5t42.5 30.5t57.5 16t79.5 3q45 0 79 -2l28 55q10 24 25 24q3 0 7 -1t8.5 -6t3.5 -14q-2 -8 -31 -67q49 -22 53.5 -87.5t-23.5 -218.5q-13 -78 -22.5 -124t-24.5 -85.5t-30 -57.5t-42.5 -30.5t-57 -15.5t-79.5 -3 q-45 0 -80 2l-27 -55q-10 -24 -25 -24q-3 0 -7 1t-8.5 6t-3.5 14q2 8 31 66q-37 18 -46.5 49.5t-5.5 94.5zM148 305q-17 -101 -17.5 -157t7 -70.5t26.5 -31.5l259 527q-20 6 -23 6q-11 1 -41 1q-72 0 -108 -15t-57 -62q-20 -48 -46 -198zM203 38q20 -6 23 -6q11 -1 41 -1 q72 0 108 15t57 62q20 48 46 198q17 101 17.5 157t-7 70.5t-26.5 31.5zM268 704q2 11 23 21l148 62l16 4q11 0 17 -7.5t4 -18.5q-2 -16 -27 -26l-155 -64l-7 -2q-9 0 -14 7t-5.5 13t0.5 11z" />
<glyph unicode="&#x1ff;" d="M25 -124q1 5 22 34l94 125q-75 75 -57 178q15 91 88 156t162 65q41 0 89 -21l106 142q11 15 21 15q8 0 14.5 -5.5t5.5 -15.5q-2 -7 -9 -17l-105 -141q73 -79 56 -178q-16 -91 -90 -155t-161 -64q-44 0 -87 20l-113 -151q-8 -8 -16 -8t-14.5 5.5t-5.5 15.5zM121 213 q-14 -77 46 -143l229 308q-37 14 -69 14q-73 0 -133.5 -52.5t-72.5 -126.5zM201 49q37 -13 67 -13q73 0 133.5 51.5t73.5 125.5q12 80 -47 142zM248 536q2 12 23 20l148 62l16 4q11 0 17.5 -7t4.5 -18q-4 -17 -28 -27l-155 -64l-7 -1q-23 0 -19 31z" />
<glyph unicode="&#x200;" d="M33 21q2 14 15 20q6 1 48 1l219 550q6 15 14.5 22t15 8t21.5 1q16 0 22.5 -1t12 -8.5t6.5 -22.5l35 -549q41 0 47 -1q12 -5 10 -20q-4 -21 -39 -21h-105q-10 0 -15.5 0.5t-10.5 5.5t-3 15q2 15 14.5 18t48.5 3l-6 129h-184l-50 -129q36 0 47.5 -3t9.5 -18q-4 -21 -37 -21 h-106q-9 0 -14.5 0.5t-11.5 5.5t-4 15zM193 771q2 11 11.5 19t19.5 8q16 -3 29 -17l55 -62q8 -11 7 -16q-2 -10 -12.5 -20t-20.5 -10q-12 0 -27 21l-41 45q-22 24 -21 32zM217 213h162l-16 368h-7zM394 771q2 11 11.5 19t19.5 8q16 -3 29 -17l55 -62q8 -11 7 -16 q-2 -10 -12.5 -20t-20.5 -10q-12 0 -27 21l-41 45q-22 24 -21 32z" />
<glyph unicode="&#x201;" d="M78 122q12 69 101 105.5t233 38.5q21 126 -121 126q-68 0 -72 -23q-4 -20 -17 -28.5t-26 -8.5q-15 0 -23.5 10t-5.5 27q10 65 150 65q97 0 138 -45t31 -105l-38 -230q30 -12 70 -12q9 0 14 -0.5t10.5 -5.5t4.5 -14q-2 -10 -9.5 -15.5t-15 -6t-21.5 -0.5q-25 0 -39.5 1 t-34.5 10t-29 26q-73 -43 -160 -43q-72 0 -110.5 38t-29.5 90zM129 122q-5 -35 23 -60.5t80 -25.5q57 0 99 19q23 10 36 23t16 22.5t6 27.5l17 98q-122 -4 -196 -33.5t-81 -70.5zM194 599q2 11 11 19t19 8q16 -3 30 -17l54 -62q8 -8 8 -16q-2 -10 -13 -20t-20 -10 q-10 0 -28 21l-40 45q-23 23 -21 32zM395 599q2 11 11 19t19 8q16 -3 30 -17l54 -62q8 -8 8 -16q-2 -10 -13 -20t-20 -10q-10 0 -28 21l-40 45q-23 23 -21 32z" />
<glyph unicode="&#x204;" d="M32 21q3 21 35 21h42l88 527h-42q-8 0 -13.5 0.5t-11 5.5t-4.5 15q4 21 36 21h386q19 0 24 -6.5t2 -25.5l-13 -76q-2 -11 -3.5 -15.5t-8.5 -10.5t-19 -6q-25 0 -20 32l11 66h-274l-39 -231h157q5 27 7.5 36t9 16t18.5 7q25 0 20 -32l-16 -96q-2 -11 -3.5 -15.5t-8 -10.5 t-18.5 -6q-18 0 -20 13t4 46h-157l-42 -254h297l14 82q4 32 31 32q17 0 20.5 -10.5t-0.5 -21.5l-16 -92q-3 -19 -10 -25.5t-26 -6.5h-409q-8 0 -13.5 0.5t-11 5.5t-3.5 15zM222 771q2 11 11.5 19t19.5 8q16 -3 29 -17l55 -62q8 -11 7 -16q-2 -10 -12.5 -20t-20.5 -10 q-12 0 -27 21l-41 45q-22 24 -21 32zM423 771q2 11 11.5 19t19.5 8q16 -3 29 -17l55 -62q8 -11 7 -16q-2 -10 -12.5 -20t-20.5 -10q-12 0 -27 21l-41 45q-22 24 -21 32z" />
<glyph unicode="&#x205;" d="M94 214q15 91 87.5 155.5t160.5 64.5q91 0 130.5 -60t25.5 -149q-2 -13 -8 -19.5t-11.5 -7.5t-16.5 -1h-320q1 -76 46.5 -118.5t110.5 -42.5q87 0 132 74q7 11 24 11q3 0 6 -0.5t7.5 -2t7 -5.5t1.5 -11q-5 -29 -57 -68.5t-135 -39.5q-95 0 -150.5 64.5t-40.5 155.5z M150 239h299q7 85 -27 119t-87 34q-58 0 -109 -42t-76 -111zM194 599q2 11 11 19t19 8q16 -3 30 -17l54 -62q8 -8 8 -16q-2 -10 -13 -20t-20 -10q-10 0 -28 21l-40 45q-23 23 -21 32zM395 599q2 11 11 19t19 8q16 -3 30 -17l54 -62q8 -8 8 -16q-2 -10 -13 -20t-20 -10 q-10 0 -28 21l-40 45q-23 23 -21 32z" />
<glyph unicode="&#x208;" d="M87 22q3 20 35 20h122l88 527h-122q-8 0 -13.5 0.5t-11 5.5t-4.5 15q4 21 36 21h295q8 0 13.5 -0.5t11 -6t3.5 -15.5q-3 -20 -35 -20h-122l-88 -527h122q8 0 13.5 -0.5t11 -5.5t4.5 -15q-4 -21 -36 -21h-295q-8 0 -13.5 0.5t-11 6t-3.5 15.5zM222 771q2 11 11.5 19 t19.5 8q16 -3 29 -17l55 -62q8 -11 7 -16q-2 -10 -12.5 -20t-20.5 -10q-12 0 -27 21l-41 45q-22 24 -21 32zM423 771q2 11 11.5 19t19.5 8q16 -3 29 -17l55 -62q8 -11 7 -16q-2 -10 -12.5 -20t-20.5 -10q-12 0 -27 21l-41 45q-22 24 -21 32z" />
<glyph unicode="&#x209;" d="M86 21q3 21 35 21h136l57 341h-128q-8 0 -13.5 0.5t-11 5.5t-4.5 15q4 21 36 21h147q20 0 24.5 -6.5t1.5 -25.5l-59 -351h119q8 0 13.5 -0.5t11 -5.5t4.5 -15q-4 -21 -36 -21h-305q-8 0 -13.5 0.5t-11 5.5t-3.5 15zM194 599q2 11 11 19t19 8q16 -3 30 -17l54 -62 q8 -8 8 -16q-2 -10 -13 -20t-20 -10q-10 0 -28 21l-40 45q-23 23 -21 32zM395 599q2 11 11 19t19 8q16 -3 30 -17l54 -62q8 -8 8 -16q-2 -10 -13 -20t-20 -10q-10 0 -28 21l-40 45q-23 23 -21 32z" />
<glyph unicode="&#x20c;" d="M110 305q13 78 22.5 124t24.5 86t29.5 57.5t42.5 30.5t57.5 16t79.5 3q37 0 61.5 -1.5t46 -8t33.5 -14.5t20.5 -26.5t10.5 -39t0.5 -56.5t-7 -74.5t-15.5 -96.5q-13 -78 -22.5 -124t-24.5 -85.5t-30 -57.5t-42.5 -30.5t-57 -15.5t-79.5 -3q-37 0 -61.5 1.5t-46.5 7.5 t-33.5 14.5t-20.5 27t-10.5 39t0 56t7 74t15.5 96.5zM142 112q2 -44 28 -62.5t97 -18.5q73 0 105 19.5t50 68.5q24 63 44 195q24 141 19 192q-4 45 -32 59.5t-94 14.5q-71 0 -103.5 -16.5t-50.5 -64.5q-20 -49 -43 -185q-24 -151 -20 -202zM222 771q2 11 11.5 19t19.5 8 q16 -3 29 -17l55 -62q8 -11 7 -16q-2 -10 -12.5 -20t-20.5 -10q-12 0 -27 21l-41 45q-22 24 -21 32zM423 771q2 11 11.5 19t19.5 8q16 -3 29 -17l55 -62q8 -11 7 -16q-2 -10 -12.5 -20t-20.5 -10q-12 0 -27 21l-41 45q-22 24 -21 32z" />
<glyph unicode="&#x20d;" d="M96 213q15 92 85 156.5t153 64.5t132 -64.5t34 -156.5q-16 -92 -86.5 -155.5t-152.5 -63.5t-131.5 63.5t-33.5 155.5zM148 220q-13 -76 22.5 -130t97.5 -54q61 0 115 54t67 130q12 74 -25 123t-98 49q-60 0 -113.5 -49t-65.5 -123zM194 599q2 11 11 19t19 8q16 -3 30 -17 l54 -62q8 -8 8 -16q-2 -10 -13 -20t-20 -10q-10 0 -28 21l-40 45q-23 23 -21 32zM395 599q2 11 11 19t19 8q16 -3 30 -17l54 -62q8 -8 8 -16q-2 -10 -13 -20t-20 -10q-10 0 -28 21l-40 45q-23 23 -21 32z" />
<glyph unicode="&#x210;" d="M28 21q3 21 34 21h36l88 527h-36q-8 0 -13 0.5t-10.5 5.5t-4.5 14q4 22 35 22h183q83 0 128.5 -48.5t34.5 -114.5q-16 -89 -120 -143q39 -34 49 -68q5 -21 -7 -93q-10 -46 -6.5 -79.5t26.5 -33.5q14 0 25.5 21.5t14.5 35.5q4 21 28 21q25 0 21 -23q-5 -33 -30.5 -65 t-64.5 -32q-47 0 -64 38q-7 17 -8 37.5t0.5 35.5t8.5 57q7 34 6 56.5t-16 39.5q-31 31 -86 31h-91l-40 -242h36q9 0 14 -0.5t10 -5.5t4 -15q-4 -21 -35 -21h-123q-8 0 -13 0.5t-10.5 5.5t-3.5 15zM193 771q2 11 11.5 19t19.5 8q16 -3 29 -17l55 -62q8 -11 7 -16 q-2 -10 -12.5 -20t-20.5 -10q-12 0 -27 21l-41 45q-22 24 -21 32zM197 327h85q71 0 117 37.5t54 83.5q8 45 -26 83t-105 38h-85zM394 771q2 11 11.5 19t19.5 8q16 -3 29 -17l55 -62q8 -11 7 -16q-2 -10 -12.5 -20t-20.5 -10q-12 0 -27 21l-41 45q-22 24 -21 32z" />
<glyph unicode="&#x211;" d="M39 22q3 20 34 20h94l57 341h-94q-9 0 -14 0.5t-10 5.5t-4 15q4 21 35 21h113q20 0 24.5 -6.5t1.5 -25.5l-11 -63q106 101 203 101q27 0 44.5 -5.5t24.5 -14.5t9 -17t1 -17q-3 -15 -14 -24.5t-25 -9.5q-15 0 -22.5 12.5t-3.5 33.5q-100 0 -164 -61.5t-78 -145.5l-23 -140 h125q9 0 14 -0.5t10.5 -5.5t4.5 -15q-4 -21 -36 -21h-269q-9 0 -14 0.5t-10 6t-3 15.5zM194 599q2 11 11 19t19 8q16 -3 30 -17l54 -62q8 -8 8 -16q-2 -10 -13 -20t-20 -10q-10 0 -28 21l-40 45q-23 23 -21 32zM395 599q2 11 11 19t19 8q16 -3 30 -17l54 -62q8 -8 8 -16 q-2 -10 -13 -20t-20 -10q-10 0 -28 21l-40 45q-23 23 -21 32z" />
<glyph unicode="&#x214;" d="M104 590q4 21 36 21h133q8 0 13.5 -0.5t11 -5.5t3.5 -15q-3 -21 -35 -21h-41l-61 -363q-13 -83 20 -129t83 -46t99 46.5t62 128.5l61 363h-41q-8 0 -13.5 0.5t-11 5.5t-4.5 15q4 21 36 21h133q9 0 14 -0.5t10.5 -5.5t3.5 -15q-3 -21 -35 -21h-41l-61 -368 q-16 -90 -80 -151t-139 -61t-119 61.5t-28 150.5l61 368h-41q-9 0 -14 0.5t-10.5 5.5t-4.5 15zM222 771q2 11 11.5 19t19.5 8q16 -3 29 -17l55 -62q8 -11 7 -16q-2 -10 -12.5 -20t-20.5 -10q-12 0 -27 21l-41 45q-22 24 -21 32zM423 771q2 11 11.5 19t19.5 8q16 -3 29 -17 l55 -62q8 -11 7 -16q-2 -10 -12.5 -20t-20.5 -10q-12 0 -27 21l-41 45q-22 24 -21 32z" />
<glyph unicode="&#x215;" d="M81 403q4 22 36 22h75q20 0 24.5 -6.5t1.5 -25.5l-47 -279q-2 -20 -3 -37t19 -29t63 -12q18 0 37 4t43.5 15t42.5 36t24 61l39 231h-57q-8 0 -13 0.5t-10.5 5.5t-4.5 14q4 22 36 22h75q20 0 24.5 -6.5t1.5 -25.5l-59 -351h57q8 0 13 -0.5t10.5 -5.5t4.5 -14 q-4 -22 -36 -22h-75q-10 0 -15 1.5t-9 11.5t-1 30q-73 -49 -141 -49q-61 0 -94 25.5t-23 88.5l46 275h-57q-8 0 -13 0.5t-10.5 5.5t-4.5 14zM194 599q2 11 11 19t19 8q16 -3 30 -17l54 -62q8 -8 8 -16q-2 -10 -13 -20t-20 -10q-10 0 -28 21l-40 45q-23 23 -21 32zM395 599 q2 11 11 19t19 8q16 -3 30 -17l54 -62q8 -8 8 -16q-2 -10 -13 -20t-20 -10q-10 0 -28 21l-40 45q-23 23 -21 32z" />
<glyph unicode="&#x218;" d="M59 21l22 136q2 10 4 15.5t9 11t19 5.5q11 0 16 -4t4.5 -10t-0.5 -12q-6 -67 37 -98q45 -34 121 -34q62 0 105.5 38.5t51.5 86.5q17 100 -102 127l-113 28q-56 17 -83 59.5t-18 92.5q11 64 70.5 111.5t138.5 47.5q85 0 141 -56q15 34 22.5 45t19.5 11q20 0 15 -32 l-22 -136q-2 -10 -4 -15.5t-9 -11t-19 -5.5q-20 0 -21 15q-1 24 -4 41t-14 44t-40 42.5t-73 15.5q-58 0 -101.5 -34t-51.5 -79q-6 -38 15 -67t57 -40l81 -19q63 -15 87 -25.5t48 -38.5q39 -50 28 -116q-12 -69 -72 -120.5t-141 -51.5q-104 0 -168 54q-15 -34 -22 -44 t-19 -10q-20 0 -15 32zM171 -224q0 8 10 10q76 24 87 89q-14 -6 -28 -6q-16 0 -25 11t-6 28q2 15 14.5 26t30.5 11q22 0 34.5 -18.5t8.5 -48.5q-9 -51 -49.5 -84t-64.5 -33q-6 0 -10 5t-2 10z" />
<glyph unicode="&#x219;" d="M80 26l17 100q2 11 3.5 15.5t8.5 10.5t19 6q18 0 21 -12q10 -65 44 -87.5t83 -22.5q72 0 111.5 24t45.5 59q4 21 -7 37t-33.5 25.5t-42.5 15t-45 9.5q-29 4 -45 7t-41.5 9.5t-40 14.5t-28.5 19.5t-19 28.5t-1 38q3 16 12.5 32t30.5 35.5t62.5 31.5t98.5 12q63 0 113 -26 q7 15 12 20.5t17 5.5q20 0 15 -32l-12 -71q-4 -32 -31 -32q-19 0 -21 15q2 37 -17.5 57.5t-84.5 20.5q-73 0 -110.5 -21t-42.5 -48q-5 -29 27.5 -45.5t70.5 -22.5l69 -12q16 -3 28 -5.5t36.5 -12t40 -21.5t26 -34.5t5.5 -50.5q-3 -20 -14.5 -39.5t-33.5 -40t-63.5 -33 t-95.5 -12.5q-78 0 -132 46q-23 -46 -40 -46q-21 0 -16 32zM171 -224q0 8 10 10q76 24 87 89q-14 -6 -28 -6q-16 0 -25 11t-6 28q2 15 14.5 26t30.5 11q22 0 34.5 -18.5t8.5 -48.5q-9 -51 -49.5 -84t-64.5 -33q-6 0 -10 5t-2 10z" />
<glyph unicode="&#x21a;" d="M112 503l13 76q3 19 10.5 25.5t26.5 6.5h405q19 0 24 -6.5t2 -25.5l-13 -76q-2 -11 -3.5 -15.5t-8.5 -10.5t-19 -6q-25 0 -20 32l11 66h-157l-88 -527h64q9 0 14 -0.5t10 -5.5t4 -15q-4 -21 -35 -21h-179q-9 0 -14 0.5t-10 6t-3 15.5q3 20 34 20h64l88 527h-158l-11 -66 q-2 -11 -3.5 -15.5t-8.5 -10.5t-19 -6q-25 0 -20 32zM171 -224q0 8 10 10q76 24 87 89q-14 -6 -28 -6q-16 0 -25 11t-6 28q2 15 14.5 26t30.5 11q22 0 34.5 -18.5t8.5 -48.5q-9 -51 -49.5 -84t-64.5 -33q-6 0 -10 5t-2 10z" />
<glyph unicode="&#x21b;" d="M94 403q4 22 36 22h101l16 95q4 32 30 32q25 0 20 -32l-16 -95h180q9 0 14 -0.5t10 -6t3 -15.5q-3 -20 -34 -20h-180l-43 -257q-1 -16 -3 -36t17.5 -37t60.5 -17q18 0 37.5 5t42 26t28.5 54q4 29 30 29q12 0 17.5 -4.5t5 -11.5t-1.5 -14q-10 -60 -61 -93t-110 -33 q-58 0 -91.5 30.5t-22.5 95.5l44 263h-102q-8 0 -13 0.5t-10.5 5.5t-4.5 14zM171 -224q0 8 10 10q76 24 87 89q-14 -6 -28 -6q-16 0 -25 11t-6 28q2 15 14.5 26t30.5 11q22 0 34.5 -18.5t8.5 -48.5q-9 -51 -49.5 -84t-64.5 -33q-6 0 -10 5t-2 10z" />
<glyph unicode="&#x258;" d="M75 102q3 19 28 19q18 0 20 -11q12 -42 43.5 -58t64.5 -16q65 0 124.5 42.5t86.5 118.5h-320q-8 0 -12 0.5t-9.5 3t-5 8t0.5 16.5q14 89 73 149t151 60q88 0 139.5 -64.5t36.5 -155.5t-92 -155.5t-173 -64.5q-44 0 -78 13t-50 32t-23 35.5t-5 27.5zM149 239h299 q-2 69 -39.5 111t-95.5 42q-125 0 -164 -153z" />
<glyph unicode="&#x259;" d="M92 203q2 13 8 19.5t11.5 7.5t16.5 1h320q-2 76 -47.5 118.5t-110.5 42.5q-86 0 -132 -74q-7 -11 -24 -11q-3 0 -6 0.5t-7.5 2t-7 5.5t-1.5 11q5 29 57 68.5t135 39.5q96 0 151.5 -64.5t40.5 -155.5t-88 -155.5t-161 -64.5q-92 0 -131 60t-24 149zM141 189 q-12 -153 113 -153q58 0 109.5 42t76.5 111h-299z" />
<glyph unicode="&#x2be;" d="M177 300q2 14 13 23t24 9q32 0 26 -35q-1 -4 14 -6t31 -2q66 0 101 41t42 82q8 51 -21 86t-77 35q-25 0 -45.5 -11.5t-26.5 -19t-15 -21.5q-7 -9 -22 -9q-4 0 -8 1t-9 5.5t-4 12.5q2 10 14 27.5t46.5 37t80.5 19.5q69 0 107.5 -48t27.5 -115q-10 -60 -61.5 -112.5 t-136.5 -52.5q-22 0 -43.5 3t-41.5 16t-16 34z" />
<glyph unicode="&#x2bf;" d="M186 410q10 60 61.5 112.5t136.5 52.5q22 0 43.5 -3t41.5 -16t16 -34q-2 -14 -13 -23t-24 -9q-32 0 -25 35q1 4 -14.5 6t-31.5 2q-35 0 -63.5 -13.5t-44 -34.5t-24 -39.5t-11.5 -35.5q-8 -51 21 -86t77 -35q25 0 45.5 11.5t26.5 19t15 21.5q7 9 22 9q4 0 8 -1t9 -5.5 t4 -12.5q-2 -10 -14 -27.5t-46.5 -37t-80.5 -19.5q-69 0 -107.5 48t-27.5 115z" />
<glyph unicode="&#x2c6;" d="M208 528q1 7 26 22l114 66q19 11 34 0l94 -66q19 -13 18 -22q-4 -22 -28 -22q-5 0 -27 15l-80 54l-98 -54q-27 -15 -33 -15q-24 0 -20 22z" />
<glyph unicode="&#x2c7;" d="M220 599q4 22 28 22q4 0 27 -15l80 -54l98 54q27 15 33 15q24 0 20 -22q-1 -7 -26 -22l-114 -66q-19 -11 -34 0l-94 66q-19 13 -18 22z" />
<glyph unicode="&#x2d8;" d="M189 590q5 22 26 22q14 0 16 -11q5 -40 126 -40q122 0 138 40q5 11 20 11q23 0 18 -22q-4 -26 -23 -42.5t-51.5 -22.5t-53.5 -7.5t-56 -1.5t-55.5 1.5t-51 7.5t-44 22.5t-9.5 42.5z" />
<glyph unicode="&#x2d9;" d="M316 563q3 18 17 30t31 12t27 -12t7 -30q-3 -17 -17 -29t-31 -12t-27 12t-7 29z" />
<glyph unicode="&#x2da;" d="M255 563q5 30 37.5 51.5t76.5 21.5q43 0 69 -21.5t21 -51.5q-5 -29 -37.5 -50t-76.5 -21q-43 0 -69 21t-21 50zM305 563q-3 -16 11 -25t35 -9t38 9t20 25q3 17 -11 26.5t-35 9.5t-38 -9.5t-20 -26.5z" />
<glyph unicode="&#x2db;" d="M148 -122q10 61 89 111h27q-30 -19 -50.5 -49t-26.5 -64q-3 -22 13 -36.5t35 -14.5q33 0 71 42q3 3 11 4.5t13 -1.5q4 -4 3.5 -11t-4.5 -12q-50 -57 -104 -57q-41 0 -62 27.5t-15 60.5z" />
<glyph unicode="&#x2dc;" d="M181 534q2 12 55 49q50 32 80 32q22 0 44 -18q33 -35 41 -38q3 -1 7 -1q27 0 87 48q11 9 20 9q8 0 13.5 -7t4.5 -16q-2 -14 -55 -48q-50 -32 -80 -32q-24 0 -44 18q-33 35 -41 38q-3 1 -7 1q-27 0 -87 -49q-12 -8 -20 -8t-13.5 7t-4.5 15z" />
<glyph unicode="&#x2dd;" d="M186 531q0 4 12 16l76 62q17 14 34 17q10 0 17 -8t5 -19q-2 -8 -31 -32l-56 -45q-24 -21 -34 -21t-17.5 10t-5.5 20zM387 531q0 4 12 16l76 62q17 14 34 17q10 0 17 -8t5 -19q-2 -8 -31 -32l-56 -45q-24 -21 -34 -21t-17.5 10t-5.5 20z" />
<glyph unicode="&#x300;" horiz-adv-x="0" d="M-244 570q-24 11 -17.5 31.5t29.5 20.5q6 0 14 -4l128 -62q17 -8 15 -20q-1 -9 -8.5 -20t-20.5 -11q-5 0 -7 1z" />
<glyph unicode="&#x301;" horiz-adv-x="0" d="M-272 536q2 12 23 20l148 62l16 4q11 0 17.5 -7t4.5 -18q-4 -17 -28 -27l-155 -64l-7 -1q-23 0 -19 31z" />
<glyph unicode="&#x302;" horiz-adv-x="0" d="M-317 528q1 7 26 22l114 66q19 11 34 0l94 -66q19 -13 18 -22q-4 -22 -28 -22q-4 0 -27 15l-80 54l-98 -54q-28 -15 -33 -15q-24 0 -20 22z" />
<glyph unicode="&#x303;" horiz-adv-x="0" d="M-344 534q2 12 55 49q50 32 80 32q22 0 44 -18q2 -3 7 -7q31 -30 41 -32q27 0 87 48q11 9 20 9q8 0 13.5 -7t4.5 -16q-2 -14 -55 -48q-50 -32 -80 -32q-24 0 -44 18q-33 35 -41 38q-3 1 -7 1q-27 0 -87 -49q-12 -8 -20 -8t-14 7t-4 15z" />
<glyph unicode="&#x304;" horiz-adv-x="0" d="M-353 564q4 22 35 22h308q9 0 14 -0.5t10 -6t3 -16.5q-4 -21 -35 -21h-307q-9 0 -14.5 0.5t-10.5 6t-3 15.5z" />
<glyph unicode="&#x306;" horiz-adv-x="0" d="M-336 590q5 22 26 22q14 0 16 -11q5 -40 126 -40q122 0 138 40q6 11 20 11q23 0 18 -22q-4 -26 -23 -42.5t-51.5 -22.5t-53.5 -7.5t-56 -1.5t-55.5 1.5t-51 7.5t-44 22.5t-9.5 42.5z" />
<glyph unicode="&#x307;" horiz-adv-x="0" d="M-209 563q3 18 17 30t31 12t27 -12t7 -30q-3 -17 -17 -29t-31 -12t-27 12t-7 29z" />
<glyph unicode="&#x308;" horiz-adv-x="0" d="M-290 563q2 16 14.5 26.5t27.5 10.5t23.5 -10.5t6.5 -26.5q-2 -15 -14.5 -25.5t-27.5 -10.5t-23.5 10.5t-6.5 25.5zM-119 563q2 16 14.5 26.5t27.5 10.5t23.5 -10.5t6.5 -26.5q-2 -15 -14.5 -25.5t-27.5 -10.5t-23.5 10.5t-6.5 25.5z" />
<glyph unicode="&#x309;" horiz-adv-x="0" d="M-254 599q5 32 33.5 52.5t62.5 20.5q42 0 66 -17q28 -24 20 -57.5t-38 -47.5q-55 -27 -60 -58l-3 -19q-4 -18 -21 -18q-8 0 -13 5t-3 13l3 19q8 51 85 91l14 14q4 21 -12 29.5t-44 8.5q-18 0 -33.5 -11t-17.5 -25q-4 -19 -22 -19q-20 0 -17 19z" />
<glyph unicode="&#x30a;" horiz-adv-x="0" d="M-270 563q5 30 37.5 51.5t76.5 21.5q43 0 69 -21.5t21 -51.5q-5 -29 -37.5 -50t-76.5 -21q-43 0 -69 21t-21 50zM-220 563q-3 -16 11 -25t35 -9t38 9t20 25q3 17 -11 26.5t-35 9.5t-38 -9.5t-20 -26.5z" />
<glyph unicode="&#x30b;" horiz-adv-x="0" d="M-339 531q0 4 12 16l76 62q17 14 34 17q10 0 17 -8t5 -19q-2 -8 -31 -32l-56 -45q-24 -21 -34 -21t-17.5 10t-5.5 20zM-138 531q0 4 12 16l76 62q17 14 34 17q10 0 17 -8t5 -19q-2 -8 -31 -32l-56 -45q-24 -21 -34 -21t-17.5 10t-5.5 20z" />
<glyph unicode="&#x30c;" horiz-adv-x="0" d="M-305 599q4 22 28 22q5 0 27 -15l80 -54l98 54q28 15 33 15q24 0 20 -22q-1 -7 -26 -22l-114 -66q-19 -11 -34 0l-94 66q-19 13 -18 22z" />
<glyph unicode="&#x30f;" horiz-adv-x="0" d="M-331 599q2 11 11 19t19 8q16 -3 30 -17l54 -62q8 -8 8 -16q-2 -10 -13 -20t-20 -10q-10 0 -28 21l-40 45q-23 23 -21 32zM-130 599q2 11 11 19t19 8q16 -3 30 -17l54 -62q8 -8 8 -16q-2 -10 -13 -20t-20 -10q-10 0 -28 21l-40 45q-23 23 -21 32z" />
<glyph unicode="&#x311;" horiz-adv-x="0" d="M-344 538q4 26 23 42.5t51.5 22.5t53.5 7.5t56 1.5t55.5 -1.5t51 -7.5t44 -22.5t9.5 -42.5q-5 -22 -26 -22q-14 0 -16 11q-4 40 -125 40t-139 -40q-6 -11 -20 -11q-23 0 -18 22z" />
<glyph unicode="&#x323;" horiz-adv-x="0" d="M-331 -165q3 17 17 29t31 12t27 -12t7 -29q-3 -18 -17 -30t-31 -12t-27 12t-7 30z" />
<glyph unicode="&#x326;" horiz-adv-x="0" d="M-354 -224q0 8 10 10q76 24 87 89q-13 -6 -28 -6q-16 0 -25 11t-6 28q2 15 14.5 26t30.5 11q22 0 34.5 -18.5t8.5 -48.5q-9 -51 -49.5 -84t-64.5 -33q-6 0 -10 5t-2 10z" />
<glyph unicode="&#x32e;" horiz-adv-x="0" d="M-455 -124q3 22 26 22q14 0 16 -11q4 -40 125 -40t139 40q5 11 20 11q21 0 18 -22q-4 -26 -23 -42.5t-51.5 -22.5t-53.5 -7.5t-56 -1.5t-55.5 1.5t-51 7.5t-44 22.5t-9.5 42.5z" />
<glyph unicode="&#x32f;" horiz-adv-x="0" d="M-463 -176q4 26 23 42.5t51.5 22.5t53.5 7.5t56 1.5t55.5 -1.5t51 -7.5t44 -22.5t9.5 -42.5q-5 -22 -26 -22q-14 0 -16 11q-5 40 -126 40q-122 0 -138 -40q-5 -11 -20 -11q-23 0 -18 22z" />
<glyph unicode="&#x330;" horiz-adv-x="0" d="M-463 -179q2 12 55 49q50 32 80 32q22 0 44 -18q33 -35 41 -38q3 -1 7 -1q27 0 87 48q11 9 20 9q8 0 13.5 -7t4.5 -16q-2 -14 -55 -48q-47 -32 -80 -32q-24 0 -44 18q-16 18 -22 23.5t-13 10t-13 4.5q-28 0 -87 -48q-12 -8 -20 -8t-13.5 7t-4.5 15z" />
<glyph unicode="&#x331;" horiz-adv-x="0" d="M-472 -150q4 22 35 22h308q9 0 14 -0.5t10 -6t3 -16.5q-4 -21 -35 -21h-307q-9 0 -14.5 0.5t-10.5 6t-3 15.5z" />
<glyph unicode="&#x332;" horiz-adv-x="0" d="M-472 -150q4 22 35 22h308q9 0 14 -0.5t10 -6t3 -16.5q-4 -21 -35 -21h-307q-9 0 -14.5 0.5t-10.5 6t-3 15.5z" />
<glyph unicode="&#x393;" d="M39 21q3 21 34 21h48l88 527h-48q-9 0 -14 0.5t-10 5.5t-4 14q4 22 35 22h388q20 0 24.5 -6.5t1.5 -25.5l-13 -76q-2 -11 -3.5 -15.5t-8.5 -10.5t-19 -6q-24 0 -19 32l11 66h-270l-88 -527h68q8 0 13.5 -0.5t11 -5.5t4.5 -15q-4 -21 -36 -21h-167q-9 0 -14 0.5t-10 5.5 t-3 15z" />
<glyph unicode="&#x394;" d="M39 12v1l276 584q12 26 51 26q23 0 31 -5t11 -25l81 -580v-1q-2 -12 -27 -12h-400q-7 0 -11 0.5t-8.5 3t-3.5 8.5zM108 49h324l-71 532h-4z" />
<glyph unicode="&#x398;" d="M110 305q13 78 22.5 124t24.5 86t29.5 57.5t42.5 30.5t57.5 16t79.5 3q37 0 61.5 -1.5t46 -8t33.5 -14.5t20.5 -26.5t10.5 -39t0.5 -56.5t-7 -74.5t-15.5 -96.5q-13 -78 -22.5 -124t-24.5 -85.5t-30 -57.5t-42.5 -30.5t-57 -15.5t-79.5 -3q-37 0 -61.5 1.5t-46.5 7.5 t-33.5 14.5t-20.5 27t-10.5 39t0 56t7 74t15.5 96.5zM140 124q1 -54 27 -73.5t100 -19.5t105 18.5t51 67.5q18 47 42 189q21 131 21 181q-1 54 -27 73.5t-100 19.5t-105 -18.5t-51 -67.5q-18 -47 -42 -189q-21 -131 -21 -181zM218 281l8 49q2 11 3.5 15.5t8.5 10.5t19 6 q23 0 20 -32h80q3 15 9.5 22.5t10.5 8.5t10 1q17 0 21 -10.5t0 -21.5l-8 -49q-2 -11 -3.5 -15.5t-8.5 -10.5t-19 -6q-23 0 -20 32h-80q-3 -15 -9.5 -22.5t-10.5 -8.5t-10 -1q-17 0 -21 10.5t0 21.5z" />
<glyph unicode="&#x39b;" d="M35 21q1 10 9.5 14.5t18 5.5t32.5 1l220 554q6 13 14.5 19t14.5 7t17 1h10q12 0 17.5 -1t12 -8t7.5 -21l35 -551q17 0 25 -0.5t16.5 -2t11 -6t1.5 -12.5q-4 -21 -37 -21h-111q-9 0 -14 0.5t-10.5 6t-3.5 15.5q3 20 35 20h34l-29 539h-5l-209 -539h35q9 0 14 -0.5 t10.5 -5.5t4.5 -15q-4 -21 -36 -21h-112q-8 0 -13.5 0.5t-11 5.5t-3.5 15z" />
<glyph unicode="&#x39e;" d="M41 32l5 25q5 32 29 32q18 0 20.5 -12t-2.5 -37h352q4 28 10 38.5t24 10.5q24 0 19 -32l-5 -25q-3 -19 -10 -25.5t-26 -6.5h-389q-19 0 -24.5 6t-2.5 26zM133 559l4 20q3 19 10 25.5t27 6.5h381q20 0 24.5 -6.5t1.5 -25.5l-4 -20q-1 -10 -3 -15.5t-8.5 -11t-18.5 -5.5 q-17 0 -20 11.5t2 32.5h-344q-2 -17 -4.5 -24.5t-9 -13.5t-18.5 -6q-25 0 -20 32zM163 293l8 50q2 11 3.5 15.5t8.5 10t19 5.5q14 0 18.5 -7.5t0.5 -28.5h194q4 21 10.5 28.5t20.5 7.5q17 0 21 -10t0 -21l-8 -50q-2 -11 -3.5 -16t-8.5 -10t-19 -5q-14 0 -18.5 7.5t-0.5 28.5 h-194q-4 -21 -10.5 -28.5t-20.5 -7.5q-17 0 -21 9.5t0 21.5z" />
<glyph unicode="&#x3a0;" d="M28 21q3 21 34 21h36l88 527h-36q-8 0 -13 0.5t-10.5 5.5t-4.5 14q4 22 35 22h414q9 0 14 -0.5t10 -6t3 -15.5q-3 -20 -34 -20h-36l-88 -527h36q9 0 14 -0.5t10 -5.5t4 -15q-4 -21 -35 -21h-123q-9 0 -14 0.5t-10 6t-3 15.5q3 20 34 20h36l88 527h-240l-88 -527h36 q9 0 14 -0.5t10 -5.5t4 -15q-4 -21 -35 -21h-123q-8 0 -13 0.5t-10.5 5.5t-3.5 15z" />
<glyph unicode="&#x3a3;" d="M46 19q1 3 2 5l210 281l-113 265q-4 8 -4 19q4 22 36 22h375q20 0 24.5 -6.5t1.5 -25.5l-13 -76q-2 -11 -3.5 -15.5t-8.5 -10.5t-19 -6q-25 0 -20 32l11 66h-320l109 -260q-3 -10 -12 -22l-181 -243h316l11 66q2 10 4 15.5t9 11t19 5.5q26 0 19 -32l-13 -78 q-3 -19 -10 -25.5t-26 -6.5h-375q-8 0 -13 0.5t-11 5t-5 13.5z" />
<glyph unicode="&#x3a5;" d="M124 499q7 45 44 84t85 39q43 0 65 -38.5t20 -134.5q32 98 64 135.5t77 37.5q48 0 71.5 -39t15.5 -84q-3 -22 -28 -22q-7 0 -11 0.5t-8 6.5t-2 17q5 35 -5 61.5t-40 26.5q-28 0 -51.5 -26.5t-38 -68.5t-22 -74t-12.5 -62l-53 -316h46q9 0 14 -0.5t10.5 -5.5t4.5 -15 q-4 -21 -36 -21h-143q-9 0 -14 0.5t-10.5 5.5t-3.5 15q3 21 35 21h46l53 316q36 231 -49 231q-29 0 -48 -26t-26 -64q-3 -22 -28 -22t-22 22z" />
<glyph unicode="&#x3a6;" d="M94 306q9 54 69.5 95.5t148.5 50.5l20 117h-53q-8 0 -13.5 0.5t-11 5.5t-4.5 15q4 21 36 21h157q8 0 13.5 -0.5t11 -6t3.5 -15.5q-3 -20 -35 -20h-53l-20 -117q84 -9 131 -50.5t38 -96.5q-9 -53 -69.5 -94.5t-147.5 -51.5l-20 -117h53q8 0 13.5 -0.5t11 -5.5t4.5 -15 q-4 -21 -36 -21h-157q-8 0 -13.5 0.5t-11 6t-3.5 15.5q3 20 35 20h53l20 117q-84 8 -131.5 49.5t-38.5 97.5zM144 305q-6 -36 28 -65.5t99 -38.5l34 209q-67 -9 -111 -38.5t-50 -66.5zM322 201q64 9 108 37.5t51 67.5q6 37 -28 66t-97 38z" />
<glyph unicode="&#x3a8;" d="M117 457q4 22 31 22q28 0 40.5 -17t11 -40.5t-4.5 -48.5q-4 -35 -4.5 -67.5t19.5 -61.5t61 -42l61 367h-46q-9 0 -14 0.5t-10.5 5.5t-4.5 14q4 22 36 22h143q9 0 14 -0.5t10.5 -6t3.5 -15.5q-3 -20 -35 -20h-46l-61 -367q108 32 131 170q3 20 6.5 33t12.5 33t25 30.5 t39 10.5q7 0 11 -0.5t9 -6t3 -15.5q-2 -18 -22 -21q-12 -3 -21 -24.5t-12 -41.5q-34 -184 -189 -210l-20 -118h46q9 0 14 -0.5t10.5 -5.5t4.5 -15q-4 -21 -36 -21h-143q-9 0 -14 0.5t-10.5 5.5t-3.5 15q3 21 35 21h46l20 118q-44 8 -73 30t-38.5 50.5t-13.5 60.5t3 59 q11 70 -9 76q-18 3 -16 21z" />
<glyph unicode="&#x3a9;" d="M40 32l5 27q6 32 23 32q13 0 14.5 -14.5t-3.5 -34.5h88q1 67 -29 164q-8 29 -11.5 40.5t-9.5 38t-7.5 42.5t-1.5 39t3 43q15 90 90 151.5t165 61.5t144 -61.5t39 -151.5q-11 -70 -90 -196q-39 -60 -56.5 -93.5t-31.5 -77.5h88l4 20t4 14t7.5 12t11.5 3q19 0 13 -32 l-5 -27q-3 -19 -10 -25.5t-26 -6.5h-106q-10 0 -15.5 1t-10 7t-2.5 18q10 60 86 188q78 131 88 195q12 73 -29.5 122t-109.5 49t-127 -49t-71 -122q-7 -41 2 -91t40 -170q14 -70 5 -122q-2 -12 -8 -18t-11.5 -7t-15.5 -1h-106q-19 0 -24.5 6t-2.5 26z" />
<glyph unicode="&#xe3f;" d="M29 21q3 21 35 21h39l88 527h-39q-9 0 -14 0.5t-10.5 5.5t-4.5 15q4 21 35 21h176l12 74q2 9 9.5 15.5t17.5 6.5q9 0 14 -6.5t3 -15.5l-12 -74h14q76 0 114 -46t28 -104q-17 -99 -152 -142q144 -36 124 -157q-11 -63 -64.5 -112.5t-130.5 -49.5h-36l-12 -74 q-4 -22 -24 -22q-10 0 -15 6.5t-3 15.5l12 74h-177q-8 0 -13 0.5t-10.5 5.5t-3.5 15zM153 42h87l43 255h-87zM203 339h87l38 230h-87zM282 42h13q67 0 109.5 37.5t50.5 84.5q8 45 -24.5 89t-98.5 44h-7zM333 339q70 8 107 44.5t44 76.5q6 39 -18.5 74t-94.5 35z" />
<glyph unicode="&#x1e0c;" d="M25 21q3 21 35 21h33l88 527h-33q-8 0 -13.5 0.5t-11 5.5t-4.5 14q4 22 36 22h213q96 0 140.5 -92.5t23.5 -217.5q-20 -124 -95.5 -212.5t-170.5 -88.5h-213q-8 0 -13.5 0.5t-11 5.5t-3.5 15zM131 -165q3 17 17 29t31 12t27 -12t7 -29q-3 -18 -17 -30t-31 -12t-27 12 t-7 30zM144 42h109q86 0 149 78t80 181t-19 185.5t-122 82.5h-109z" />
<glyph unicode="&#x1e0d;" d="M74 212q16 92 86 155.5t152 63.5q63 0 122 -59l33 197h-57q-8 0 -13 0.5t-10.5 5.5t-4.5 14q4 22 36 22h75q20 0 24.5 -6.5t1.5 -25.5l-90 -537h57q8 0 13 -0.5t10.5 -5.5t4.5 -14q-4 -22 -36 -22h-75q-22 0 -25 13t5 54q-84 -73 -153 -73q-79 0 -125 63.5t-31 154.5z M124 212q-12 -73 23 -124.5t94 -51.5q60 0 107 50.5t56 103.5l12 74q8 48 -23 86.5t-84 38.5q-61 0 -116.5 -50.5t-68.5 -126.5zM194 -165q3 17 17 29t31 12t27 -12t7 -29q-3 -18 -17 -30t-31 -12t-27 12t-7 30z" />
<glyph unicode="&#x1e0e;" d="M-10 -150q4 22 35 22h308q9 0 14 -0.5t10 -6t3 -16.5q-4 -21 -35 -21h-307q-9 0 -14.5 0.5t-10.5 6t-3 15.5zM25 21q3 21 35 21h33l88 527h-33q-8 0 -13.5 0.5t-11 5.5t-4.5 14q4 22 36 22h213q96 0 140.5 -92.5t23.5 -217.5q-20 -124 -95.5 -212.5t-170.5 -88.5h-213 q-8 0 -13.5 0.5t-11 5.5t-3.5 15zM144 42h109q86 0 149 78t80 181t-19 185.5t-122 82.5h-109z" />
<glyph unicode="&#x1e0f;" d="M53 -150q4 22 35 22h308q9 0 14 -0.5t10 -6t3 -16.5q-4 -21 -35 -21h-307q-9 0 -14.5 0.5t-10.5 6t-3 15.5zM74 212q16 92 86 155.5t152 63.5q63 0 122 -59l33 197h-57q-8 0 -13 0.5t-10.5 5.5t-4.5 14q4 22 36 22h75q20 0 24.5 -6.5t1.5 -25.5l-90 -537h57q8 0 13 -0.5 t10.5 -5.5t4.5 -14q-4 -22 -36 -22h-75q-22 0 -25 13t5 54q-84 -73 -153 -73q-79 0 -125 63.5t-31 154.5zM124 212q-12 -73 23 -124.5t94 -51.5q60 0 107 50.5t56 103.5l12 74q8 48 -23 86.5t-84 38.5q-61 0 -116.5 -50.5t-68.5 -126.5z" />
<glyph unicode="&#x1e24;" d="M28 21q3 21 34 21h36l88 527h-36q-8 0 -13 0.5t-10.5 5.5t-4.5 14q4 22 35 22h123q9 0 14 -0.5t10 -6t3 -15.5q-3 -20 -34 -20h-36l-38 -230h240l38 230h-36q-9 0 -14 0.5t-10 5.5t-4 15q4 21 35 21h123q9 0 14 -0.5t10 -6t3 -15.5q-3 -20 -34 -20h-36l-88 -527h36 q9 0 14 -0.5t10 -5.5t4 -15q-4 -21 -35 -21h-123q-9 0 -14 0.5t-10 6t-3 15.5q3 20 34 20h36l43 255h-240l-43 -255h36q9 0 14 -0.5t10 -5.5t4 -15q-4 -21 -35 -21h-123q-8 0 -13 0.5t-10.5 5.5t-3.5 15zM194 -165q3 17 17 29t31 12t27 -12t7 -29q-3 -18 -17 -30t-31 -12 t-27 12t-7 30z" />
<glyph unicode="&#x1e25;" d="M18 21q3 21 35 21h56l88 527h-57q-8 0 -13 0.5t-10.5 5.5t-4.5 14q4 22 36 22h75q20 0 24.5 -6.5t1.5 -25.5l-37 -217q82 69 158 69q124 0 101 -138l-42 -251h56q9 0 14 -0.5t10.5 -5.5t4.5 -15q-4 -21 -35 -21h-158q-8 0 -13.5 0.5t-11 5.5t-3.5 15q3 21 35 21h51 l41 245q9 54 -4.5 78t-58.5 24q-51 0 -102 -38.5t-64 -114.5l-32 -194h56q9 0 14 -0.5t10.5 -5.5t4.5 -15q-4 -21 -35 -21h-164q-8 0 -13 0.5t-10.5 5.5t-3.5 15zM194 -165q3 17 17 29t31 12t27 -12t7 -29q-3 -18 -17 -30t-31 -12t-27 12t-7 30z" />
<glyph unicode="&#x1e26;" d="M28 21q3 21 34 21h36l88 527h-36q-8 0 -13 0.5t-10.5 5.5t-4.5 14q4 22 35 22h123q9 0 14 -0.5t10 -6t3 -15.5q-3 -20 -34 -20h-36l-38 -230h240l38 230h-36q-9 0 -14 0.5t-10 5.5t-4 15q4 21 35 21h123q9 0 14 -0.5t10 -6t3 -15.5q-3 -20 -34 -20h-36l-88 -527h36 q9 0 14 -0.5t10 -5.5t4 -15q-4 -21 -35 -21h-123q-9 0 -14 0.5t-10 6t-3 15.5q3 20 34 20h36l43 255h-240l-43 -255h36q9 0 14 -0.5t10 -5.5t4 -15q-4 -21 -35 -21h-123q-8 0 -13 0.5t-10.5 5.5t-3.5 15zM242 699q3 16 15 26t27 10t24 -10.5t6 -25.5q-2 -15 -14.5 -25.5 t-27.5 -10.5t-23.5 10.5t-6.5 25.5zM443 699q3 16 15 26t27 10t24 -10.5t6 -25.5q-2 -15 -14.5 -25.5t-27.5 -10.5t-23.5 10.5t-6.5 25.5z" />
<glyph unicode="&#x1e27;" d="M18 21q3 21 35 21h56l88 527h-57q-8 0 -13 0.5t-10.5 5.5t-4.5 14q4 22 36 22h75q20 0 24.5 -6.5t1.5 -25.5l-37 -217q82 69 158 69q124 0 101 -138l-42 -251h56q9 0 14 -0.5t10.5 -5.5t4.5 -15q-4 -21 -35 -21h-158q-8 0 -13.5 0.5t-11 5.5t-3.5 15q3 21 35 21h51 l41 245q9 54 -4.5 78t-58.5 24q-51 0 -102 -38.5t-64 -114.5l-32 -194h56q9 0 14 -0.5t10.5 -5.5t4.5 -15q-4 -21 -35 -21h-164q-8 0 -13 0.5t-10.5 5.5t-3.5 15zM242 699q3 16 15 26t27 10t24 -10.5t6 -25.5q-2 -15 -14.5 -25.5t-27.5 -10.5t-23.5 10.5t-6.5 25.5zM443 699 q3 16 15 26t27 10t24 -10.5t6 -25.5q-2 -15 -14.5 -25.5t-27.5 -10.5t-23.5 10.5t-6.5 25.5z" />
<glyph unicode="&#x1e2a;" d="M28 21q3 21 34 21h36l88 527h-36q-8 0 -13 0.5t-10.5 5.5t-4.5 14q4 22 35 22h123q9 0 14 -0.5t10 -6t3 -15.5q-3 -20 -34 -20h-36l-38 -230h240l38 230h-36q-9 0 -14 0.5t-10 5.5t-4 15q4 21 35 21h123q9 0 14 -0.5t10 -6t3 -15.5q-3 -20 -34 -20h-36l-88 -527h36 q9 0 14 -0.5t10 -5.5t4 -15q-4 -21 -35 -21h-123q-9 0 -14 0.5t-10 6t-3 15.5q3 20 34 20h36l43 255h-240l-43 -255h36q9 0 14 -0.5t10 -5.5t4 -15q-4 -21 -35 -21h-123q-8 0 -13 0.5t-10.5 5.5t-3.5 15zM70 -124q3 22 26 22q14 0 16 -11q4 -40 125 -40t139 40q6 11 20 11 q21 0 18 -22q-4 -26 -23 -42.5t-51.5 -22.5t-53.5 -7.5t-56 -1.5t-55.5 1.5t-51 7.5t-44 22.5t-9.5 42.5z" />
<glyph unicode="&#x1e2b;" d="M18 21q3 21 35 21h56l88 527h-57q-8 0 -13 0.5t-10.5 5.5t-4.5 14q4 22 36 22h75q20 0 24.5 -6.5t1.5 -25.5l-37 -217q82 69 158 69q124 0 101 -138l-42 -251h56q9 0 14 -0.5t10.5 -5.5t4.5 -15q-4 -21 -35 -21h-158q-8 0 -13.5 0.5t-11 5.5t-3.5 15q3 21 35 21h51 l41 245q9 54 -4.5 78t-58.5 24q-51 0 -102 -38.5t-64 -114.5l-32 -194h56q9 0 14 -0.5t10.5 -5.5t4.5 -15q-4 -21 -35 -21h-164q-8 0 -13 0.5t-10.5 5.5t-3.5 15zM70 -124q3 22 26 22q14 0 16 -11q4 -40 125 -40t139 40q6 11 20 11q21 0 18 -22q-4 -26 -23 -42.5 t-51.5 -22.5t-53.5 -7.5t-56 -1.5t-55.5 1.5t-51 7.5t-44 22.5t-9.5 42.5z" />
<glyph unicode="&#x1e36;" d="M39 21q3 21 34 21h48l88 527h-48q-9 0 -14 0.5t-10 5.5t-4 14q4 22 35 22h167q8 0 13.5 -0.5t11 -6t3.5 -15.5q-3 -20 -35 -20h-68l-88 -527h270l14 82q1 10 3 16t8.5 11t18.5 5q17 0 20.5 -10.5t-0.5 -21.5l-16 -92q-3 -19 -10 -25.5t-26 -6.5h-388q-9 0 -14 0.5 t-10 5.5t-3 15zM194 -165q3 17 17 29t31 12t27 -12t7 -29q-3 -18 -17 -30t-31 -12t-27 12t-7 30z" />
<glyph unicode="&#x1e37;" d="M65 21q3 21 35 21h144l88 527h-145q-8 0 -13 0.5t-10.5 5.5t-4.5 14q4 22 36 22h164q19 0 24 -6.5t2 -25.5l-90 -537h145q9 0 14 -0.5t10 -5.5t4 -15q-4 -21 -35 -21h-341q-8 0 -13 0.5t-10.5 5.5t-3.5 15zM194 -165q3 17 17 29t31 12t27 -12t7 -29q-3 -18 -17 -30 t-31 -12t-27 12t-7 30z" />
<glyph unicode="&#x1e38;" d="M39 21q3 21 34 21h48l88 527h-48q-9 0 -14 0.5t-10 5.5t-4 14q4 22 35 22h167q8 0 13.5 -0.5t11 -6t3.5 -15.5q-3 -20 -35 -20h-68l-88 -527h270l14 82q1 10 3 16t8.5 11t18.5 5q17 0 20.5 -10.5t-0.5 -21.5l-16 -92q-3 -19 -10 -25.5t-26 -6.5h-388q-9 0 -14 0.5 t-10 5.5t-3 15zM83 705q4 22 35 22h308q9 0 14 -0.5t10 -6t3 -16.5q-3 -21 -34 -21h-307q-9 0 -14.5 0.5t-10.5 6t-4 15.5zM194 -165q3 17 17 29t31 12t27 -12t7 -29q-3 -18 -17 -30t-31 -12t-27 12t-7 30z" />
<glyph unicode="&#x1e39;" d="M65 21q3 21 35 21h144l88 527h-145q-8 0 -13 0.5t-10.5 5.5t-4.5 14q4 22 36 22h164q19 0 24 -6.5t2 -25.5l-90 -537h145q9 0 14 -0.5t10 -5.5t4 -15q-4 -21 -35 -21h-341q-8 0 -13 0.5t-10.5 5.5t-3.5 15zM145 705q4 22 35 22h308q9 0 14 -0.5t10 -6t3 -16.5 q-3 -21 -34 -21h-307q-9 0 -14.5 0.5t-10.5 6t-4 15.5zM194 -165q3 17 17 29t31 12t27 -12t7 -29q-3 -18 -17 -30t-31 -12t-27 12t-7 30z" />
<glyph unicode="&#x1e42;" d="M23 21q1 10 9 14.5t17.5 5.5t31.5 1l88 527q-17 0 -24.5 0.5t-15.5 2t-10.5 6t-1.5 12.5q4 21 35 21h58q38 0 41 -18l52 -340h2l158 324q9 18 20 26t35 8h58q8 0 13 -0.5t10.5 -5.5t3.5 -15q-1 -10 -9 -14.5t-17.5 -5.5t-31.5 -1l-88 -527q17 0 24.5 -0.5t15.5 -2 t10.5 -6t1.5 -12.5q-4 -21 -35 -21h-85q-8 0 -13 0.5t-10.5 5.5t-3.5 15q1 10 9 14.5t17.5 5.5t31.5 1l88 527h-7l-168 -341q-8 -17 -36 -17q-24 0 -28 13l-55 345h-7l-88 -527q17 0 24 -0.5t15 -2t10.5 -6t1.5 -12.5q-4 -21 -35 -21h-85q-8 0 -13 0.5t-10.5 5.5t-3.5 15z M194 -165q3 17 17 29t31 12t27 -12t7 -29q-3 -18 -17 -30t-31 -12t-27 12t-7 30z" />
<glyph unicode="&#x1e43;" d="M3 21q2 15 14 18t46 3l57 341q-34 0 -45 3t-9 18q4 21 36 21h33q10 0 14.5 -1.5t9 -11.5t2.5 -30q61 49 104 49q47 0 65 -64q57 64 116 64q28 0 44 -16t18.5 -42t2 -41t-2.5 -29l-44 -261q34 0 45 -3t9 -18q-4 -21 -36 -21h-77q-8 0 -13.5 0.5t-11 5.5t-3.5 15 q1 10 8.5 15t14.5 5.5t23 0.5l42 252q9 54 0.5 74.5t-30.5 20.5q-38 0 -73 -40t-46 -111l-33 -196q34 0 45 -3t9 -18q-4 -21 -36 -21h-77q-8 0 -13.5 0.5t-11 5.5t-3.5 15q1 10 8.5 15t14.5 5.5t23 0.5l42 252q9 54 0.5 74.5t-30.5 20.5q-37 0 -71.5 -40t-45.5 -111 l-33 -196q34 0 45 -3t9 -18q-4 -21 -36 -21h-91q-8 0 -13 0.5t-11 5.5t-4 15zM194 -165q3 17 17 29t31 12t27 -12t7 -29q-3 -18 -17 -30t-31 -12t-27 12t-7 30z" />
<glyph unicode="&#x1e44;" d="M34 22q3 20 34 20h37l88 527h-37q-9 0 -14 0.5t-10 5.5t-4 15q4 21 35 21h71q13 0 20.5 -1.5t13.5 -8.5t9 -20l110 -539h9l88 527h-36q-8 0 -13 0.5t-10.5 5.5t-4.5 14q4 22 35 22h110q9 0 14 -0.5t10 -6t3 -15.5q-3 -20 -34 -20h-37l-90 -537q-4 -21 -11 -26.5t-27 -5.5 q-13 0 -20 1.5t-14 8t-10 20.5l-110 539h-9l-88 -527h36q9 0 14 -0.5t10 -5.5t4 -15q-4 -21 -35 -21h-110q-9 0 -14 0.5t-10 6t-3 15.5zM339 704q3 17 17 29.5t31 12.5t27 -12.5t7 -29.5t-17 -29t-31 -12t-27 12t-7 29z" />
<glyph unicode="&#x1e45;" d="M18 21q3 21 35 21h56l57 341h-57q-8 0 -13 0.5t-10.5 5.5t-4.5 14q4 22 36 22h75q22 0 25 -12.5t-5 -50.5q82 69 158 69q124 0 101 -138l-42 -251h56q9 0 14 -0.5t10.5 -5.5t4.5 -15q-4 -21 -35 -21h-158q-8 0 -13.5 0.5t-11 5.5t-3.5 15q3 21 35 21h51l41 245 q9 54 -4.5 78t-58.5 24q-51 0 -102 -38.5t-64 -114.5l-32 -194h56q9 0 14 -0.5t10.5 -5.5t4.5 -15q-4 -21 -35 -21h-164q-8 0 -13 0.5t-10.5 5.5t-3.5 15zM316 563q3 18 17 30t31 12t27 -12t7 -30q-3 -17 -17 -29t-31 -12t-27 12t-7 29z" />
<glyph unicode="&#x1e46;" d="M34 22q3 20 34 20h37l88 527h-37q-9 0 -14 0.5t-10 5.5t-4 15q4 21 35 21h71q13 0 20.5 -1.5t13.5 -8.5t9 -20l110 -539h9l88 527h-36q-8 0 -13 0.5t-10.5 5.5t-4.5 14q4 22 35 22h110q9 0 14 -0.5t10 -6t3 -15.5q-3 -20 -34 -20h-37l-90 -537q-4 -21 -11 -26.5t-27 -5.5 q-13 0 -20 1.5t-14 8t-10 20.5l-110 539h-9l-88 -527h36q9 0 14 -0.5t10 -5.5t4 -15q-4 -21 -35 -21h-110q-9 0 -14 0.5t-10 6t-3 15.5zM194 -165q3 17 17 29t31 12t27 -12t7 -29q-3 -18 -17 -30t-31 -12t-27 12t-7 30z" />
<glyph unicode="&#x1e47;" d="M18 21q3 21 35 21h56l57 341h-57q-8 0 -13 0.5t-10.5 5.5t-4.5 14q4 22 36 22h75q22 0 25 -12.5t-5 -50.5q82 69 158 69q124 0 101 -138l-42 -251h56q9 0 14 -0.5t10.5 -5.5t4.5 -15q-4 -21 -35 -21h-158q-8 0 -13.5 0.5t-11 5.5t-3.5 15q3 21 35 21h51l41 245 q9 54 -4.5 78t-58.5 24q-51 0 -102 -38.5t-64 -114.5l-32 -194h56q9 0 14 -0.5t10.5 -5.5t4.5 -15q-4 -21 -35 -21h-164q-8 0 -13 0.5t-10.5 5.5t-3.5 15zM194 -165q3 17 17 29t31 12t27 -12t7 -29q-3 -18 -17 -30t-31 -12t-27 12t-7 30z" />
<glyph unicode="&#x1e58;" d="M28 21q3 21 34 21h36l88 527h-36q-8 0 -13 0.5t-10.5 5.5t-4.5 14q4 22 35 22h183q83 0 128.5 -48.5t34.5 -114.5q-16 -89 -120 -143q39 -34 49 -68q5 -21 -7 -93q-10 -46 -6.5 -79.5t26.5 -33.5q14 0 25.5 21.5t14.5 35.5q4 21 28 21q25 0 21 -23q-5 -33 -30.5 -65 t-64.5 -32q-47 0 -64 38q-7 17 -8 37.5t0.5 35.5t8.5 57q7 34 6 56.5t-16 39.5q-31 31 -86 31h-91l-40 -242h36q9 0 14 -0.5t10 -5.5t4 -15q-4 -21 -35 -21h-123q-8 0 -13 0.5t-10.5 5.5t-3.5 15zM197 327h85q71 0 117 37.5t54 83.5q8 45 -26 83t-105 38h-85zM341 715 q3 17 17 29.5t31 12.5t27 -12.5t7 -29.5t-17 -29t-31 -12t-27 12t-7 29z" />
<glyph unicode="&#x1e59;" d="M39 22q3 20 34 20h94l57 341h-94q-9 0 -14 0.5t-10 5.5t-4 15q4 21 35 21h113q20 0 24.5 -6.5t1.5 -25.5l-11 -63q106 101 203 101q27 0 44.5 -5.5t24.5 -14.5t9 -17t1 -17q-3 -15 -14 -24.5t-25 -9.5q-15 0 -22.5 12.5t-3.5 33.5q-100 0 -164 -61.5t-78 -145.5l-23 -140 h125q9 0 14 -0.5t10.5 -5.5t4.5 -15q-4 -21 -36 -21h-269q-9 0 -14 0.5t-10 6t-3 15.5zM316 563q3 18 17 30t31 12t27 -12t7 -30q-3 -17 -17 -29t-31 -12t-27 12t-7 29z" />
<glyph unicode="&#x1e5a;" d="M28 21q3 21 34 21h36l88 527h-36q-8 0 -13 0.5t-10.5 5.5t-4.5 14q4 22 35 22h183q83 0 128.5 -48.5t34.5 -114.5q-16 -89 -120 -143q39 -34 49 -68q5 -21 -7 -93q-10 -46 -6.5 -79.5t26.5 -33.5q14 0 25.5 21.5t14.5 35.5q4 21 28 21q25 0 21 -23q-5 -33 -30.5 -65 t-64.5 -32q-47 0 -64 38q-7 17 -8 37.5t0.5 35.5t8.5 57q7 34 6 56.5t-16 39.5q-31 31 -86 31h-91l-40 -242h36q9 0 14 -0.5t10 -5.5t4 -15q-4 -21 -35 -21h-123q-8 0 -13 0.5t-10.5 5.5t-3.5 15zM194 -165q3 17 17 29t31 12t27 -12t7 -29q-3 -18 -17 -30t-31 -12t-27 12 t-7 30zM197 327h85q71 0 117 37.5t54 83.5q8 45 -26 83t-105 38h-85z" />
<glyph unicode="&#x1e5b;" d="M39 22q3 20 34 20h94l57 341h-94q-9 0 -14 0.5t-10 5.5t-4 15q4 21 35 21h113q20 0 24.5 -6.5t1.5 -25.5l-11 -63q106 101 203 101q27 0 44.5 -5.5t24.5 -14.5t9 -17t1 -17q-3 -15 -14 -24.5t-25 -9.5q-15 0 -22.5 12.5t-3.5 33.5q-100 0 -164 -61.5t-78 -145.5l-23 -140 h125q9 0 14 -0.5t10.5 -5.5t4.5 -15q-4 -21 -36 -21h-269q-9 0 -14 0.5t-10 6t-3 15.5zM133 -165q3 17 17 29t31 12t27 -12t7 -29q-3 -18 -17 -30t-31 -12t-27 12t-7 30z" />
<glyph unicode="&#x1e5c;" d="M28 21q3 21 34 21h36l88 527h-36q-8 0 -13 0.5t-10.5 5.5t-4.5 14q4 22 35 22h183q83 0 128.5 -48.5t34.5 -114.5q-16 -89 -120 -143q39 -34 49 -68q5 -21 -7 -93q-10 -46 -6.5 -79.5t26.5 -33.5q14 0 25.5 21.5t14.5 35.5q4 21 28 21q25 0 21 -23q-5 -33 -30.5 -65 t-64.5 -32q-47 0 -64 38q-7 17 -8 37.5t0.5 35.5t8.5 57q7 34 6 56.5t-16 39.5q-31 31 -86 31h-91l-40 -242h36q9 0 14 -0.5t10 -5.5t4 -15q-4 -21 -35 -21h-123q-8 0 -13 0.5t-10.5 5.5t-3.5 15zM194 -165q3 17 17 29t31 12t27 -12t7 -29q-3 -18 -17 -30t-31 -12t-27 12 t-7 30zM195 705q4 22 35 22h308q9 0 14 -0.5t10 -6t3 -16.5q-3 -21 -34 -21h-307q-9 0 -14.5 0.5t-10.5 6t-4 15.5zM197 327h85q71 0 117 37.5t54 83.5q8 45 -26 83t-105 38h-85z" />
<glyph unicode="&#x1e5d;" d="M39 22q3 20 34 20h94l57 341h-94q-9 0 -14 0.5t-10 5.5t-4 15q4 21 35 21h113q20 0 24.5 -6.5t1.5 -25.5l-11 -63q106 101 203 101q27 0 44.5 -5.5t24.5 -14.5t9 -17t1 -17q-3 -15 -14 -24.5t-25 -9.5q-15 0 -22.5 12.5t-3.5 33.5q-100 0 -164 -61.5t-78 -145.5l-23 -140 h125q9 0 14 -0.5t10.5 -5.5t4.5 -15q-4 -21 -36 -21h-269q-9 0 -14 0.5t-10 6t-3 15.5zM133 -165q3 17 17 29t31 12t27 -12t7 -29q-3 -18 -17 -30t-31 -12t-27 12t-7 30zM172 564q4 22 35 22h308q9 0 14 -0.5t10 -6t3 -16.5q-4 -21 -35 -21h-307q-9 0 -14.5 0.5t-10.5 6 t-3 15.5z" />
<glyph unicode="&#x1e62;" d="M59 21l22 136q2 10 4 15.5t9 11t19 5.5q11 0 16 -4t4.5 -10t-0.5 -12q-6 -67 37 -98q45 -34 121 -34q62 0 105.5 38.5t51.5 86.5q17 100 -102 127l-113 28q-56 17 -83 59.5t-18 92.5q11 64 70.5 111.5t138.5 47.5q85 0 141 -56q15 34 22.5 45t19.5 11q20 0 15 -32 l-22 -136q-2 -10 -4 -15.5t-9 -11t-19 -5.5q-20 0 -21 15q-1 24 -4 41t-14 44t-40 42.5t-73 15.5q-58 0 -101.5 -34t-51.5 -79q-6 -38 15 -67t57 -40l81 -19q63 -15 87 -25.5t48 -38.5q39 -50 28 -116q-12 -69 -72 -120.5t-141 -51.5q-104 0 -168 54q-15 -34 -22 -44 t-19 -10q-20 0 -15 32zM194 -165q3 17 17 29t31 12t27 -12t7 -29q-3 -18 -17 -30t-31 -12t-27 12t-7 30z" />
<glyph unicode="&#x1e63;" d="M80 26l17 100q2 11 3.5 15.5t8.5 10.5t19 6q18 0 21 -12q10 -65 44 -87.5t83 -22.5q72 0 111.5 24t45.5 59q4 21 -7 37t-33.5 25.5t-42.5 15t-45 9.5q-29 4 -45 7t-41.5 9.5t-40 14.5t-28.5 19.5t-19 28.5t-1 38q3 16 12.5 32t30.5 35.5t62.5 31.5t98.5 12q63 0 113 -26 q7 15 12 20.5t17 5.5q20 0 15 -32l-12 -71q-4 -32 -31 -32q-19 0 -21 15q2 37 -17.5 57.5t-84.5 20.5q-73 0 -110.5 -21t-42.5 -48q-5 -29 27.5 -45.5t70.5 -22.5l69 -12q16 -3 28 -5.5t36.5 -12t40 -21.5t26 -34.5t5.5 -50.5q-3 -20 -14.5 -39.5t-33.5 -40t-63.5 -33 t-95.5 -12.5q-78 0 -132 46q-23 -46 -40 -46q-21 0 -16 32zM194 -165q3 17 17 29t31 12t27 -12t7 -29q-3 -18 -17 -30t-31 -12t-27 12t-7 30z" />
<glyph unicode="&#x1e6c;" d="M112 503l13 76q3 19 10.5 25.5t26.5 6.5h405q19 0 24 -6.5t2 -25.5l-13 -76q-2 -11 -3.5 -15.5t-8.5 -10.5t-19 -6q-25 0 -20 32l11 66h-157l-88 -527h64q9 0 14 -0.5t10 -5.5t4 -15q-4 -21 -35 -21h-179q-9 0 -14 0.5t-10 6t-3 15.5q3 20 34 20h64l88 527h-158l-11 -66 q-2 -11 -3.5 -15.5t-8.5 -10.5t-19 -6q-25 0 -20 32zM194 -165q3 17 17 29t31 12t27 -12t7 -29q-3 -18 -17 -30t-31 -12t-27 12t-7 30z" />
<glyph unicode="&#x1e6d;" d="M94 403q4 22 36 22h101l16 95q4 32 30 32q25 0 20 -32l-16 -95h180q9 0 14 -0.5t10 -6t3 -15.5q-3 -20 -34 -20h-180l-43 -257q-1 -16 -3 -36t17.5 -37t60.5 -17q18 0 37.5 5t42 26t28.5 54q4 29 30 29q12 0 17.5 -4.5t5 -11.5t-1.5 -14q-10 -60 -61 -93t-110 -33 q-58 0 -91.5 30.5t-22.5 95.5l44 263h-102q-8 0 -13 0.5t-10.5 5.5t-4.5 14zM194 -165q3 17 17 29t31 12t27 -12t7 -29q-3 -18 -17 -30t-31 -12t-27 12t-7 30z" />
<glyph unicode="&#x1e6e;" d="M53 -150q4 22 35 22h308q9 0 14 -0.5t10 -6t3 -16.5q-4 -21 -35 -21h-307q-9 0 -14.5 0.5t-10.5 6t-3 15.5zM112 503l13 76q3 19 10.5 25.5t26.5 6.5h405q19 0 24 -6.5t2 -25.5l-13 -76q-2 -11 -3.5 -15.5t-8.5 -10.5t-19 -6q-25 0 -20 32l11 66h-157l-88 -527h64 q9 0 14 -0.5t10 -5.5t4 -15q-4 -21 -35 -21h-179q-9 0 -14 0.5t-10 6t-3 15.5q3 20 34 20h64l88 527h-158l-11 -66q-2 -11 -3.5 -15.5t-8.5 -10.5t-19 -6q-25 0 -20 32z" />
<glyph unicode="&#x1e6f;" d="M53 -150q4 22 35 22h308q9 0 14 -0.5t10 -6t3 -16.5q-4 -21 -35 -21h-307q-9 0 -14.5 0.5t-10.5 6t-3 15.5zM94 403q4 22 36 22h101l16 95q4 32 30 32q25 0 20 -32l-16 -95h180q9 0 14 -0.5t10 -6t3 -15.5q-3 -20 -34 -20h-180l-43 -257q-1 -16 -3 -36t17.5 -37t60.5 -17 q18 0 37.5 5t42 26t28.5 54q4 29 30 29q12 0 17.5 -4.5t5 -11.5t-1.5 -14q-10 -60 -61 -93t-110 -33q-58 0 -91.5 30.5t-22.5 95.5l44 263h-102q-8 0 -13 0.5t-10.5 5.5t-4.5 14z" />
<glyph unicode="&#x1e80;" d="M111 589q4 22 36 22h82q9 0 14 -0.5t10 -6t3 -15.5q-3 -20 -34 -20h-34l-22 -535h4l116 309q7 16 36 16q30 0 31 -17l12 -308h4l157 535h-34q-8 0 -13 0.5t-10.5 5.5t-4.5 14q4 22 35 22h82q8 0 13.5 -0.5t11 -6t3.5 -15.5q-3 -20 -41 -20l-167 -550q-8 -27 -41 -27 q-29 0 -30 18l-15 302l-119 -306q-10 -14 -34 -14q-33 0 -33 27l17 550h-10q-28 0 -25 20zM309 739q-25 12 -18 32t30 20q6 0 14 -4l128 -62q17 -9 15 -21q-1 -9 -8.5 -20t-20.5 -11q-5 1 -7 2z" />
<glyph unicode="&#x1e81;" d="M85 404q4 21 37 21h119q10 0 15.5 -0.5t10.5 -6t3 -15.5q-3 -20 -36 -20h-59l2 -345h6l87 192q8 17 35 17q32 0 32 -18l17 -191h6l117 345h-59q-10 0 -15.5 0.5t-10.5 5.5t-4 15q4 21 37 21h119q9 0 14.5 -0.5t11 -5.5t3.5 -15q-1 -10 -8 -14.5t-15.5 -5.5t-28.5 -1 l-123 -356q-5 -16 -13.5 -23.5t-29.5 -7.5q-27 0 -35 12l-18 197h-6l-78 -181q-7 -17 -17.5 -22.5t-30.5 -5.5q-23 0 -29 7t-5 24l-5 356q-15 0 -22 0.5t-14 2t-9 6t-1 12.5zM281 570q-24 11 -17.5 31.5t29.5 20.5q6 0 14 -4l128 -62q17 -8 15 -20q-1 -9 -8.5 -20t-20.5 -11 q-5 0 -7 1z" />
<glyph unicode="&#x1e82;" d="M111 589q4 22 36 22h82q9 0 14 -0.5t10 -6t3 -15.5q-3 -20 -34 -20h-34l-22 -535h4l116 309q7 16 36 16q30 0 31 -17l12 -308h4l157 535h-34q-8 0 -13 0.5t-10.5 5.5t-4.5 14q4 22 35 22h82q8 0 13.5 -0.5t11 -6t3.5 -15.5q-3 -20 -41 -20l-167 -550q-8 -27 -41 -27 q-29 0 -30 18l-15 302l-119 -306q-10 -14 -34 -14q-33 0 -33 27l17 550h-10q-28 0 -25 20zM281 704q2 11 23 21l148 62l16 4q11 0 17 -7.5t4 -18.5q-2 -16 -27 -26l-155 -64l-7 -2q-9 0 -14 7t-5.5 13t0.5 11z" />
<glyph unicode="&#x1e83;" d="M85 404q4 21 37 21h119q10 0 15.5 -0.5t10.5 -6t3 -15.5q-3 -20 -36 -20h-59l2 -345h6l87 192q8 17 35 17q32 0 32 -18l17 -191h6l117 345h-59q-10 0 -15.5 0.5t-10.5 5.5t-4 15q4 21 37 21h119q9 0 14.5 -0.5t11 -5.5t3.5 -15q-1 -10 -8 -14.5t-15.5 -5.5t-28.5 -1 l-123 -356q-5 -16 -13.5 -23.5t-29.5 -7.5q-27 0 -35 12l-18 197h-6l-78 -181q-7 -17 -17.5 -22.5t-30.5 -5.5q-23 0 -29 7t-5 24l-5 356q-15 0 -22 0.5t-14 2t-9 6t-1 12.5zM253 536q2 12 23 20l148 62l16 4q11 0 17.5 -7t4.5 -18q-4 -17 -28 -27l-155 -64l-7 -1 q-23 0 -19 31z" />
<glyph unicode="&#x1e84;" d="M111 589q4 22 36 22h82q9 0 14 -0.5t10 -6t3 -15.5q-3 -20 -34 -20h-34l-22 -535h4l116 309q7 16 36 16q30 0 31 -17l12 -308h4l157 535h-34q-8 0 -13 0.5t-10.5 5.5t-4.5 14q4 22 35 22h82q8 0 13.5 -0.5t11 -6t3.5 -15.5q-3 -20 -41 -20l-167 -550q-8 -27 -41 -27 q-29 0 -30 18l-15 302l-119 -306q-10 -14 -34 -14q-33 0 -33 27l17 550h-10q-28 0 -25 20zM242 699q3 16 15 26t27 10t24 -10.5t6 -25.5q-2 -15 -14.5 -25.5t-27.5 -10.5t-23.5 10.5t-6.5 25.5zM443 699q3 16 15 26t27 10t24 -10.5t6 -25.5q-2 -15 -14.5 -25.5t-27.5 -10.5 t-23.5 10.5t-6.5 25.5z" />
<glyph unicode="&#x1e85;" d="M85 404q4 21 37 21h119q10 0 15.5 -0.5t10.5 -6t3 -15.5q-3 -20 -36 -20h-59l2 -345h6l87 192q8 17 35 17q32 0 32 -18l17 -191h6l117 345h-59q-10 0 -15.5 0.5t-10.5 5.5t-4 15q4 21 37 21h119q9 0 14.5 -0.5t11 -5.5t3.5 -15q-1 -10 -8 -14.5t-15.5 -5.5t-28.5 -1 l-123 -356q-5 -16 -13.5 -23.5t-29.5 -7.5q-27 0 -35 12l-18 197h-6l-78 -181q-7 -17 -17.5 -22.5t-30.5 -5.5q-23 0 -29 7t-5 24l-5 356q-15 0 -22 0.5t-14 2t-9 6t-1 12.5zM235 563q2 16 14.5 26.5t27.5 10.5t23.5 -10.5t6.5 -26.5q-2 -15 -14.5 -25.5t-27.5 -10.5 t-23.5 10.5t-6.5 25.5zM406 563q2 16 14.5 26.5t27.5 10.5t23.5 -10.5t6.5 -26.5q-2 -15 -14.5 -25.5t-27.5 -10.5t-23.5 10.5t-6.5 25.5z" />
<glyph unicode="&#x1e92;" d="M55 25q4 15 14 26l437 518h-297l-11 -66q-2 -11 -3.5 -15.5t-8.5 -10.5t-19 -6q-25 0 -20 32l13 76q3 19 10.5 25.5t27.5 6.5h345q10 0 15 -1t10 -6.5t3 -17.5q-4 -15 -14 -26l-437 -518h314l14 85q2 10 4 15.5t9 11t19 5.5q17 0 20 -10.5t-1 -21.5l-16 -95 q-3 -19 -10 -25.5t-26 -6.5h-364q-10 0 -15 1t-10 6.5t-3 17.5zM194 -165q3 17 17 29t31 12t27 -12t7 -29q-3 -18 -17 -30t-31 -12t-27 12t-7 30z" />
<glyph unicode="&#x1e93;" d="M40 25q2 11 6 16.5t19 17.5l395 324h-293l-6 -38q-2 -10 -4 -15.5t-9 -11t-19 -5.5q-26 0 -19 32l8 48q3 19 10 25.5t27 6.5h352q10 0 15 -1t10 -6.5t3 -17.5q-3 -16 -26 -34l-395 -324h314l8 50q2 10 4 15.5t9 11t19 5.5q26 0 19 -32l-10 -60q-2 -26 -19 -32h-390 q-10 0 -15.5 1t-10 6.5t-2.5 17.5zM194 -165q3 17 17 29t31 12t27 -12t7 -29q-3 -18 -17 -30t-31 -12t-27 12t-7 30z" />
<glyph unicode="&#x1e97;" d="M94 403q4 22 36 22h101l16 95q4 32 30 32q25 0 20 -32l-16 -95h180q9 0 14 -0.5t10 -6t3 -15.5q-3 -20 -34 -20h-180l-43 -257q-1 -16 -3 -36t17.5 -37t60.5 -17q18 0 37.5 5t42 26t28.5 54q4 29 30 29q12 0 17.5 -4.5t5 -11.5t-1.5 -14q-10 -60 -61 -93t-110 -33 q-58 0 -91.5 30.5t-22.5 95.5l44 263h-102q-8 0 -13 0.5t-10.5 5.5t-4.5 14zM155 639q3 16 15 26t27 10t24 -10.5t6 -25.5q-2 -15 -14.5 -25.5t-27.5 -10.5t-23.5 10.5t-6.5 25.5zM356 639q3 16 15 26t27 10t24 -10.5t6 -25.5q-2 -15 -14.5 -25.5t-27.5 -10.5t-23.5 10.5 t-6.5 25.5z" />
<glyph unicode="&#x1ea0;" d="M33 21q2 14 15 20q6 1 48 1l219 550q6 15 14.5 22t15 8t21.5 1q16 0 22.5 -1t12 -8.5t6.5 -22.5l35 -549q41 0 47 -1q12 -5 10 -20q-4 -21 -39 -21h-105q-10 0 -15.5 0.5t-10.5 5.5t-3 15q2 15 14.5 18t48.5 3l-6 129h-184l-50 -129q36 0 47.5 -3t9.5 -18q-4 -21 -37 -21 h-106q-9 0 -14.5 0.5t-11.5 5.5t-4 15zM194 -165q3 17 17 29t31 12t27 -12t7 -29q-3 -18 -17 -30t-31 -12t-27 12t-7 30zM217 213h162l-16 368h-7z" />
<glyph unicode="&#x1ea1;" d="M78 122q12 69 101 105.5t233 38.5q21 126 -121 126q-68 0 -72 -23q-4 -20 -17 -28.5t-26 -8.5q-15 0 -23.5 10t-5.5 27q10 65 150 65q97 0 138 -45t31 -105l-38 -230q30 -12 70 -12q9 0 14 -0.5t10.5 -5.5t4.5 -14q-2 -10 -9.5 -15.5t-15 -6t-21.5 -0.5q-25 0 -39.5 1 t-34.5 10t-29 26q-73 -43 -160 -43q-72 0 -110.5 38t-29.5 90zM129 122q-5 -35 23 -60.5t80 -25.5q57 0 99 19q23 10 36 23t16 22.5t6 27.5l17 98q-122 -4 -196 -33.5t-81 -70.5zM194 -165q3 17 17 29t31 12t27 -12t7 -29q-3 -18 -17 -30t-31 -12t-27 12t-7 30z" />
<glyph unicode="&#x1ea2;" d="M33 21q2 14 15 20q6 1 48 1l219 550q6 15 14.5 22t15 8t21.5 1q16 0 22.5 -1t12 -8.5t6.5 -22.5l35 -549q41 0 47 -1q12 -5 10 -20q-4 -21 -39 -21h-105q-10 0 -15.5 0.5t-10.5 5.5t-3 15q2 15 14.5 18t48.5 3l-6 129h-184l-50 -129q36 0 47.5 -3t9.5 -18q-4 -21 -37 -21 h-106q-9 0 -14.5 0.5t-11.5 5.5t-4 15zM217 213h162l-16 368h-7zM307 818q6 32 34.5 52.5t62.5 20.5q42 0 66 -17q28 -24 19.5 -57.5t-38.5 -47.5q-54 -27 -59 -58l-4 -19q-1 -7 -7 -12.5t-14 -5.5q-18 0 -16 18l4 19q9 52 85 91l13 14q4 22 -11.5 30t-44.5 8 q-18 0 -33.5 -11t-17.5 -25q0 -5 -6 -12t-16 -7q-20 0 -17 19z" />
<glyph unicode="&#x1ea3;" d="M78 122q12 69 101 105.5t233 38.5q21 126 -121 126q-68 0 -72 -23q-4 -20 -17 -28.5t-26 -8.5q-15 0 -23.5 10t-5.5 27q10 65 150 65q97 0 138 -45t31 -105l-38 -230q30 -12 70 -12q9 0 14 -0.5t10.5 -5.5t4.5 -14q-2 -10 -9.5 -15.5t-15 -6t-21.5 -0.5q-25 0 -39.5 1 t-34.5 10t-29 26q-73 -43 -160 -43q-72 0 -110.5 38t-29.5 90zM129 122q-5 -35 23 -60.5t80 -25.5q57 0 99 19q23 10 36 23t16 22.5t6 27.5l17 98q-122 -4 -196 -33.5t-81 -70.5zM271 599q3 21 18 38t35.5 26t42.5 9q42 0 66 -17q28 -24 20 -57.5t-38 -47.5q-55 -27 -60 -58 l-3 -19q-4 -18 -21 -18q-8 0 -13 5t-3 13l3 19q8 51 85 91l14 14q4 21 -12 29.5t-44 8.5q-18 0 -33.5 -11t-17.5 -25q-4 -19 -22 -19q-20 0 -17 19z" />
<glyph unicode="&#x1ea4;" d="M33 21q2 14 15 20q6 1 48 1l219 550q6 15 14.5 22t15 8t21.5 1q16 0 22.5 -1t12 -8.5t6.5 -22.5l35 -549q41 0 47 -1q12 -5 10 -20q-4 -21 -39 -21h-105q-10 0 -15.5 0.5t-10.5 5.5t-3 15q2 15 14.5 18t48.5 3l-6 129h-184l-50 -129q36 0 47.5 -3t9.5 -18q-4 -21 -37 -21 h-106q-9 0 -14.5 0.5t-11.5 5.5t-4 15zM217 213h162l-16 368h-7zM233 685q2 13 26 22l115 40q14 4 26 0l101 -40q21 -8 17 -26t-27 -18q-7 0 -28 7l-84 30l-94 -30q-26 -7 -32 -7q-24 0 -20 22zM296 800q2 11 23 21l148 62l16 4q11 0 17 -7.5t4 -18.5q-2 -16 -27 -26 l-155 -64l-7 -2q-9 0 -14 7t-5.5 13t0.5 11z" />
<glyph unicode="&#x1ea5;" d="M78 122q12 69 101 105.5t233 38.5q21 126 -121 126q-68 0 -72 -23q-4 -20 -17 -28.5t-26 -8.5q-15 0 -23.5 10t-5.5 27q10 65 150 65q97 0 138 -45t31 -105l-38 -230q30 -12 70 -12q9 0 14 -0.5t10.5 -5.5t4.5 -14q-2 -10 -9.5 -15.5t-15 -6t-21.5 -0.5q-25 0 -39.5 1 t-34.5 10t-29 26q-73 -43 -160 -43q-72 0 -110.5 38t-29.5 90zM129 122q-5 -35 23 -60.5t80 -25.5q57 0 99 19q23 10 36 23t16 22.5t6 27.5l17 98q-122 -4 -196 -33.5t-81 -70.5zM207 528q2 13 26 22l115 40q14 4 26 0l101 -40q21 -8 17 -26t-27 -18q-7 0 -28 7l-84 30 l-94 -30q-26 -7 -32 -7q-24 0 -20 22zM270 643q2 11 23 21l148 62l16 4q11 0 17 -7.5t4 -18.5q-2 -16 -27 -26l-155 -64l-7 -2q-9 0 -14 7t-5.5 13t0.5 11z" />
<glyph unicode="&#x1ea6;" d="M33 21q2 14 15 20q6 1 48 1l219 550q6 15 14.5 22t15 8t21.5 1q16 0 22.5 -1t12 -8.5t6.5 -22.5l35 -549q41 0 47 -1q12 -5 10 -20q-4 -21 -39 -21h-105q-10 0 -15.5 0.5t-10.5 5.5t-3 15q2 15 14.5 18t48.5 3l-6 129h-184l-50 -129q36 0 47.5 -3t9.5 -18q-4 -21 -37 -21 h-106q-9 0 -14.5 0.5t-11.5 5.5t-4 15zM217 213h162l-16 368h-7zM233 685q2 13 26 22l115 40q14 4 26 0l101 -40q21 -8 17 -26t-27 -18q-7 0 -28 7l-84 30l-94 -30q-26 -7 -32 -7q-24 0 -20 22zM325 835q-25 12 -18 32t30 20q6 0 14 -4l128 -62q17 -9 15 -21q-1 -9 -8.5 -20 t-20.5 -11q-5 1 -7 2z" />
</font>
</defs>
</svg>
